<?xml version="1.0" encoding="UTF-8" standalone="no"?>
<svg width="22px" height="23px" viewBox="0 0 22 23" version="1.1" xmlns="http://www.w3.org/2000/svg" xmlns:xlink="http://www.w3.org/1999/xlink" xmlns:sketch="http://www.bohemiancoding.com/sketch/ns">
    <!-- Generator: Sketch 3.2.1 (9977) - http://www.bohemiancoding.com/sketch -->
    <title>Fill 1</title>
    <desc>Created with Sketch.</desc>
    <defs></defs>
    <g id="NT_Recipe_Responsive" stroke="none" stroke-width="1" fill="none" fill-rule="evenodd" sketch:type="MSPage">
        <g id="Large" sketch:type="MSArtboardGroup" transform="translate(-431.000000, -1297.000000)" fill="#2C2C2C">
            <g id="recipe_meta_info" sketch:type="MSLayerGroup" transform="translate(129.000000, 1215.000000)">
                <g id="Imported-Layers-4" transform="translate(302.089125, 82.500000)" sketch:type="MSShapeGroup">
                    <path d="M1.09914035,13.4717 C0.516754386,16.0779667 0.723078947,17.9428333 0.34022807,20.3056333 C1.30697368,18.6582 2.3057807,17.2249 3.30421053,15.9661333 C3.06205263,15.1169333 2.72371053,13.4544667 3.17747368,11.7593667 C3.17747368,11.7593667 3.43396491,13.8834667 4.10310526,15.0032667 C4.64701754,14.3685667 5.18715789,13.783 5.72088596,13.2509667 C5.61376316,12.0127333 5.49419298,8.77946667 6.96675439,7.28566667 C6.96675439,7.28566667 6.07884211,10.4844667 6.60163158,12.4083667 C10.9653772,8.40546667 14.6177368,7.5889 14.6177368,7.5889 C12.4556667,8.78533333 10.609307,10.0884667 9.01491228,11.4458667 C10.7341579,11.3234 14.2775088,10.1673 14.2775088,10.1673 C11.5915175,11.7392 8.96097368,12.3442 7.78337719,12.5532 C6.70347368,13.5798667 5.75898246,14.6285333 4.93670175,15.6819667 C7.93085965,15.8645667 13.9214386,13.6396333 13.9214386,13.6396333 C11.0770263,15.6112 5.9392807,16.5971667 4.02502632,16.9092 C3.81191228,17.2161 2.31370175,19.7758 1.40881579,21.8507667 C2.79273684,21.3546667 4.9397193,20.6253667 7.17949123,20.0185333 C10.974807,18.9874667 16.0035439,17.5644333 18.4832105,12.023 C20.9451491,6.523 19.7901842,2.29973333 21.1329912,0.2706 C20.9289298,0.5742 19.5465175,2.30853333 14.1982982,3.1383 C8.32464912,4.04983333 2.38914035,7.69633333 1.09914035,13.4717 Z" id="Fill-1"></path>
                </g>
            </g>
        </g>
    </g>
</svg>