<?xml version="1.0" encoding="UTF-8" standalone="no"?>
<svg width="27px" height="19px" viewBox="0 0 27 19" version="1.1" xmlns="http://www.w3.org/2000/svg" xmlns:xlink="http://www.w3.org/1999/xlink" xmlns:sketch="http://www.bohemiancoding.com/sketch/ns">
    <!-- Generator: Sketch 3.2.1 (9977) - http://www.bohemiancoding.com/sketch -->
    <title>group 2</title>
    <desc>Created with Sketch.</desc>
    <defs></defs>
    <g id="NT_Recipe_Responsive" stroke="none" stroke-width="1" fill="none" fill-rule="evenodd" sketch:type="MSPage">
        <g id="Large" sketch:type="MSArtboardGroup" transform="translate(-129.000000, -1299.000000)" fill="#2C2C2C">
            <g id="recipe_meta_info" sketch:type="MSLayerGroup" transform="translate(129.000000, 1215.000000)">
                <g id="group-2" transform="translate(0.000000, 84.500000)" sketch:type="MSShapeGroup">
                    <path d="M18.4090909,7.71428571 C20.4954545,7.71428571 22.0909091,6.04285714 22.0909091,3.85714286 C22.0909091,1.67142857 20.4954545,0 18.4090909,0 C16.3227273,0 14.7272727,1.67142857 14.7272727,3.85714286 C14.7272727,6.04285714 16.3227273,7.71428571 18.4090909,7.71428571 L18.4090909,7.71428571 Z M8.59090909,7.71428571 C10.6772727,7.71428571 12.2727273,6.04285714 12.2727273,3.85714286 C12.2727273,1.67142857 10.6772727,0 8.59090909,0 C6.50454545,0 4.90909091,1.67142857 4.90909091,3.85714286 C4.90909091,6.04285714 6.50454545,7.71428571 8.59090909,7.71428571 L8.59090909,7.71428571 Z M8.59090909,10.2857143 C5.76818182,10.2857143 0,11.8285714 0,14.7857143 L0,18 L17.1818182,18 L17.1818182,14.7857143 C17.1818182,11.8285714 11.4136364,10.2857143 8.59090909,10.2857143 L8.59090909,10.2857143 Z M18.4090909,10.2857143 C18.0409091,10.2857143 17.6727273,10.2857143 17.1818182,10.4142857 C18.6545455,11.4428571 19.6363636,12.9857143 19.6363636,14.7857143 L19.6363636,18 L27,18 L27,14.7857143 C27,11.8285714 21.2318182,10.2857143 18.4090909,10.2857143 L18.4090909,10.2857143 Z" id="Shape"></path>
                </g>
            </g>
        </g>
    </g>
</svg>