<?xml version="1.0" encoding="UTF-8" standalone="no"?>
<svg width="15px" height="28px" viewBox="0 0 15 28" version="1.1" xmlns="http://www.w3.org/2000/svg" xmlns:xlink="http://www.w3.org/1999/xlink" xmlns:sketch="http://www.bohemiancoding.com/sketch/ns">
    <!-- Generator: Sketch 3.2.1 (9977) - http://www.bohemiancoding.com/sketch -->
    <title>Imported Layers 3</title>
    <desc>Created with Sketch.</desc>
    <defs></defs>
    <g id="NT_Recipe_Responsive" stroke="none" stroke-width="1" fill="none" fill-rule="evenodd" sketch:type="MSPage">
        <g id="Large" sketch:type="MSArtboardGroup" transform="translate(-431.000000, -1235.000000)" fill="#2C2C2C">
            <g id="recipe_meta_info" sketch:type="MSLayerGroup" transform="translate(129.000000, 1215.000000)">
                <g id="Imported-Layers-3" transform="translate(302.089125, 20.500000)" sketch:type="MSShapeGroup">
                    <path d="M6.49018868,8.85466337 C6.48543396,9.71893069 5.70381132,10.6486931 4.69079245,10.6486931 L4.69079245,25.2963267 C4.6905283,27.3825446 1.8889434,27.3825446 1.88471698,25.2963267 L1.88471698,10.6486931 C0.90154717,10.6486931 0.0430566038,9.87879208 0.0449056604,8.73249505 L0.0449056604,0.660831683 C0.0430566038,-0.0398316832 1.04524528,-0.0668316832 1.05184906,0.687831683 L1.05184906,6.6529604 L1.88471698,6.6529604 L1.88471698,0.63329703 C1.88471698,-0.0104257426 2.84939623,-0.0518613861 2.85177358,0.660831683 L2.85177358,6.6529604 L3.7105283,6.6529604 L3.7105283,0.646663366 C3.71686792,-0.0320792079 4.65433962,-0.0590792079 4.65037736,0.67419802 L4.65037736,6.6529604 L5.51018868,6.6529604 L5.51018868,0.646663366 C5.50701887,-0.0251287129 6.48622642,-0.0521287129 6.49045283,0.67419802 L6.49045283,8.85466337 L6.49018868,8.85466337" id="Fill-1"></path>
                    <path d="M13.9550943,2.53559406 L13.9550943,25.2963267 C13.9587925,27.3296139 11.1519245,27.2996733 11.149283,25.2963267 L11.149283,16.2598812 L9.65841509,16.2598812 L9.65841509,2.53559406 C9.65709434,-0.65949505 13.9587925,-0.65949505 13.9550943,2.53559406" id="Fill-2"></path>
                </g>
            </g>
        </g>
    </g>
</svg>