<?xml version="1.0" encoding="UTF-8" standalone="no"?>
<svg width="19px" height="19px" viewBox="0 0 19 19" version="1.1" xmlns="http://www.w3.org/2000/svg" xmlns:xlink="http://www.w3.org/1999/xlink" xmlns:sketch="http://www.bohemiancoding.com/sketch/ns">
    <!-- Generator: Sketch 3.2.1 (9977) - http://www.bohemiancoding.com/sketch -->
    <title>Shape 3</title>
    <desc>Created with Sketch.</desc>
    <defs></defs>
    <g id="NT_Recipe_Responsive" stroke="none" stroke-width="1" fill="none" fill-rule="evenodd" sketch:type="MSPage">
        <g id="Small" sketch:type="MSArtboardGroup" transform="translate(-224.000000, -26.000000)" fill="#212033">
            <g id="Group" sketch:type="MSLayerGroup" transform="translate(-1.000000, 0.000000)">
                <path d="M238.374494,38.2128838 L237.561458,38.2128838 L237.273293,37.9350107 C238.28187,36.7617689 238.889074,35.2386128 238.889074,33.581666 C238.889074,29.8869833 235.89422,26.8921291 232.199537,26.8921291 C228.504854,26.8921291 225.51,29.8869833 225.51,33.581666 C225.51,37.2763487 228.504854,40.2712029 232.199537,40.2712029 C233.856484,40.2712029 235.37964,39.6639987 236.552882,38.6554224 L236.830755,38.9435871 L236.830755,39.7566231 L241.976552,44.8921291 L243.51,43.3586814 L238.374494,38.2128838 L238.374494,38.2128838 Z M232.199537,38.2128838 C229.63693,38.2128838 227.568319,36.1442732 227.568319,33.581666 C227.568319,31.0190588 229.63693,28.9504481 232.199537,28.9504481 C234.762144,28.9504481 236.830755,31.0190588 236.830755,33.581666 C236.830755,36.1442732 234.762144,38.2128838 232.199537,38.2128838 L232.199537,38.2128838 Z" id="Shape-3" sketch:type="MSShapeGroup"></path>
            </g>
        </g>
    </g>
</svg>