<?xml version="1.0" encoding="UTF-8" standalone="no"?>
<svg width="27px" height="27px" viewBox="0 0 27 27" version="1.1" xmlns="http://www.w3.org/2000/svg" xmlns:xlink="http://www.w3.org/1999/xlink" xmlns:sketch="http://www.bohemiancoding.com/sketch/ns">
    <!-- Generator: Sketch 3.2.1 (9977) - http://www.bohemiancoding.com/sketch -->
    <title>Imported Layers 2</title>
    <desc>Created with Sketch.</desc>
    <defs></defs>
    <g id="NT_Recipe_Responsive" stroke="none" stroke-width="1" fill="none" fill-rule="evenodd" sketch:type="MSPage">
        <g id="Large" sketch:type="MSArtboardGroup" transform="translate(-131.000000, -1235.000000)" fill="#2C2C2C">
            <g id="recipe_meta_info" sketch:type="MSLayerGroup" transform="translate(129.000000, 1215.000000)">
                <path d="M24.4480769,24.3513077 C21.9654615,21.868 18.6624615,20.5 15.1503846,20.5 C11.6376154,20.5 8.336,21.868 5.852,24.3513077 C3.368,26.8346154 2,30.1376154 2,33.6496923 C2,37.1624615 3.368,40.4647692 5.852,42.9487692 C8.33530769,45.4320769 11.6376154,46.7993846 15.1503846,46.7993846 C18.6624615,46.7993846 21.9654615,45.4320769 24.4480769,42.9487692 C26.9320769,40.4647692 28.3000769,37.1624615 28.3000769,33.6496923 C28.3000769,30.1376154 26.9320769,26.8346154 24.4480769,24.3513077 L24.4480769,24.3513077 Z M15.1503846,45.3213077 C8.70430769,45.3213077 3.47876923,40.0957692 3.47876923,33.6496923 C3.47876923,27.2043077 8.70430769,21.9787692 15.1503846,21.9787692 C21.5957692,21.9787692 26.8213077,27.2043077 26.8213077,33.6496923 C26.8213077,40.0957692 21.5957692,45.3213077 15.1503846,45.3213077 L15.1503846,45.3213077 Z M15.9202308,33.3312308 L15.9202308,24.4482308 C15.9202308,24.0231538 15.5754615,23.6783846 15.1503846,23.6783846 C14.7253077,23.6783846 14.3805385,24.0231538 14.3805385,24.4482308 L14.3805385,33.9688462 L18.7033077,38.2916154 C18.8535385,38.4418462 19.0501538,38.5173077 19.2474615,38.5173077 C19.4447692,38.5173077 19.6413846,38.4418462 19.7923077,38.2916154 C20.0920769,37.9911538 20.0920769,37.5037692 19.7923077,37.2026154 L15.9202308,33.3312308 L15.9202308,33.3312308 Z" id="Imported-Layers-2" sketch:type="MSShapeGroup"></path>
            </g>
        </g>
    </g>
</svg>