<?xml version="1.0" standalone="no"?>
<!DOCTYPE svg PUBLIC "-//W3C//DTD SVG 1.1//EN" "http://www.w3.org/Graphics/SVG/1.1/DTD/svg11.dtd" >
<svg>
<metadata>
Created by FontForge 20120731 at Thu Dec 18 02:00:17 2014
 By Orthosie Webhosting
Copyright (c) 2009 by Paul Barnes. All rights reserved.
</metadata>
<defs>
<font id="NationalTrustTTRegular" horiz-adv-x="368" >
  <font-face 
    font-family="NationalTrustTTRegular"
    font-weight="400"
    font-stretch="normal"
    units-per-em="1000"
    panose-1="2 11 5 3 6 5 2 2 2 3"
    ascent="805"
    descent="-195"
    x-height="470"
    cap-height="684"
    bbox="-157 -214 1431 1020"
    underline-thickness="50"
    underline-position="-50"
    unicode-range="U+0020-FB04"
  />
<missing-glyph horiz-adv-x="230" 
 />
    <glyph glyph-name="f_f" unicode="ff" horiz-adv-x="598" 
d="M98 471v39q0 52 17.5 89.5t46 61.5t66 35t77.5 11q45 0 75 -12t47 -25q27 24 62.5 35.5t77.5 11.5q46 0 76.5 -12.5t46.5 -26.5l-39 -54q-20 23 -39.5 37.5t-53.5 14.5q-52 0 -73 -28.5t-21 -88.5v-89h142v-47h-142v-160q0 -77 1 -138t2 -125h-98q1 64 2 125t1 138
q0 49 -1 85t-2 75h-177v-160q0 -77 1 -138t3 -125h-98q0 64 1 125t1 138q0 49 -1 85t-1 75h-81v27zM192 470h173l4 1v48q0 29 5 52.5t14 43.5q-20 23 -40 37.5t-52 14.5q-53 0 -78.5 -28.5t-25.5 -88.5v-80z" />
    <glyph glyph-name="f_i" unicode="fi" horiz-adv-x="530" 
d="M371 236q0 59 -1 103.5t-2 83.5h-176v-160q0 -77 1 -138t3 -125h-98q0 64 1 125t1 138q0 49 -1 85t-1 75h-81v27l81 21v39q0 52 18.5 91t49 65t69.5 38.5t79 12.5q46 0 85.5 -12.5t55.5 -26.5l-38 -54q-20 23 -49 37.5t-63 14.5q-52 0 -82.5 -35t-30.5 -100v-71h176
q12 0 26 0.5t28 1.5t26 2.5t18 2.5q0 -58 -1.5 -119t-1.5 -122q0 -39 0.5 -68.5t1 -56l1 -53t0.5 -58.5h-98q0 32 0.5 58.5l1 53t1 56t0.5 68.5z" />
    <glyph glyph-name="f_l" unicode="fl" horiz-adv-x="530" 
d="M371 423h-179v-160q0 -77 1 -138t3 -125h-98q0 64 1 125t1 138q0 49 -1 85t-1 75h-81v27l81 21v48q0 53 17.5 90.5t46 61.5t66 35t77.5 11q26 0 46.5 -4.5t37.5 -11.5l77 15q0 -29 -0.5 -74.5t-1 -94.5t-1 -95t-0.5 -77q0 -39 0.5 -90t1 -103.5t1 -101t0.5 -80.5h-98
q0 32 0.5 80.5t1 101t1 103.5t0.5 90v48zM192 470h178q0 48 -1 94t-1 84q-14 13 -31 20.5t-41 7.5q-53 0 -78.5 -28.5t-25.5 -88.5v-89z" />
    <glyph glyph-name="f_f_i" unicode="ffi" horiz-adv-x="801" 
d="M98 471v39q0 52 17.5 89.5t46 61.5t66 35t77.5 11q45 0 79 -12t51 -31q32 26 70.5 39.5t79.5 13.5q47 0 86.5 -12.5t55.5 -26.5l-39 -54q-20 23 -49 37.5t-62 14.5q-53 0 -83 -35t-30 -100v-71h175q12 0 26.5 0.5t28 1.5t25.5 2.5t18 2.5q0 -58 -1.5 -119t-1.5 -122
q0 -39 0.5 -68.5t1 -56l1 -53t0.5 -58.5h-98q0 32 0.5 58.5l1 53t1 56t0.5 68.5q0 59 -1 103.5t-2 83.5h-175v-160q0 -77 1 -138t2 -125h-98q1 64 2 125t1 138q0 49 -1 85t-2 75h-177v-160q0 -77 1 -138t3 -125h-98q0 64 1 125t1 138q0 49 -1 85t-1 75h-81v27zM369 510
q0 33 7.5 61t21.5 50q-24 17 -46.5 31.5t-55.5 14.5q-53 0 -78.5 -28.5t-25.5 -88.5v-80h173l4 1v39z" />
    <glyph glyph-name="f_f_l" unicode="ffl" horiz-adv-x="798" 
d="M98 471v39q0 52 17.5 89.5t46 61.5t66 35t77.5 11q45 0 75 -12t47 -25q27 24 62.5 35.5t77.5 11.5q26 0 47 -4.5t37 -11.5l83 16q0 -29 -0.5 -74.5t-1 -94.5t-1 -95.5t-0.5 -77.5q0 -39 0.5 -90t1 -103.5t1 -101t0.5 -80.5h-97q0 32 0.5 80.5t1 101t0.5 103.5v90v48h-175
v-160q0 -77 1 -138t2 -125h-98q1 64 2 125t1 138q0 49 -1 85t-2 75h-177v-160q0 -77 1 -138t3 -125h-98q0 64 1 125t1 138q0 49 -1 85t-1 75h-81v27zM638 470q0 45 -0.5 89.5t-0.5 80.5q-17 17 -34.5 26.5t-44.5 9.5q-52 0 -73 -28.5t-21 -88.5v-89h174zM192 470h173l4 1v48
q0 29 5 52.5t14 43.5q-20 23 -40 37.5t-52 14.5q-53 0 -78.5 -28.5t-25.5 -88.5v-80z" />
    <glyph glyph-name="f_b" unicode="fb" horiz-adv-x="859" 
d="M462 443q19 11 54 25t83 14q39 0 78.5 -10.5t72 -37.5t53 -74.5t20.5 -120.5q0 -67 -22.5 -114.5t-58.5 -77.5t-81 -44t-90 -14t-77 14.5t-54 33.5h-5l-47 -37h-20q0 50 1 106q0 48 0.5 110t0.5 129v78h-178v-160q0 -77 1 -138t3 -125h-98q0 64 1 125t1 138q0 49 -1 85
t-1 75h-81v27l81 21v48q0 53 16 90.5t43 61.5t62.5 35t75.5 11q24 0 43 -4t36 -9l88 12v-273zM461 92q18 -26 44 -44.5t72 -18.5q32 0 59 11t46.5 35.5t30.5 63t11 93.5q0 98 -38 148.5t-118 50.5q-29 0 -59 -6.5t-48 -17.5v-315zM192 470h178l-2 168q-17 17 -35 27.5
t-46 10.5q-53 0 -74 -28.5t-21 -88.5v-89z" />
    <glyph glyph-name="f_f_b" unicode="ffb" horiz-adv-x="1131" 
d="M733 443q19 11 54 25t83 14q39 0 79 -10.5t72.5 -37.5t53 -74.5t20.5 -120.5q0 -67 -22.5 -114.5t-58.5 -77.5t-81 -44t-90 -14t-77 14.5t-55 33.5h-4l-47 -37h-21q0 50 1 106q0 48 0.5 110t0.5 129v78h-177v-160q0 -77 1 -138t2 -125h-98q1 64 2 125t1 138q0 49 -1 85
t-2 75h-177v-160q0 -77 1 -138t3 -125h-98q0 64 1 125t1 138q0 49 -1 85t-1 75h-81v27l81 21v39q0 52 17.5 89.5t46 61.5t66 35t77.5 11q45 0 75 -12t47 -25q27 24 62.5 35.5t77.5 11.5q23 0 42.5 -4t35.5 -9l88 12v-273zM732 92q18 -26 44.5 -44.5t71.5 -18.5q32 0 59 11
t46.5 35.5t30.5 63t11 93.5q0 98 -37.5 148.5t-118.5 50.5q-29 0 -59 -6.5t-48 -17.5v-315zM464 470h177l-2 168q-17 17 -35 27.5t-46 10.5q-52 0 -73 -28.5t-21 -88.5v-89zM192 470h173l4 1v48q0 29 5 52.5t14 43.5q-20 23 -40 37.5t-52 14.5q-53 0 -78.5 -28.5
t-25.5 -88.5v-80z" />
    <glyph glyph-name="f_f_h" unicode="ffh" horiz-adv-x="1112" 
d="M98 471v39q0 52 17.5 89.5t46 61.5t66 35t77.5 11q45 0 75 -12t47 -25q27 24 62.5 35.5t77.5 11.5q28 0 50 -5t39 -13l78 15v-27.5t-0.5 -54t-0.5 -68t-0.5 -67.5t-0.5 -53v-26q11 8 22 15.5t23 15.5q10 6 23 12t27.5 10.5t29.5 7.5t28 3q91 0 128 -42.5t37 -127.5
q0 -14 -0.5 -36.5t-0.5 -39.5q0 -39 0.5 -68.5t1 -56l1 -53t0.5 -58.5h-99q0 32 0.5 58.5l1 53t1 56t0.5 68.5q0 27 -0.5 46.5t-0.5 39.5q0 100 -105 100q-29 0 -60 -12.5t-56 -30.5q-1 -31 -1 -64.5v-78.5q0 -39 0.5 -68.5t1 -56l1 -53t0.5 -58.5h-98q0 32 0.5 58.5l1 53
t1 56t0.5 68.5q0 31 -0.5 80.5t-0.5 106.5h-176v-160q0 -77 1 -138t2 -125h-98q1 64 2 125t1 138q0 49 -1 85t-2 75h-177v-160q0 -77 1 -138t3 -125h-98q0 64 1 125t1 138q0 49 -1 85t-1 75h-81v27zM640 470q-1 48 -1.5 91t-0.5 77q-17 17 -34.5 27.5t-45.5 10.5
q-52 0 -73 -28.5t-21 -88.5v-89h176zM192 470h173l4 1v48q0 29 5 52.5t14 43.5q-20 23 -40 37.5t-52 14.5q-53 0 -78.5 -28.5t-25.5 -88.5v-80z" />
    <glyph glyph-name="f_f_j" unicode="ffj" horiz-adv-x="801" 
d="M98 471v39q0 52 17.5 89.5t46 61.5t66 35t77.5 11q45 0 79 -12t51 -31q32 26 70.5 39.5t79.5 13.5q47 0 86.5 -12.5t55.5 -26.5l-39 -54q-20 23 -49 37.5t-62 14.5q-53 0 -83 -35t-30 -100v-71h175q12 0 26.5 0.5t28 1.5t25.5 2.5t18 2.5q0 -58 -1.5 -119t-1.5 -122
q0 -39 0.5 -66.5t1 -51l1 -47t0.5 -55.5q0 -73 -18.5 -115t-46 -63t-59 -26.5t-56.5 -5.5q-29 0 -58.5 7t-46.5 15l22 63q12 -10 28 -17q14 -7 31.5 -12t38.5 -5q41 0 54.5 26.5t13.5 71.5q1 64 1.5 133.5t0.5 147.5q0 59 -1 103.5t-2 83.5h-175v-160q0 -77 1 -138t2 -125
h-98q1 64 2 125t1 138q0 49 -1 85t-2 75h-177v-160q0 -77 1 -138t3 -125h-98q0 64 1 125t1 138q0 49 -1 85t-1 75h-81v27zM369 510q0 33 6.5 60t14.5 43q-18 23 -39.5 38.5t-54.5 15.5q-53 0 -78.5 -28.5t-25.5 -88.5v-80h173l4 1v39z" />
    <glyph glyph-name="f_f_k" unicode="ffk" horiz-adv-x="1062" 
d="M98 471v39q0 52 17.5 89.5t46 61.5t66 35t77.5 11q45 0 75 -12t47 -25q27 24 62.5 35.5t77.5 11.5q23 0 42.5 -4t34.5 -9l91 17q0 -29 -0.5 -75t-1 -96t-1 -97t-0.5 -78q0 -26 0.5 -72.5t1 -100.5l1 -108t0.5 -94h-97q0 32 0.5 80.5t0.5 101t0.5 103.5t0.5 90v48h-176
v-160q0 -77 1 -138t2 -125h-98q1 64 2 125t1 138q0 49 -1 85t-2 75h-177v-160q0 -77 1 -138t3 -125h-98q0 64 1 125t1 138q0 49 -1 85t-1 75h-81v27zM935 0q-26 35 -48 64.5t-45 59t-48 61t-55 70.5q28 30 48.5 52t41.5 44.5t46.5 50t63.5 68.5h82q-38 -36 -64.5 -62
t-47.5 -47l-39.5 -39.5t-40.5 -39.5q51 -66 109 -140t121 -142h-124zM639 470q-1 44 -1 88v81q-17 17 -35 27t-45 10q-52 0 -73 -28.5t-21 -88.5v-89h175zM192 470h173l4 1v48q0 29 5 52.5t14 43.5q-20 23 -40 37.5t-52 14.5q-53 0 -78.5 -28.5t-25.5 -88.5v-80z" />
    <glyph glyph-name="f_h" unicode="fh" horiz-adv-x="840" 
d="M98 471v48q0 53 16 90.5t43 61.5t62.5 35t75.5 11q29 0 51 -5t39 -13l78 15v-27.5t-0.5 -54t-0.5 -68t-0.5 -67.5t-0.5 -53v-26q11 8 21.5 15.5t23.5 15.5q10 6 23 12t27.5 10.5t29.5 7.5t28 3q91 0 127.5 -42.5t36.5 -127.5q0 -14 -0.5 -36.5t-0.5 -39.5
q0 -39 0.5 -68.5t1 -56l1 -53t0.5 -58.5h-98q0 32 0.5 58.5l1 53t0.5 56v68.5v86q0 100 -105 100q-29 0 -60 -12.5t-56 -30.5q-1 -31 -1 -64.5v-78.5q0 -39 0.5 -68.5t1 -56l1 -53t0.5 -58.5h-98q0 32 0.5 58.5l1 53t1 56t0.5 68.5q0 31 -0.5 80.5t-0.5 106.5h-177v-160
q0 -77 1 -138t3 -125h-98q0 64 1 125t1 138q0 49 -1 85t-1 75h-81v27zM369 470q-1 48 -1.5 91t-0.5 77q-17 17 -34.5 27.5t-45.5 10.5q-53 0 -74 -28.5t-21 -88.5v-89h177z" />
    <glyph glyph-name="f_j" unicode="fj" horiz-adv-x="530" 
d="M369 -45q1 64 1.5 133.5t0.5 147.5q0 59 -1 103.5t-2 83.5h-176v-160q0 -77 1 -138t3 -125h-98q0 64 1 125t1 138q0 49 -1 85t-1 75h-81v27l81 21v39q0 52 18.5 91t49 65t69.5 38.5t79 12.5q46 0 85.5 -12.5t55.5 -26.5l-38 -54q-20 23 -49 37.5t-63 14.5
q-52 0 -82.5 -35t-30.5 -100v-71h176q12 0 26 0.5t28 1.5t26 2.5t18 2.5q0 -58 -1.5 -119t-1.5 -122q0 -39 0.5 -66.5t1 -51l1 -47t0.5 -55.5q0 -73 -19 -115t-46.5 -63t-59 -26.5t-56.5 -5.5q-29 0 -58.5 7t-46.5 15l22 63q13 -10 29 -17q14 -7 31.5 -12t38.5 -5
q41 0 54.5 26.5t13.5 71.5z" />
    <glyph glyph-name="f_k" unicode="fk" horiz-adv-x="792" 
d="M371 423h-179v-160q0 -77 1 -138t3 -125h-98q0 64 1 125t1 138q0 49 -1 85t-1 75h-81v27l81 21v48q0 53 17.5 90.5t46 61.5t66 35t77.5 11q26 0 46.5 -4.5t37.5 -11.5l77 15q0 -29 -0.5 -74.5t-1 -94.5t-1 -95t-0.5 -77q0 -39 0.5 -90t1 -103.5t1 -101t0.5 -80.5h-98
q0 32 0.5 80.5t1 101t1 103.5t0.5 90v48zM665 0q-26 35 -48 64.5t-45 59t-48 61t-55 70.5q29 30 49.5 52t41.5 44.5t46.5 50t63.5 68.5h82q-38 -36 -64.5 -62t-48 -47t-40 -39.5t-40.5 -39.5q51 -66 109 -140t121 -142h-124zM192 470h178q0 48 -1 94t-1 84q-14 13 -31 20.5
t-41 7.5q-53 0 -78.5 -28.5t-25.5 -88.5v-89z" />
    <glyph glyph-name="g_g" unicode="gg" horiz-adv-x="1019" 
d="M54 318q0 35 13.5 65t38.5 52t61.5 34.5t81.5 12.5q31 0 55 -5.5t47 -14.5q16 -7 36.5 -9.5t35.5 -2.5q13 0 27 3t25 8q13 4 25 11l-3 -82q-15 2 -39.5 13.5t-50.5 17.5l-2 -2q8 -6 15 -16.5t12 -23.5t8 -26t3 -23q0 -78 -51 -125.5t-145 -47.5q-30 0 -57 6
q-17 -8 -31.5 -19.5t-14.5 -28.5q0 -20 15 -26.5t45 -6.5h109q82 0 123 -25t41 -88q0 -44 -18 -75.5t-49.5 -52t-73 -30t-88.5 -9.5q-115 0 -166.5 30t-51.5 82q0 21 9.5 37.5t26 28t38.5 19t47 10.5v4q-37 5 -57 26.5t-20 47.5q0 35 23 55.5t57 31.5v3q-51 17 -75.5 55.5
t-24.5 85.5zM191 -6q-47 -5 -67.5 -24t-20.5 -48q0 -36 33.5 -57t111.5 -21q84 0 116.5 25.5t32.5 72.5q0 19 -5 30t-15 15.5t-25 5.5t-34 1h-127zM145 321q0 -64 26.5 -93.5t77.5 -29.5t77 29.5t26 93.5t-29.5 93t-73.5 29t-74 -29t-30 -93zM536 318q0 35 13.5 65t38.5 52
t61.5 34.5t81.5 12.5q31 0 55 -5.5t47 -14.5q16 -7 36.5 -9.5t35.5 -2.5q13 0 29.5 3t31.5 8q18 4 35 11l-4 -82q-8 1 -20.5 5t-27.5 8.5t-31 9.5t-29 8l-2 -2q8 -6 15 -16.5t12.5 -23.5t8.5 -26t3 -23q0 -78 -51 -125.5t-145 -47.5q-17 0 -35.5 1.5t-32.5 4.5
q-17 -8 -31 -19.5t-14 -28.5q0 -20 15 -26.5t45 -6.5h136q83 0 123.5 -25t40.5 -88q0 -44 -19.5 -75.5t-52.5 -52t-76 -30t-89 -9.5q-116 0 -172 30t-56 82q0 42 31 65t81 30v4q-37 5 -57.5 26.5t-20.5 47.5q0 35 23.5 55.5t57.5 31.5v3q-51 17 -71 55.5t-20 85.5zM673 -6
q-47 -5 -67.5 -24t-20.5 -48q0 -36 38.5 -57t116.5 -21q84 0 121 25.5t37 72.5q0 19 -5 30t-15 15.5t-25 5.5t-34 1h-146zM627 321q0 -64 26.5 -93.5t77.5 -29.5t77 29.5t26 93.5t-29.5 93t-73.5 29t-74 -29t-30 -93z" />
    <glyph glyph-name="g_g_y" unicode="ggy" horiz-adv-x="1442" 
d="M54 318q0 35 13.5 65t38.5 52t61.5 34.5t81.5 12.5q31 0 55 -5.5t47 -14.5q16 -7 36.5 -9.5t35.5 -2.5q13 0 27 3t25 8q13 4 25 11l-3 -82q-15 2 -39.5 13.5t-50.5 17.5l-2 -2q8 -6 15 -16.5t12 -23.5t8 -26t3 -23q0 -78 -51 -125.5t-145 -47.5q-30 0 -57 6
q-17 -8 -31.5 -19.5t-14.5 -28.5q0 -20 15 -26.5t45 -6.5h109q82 0 123 -25t41 -88q0 -44 -18 -75.5t-49.5 -52t-73 -30t-88.5 -9.5q-115 0 -166.5 30t-51.5 82q0 21 9.5 37.5t26 28t38.5 19t47 10.5v4q-37 5 -57 26.5t-20 47.5q0 35 23 55.5t57 31.5v3q-51 17 -75.5 55.5
t-24.5 85.5zM191 -6q-47 -5 -67.5 -24t-20.5 -48q0 -36 33.5 -57t111.5 -21q84 0 116.5 25.5t32.5 72.5q0 19 -5 30t-15 15.5t-25 5.5t-34 1h-127zM145 321q0 -64 26.5 -93.5t77.5 -29.5t77 29.5t26 93.5t-29.5 93t-73.5 29t-74 -29t-30 -93zM521 318q0 35 13.5 65t38.5 52
t61 34.5t82 12.5q30 0 52 -5.5t44 -14.5q17 -7 35.5 -9.5t33.5 -2.5q13 0 27 3t25 8q13 4 26 11v-82q-17 8 -42.5 16.5t-51.5 14.5l-2 -2q8 -6 15.5 -16.5t13.5 -23.5t9.5 -26t3.5 -23q0 -78 -48.5 -125.5t-142.5 -47.5q-31 0 -58 6q-17 -8 -31 -19.5t-14 -28.5
q0 -20 14.5 -26.5t45.5 -6.5h145q83 0 123.5 -25t40.5 -88q0 -44 -22.5 -75.5t-59 -52t-82.5 -30t-92 -9.5q-116 0 -171.5 30t-55.5 82q0 21 9.5 37.5t26 28t38 19t46.5 10.5v4q-36 5 -56.5 26.5t-20.5 47.5q0 35 23.5 55.5t56.5 31.5v3q-50 17 -74.5 55.5t-24.5 85.5z
M658 -6q-48 -5 -68.5 -24t-20.5 -48q0 -36 38.5 -57t116.5 -21q84 0 130.5 25.5t46.5 72.5q0 19 -5 30t-15 15.5t-25 5.5t-34 1h-164zM612 321q0 -64 26.5 -93.5t77.5 -29.5t74.5 29.5t23.5 93.5t-27 93t-71 29t-74 -29t-30 -93zM1216 96q24 60 44.5 111.5t38 97t32.5 86.5
t28 79h72q-14 -33 -34 -81.5t-43.5 -105.5t-50 -120t-52.5 -126t-51 -122.5t-45 -109.5h-78q13 26 28 57.5t28 58.5q15 32 29 62q-23 57 -48.5 120.5t-52 128t-51 126t-44.5 112.5h108q16 -49 33 -94t34 -89.5t35 -91t38 -99.5h2z" />
    <glyph glyph-name="g_y" unicode="gy" horiz-adv-x="975" 
d="M54 318q0 35 13.5 65t38.5 52t61.5 34.5t81.5 12.5q31 0 52.5 -5.5t44.5 -14.5q16 -7 35 -9.5t34 -2.5q13 0 27 3t25 8q13 4 25 11v-82q-17 8 -42.5 16.5t-51.5 14.5l-1 -2q8 -6 15.5 -16.5t13.5 -23.5t9.5 -26t3.5 -23q0 -78 -49 -125.5t-143 -47.5q-30 0 -57 6
q-17 -8 -31.5 -19.5t-14.5 -28.5q0 -20 15 -26.5t45 -6.5h146q82 0 122.5 -25t40.5 -88q0 -44 -22.5 -75.5t-58.5 -52t-82 -30t-92 -9.5q-116 0 -172 30t-56 82q0 21 9.5 37.5t26 28t38.5 19t47 10.5v4q-37 5 -57 26.5t-20 47.5q0 35 23 55.5t57 31.5v3q-51 17 -75.5 55.5
t-24.5 85.5zM191 -6q-47 -5 -67.5 -24t-20.5 -48q0 -36 38.5 -57t116.5 -21q84 0 130 25.5t46 72.5q0 19 -5 30t-15 15.5t-25 5.5t-34 1h-164zM145 321q0 -64 26.5 -93.5t77.5 -29.5t75 29.5t24 93.5t-27.5 93t-71.5 29t-74 -29t-30 -93zM750 96q24 60 44 111.5t37.5 97
t32.5 86.5t28 79h72q-13 -33 -33 -81.5t-43.5 -105.5t-50 -120l-53 -126t-51 -122.5t-45.5 -109.5h-77q13 26 28 57.5t28 58.5q15 32 29 62q-23 57 -48.5 120.5t-52 128t-51 126t-44.5 112.5h107q16 -49 33 -94t34.5 -89.5t35.5 -91t38 -99.5h2z" />
    <glyph glyph-name=".notdef" horiz-adv-x="230" 
 />
    <glyph glyph-name=".null" horiz-adv-x="0" 
 />
    <glyph glyph-name="nonmarkingreturn" horiz-adv-x="230" 
 />
    <glyph glyph-name="space" unicode=" " horiz-adv-x="230" 
 />
    <glyph glyph-name="space" unicode="&#xa0;" horiz-adv-x="230" 
 />
    <glyph glyph-name="exclam" unicode="!" horiz-adv-x="270" 
d="M107 185q-3 60 -5 115.5t-4.5 114t-5.5 123t-8 143.5l105 6q-4 -72 -7 -134.5t-5.5 -122.5t-5 -119.5t-5.5 -125.5h-59zM78 51q0 23 16.5 40t39.5 17t40 -17t17 -40t-17 -40t-40 -17t-39.5 17t-16.5 40z" />
    <glyph glyph-name="quotedbl" unicode="&#x22;" horiz-adv-x="359" 
d="M71 441q-2 25 -4 55.5t-4 63t-4 64t-4 57.5l92 6q-6 -52 -14 -117t-15 -129h-47zM226 441q-2 25 -3.5 55.5t-3.5 63t-4 64t-4 57.5l92 6q-7 -52 -15 -117t-15 -129h-47z" />
    <glyph glyph-name="numbersign" unicode="#" horiz-adv-x="674" 
d="M348 0q11 63 22.5 118.5t21.5 106.5h-39.5t-38.5 1q-21 0 -41.5 0.5t-40.5 0.5l-39 -227h-52q11 63 22.5 119.5t21.5 107.5q-41 0 -84 -0.5t-92 -0.5v40q54 -2 97 -2.5t86 -0.5l15 79l15 78h-176v39q54 -2 97 -2.5t86 -0.5q10 51 20 108t21 120h53l-46 -228h159
q10 51 20 108t21 120h54l-46 -228q38 0 81.5 0.5t98.5 1.5v-42q-53 2 -98.5 2.5t-89.5 0.5q-5 -26 -9 -49t-9 -44l-13 -63q40 0 83.5 0.5t98.5 1.5v-42q-53 2 -98.5 2h-89.5q-9 -50 -18.5 -104.5t-20.5 -120.5h-53zM238 263h161l15 79l15 77h-39.5t-38.5 1h-81
q-6 -26 -10 -49.5t-9 -44.5z" />
    <glyph glyph-name="dollar" unicode="$" horiz-adv-x="483" 
d="M214 -101q0 20 0.5 43.5t0.5 47.5q-31 1 -60 7t-55 15.5t-47 21.5t-36 25l36 74q29 -39 71.5 -65t90.5 -31q1 76 1.5 149t0.5 127q-38 16 -70 33.5t-55 40.5t-36.5 53.5t-13.5 71.5q0 36 13 67.5t36.5 55.5t55 40t68.5 20q0 18 -0.5 36t-0.5 35h50q-1 -17 -1 -35v-36
q51 -3 87.5 -16t69.5 -34l-34 -68q-26 29 -55.5 46.5t-68.5 22.5q-1 -69 -1 -135v-119q46 -20 84 -40t64 -44t40.5 -53t14.5 -66q0 -36 -13.5 -69.5t-39 -60.5t-63.5 -45t-86 -23l2 -92h-50zM381 168q0 24 -8 42t-23 32t-37.5 26t-51.5 25v-119t1 -137q58 8 88.5 43t30.5 88
zM116 530q0 -36 24.5 -64.5t76.5 -54.5v112t-1 124q-48 -6 -74 -38t-26 -79z" />
    <glyph glyph-name="percent" unicode="%" horiz-adv-x="855" 
d="M55 501q0 45 11 81t31 61.5t47.5 39.5t60.5 14t61 -13.5t48.5 -38.5t32 -59t11.5 -74q0 -94 -41.5 -145t-107.5 -51q-34 0 -62 13.5t-48.5 38.5t-32 58.5t-11.5 74.5zM128 508q0 -81 18 -122t63 -41q46 0 61 41.5t15 118.5q0 81 -16.5 122t-63.5 41q-44 0 -60.5 -41.5
t-16.5 -118.5zM693 689q-29 -41 -64 -91.5t-68.5 -100.5t-64 -95t-50.5 -75t-51.5 -75t-66 -95t-69 -100.5t-60.5 -92.5l-41 28q29 41 64.5 91t70 99.5t65 93.5t50.5 74q21 30 52 75.5t65 96.5t67.5 102t59.5 93zM799 179q0 -45 -11 -81t-31 -61.5t-47 -39.5t-60 -14
t-61.5 14t-48.5 38.5t-31.5 58.5t-11.5 75q0 94 41.5 145t107.5 51q34 0 62 -13.5t48 -38.5t31.5 -59t11.5 -75zM727 173q0 81 -18 122t-63 41q-46 0 -61.5 -41.5t-15.5 -118.5q0 -81 17 -122t64 -41q43 0 60 41.5t17 118.5z" />
    <glyph glyph-name="ampersand" unicode="&#x26;" horiz-adv-x="723" 
d="M449 575q0 -28 -8.5 -50t-25 -41.5t-40 -37t-53.5 -35.5l51 -61q31 -40 63 -80t65 -80q25 35 40 70.5t23.5 66t11.5 54t5 34.5h64q-2 -10 -7.5 -37t-18.5 -64t-33.5 -80t-50.5 -84q34 -39 68 -76.5t70 -73.5h-132q-11 10 -22 23q-11 11 -24 26.5t-30 34.5
q-19 -20 -40 -37t-47 -29.5t-58.5 -20t-74.5 -7.5q-39 0 -76 13.5t-66.5 38.5t-47.5 61.5t-18 83.5q0 43 16 78t40.5 62t53 46.5t53.5 33.5q-27 37 -40 65.5t-13 62.5q0 35 13.5 64.5t36 51t52 33.5t62.5 12q28 0 53.5 -7t44 -21.5t29.5 -37.5t11 -55zM137 213q0 -42 11 -74
t30.5 -53.5t45 -32.5t54.5 -11q49 0 88.5 24t66.5 54q-35 38 -72 83t-72 90q-19 25 -35 44.5t-30 36.5q-37 -24 -62 -60t-25 -101zM382 571q0 38 -19.5 60t-55.5 22q-30 0 -52.5 -22.5t-22.5 -58.5q0 -15 3 -28.5t10.5 -28t19 -32t29.5 -39.5q47 31 67.5 59.5t20.5 67.5z
" />
    <glyph glyph-name="quotesingle" unicode="'" horiz-adv-x="202" 
d="M71 441q-2 25 -4 55.5t-4 63t-4 64t-4 57.5l92 6q-6 -52 -14 -117t-15 -129h-47z" />
    <glyph glyph-name="parenleft" unicode="(" horiz-adv-x="329" 
d="M74 281q0 80 19 145.5t49.5 119t68.5 95.5t77 75l32 -31q-72 -61 -112.5 -163t-40.5 -241t40.5 -241t112.5 -164l-32 -31q-39 33 -77 75t-68.5 95.5t-49.5 119.5t-19 146z" />
    <glyph glyph-name="parenright" unicode=")" horiz-adv-x="329" 
d="M256 281q0 -80 -19 -146t-50 -119.5t-69 -95.5t-77 -75l-32 31q72 62 112.5 164t40.5 241t-40.5 241t-112.5 163l32 31q39 -33 77 -75t69 -95.5t50 -119t19 -145.5z" />
    <glyph glyph-name="asterisk" unicode="*" horiz-adv-x="370" 
d="M154 352q1 42 1.5 72.5t2.5 64.5q-14 -9 -26 -17t-24 -17l-26 -19.5t-31 -23.5l-27 47q21 10 36.5 17.5t29.5 14t27 13l29 14.5q-28 14 -56.5 27t-66.5 34l28 47q32 -24 57.5 -43.5t49.5 -36.5q-2 35 -2.5 66t-1.5 73h55q-2 -44 -4.5 -74.5t-3.5 -64.5q29 17 55.5 37
t55.5 43l27 -47q-36 -17 -64.5 -31t-59.5 -30q16 -7 30 -13.5l28 -13t30 -14.5l36 -18l-27 -47q-34 24 -58 42t-53 35q1 -33 3.5 -63t4.5 -74h-55v0z" />
    <glyph glyph-name="plus" unicode="+" horiz-adv-x="584" 
d="M265 30v217h-201v48h201v218h54v-218h201v-48h-201v-217h-54z" />
    <glyph glyph-name="comma" unicode="," horiz-adv-x="252" 
d="M157 112q12 -13 22 -36.5t10 -52.5q0 -60 -34 -107.5t-91 -85.5l-19 30q34 26 49 53t15 65q0 34 -14 55.5t-30 37.5z" />
    <glyph glyph-name="hyphen" unicode="-" horiz-adv-x="363" 
d="M74 308h216v-84h-216v84z" />
    <glyph glyph-name="period" unicode="." horiz-adv-x="251" 
d="M69 51q0 23 16.5 40t39.5 17t40 -17t17 -40t-17 -40t-40 -17t-39.5 17t-16.5 40z" />
    <glyph glyph-name="slash" unicode="/" horiz-adv-x="325" 
d="M297 713q-13 -49 -28.5 -109t-31 -119.5t-28.5 -112.5t-22 -88l-14.5 -58t-19 -74t-21 -84t-21 -87.5t-20 -83.5t-16.5 -72l-63 13q13 49 29.5 113.5l33 129t30.5 121t23 91.5l22.5 90l28.5 114t29.5 120.5t25.5 108.5l63 -13v0z" />
    <glyph glyph-name="zero" unicode="0" horiz-adv-x="627" 
d="M316 34q50 0 81.5 22.5t49 62.5t24 96t6.5 124q0 72 -7 129.5t-25.5 98t-50.5 62t-82 21.5q-45 0 -76.5 -22.5t-50.5 -63t-27.5 -97t-8.5 -123.5q0 -71 8.5 -128.5t28 -98t51.5 -62t79 -21.5zM312 696q62 0 111.5 -26.5t84.5 -72.5t54 -109t19 -136q0 -84 -18.5 -151
t-53 -114.5t-83.5 -72.5t-110 -25q-62 0 -111.5 26t-85 72t-54.5 108.5t-19 135.5q0 81 19 148t53.5 115t83.5 75t110 27z" />
    <glyph glyph-name="one" unicode="1" horiz-adv-x="335" 
d="M152 346v63t-0.5 79.5t-1 75.5t-0.5 51q-26 -2 -56.5 -7t-65.5 -10v44l214 53l11 -11q0 -28 -0.5 -73t-1 -94.5t-1 -95.5t-0.5 -75v-85.5t0.5 -94t1.5 -91t2 -75.5h-105q1 32 1.5 75.5t1 91t0.5 94v85.5z" />
    <glyph glyph-name="two" unicode="2" horiz-adv-x="528" 
d="M214 644q-21 0 -43.5 -5.5t-44.5 -15t-41.5 -24t-33.5 -32.5l-33 64q36 29 90.5 47t117.5 18q112 0 173 -51.5t61 -153.5q0 -36 -7 -66.5t-22 -60.5t-39.5 -63t-59.5 -73q-15 -18 -36 -37.5t-43.5 -39.5t-45 -39t-40.5 -35q36 0 84 1t93.5 2t83 2t52.5 1q-4 -11 -7.5 -25
t-7.5 -27q-4 -15 -8 -31h-423l-3 38q78 61 139 115t103 106q27 33 43.5 62t26 56.5t12.5 54t3 54.5q0 86 -35 122t-109 36z" />
    <glyph glyph-name="three" unicode="3" horiz-adv-x="525" 
d="M470 204q0 -101 -68.5 -158t-198.5 -57q-60 0 -104 17.5t-81 44.5l42 56q24 -29 62 -51t83 -22q85 0 121.5 40.5t36.5 120.5q0 60 -34.5 96.5t-107.5 36.5q-26 0 -42.5 -3.5t-39.5 -10.5l-15 41q35 14 70 29.5t62.5 37.5t45 53.5t17.5 76.5q0 54 -29.5 76.5t-84.5 22.5
q-20 0 -40 -6t-38.5 -16t-34.5 -23.5t-26 -28.5l-32 54q35 31 86 48t106 17q53 0 89.5 -12.5t59 -32.5t32 -46t9.5 -54q0 -64 -44 -107.5t-117 -63.5q109 -8 162 -56t53 -120z" />
    <glyph glyph-name="four" unicode="4" horiz-adv-x="540" 
d="M291 0q0 47 1 88t1 97h-195q-50 0 -97 -1v20q40 49 87 111t94 127.5t91 129t78 114.5q4 -1 10 -2q5 -1 12.5 -2t16.5 -1q-1 -19 -1.5 -53t-1 -76t-0.5 -87.5t-0.5 -89t-0.5 -81v-61.5l137 2v-53q-17 0 -54 0.5t-83 1.5v-40.5t0.5 -39t1 -45.5t1.5 -59h-98zM293 232v74.5
v86.5v81v59q-12 -19 -27.5 -42.5t-33 -48t-35 -50t-34.5 -49.5q-40 -55 -82 -113z" />
    <glyph glyph-name="five" unicode="5" horiz-adv-x="487" 
d="M171 462q46 -12 92 -33.5t83.5 -53.5t61 -74.5t23.5 -94.5q0 -46 -15 -85.5t-45 -69t-76 -46t-108 -16.5q-47 0 -95 10.5t-83 38.5l42 68q26 -30 66 -46.5t82 -16.5q63 0 101 33t38 102q0 43 -18.5 76.5t-51 58t-76 42.5t-92.5 30l55 299h290q-4 -15 -8 -37t-6 -43
q-15 0 -43 0.5t-60.5 1.5t-67 1.5t-62.5 0.5z" />
    <glyph glyph-name="six" unicode="6" horiz-adv-x="559" 
d="M481 661q-111 -34 -192 -103t-123 -172q11 16 27 26.5t34.5 17t37 9.5t33.5 3q110 0 165 -57t55 -162q0 -50 -19 -92.5t-51 -74t-74 -49.5t-89 -18q-49 0 -92.5 16.5t-76 49t-51.5 80.5t-19 112q0 91 37 166.5t97 134t136.5 97.5t155.5 56zM284 394q-64 0 -99.5 -46
t-35.5 -131q0 -90 36.5 -136t99.5 -46q37 0 62 14t40.5 39t22 59.5t6.5 76.5q0 48 -9 80.5t-26 52.5t-41.5 28.5t-55.5 8.5z" />
    <glyph glyph-name="seven" unicode="7" horiz-adv-x="465" 
d="M88 0q41 86 77 157t69.5 139.5t66.5 141.5t69 162q-20 0 -52 -0.5t-68.5 -1t-75 -1t-72 -1t-58.5 -0.5h-35q3 14 6 29t5 28q3 15 5 30h410l8 -22q-26 -66 -55 -136t-63 -149.5t-73 -172t-85 -203.5h-79z" />
    <glyph glyph-name="eight" unicode="8" horiz-adv-x="536" 
d="M273 696q94 0 149 -42t55 -120q0 -28 -10.5 -52.5t-28.5 -45.5t-42.5 -39t-52.5 -32q30 -17 57.5 -35t48.5 -39.5t33.5 -48t12.5 -60.5q0 -36 -14 -70.5t-42 -61.5t-71 -44t-101 -17q-50 0 -91.5 12t-71.5 34t-46.5 53t-16.5 70q0 34 13.5 62t35 50t48.5 39t53 30
q-63 41 -90 83t-27 95q0 46 18 79.5t46.5 55.5t64 33t70.5 11zM228 316q-46 -26 -74 -65t-28 -85q0 -60 36.5 -95.5t105.5 -35.5q65 0 99 29.5t34 81.5q0 29 -12 51t-34 41.5t-54.5 38t-72.5 39.5zM158 546q0 -31 10 -52.5t28.5 -39t45 -33t59.5 -33.5q42 24 69 62t27 83
q0 57 -31.5 87t-91.5 30q-48 0 -82 -26t-34 -78z" />
    <glyph glyph-name="nine" unicode="9" horiz-adv-x="559" 
d="M87 29q223 66 307 269q-11 -15 -27.5 -25.5t-34.5 -17t-36.5 -9.5t-34.5 -3q-55 0 -96 16t-68.5 46t-41.5 72t-14 94q0 50 19 91.5t51 71t74 46t89 16.5q49 0 92.5 -16.5t76 -49t51.5 -81t19 -111.5q0 -91 -35.5 -166t-94 -132.5t-133 -96t-153.5 -55.5zM275 291
q65 0 100 45.5t35 130.5q0 91 -36.5 137t-99.5 46q-73 0 -101.5 -48.5t-28.5 -132.5q0 -95 34.5 -136.5t96.5 -41.5z" />
    <glyph glyph-name="colon" unicode=":" horiz-adv-x="260" 
d="M74 51q0 23 16.5 40t39.5 17t40 -17t17 -40t-17 -40t-40 -17t-39.5 17t-16.5 40zM74 425q0 23 16.5 40t39.5 17t40 -17t17 -40t-17 -39.5t-40 -16.5t-39.5 16.5t-16.5 39.5z" />
    <glyph glyph-name="semicolon" unicode=";" horiz-adv-x="252" 
d="M69 425q0 23 16.5 40t39.5 17t40 -17t17 -40t-17 -39.5t-40 -16.5t-39.5 16.5t-16.5 39.5zM157 112q12 -13 22 -36.5t10 -52.5q0 -60 -34 -107.5t-91 -85.5l-19 30q34 26 49 53t15 65q0 34 -14 55.5t-30 37.5z" />
    <glyph glyph-name="less" unicode="&#x3c;" horiz-adv-x="551" 
d="M496 63l-428 184v48l428 184v-51l-366 -157l366 -156v-52z" />
    <glyph glyph-name="equal" unicode="=" horiz-adv-x="584" 
d="M520 339h-456v48h456v-48zM520 155h-456v48h456v-48z" />
    <glyph glyph-name="greater" unicode="&#x3e;" horiz-adv-x="552" 
d="M55 479l428 -184v-48l-428 -184v52l366 156l-366 157v51z" />
    <glyph glyph-name="question" unicode="?" horiz-adv-x="385" 
d="M103 696q52 -7 97.5 -26.5t80.5 -48.5t56.5 -66.5t24.5 -80.5q0 -49 -15 -85t-41.5 -60t-61 -35.5t-73.5 -11.5h-21q-4 0 -5 1v-38q0 -17 0.5 -36.5t2.5 -38.5h-50q1 29 2 65.5t1 68.5v77q34 -3 69 -3q58 0 93 27t35 90q0 31 -15 53.5t-42.5 37t-65.5 22t-83 9.5zM64 51
q0 23 17 40t40 17t40 -17t17 -40t-17 -40t-40 -17t-40 17t-17 40z" />
    <glyph glyph-name="at" unicode="@" horiz-adv-x="913" 
d="M609 84q49 0 83 21t55 56t30 80t9 93q0 54 -16 103t-50.5 86.5t-88.5 60t-130 22.5q-96 0 -169 -29t-122.5 -83t-74.5 -130.5t-25 -171.5q0 -84 29 -140.5t76.5 -91t106.5 -49.5t119 -15q56 0 101 5.5t82.5 15.5t70 25t65.5 34l21 -40q-29 -17 -60.5 -32.5t-71 -27
t-90 -18.5t-118.5 -7q-69 0 -138 18t-124 58.5t-89.5 105.5t-34.5 159q0 109 32 194.5t90.5 143.5t140.5 88.5t183 30.5q85 0 148.5 -24t105.5 -66.5t63 -100t21 -123.5q0 -59 -15 -113.5t-45 -96t-75 -66t-104 -24.5q-37 0 -59.5 10t-34.5 22.5t-16.5 24.5t-4.5 17h-5
l-21.5 -21.5t-27.5 -21t-36 -16t-46 -6.5q-21 0 -41.5 7.5t-36 24t-25.5 44t-11 68.5q-3 59 16.5 113.5t55.5 96t85.5 66t107.5 24.5q16 0 28 -0.5t25.5 -2.5t30.5 -5.5t43 -9.5l-38 -177q-5 -23 -10 -48q-5 -21 -9.5 -45.5t-9.5 -47.5q-6 -31 3.5 -49.5t45.5 -18.5z
M542 436q-11 6 -24.5 9t-21.5 3q-44 0 -77.5 -24t-56.5 -61.5t-35 -83.5t-12 -91t17 -69t42 -24q37 0 63.5 19.5t44.5 48.5z" />
    <glyph glyph-name="A" unicode="A" horiz-adv-x="648" 
d="M504 0q-17 48 -34 95.5t-35 95.5q-32 0 -62.5 0.5t-59.5 0.5h-68.5t-75.5 -1q-19 -47 -36.5 -95t-34.5 -96h-77q69 168 140 334.5t134 330.5q10 4 21.5 10t21.5 11t16.5 8.5t7.5 3.5q28 -88 59 -174t58 -160q13 -36 29 -80t34 -91t37 -96t37 -97h-112zM307 538
q-26 -67 -56 -142t-61 -149q32 0 62.5 -0.5t60.5 -0.5h103q-10 27 -23 63t-27 75.5t-29 79.5t-28 74h-2z" />
    <glyph glyph-name="B" unicode="B" horiz-adv-x="608" 
d="M80 0q2 101 2.5 185t0.5 157t-0.5 157.5t-2.5 184.5h222q49 0 89.5 -8.5t69.5 -28t45.5 -51.5t16.5 -78q0 -61 -40 -96t-104 -50v-4q91 -12 131 -58t40 -124q0 -40 -15.5 -74t-46 -59t-75.5 -39t-104 -14h-229zM181 336v-69v-62.5t0.5 -67.5t0.5 -83h116q78 0 113.5 31
t35.5 101q0 77 -32 113.5t-115 36.5h-119zM182 630v-74.5t-0.5 -56.5t-0.5 -51v-57h104q136 0 136 127q0 59 -29.5 85.5t-98.5 26.5h-111z" />
    <glyph glyph-name="C" unicode="C" horiz-adv-x="669" 
d="M382 696q51 0 88.5 -8t65.5 -20.5t48 -29t37 -32.5l-54 -62q-16 19 -33.5 37t-40 32t-51 22.5t-66.5 8.5q-45 0 -85 -17t-70 -52.5t-48 -90.5t-18 -132q0 -73 18 -129t50.5 -94t76.5 -57.5t96 -19.5q68 0 116 31t80 75l45 -37q-20 -26 -44.5 -50t-55.5 -42t-70.5 -29
t-90.5 -11q-75 0 -136.5 26t-105 72.5t-67 110.5t-23.5 141q0 84 26 150.5t71 112.5t107 70t134 24z" />
    <glyph glyph-name="D" unicode="D" horiz-adv-x="707" 
d="M80 0q2 101 2.5 185t0.5 157t-0.5 157.5t-2.5 184.5h205q185 0 277.5 -86.5t92.5 -247.5q0 -82 -25.5 -147t-72.5 -110t-114 -69t-149 -24h-214zM183 59q1 0 26 -2t73 -2q63 -1 111.5 13t82 47.5t51 89t17.5 139.5q0 64 -14 117t-45.5 90t-82.5 57.5t-126 20.5
q-20 0 -37 -0.5t-29 -0.5h-26q-1 -86 -2.5 -152.5t-1.5 -131.5v-69.5t0.5 -63.5t1 -68.5t1.5 -83.5z" />
    <glyph glyph-name="E" unicode="E" horiz-adv-x="525" 
d="M410 326l-230 2v-68v-60.5t0.5 -65t1.5 -81.5l299 4l-6 -57h-396q2 101 2.5 185t0.5 157t-0.5 157.5t-2.5 184.5h399l-8 -60l-288 6q0 -44 -0.5 -75.5t-1 -58.5t-0.5 -53.5v-58.5l240 2z" />
    <glyph glyph-name="F" unicode="F" horiz-adv-x="505" 
d="M79 0q2 101 2.5 185t0.5 157t-0.5 157.5t-2.5 184.5h392l-8 -60l-281 6q0 -44 -0.5 -74.5t-1 -57t-0.5 -51.5v-58l240 3l-10 -62l-230 3q0 -75 0.5 -157t2.5 -176h-104z" />
    <glyph glyph-name="G" unicode="G" horiz-adv-x="702" 
d="M404 307h256q-2 -35 -3 -72t-1 -70.5t0.5 -60t0.5 -41.5q-51 -29 -121.5 -52t-149.5 -23q-75 0 -138 26t-108 73t-70 111t-25 141q0 84 27.5 150.5t75 112.5t111 70t134.5 24q50 0 88 -8t67.5 -20.5t51 -28t38.5 -31.5l-51 -62q-18 21 -36 39.5t-41.5 31.5t-54 20.5
t-72.5 7.5q-45 0 -86.5 -17t-73 -52.5t-50 -90.5t-18.5 -132q0 -74 18 -132.5t49 -98.5t73.5 -61t91.5 -21q61 0 103.5 13.5t67.5 30.5v29v44t-0.5 49t-0.5 43q-20 0 -46 -0.5t-49.5 -1t-40 -1t-17.5 -0.5v61z" />
    <glyph glyph-name="H" unicode="H" horiz-adv-x="713" 
d="M80 0q2 101 2.5 185t0.5 157t-0.5 157.5t-2.5 184.5h103q-1 -85 -1.5 -162.5t-0.5 -139.5q25 0 45 -0.5l40 -1t42 -1t52 -0.5h31.5t52.5 0.5t53 0.5h34v141.5t-2 162.5h104q-2 -102 -3 -185.5t-1 -156.5t0.5 -157.5t3.5 -184.5h-104q1 91 1.5 174t0.5 152q-52 0 -90 0.5
t-79 0.5h-83.5t-97.5 -1v-151.5t2 -174.5h-103z" />
    <glyph glyph-name="I" unicode="I" horiz-adv-x="263" 
d="M80 0q2 101 2.5 185t0.5 157t-0.5 157.5t-2.5 184.5h104q-2 -102 -2.5 -185.5t-0.5 -156.5t0.5 -157.5t2.5 -184.5h-104z" />
    <glyph glyph-name="J" unicode="J" horiz-adv-x="402" 
d="M233 138q0 23 0.5 51t0.5 56v53.5v43.5q0 73 -0.5 157.5t-2.5 184.5h100q-1 -51 -1.5 -90t-1 -72.5t-0.5 -65.5v-68v-36.5t0.5 -48t0.5 -51.5v-45q0 -72 -20 -115t-49.5 -66.5t-62.5 -30.5t-59 -7q-32 0 -67 7t-54 20l29 69q20 -16 45 -30t57 -14q20 0 36 3t26.5 13.5
t16.5 30t6 51.5z" />
    <glyph glyph-name="K" unicode="K" horiz-adv-x="599" 
d="M80 0q2 101 2.5 185t0.5 157t-0.5 157.5t-2.5 184.5h103q-1 -102 -1.5 -185.5t-0.5 -156.5v-157.5t2 -184.5h-103zM562 684q-75 -92 -142 -167t-128 -148q29 -40 64 -86t72.5 -94t75.5 -96t73 -93h-122l-64.5 86t-63 83.5t-65 83t-69.5 85.5v5q48 53 85.5 96.5t70.5 83
t63.5 78.5t64.5 83h85z" />
    <glyph glyph-name="L" unicode="L" horiz-adv-x="528" 
d="M178 340v-71.5v-67t0.5 -70t1.5 -78.5h33q43 0 85 0.5t80 1.5t69 2t52 2l-7 -59h-413q2 101 2.5 185t0.5 157t-0.5 157.5t-2.5 184.5h102q-1 -44 -1.5 -83.5t-1 -79.5t-0.5 -84v-97z" />
    <glyph glyph-name="M" unicode="M" horiz-adv-x="846" 
d="M644 615q-28 -66 -53 -128t-51.5 -130.5t-58 -149.5t-72.5 -184h-32q-34 82 -63.5 157.5t-56.5 147.5t-53 142.5t-54 144.5h-2v-266q0 -73 0.5 -161t3.5 -188h-72q2 101 3 189.5t1 161.5q0 78 -0.5 166.5t-2.5 166.5h154q18 -53 41 -116t47.5 -128t48 -127.5t43.5 -113.5
q32 81 57.5 146.5t47 123t40.5 109.5t39 106h150q-2 -35 -2.5 -79t-1 -90.5t-0.5 -91.5v-81q0 -73 0.5 -157.5t2.5 -184.5h-103q2 101 2 185v157v127.5t-1 145.5h-2z" />
    <glyph glyph-name="N" unicode="N" horiz-adv-x="722" 
d="M566 0q-38 49 -87 115.5t-103.5 141.5t-111.5 153t-112 151v-213q0 -74 0.5 -161t2.5 -187h-72q2 101 3 193t1 187q0 54 -0.5 97.5t-2 80t-3 67t-2.5 59.5h117q51 -74 96 -138.5t90 -125.5t91.5 -122.5t100.5 -130.5q1 52 1 98.5v88.5q0 74 -0.5 152t-3.5 178h71
q-2 -101 -2.5 -180.5t-0.5 -152.5v-162t1 -189h-74z" />
    <glyph glyph-name="O" unicode="O" horiz-adv-x="737" 
d="M371 40q56 0 95.5 21.5t65 60.5t37.5 94t12 123q0 144 -54 224t-161 80q-56 0 -96 -21.5t-65.5 -61t-37.5 -94.5t-12 -122q0 -143 54.5 -223.5t161.5 -80.5zM366 696q69 0 128.5 -25t103.5 -70t69 -108.5t25 -140.5q0 -84 -24.5 -151.5t-68 -114.5t-102 -72.5
t-126.5 -25.5q-69 0 -128.5 25t-103.5 70t-69 108t-25 140q0 84 25 152t68 115t101.5 72.5t126.5 25.5z" />
    <glyph glyph-name="P" unicode="P" horiz-adv-x="553" 
d="M79 0q2 101 2.5 189.5t0.5 161.5q0 74 -0.5 153.5t-2.5 179.5h212q48 0 89 -13t70 -38t45.5 -62t16.5 -85q0 -43 -14 -79.5t-44.5 -63.5t-78.5 -42.5t-115 -15.5h-80v-135t2 -150h-103zM251 338q86 0 122 37t36 111q0 43 -10.5 71t-30.5 44t-48.5 22.5t-64.5 6.5
q-24 0 -40.5 -1t-33.5 -2q0 -79 -0.5 -145t-0.5 -129v-15h71z" />
    <glyph glyph-name="Q" unicode="Q" horiz-adv-x="776" 
d="M366 696q69 0 128.5 -25t103.5 -70t69 -108.5t25 -140.5q0 -103 -36 -180.5t-102 -125.5q16 -42 33 -58.5t46 -16.5q19 0 32.5 10t22.5 26t14 35.5t8 38.5l49 -9q-2 -25 -11.5 -54t-27.5 -53.5t-46 -41t-67 -16.5q-32 0 -54.5 8t-39 21t-27.5 30t-19 36q-20 -6 -45 -9.5
t-52 -3.5q-69 0 -128.5 24.5t-103.5 69.5t-69 108t-25 140q0 84 25 152t68.5 115t102 72.5t126.5 25.5zM155 344q0 -108 27.5 -173.5t81.5 -103.5q-5 10 -8 23t-3 26q0 21 8 41t23.5 35.5t38.5 24.5t53 9q49 0 85.5 -27.5t63.5 -87.5q15 19 25.5 44.5t17 55.5t9.5 62.5
t3 65.5q0 143 -53.5 222.5t-160.5 79.5q-56 0 -96 -21t-65.5 -60t-37.5 -94t-12 -122zM381 39q20 0 36.5 3.5t31.5 9.5q-7 22 -14.5 43t-18 38t-25 27.5t-35.5 10.5q-29 0 -41.5 -18t-12.5 -44q0 -14 3.5 -26.5t12 -22t24 -15.5t39.5 -6z" />
    <glyph glyph-name="R" unicode="R" horiz-adv-x="601" 
d="M79 0q2 101 2.5 185t0.5 157t-0.5 157.5t-2.5 184.5h205q51 0 92.5 -11.5t71.5 -34.5t46 -58.5t16 -84.5q0 -54 -31.5 -99t-99.5 -69l75 -127q31 -54 64 -107t59 -93h-118q-19 34 -41.5 73t-46.5 79t-47.5 78.5t-43.5 71.5h-100v-140.5t2 -161.5h-103zM181 628
q0 -81 -0.5 -145.5t-0.5 -127.5h74q81 0 117 35t36 104q0 42 -10 68.5t-29.5 42t-48 21t-65.5 5.5q-22 0 -40.5 -1t-32.5 -2z" />
    <glyph glyph-name="S" unicode="S" horiz-adv-x="554" 
d="M256 -11q-69 0 -124.5 23.5t-87.5 52.5l40 79q35 -50 81.5 -76.5t104.5 -26.5q69 0 105.5 31t36.5 82q0 28 -6.5 48.5t-23.5 38t-46 33.5t-74 34q-42 18 -76.5 35.5t-59 41t-38 54.5t-13.5 76q0 42 16.5 75.5t45 57t66 36t79.5 12.5q69 0 114.5 -11.5t80.5 -37.5l-37 -79
q-32 36 -68 54.5t-90 18.5t-86.5 -25.5t-32.5 -70.5q0 -23 6 -42t21 -35.5t41 -31.5t67 -31q55 -22 94 -42.5t63.5 -44.5t36 -54t11.5 -71q0 -43 -15 -80.5t-45.5 -65t-77 -43t-109.5 -15.5z" />
    <glyph glyph-name="T" unicode="T" horiz-adv-x="604" 
d="M581 684q0 -16 0.5 -30.5t0.5 -29.5l-230 3q0 -81 -0.5 -152t-0.5 -133q0 -73 0.5 -157.5t2.5 -184.5h-105q2 101 2.5 185t0.5 157v133t-1 152l-230 -3q0 15 0.5 29.5t0.5 30.5h559v0z" />
    <glyph glyph-name="U" unicode="U" horiz-adv-x="684" 
d="M611 232q0 -117 -69.5 -180.5t-190.5 -63.5q-63 0 -114.5 14.5t-87.5 46t-56 82t-20 121.5v50.5v25.5t0.5 10.5t0.5 7.5v16v35v67t-0.5 63t-1 69.5t-1.5 87.5h105q0 -51 -0.5 -88.5t-1 -69.5t-0.5 -62.5v-66.5v-57t0.5 -35.5t0.5 -28v-35.5q0 -104 48 -149.5t139 -45.5
q94 0 139 45.5t45 132.5v147v71t-0.5 72t-1.5 78.5t-2 91.5h72q-1 -51 -1.5 -92.5t-1 -78.5t-0.5 -71.5v-70.5v-139v0z" />
    <glyph glyph-name="V" unicode="V" horiz-adv-x="621" 
d="M328 151l94 258q25 69 49 137.5t46 137.5h83l-117 -295q-39 -100 -77.5 -198t-73.5 -191h-56q-32 94 -66 180.5t-67 179.5q-29 79 -59 160.5t-63 163.5h114l101 -283l90 -250h2z" />
    <glyph glyph-name="W" unicode="W" horiz-adv-x="914" 
d="M446 473q0 -1 -7 -21.5t-17.5 -53.5t-24 -74.5t-28 -85.5t-28 -86t-24 -75t-17.5 -54t-7 -23h-62l-110 371q-22 78 -45 159.5t-46 153.5h111q20 -76 37 -139.5t35 -128.5q17 -60 33.5 -125t36.5 -137h2q0 2 10 33t24.5 76.5t31.5 98.5t31 98.5t24 76.5t10 32l-6.5 18
t-14 39t-14 39t-6.5 19h114q10 -39 19.5 -71.5t19 -62.5t18.5 -59.5t19 -61.5q17 -61 39 -132t44 -143h2q19 66 39.5 137t40.5 136q21 66 39.5 129t33.5 128h85q-10 -30 -21.5 -65t-23.5 -72.5t-25 -76t-25 -75.5q-17 -51 -35 -104t-35.5 -105t-34 -99.5t-29.5 -86.5h-60
q-23 74 -45 143t-41.5 130t-36 112t-28.5 88h-2z" />
    <glyph glyph-name="X" unicode="X" horiz-adv-x="627" 
d="M32 0q29 44 60 88.5t61 88t58 84t51 76.5q-46 72 -105.5 162.5t-119.5 184.5h112q28 -44 52 -81t46 -70t42 -63.5t40 -61.5q42 68 82.5 135t85.5 141h87q-60 -92 -117 -177t-103 -155q23 -36 50.5 -78t57.5 -87.5t61.5 -93t61.5 -93.5h-115q-29 44 -53.5 82t-46 71.5
t-42 65t-40.5 63.5q-37 -57 -82.5 -130.5t-93.5 -151.5h-90z" />
    <glyph glyph-name="Y" unicode="Y" horiz-adv-x="592" 
d="M240 0l3 286q-28 48 -55.5 94.5t-55.5 95t-57 100t-60 108.5h112q53 -103 100 -182.5t83 -147.5q31 50 56.5 94.5t47.5 85t42.5 77.5t40.5 73h81q-60 -95 -117.5 -192.5t-118.5 -199.5q0 -66 0.5 -135.5t2.5 -156.5h-105z" />
    <glyph glyph-name="Z" unicode="Z" horiz-adv-x="595" 
d="M435 627q-45 0 -101.5 -1t-110.5 -2t-99.5 -2t-69.5 -2l7 65q47 -1 104.5 -1h119.5h274l13 -25q-26 -40 -48.5 -74t-47.5 -70t-55 -79.5t-70 -103.5q-30 -45 -63.5 -93t-61 -88.5t-46 -67.5t-19.5 -28q45 1 105 1.5t118 1.5t107 1.5t73 1.5l-6 -64q-27 0 -56 1
q-25 1 -54.5 1.5t-56.5 0.5h-360l-8 30q9 12 28.5 40t46.5 66.5t59 84.5t65 94t65.5 95.5t61 89.5t51 75t35.5 52z" />
    <glyph glyph-name="bracketleft" unicode="[" horiz-adv-x="360" 
d="M74 -129q0 51 0.5 110t1 117t0.5 110v88v88.5v110.5t-0.5 116.5t-1.5 108.5l267 1v-43q-38 2 -86 3t-88 -1v-101.5t-0.5 -105t-0.5 -98v-79.5v-79.5v-98.5t0.5 -105.5t0.5 -100.5q19 -1 42 -1t46 0.5t45 1t41 1.5v-44z" />
    <glyph glyph-name="backslash" unicode="\" horiz-adv-x="325" 
d="M79 726q10 -48 24.5 -108.5t29.5 -120.5t29 -114t23 -90q9 -35 23 -91.5t30.5 -121l33 -129t29.5 -113.5l-64 -13q-10 48 -25.5 112.5t-31.5 130t-30.5 123.5t-23.5 93t-22 88t-28.5 112.5t-31 119.5t-28.5 109z" />
    <glyph glyph-name="bracketright" unicode="]" horiz-adv-x="360" 
d="M18 -130v44q19 -1 41.5 -1.5t45.5 -1t45.5 -0.5t41.5 1q1 47 1.5 100.5t0.5 105.5v98.5v79.5v79.5t-0.5 98t-1 105t-0.5 101.5q-20 1 -42 1t-45 -0.5t-45.5 -1t-41.5 -1.5v43l268 -1q-1 -50 -1.5 -108.5t-1 -116.5t-0.5 -110.5v-88.5v-88t0.5 -110t1 -117t1.5 -110z" />
    <glyph glyph-name="asciicircum" unicode="^" horiz-adv-x="540" 
d="M292 715q26 -51 47 -90.5t41.5 -77t43 -78.5t52.5 -94l-43 -23q-22 45 -41.5 83.5t-38.5 74.5t-39 72.5t-43 78.5h-1q-20 -39 -40 -75t-40 -73t-41 -76.5t-43 -84.5l-42 25q30 54 53 94.5t43.5 78t41.5 76.5t47 89h43v0z" />
    <glyph glyph-name="underscore" unicode="_" horiz-adv-x="382" 
d="M-9 -106h400v-45h-400v45z" />
    <glyph glyph-name="grave" unicode="`" 
d="M185 525q-23 42 -44 78t-43 76l76 25q11 -37 23 -74.5t28 -91.5z" />
    <glyph glyph-name="a" unicode="a" horiz-adv-x="486" 
d="M35 415q33 29 83.5 48t111.5 19q87 0 124.5 -29.5t37.5 -87.5v-25t-0.5 -38t-0.5 -38.5v-27.5q0 -45 0.5 -90.5t0.5 -75.5q0 -19 8.5 -26t20.5 -7q17 0 27.5 4.5t20.5 10.5l15 -21q-14 -20 -39 -31t-57 -11q-43 0 -61.5 18.5t-22.5 44.5q-26 -26 -59.5 -44.5t-82.5 -18.5
q-23 0 -45 7t-39 21t-28 35t-11 49q0 31 9.5 52.5t24 36t31.5 22.5t32 13q41 14 84.5 26.5t77.5 20.5v18.5v23.5v23v17q0 48 -21.5 66t-66.5 18q-42 0 -81 -20t-62 -52zM296 84q1 31 1.5 71t0.5 83q-14 -3 -31.5 -8t-34.5 -10.5t-32 -11t-24 -9.5q-25 -11 -34.5 -30
t-9.5 -49q0 -74 75 -74q29 0 50 11.5t39 26.5z" />
    <glyph glyph-name="b" unicode="b" horiz-adv-x="558" 
d="M160 443q19 11 54 25t83 14q39 0 79 -10.5t72.5 -37.5t53 -74.5t20.5 -120.5q0 -67 -22.5 -114.5t-58.5 -77.5t-81 -44t-90 -14t-77.5 14.5t-54.5 33.5h-5l-47 -37h-20q0 50 1 106q0 48 0.5 110t0.5 129v125.5t-0.5 94.5t-1.5 74t-2 64l96 13v-273zM159 92
q18 -26 44 -44.5t72 -18.5q32 0 59 11t46.5 35.5t30.5 63t11 93.5q0 98 -37.5 148.5t-118.5 50.5q-29 0 -59 -6.5t-48 -17.5v-315z" />
    <glyph glyph-name="c" unicode="c" horiz-adv-x="470" 
d="M140 236q0 -48 12 -84.5t33 -61t48.5 -37t59.5 -12.5q26 0 45 5.5t34 14.5t27 21t24 26l27 -24q-25 -42 -69 -68.5t-111 -26.5q-38 0 -79 14t-74.5 43t-55 73.5t-21.5 104.5q0 63 22.5 111.5t58.5 81t80 49t88 16.5q52 0 89.5 -11.5t64.5 -37.5l-38 -63q-21 29 -46 49.5
t-66 20.5q-31 0 -59 -12t-49 -37t-33 -63.5t-12 -91.5z" />
    <glyph glyph-name="d" unicode="d" horiz-adv-x="562" 
d="M399 703l97 13l-1 -478q0 -41 1 -82q1 -35 1 -77t1 -79h-96v44h-4q-19 -20 -53 -37.5t-88 -17.5q-38 0 -76.5 14t-69.5 44t-50.5 76t-19.5 110q0 61 21.5 107.5t55.5 78t77 47.5t87 16q38 0 68.5 -7t47.5 -15zM399 385q-17 26 -46 41t-67 15q-72 0 -109 -57.5t-37 -151.5
q0 -50 11 -87t30.5 -61t45 -36t54.5 -12q42 0 74.5 20t43.5 46v283z" />
    <glyph glyph-name="e" unicode="e" horiz-adv-x="490" 
d="M448 82q-11 -17 -29 -34t-41 -30t-51 -21t-59 -8q-48 0 -90 15t-73 45.5t-48.5 76.5t-17.5 108q0 57 19.5 102.5t51 78t72.5 50t85 17.5q90 0 138 -52t48 -157h-314q0 -11 -0.5 -20.5t-0.5 -20.5q0 -49 12 -84t33 -58q20 -23 47 -33.5t58 -10.5q49 0 80.5 18.5t52.5 42.5
zM359 321q0 23 -4 45t-14.5 39t-29 27.5t-46.5 10.5q-26 0 -47 -10.5t-36.5 -28.5t-25.5 -42t-14 -51z" />
    <glyph glyph-name="f" unicode="f" horiz-adv-x="327" 
d="M98 471v48q0 53 16 90.5t43 61.5t62.5 35t75.5 11q47 0 77 -12.5t47 -26.5l-39 -54q-20 23 -40 37.5t-53 14.5q-53 0 -74 -28.5t-21 -88.5v-89h143v-47h-143v-160q0 -77 1 -138t3 -125h-98q0 64 1 125t1 138q0 49 -1 85t-1 75h-81v27z" />
    <glyph glyph-name="g" unicode="g" horiz-adv-x="537" 
d="M54 318q0 35 13.5 65t38.5 52t61.5 34.5t81.5 12.5q31 0 55 -5.5t47 -14.5q16 -7 36.5 -9.5t35.5 -2.5q13 0 29.5 3t31.5 8q18 4 35 11l-4 -82q-8 1 -20.5 5t-27.5 8.5t-31 9.5t-29 8l-2 -2q8 -6 15 -16.5t12 -23.5t8 -26t3 -23q0 -78 -51 -125.5t-145 -47.5q-30 0 -57 6
q-17 -8 -31.5 -19.5t-14.5 -28.5q0 -20 15 -26.5t45 -6.5h136q83 0 123.5 -25t40.5 -88q0 -44 -22.5 -75.5t-58.5 -52t-82 -30t-93 -9.5q-115 0 -166.5 30t-51.5 82q0 21 9.5 37.5t26 28t38.5 19t47 10.5v4q-37 5 -57 26.5t-20 47.5q0 35 23 55.5t57 31.5v3
q-51 17 -75.5 55.5t-24.5 85.5zM191 -6q-47 -5 -67.5 -24t-20.5 -48q0 -36 33.5 -57t111.5 -21q85 0 131 25.5t46 72.5q0 19 -5 30t-15 15.5t-25 5.5t-34 1h-155zM145 321q0 -64 26.5 -93.5t77.5 -29.5t77 29.5t26 93.5t-29.5 93t-73.5 29t-74 -29t-30 -93z" />
    <glyph glyph-name="h" unicode="h" horiz-adv-x="537" 
d="M67 236v65.5t-0.5 85.5t-1 94t-1 91t-0.5 76.5v49.5l96 19v-28t-0.5 -55t-0.5 -68.5t-0.5 -68t-0.5 -53.5v-26q11 8 22 15.5t23 15.5q10 6 23 12t27.5 10.5t29.5 7.5t28 3q91 0 128 -42.5t37 -127.5q0 -14 -0.5 -36.5t-0.5 -39.5q0 -39 0.5 -68.5t0.5 -56t0.5 -53
t0.5 -58.5h-98q0 32 0.5 58.5l1 53t1 56t0.5 68.5q0 27 -0.5 46.5t-0.5 39.5q0 100 -105 100q-29 0 -60 -12.5t-56 -30.5q-1 -31 -1 -64.5v-78.5q0 -39 0.5 -68.5t1 -56l1 -53t0.5 -58.5h-98q0 32 0.5 58.5l1 53t1 56t0.5 68.5z" />
    <glyph glyph-name="i" unicode="i" horiz-adv-x="240" 
d="M78 236q0 39 -0.5 69t-1 56t-1 49.5t-0.5 47.5l98 19q0 -58 -1.5 -119t-1.5 -122q0 -39 0.5 -68.5t1 -56l1 -53t0.5 -58.5h-98q0 32 0.5 58.5l1 53t1 56t0.5 68.5zM64 653q0 23 16.5 39.5t39.5 16.5t39.5 -16.5t16.5 -39.5t-16.5 -39t-39.5 -16t-39.5 16t-16.5 39z" />
    <glyph glyph-name="j" unicode="j" horiz-adv-x="240" 
d="M75 -47q0 26 0.5 59t1 69.5t1 76t0.5 78.5t-0.5 69t-1 56t-1 49.5t-0.5 47.5l98 19q0 -58 -1.5 -119t-1.5 -122q0 -78 0.5 -128.5t0.5 -93.5q0 -73 -18.5 -115t-46 -63t-59 -26.5t-56.5 -5.5q-29 0 -58.5 7t-46.5 15l22 64q12 -10 28 -17q14 -7 31.5 -12t38.5 -5
q42 0 55.5 26t13.5 71zM64 653q0 23 16.5 39.5t39.5 16.5t39.5 -16.5t16.5 -39.5t-16.5 -39t-39.5 -16t-39.5 16t-16.5 39z" />
    <glyph glyph-name="k" unicode="k" horiz-adv-x="489" 
d="M67 375q0 39 -0.5 85t-1 90.5t-1 83.5t-0.5 63l98 19q0 -29 -0.5 -74.5t-1 -94.5t-1 -95t-0.5 -77q0 -26 0.5 -72.5t1 -100.5l1 -108t0.5 -94h-98q0 32 0.5 80.5t1 101t1 103.5t0.5 90zM362 0q-26 35 -48.5 64.5l-45 59t-47.5 61t-55 70.5q28 30 48.5 52t41.5 44.5
t46.5 50t63.5 68.5h82q-38 -36 -64.5 -62t-47.5 -47l-39.5 -39.5t-40.5 -39.5q51 -66 109 -140t121 -142h-124z" />
    <glyph glyph-name="l" unicode="l" horiz-adv-x="226" 
d="M67 375q0 39 -0.5 85t-1 90.5t-1 83.5t-0.5 63l98 19q0 -29 -0.5 -74.5t-1 -94.5t-1 -95t-0.5 -77q0 -39 0.5 -90t1 -103.5t1 -101t0.5 -80.5h-98q0 32 0.5 80.5t1 101t1 103.5t0.5 90z" />
    <glyph glyph-name="m" unicode="m" horiz-adv-x="819" 
d="M67 236q0 39 -0.5 68t-1 54t-1 47t-0.5 47l94 18q0 -14 -0.5 -27.5t-0.5 -24.5q21 15 46 31q20 12 46.5 22.5t52.5 10.5q58 0 91 -17.5t50 -52.5h5q11 8 28 19.5t29 19.5q20 11 45 21t51 10q45 0 75.5 -11t48.5 -32t25.5 -53t7.5 -74v-20.5t-0.5 -28.5t-0.5 -29v-23
v-64.5t0.5 -47.5t1 -44.5t0.5 -54.5h-98q0 32 0.5 54.5t1 44.5t1 47.5t0.5 64.5q0 27 -0.5 59t-0.5 52q0 49 -21.5 74.5t-75.5 25.5q-29 0 -58 -14.5t-54 -31.5q2 -14 3.5 -30t1.5 -34v-20.5t-0.5 -28.5t-0.5 -29v-23v-64.5t0.5 -47.5t1 -44.5t0.5 -54.5h-98q0 32 0.5 54.5
t1 44.5t1 47.5t0.5 64.5q0 27 -0.5 59t-0.5 52q0 49 -21.5 74.5t-75.5 25.5q-29 0 -55.5 -12.5t-51.5 -30.5q-1 -31 -1 -64.5v-78.5q0 -39 0.5 -68.5t1 -56l1 -53t0.5 -58.5h-98q0 32 0.5 58.5l1 53t1 56t0.5 68.5z" />
    <glyph glyph-name="n" unicode="n" horiz-adv-x="537" 
d="M67 236q0 39 -0.5 68t-1 54t-1 47t-0.5 47l94 18q0 -14 -0.5 -27.5t-0.5 -24.5q10 8 21.5 15.5t24.5 15.5q26 14 54 23.5t54 9.5q91 0 128 -42.5t37 -127.5q0 -14 -0.5 -36.5t-0.5 -39.5q0 -39 0.5 -68.5t0.5 -56t0.5 -53t0.5 -58.5h-98q0 32 0.5 58.5l1 53t1 56
t0.5 68.5q0 27 -0.5 46.5t-0.5 39.5q0 100 -105 100q-29 0 -60 -12.5t-56 -30.5q-1 -31 -1 -64.5v-78.5q0 -39 0.5 -68.5t1 -56l1 -53t0.5 -58.5h-98q0 32 0.5 58.5l1 53t1 56t0.5 68.5z" />
    <glyph glyph-name="o" unicode="o" horiz-adv-x="558" 
d="M279 30q36 0 63 17t45 45.5t26.5 66t8.5 79.5q0 96 -40 150t-103 54q-40 0 -67.5 -17t-44.5 -46t-24.5 -67t-7.5 -80q0 -48 12 -85.5t32 -63.5t46 -39.5t54 -13.5zM279 482q42 0 85 -14.5t78 -44.5t57 -76.5t22 -110.5q0 -60 -20 -106.5t-54 -77.5t-77.5 -47t-90.5 -16
q-42 0 -85 14t-78 44t-57 76.5t-22 110.5q0 61 20 107t54 77.5t77.5 47.5t90.5 16z" />
    <glyph glyph-name="p" unicode="p" horiz-adv-x="556" 
d="M161 19q0 -38 0.5 -64.5t1 -49.5t1.5 -46t3 -54h-101q0 32 0.5 73.5t1 86.5t1 89.5t0.5 83.5q0 37 -1 90.5t-2 103.5q-1 58 -2 120l94 18l-1 -50q11 9 26 20t34.5 20.5t44 15.5t54.5 6q39 0 75.5 -12.5t64.5 -41.5t45 -76t17 -116q0 -60 -19.5 -106.5t-52.5 -77.5
t-75 -47t-87 -16q-39 0 -69.5 9.5t-50.5 20.5h-3zM160 97q18 -26 46.5 -46.5t74.5 -20.5q75 0 107 49.5t32 152.5q0 98 -36.5 145t-105.5 47q-14 0 -31 -3t-33 -9t-30.5 -14t-23.5 -17v-284z" />
    <glyph glyph-name="q" unicode="q" horiz-adv-x="552" 
d="M427 451q14 10 23.5 18t18.5 19l20 -6l-1 -88l-1 -156q0 -62 -0.5 -123.5t0 -118t1 -105t1.5 -85.5h-96q1 32 2 57t1.5 49t0.5 50.5v61.5h-2q-22 -14 -55 -24.5t-68 -10.5q-46 0 -88.5 14t-75 44t-52 76t-19.5 110q0 61 21.5 107.5t55.5 78t77 47.5t87 16q33 0 71.5 -8.5
t77.5 -22.5zM394 392q-19 21 -51 35t-65 14q-38 0 -65 -17t-44 -45.5t-25.5 -66.5t-8.5 -80q0 -96 43.5 -145.5t111.5 -49.5q12 0 27.5 3t30.5 9t27.5 13.5t18.5 16.5v313z" />
    <glyph glyph-name="r" unicode="r" horiz-adv-x="362" 
d="M67 236q0 39 -0.5 68t-1 54t-1 47t-0.5 47l94 18q0 -17 -0.5 -32t-0.5 -29q29 26 65.5 47.5t79.5 21.5q11 0 23 -1.5t23 -6.5l-15 -76q-14 7 -30 10.5t-40 3.5q-25 0 -52 -9t-51 -29q-1 -29 -1 -60.5v-73.5q0 -39 0.5 -68.5t1 -56l1 -53t0.5 -58.5h-98q0 32 0.5 58.5
l1 53t1 56t0.5 68.5z" />
    <glyph glyph-name="s" unicode="s" horiz-adv-x="413" 
d="M201 -11q-51 0 -92 12t-70 35l27 67q26 -31 58 -51.5t77 -20.5q25 0 43.5 6.5t30 17t17 23t5.5 23.5q0 18 -5.5 30t-18 22.5t-32.5 20.5t-50 23q-29 13 -53.5 25.5t-42 29t-27.5 38.5t-10 55q0 58 41 97.5t122 39.5q45 0 78.5 -11.5t62.5 -28.5l-34 -63q-25 29 -49 45.5
t-65 16.5q-42 0 -63.5 -17.5t-21.5 -49.5q0 -26 21 -46t72 -41q30 -12 57.5 -25t48.5 -29.5t33.5 -39.5t12.5 -55q0 -30 -11.5 -57.5t-33.5 -47.5t-54.5 -32t-73.5 -12z" />
    <glyph glyph-name="t" unicode="t" horiz-adv-x="366" 
d="M326 470v-47h-142v-313q0 -35 14.5 -53t50.5 -18q29 0 48 7.5t39 15.5l12 -28q-15 -13 -49.5 -29t-90.5 -16q-54 0 -85 25.5t-31 79.5l2 329h-66v12q39 37 71 69t64 76h22l-1 -110h142z" />
    <glyph glyph-name="u" unicode="u" horiz-adv-x="537" 
d="M470 235q0 -77 0.5 -131.5t2.5 -103.5h-94q0 14 0.5 28.5t0.5 26.5q-14 -10 -26 -18.5t-26 -16.5q-26 -14 -54.5 -23t-60.5 -9q-81 0 -116 36.5t-35 120.5v19t0.5 24.5t0.5 25v21.5q0 39 -0.5 68.5t-1 56t-1 52.5t-0.5 58h98q0 -32 -0.5 -58t-1 -52.5t-1 -56t-0.5 -68.5
q0 -28 0.5 -49.5t0.5 -41.5q0 -57 20 -79.5t64 -22.5q39 0 75 14.5t61 44.5q0 16 0.5 30t1 29.5t0.5 33.5v41q0 39 -0.5 68.5t-1 56t-1 52.5t-0.5 58h98q0 -32 -0.5 -58t-1 -52.5t-1 -56t-0.5 -68.5z" />
    <glyph glyph-name="v" unicode="v" horiz-adv-x="480" 
d="M258 98q23 62 42.5 112.5t36 94.5t31 84t27.5 81h67q-41 -103 -87 -217.5t-104 -252.5h-71q-23 57 -46.5 118.5t-47 122.5t-46 119.5t-42.5 109.5h109q15 -50 30 -93.5t30.5 -86.5t32 -89.5t36.5 -102.5h2z" />
    <glyph glyph-name="w" unicode="w" horiz-adv-x="726" 
d="M361 328q-14 -36 -29 -77.5t-30 -84.5t-29.5 -85.5t-26.5 -80.5h-79q-21 62 -38.5 121t-34.5 117t-34.5 115.5t-38.5 116.5h101l104 -372h2q16 44 33 94.5t33 100t31 95.5t26 82h54q15 -51 28.5 -94.5t27.5 -86.5t29 -89t34 -102h2q19 59 34 108t28 93t24.5 85.5
t23.5 85.5h69q-19 -51 -36.5 -103t-36.5 -109t-40 -120.5t-46 -137.5h-80q-15 48 -28.5 89t-26 80t-24.5 77.5t-25 81.5h-1z" />
    <glyph glyph-name="x" unicode="x" horiz-adv-x="495" 
d="M351 0q-17 27 -30 48.5t-26.5 42.5t-28.5 43.5l-35 52.5q-29 -48 -57.5 -90.5t-60.5 -96.5h-81q42 65 83 122t76 113q-21 31 -38 57.5l-34 53t-36.5 56.5t-45.5 68h105q17 -26 30.5 -46.5t26.5 -40.5t27 -41.5t33 -49.5q18 27 33 49t28.5 43t27 41.5t28.5 44.5h77
q-24 -35 -44 -62.5t-38 -53.5t-35.5 -52t-37.5 -57q22 -32 41 -60t37.5 -57t38 -60t42.5 -68h-106v0z" />
    <glyph glyph-name="y" unicode="y" horiz-adv-x="489" 
d="M264 96q24 60 44.5 111.5t38 97t32.5 86.5t28 79h71q-13 -33 -33 -81.5t-43.5 -105.5t-50 -120l-53 -126t-51 -122.5t-45.5 -109.5h-77q13 26 28 57.5t28 58.5q15 32 29 62q-23 57 -48.5 120.5t-52 128t-51 126t-44.5 112.5h107q17 -49 34 -94t34 -89.5t35 -91t38 -99.5
h2z" />
    <glyph glyph-name="z" unicode="z" horiz-adv-x="444" 
d="M43 419l5 51h358l7 -21q-50 -73 -86 -126t-66 -98l-58 -87t-61 -93q90 1 153 3t111 4l-4 -52h-378l-4 25q37 49 76.5 106t76 112t68 103t51.5 80z" />
    <glyph glyph-name="braceleft" unicode="{" horiz-adv-x="370" 
d="M28 314q19 -1 31 -1.5t26 -0.5q60 0 60 62q0 22 -4 44t-9.5 43t-9.5 41.5t-4 40.5q0 47 12 78t34.5 50.5t54.5 29t71 14.5q9 1 19.5 2t18.5 2q10 1 19 2l4 -40l-63 -8q-35 -5 -57 -27t-22 -72q0 -30 2.5 -51.5t6 -40.5t6 -38.5t2.5 -44.5q0 -18 -6.5 -35t-20 -31t-33 -24
t-44.5 -13v-7q25 -3 44.5 -13t33 -24t20 -31t6.5 -35q0 -25 -2.5 -44t-6 -38.5t-6 -41t-2.5 -51.5q0 -50 22 -72.5t57 -25.5l63 -7l-4 -41l-64 6q-39 3 -69.5 12.5t-52 29t-32.5 51t-11 78.5q0 19 4 40t9.5 42t9.5 43t4 44q0 62 -60 62q-14 0 -26.5 -0.5t-30.5 -1.5v43z" />
    <glyph glyph-name="bar" unicode="|" horiz-adv-x="226" 
d="M83 -133q1 50 1.5 109.5t1 118t0.5 111.5v89v88.5t-0.5 111t-1 117.5t-1.5 109h70q-1 -50 -1.5 -109.5t-1 -117.5t-0.5 -110.5v-88.5v-89t0.5 -112t1 -118.5t1.5 -108.5h-70z" />
    <glyph glyph-name="braceright" unicode="}" horiz-adv-x="370" 
d="M351 271q-17 1 -30 1.5t-27 0.5q-60 0 -60 -62q0 -22 4 -44t9.5 -43t9.5 -42t4 -40q0 -47 -11 -78.5t-32.5 -51t-52 -29t-69.5 -12.5l-64 -6l-4 41l63 7q35 3 57 25.5t22 72.5q0 30 -2.5 51.5t-6 41t-6 38.5t-2.5 44q0 18 7 35t20 31t32.5 24t44.5 13v7q-25 3 -44.5 13
t-32.5 24t-20 31t-7 35q0 25 2.5 44.5t6 38.5t6 40.5t2.5 51.5q0 50 -22 72t-57 27l-63 8l4 40q9 -1 19 -2q8 -1 18 -2l20 -2q39 -5 70.5 -14.5t54 -29t35 -50.5t12.5 -78q0 -20 -4 -40.5t-9.5 -41.5t-9.5 -43t-4 -44q0 -62 60 -62q14 0 26 0.5t31 1.5v-43v0z" />
    <glyph glyph-name="asciitilde" unicode="~" horiz-adv-x="495" 
d="M364 242q25 0 36 16t8 59l50 -17q-11 -57 -44.5 -86t-78.5 -29q-25 0 -52.5 12t-50.5 26q-20 11 -44.5 24t-45.5 13q-26 0 -43.5 -18.5t-13.5 -61.5l-48 18q6 28 19 50t31 37.5t39.5 23.5t44.5 8q24 0 47.5 -9.5t44.5 -22.5q11 -6 25 -13.5t27.5 -14t26.5 -11t22 -4.5z
" />
    <glyph glyph-name="exclamdown" unicode="&#xa1;" horiz-adv-x="270" 
d="M163 497q3 -60 5 -115.5t4 -114t5.5 -123t8.5 -143.5l-105 -7q3 72 6 135t6 123t5.5 119.5t5.5 125.5h59zM191 631q0 -23 -16.5 -40t-39.5 -17t-40 17t-17 40t17 39.5t40 16.5t39.5 -16.5t16.5 -39.5z" />
    <glyph glyph-name="cent" unicode="&#xa2;" horiz-adv-x="470" 
d="M259 -110v99q-38 2 -76.5 17t-70.5 44t-52 72t-20 102q0 58 19 103.5t50.5 77.5t70.5 51t80 24q-1 20 -1 40.5v43.5h49l-2 -83q50 -2 82 -14t55 -32l-38 -63q-20 27 -42 46t-57 23q-1 -53 -1 -98v-93v-211q23 1 40.5 7t31.5 15.5t25 21.5t21 25l27 -24q-22 -36 -57.5 -61
t-86.5 -31q0 -26 0.5 -51t1.5 -51h-49zM140 236q0 -85 34 -133.5t86 -60.5q0 58 0.5 110.5t0.5 97.5v92t-1 96q-51 -11 -85.5 -60.5t-34.5 -141.5z" />
    <glyph glyph-name="sterling" unicode="&#xa3;" horiz-adv-x="524" 
d="M36 0l-6 6q23 39 37.5 73.5t23 68.5t12 67.5t3.5 69.5v34v13v3v5.5t-0.5 21t-0.5 48.5q0 77 19.5 131t52.5 88.5t77.5 50.5t95.5 16q42 0 74.5 -7.5t52.5 -15.5l-29 -81q-17 20 -45 37t-75 17q-57 0 -87.5 -37t-30.5 -119v-59t-0.5 -30t-0.5 -16.5v-18.5l190 3l-10 -63
l-181 2q-1 -29 -5 -61.5t-12 -66t-22 -66t-35 -61.5q45 1 95.5 1.5t98 1.5t87 1.5t63.5 1.5l-6 -59h-436z" />
    <glyph glyph-name="yen" unicode="&#xa5;" horiz-adv-x="571" 
d="M511 190q-39 0 -65.5 0.5t-46.5 1t-37 1t-36 0.5q0 -39 0.5 -91.5t1.5 -101.5h-94l2 193h-36t-37 -0.5t-46.5 -1t-64.5 -1.5v53q39 -1 65.5 -1.5t46 -1t36 -0.5h36.5v49l-16 33h-31t-34 -0.5t-44 -1t-59 -1.5v53q56 -2 85.5 -2.5t53.5 -0.5q-38 75 -76.5 150.5
t-86.5 164.5h103q53 -103 91.5 -183.5t74.5 -148.5q25 47 46 88t41 80.5l40 79t43 84.5h77q-26 -44 -48 -82.5t-42.5 -76t-41 -75.5t-43.5 -81h25.5t30 0.5t37.5 1t49 1.5v-53q-37 0 -62 0.5t-43.5 1t-34 1t-32.5 0.5l-13 -27v-55h36t37 0.5t47 1t65 1.5v-53z" />
    <glyph glyph-name="brokenbar" unicode="&#xa6;" horiz-adv-x="236" 
d="M83 -133q1 22 1.5 49t1 53.5t0.5 50v40.5v38t-0.5 47l-1 50t-1.5 48h70q-1 -23 -1.5 -48.5t-1 -50t-0.5 -46.5v-38v-40.5t0.5 -50t1 -53.5t1.5 -49h-70zM83 345q1 23 1.5 49t1 51t0.5 47.5v39.5v39t-0.5 49l-1 52t-1.5 49h70q-1 -23 -1.5 -49l-1 -52t-0.5 -49v-39v-39.5
t0.5 -48t1 -51.5t1.5 -48h-70z" />
    <glyph glyph-name="section" unicode="&#xa7;" horiz-adv-x="467" 
d="M271 696q52 0 81.5 -12t57.5 -38l-44 -59q-25 33 -49 44t-53 11q-15 0 -30.5 -5t-28 -15.5t-20.5 -25.5t-8 -36q0 -17 3.5 -30.5t16.5 -29.5t37.5 -37.5t66.5 -54.5q36 -29 61.5 -50t41.5 -41t23.5 -42t7.5 -51q0 -44 -22.5 -79t-61.5 -57q29 -27 43 -53t14 -64
q0 -40 -17 -71t-44 -52t-60 -32t-64 -11q-41 0 -82 14.5t-73 43.5l43 59q29 -33 61 -49t61 -16q45 0 70 25t25 60q0 22 -7.5 38.5t-24.5 34.5t-43.5 40.5t-63.5 54.5q-34 30 -62 52.5t-47.5 45t-30 48.5t-10.5 62q0 35 19.5 70.5t61.5 60.5q-12 17 -17 37t-5 47q0 44 15 75
t40 50.5t55.5 28.5t62.5 9zM231 191q48 -40 85 -70q25 11 35 28.5t10 41.5q0 17 -4 30.5t-14.5 28t-29.5 31t-48 39.5q-39 32 -67.5 53.5t-48.5 40.5q-42 -26 -42 -74q0 -23 9.5 -40.5t26 -34t39 -34t49.5 -40.5z" />
    <glyph glyph-name="dieresis" unicode="&#xa8;" 
d="M40 621q0 20 14 34.5t33 14.5q20 0 34.5 -14.5t14.5 -34.5t-14.5 -34t-34.5 -14q-19 0 -33 14t-14 34zM232 621q0 20 14 34.5t34 14.5q19 0 33.5 -14.5t14.5 -34.5t-14.5 -34t-33.5 -14q-20 0 -34 14t-14 34z" />
    <glyph glyph-name="copyright" unicode="&#xa9;" horiz-adv-x="879" 
d="M45 229q0 82 31 154.5t84 126.5t125 85t154 31t154 -31t125.5 -85t84.5 -126.5t31 -154.5t-31 -154t-84.5 -126t-125.5 -85t-154 -31t-154 31t-125 85t-84 126t-31 154zM87 229q0 -74 27.5 -139t75 -114t111.5 -77t138 -28t138 28t111.5 77t75 114t27.5 139t-27.5 139.5
t-75 114t-111.5 77t-138 28.5t-138 -28.5t-111.5 -77t-75 -114t-27.5 -139.5zM450 477q36 0 62.5 -5.5t46.5 -14.5t34.5 -20t26.5 -22l-39 -53q-11 13 -23.5 25.5t-28 22.5t-36 16t-47.5 6q-32 0 -59.5 -11t-47.5 -34.5t-32 -61t-12 -91.5q0 -104 45 -157.5t119 -53.5
q48 0 83 22.5t58 52.5l31 -31q-14 -18 -31 -35t-39.5 -30t-50.5 -20.5t-64 -7.5q-53 0 -97.5 19t-76.5 52.5t-50 79t-18 99.5q0 59 19.5 106t53 79.5t78.5 50t95 17.5z" />
    <glyph glyph-name="ordfeminine" unicode="&#xaa;" horiz-adv-x="310" 
d="M29 658q20 16 50.5 26.5t67.5 10.5q29 0 47.5 -6t29 -17.5t14.5 -28.5t4 -39v-147q0 -10 8 -16t16 -6t13 4t10 10l12 -15q-9 -14 -23.5 -22t-36.5 -8q-21 0 -38.5 11t-22.5 28q-14 -18 -33.5 -28.5t-47.5 -10.5q-29 0 -52.5 17.5t-23.5 51.5q0 19 6.5 31.5t15.5 21
t19.5 12.5t18.5 7q25 9 50 15t45 11v43q0 26 -10 38t-36 12q-23 0 -45 -12.5t-35 -31.5zM177 466q1 17 1 35.5v44.5q-24 -5 -41.5 -9.5t-28.5 -12.5t-16.5 -17.5t-5.5 -24.5q0 -21 14.5 -31.5t32.5 -10.5q14 0 25 7.5t19 18.5z" />
    <glyph glyph-name="guillemotleft" unicode="&#xab;" horiz-adv-x="486" 
d="M44 274q23 19 45.5 36.5t46 37t48 41.5t52.5 50l17 -14q-30 -43 -57.5 -79.5t-57.5 -80.5v-5q30 -44 57.5 -80.5t57.5 -79.5l-17 -14q-28 28 -52.5 50.5t-48 41.5t-46 36.5t-45.5 36.5v23zM228 274q23 19 45.5 36.5t46 37t48 41.5t52.5 50l17 -14q-30 -43 -57.5 -79.5
t-57.5 -80.5v-5q30 -44 57.5 -80.5t57.5 -79.5l-17 -14q-28 28 -52.5 50.5t-48 41.5t-46 36.5t-45.5 36.5v23z" />
    <glyph glyph-name="logicalnot" unicode="&#xac;" horiz-adv-x="766" 
 />
    <glyph glyph-name="registered" unicode="&#xae;" horiz-adv-x="556" 
d="M46 464q0 48 17 90t47.5 73.5t73.5 50t94 18.5t94 -18.5t73.5 -50t47.5 -73.5t17 -90t-17 -90.5t-47.5 -74t-73.5 -49.5t-94 -18t-94 18t-73.5 49.5t-47.5 74t-17 90.5zM83 464q0 -41 12.5 -78t37.5 -65t61 -44.5t84 -16.5q47 0 83.5 16.5t61 44.5t37.5 65t13 78
q0 40 -13 76.5t-37.5 65t-61 45.5t-83.5 17q-48 0 -84 -17t-61 -45.5t-37.5 -65t-12.5 -76.5zM196 349q1 36 1 65.5v55.5v56t-1 65h83q37 0 59.5 -16.5t22.5 -51.5q0 -18 -11 -34.5t-34 -24.5l25 -44q10 -17 22 -36.5t22 -34.5h-48q-6 9 -13.5 22.5t-15.5 28t-16 28.5
t-15 26h-40q0 -24 0.5 -48.5t1.5 -56.5h-43zM238 569q0 -28 -0.5 -50t-0.5 -45h29q52 0 52 49q0 27 -13.5 37t-38.5 10q-7 0 -15 -0.5t-13 -0.5z" />
    <glyph glyph-name="macron" unicode="&#xaf;" 
d="M185 642h33.5t29 0.5t31 0.5h40.5l-6 -49q-25 0 -39.5 0.5t-27 0.5h-26.5h-37h-33.5t-29 -0.5t-31 -0.5h-40.5l6 49q25 0 39.5 -0.5t27 -0.5h26.5h37z" />
    <glyph glyph-name="degree" unicode="&#xb0;" horiz-adv-x="353" 
d="M177 661q-40 0 -60 -27.5t-20 -62.5t20 -61.5t60 -26.5q39 0 59.5 26.5t20.5 61.5t-20.5 62.5t-59.5 27.5zM177 696q25 0 47 -8.5t38.5 -24.5t26 -39.5t9.5 -52.5t-9.5 -52t-26 -38.5t-38.5 -24t-47 -8.5t-47.5 8.5t-39 24t-26 38.5t-9.5 52t9.5 52.5t26 39.5t39 24.5
t47.5 8.5z" />
    <glyph glyph-name="plusminus" unicode="&#xb1;" horiz-adv-x="584" 
d="M520 87h-456v48h201v195h-201v48h201v218h54v-218h201v-48h-201v-195h201v-48z" />
    <glyph glyph-name="twosuperior" unicode="&#xb2;" horiz-adv-x="386" 
d="M167 656q-28 0 -57 -13.5t-47 -38.5l-22 55q24 17 57.5 28.5t78.5 11.5q75 0 120.5 -33.5t45.5 -98.5q0 -42 -19.5 -81t-63.5 -83q-11 -11 -24 -23t-27.5 -24t-28 -22.5t-23.5 -17.5q24 0 57.5 1t66.5 1.5t59.5 1.5t36.5 1q-2 -7 -5 -19l-6 -24q-4 -14 -8 -30h-306v34
q45 37 80 69t62 64q35 42 47.5 77.5t12.5 72.5q0 53 -22 72t-65 19z" />
    <glyph glyph-name="threesuperior" unicode="&#xb3;" horiz-adv-x="386" 
d="M352 377q0 -66 -46 -102.5t-130 -36.5q-42 0 -73.5 10.5t-55.5 27.5l28 50q15 -20 42.5 -34t55.5 -14q53 -1 71.5 22.5t18.5 73.5q0 40 -20 59t-64 19q-14 0 -24.5 -2.5t-24.5 -6.5l-14 34q25 10 47.5 20t39 23.5t26.5 32t10 45.5q0 26 -15 41.5t-47 15.5q-26 0 -53 -14
t-40 -34l-25 48q25 21 58.5 31t69.5 10q69 0 101.5 -29t32.5 -67q0 -21 -9 -38.5t-25 -31t-36.5 -23.5t-42.5 -16q73 -5 108.5 -36.5t35.5 -77.5z" />
    <glyph glyph-name="acute" unicode="&#xb4;" 
d="M126 538q16 54 28.5 91.5t23.5 74.5l75 -25q-22 -40 -43 -76t-43 -78z" />
    <glyph glyph-name="paragraph" unicode="&#xb6;" horiz-adv-x="563" 
d="M406 -132q1 50 1.5 104t0.5 105.5v98.5v83v78.5v97.5t-0.5 106t-0.5 102h-89q0 -49 -0.5 -103t-1 -105.5t-0.5 -97v-78.5v-83.5t0.5 -99t1 -105.5t1.5 -103h-60q0 50 0.5 104t1 105.5t0.5 98.5v83v41h-14q-57 0 -98 15t-68 41t-40 61t-13 76q0 52 15.5 88.5t45 59
t72.5 33t98 10.5l295 1v-43q-14 0 -37.5 0.5t-50.5 0.5q0 -49 -0.5 -103t-1 -105.5t-0.5 -97v-78.5v-83.5v-99t0.5 -105.5t1.5 -103h-60z" />
    <glyph glyph-name="periodcentered" unicode="&#xb7;" horiz-adv-x="251" 
d="M69 327q0 23 16.5 40t39.5 17t40 -17t17 -40t-17 -40t-40 -17t-39.5 17t-16.5 40z" />
    <glyph glyph-name="cedilla" unicode="&#xb8;" 
d="M204 8l-23 -51q5 2 12 2.5t13 0.5q38 0 55.5 -16t17.5 -42q0 -28 -26.5 -51t-85.5 -23q-28 0 -57 7t-44 15l18 44q14 -17 38.5 -27.5t44.5 -10.5q23 0 38 11.5t15 31.5q0 13 -7 21.5t-21 8.5q-6 0 -13.5 -1.5t-12.5 -3.5l-34 9l35 75h37z" />
    <glyph glyph-name="onesuperior" unicode="&#xb9;" horiz-adv-x="386" 
d="M180 624l-101 -11v39q22 4 47.5 10t49.5 12l46 11.5t38 10.5l9 -9q0 -18 -0.5 -47.5t-1 -61t-0.5 -61.5v-49v-55t0.5 -60.5t1 -58.5t1.5 -49h-91q0 21 0.5 49t0.5 58.5v60.5v55v156z" />
    <glyph glyph-name="ordmasculine" unicode="&#xba;" horiz-adv-x="348" 
d="M174 695q26 0 52 -9.5t47 -28t34 -45.5t13 -62q0 -32 -11.5 -58.5t-31.5 -46t-46.5 -30.5t-56.5 -11q-27 0 -53 9.5t-46.5 28t-33.5 45.5t-13 61q0 32 12 59t32.5 46.5t46.5 30.5t55 11zM174 433q44 0 61 34t17 85q0 114 -78 114q-36 0 -56 -34.5t-20 -85.5q0 -57 20 -85
t56 -28z" />
    <glyph glyph-name="guillemotright" unicode="&#xbb;" horiz-adv-x="486" 
d="M442 251q-23 -19 -45.5 -36.5t-46 -36.5t-48.5 -41.5t-53 -50.5l-16 14q29 43 57 79.5t58 80.5v5q-30 44 -58 80.5t-57 79.5l16 14q28 -28 53 -50t48.5 -41.5t46 -37t45.5 -36.5v-23zM258 251q-23 -19 -45.5 -36.5t-46 -36.5t-48.5 -41.5t-53 -50.5l-16 14q29 43 57 79.5
t58 80.5v5q-30 44 -58 80.5t-57 79.5l16 14q28 -28 53 -50t48.5 -41.5t46 -37t45.5 -36.5v-23z" />
    <glyph glyph-name="onequarter" unicode="&#xbc;" horiz-adv-x="828" 
d="M128 -23q26 43 57.5 95.5t62 105t58.5 99.5t46 79q18 31 45.5 78t58 99t60.5 104.5t53 96.5l48 -27q-26 -43 -58 -95.5t-63.5 -104t-59 -98t-45.5 -77.5q-19 -32 -46 -79.5t-57 -100.5t-59.5 -106.5t-52.5 -96.5zM125 624l-101 -11v39q22 4 47.5 10t49.5 12l46 11.5
t38 10.5l8 -9v-47.5t-0.5 -61t-0.5 -61.5v-49v-55v-60.5t0.5 -58.5t1.5 -49h-90q0 21 0.5 49t0.5 58.5v60.5v55v156zM595 118h-52q-26 0 -48 -0.5t-39 -0.5h-36v18q27 34 56 73.5t56.5 80.5t54 80.5t49.5 74.5q3 -1 16.5 -2t29.5 -2q0 -19 -0.5 -56.5t-1 -80t-0.5 -82.5v-64
l84 1v-43q-12 0 -33.5 0.5t-50.5 1.5v-27t0.5 -24.5t0.5 -28v-37.5h-88zM595 156v45v47t-0.5 43t-0.5 34q-17 -25 -35.5 -54t-34.5 -55q-18 -30 -37 -61z" />
    <glyph glyph-name="onehalf" unicode="&#xbd;" horiz-adv-x="828" 
d="M128 -23q26 43 57.5 95.5t62 105t58.5 99.5t46 79q18 31 45.5 78t58 99t60.5 104.5t53 96.5l48 -27q-26 -43 -58 -95.5t-63.5 -104t-59 -98t-45.5 -77.5q-19 -32 -46 -79.5t-57 -100.5t-59.5 -106.5t-52.5 -96.5zM125 624l-101 -11v39q22 4 47.5 10t49.5 12l46 11.5
t38 10.5l8 -9v-47.5t-0.5 -61t-0.5 -61.5v-49v-55v-60.5t0.5 -58.5t1.5 -49h-90q0 21 0.5 49t0.5 58.5v60.5v55v156zM605 411q-28 0 -52 -13.5t-42 -37.5l-22 54q23 17 52 28.5t74 11.5q75 0 120.5 -33.5t45.5 -98.5q0 -42 -19.5 -81t-63.5 -83q-11 -11 -24 -23t-27.5 -23.5
t-28 -22t-23.5 -17.5q24 0 57.5 0.5t66.5 1.5t59.5 1.5t36.5 0.5q-2 -7 -5 -18.5t-6 -23.5q-4 -14 -8 -30h-306l-1 34q45 36 80.5 68t62.5 64q35 42 47.5 77.5t12.5 72.5q0 53 -22.5 72t-64.5 19z" />
    <glyph glyph-name="threequarters" unicode="&#xbe;" horiz-adv-x="828" 
d="M201 -23q26 43 57.5 95.5t62.5 105t58.5 99.5t46.5 79q18 31 45.5 78t58 99t60.5 104.5t53 96.5l48 -27q-26 -43 -58 -95.5t-63.5 -104t-59 -98t-45.5 -77.5q-19 -32 -46.5 -79.5t-57.5 -100.5t-59.5 -106.5t-52.5 -96.5zM632 118h-52q-26 0 -48 -0.5t-39 -0.5h-36v18
q27 34 56 73.5t56.5 80.5t54 80.5t49.5 74.5q3 -1 16.5 -2t29.5 -2q0 -19 -0.5 -56.5t-1 -80t-0.5 -82.5v-64l83 1v-43q-11 0 -33 0.5t-50 1.5v-27t0.5 -24.5t0.5 -28v-37.5h-88zM632 156v45v47t-0.5 43t-0.5 34q-17 -25 -35 -54t-35 -55q-19 -30 -38 -61zM336 377
q0 -66 -46.5 -102.5t-130.5 -36.5q-41 0 -72.5 10.5t-56.5 27.5l29 50q14 -20 42 -34t55 -14q53 -1 72 22.5t19 73.5q0 40 -20 59t-64 19q-14 0 -25 -2.5t-25 -6.5l-14 34q25 10 48 20t39.5 23.5t26.5 32t10 45.5q0 26 -15.5 41.5t-47.5 15.5q-26 0 -52.5 -14t-40.5 -34
l-25 48q25 21 58.5 31t69.5 10q69 0 102 -29t33 -67q0 -21 -9.5 -38.5t-25 -31t-36.5 -23.5t-43 -16q73 -5 109 -36.5t36 -77.5z" />
    <glyph glyph-name="questiondown" unicode="&#xbf;" horiz-adv-x="385" 
d="M323 -7q-52 7 -97.5 26t-80.5 48t-56.5 66.5t-24.5 80.5q0 49 15 85t41.5 60t61 36t73.5 12q8 0 12.5 -0.5t7.5 -0.5q4 -1 6 -1v38q0 17 -0.5 36.5t-2.5 38.5h50q-2 -29 -2.5 -65.5t-0.5 -68.5v-77q-35 3 -69 3q-59 0 -93.5 -27t-34.5 -90q0 -32 15 -54t42.5 -36.5
t65.5 -22t83 -9.5zM362 638q0 -23 -17 -40t-40 -17t-40 17t-17 40t17 39.5t40 16.5t40 -16.5t17 -39.5z" />
    <glyph glyph-name="Agrave" unicode="&#xc0;" horiz-adv-x="648" 
d="M504 0q-17 48 -34 95.5t-35 95.5q-32 0 -62.5 0.5t-59.5 0.5h-68.5t-75.5 -1q-19 -47 -36.5 -95t-34.5 -96h-77q69 168 140 334.5t134 330.5q10 4 21.5 10t21.5 11t16.5 8.5t7.5 3.5q28 -88 59 -174t58 -160q13 -36 29 -80t34 -91t37 -96t37 -97h-112zM307 538
q-26 -67 -56 -142t-61 -149q32 0 62.5 -0.5t60.5 -0.5h103q-10 27 -23 63t-27 75.5t-29 79.5t-28 74h-2zM382 732q-44 29 -84 56.5t-75 50.5l53 59q27 -26 63 -60t76 -72z" />
    <glyph glyph-name="Aacute" unicode="&#xc1;" horiz-adv-x="648" 
d="M504 0q-17 48 -34 95.5t-35 95.5q-32 0 -62.5 0.5t-59.5 0.5h-68.5t-75.5 -1q-19 -47 -36.5 -95t-34.5 -96h-77q69 168 140 334.5t134 330.5q10 4 21.5 10t21.5 11t16.5 8.5t7.5 3.5q28 -88 59 -174t58 -160q13 -36 29 -80t34 -91t37 -96t37 -97h-112zM307 538
q-26 -67 -56 -142t-61 -149q32 0 62.5 -0.5t60.5 -0.5h103q-10 27 -23 63t-27 75.5t-29 79.5t-28 74h-2zM232 766q40 38 76 72t63 60l53 -59q-36 -23 -75.5 -50.5t-83.5 -56.5z" />
    <glyph glyph-name="Acircumflex" unicode="&#xc2;" horiz-adv-x="648" 
d="M504 0q-17 48 -34 95.5t-35 95.5q-32 0 -62.5 0.5t-59.5 0.5h-68.5t-75.5 -1q-19 -47 -36.5 -95t-34.5 -96h-77q69 168 140 334.5t134 330.5q10 4 21.5 10t21.5 11t16.5 8.5t7.5 3.5q28 -88 59 -174t58 -160q13 -36 29 -80t34 -91t37 -96t37 -97h-112zM307 538
q-26 -67 -56 -142t-61 -149q32 0 62.5 -0.5t60.5 -0.5h103q-10 27 -23 63t-27 75.5t-29 79.5t-28 74h-2zM351 872q14 -15 27 -26.5t27 -24.5t31.5 -29t41.5 -39l-29 -31q-20 15 -35 26.5t-28.5 21l-27 19t-30.5 21.5h-1q-17 -12 -30 -21t-26 -18.5t-28.5 -21t-36.5 -27.5
l-29 31q24 23 41 39t31 29t27.5 24.5t28.5 26.5h46z" />
    <glyph glyph-name="Atilde" unicode="&#xc3;" horiz-adv-x="648" 
d="M504 0q-17 48 -34 95.5t-35 95.5q-32 0 -62.5 0.5t-59.5 0.5h-68.5t-75.5 -1q-19 -47 -36.5 -95t-34.5 -96h-77q69 168 140 334.5t134 330.5q10 4 21.5 10t21.5 11t16.5 8.5t7.5 3.5q28 -88 59 -174t58 -160q13 -36 29 -80t34 -91t37 -96t37 -97h-112zM307 538
q-26 -67 -56 -142t-61 -149q32 0 62.5 -0.5t60.5 -0.5h103q-10 27 -23 63t-27 75.5t-29 79.5t-28 74h-2zM321 753q-29 11 -42 16t-27 5q-16 0 -26.5 -9.5t-5.5 -36.5l-48 17q11 39 32.5 60t65.5 21q16 0 32 -4.5t48 -15.5q27 -10 42.5 -16.5t29.5 -6.5q16 0 26.5 7.5
t8.5 37.5l48 -17q-11 -46 -32.5 -64.5t-65.5 -18.5q-25 0 -42.5 7t-43.5 18z" />
    <glyph glyph-name="Adieresis" unicode="&#xc4;" horiz-adv-x="648" 
d="M504 0q-17 48 -34 95.5t-35 95.5q-32 0 -62.5 0.5t-59.5 0.5h-68.5t-75.5 -1q-19 -47 -36.5 -95t-34.5 -96h-77q69 168 140 334.5t134 330.5q10 4 21.5 10t21.5 11t16.5 8.5t7.5 3.5q28 -88 59 -174t58 -160q13 -36 29 -80t34 -91t37 -96t37 -97h-112zM307 538
q-26 -67 -56 -142t-61 -149q32 0 62.5 -0.5t60.5 -0.5h103q-10 27 -23 63t-27 75.5t-29 79.5t-28 74h-2zM183 787q0 19 14 33.5t34 14.5t34.5 -14.5t14.5 -33.5q0 -20 -14.5 -34t-34.5 -14t-34 14t-14 34zM394 787q0 19 14 33.5t34 14.5q19 0 33.5 -14.5t14.5 -33.5
q0 -20 -14.5 -34t-33.5 -14q-20 0 -34 14t-14 34z" />
    <glyph glyph-name="Aring" unicode="&#xc5;" horiz-adv-x="648" 
d="M504 0q-17 48 -34 95.5t-35 95.5q-32 0 -62.5 0.5t-59.5 0.5h-68.5t-75.5 -1q-19 -47 -36.5 -95t-34.5 -96h-77q69 168 140 334.5t134 330.5q10 4 21.5 10t21.5 11t16.5 8.5t7.5 3.5q28 -88 59 -174t58 -160q13 -36 29 -80t34 -91t37 -96t37 -97h-112zM307 538
q-26 -67 -56 -142t-61 -149q32 0 62.5 -0.5t60.5 -0.5h103q-10 27 -23 63t-27 75.5t-29 79.5t-28 74h-2zM328 848q-21 0 -33.5 -14.5t-12.5 -34.5t12.5 -33.5t33.5 -13.5q20 0 32 13.5t12 33.5q0 22 -12 35.5t-32 13.5zM328 880q32 0 56 -21.5t24 -59.5q0 -37 -24 -58.5
t-56 -21.5q-33 0 -57 21.5t-24 58.5q0 38 24 59.5t57 21.5z" />
    <glyph glyph-name="AE" unicode="&#xc6;" horiz-adv-x="857" 
d="M742 326l-212 2v-68v-60.5t0.5 -65t1.5 -81.5l280 4l-6 -57h-377q1 62 1.5 115.5t0.5 103.5q-27 0 -54.5 0.5t-50.5 0.5h-58t-60 -1q-31 -57 -60 -111.5t-57 -107.5h-77q65 114 115.5 205.5t94 171t84 153.5t86.5 154h416l-9 -60l-269 6q0 -44 -0.5 -75.5t-1 -58.5
t-0.5 -53.5v-58.5l222 2zM426 623q-40 -72 -89 -162t-100 -187q23 -1 44 -1.5t45 -0.5h29t31 0.5t27 0.5h18v69v50t-0.5 47t-0.5 69v115h-4z" />
    <glyph glyph-name="Ccedilla" unicode="&#xc7;" horiz-adv-x="669" 
d="M382 696q51 0 88.5 -8t65.5 -20.5t48 -29t37 -32.5l-53 -60q-16 19 -33.5 37t-40 31.5t-51.5 21.5t-67 8q-45 0 -85 -17t-70 -52.5t-48 -90.5t-18 -132q0 -73 18 -129t50.5 -94t76.5 -57.5t96 -19.5q68 0 116 31t80 75l45 -37q-20 -26 -44.5 -50t-55.5 -42t-70.5 -29
t-90.5 -11h-3l-14 -32q5 2 11.5 2.5t13.5 0.5q37 0 54.5 -16t17.5 -42q0 -28 -26.5 -51t-84.5 -23q-29 0 -57.5 7t-43.5 15l17 44q14 -17 38.5 -27.5t45.5 -10.5q22 0 37 11.5t15 31.5q0 13 -6.5 21.5t-20.5 8.5q-6 0 -14 -1.5t-13 -3.5l-33 9l26 58q-67 6 -121 34.5
t-92 74.5t-58.5 107t-20.5 132q0 84 26 150.5t71 112.5t107 70t134 24z" />
    <glyph glyph-name="Egrave" unicode="&#xc8;" horiz-adv-x="525" 
d="M410 326l-230 2v-68v-60.5t0.5 -65t1.5 -81.5l299 4l-6 -57h-396q2 101 2.5 185t0.5 157t-0.5 157.5t-2.5 184.5h399l-8 -60l-288 6q0 -44 -0.5 -75.5t-1 -58.5t-0.5 -53.5v-58.5l240 2zM343 732q-44 29 -83.5 56.5t-75.5 50.5l53 59q27 -26 63 -60t76 -72z" />
    <glyph glyph-name="Eacute" unicode="&#xc9;" horiz-adv-x="525" 
d="M410 326l-230 2v-68v-60.5t0.5 -65t1.5 -81.5l299 4l-6 -57h-396q2 101 2.5 185t0.5 157t-0.5 157.5t-2.5 184.5h399l-8 -60l-288 6q0 -44 -0.5 -75.5t-1 -58.5t-0.5 -53.5v-58.5l240 2zM212 766q40 38 76 72t63 60l53 -59q-36 -23 -75.5 -50.5t-83.5 -56.5z" />
    <glyph glyph-name="Ecircumflex" unicode="&#xca;" horiz-adv-x="525" 
d="M410 326l-230 2v-68v-60.5t0.5 -65t1.5 -81.5l299 4l-6 -57h-396q2 101 2.5 185t0.5 157t-0.5 157.5t-2.5 184.5h399l-8 -60l-288 6q0 -44 -0.5 -75.5t-1 -58.5t-0.5 -53.5v-58.5l240 2zM303 872q14 -15 27 -26.5t27.5 -24.5t32 -29t41.5 -39l-30 -31q-20 15 -35 26.5
t-28.5 21l-27 19t-29.5 21.5h-2q-17 -12 -29.5 -21t-26 -18.5t-29 -21t-36.5 -27.5l-29 31q24 23 41 39t31 29t27.5 24.5t28.5 26.5h46z" />
    <glyph glyph-name="Edieresis" unicode="&#xcb;" horiz-adv-x="525" 
d="M410 326l-230 2v-68v-60.5t0.5 -65t1.5 -81.5l299 4l-6 -57h-396q2 101 2.5 185t0.5 157t-0.5 157.5t-2.5 184.5h399l-8 -60l-288 6q0 -44 -0.5 -75.5t-1 -58.5t-0.5 -53.5v-58.5l240 2zM126 787q0 19 14 33.5t34 14.5t34.5 -14.5t14.5 -33.5q0 -20 -14.5 -34t-34.5 -14
t-34 14t-14 34zM337 787q0 19 14 33.5t34 14.5q19 0 33.5 -14.5t14.5 -33.5q0 -20 -14.5 -34t-33.5 -14q-20 0 -34 14t-14 34z" />
    <glyph glyph-name="Igrave" unicode="&#xcc;" horiz-adv-x="263" 
d="M80 0q2 101 2.5 185t0.5 157t-0.5 157.5t-2.5 184.5h104q-2 -102 -2.5 -185.5t-0.5 -156.5t0.5 -157.5t2.5 -184.5h-104zM186 732q-44 29 -83.5 56.5t-75.5 50.5l53 59q27 -26 63 -60t76 -72z" />
    <glyph glyph-name="Iacute" unicode="&#xcd;" horiz-adv-x="263" 
d="M80 0q2 101 2.5 185t0.5 157t-0.5 157.5t-2.5 184.5h104q-2 -102 -2.5 -185.5t-0.5 -156.5t0.5 -157.5t2.5 -184.5h-104zM45 766q40 38 76 72t63 60l53 -59q-35 -23 -75 -50.5t-84 -56.5z" />
    <glyph glyph-name="Icircumflex" unicode="&#xce;" horiz-adv-x="263" 
d="M80 0q2 101 2.5 185t0.5 157t-0.5 157.5t-2.5 184.5h104q-2 -102 -2.5 -185.5t-0.5 -156.5t0.5 -157.5t2.5 -184.5h-104zM155 872q14 -15 27 -26.5t27 -24.5t31.5 -29t41.5 -39l-29 -31q-20 15 -35 26.5t-28.5 21l-27 19t-30.5 21.5h-1q-17 -12 -30 -21t-26 -18.5
t-28.5 -21t-36.5 -27.5l-29 31q24 23 41 39t31 29t27.5 24.5t28.5 26.5h46z" />
    <glyph glyph-name="Idieresis" unicode="&#xcf;" horiz-adv-x="263" 
d="M80 0q2 101 2.5 185t0.5 157t-0.5 157.5t-2.5 184.5h104q-2 -102 -2.5 -185.5t-0.5 -156.5t0.5 -157.5t2.5 -184.5h-104zM-22 787q0 19 14 33.5t34 14.5t34.5 -14.5t14.5 -33.5q0 -20 -14.5 -34t-34.5 -14t-34 14t-14 34zM189 787q0 19 14 33.5t33 14.5q20 0 34.5 -14.5
t14.5 -33.5q0 -20 -14.5 -34t-34.5 -14q-19 0 -33 14t-14 34z" />
    <glyph glyph-name="Eth" unicode="&#xd0;" horiz-adv-x="730" 
d="M98 0q3 183 3 322q-15 0 -33.5 -0.5t-44.5 -0.5v55q26 0 44.5 -0.5t33.5 -0.5q0 69 -0.5 143t-2.5 166h206q184 0 276.5 -86.5t92.5 -247.5q0 -82 -25.5 -147t-72 -110t-113.5 -69t-149 -24h-215zM201 59q1 0 26 -2t74 -2q62 -1 110.5 13t82 47.5t51 89t17.5 139.5
q0 64 -14 117t-45.5 90t-82.5 57.5t-126 20.5q-20 0 -36 -0.5t-29 -0.5h-27q0 -39 -0.5 -73t-1 -64.5t-1 -59t-0.5 -57.5h162v-53h-89t-73 1v-61t0.5 -60t1 -65.5t0.5 -76.5z" />
    <glyph glyph-name="Ntilde" unicode="&#xd1;" horiz-adv-x="722" 
d="M566 0q-38 49 -87 115.5t-103.5 141.5t-111.5 153t-112 151v-213q0 -74 0.5 -161t2.5 -187h-72q2 101 3 193t1 187q0 54 -0.5 97.5t-2 80t-3 67t-2.5 59.5h117q51 -74 96 -138.5t90 -125.5t91.5 -122.5t100.5 -130.5q1 52 1 98.5v88.5q0 74 -0.5 152t-3.5 178h71
q-2 -101 -2.5 -180.5t-0.5 -152.5v-162t1 -189h-74zM363 753q-29 11 -41.5 16t-27.5 5q-16 0 -26.5 -9.5t-5.5 -36.5l-48 17q11 39 32.5 60t66.5 21q16 0 31.5 -4.5t47.5 -15.5q28 -10 43 -16.5t30 -6.5q16 0 26 7.5t9 37.5l47 -17q-11 -46 -32 -64.5t-66 -18.5q-24 0 -42 7
t-44 18z" />
    <glyph glyph-name="Ograve" unicode="&#xd2;" horiz-adv-x="737" 
d="M371 40q56 0 95.5 21.5t65 60.5t37.5 94t12 123q0 144 -54 224t-161 80q-56 0 -96 -21.5t-65.5 -61t-37.5 -94.5t-12 -122q0 -143 54.5 -223.5t161.5 -80.5zM366 696q69 0 128.5 -25t103.5 -70t69 -108.5t25 -140.5q0 -84 -24.5 -151.5t-68 -114.5t-102 -72.5
t-126.5 -25.5q-69 0 -128.5 25t-103.5 70t-69 108t-25 140q0 84 25 152t68 115t101.5 72.5t126.5 25.5zM413 732q-44 29 -83.5 56.5t-75.5 50.5l53 59q27 -26 63 -60t76 -72z" />
    <glyph glyph-name="Oacute" unicode="&#xd3;" horiz-adv-x="737" 
d="M371 40q56 0 95.5 21.5t65 60.5t37.5 94t12 123q0 144 -54 224t-161 80q-56 0 -96 -21.5t-65.5 -61t-37.5 -94.5t-12 -122q0 -143 54.5 -223.5t161.5 -80.5zM366 696q69 0 128.5 -25t103.5 -70t69 -108.5t25 -140.5q0 -84 -24.5 -151.5t-68 -114.5t-102 -72.5
t-126.5 -25.5q-69 0 -128.5 25t-103.5 70t-69 108t-25 140q0 84 25 152t68 115t101.5 72.5t126.5 25.5zM282 766q40 38 76 72t62 60l54 -59q-36 -23 -75.5 -50.5t-83.5 -56.5z" />
    <glyph glyph-name="Ocircumflex" unicode="&#xd4;" horiz-adv-x="737" 
d="M371 40q56 0 95.5 21.5t65 60.5t37.5 94t12 123q0 144 -54 224t-161 80q-56 0 -96 -21.5t-65.5 -61t-37.5 -94.5t-12 -122q0 -143 54.5 -223.5t161.5 -80.5zM366 696q69 0 128.5 -25t103.5 -70t69 -108.5t25 -140.5q0 -84 -24.5 -151.5t-68 -114.5t-102 -72.5
t-126.5 -25.5q-69 0 -128.5 25t-103.5 70t-69 108t-25 140q0 84 25 152t68 115t101.5 72.5t126.5 25.5zM391 872q15 -15 27.5 -26.5t27 -24.5t32 -29t41.5 -39l-30 -31q-20 15 -35 26.5t-28.5 21l-27 19t-29.5 21.5h-2q-17 -12 -29.5 -21t-25.5 -18.5t-28.5 -21t-36.5 -27.5
l-30 31q24 23 41.5 39t31.5 29t27 24.5t28 26.5h46z" />
    <glyph glyph-name="Otilde" unicode="&#xd5;" horiz-adv-x="737" 
d="M371 40q56 0 95.5 21.5t65 60.5t37.5 94t12 123q0 144 -54 224t-161 80q-56 0 -96 -21.5t-65.5 -61t-37.5 -94.5t-12 -122q0 -143 54.5 -223.5t161.5 -80.5zM366 696q69 0 128.5 -25t103.5 -70t69 -108.5t25 -140.5q0 -84 -24.5 -151.5t-68 -114.5t-102 -72.5
t-126.5 -25.5q-69 0 -128.5 25t-103.5 70t-69 108t-25 140q0 84 25 152t68 115t101.5 72.5t126.5 25.5zM352 753q-29 11 -41.5 16t-27.5 5q-16 0 -26.5 -9.5t-5.5 -36.5l-48 17q11 39 32.5 60t66.5 21q16 0 31.5 -4.5t47.5 -15.5q28 -10 43 -16.5t30 -6.5q16 0 26 7.5
t9 37.5l47 -17q-11 -46 -32 -64.5t-66 -18.5q-24 0 -42 7t-44 18z" />
    <glyph glyph-name="Odieresis" unicode="&#xd6;" horiz-adv-x="737" 
d="M371 40q56 0 95.5 21.5t65 60.5t37.5 94t12 123q0 144 -54 224t-161 80q-56 0 -96 -21.5t-65.5 -61t-37.5 -94.5t-12 -122q0 -143 54.5 -223.5t161.5 -80.5zM366 696q69 0 128.5 -25t103.5 -70t69 -108.5t25 -140.5q0 -84 -24.5 -151.5t-68 -114.5t-102 -72.5
t-126.5 -25.5q-69 0 -128.5 25t-103.5 70t-69 108t-25 140q0 84 25 152t68 115t101.5 72.5t126.5 25.5zM205 787q0 19 14 33.5t34 14.5t34.5 -14.5t14.5 -33.5q0 -20 -14.5 -34t-34.5 -14t-34 14t-14 34zM416 787q0 19 14 33.5t34 14.5q19 0 33.5 -14.5t14.5 -33.5
q0 -20 -14.5 -34t-33.5 -14q-20 0 -34 14t-14 34z" />
    <glyph glyph-name="multiply" unicode="&#xd7;" horiz-adv-x="584" 
d="M114 488l178 -179l178 179l38 -38l-179 -179l179 -177l-38 -38l-178 178l-178 -178l-38 38l178 177l-178 179z" />
    <glyph glyph-name="Oslash" unicode="&#xd8;" horiz-adv-x="736" 
d="M643 702q-12 -22 -25.5 -45t-27.5 -48q48 -46 75 -111t27 -146q0 -84 -24.5 -151.5t-68 -114.5t-102 -72.5t-126.5 -25.5q-65 0 -119 21q-14 -26 -27.5 -50.5t-23.5 -44.5l-63 32l54 94q-67 44 -107 118.5t-40 172.5q0 84 25 152t68 115t101.5 72.5t126.5 25.5
q48 0 90.5 -12t78.5 -34l46 84zM155 344q0 -82 18 -144.5t54 -101.5q21 36 42 72.5t40.5 69.5t36 61t27.5 48l131 241q-53 53 -138 53q-56 0 -96 -21.5t-65.5 -61t-37.5 -94.5t-12 -122zM371 40q56 0 95.5 21.5t65 60.5t37.5 94t12 123q0 115 -35 191q-35 -62 -66 -118
t-50 -92l-150 -261q38 -19 91 -19z" />
    <glyph glyph-name="Ugrave" unicode="&#xd9;" horiz-adv-x="684" 
d="M611 232q0 -117 -69.5 -180.5t-190.5 -63.5q-63 0 -114.5 14.5t-87.5 46t-56 82t-20 121.5v50.5v25.5t0.5 10.5t0.5 7.5v16v35v67t-0.5 63t-1 69.5t-1.5 87.5h105q0 -51 -0.5 -88.5t-1 -69.5t-0.5 -62.5v-66.5v-57t0.5 -35.5t0.5 -28v-35.5q0 -104 48 -149.5t139 -45.5
q94 0 139 45.5t45 132.5v147v71t-0.5 72t-1.5 78.5t-2 91.5h72q-1 -51 -1.5 -92.5t-1 -78.5t-0.5 -71.5v-70.5v-139zM406 732q-44 29 -84 56.5t-75 50.5l53 59q27 -26 62.5 -60t76.5 -72z" />
    <glyph glyph-name="Uacute" unicode="&#xda;" horiz-adv-x="684" 
d="M611 232q0 -117 -69.5 -180.5t-190.5 -63.5q-63 0 -114.5 14.5t-87.5 46t-56 82t-20 121.5v50.5v25.5t0.5 10.5t0.5 7.5v16v35v67t-0.5 63t-1 69.5t-1.5 87.5h105q0 -51 -0.5 -88.5t-1 -69.5t-0.5 -62.5v-66.5v-57t0.5 -35.5t0.5 -28v-35.5q0 -104 48 -149.5t139 -45.5
q94 0 139 45.5t45 132.5v147v71t-0.5 72t-1.5 78.5t-2 91.5h72q-1 -51 -1.5 -92.5t-1 -78.5t-0.5 -71.5v-70.5v-139zM265 766q40 38 76 72t63 60l53 -59q-36 -23 -75.5 -50.5t-83.5 -56.5z" />
    <glyph glyph-name="Ucircumflex" unicode="&#xdb;" horiz-adv-x="684" 
d="M611 232q0 -117 -69.5 -180.5t-190.5 -63.5q-63 0 -114.5 14.5t-87.5 46t-56 82t-20 121.5v50.5v25.5t0.5 10.5t0.5 7.5v16v35v67t-0.5 63t-1 69.5t-1.5 87.5h105q0 -51 -0.5 -88.5t-1 -69.5t-0.5 -62.5v-66.5v-57t0.5 -35.5t0.5 -28v-35.5q0 -104 48 -149.5t139 -45.5
q94 0 139 45.5t45 132.5v147v71t-0.5 72t-1.5 78.5t-2 91.5h72q-1 -51 -1.5 -92.5t-1 -78.5t-0.5 -71.5v-70.5v-139zM374 872q15 -15 28 -26.5t27 -24.5t31.5 -29t41.5 -39l-29 -31q-20 15 -35 26.5t-28.5 21l-27 19t-30.5 21.5h-1q-17 -12 -30 -21t-26 -18.5t-28.5 -21
t-36.5 -27.5l-29 31q24 23 41 39t31 29t27 24.5t28 26.5h46z" />
    <glyph glyph-name="Udieresis" unicode="&#xdc;" horiz-adv-x="684" 
d="M611 232q0 -117 -69.5 -180.5t-190.5 -63.5q-63 0 -114.5 14.5t-87.5 46t-56 82t-20 121.5v50.5v25.5t0.5 10.5t0.5 7.5v16v35v67t-0.5 63t-1 69.5t-1.5 87.5h105q0 -51 -0.5 -88.5t-1 -69.5t-0.5 -62.5v-66.5v-57t0.5 -35.5t0.5 -28v-35.5q0 -104 48 -149.5t139 -45.5
q94 0 139 45.5t45 132.5v147v71t-0.5 72t-1.5 78.5t-2 91.5h72q-1 -51 -1.5 -92.5t-1 -78.5t-0.5 -71.5v-70.5v-139zM198 787q0 19 14 33.5t34 14.5q19 0 33.5 -14.5t14.5 -33.5q0 -20 -14.5 -34t-33.5 -14q-20 0 -34 14t-14 34zM408 787q0 19 14.5 33.5t33.5 14.5
q20 0 34.5 -14.5t14.5 -33.5q0 -20 -14.5 -34t-34.5 -14q-19 0 -33.5 14t-14.5 34z" />
    <glyph glyph-name="Yacute" unicode="&#xdd;" horiz-adv-x="592" 
d="M240 0l3 286q-28 48 -55.5 94.5t-55.5 95t-57 100t-60 108.5h112q53 -103 100 -182.5t83 -147.5q31 50 56.5 94.5t47.5 85t42.5 77.5t40.5 73h81q-60 -95 -117.5 -192.5t-118.5 -199.5q0 -66 0.5 -135.5t2.5 -156.5h-105zM210 766q40 38 76 72t63 60l53 -59
q-36 -23 -75.5 -50.5t-83.5 -56.5z" />
    <glyph glyph-name="Thorn" unicode="&#xde;" horiz-adv-x="530" 
d="M79 0q2 101 2.5 185t0.5 157t-0.5 157.5t-2.5 184.5h104q-1 -35 -1.5 -67t-0.5 -62h81q48 0 90.5 -12.5t73.5 -37.5t49 -62t18 -86q0 -43 -15.5 -79.5t-48 -63.5t-81.5 -42.5t-116 -15.5h-52q1 -36 1 -75t2 -81h-104zM236 501q-16 0 -29.5 -0.5t-26.5 -0.5v-291h61
q43 0 71.5 9.5t45.5 28t24.5 46t7.5 64.5q0 43 -10.5 71t-30.5 44t-48.5 22.5t-64.5 6.5z" />
    <glyph glyph-name="germandbls" unicode="&#xdf;" horiz-adv-x="555" 
d="M477 573q0 -20 -7.5 -37.5t-18.5 -34t-24.5 -30.5t-25.5 -26q-14 -14 -25.5 -24.5t-19 -20t-11.5 -20t-4 -24.5t3.5 -23.5t12.5 -19.5t23.5 -20.5t36.5 -25.5q29 -20 50 -36t34.5 -32t19.5 -35t6 -46q0 -23 -9.5 -46t-29 -41.5t-49.5 -30t-71 -11.5q-32 0 -70 8t-65 25
l27 67q26 -31 50.5 -44.5t57.5 -13.5q25 0 41.5 6t26.5 15t14 20.5t4 23.5q0 18 -5.5 29.5t-16 21.5t-26 19.5t-35.5 23.5q-21 15 -39 27.5t-31 27t-20 32t-7 42.5q0 19 7.5 38t20 37.5t28 36.5t32.5 35t31.5 40t14.5 61q0 52 -23 80.5t-80 28.5q-52 0 -82.5 -28.5
t-30.5 -88.5v-296q0 -77 1 -138t3 -125h-98q0 64 1 125t1 138q0 49 -1 85t-1 75h-81v27l81 21v48q0 53 18.5 90.5t49 61.5t69.5 35t79 11q23 0 51.5 -5t53 -20.5t41.5 -44t17 -74.5z" />
    <glyph glyph-name="agrave" unicode="&#xe0;" horiz-adv-x="486" 
d="M35 415q33 29 83.5 48t111.5 19q87 0 124.5 -29.5t37.5 -87.5v-25t-0.5 -38t-0.5 -38.5v-27.5q0 -45 0.5 -90.5t0.5 -75.5q0 -19 8.5 -26t20.5 -7q17 0 27.5 4.5t20.5 10.5l15 -21q-14 -20 -39 -31t-57 -11q-43 0 -61.5 18.5t-22.5 44.5q-26 -26 -59.5 -44.5t-82.5 -18.5
q-23 0 -45 7t-39 21t-28 35t-11 49q0 31 9.5 52.5t24 36t31.5 22.5t32 13q41 14 84.5 26.5t77.5 20.5v18.5v23.5v23v17q0 48 -21.5 66t-66.5 18q-42 0 -81 -20t-62 -52zM296 84q1 31 1.5 71t0.5 83q-14 -3 -31.5 -8t-34.5 -10.5t-32 -11t-24 -9.5q-25 -11 -34.5 -30
t-9.5 -49q0 -74 75 -74q29 0 50 11.5t39 26.5zM245 525q-23 42 -44 78t-43 76l76 25q10 -37 22.5 -74.5t28.5 -91.5z" />
    <glyph glyph-name="aacute" unicode="&#xe1;" horiz-adv-x="486" 
d="M35 415q33 29 83.5 48t111.5 19q87 0 124.5 -29.5t37.5 -87.5v-25t-0.5 -38t-0.5 -38.5v-27.5q0 -45 0.5 -90.5t0.5 -75.5q0 -19 8.5 -26t20.5 -7q17 0 27.5 4.5t20.5 10.5l15 -21q-14 -20 -39 -31t-57 -11q-43 0 -61.5 18.5t-22.5 44.5q-26 -26 -59.5 -44.5t-82.5 -18.5
q-23 0 -45 7t-39 21t-28 35t-11 49q0 31 9.5 52.5t24 36t31.5 22.5t32 13q41 14 84.5 26.5t77.5 20.5v18.5v23.5v23v17q0 48 -21.5 66t-66.5 18q-42 0 -81 -20t-62 -52zM296 84q1 31 1.5 71t0.5 83q-14 -3 -31.5 -8t-34.5 -10.5t-32 -11t-24 -9.5q-25 -11 -34.5 -30
t-9.5 -49q0 -74 75 -74q29 0 50 11.5t39 26.5zM181 538q16 54 28.5 91.5t23.5 74.5l75 -25q-21 -40 -42.5 -76t-43.5 -78z" />
    <glyph glyph-name="acircumflex" unicode="&#xe2;" horiz-adv-x="486" 
d="M35 415q33 29 83.5 48t111.5 19q87 0 124.5 -29.5t37.5 -87.5v-25t-0.5 -38t-0.5 -38.5v-27.5q0 -45 0.5 -90.5t0.5 -75.5q0 -19 8.5 -26t20.5 -7q17 0 27.5 4.5t20.5 10.5l15 -21q-14 -20 -39 -31t-57 -11q-43 0 -61.5 18.5t-22.5 44.5q-26 -26 -59.5 -44.5t-82.5 -18.5
q-23 0 -45 7t-39 21t-28 35t-11 49q0 31 9.5 52.5t24 36t31.5 22.5t32 13q41 14 84.5 26.5t77.5 20.5v18.5v23.5v23v17q0 48 -21.5 66t-66.5 18q-42 0 -81 -20t-62 -52zM296 84q1 31 1.5 71t0.5 83q-14 -3 -31.5 -8t-34.5 -10.5t-32 -11t-24 -9.5q-25 -11 -34.5 -30
t-9.5 -49q0 -74 75 -74q29 0 50 11.5t39 26.5zM213 644q-17 -15 -29.5 -27.5l-24.5 -24.5t-24.5 -25.5t-30.5 -31.5l-32 24q18 22 34 40.5t30 36t28 34t29 36.5h43q15 -20 28.5 -35.5t27 -32t29.5 -35.5t37 -44l-32 -24q-32 32 -57 56t-54 53h-2z" />
    <glyph glyph-name="atilde" unicode="&#xe3;" horiz-adv-x="486" 
d="M35 415q33 29 83.5 48t111.5 19q87 0 124.5 -29.5t37.5 -87.5v-25t-0.5 -38t-0.5 -38.5v-27.5q0 -45 0.5 -90.5t0.5 -75.5q0 -19 8.5 -26t20.5 -7q17 0 27.5 4.5t20.5 10.5l15 -21q-14 -20 -39 -31t-57 -11q-43 0 -61.5 18.5t-22.5 44.5q-26 -26 -59.5 -44.5t-82.5 -18.5
q-23 0 -45 7t-39 21t-28 35t-11 49q0 31 9.5 52.5t24 36t31.5 22.5t32 13q41 14 84.5 26.5t77.5 20.5v18.5v23.5v23v17q0 48 -21.5 66t-66.5 18q-42 0 -81 -20t-62 -52zM296 84q1 31 1.5 71t0.5 83q-14 -3 -31.5 -8t-34.5 -10.5t-32 -11t-24 -9.5q-25 -11 -34.5 -30
t-9.5 -49q0 -74 75 -74q29 0 50 11.5t39 26.5zM281 572q-16 0 -33 7.5t-34 16.5t-32.5 16.5t-29.5 7.5q-8 0 -16.5 -1t-15 -5.5t-10 -14.5t-0.5 -28l-47 18q11 46 35.5 62t62.5 16q21 0 39.5 -7.5t35.5 -16.5t31 -16.5t23 -7.5q16 0 26 10t4 46l48 -17q-11 -46 -30 -66
t-57 -20z" />
    <glyph glyph-name="adieresis" unicode="&#xe4;" horiz-adv-x="486" 
d="M35 415q33 29 83.5 48t111.5 19q87 0 124.5 -29.5t37.5 -87.5v-25t-0.5 -38t-0.5 -38.5v-27.5q0 -45 0.5 -90.5t0.5 -75.5q0 -19 8.5 -26t20.5 -7q17 0 27.5 4.5t20.5 10.5l15 -21q-14 -20 -39 -31t-57 -11q-43 0 -61.5 18.5t-22.5 44.5q-26 -26 -59.5 -44.5t-82.5 -18.5
q-23 0 -45 7t-39 21t-28 35t-11 49q0 31 9.5 52.5t24 36t31.5 22.5t32 13q41 14 84.5 26.5t77.5 20.5v18.5v23.5v23v17q0 48 -21.5 66t-66.5 18q-42 0 -81 -20t-62 -52zM296 84q1 31 1.5 71t0.5 83q-14 -3 -31.5 -8t-34.5 -10.5t-32 -11t-24 -9.5q-25 -11 -34.5 -30
t-9.5 -49q0 -74 75 -74q29 0 50 11.5t39 26.5zM69 621q0 20 14 34.5t34 14.5t34.5 -14.5t14.5 -34.5t-14.5 -34t-34.5 -14t-34 14t-14 34zM261 621q0 20 14 34.5t34 14.5t34.5 -14.5t14.5 -34.5t-14.5 -34t-34.5 -14t-34 14t-14 34z" />
    <glyph glyph-name="aring" unicode="&#xe5;" horiz-adv-x="486" 
d="M35 415q33 29 83.5 48t111.5 19q87 0 124.5 -29.5t37.5 -87.5v-25t-0.5 -38t-0.5 -38.5v-27.5q0 -45 0.5 -90.5t0.5 -75.5q0 -19 8.5 -26t20.5 -7q17 0 27.5 4.5t20.5 10.5l15 -21q-14 -20 -39 -31t-57 -11q-43 0 -61.5 18.5t-22.5 44.5q-26 -26 -59.5 -44.5t-82.5 -18.5
q-23 0 -45 7t-39 21t-28 35t-11 49q0 31 9.5 52.5t24 36t31.5 22.5t32 13q41 14 84.5 26.5t77.5 20.5v18.5v23.5v23v17q0 48 -21.5 66t-66.5 18q-42 0 -81 -20t-62 -52zM296 84q1 31 1.5 71t0.5 83q-14 -3 -31.5 -8t-34.5 -10.5t-32 -11t-24 -9.5q-25 -11 -34.5 -30
t-9.5 -49q0 -74 75 -74q29 0 50 11.5t39 26.5zM222 668q-21 0 -33.5 -14.5t-12.5 -34.5t12.5 -34t33.5 -14q20 0 32 14t12 34q0 22 -12 35.5t-32 13.5zM222 700q32 0 56.5 -21.5t24.5 -59.5t-24.5 -59t-56.5 -21q-33 0 -57 21t-24 59t24 59.5t57 21.5z" />
    <glyph glyph-name="ae" unicode="&#xe6;" horiz-adv-x="735" 
d="M693 302q-80 -14 -157 -27.5t-143 -27.5v-15q0 -49 12 -84.5t32.5 -58t48 -33t57.5 -10.5q49 0 77.5 18.5t50.5 42.5l26 -25q-11 -17 -28.5 -34t-40 -30t-49.5 -21t-58 -8q-113 0 -170 89h-3q-32 -39 -76 -64t-92 -25q-63 0 -102 27.5t-39 84.5q0 31 9.5 52.5t24 36
t31.5 22.5t32 13q23 8 59.5 17t102.5 23v74q0 48 -21.5 73.5t-66.5 25.5q-42 0 -81 -20t-62 -52l-32 49q33 29 83.5 48t111.5 19q57 0 86 -21t41 -47h3q31 34 72.5 51t87.5 17q45 0 77.5 -14.5t53.5 -39t31.5 -57.5t10.5 -69zM132 120q0 -38 19 -60.5t56 -22.5q29 0 53.5 17
t35.5 41q0 10 0.5 31.5t0.5 43.5v39v19q-50 -11 -81.5 -19t-39.5 -10q-25 -11 -34.5 -30t-9.5 -49zM518 443q-57 0 -86.5 -38.5t-36.5 -119.5l208 42q0 23 -5.5 44t-16 37t-26.5 25.5t-37 9.5z" />
    <glyph glyph-name="ccedilla" unicode="&#xe7;" horiz-adv-x="470" 
d="M140 236q0 -48 12 -84.5t33 -61t48.5 -37t59.5 -12.5q26 0 45 5.5t34 14.5t27 21t24 26l27 -24q-23 -39 -63 -65t-99 -29l-15 -33q5 2 12 2.5t13 0.5q38 0 55.5 -16t17.5 -42q0 -28 -26.5 -51t-85.5 -23q-28 0 -52 7t-40 15l18 44q14 -17 34 -27.5t40 -10.5q23 0 38 11.5
t15 31.5q0 13 -7 21.5t-21 8.5q-6 0 -13.5 -1.5t-12.5 -3.5l-34 9l26 57q-37 3 -74.5 19t-67.5 45t-49 71t-19 99q0 63 22.5 111.5t58.5 81t80 49t88 16.5q52 0 89.5 -11.5t64.5 -37.5l-38 -63q-21 29 -46 49.5t-66 20.5q-31 0 -59 -12t-49 -37t-33 -63.5t-12 -91.5z" />
    <glyph glyph-name="egrave" unicode="&#xe8;" horiz-adv-x="490" 
d="M448 82q-11 -17 -29 -34t-41 -30t-51 -21t-59 -8q-48 0 -90 15t-73 45.5t-48.5 76.5t-17.5 108q0 57 19.5 102.5t51 78t72.5 50t85 17.5q90 0 138 -52t48 -157h-314q0 -11 -0.5 -20.5t-0.5 -20.5q0 -49 12 -84t33 -58q20 -23 47 -33.5t58 -10.5q49 0 80.5 18.5t52.5 42.5
zM359 321q0 23 -4 45t-14.5 39t-29 27.5t-46.5 10.5q-26 0 -47 -10.5t-36.5 -28.5t-25.5 -42t-14 -51zM240 525q-22 42 -43.5 78t-42.5 76l75 25q10 -37 22.5 -75t29.5 -91z" />
    <glyph glyph-name="eacute" unicode="&#xe9;" horiz-adv-x="490" 
d="M448 82q-11 -17 -29 -34t-41 -30t-51 -21t-59 -8q-48 0 -90 15t-73 45.5t-48.5 76.5t-17.5 108q0 57 19.5 102.5t51 78t72.5 50t85 17.5q90 0 138 -52t48 -157h-314q0 -11 -0.5 -20.5t-0.5 -20.5q0 -49 12 -84t33 -58q20 -23 47 -33.5t58 -10.5q49 0 80.5 18.5t52.5 42.5
zM359 321q0 23 -4 45t-14.5 39t-29 27.5t-46.5 10.5q-26 0 -47 -10.5t-36.5 -28.5t-25.5 -42t-14 -51zM204 538q16 54 28.5 91.5t23.5 74.5l75 -25q-21 -40 -42.5 -76t-43.5 -78z" />
    <glyph glyph-name="ecircumflex" unicode="&#xea;" horiz-adv-x="490" 
d="M448 82q-11 -17 -29 -34t-41 -30t-51 -21t-59 -8q-48 0 -90 15t-73 45.5t-48.5 76.5t-17.5 108q0 57 19.5 102.5t51 78t72.5 50t85 17.5q90 0 138 -52t48 -157h-314q0 -11 -0.5 -20.5t-0.5 -20.5q0 -49 12 -84t33 -58q20 -23 47 -33.5t58 -10.5q49 0 80.5 18.5t52.5 42.5
zM359 321q0 23 -4 45t-14.5 39t-29 27.5t-46.5 10.5q-26 0 -47 -10.5t-36.5 -28.5t-25.5 -42t-14 -51zM246 644q-17 -15 -29.5 -27.5l-24.5 -24.5t-25 -25.5t-31 -31.5l-32 24q18 22 34 40.5t30 36t28 34t29 36.5h44q15 -20 28 -35.5t26.5 -32t29.5 -35.5t37 -44l-32 -24
q-32 32 -57 56t-54 53h-1z" />
    <glyph glyph-name="edieresis" unicode="&#xeb;" horiz-adv-x="490" 
d="M448 82q-11 -17 -29 -34t-41 -30t-51 -21t-59 -8q-48 0 -90 15t-73 45.5t-48.5 76.5t-17.5 108q0 57 19.5 102.5t51 78t72.5 50t85 17.5q90 0 138 -52t48 -157h-314q0 -11 -0.5 -20.5t-0.5 -20.5q0 -49 12 -84t33 -58q20 -23 47 -33.5t58 -10.5q49 0 80.5 18.5t52.5 42.5
zM359 321q0 23 -4 45t-14.5 39t-29 27.5t-46.5 10.5q-26 0 -47 -10.5t-36.5 -28.5t-25.5 -42t-14 -51zM101 621q0 20 14 34.5t34 14.5t34.5 -14.5t14.5 -34.5t-14.5 -34t-34.5 -14t-34 14t-14 34zM293 621q0 20 14.5 34.5t33.5 14.5q20 0 34.5 -14.5t14.5 -34.5t-14.5 -34
t-34.5 -14q-19 0 -33.5 14t-14.5 34z" />
    <glyph glyph-name="igrave" unicode="&#xec;" horiz-adv-x="240" 
d="M173 477q0 -58 -1.5 -119t-1.5 -122q0 -39 0.5 -68.5t1 -56l1 -53t0.5 -58.5h-98q0 32 0.5 58.5l1 53t1 56t0.5 68.5t-0.5 69t-1 56t-1 49.5t-0.5 47.5zM119 525q-23 42 -44 78t-43 76l76 25q10 -37 22.5 -74.5t28.5 -91.5z" />
    <glyph glyph-name="iacute" unicode="&#xed;" horiz-adv-x="240" 
d="M173 477q0 -58 -1.5 -119t-1.5 -122q0 -39 0.5 -68.5t1 -56l1 -53t0.5 -58.5h-98q0 32 0.5 58.5l1 53t1 56t0.5 68.5t-0.5 69t-1 56t-1 49.5t-0.5 47.5zM83 538q16 54 28.5 91.5t22.5 74.5l76 -25q-22 -40 -43 -76t-44 -78z" />
    <glyph glyph-name="icircumflex" unicode="&#xee;" horiz-adv-x="240" 
d="M173 477q0 -58 -1.5 -119t-1.5 -122q0 -39 0.5 -68.5t1 -56l1 -53t0.5 -58.5h-98q0 32 0.5 58.5l1 53t1 56t0.5 68.5t-0.5 69t-1 56t-1 49.5t-0.5 47.5zM124 644q-17 -15 -29.5 -27.5l-24.5 -24.5t-24.5 -25.5t-30.5 -31.5l-32 24q18 22 33.5 40.5t29.5 36t28.5 34
t29.5 36.5h43q15 -20 28.5 -35.5t27 -32t29.5 -35.5t37 -44l-33 -24q-31 32 -56 56t-54 53h-2z" />
    <glyph glyph-name="idieresis" unicode="&#xef;" horiz-adv-x="240" 
d="M173 477q0 -58 -1.5 -119t-1.5 -122q0 -39 0.5 -68.5t1 -56l1 -53t0.5 -58.5h-98q0 32 0.5 58.5l1 53t1 56t0.5 68.5t-0.5 69t-1 56t-1 49.5t-0.5 47.5zM-20 621q0 20 14 34.5t34 14.5q19 0 33.5 -14.5t14.5 -34.5t-14.5 -34t-33.5 -14q-20 0 -34 14t-14 34zM172 621
q0 20 14 34.5t34 14.5t34.5 -14.5t14.5 -34.5t-14.5 -34t-34.5 -14t-34 14t-14 34z" />
    <glyph glyph-name="eth" unicode="&#xf0;" horiz-adv-x="550" 
d="M129 552q19 11 33 19t26 14.5t22.5 12t22.5 12.5q-44 27 -100 45l10 41q79 -19 143 -55q23 14 46 26.5t58 33.5l21 -33l-82 -47q41 -30 75 -69.5t58 -87.5t37.5 -103t13.5 -115q0 -64 -19 -112t-51.5 -80.5t-76 -49t-92.5 -16.5q-50 0 -93 16.5t-74 46t-48.5 71
t-17.5 91.5q0 52 18 94t49 72t72.5 46t89.5 16q15 0 32.5 -2.5t34.5 -8.5t32.5 -16t27.5 -25h3q-13 58 -49.5 109.5t-79.5 89.5l-120 -71zM275 396q-63 0 -97 -43t-34 -139q0 -83 28.5 -131.5t101.5 -48.5q63 0 102.5 46t39.5 136q0 85 -38 132.5t-103 47.5z" />
    <glyph glyph-name="ntilde" unicode="&#xf1;" horiz-adv-x="537" 
d="M67 236q0 39 -0.5 68t-1 54t-1 47t-0.5 47l94 18q0 -14 -0.5 -27.5t-0.5 -24.5q10 8 21.5 15.5t24.5 15.5q26 14 54 23.5t54 9.5q91 0 128 -42.5t37 -127.5q0 -14 -0.5 -36.5t-0.5 -39.5q0 -39 0.5 -68.5t0.5 -56t0.5 -53t0.5 -58.5h-98q0 32 0.5 58.5l1 53t1 56
t0.5 68.5q0 27 -0.5 46.5t-0.5 39.5q0 100 -105 100q-29 0 -60 -12.5t-56 -30.5q-1 -31 -1 -64.5v-78.5q0 -39 0.5 -68.5t1 -56l1 -53t0.5 -58.5h-98q0 32 0.5 58.5l1 53t1 56t0.5 68.5zM338 572q-16 0 -33 7.5t-34 16.5t-32.5 16.5t-29.5 7.5q-8 0 -16.5 -1t-15 -5.5
t-10 -14.5t-0.5 -28l-47 18q11 46 35.5 62t62.5 16q21 0 39.5 -7.5t35.5 -16.5t31 -16.5t23 -7.5q16 0 26 10t4 46l48 -17q-11 -46 -30 -66t-57 -20z" />
    <glyph glyph-name="ograve" unicode="&#xf2;" horiz-adv-x="558" 
d="M279 30q36 0 63 17t45 45.5t26.5 66t8.5 79.5q0 96 -40 150t-103 54q-40 0 -67.5 -17t-44.5 -46t-24.5 -67t-7.5 -80q0 -48 12 -85.5t32 -63.5t46 -39.5t54 -13.5zM279 482q42 0 85 -14.5t78 -44.5t57 -76.5t22 -110.5q0 -60 -20 -106.5t-54 -77.5t-77.5 -47t-90.5 -16
q-42 0 -85 14t-78 44t-57 76.5t-22 110.5q0 61 20 107t54 77.5t77.5 47.5t90.5 16zM273 525q-22 42 -43.5 78t-42.5 76l75 25q11 -37 23.5 -74.5t28.5 -91.5z" />
    <glyph glyph-name="oacute" unicode="&#xf3;" horiz-adv-x="558" 
d="M279 30q36 0 63 17t45 45.5t26.5 66t8.5 79.5q0 96 -40 150t-103 54q-40 0 -67.5 -17t-44.5 -46t-24.5 -67t-7.5 -80q0 -48 12 -85.5t32 -63.5t46 -39.5t54 -13.5zM279 482q42 0 85 -14.5t78 -44.5t57 -76.5t22 -110.5q0 -60 -20 -106.5t-54 -77.5t-77.5 -47t-90.5 -16
q-42 0 -85 14t-78 44t-57 76.5t-22 110.5q0 61 20 107t54 77.5t77.5 47.5t90.5 16zM228 538q16 54 28.5 91.5t23.5 74.5l75 -25q-21 -40 -42.5 -76t-43.5 -78z" />
    <glyph glyph-name="ocircumflex" unicode="&#xf4;" horiz-adv-x="558" 
d="M279 30q36 0 63 17t45 45.5t26.5 66t8.5 79.5q0 96 -40 150t-103 54q-40 0 -67.5 -17t-44.5 -46t-24.5 -67t-7.5 -80q0 -48 12 -85.5t32 -63.5t46 -39.5t54 -13.5zM279 482q42 0 85 -14.5t78 -44.5t57 -76.5t22 -110.5q0 -60 -20 -106.5t-54 -77.5t-77.5 -47t-90.5 -16
q-42 0 -85 14t-78 44t-57 76.5t-22 110.5q0 61 20 107t54 77.5t77.5 47.5t90.5 16zM279 644q-17 -15 -29.5 -27.5l-24.5 -24.5t-25 -25.5t-31 -31.5l-32 24q18 22 34 40.5t30 36t28.5 34t29.5 36.5h43q15 -20 28 -35.5t26.5 -32t29.5 -35.5t37 -44l-32 -24q-31 32 -56.5 56
t-53.5 53h-2z" />
    <glyph glyph-name="otilde" unicode="&#xf5;" horiz-adv-x="558" 
d="M279 30q36 0 63 17t45 45.5t26.5 66t8.5 79.5q0 96 -40 150t-103 54q-40 0 -67.5 -17t-44.5 -46t-24.5 -67t-7.5 -80q0 -48 12 -85.5t32 -63.5t46 -39.5t54 -13.5zM279 482q42 0 85 -14.5t78 -44.5t57 -76.5t22 -110.5q0 -60 -20 -106.5t-54 -77.5t-77.5 -47t-90.5 -16
q-42 0 -85 14t-78 44t-57 76.5t-22 110.5q0 61 20 107t54 77.5t77.5 47.5t90.5 16zM346 572q-15 0 -32 7.5t-34 16.5t-33 16.5t-30 7.5q-8 0 -16.5 -1t-15 -5.5t-9.5 -14.5t0 -28l-48 18q11 46 35.5 62t62.5 16q21 0 40 -7.5t36 -16.5t30.5 -16.5t22.5 -7.5q16 0 26 10t4 46
l48 -17q-11 -46 -30 -66t-57 -20z" />
    <glyph glyph-name="odieresis" unicode="&#xf6;" horiz-adv-x="558" 
d="M279 30q36 0 63 17t45 45.5t26.5 66t8.5 79.5q0 96 -40 150t-103 54q-40 0 -67.5 -17t-44.5 -46t-24.5 -67t-7.5 -80q0 -48 12 -85.5t32 -63.5t46 -39.5t54 -13.5zM279 482q42 0 85 -14.5t78 -44.5t57 -76.5t22 -110.5q0 -60 -20 -106.5t-54 -77.5t-77.5 -47t-90.5 -16
q-42 0 -85 14t-78 44t-57 76.5t-22 110.5q0 61 20 107t54 77.5t77.5 47.5t90.5 16zM134 621q0 20 14 34.5t34 14.5t34.5 -14.5t14.5 -34.5t-14.5 -34t-34.5 -14t-34 14t-14 34zM327 621q0 20 14 34.5t33 14.5q20 0 34.5 -14.5t14.5 -34.5t-14.5 -34t-34.5 -14q-19 0 -33 14
t-14 34z" />
    <glyph glyph-name="divide" unicode="&#xf7;" horiz-adv-x="584" 
d="M520 247h-456v48h456v-48zM238 92q0 21 15 36.5t36 15.5q20 0 35.5 -15.5t15.5 -36.5t-15.5 -36t-35.5 -15q-21 0 -36 15t-15 36zM238 448q0 21 15 36.5t36 15.5q20 0 35.5 -15.5t15.5 -36.5t-15.5 -36t-35.5 -15q-21 0 -36 15t-15 36z" />
    <glyph glyph-name="oslash" unicode="&#xf8;" horiz-adv-x="558" 
d="M449 539l-42 -91q48 -29 81 -80.5t33 -131.5q0 -60 -20 -106.5t-54 -77.5t-77.5 -47t-90.5 -16q-20 0 -39.5 3.5t-38.5 8.5q-9 -22 -18.5 -43.5t-18.5 -44.5l-55 23l40 87q-48 28 -80 80t-32 131q0 61 20 107t54 77.5t77.5 47.5t90.5 16q38 0 76 -12q10 23 19.5 45.5
t19.5 46.5zM135 232q0 -48 11.5 -85t31.5 -63l78 163q36 82 81 180q-14 7 -28.5 11t-29.5 4q-40 0 -67.5 -17t-44.5 -46t-24.5 -67t-7.5 -80zM279 30q36 0 63 17t45 45.5t26.5 66t8.5 79.5q0 50 -11.5 88t-31.5 64q-20 -44 -38 -84t-35 -77q-18 -41 -39.5 -86.5t-44.5 -96.5
q27 -16 57 -16z" />
    <glyph glyph-name="ugrave" unicode="&#xf9;" horiz-adv-x="537" 
d="M470 235q0 -77 0.5 -131.5t2.5 -103.5h-94q0 14 0.5 28.5t0.5 26.5q-14 -10 -26 -18.5t-26 -16.5q-26 -14 -54.5 -23t-60.5 -9q-81 0 -116 36.5t-35 120.5v19t0.5 24.5t0.5 25v21.5q0 39 -0.5 68.5t-1 56t-1 52.5t-0.5 58h98q0 -32 -0.5 -58t-1 -52.5t-1 -56t-0.5 -68.5
q0 -28 0.5 -49.5t0.5 -41.5q0 -57 20 -79.5t64 -22.5q39 0 75 14.5t61 44.5q0 16 0.5 30t1 29.5t0.5 33.5v41q0 39 -0.5 68.5t-1 56t-1 52.5t-0.5 58h98q0 -32 -0.5 -58t-1 -52.5t-1 -56t-0.5 -68.5zM260 525q-22 42 -43.5 78t-42.5 76l75 25q11 -37 23.5 -74.5t28.5 -91.5z
" />
    <glyph glyph-name="uacute" unicode="&#xfa;" horiz-adv-x="537" 
d="M470 235q0 -77 0.5 -131.5t2.5 -103.5h-94q0 14 0.5 28.5t0.5 26.5q-14 -10 -26 -18.5t-26 -16.5q-26 -14 -54.5 -23t-60.5 -9q-81 0 -116 36.5t-35 120.5v19t0.5 24.5t0.5 25v21.5q0 39 -0.5 68.5t-1 56t-1 52.5t-0.5 58h98q0 -32 -0.5 -58t-1 -52.5t-1 -56t-0.5 -68.5
q0 -28 0.5 -49.5t0.5 -41.5q0 -57 20 -79.5t64 -22.5q39 0 75 14.5t61 44.5q0 16 0.5 30t1 29.5t0.5 33.5v41q0 39 -0.5 68.5t-1 56t-1 52.5t-0.5 58h98q0 -32 -0.5 -58t-1 -52.5t-1 -56t-0.5 -68.5zM224 538q16 53 28.5 91t23.5 75l75 -25q-21 -40 -42.5 -76t-43.5 -78z
" />
    <glyph glyph-name="ucircumflex" unicode="&#xfb;" horiz-adv-x="537" 
d="M470 235q0 -77 0.5 -131.5t2.5 -103.5h-94q0 14 0.5 28.5t0.5 26.5q-14 -10 -26 -18.5t-26 -16.5q-26 -14 -54.5 -23t-60.5 -9q-81 0 -116 36.5t-35 120.5v19t0.5 24.5t0.5 25v21.5q0 39 -0.5 68.5t-1 56t-1 52.5t-0.5 58h98q0 -32 -0.5 -58t-1 -52.5t-1 -56t-0.5 -68.5
q0 -28 0.5 -49.5t0.5 -41.5q0 -57 20 -79.5t64 -22.5q39 0 75 14.5t61 44.5q0 16 0.5 30t1 29.5t0.5 33.5v41q0 39 -0.5 68.5t-1 56t-1 52.5t-0.5 58h98q0 -32 -0.5 -58t-1 -52.5t-1 -56t-0.5 -68.5zM266 644q-17 -15 -29.5 -27.5l-24.5 -24.5t-25 -25.5t-31 -31.5l-32 24
q18 22 34 40.5t30 36t28.5 34t29.5 36.5h43q15 -20 28 -35.5t26.5 -32t29.5 -35.5t37 -44l-32 -24q-31 32 -56.5 56t-53.5 53h-2z" />
    <glyph glyph-name="udieresis" unicode="&#xfc;" horiz-adv-x="537" 
d="M470 235q0 -77 0.5 -131.5t2.5 -103.5h-94q0 14 0.5 28.5t0.5 26.5q-14 -10 -26 -18.5t-26 -16.5q-26 -14 -54.5 -23t-60.5 -9q-81 0 -116 36.5t-35 120.5v19t0.5 24.5t0.5 25v21.5q0 39 -0.5 68.5t-1 56t-1 52.5t-0.5 58h98q0 -32 -0.5 -58t-1 -52.5t-1 -56t-0.5 -68.5
q0 -28 0.5 -49.5t0.5 -41.5q0 -57 20 -79.5t64 -22.5q39 0 75 14.5t61 44.5q0 16 0.5 30t1 29.5t0.5 33.5v41q0 39 -0.5 68.5t-1 56t-1 52.5t-0.5 58h98q0 -32 -0.5 -58t-1 -52.5t-1 -56t-0.5 -68.5zM121 621q0 20 14.5 34.5t33.5 14.5q20 0 34.5 -14.5t14.5 -34.5
t-14.5 -34t-34.5 -14q-19 0 -33.5 14t-14.5 34zM314 621q0 20 14 34.5t34 14.5q19 0 33.5 -14.5t14.5 -34.5t-14.5 -34t-33.5 -14q-20 0 -34 14t-14 34z" />
    <glyph glyph-name="yacute" unicode="&#xfd;" horiz-adv-x="489" 
d="M264 96q24 60 44.5 111.5t38 97t32.5 86.5t28 79h71q-13 -33 -33 -81.5t-43.5 -105.5t-50 -120l-53 -126t-51 -122.5t-45.5 -109.5h-77q13 26 28 57.5t28 58.5q15 32 29 62q-23 57 -48.5 120.5t-52 128t-51 126t-44.5 112.5h107q17 -49 34 -94t34 -89.5t35 -91t38 -99.5
h2zM213 538q16 53 28.5 91t23.5 75l75 -25q-21 -40 -42.5 -76t-43.5 -78z" />
    <glyph glyph-name="thorn" unicode="&#xfe;" horiz-adv-x="558" 
d="M65 -195v77v64.5t0.5 58.5t1 59.5t0.5 68t1 83.5v145.5t-0.5 139t-1.5 118.5t-2 84l96 13v-273q19 11 54 25t83 14q39 0 79 -10.5t72.5 -37.5t53 -74.5t20.5 -120.5q0 -67 -22.5 -114.5t-58.5 -77.5t-81 -44t-90 -14q-35 0 -62.5 9t-48.5 22l2 -215h-96zM159 92
q18 -26 44 -44.5t72 -18.5q32 0 59 11t46.5 35.5t30.5 63t11 93.5q0 98 -37.5 148.5t-118.5 50.5q-29 0 -59 -6.5t-48 -17.5v-315z" />
    <glyph glyph-name="ydieresis" unicode="&#xff;" horiz-adv-x="489" 
d="M264 96q24 60 44.5 111.5t38 97t32.5 86.5t28 79h71q-13 -33 -33 -81.5t-43.5 -105.5t-50 -120l-53 -126t-51 -122.5t-45.5 -109.5h-77q13 26 28 57.5t28 58.5q15 32 29 62q-23 57 -48.5 120.5t-52 128t-51 126t-44.5 112.5h107q17 -49 34 -94t34 -89.5t35 -91t38 -99.5
h2zM120 621q0 20 14 34.5t33 14.5q20 0 34.5 -14.5t14.5 -34.5t-14.5 -34t-34.5 -14q-19 0 -33 14t-14 34zM312 621q0 20 14 34.5t34 14.5q19 0 33.5 -14.5t14.5 -34.5t-14.5 -34t-33.5 -14q-20 0 -34 14t-14 34z" />
    <glyph glyph-name="Amacron" unicode="&#x100;" horiz-adv-x="648" 
d="M504 0q-17 48 -34 95.5t-35 95.5q-32 0 -62.5 0.5t-59.5 0.5h-68.5t-75.5 -1q-19 -47 -36.5 -95t-34.5 -96h-77q69 168 140 334.5t134 330.5q10 4 21.5 10t21.5 11t16.5 8.5t7.5 3.5q28 -88 59 -174t58 -160q13 -36 29 -80t34 -91t37 -96t37 -97h-112zM307 538
q-26 -67 -56 -142t-61 -149q32 0 62.5 -0.5t60.5 -0.5h103q-10 27 -23 63t-27 75.5t-29 79.5t-28 74h-2zM338 806h33.5t28.5 0.5t31 0.5h41l-6 -49q-25 0 -39.5 0.5t-27 0.5h-26.5h-37h-34.5t-28.5 -0.5t-31 -0.5h-41l7 49q24 0 39 -0.5t27.5 -0.5h26.5h37z" />
    <glyph glyph-name="amacron" unicode="&#x101;" horiz-adv-x="486" 
d="M35 415q33 29 83.5 48t111.5 19q87 0 124.5 -29.5t37.5 -87.5v-25t-0.5 -38t-0.5 -38.5v-27.5q0 -45 0.5 -90.5t0.5 -75.5q0 -19 8.5 -26t20.5 -7q17 0 27.5 4.5t20.5 10.5l15 -21q-14 -20 -39 -31t-57 -11q-43 0 -61.5 18.5t-22.5 44.5q-26 -26 -59.5 -44.5t-82.5 -18.5
q-23 0 -45 7t-39 21t-28 35t-11 49q0 31 9.5 52.5t24 36t31.5 22.5t32 13q41 14 84.5 26.5t77.5 20.5v18.5v23.5v23v17q0 48 -21.5 66t-66.5 18q-42 0 -81 -20t-62 -52zM296 84q1 31 1.5 71t0.5 83q-14 -3 -31.5 -8t-34.5 -10.5t-32 -11t-24 -9.5q-25 -11 -34.5 -30
t-9.5 -49q0 -74 75 -74q29 0 50 11.5t39 26.5zM224 642h33.5t28.5 0.5t31 0.5h41l-7 -49q-24 0 -39 0.5t-27.5 0.5h-26.5h-36h-34.5t-28.5 -0.5t-31 -0.5h-41l7 49q24 0 39 -0.5t27.5 -0.5h26.5h37z" />
    <glyph glyph-name="Abreve" unicode="&#x102;" horiz-adv-x="648" 
d="M504 0q-17 48 -34 95.5t-35 95.5q-32 0 -62.5 0.5t-59.5 0.5h-68.5t-75.5 -1q-19 -47 -36.5 -95t-34.5 -96h-77q69 168 140 334.5t134 330.5q10 4 21.5 10t21.5 11t16.5 8.5t7.5 3.5q28 -88 59 -174t58 -160q13 -36 29 -80t34 -91t37 -96t37 -97h-112zM307 538
q-26 -67 -56 -142t-61 -149q32 0 62.5 -0.5t60.5 -0.5h103q-10 27 -23 63t-27 75.5t-29 79.5t-28 74h-2zM339 780q44 0 64 20t28 62l46 -9q-8 -39 -22.5 -63t-33 -37.5t-40 -18.5t-42.5 -5t-42 5t-40 18.5t-33.5 37.5t-22.5 63l46 9q8 -42 28.5 -62t63.5 -20z" />
    <glyph glyph-name="abreve" unicode="&#x103;" horiz-adv-x="486" 
d="M35 415q33 29 83.5 48t111.5 19q87 0 124.5 -29.5t37.5 -87.5v-25t-0.5 -38t-0.5 -38.5v-27.5q0 -45 0.5 -90.5t0.5 -75.5q0 -19 8.5 -26t20.5 -7q17 0 27.5 4.5t20.5 10.5l15 -21q-14 -20 -39 -31t-57 -11q-43 0 -61.5 18.5t-22.5 44.5q-26 -26 -59.5 -44.5t-82.5 -18.5
q-23 0 -45 7t-39 21t-28 35t-11 49q0 31 9.5 52.5t24 36t31.5 22.5t32 13q41 14 84.5 26.5t77.5 20.5v18.5v23.5v23v17q0 48 -21.5 66t-66.5 18q-42 0 -81 -20t-62 -52zM296 84q1 31 1.5 71t0.5 83q-14 -3 -31.5 -8t-34.5 -10.5t-32 -11t-24 -9.5q-25 -11 -34.5 -30
t-9.5 -49q0 -74 75 -74q29 0 50 11.5t39 26.5zM213 587q32 0 55 17.5t28 56.5l44 -9q-7 -34 -19.5 -55.5t-29 -34t-36.5 -17t-42 -4.5t-41.5 4.5t-36 17t-29.5 34t-20 55.5l45 9q5 -39 27.5 -56.5t54.5 -17.5z" />
    <glyph glyph-name="Aogonek" unicode="&#x104;" horiz-adv-x="648" 
d="M544 0q-15 -18 -26.5 -40.5t-11.5 -56.5q0 -23 14 -34.5t31 -11.5t31.5 10t22.5 24l18 -36q-27 -27 -92 -27q-24 0 -41.5 7t-29 17.5t-16.5 23.5t-5 26q0 14 6 28.5t15.5 27.5t21 24t21.5 19q-17 47 -33.5 94.5t-34.5 95.5q-32 0 -62.5 0.5t-59.5 0.5h-68.5t-75.5 -1
q-19 -47 -36.5 -95t-34.5 -96h-77q69 168 140 334.5t134 330.5q10 4 21.5 10t21.5 11t16.5 8.5t7.5 3.5q28 -88 59 -174t58 -160q13 -36 29 -80t34 -91t37 -96t37 -97h-72zM307 538q-26 -67 -56 -142t-61 -149q32 0 62.5 -0.5t60.5 -0.5h103q-10 27 -23 63t-27 75.5
t-29 79.5t-28 74h-2z" />
    <glyph glyph-name="aogonek" unicode="&#x105;" horiz-adv-x="486" 
d="M35 415q33 29 83.5 48t111.5 19q87 0 124.5 -29.5t37.5 -87.5v-25t-0.5 -38t-0.5 -38.5v-27.5q0 -45 0.5 -90.5t0.5 -75.5q0 -19 8.5 -26t20.5 -7q17 0 27.5 4.5t20.5 10.5l15 -21q-13 -17 -28 -26t-29 -17q-9 -5 -18.5 -11t-17 -14t-12.5 -20t-5 -30q0 -23 11.5 -39.5
t40.5 -16.5q17 0 31.5 10t22.5 24l18 -36q-27 -27 -92 -27q-25 0 -43.5 7t-31 17.5t-19 23.5t-6.5 26q0 26 18.5 51t51.5 38q-36 2 -52.5 20.5t-19.5 40.5q-26 -26 -59.5 -44.5t-82.5 -18.5q-23 0 -45 7t-39 21t-28 35t-11 49q0 31 9.5 52.5t24 36t31.5 22.5t32 13
q41 14 84.5 26.5t77.5 20.5v18.5v23.5v23v17q0 48 -21.5 66t-66.5 18q-42 0 -81 -20t-62 -52zM296 84q1 31 1.5 71t0.5 83q-14 -3 -31.5 -8t-34.5 -10.5t-32 -11t-24 -9.5q-25 -11 -34.5 -30t-9.5 -49q0 -74 75 -74q29 0 50 11.5t39 26.5z" />
    <glyph glyph-name="Cacute" unicode="&#x106;" horiz-adv-x="669" 
d="M382 696q51 0 88.5 -8t65.5 -20.5t48 -29t37 -32.5l-54 -62q-16 19 -33.5 37t-40 32t-51 22.5t-66.5 8.5q-45 0 -85 -17t-70 -52.5t-48 -90.5t-18 -132q0 -73 18 -129t50.5 -94t76.5 -57.5t96 -19.5q68 0 116 31t80 75l45 -37q-20 -26 -44.5 -50t-55.5 -42t-70.5 -29
t-90.5 -11q-75 0 -136.5 26t-105 72.5t-67 110.5t-23.5 141q0 84 26 150.5t71 112.5t107 70t134 24zM289 766q40 38 76 72t63 60l53 -59q-36 -23 -75.5 -50.5t-83.5 -56.5z" />
    <glyph glyph-name="cacute" unicode="&#x107;" horiz-adv-x="470" 
d="M140 236q0 -48 12 -84.5t33 -61t48.5 -37t59.5 -12.5q26 0 45 5.5t34 14.5t27 21t24 26l27 -24q-25 -42 -69 -68.5t-111 -26.5q-38 0 -79 14t-74.5 43t-55 73.5t-21.5 104.5q0 63 22.5 111.5t58.5 81t80 49t88 16.5q52 0 89.5 -11.5t64.5 -37.5l-38 -63q-21 29 -46 49.5
t-66 20.5q-31 0 -59 -12t-49 -37t-33 -63.5t-12 -91.5zM213 538q16 54 28 91.5t23 74.5l75 -25q-21 -40 -42.5 -76t-43.5 -78z" />
    <glyph glyph-name="Ccircumflex" unicode="&#x108;" horiz-adv-x="669" 
d="M382 696q51 0 88.5 -8t65.5 -20.5t48 -29t37 -32.5l-54 -62q-16 19 -33.5 37t-40 32t-51 22.5t-66.5 8.5q-45 0 -85 -17t-70 -52.5t-48 -90.5t-18 -132q0 -73 18 -129t50.5 -94t76.5 -57.5t96 -19.5q68 0 116 31t80 75l45 -37q-20 -26 -44.5 -50t-55.5 -42t-70.5 -29
t-90.5 -11q-75 0 -136.5 26t-105 72.5t-67 110.5t-23.5 141q0 84 26 150.5t71 112.5t107 70t134 24zM391 872q15 -15 27.5 -26.5t27 -24.5t32 -29t41.5 -39l-30 -31q-20 15 -35 26.5t-28.5 21l-27 19t-29.5 21.5h-2q-17 -12 -29.5 -21t-25.5 -18.5t-28.5 -21t-36.5 -27.5
l-30 31q24 23 41.5 39t31.5 29t27 24.5t28 26.5h46z" />
    <glyph glyph-name="ccircumflex" unicode="&#x109;" horiz-adv-x="470" 
d="M140 236q0 -48 12 -84.5t33 -61t48.5 -37t59.5 -12.5q26 0 45 5.5t34 14.5t27 21t24 26l27 -24q-25 -42 -69 -68.5t-111 -26.5q-38 0 -79 14t-74.5 43t-55 73.5t-21.5 104.5q0 63 22.5 111.5t58.5 81t80 49t88 16.5q52 0 89.5 -11.5t64.5 -37.5l-38 -63q-21 29 -46 49.5
t-66 20.5q-31 0 -59 -12t-49 -37t-33 -63.5t-12 -91.5zM263 644q-17 -15 -29.5 -27.5l-24.5 -24.5t-24.5 -25.5t-30.5 -31.5l-33 24q18 22 34 40.5t30 36t28.5 34t29.5 36.5h43q15 -20 28 -35.5t27 -32t30 -35.5t37 -44l-33 -24q-31 32 -56 56t-54 53h-2z" />
    <glyph glyph-name="Cdotaccent" unicode="&#x10a;" horiz-adv-x="669" 
d="M382 696q51 0 88.5 -8t65.5 -20.5t48 -29t37 -32.5l-54 -62q-16 19 -33.5 37t-40 32t-51 22.5t-66.5 8.5q-45 0 -85 -17t-70 -52.5t-48 -90.5t-18 -132q0 -73 18 -129t50.5 -94t76.5 -57.5t96 -19.5q68 0 116 31t80 75l45 -37q-20 -26 -44.5 -50t-55.5 -42t-70.5 -29
t-90.5 -11q-75 0 -136.5 26t-105 72.5t-67 110.5t-23.5 141q0 84 26 150.5t71 112.5t107 70t134 24zM313 788q0 23 16 40t39 17t39.5 -17t16.5 -40t-16.5 -39t-39.5 -16t-39 16t-16 39z" />
    <glyph glyph-name="cdotaccent" unicode="&#x10b;" horiz-adv-x="470" 
d="M140 236q0 -48 12 -84.5t33 -61t48.5 -37t59.5 -12.5q26 0 45 5.5t34 14.5t27 21t24 26l27 -24q-25 -42 -69 -68.5t-111 -26.5q-38 0 -79 14t-74.5 43t-55 73.5t-21.5 104.5q0 63 22.5 111.5t58.5 81t80 49t88 16.5q52 0 89.5 -11.5t64.5 -37.5l-38 -63q-21 29 -46 49.5
t-66 20.5q-31 0 -59 -12t-49 -37t-33 -63.5t-12 -91.5zM217 616q0 23 16 40t39 17t39.5 -17t16.5 -40t-16.5 -39t-39.5 -16t-39 16t-16 39z" />
    <glyph glyph-name="Ccaron" unicode="&#x10c;" horiz-adv-x="669" 
d="M382 696q51 0 88.5 -8t65.5 -20.5t48 -29t37 -32.5l-54 -62q-16 19 -33.5 37t-40 32t-51 22.5t-66.5 8.5q-45 0 -85 -17t-70 -52.5t-48 -90.5t-18 -132q0 -73 18 -129t50.5 -94t76.5 -57.5t96 -19.5q68 0 116 31t80 75l45 -37q-20 -26 -44.5 -50t-55.5 -42t-70.5 -29
t-90.5 -11q-75 0 -136.5 26t-105 72.5t-67 110.5t-23.5 141q0 84 26 150.5t71 112.5t107 70t134 24zM345 722q-15 15 -27.5 27t-27 24.5t-32 28.5t-41.5 40l30 30q20 -15 35 -26t28.5 -21t26.5 -19t30 -21h2q16 11 29 20t26 18.5t28.5 20.5t36.5 28l30 -30
q-24 -24 -41.5 -40t-31.5 -28.5t-27 -24.5t-28 -27h-46z" />
    <glyph glyph-name="ccaron" unicode="&#x10d;" horiz-adv-x="470" 
d="M140 236q0 -48 12 -84.5t33 -61t48.5 -37t59.5 -12.5q26 0 45 5.5t34 14.5t27 21t24 26l27 -24q-25 -42 -69 -68.5t-111 -26.5q-38 0 -79 14t-74.5 43t-55 73.5t-21.5 104.5q0 63 22.5 111.5t58.5 81t80 49t88 16.5q52 0 89.5 -11.5t64.5 -37.5l-38 -63q-21 29 -46 49.5
t-66 20.5q-31 0 -59 -12t-49 -37t-33 -63.5t-12 -91.5zM284 596q17 16 29.5 28t24.5 24t25 25.5t31 32.5l32 -25q-18 -23 -34 -41t-30 -35l-28 -34t-29 -36h-44q-15 19 -28 35t-26.5 32.5t-29.5 35t-37 43.5l32 25q31 -33 56.5 -57t53.5 -53h2z" />
    <glyph glyph-name="Dcaron" unicode="&#x10e;" horiz-adv-x="707" 
d="M80 0q2 101 2.5 185t0.5 157t-0.5 157.5t-2.5 184.5h205q185 0 277.5 -86.5t92.5 -247.5q0 -82 -25.5 -147t-72.5 -110t-114 -69t-149 -24h-214zM183 59q1 0 26 -2t73 -2q63 -1 111.5 13t82 47.5t51 89t17.5 139.5q0 64 -14 117t-45.5 90t-82.5 57.5t-126 20.5
q-20 0 -37 -0.5t-29 -0.5h-26q-1 -86 -2.5 -152.5t-1.5 -131.5v-69.5t0.5 -63.5t1 -68.5t1.5 -83.5zM270 722q-14 15 -27 27t-27 24.5t-31.5 28.5t-41.5 40l29 30q20 -15 35 -26t28.5 -21t27 -19t30.5 -21h1q17 11 30 20t26 18.5t28.5 20.5t36.5 28l29 -30q-24 -24 -41 -40
t-31.5 -28.5t-27.5 -24.5t-28 -27h-46z" />
    <glyph glyph-name="dcaron" unicode="&#x10f;" horiz-adv-x="646" 
d="M399 703l97 13l-1 -478q0 -41 1 -82q1 -35 1 -77t1 -79h-96v44h-4q-19 -20 -53 -37.5t-88 -17.5q-38 0 -76.5 14t-69.5 44t-50.5 76t-19.5 110q0 61 21.5 107.5t55.5 78t77 47.5t87 16q38 0 68.5 -7t47.5 -15zM399 385q-17 26 -46 41t-67 15q-72 0 -109 -57.5t-37 -151.5
q0 -50 11 -87t30.5 -61t45 -36t54.5 -12q42 0 74.5 20t43.5 46v283zM544 516q4 29 7 49.5t5.5 40t5.5 40t8 49.5h76q-11 -27 -19 -49t-15.5 -43t-14.5 -42t-16 -45h-37z" />
    <glyph glyph-name="Dcroat" unicode="&#x110;" horiz-adv-x="707" 
d="M98 0q3 183 3 322q-15 0 -33.5 -0.5t-44.5 -0.5v55q26 0 44.5 -0.5t33.5 -0.5q0 69 -0.5 143t-2.5 166h206q184 0 276.5 -86.5t92.5 -247.5q0 -82 -25.5 -147t-72 -110t-113.5 -69t-149 -24h-215zM201 59q1 0 26 -2t74 -2q62 -1 110.5 13t82 47.5t51 89t17.5 139.5
q0 64 -14 117t-45.5 90t-82.5 57.5t-126 20.5q-20 0 -36 -0.5t-29 -0.5h-27q0 -39 -0.5 -73t-1 -64.5t-1 -59t-0.5 -57.5h162v-53h-89t-73 1v-61t0.5 -60t1 -65.5t0.5 -76.5z" />
    <glyph glyph-name="dcroat" unicode="&#x111;" horiz-adv-x="567" 
d="M398 561q-17 0 -45 -0.5t-57 -0.5t-52.5 -0.5t-30.5 -0.5l6 47q7 0 30 -0.5t50.5 -0.5t54.5 -0.5t44 -0.5l1 99l97 13l-1 -112q26 1 47.5 1.5t33.5 0.5l-4 -47q-11 0 -31.5 0.5t-45.5 1.5v-323q0 -41 1 -82q1 -35 1 -77t1 -79h-96v44h-4q-19 -20 -53 -37.5t-88 -17.5
q-38 0 -76.5 14t-69.5 44t-50.5 76t-19.5 110q0 61 21.5 107.5t55.5 78t77 47.5t87 16q38 0 68.5 -7t47.5 -15v101zM399 385q-17 26 -46 41t-67 15q-72 0 -109 -57.5t-37 -151.5q0 -50 11 -87t30.5 -61t45 -36t54.5 -12q42 0 74.5 20t43.5 46v283z" />
    <glyph glyph-name="Emacron" unicode="&#x112;" horiz-adv-x="525" 
d="M410 326l-230 2v-68v-60.5t0.5 -65t1.5 -81.5l299 4l-6 -57h-396q2 101 2.5 185t0.5 157t-0.5 157.5t-2.5 184.5h399l-8 -60l-288 6q0 -44 -0.5 -75.5t-1 -58.5t-0.5 -53.5v-58.5l240 2zM281 806h33.5t28.5 0.5t31 0.5h41l-7 -49q-24 0 -39 0.5t-27.5 0.5h-26.5h-36
h-34.5t-28.5 -0.5t-31 -0.5h-41l7 49q24 0 39 -0.5t27.5 -0.5h26.5h37z" />
    <glyph glyph-name="emacron" unicode="&#x113;" horiz-adv-x="490" 
d="M448 82q-11 -17 -29 -34t-41 -30t-51 -21t-59 -8q-48 0 -90 15t-73 45.5t-48.5 76.5t-17.5 108q0 57 19.5 102.5t51 78t72.5 50t85 17.5q90 0 138 -52t48 -157h-314q0 -11 -0.5 -20.5t-0.5 -20.5q0 -49 12 -84t33 -58q20 -23 47 -33.5t58 -10.5q49 0 80.5 18.5t52.5 42.5
zM359 321q0 23 -4 45t-14.5 39t-29 27.5t-46.5 10.5q-26 0 -47 -10.5t-36.5 -28.5t-25.5 -42t-14 -51zM265 624h33.5t29 0.5t31 0.5h40.5l-6 -49q-24 0 -39 0.5t-27.5 0.5h-26.5h-37h-33.5t-29 -0.5t-31 -0.5h-40.5l6 49q25 0 39.5 -0.5t27 -0.5h26.5h37z" />
    <glyph glyph-name="Ebreve" unicode="&#x114;" horiz-adv-x="525" 
d="M410 326l-230 2v-68v-60.5t0.5 -65t1.5 -81.5l299 4l-6 -57h-396q2 101 2.5 185t0.5 157t-0.5 157.5t-2.5 184.5h399l-8 -60l-288 6q0 -44 -0.5 -75.5t-1 -58.5t-0.5 -53.5v-58.5l240 2zM273 780q44 0 64 20t28 62l45 -9q-8 -39 -22 -63t-33 -37.5t-40 -18.5t-42 -5
t-42.5 5t-40 18.5t-33.5 37.5t-22 63l46 9q8 -42 28 -62t64 -20z" />
    <glyph glyph-name="ebreve" unicode="&#x115;" horiz-adv-x="490" 
d="M448 82q-11 -17 -29 -34t-41 -30t-51 -21t-59 -8q-48 0 -90 15t-73 45.5t-48.5 76.5t-17.5 108q0 57 19.5 102.5t51 78t72.5 50t85 17.5q90 0 138 -52t48 -157h-314q0 -11 -0.5 -20.5t-0.5 -20.5q0 -49 12 -84t33 -58q20 -23 47 -33.5t58 -10.5q49 0 80.5 18.5t52.5 42.5
zM359 321q0 23 -4 45t-14.5 39t-29 27.5t-46.5 10.5q-26 0 -47 -10.5t-36.5 -28.5t-25.5 -42t-14 -51zM255 587q32 0 54.5 17.5t28.5 56.5l44 -9q-8 -34 -20 -55.5t-28.5 -34t-36.5 -17t-42 -4.5t-42 4.5t-36.5 17t-29 34t-19.5 55.5l44 9q5 -39 28 -56.5t55 -17.5z" />
    <glyph glyph-name="Edotaccent" unicode="&#x116;" horiz-adv-x="525" 
d="M410 326l-230 2v-68v-60.5t0.5 -65t1.5 -81.5l299 4l-6 -57h-396q2 101 2.5 185t0.5 157t-0.5 157.5t-2.5 184.5h399l-8 -60l-288 6q0 -44 -0.5 -75.5t-1 -58.5t-0.5 -53.5v-58.5l240 2zM224 788q0 23 16.5 40t39.5 17t39.5 -17t16.5 -40t-16.5 -39t-39.5 -16t-39.5 16
t-16.5 39z" />
    <glyph glyph-name="edotaccent" unicode="&#x117;" horiz-adv-x="490" 
d="M448 82q-11 -17 -29 -34t-41 -30t-51 -21t-59 -8q-48 0 -90 15t-73 45.5t-48.5 76.5t-17.5 108q0 57 19.5 102.5t51 78t72.5 50t85 17.5q90 0 138 -52t48 -157h-314q0 -11 -0.5 -20.5t-0.5 -20.5q0 -49 12 -84t33 -58q20 -23 47 -33.5t58 -10.5q49 0 80.5 18.5t52.5 42.5
zM359 321q0 23 -4 45t-14.5 39t-29 27.5t-46.5 10.5q-26 0 -47 -10.5t-36.5 -28.5t-25.5 -42t-14 -51zM200 616q0 23 16 40t39 17t39.5 -17t16.5 -40t-16.5 -39t-39.5 -16t-39 16t-16 39z" />
    <glyph glyph-name="Eogonek" unicode="&#x118;" horiz-adv-x="525" 
d="M410 326l-230 2v-68v-60.5t0.5 -65t1.5 -81.5l299 4l-6 -57h-182q-15 -18 -26.5 -40.5t-11.5 -56.5q0 -23 14 -34.5t31 -11.5t31.5 10t22.5 24l18 -36q-27 -27 -92 -27q-25 0 -42.5 7t-28.5 17.5t-16 23.5t-5 26q0 14 6 28t15.5 26.5t20.5 24t21 19.5h-172q2 101 2.5 185
t0.5 157t-0.5 157.5t-2.5 184.5h399l-8 -60l-288 6q0 -44 -0.5 -75.5t-1 -58.5t-0.5 -53.5v-58.5l240 2z" />
    <glyph glyph-name="eogonek" unicode="&#x119;" horiz-adv-x="490" 
d="M139 273q0 -11 -0.5 -20.5t-0.5 -20.5q0 -49 12 -84.5t32.5 -58t48 -33t57.5 -10.5q49 0 80.5 18.5t52.5 42.5l27 -25q-23 -35 -69.5 -63.5t-109.5 -29.5q-12 -17 -21 -37t-9 -49q0 -23 14 -34.5t31 -11.5t32 10t23 24l17 -36q-27 -27 -92 -27q-24 0 -41.5 7t-29 17.5
t-16.5 23.5t-5 26q0 26 17 49.5t36 40.5q-40 6 -74 23.5t-59 48t-39 73t-14 97.5q0 57 19.5 102.5t51 78t72.5 50t85 17.5q90 0 138 -52t48 -157h-314zM265 443q-26 0 -47 -10.5t-36.5 -28.5t-25.5 -42t-14 -51l217 10q0 23 -4 45t-14.5 39t-29 27.5t-46.5 10.5z" />
    <glyph glyph-name="Ecaron" unicode="&#x11a;" horiz-adv-x="525" 
d="M410 326l-230 2v-68v-60.5t0.5 -65t1.5 -81.5l299 4l-6 -57h-396q2 101 2.5 185t0.5 157t-0.5 157.5t-2.5 184.5h399l-8 -60l-288 6q0 -44 -0.5 -75.5t-1 -58.5t-0.5 -53.5v-58.5l240 2zM257 722q-15 15 -28 27t-27 24.5t-31.5 28.5t-41.5 40l29 30q21 -15 36 -26
t28.5 -21t26.5 -19t30 -21h2q16 11 29 20t26 18.5t28.5 20.5t36.5 28l30 -30q-24 -24 -41.5 -40t-31.5 -28.5t-27 -24.5t-28 -27h-46z" />
    <glyph glyph-name="ecaron" unicode="&#x11b;" horiz-adv-x="490" 
d="M448 82q-11 -17 -29 -34t-41 -30t-51 -21t-59 -8q-48 0 -90 15t-73 45.5t-48.5 76.5t-17.5 108q0 57 19.5 102.5t51 78t72.5 50t85 17.5q90 0 138 -52t48 -157h-314q0 -11 -0.5 -20.5t-0.5 -20.5q0 -49 12 -84t33 -58q20 -23 47 -33.5t58 -10.5q49 0 80.5 18.5t52.5 42.5
zM359 321q0 23 -4 45t-14.5 39t-29 27.5t-46.5 10.5q-26 0 -47 -10.5t-36.5 -28.5t-25.5 -42t-14 -51zM258 596q17 16 29.5 28t24.5 24t24.5 25.5t30.5 32.5l32 -25q-18 -23 -33.5 -41t-30 -35t-28.5 -34t-29 -36h-43q-15 19 -28.5 35t-27 32.5t-29.5 35t-37 43.5l32 25
q32 -33 57 -57t54 -53h2z" />
    <glyph glyph-name="Gcircumflex" unicode="&#x11c;" horiz-adv-x="702" 
d="M404 307h256q-2 -35 -3 -72t-1 -70.5t0.5 -60t0.5 -41.5q-51 -29 -121.5 -52t-149.5 -23q-75 0 -138 26t-108 73t-70 111t-25 141q0 84 27.5 150.5t75 112.5t111 70t134.5 24q50 0 88 -8t67.5 -20.5t51 -28t38.5 -31.5l-51 -62q-18 21 -36 39.5t-41.5 31.5t-54 20.5
t-72.5 7.5q-45 0 -86.5 -17t-73 -52.5t-50 -90.5t-18.5 -132q0 -74 18 -132.5t49 -98.5t73.5 -61t91.5 -21q61 0 103.5 13.5t67.5 30.5v29v44t-0.5 49t-0.5 43q-20 0 -46 -0.5t-49.5 -1t-40 -1t-17.5 -0.5v61zM403 872q15 -15 27.5 -26.5t27 -24.5t32 -29t41.5 -39l-30 -31
q-20 15 -35 26.5t-28.5 21l-27 19t-29.5 21.5h-2q-17 -12 -29.5 -21t-25.5 -18.5t-28.5 -21t-36.5 -27.5l-30 31q24 23 41 39t31.5 29t27.5 24.5t28 26.5h46z" />
    <glyph glyph-name="gcircumflex" unicode="&#x11d;" horiz-adv-x="537" 
d="M54 318q0 35 13.5 65t38.5 52t61.5 34.5t81.5 12.5q31 0 55 -5.5t47 -14.5q16 -7 36.5 -9.5t35.5 -2.5q13 0 29.5 3t31.5 8q18 4 35 11l-4 -82q-8 1 -20.5 5t-27.5 8.5t-31 9.5t-29 8l-2 -2q8 -6 15 -16.5t12 -23.5t8 -26t3 -23q0 -78 -51 -125.5t-145 -47.5q-30 0 -57 6
q-17 -8 -31.5 -19.5t-14.5 -28.5q0 -20 15 -26.5t45 -6.5h136q83 0 123.5 -25t40.5 -88q0 -44 -22.5 -75.5t-58.5 -52t-82 -30t-93 -9.5q-115 0 -166.5 30t-51.5 82q0 21 9.5 37.5t26 28t38.5 19t47 10.5v4q-37 5 -57 26.5t-20 47.5q0 35 23 55.5t57 31.5v3
q-51 17 -75.5 55.5t-24.5 85.5zM191 -6q-47 -5 -67.5 -24t-20.5 -48q0 -36 33.5 -57t111.5 -21q85 0 131 25.5t46 72.5q0 19 -5 30t-15 15.5t-25 5.5t-34 1h-155zM145 321q0 -64 26.5 -93.5t77.5 -29.5t77 29.5t26 93.5t-29.5 93t-73.5 29t-74 -29t-30 -93zM247 644
q-17 -15 -30 -27.5t-25 -24.5t-24.5 -25.5t-30.5 -31.5l-32 24q18 22 34 40.5t30 36t28 34t29 36.5h44q15 -20 28 -35.5t26.5 -32t29.5 -35.5t37 -44l-32 -24q-32 32 -57 56t-54 53h-1z" />
    <glyph glyph-name="Gbreve" unicode="&#x11e;" horiz-adv-x="702" 
d="M404 307h256q-2 -35 -3 -72t-1 -70.5t0.5 -60t0.5 -41.5q-51 -29 -121.5 -52t-149.5 -23q-75 0 -138 26t-108 73t-70 111t-25 141q0 84 27.5 150.5t75 112.5t111 70t134.5 24q50 0 88 -8t67.5 -20.5t51 -28t38.5 -31.5l-51 -62q-18 21 -36 39.5t-41.5 31.5t-54 20.5
t-72.5 7.5q-45 0 -86.5 -17t-73 -52.5t-50 -90.5t-18.5 -132q0 -74 18 -132.5t49 -98.5t73.5 -61t91.5 -21q61 0 103.5 13.5t67.5 30.5v29v44t-0.5 49t-0.5 43q-20 0 -46 -0.5t-49.5 -1t-40 -1t-17.5 -0.5v61zM383 780q44 0 64 20t28 62l45 -9q-8 -39 -22 -63t-33 -37.5
t-40 -18.5t-42 -5t-42.5 5t-40 18.5t-33.5 37.5t-22 63l46 9q8 -42 28 -62t64 -20z" />
    <glyph glyph-name="gbreve" unicode="&#x11f;" horiz-adv-x="537" 
d="M54 318q0 35 13.5 65t38.5 52t61.5 34.5t81.5 12.5q31 0 55 -5.5t47 -14.5q16 -7 36.5 -9.5t35.5 -2.5q13 0 29.5 3t31.5 8q18 4 35 11l-4 -82q-8 1 -20.5 5t-27.5 8.5t-31 9.5t-29 8l-2 -2q8 -6 15 -16.5t12 -23.5t8 -26t3 -23q0 -78 -51 -125.5t-145 -47.5q-30 0 -57 6
q-17 -8 -31.5 -19.5t-14.5 -28.5q0 -20 15 -26.5t45 -6.5h136q83 0 123.5 -25t40.5 -88q0 -44 -22.5 -75.5t-58.5 -52t-82 -30t-93 -9.5q-115 0 -166.5 30t-51.5 82q0 21 9.5 37.5t26 28t38.5 19t47 10.5v4q-37 5 -57 26.5t-20 47.5q0 35 23 55.5t57 31.5v3
q-51 17 -75.5 55.5t-24.5 85.5zM191 -6q-47 -5 -67.5 -24t-20.5 -48q0 -36 33.5 -57t111.5 -21q85 0 131 25.5t46 72.5q0 19 -5 30t-15 15.5t-25 5.5t-34 1h-155zM145 321q0 -64 26.5 -93.5t77.5 -29.5t77 29.5t26 93.5t-29.5 93t-73.5 29t-74 -29t-30 -93zM253 587
q32 0 54.5 17.5t28.5 56.5l44 -9q-7 -34 -19.5 -55.5t-29 -34t-36.5 -17t-42 -4.5t-42 4.5t-36.5 17t-29 34t-19.5 55.5l44 9q6 -39 28.5 -56.5t54.5 -17.5z" />
    <glyph glyph-name="Gdotaccent" unicode="&#x120;" horiz-adv-x="702" 
d="M404 307h256q-2 -35 -3 -72t-1 -70.5t0.5 -60t0.5 -41.5q-51 -29 -121.5 -52t-149.5 -23q-75 0 -138 26t-108 73t-70 111t-25 141q0 84 27.5 150.5t75 112.5t111 70t134.5 24q50 0 88 -8t67.5 -20.5t51 -28t38.5 -31.5l-51 -62q-18 21 -36 39.5t-41.5 31.5t-54 20.5
t-72.5 7.5q-45 0 -86.5 -17t-73 -52.5t-50 -90.5t-18.5 -132q0 -74 18 -132.5t49 -98.5t73.5 -61t91.5 -21q61 0 103.5 13.5t67.5 30.5v29v44t-0.5 49t-0.5 43q-20 0 -46 -0.5t-49.5 -1t-40 -1t-17.5 -0.5v61zM334 788q0 23 16 40t39 17t39.5 -17t16.5 -40t-16.5 -39
t-39.5 -16t-39 16t-16 39z" />
    <glyph glyph-name="gdotaccent" unicode="&#x121;" horiz-adv-x="537" 
d="M54 318q0 35 13.5 65t38.5 52t61.5 34.5t81.5 12.5q31 0 55 -5.5t47 -14.5q16 -7 36.5 -9.5t35.5 -2.5q13 0 29.5 3t31.5 8q18 4 35 11l-4 -82q-8 1 -20.5 5t-27.5 8.5t-31 9.5t-29 8l-2 -2q8 -6 15 -16.5t12 -23.5t8 -26t3 -23q0 -78 -51 -125.5t-145 -47.5q-30 0 -57 6
q-17 -8 -31.5 -19.5t-14.5 -28.5q0 -20 15 -26.5t45 -6.5h136q83 0 123.5 -25t40.5 -88q0 -44 -22.5 -75.5t-58.5 -52t-82 -30t-93 -9.5q-115 0 -166.5 30t-51.5 82q0 21 9.5 37.5t26 28t38.5 19t47 10.5v4q-37 5 -57 26.5t-20 47.5q0 35 23 55.5t57 31.5v3
q-51 17 -75.5 55.5t-24.5 85.5zM191 -6q-47 -5 -67.5 -24t-20.5 -48q0 -36 33.5 -57t111.5 -21q85 0 131 25.5t46 72.5q0 19 -5 30t-15 15.5t-25 5.5t-34 1h-155zM145 321q0 -64 26.5 -93.5t77.5 -29.5t77 29.5t26 93.5t-29.5 93t-73.5 29t-74 -29t-30 -93zM191 607
q0 23 16.5 39.5t39.5 16.5t39.5 -16.5t16.5 -39.5t-16.5 -39t-39.5 -16t-39.5 16t-16.5 39z" />
    <glyph glyph-name="Gcommaaccent" unicode="&#x122;" horiz-adv-x="702" 
d="M404 307h256q-2 -35 -3 -72t-1 -70.5t0.5 -60t0.5 -41.5q-51 -29 -121.5 -52t-149.5 -23q-75 0 -138 26t-108 73t-70 111t-25 141q0 84 27.5 150.5t75 112.5t111 70t134.5 24q50 0 88 -8t67.5 -20.5t51 -28t38.5 -31.5l-51 -62q-18 21 -36 39.5t-41.5 31.5t-54 20.5
t-72.5 7.5q-45 0 -86.5 -17t-73 -52.5t-50 -90.5t-18.5 -132q0 -74 18 -132.5t49 -98.5t73.5 -61t91.5 -21q61 0 103.5 13.5t67.5 30.5v29v44t-0.5 49t-0.5 43q-20 0 -46 -0.5t-49.5 -1t-40 -1t-17.5 -0.5v61zM436 -40q12 -15 19 -35t7 -41q0 -29 -23.5 -54.5t-56.5 -43.5
l-19 25q15 8 25 26.5t10 41.5q0 12 -6.5 29t-17.5 28z" />
    <glyph glyph-name="gcommaaccent" unicode="&#x123;" horiz-adv-x="537" 
d="M54 318q0 35 13.5 65t38.5 52t61.5 34.5t81.5 12.5q31 0 55 -5.5t47 -14.5q16 -7 36.5 -9.5t35.5 -2.5q13 0 29.5 3t31.5 8q18 4 35 11l-4 -82q-8 1 -20.5 5t-27.5 8.5t-31 9.5t-29 8l-2 -2q8 -6 15 -16.5t12 -23.5t8 -26t3 -23q0 -78 -51 -125.5t-145 -47.5q-30 0 -57 6
q-17 -8 -31.5 -19.5t-14.5 -28.5q0 -20 15 -26.5t45 -6.5h136q83 0 123.5 -25t40.5 -88q0 -44 -22.5 -75.5t-58.5 -52t-82 -30t-93 -9.5q-115 0 -166.5 30t-51.5 82q0 21 9.5 37.5t26 28t38.5 19t47 10.5v4q-37 5 -57 26.5t-20 47.5q0 35 23 55.5t57 31.5v3
q-51 17 -75.5 55.5t-24.5 85.5zM191 -6q-47 -5 -67.5 -24t-20.5 -48q0 -36 33.5 -57t111.5 -21q85 0 131 25.5t46 72.5q0 19 -5 30t-15 15.5t-25 5.5t-34 1h-155zM145 321q0 -64 26.5 -93.5t77.5 -29.5t77 29.5t26 93.5t-29.5 93t-73.5 29t-74 -29t-30 -93zM228 535
q-11 16 -18.5 36t-7.5 41q0 29 19 54.5t52 43.5l19 -26q-15 -8 -24 -23.5t-9 -38.5q0 -12 5.5 -31.5t16.5 -30.5z" />
    <glyph glyph-name="Hcircumflex" unicode="&#x124;" horiz-adv-x="713" 
d="M80 0q2 101 2.5 185t0.5 157t-0.5 157.5t-2.5 184.5h103q-1 -85 -1.5 -162.5t-0.5 -139.5q25 0 45 -0.5l40 -1t42 -1t52 -0.5h31.5t52.5 0.5t53 0.5h34v141.5t-2 162.5h104q-2 -102 -3 -185.5t-1 -156.5t0.5 -157.5t3.5 -184.5h-104q1 91 1.5 174t0.5 152q-52 0 -90 0.5
t-79 0.5h-83.5t-97.5 -1v-151.5t2 -174.5h-103zM382 872q14 -15 27 -26.5t27.5 -24.5t32 -29t41.5 -39l-30 -31q-20 15 -35 26.5t-28.5 21l-27 19t-29.5 21.5h-2q-17 -12 -29.5 -21t-26 -18.5t-29 -21t-36.5 -27.5l-29 31q24 23 41 39t31 29t27.5 24.5t28.5 26.5h46z" />
    <glyph glyph-name="hcircumflex" unicode="&#x125;" horiz-adv-x="537" 
d="M67 236v65.5t-0.5 85.5t-1 94t-1 91t-0.5 76.5v49.5l96 19v-28t-0.5 -55t-0.5 -68.5t-0.5 -68t-0.5 -53.5v-26q11 8 22 15.5t23 15.5q10 6 23 12t27.5 10.5t29.5 7.5t28 3q91 0 128 -42.5t37 -127.5q0 -14 -0.5 -36.5t-0.5 -39.5q0 -39 0.5 -68.5t0.5 -56t0.5 -53
t0.5 -58.5h-98q0 32 0.5 58.5l1 53t1 56t0.5 68.5q0 27 -0.5 46.5t-0.5 39.5q0 100 -105 100q-29 0 -60 -12.5t-56 -30.5q-1 -31 -1 -64.5v-78.5q0 -39 0.5 -68.5t1 -56l1 -53t0.5 -58.5h-98q0 32 0.5 58.5l1 53t1 56t0.5 68.5zM293 900q15 -15 28 -27t27 -24.5t31.5 -28.5
t41.5 -40l-29 -30q-20 15 -35 26t-28.5 21t-27 19t-30.5 21h-1q-17 -11 -30 -20t-26 -18.5t-28.5 -21t-36.5 -27.5l-29 30q24 24 41 40t31 28.5t27 24.5t28 27h46z" />
    <glyph glyph-name="Hbar" unicode="&#x126;" horiz-adv-x="765" 
d="M556 561q0 30 -0.5 60.5t-0.5 62.5h104q-1 -33 -1.5 -63t-0.5 -59h99l-15 -52h-85q-1 -46 -1 -87.5v-80.5q0 -73 0.5 -157.5t3.5 -184.5h-104q1 91 1.5 174t0.5 152q-52 0 -90 0.5t-79 0.5h-83.5t-97.5 -1v-151.5t2 -174.5h-103q2 101 2.5 185t0.5 157v80t-1 88h-99
l16 52q24 0 43.5 -0.5t39.5 -0.5q-1 29 -1.5 59.5t-0.5 63.5h103l-2 -123l182 -1zM385 379h32t53 0.5t53 0.5h34v131h-172h-53t-43 -0.5t-40 -0.5h-42v-128q24 0 44 -0.5l40 -1t42 -1t52 -0.5z" />
    <glyph glyph-name="hbar" unicode="&#x127;" horiz-adv-x="537" 
d="M67 236q0 25 -0.5 63t-1 82.5t-1 91t-0.5 88.5q-28 -1 -53 -1.5t-37 -0.5l6 47q13 0 35.5 -0.5t48.5 -1.5v92l96 18v-37t-1 -73q16 0 43 0.5t54.5 0.5t50 0.5t30.5 0.5l-4 -47h-28.5t-49.5 0.5l-54 1t-42 0.5q0 -26 -0.5 -50.5t-0.5 -44v-32.5v-16q11 8 22 15.5t23 15.5
q10 6 23 12t27.5 10.5t29.5 7.5t28 3q91 0 128 -42.5t37 -127.5q0 -14 -0.5 -36.5t-0.5 -39.5q0 -39 0.5 -68.5t0.5 -56t0.5 -53t0.5 -58.5h-98q0 32 0.5 58.5l1 53t1 56t0.5 68.5q0 27 -0.5 46.5t-0.5 39.5q0 100 -105 100q-29 0 -60 -12.5t-56 -30.5q-1 -31 -1 -64.5
v-78.5q0 -39 0.5 -68.5t1 -56l1 -53t0.5 -58.5h-98q0 32 0.5 58.5l1 53t1 56t0.5 68.5z" />
    <glyph glyph-name="Itilde" unicode="&#x128;" horiz-adv-x="263" 
d="M80 0q2 101 2.5 185t0.5 157t-0.5 157.5t-2.5 184.5h104q-2 -102 -2.5 -185.5t-0.5 -156.5t0.5 -157.5t2.5 -184.5h-104zM107 753q-30 11 -42.5 16t-26.5 5q-16 0 -26.5 -9.5t-5.5 -36.5l-48 17q11 39 32 60t66 21q16 0 31.5 -4.5t47.5 -15.5q28 -10 43.5 -16.5
t29.5 -6.5q16 0 26.5 7.5t8.5 37.5l48 -17q-11 -46 -32.5 -64.5t-66.5 -18.5q-24 0 -41.5 7t-43.5 18z" />
    <glyph glyph-name="itilde" unicode="&#x129;" horiz-adv-x="240" 
d="M173 477q0 -58 -1.5 -119t-1.5 -122q0 -39 0.5 -68.5t1 -56l1 -53t0.5 -58.5h-98q0 32 0.5 58.5l1 53t1 56t0.5 68.5t-0.5 69t-1 56t-1 49.5t-0.5 47.5zM191 572q-15 0 -32 7.5t-34 16.5t-32.5 16.5t-29.5 7.5q-8 0 -16.5 -1t-15 -5.5t-10 -14.5t-0.5 -28l-48 18
q11 46 36 62t63 16q20 0 39 -7.5t36 -16.5t31 -16.5t23 -7.5q16 0 25.5 10t4.5 46l48 -17q-11 -46 -30.5 -66t-57.5 -20z" />
    <glyph glyph-name="Imacron" unicode="&#x12a;" horiz-adv-x="263" 
d="M80 0q2 101 2.5 185t0.5 157t-0.5 157.5t-2.5 184.5h104q-2 -102 -2.5 -185.5t-0.5 -156.5t0.5 -157.5t2.5 -184.5h-104zM132 806h34t29 0.5t31 0.5h41l-7 -49q-24 0 -39 0.5t-27.5 0.5h-26.5h-36h-34.5t-28.5 -0.5t-31 -0.5h-41l7 49q24 0 39 -0.5t27.5 -0.5h26h36.5z
" />
    <glyph glyph-name="imacron" unicode="&#x12b;" horiz-adv-x="240" 
d="M173 477q0 -58 -1.5 -119t-1.5 -122q0 -39 0.5 -68.5t1 -56l1 -53t0.5 -58.5h-98q0 32 0.5 58.5l1 53t1 56t0.5 68.5t-0.5 69t-1 56t-1 49.5t-0.5 47.5zM125 642h34t29 0.5t30.5 0.5h40.5l-6 -49q-24 0 -39 0.5t-27.5 0.5h-26.5h-37h-33.5t-29 -0.5t-31 -0.5h-40.5l6 49
q25 0 39.5 -0.5t27 -0.5h26.5h37z" />
    <glyph glyph-name="Ibreve" unicode="&#x12c;" horiz-adv-x="263" 
d="M80 0q2 101 2.5 185t0.5 157t-0.5 157.5t-2.5 184.5h104q-2 -102 -2.5 -185.5t-0.5 -156.5t0.5 -157.5t2.5 -184.5h-104zM131 780q44 0 64 20t28 62l45 -9q-8 -39 -22.5 -63t-33 -37.5t-39.5 -18.5t-42 -5t-42.5 5t-40 18.5t-33.5 37.5t-22 63l46 9q8 -42 28 -62t64 -20z
" />
    <glyph glyph-name="ibreve" unicode="&#x12d;" horiz-adv-x="240" 
d="M173 477q0 -58 -1.5 -119t-1.5 -122q0 -39 0.5 -68.5t1 -56l1 -53t0.5 -58.5h-98q0 32 0.5 58.5l1 53t1 56t0.5 68.5t-0.5 69t-1 56t-1 49.5t-0.5 47.5zM124 587q32 0 55 17.5t28 56.5l44 -9q-7 -34 -19.5 -55.5t-29 -34t-36.5 -17t-42 -4.5t-42 4.5t-36.5 17t-29 34
t-19.5 55.5l44 9q6 -39 28.5 -56.5t54.5 -17.5z" />
    <glyph glyph-name="Iogonek" unicode="&#x12e;" horiz-adv-x="263" 
d="M117 0q-14 -18 -26 -40.5t-12 -56.5q0 -23 14 -34.5t31 -11.5t31.5 10t22.5 24l18 -36q-27 -27 -92 -27q-24 0 -41.5 7t-29 17.5t-16.5 23.5t-5 26q0 15 6.5 30t17 28.5t22 24.5t22.5 19q2 100 2.5 183t0.5 155q0 73 -0.5 157.5t-2.5 184.5h104q-2 -102 -2.5 -185.5
t-0.5 -156.5t0.5 -157.5t2.5 -184.5h-67z" />
    <glyph glyph-name="iogonek" unicode="&#x12f;" horiz-adv-x="240" 
d="M173 477q0 -58 -1.5 -119t-1.5 -122q0 -39 0.5 -68.5t1 -56l1 -53t0.5 -58.5h-56q-14 -18 -26 -40.5t-12 -56.5q0 -23 14 -34.5t31 -11.5t31.5 10t22.5 24l18 -36q-27 -27 -92 -27q-24 0 -41.5 7t-29 17.5t-16.5 23.5t-5 26q0 14 6 28t15.5 26.5t20.5 24t21 19.5
q0 32 0.5 58.5l1 53t1 56t0.5 68.5t-0.5 69t-1 56t-1 49.5t-0.5 47.5zM64 653q0 23 16.5 39.5t39.5 16.5t39.5 -16.5t16.5 -39.5t-16.5 -39t-39.5 -16t-39.5 16t-16.5 39z" />
    <glyph glyph-name="Idotaccent" unicode="&#x130;" horiz-adv-x="263" 
d="M80 0q2 101 2.5 185t0.5 157t-0.5 157.5t-2.5 184.5h104q-2 -102 -2.5 -185.5t-0.5 -156.5t0.5 -157.5t2.5 -184.5h-104zM76 788q0 23 16.5 40t39.5 17t39.5 -17t16.5 -40t-16.5 -39t-39.5 -16t-39.5 16t-16.5 39z" />
    <glyph glyph-name="dotlessi" unicode="&#x131;" horiz-adv-x="240" 
d="M173 477q0 -58 -1.5 -119t-1.5 -122q0 -39 0.5 -68.5t1 -56l1 -53t0.5 -58.5h-98q0 32 0.5 58.5l1 53t1 56t0.5 68.5t-0.5 69t-1 56t-1 49.5t-0.5 47.5l98 19v0z" />
    <glyph glyph-name="IJ" unicode="&#x132;" horiz-adv-x="526" 
d="M80 0q2 101 2.5 185t0.5 157t-0.5 157.5t-2.5 184.5h104q-2 -102 -2.5 -185.5t-0.5 -156.5t0.5 -157.5t2.5 -184.5h-104zM339 -4q0 25 0.5 66t0.5 83.5v79v53.5v85v104t-0.5 111t-1.5 106h108q-2 -102 -2.5 -195t-0.5 -165v-29v-46.5t0.5 -56t0.5 -57.5v-51v-36
q0 -73 -22 -116t-53 -66t-65 -30t-58 -7q-33 0 -65 6.5t-50 19.5l26 70q20 -15 45.5 -25t53.5 -10q49 0 66 26t17 80z" />
    <glyph glyph-name="ij" unicode="&#x133;" horiz-adv-x="462" 
d="M173 477q0 -58 -1.5 -119t-1.5 -122q0 -39 0.5 -68.5t1 -56l1 -53t0.5 -58.5h-98q0 32 0.5 58.5l1 53t1 56t0.5 68.5t-0.5 69t-1 56t-1 49.5t-0.5 47.5zM64 653q0 23 16.5 39.5t39.5 16.5t39.5 -16.5t16.5 -39.5t-16.5 -39t-39.5 -16t-39.5 16t-16.5 39zM297 -45
q0 26 0.5 58.5t1 69t1 75.5t0.5 78t-0.5 69t-1 56t-1 49.5t-0.5 47.5l98 19q0 -58 -1.5 -119t-1.5 -122v-70t0.5 -57.5t0.5 -49v-43.5q0 -73 -18.5 -115t-46 -63t-59 -26.5t-56.5 -5.5q-29 0 -58.5 7t-46.5 15l22 63q12 -10 28 -17q14 -7 31.5 -12t38.5 -5q41 0 55 26.5
t14 71.5zM286 653q0 23 16 39.5t39 16.5t39.5 -16.5t16.5 -39.5t-16.5 -39t-39.5 -16t-39 16t-16 39z" />
    <glyph glyph-name="Jcircumflex" unicode="&#x134;" horiz-adv-x="402" 
d="M233 138q0 23 0.5 51t0.5 56v53.5v43.5q0 73 -0.5 157.5t-2.5 184.5h100q-1 -51 -1.5 -90t-1 -72.5t-0.5 -65.5v-68v-36.5t0.5 -48t0.5 -51.5v-45q0 -72 -20 -115t-49.5 -66.5t-62.5 -30.5t-59 -7q-32 0 -67 7t-54 20l29 69q20 -16 45 -30t57 -14q20 0 36 3t26.5 13.5
t16.5 30t6 51.5zM307 872q15 -15 28 -26.5t27 -24.5t31.5 -29t41.5 -39l-29 -31q-21 15 -36 26.5t-28.5 21l-27 19t-29.5 21.5h-2q-17 -12 -29.5 -21t-25.5 -18.5t-28.5 -21t-36.5 -27.5l-30 31q24 23 41.5 39t31.5 29t27 24.5t28 26.5h46z" />
    <glyph glyph-name="jcircumflex" unicode="&#x135;" horiz-adv-x="240" 
d="M75 -45q0 26 0.5 58.5t1 69t1 75.5t0.5 78t-0.5 69t-1 56t-1 49.5t-0.5 47.5l98 19q0 -58 -1.5 -119t-1.5 -122v-70t0.5 -57.5t0.5 -49v-43.5q0 -73 -18.5 -115t-46 -63t-59 -26.5t-56.5 -5.5q-29 0 -58.5 7t-46.5 15l22 63q12 -10 28 -17q14 -7 31.5 -12t38.5 -5
q42 0 55.5 26.5t13.5 71.5zM121 644q-17 -15 -29.5 -27.5l-24.5 -24.5t-24.5 -25.5t-30.5 -31.5l-32 24q18 22 34 40.5t30 36t28 34t29 36.5h43q15 -20 28.5 -35.5t27 -32t29.5 -35.5t37 -44l-32 -24q-32 32 -57 56t-54 53h-2z" />
    <glyph glyph-name="Kcommaaccent" unicode="&#x136;" horiz-adv-x="599" 
d="M80 0q2 101 2.5 185t0.5 157t-0.5 157.5t-2.5 184.5h103q-1 -102 -1.5 -185.5t-0.5 -156.5v-157.5t2 -184.5h-103zM562 684q-75 -92 -142 -167t-128 -148q29 -40 64 -86t72.5 -94t75.5 -96t73 -93h-122l-64.5 86t-63 83.5t-65 83t-69.5 85.5v5q48 53 85.5 96.5t70.5 83
t63.5 78.5t64.5 83h85zM357 -21q12 -15 19 -35.5t7 -41.5q0 -29 -23.5 -54.5t-56.5 -43.5l-19 26q15 8 25 26.5t10 41.5q0 12 -6.5 28.5t-17.5 27.5z" />
    <glyph glyph-name="kcommaaccent" unicode="&#x137;" horiz-adv-x="489" 
d="M67 375q0 39 -0.5 85t-1 90.5t-1 83.5t-0.5 63l98 19q0 -29 -0.5 -74.5t-1 -94.5t-1 -95t-0.5 -77q0 -26 0.5 -72.5t1 -100.5l1 -108t0.5 -94h-98q0 32 0.5 80.5t1 101t1 103.5t0.5 90zM362 0q-26 35 -48.5 64.5l-45 59t-47.5 61t-55 70.5q28 30 48.5 52t41.5 44.5
t46.5 50t63.5 68.5h82q-38 -36 -64.5 -62t-47.5 -47l-39.5 -39.5t-40.5 -39.5q51 -66 109 -140t121 -142h-124zM285 -21q12 -15 19 -35.5t7 -41.5q0 -29 -23.5 -54.5t-56.5 -43.5l-18 26q14 8 24 26.5t10 41.5q0 12 -6 28.5t-17 27.5z" />
    <glyph glyph-name="Lacute" unicode="&#x139;" horiz-adv-x="528" 
d="M178 340v-71.5v-67t0.5 -70t1.5 -78.5h33q43 0 85 0.5t80 1.5t69 2t52 2l-7 -59h-413q2 101 2.5 185t0.5 157t-0.5 157.5t-2.5 184.5h102q-1 -44 -1.5 -83.5t-1 -79.5t-0.5 -84v-97zM202 766q41 38 76.5 72t62.5 60l54 -59q-36 -23 -76 -50.5t-83 -56.5z" />
    <glyph glyph-name="lacute" unicode="&#x13a;" horiz-adv-x="226" 
d="M67 375q0 39 -0.5 85t-1 90.5t-1 83.5t-0.5 63l98 19q0 -29 -0.5 -74.5t-1 -94.5t-1 -95t-0.5 -77q0 -39 0.5 -90t1 -103.5t1 -101t0.5 -80.5h-98q0 32 0.5 80.5t1 101t1 103.5t0.5 90zM27 766q40 38 76 72t63 60l53 -59q-36 -23 -75.5 -50.5t-83.5 -56.5z" />
    <glyph glyph-name="Lcommaaccent" unicode="&#x13b;" horiz-adv-x="528" 
d="M178 340v-71.5v-67t0.5 -70t1.5 -78.5h33q43 0 85 0.5t80 1.5t69 2t52 2l-7 -59h-413q2 101 2.5 185t0.5 157t-0.5 157.5t-2.5 184.5h102q-1 -44 -1.5 -83.5t-1 -79.5t-0.5 -84v-97zM317 -21q12 -15 19 -35.5t7 -41.5q0 -29 -23.5 -54.5t-56.5 -43.5l-18 26
q14 8 24.5 26.5t10.5 41.5q0 12 -6.5 28.5t-17.5 27.5z" />
    <glyph glyph-name="lcommaaccent" unicode="&#x13c;" horiz-adv-x="226" 
d="M67 375q0 39 -0.5 85t-1 90.5t-1 83.5t-0.5 63l98 19q0 -29 -0.5 -74.5t-1 -94.5t-1 -95t-0.5 -77q0 -39 0.5 -90t1 -103.5t1 -101t0.5 -80.5h-98q0 32 0.5 80.5t1 101t1 103.5t0.5 90zM142 -21q11 -15 18 -35.5t7 -41.5q0 -29 -23 -54.5t-57 -43.5l-18 26
q14 8 24.5 26.5t10.5 41.5q0 12 -6.5 28.5t-17.5 27.5z" />
    <glyph glyph-name="Lcaron" unicode="&#x13d;" horiz-adv-x="528" 
d="M178 340v-71.5v-67t0.5 -70t1.5 -78.5h33q43 0 85 0.5t80 1.5t69 2t52 2l-7 -59h-413q2 101 2.5 185t0.5 157t-0.5 157.5t-2.5 184.5h102q-1 -44 -1.5 -83.5t-1 -79.5t-0.5 -84v-97zM326 496q4 29 7 49.5t5.5 39.5t5.5 39.5t8 49.5h76q-11 -26 -19 -48t-15.5 -43l-15 -42
t-16.5 -45h-36z" />
    <glyph glyph-name="lcaron" unicode="&#x13e;" horiz-adv-x="315" 
d="M67 375q0 39 -0.5 85t-1 90.5t-1 83.5t-0.5 63l98 19q0 -29 -0.5 -74.5t-1 -94.5t-1 -95t-0.5 -77q0 -39 0.5 -90t1 -103.5t1 -101t0.5 -80.5h-98q0 32 0.5 80.5t1 101t1 103.5t0.5 90zM213 516q4 29 7 49.5t5.5 40t5.5 40t8 49.5h76q-11 -27 -19 -49t-15.5 -43l-15 -42
t-16.5 -45h-36z" />
    <glyph glyph-name="Ldot" unicode="&#x13f;" horiz-adv-x="528" 
d="M178 340v-71.5v-67t0.5 -70t1.5 -78.5h33q43 0 85 0.5t80 1.5t69 2t52 2l-7 -59h-413q2 101 2.5 185t0.5 157t-0.5 157.5t-2.5 184.5h102q-1 -44 -1.5 -83.5t-1 -79.5t-0.5 -84v-97zM339 374q0 23 17 40t40 17t40 -17t17 -40t-17 -39.5t-40 -16.5t-40 16.5t-17 39.5z" />
    <glyph glyph-name="ldot" unicode="&#x140;" horiz-adv-x="299" 
d="M67 375q0 39 -0.5 85t-1 90.5t-1 83.5t-0.5 63l98 19q0 -29 -0.5 -74.5t-1 -94.5t-1 -95t-0.5 -77q0 -39 0.5 -90t1 -103.5t1 -101t0.5 -80.5h-98q0 32 0.5 80.5t1 101t1 103.5t0.5 90zM206 363q0 23 16.5 40t39.5 17t40 -17t17 -40t-17 -39.5t-40 -16.5t-39.5 16.5
t-16.5 39.5z" />
    <glyph glyph-name="Lslash" unicode="&#x141;" horiz-adv-x="553" 
d="M401 374q-17 -6 -42.5 -15.5t-55.5 -20t-62.5 -22.5t-62.5 -23v-114t2 -126h33q43 0 85 0.5t80 1.5t69 2t52 2l-7 -59h-413l3 259l-73 -26l-15 54q17 5 40.5 13t47.5 16q0 92 -0.5 180t-2.5 188h102q-1 -43 -1.5 -82l-1 -78t-0.5 -81.5v-93.5q28 10 59 21t59 21.5
t51.5 20t38.5 15.5l15 -53v0z" />
    <glyph glyph-name="lslash" unicode="&#x142;" horiz-adv-x="285" 
d="M99 385q0 49 -0.5 95.5t-0.5 88t-0.5 76t-0.5 58.5l97 18q0 -26 -0.5 -61t-1 -73.5l-1 -77t-0.5 -72.5l74 40l20 -46l-94 -54q0 -40 0.5 -93t1 -106.5t1 -101t0.5 -76.5h-97l2 324q-15 -9 -30 -18.5t-38 -24.5l-22 47q16 9 27.5 16t21.5 13.5t19.5 13t21.5 14.5z" />
    <glyph glyph-name="Nacute" unicode="&#x143;" horiz-adv-x="722" 
d="M566 0q-38 49 -87 115.5t-103.5 141.5t-111.5 153t-112 151v-213q0 -74 0.5 -161t2.5 -187h-72q2 101 3 193t1 187q0 54 -0.5 97.5t-2 80t-3 67t-2.5 59.5h117q51 -74 96 -138.5t90 -125.5t91.5 -122.5t100.5 -130.5q1 52 1 98.5v88.5q0 74 -0.5 152t-3.5 178h71
q-2 -101 -2.5 -180.5t-0.5 -152.5v-162t1 -189h-74zM311 757q40 38 76 72t63 60l53 -59q-36 -23 -75.5 -50.5t-83.5 -56.5z" />
    <glyph glyph-name="nacute" unicode="&#x144;" horiz-adv-x="537" 
d="M67 236q0 39 -0.5 68t-1 54t-1 47t-0.5 47l94 18q0 -14 -0.5 -27.5t-0.5 -24.5q10 8 21.5 15.5t24.5 15.5q26 14 54 23.5t54 9.5q91 0 128 -42.5t37 -127.5q0 -14 -0.5 -36.5t-0.5 -39.5q0 -39 0.5 -68.5t0.5 -56t0.5 -53t0.5 -58.5h-98q0 32 0.5 58.5l1 53t1 56
t0.5 68.5q0 27 -0.5 46.5t-0.5 39.5q0 100 -105 100q-29 0 -60 -12.5t-56 -30.5q-1 -31 -1 -64.5v-78.5q0 -39 0.5 -68.5t1 -56l1 -53t0.5 -58.5h-98q0 32 0.5 58.5l1 53t1 56t0.5 68.5zM220 538q16 54 28.5 91.5t22.5 74.5l76 -25q-22 -40 -43 -76t-44 -78z" />
    <glyph glyph-name="Ncommaaccent" unicode="&#x145;" horiz-adv-x="722" 
d="M566 0q-38 49 -87 115.5t-103.5 141.5t-111.5 153t-112 151v-213q0 -74 0.5 -161t2.5 -187h-72q2 101 3 193t1 187q0 54 -0.5 97.5t-2 80t-3 67t-2.5 59.5h117q51 -74 96 -138.5t90 -125.5t91.5 -122.5t100.5 -130.5q1 52 1 98.5v88.5q0 74 -0.5 152t-3.5 178h71
q-2 -101 -2.5 -180.5t-0.5 -152.5v-162t1 -189h-74zM389 -21q12 -15 19 -35.5t7 -41.5q0 -29 -23.5 -54.5t-56.5 -43.5l-19 26q15 8 25 26.5t10 41.5q0 12 -6 28.5t-17 27.5z" />
    <glyph glyph-name="ncommaaccent" unicode="&#x146;" horiz-adv-x="537" 
d="M67 236q0 39 -0.5 68t-1 54t-1 47t-0.5 47l94 18q0 -14 -0.5 -27.5t-0.5 -24.5q10 8 21.5 15.5t24.5 15.5q26 14 54 23.5t54 9.5q91 0 128 -42.5t37 -127.5q0 -14 -0.5 -36.5t-0.5 -39.5q0 -39 0.5 -68.5t0.5 -56t0.5 -53t0.5 -58.5h-98q0 32 0.5 58.5l1 53t1 56
t0.5 68.5q0 27 -0.5 46.5t-0.5 39.5q0 100 -105 100q-29 0 -60 -12.5t-56 -30.5q-1 -31 -1 -64.5v-78.5q0 -39 0.5 -68.5t1 -56l1 -53t0.5 -58.5h-98q0 32 0.5 58.5l1 53t1 56t0.5 68.5zM299 -21q12 -15 19 -35.5t7 -41.5q0 -29 -23.5 -54.5t-56.5 -43.5l-19 26
q15 8 25 26.5t10 41.5q0 12 -6.5 28.5t-17.5 27.5z" />
    <glyph glyph-name="Ncaron" unicode="&#x147;" horiz-adv-x="722" 
d="M566 0q-38 49 -87 115.5t-103.5 141.5t-111.5 153t-112 151v-213q0 -74 0.5 -161t2.5 -187h-72q2 101 3 193t1 187q0 54 -0.5 97.5t-2 80t-3 67t-2.5 59.5h117q51 -74 96 -138.5t90 -125.5t91.5 -122.5t100.5 -130.5q1 52 1 98.5v88.5q0 74 -0.5 152t-3.5 178h71
q-2 -101 -2.5 -180.5t-0.5 -152.5v-162t1 -189h-74zM356 722q-15 15 -27.5 27t-27 24.5t-32 28.5t-41.5 40l30 30q20 -15 35 -26t28.5 -21t26.5 -19t30 -21h2q16 11 29 20t26 18.5t28.5 20.5t36.5 28l30 -30q-24 -24 -41 -40t-31.5 -28.5t-27.5 -24.5t-28 -27h-46z" />
    <glyph glyph-name="ncaron" unicode="&#x148;" horiz-adv-x="537" 
d="M67 236q0 39 -0.5 68t-1 54t-1 47t-0.5 47l94 18q0 -14 -0.5 -27.5t-0.5 -24.5q10 8 21.5 15.5t24.5 15.5q26 14 54 23.5t54 9.5q91 0 128 -42.5t37 -127.5q0 -14 -0.5 -36.5t-0.5 -39.5q0 -39 0.5 -68.5t0.5 -56t0.5 -53t0.5 -58.5h-98q0 32 0.5 58.5l1 53t1 56
t0.5 68.5q0 27 -0.5 46.5t-0.5 39.5q0 100 -105 100q-29 0 -60 -12.5t-56 -30.5q-1 -31 -1 -64.5v-78.5q0 -39 0.5 -68.5t1 -56l1 -53t0.5 -58.5h-98q0 32 0.5 58.5l1 53t1 56t0.5 68.5zM273 596q17 16 29.5 28t24.5 24t25 25.5t31 32.5l32 -25q-18 -23 -34 -41t-30 -35
t-28.5 -34t-29.5 -36h-43q-15 19 -28 35t-26.5 32.5t-29.5 35t-37 43.5l32 25q31 -33 56.5 -57t53.5 -53h2z" />
    <glyph glyph-name="napostrophe" unicode="&#x149;" horiz-adv-x="581" 
d="M111 236q0 39 -0.5 68t-0.5 54t-0.5 47t-0.5 47l93 18q0 -14 -0.5 -27.5t-0.5 -24.5q10 8 21.5 15.5t24.5 15.5q26 14 54 23.5t54 9.5q91 0 128 -43t37 -127q0 -14 -0.5 -36.5t-0.5 -39.5q0 -39 0.5 -68.5t1 -56l1 -53t0.5 -58.5h-99q0 32 0.5 58.5l1 53t1 56t0.5 68.5
q0 27 -0.5 46.5t-0.5 39.5q0 100 -105 100q-29 0 -60 -12.5t-56 -30.5q-1 -31 -1 -64.5v-78.5q0 -39 0.5 -68.5t1 -56l1 -53t0.5 -58.5h-97q0 32 0.5 58.5t0.5 53t0.5 56t0.5 68.5zM75 706q14 -16 22 -38.5t8 -52.5q0 -52 -31.5 -96.5t-82.5 -76.5l-19 31q17 12 30 23.5
t22 25t13.5 30.5t4.5 40t-9.5 41.5t-28.5 36.5z" />
    <glyph glyph-name="Eng" unicode="&#x14a;" horiz-adv-x="722" 
d="M571 -5q-38 49 -88 115t-105.5 140.5t-113.5 152t-112 149.5v-204q0 -74 0.5 -161t2.5 -187h-72q2 101 3 193t1 187q0 54 -0.5 97.5t-2 80t-3 67t-2.5 59.5h108q47 -73 93 -138.5t93.5 -128.5t97 -126t103.5 -131q1 51 1 101.5v92.5q0 74 -0.5 152t-3.5 178h71
q-2 -101 -2.5 -179.5t-0.5 -151.5q0 -142 0.5 -225t0.5 -122q0 -68 -17 -108t-43 -60.5t-56.5 -26.5t-56.5 -6q-32 0 -62 7t-49 20l29 69q19 -16 41.5 -27.5t54.5 -11.5q41 0 65 26t25 76v31z" />
    <glyph glyph-name="eng" unicode="&#x14b;" horiz-adv-x="537" 
d="M380 -45q0 49 0.5 84.5t0.5 66t0.5 61t0.5 69.5q0 27 -0.5 46.5t-0.5 39.5q0 100 -105 100q-29 0 -60 -12.5t-56 -30.5q-1 -31 -1 -64.5v-78.5q0 -39 0.5 -68.5t1 -56l1 -53t0.5 -58.5h-98q0 32 0.5 58.5l1 53t1 56t0.5 68.5t-0.5 68t-1 54t-1 47t-0.5 47l94 18
q0 -14 -0.5 -27.5t-0.5 -24.5q10 8 21.5 15.5t24.5 15.5q26 14 54 23.5t54 9.5q91 0 128 -42.5t37 -127.5q0 -14 -0.5 -43.5t-0.5 -89.5q0 -25 0.5 -46.5t0.5 -42.5v-43v-47q-3 -67 -22 -106t-46 -58.5t-57.5 -24.5t-55.5 -5q-29 0 -58.5 7t-46.5 15l23 63q12 -10 28 -17
q14 -7 31.5 -12t38.5 -5q41 0 55 26.5t14 71.5z" />
    <glyph glyph-name="Omacron" unicode="&#x14c;" horiz-adv-x="737" 
d="M371 40q56 0 95.5 21.5t65 60.5t37.5 94t12 123q0 144 -54 224t-161 80q-56 0 -96 -21.5t-65.5 -61t-37.5 -94.5t-12 -122q0 -143 54.5 -223.5t161.5 -80.5zM366 696q69 0 128.5 -25t103.5 -70t69 -108.5t25 -140.5q0 -84 -24.5 -151.5t-68 -114.5t-102 -72.5
t-126.5 -25.5q-69 0 -128.5 25t-103.5 70t-69 108t-25 140q0 84 25 152t68 115t101.5 72.5t126.5 25.5zM369 806h33.5t29 0.5t31 0.5h40.5l-6 -49q-25 0 -39.5 0.5t-27 0.5h-26.5h-37h-33.5t-29 -0.5t-31 -0.5h-40.5l6 49q25 0 39.5 -0.5t27 -0.5h26.5h37z" />
    <glyph glyph-name="omacron" unicode="&#x14d;" horiz-adv-x="558" 
d="M279 30q36 0 63 17t45 45.5t26.5 66t8.5 79.5q0 96 -40 150t-103 54q-40 0 -67.5 -17t-44.5 -46t-24.5 -67t-7.5 -80q0 -48 12 -85.5t32 -63.5t46 -39.5t54 -13.5zM279 482q42 0 85 -14.5t78 -44.5t57 -76.5t22 -110.5q0 -60 -20 -106.5t-54 -77.5t-77.5 -47t-90.5 -16
q-42 0 -85 14t-78 44t-57 76.5t-22 110.5q0 61 20 107t54 77.5t77.5 47.5t90.5 16zM280 642h33.5t29 0.5t31 0.5h40.5l-6 -49q-25 0 -39.5 0.5t-27 0.5h-26.5h-37h-34.5t-28.5 -0.5t-30.5 -0.5h-40.5l6 49q24 0 39 -0.5t27.5 -0.5h26.5h37z" />
    <glyph glyph-name="Obreve" unicode="&#x14e;" horiz-adv-x="737" 
d="M371 40q56 0 95.5 21.5t65 60.5t37.5 94t12 123q0 144 -54 224t-161 80q-56 0 -96 -21.5t-65.5 -61t-37.5 -94.5t-12 -122q0 -143 54.5 -223.5t161.5 -80.5zM366 696q69 0 128.5 -25t103.5 -70t69 -108.5t25 -140.5q0 -84 -24.5 -151.5t-68 -114.5t-102 -72.5
t-126.5 -25.5q-69 0 -128.5 25t-103.5 70t-69 108t-25 140q0 84 25 152t68 115t101.5 72.5t126.5 25.5zM362 780q44 0 64 20t28 62l45 -9q-8 -39 -22.5 -63t-33 -37.5t-39.5 -18.5t-42 -5t-42.5 5t-40.5 18.5t-33.5 37.5t-21.5 63l46 9q8 -42 28 -62t64 -20z" />
    <glyph glyph-name="obreve" unicode="&#x14f;" horiz-adv-x="558" 
d="M279 30q36 0 63 17t45 45.5t26.5 66t8.5 79.5q0 96 -40 150t-103 54q-40 0 -67.5 -17t-44.5 -46t-24.5 -67t-7.5 -80q0 -48 12 -85.5t32 -63.5t46 -39.5t54 -13.5zM279 482q42 0 85 -14.5t78 -44.5t57 -76.5t22 -110.5q0 -60 -20 -106.5t-54 -77.5t-77.5 -47t-90.5 -16
q-42 0 -85 14t-78 44t-57 76.5t-22 110.5q0 61 20 107t54 77.5t77.5 47.5t90.5 16zM279 587q32 0 54.5 17.5t28.5 56.5l44 -9q-8 -34 -20 -55.5t-28.5 -34t-36.5 -17t-42 -4.5t-42 4.5t-36.5 17t-29 34t-19.5 55.5l44 9q5 -39 28 -56.5t55 -17.5z" />
    <glyph glyph-name="Ohungarumlaut" unicode="&#x150;" horiz-adv-x="737" 
d="M371 40q56 0 95.5 21.5t65 60.5t37.5 94t12 123q0 144 -54 224t-161 80q-56 0 -96 -21.5t-65.5 -61t-37.5 -94.5t-12 -122q0 -143 54.5 -223.5t161.5 -80.5zM366 696q69 0 128.5 -25t103.5 -70t69 -108.5t25 -140.5q0 -84 -24.5 -151.5t-68 -114.5t-102 -72.5
t-126.5 -25.5q-69 0 -128.5 25t-103.5 70t-69 108t-25 140q0 84 25 152t68 115t101.5 72.5t126.5 25.5zM217 748q40 38 76 72t63 60l47 -54q-32 -22 -73 -52.5t-85 -59.5zM383 748q40 38 76 72t63 60l47 -54q-35 -24 -75 -53.5t-84 -58.5z" />
    <glyph glyph-name="ohungarumlaut" unicode="&#x151;" horiz-adv-x="558" 
d="M279 30q36 0 63 17t45 45.5t26.5 66t8.5 79.5q0 96 -40 150t-103 54q-40 0 -67.5 -17t-44.5 -46t-24.5 -67t-7.5 -80q0 -48 12 -85.5t32 -63.5t46 -39.5t54 -13.5zM279 482q42 0 85 -14.5t78 -44.5t57 -76.5t22 -110.5q0 -60 -20 -106.5t-54 -77.5t-77.5 -47t-90.5 -16
q-42 0 -85 14t-78 44t-57 76.5t-22 110.5q0 61 20 107t54 77.5t77.5 47.5t90.5 16zM170 538q16 54 30 91.5t24 74.5l67 -25q-10 -19 -20 -36.5t-20.5 -35.5t-21.5 -38t-22 -44zM299 538q16 54 29.5 91.5t24.5 74.5l67 -25q-10 -19 -20 -36.5t-20.5 -35.5t-21.5 -38t-22 -44z
" />
    <glyph glyph-name="OE" unicode="&#x152;" horiz-adv-x="906" 
d="M791 326l-230 2v-68v-60.5t0.5 -65t1.5 -81.5l299 4l-6 -57h-467q-69 0 -131 23t-109.5 66t-75.5 104t-28 138q0 84 30.5 150t81 111t114.5 68.5t132 23.5h456l-8 -60l-288 6q0 -44 -0.5 -75.5t-1 -58.5t-0.5 -53.5v-58.5l240 2zM461 52q1 84 1.5 155.5t0.5 134.5v134.5
t-2 154.5h-59q-56 0 -101.5 -20t-78 -57t-50 -90t-17.5 -120q0 -71 16.5 -125.5t47 -91.5t74 -56t96.5 -19h72z" />
    <glyph glyph-name="oe" unicode="&#x153;" horiz-adv-x="843" 
d="M800 82q-11 -17 -28.5 -34t-40 -30t-49.5 -21t-58 -8q-57 0 -103 20t-76 62q-32 -41 -78 -61.5t-100 -20.5q-42 0 -83 14t-74 44t-53 76.5t-20 110.5q0 61 18.5 107t50 77.5t73 47.5t88.5 16q51 0 100.5 -21.5t82.5 -66.5q32 42 77 65t96 23q90 0 136 -52t46 -157h-305
v-41q0 -49 11 -84.5t30.5 -58t46 -33t56.5 -10.5q49 0 78.5 18.5t51.5 42.5zM267 30q36 0 61 14.5t40.5 41.5t22.5 65.5t7 86.5q0 96 -34 150t-97 54q-40 0 -65.5 -17t-40.5 -46t-20.5 -67t-5.5 -80q0 -48 10 -85.5t28 -63.5t42 -39.5t52 -13.5zM711 321q0 23 -3.5 45
t-13.5 39t-27.5 27.5t-45.5 10.5q-26 0 -46 -10.5t-34.5 -28.5t-24 -42t-13.5 -51z" />
    <glyph glyph-name="Racute" unicode="&#x154;" horiz-adv-x="601" 
d="M79 0q2 101 2.5 185t0.5 157t-0.5 157.5t-2.5 184.5h205q51 0 92.5 -11.5t71.5 -34.5t46 -58.5t16 -84.5q0 -54 -31.5 -99t-99.5 -69l75 -127q31 -54 64 -107t59 -93h-118q-19 34 -41.5 73t-46.5 79t-47.5 78.5t-43.5 71.5h-100v-140.5t2 -161.5h-103zM181 628
q0 -81 -0.5 -145.5t-0.5 -127.5h74q81 0 117 35t36 104q0 42 -10 68.5t-29.5 42t-48 21t-65.5 5.5q-22 0 -40.5 -1t-32.5 -2zM204 766q41 38 76.5 72t62.5 60l54 -59q-36 -23 -76 -50.5t-84 -56.5z" />
    <glyph glyph-name="racute" unicode="&#x155;" horiz-adv-x="362" 
d="M67 236q0 39 -0.5 68t-1 54t-1 47t-0.5 47l94 18q0 -17 -0.5 -32t-0.5 -29q29 26 65.5 47.5t79.5 21.5q11 0 23 -1.5t23 -6.5l-15 -76q-14 7 -30 10.5t-40 3.5q-25 0 -52 -9t-51 -29q-1 -29 -1 -60.5v-73.5q0 -39 0.5 -68.5t1 -56l1 -53t0.5 -58.5h-98q0 32 0.5 58.5
l1 53t1 56t0.5 68.5zM155 538q16 53 28.5 91t23.5 75l75 -25q-21 -40 -42.5 -76t-43.5 -78z" />
    <glyph glyph-name="Rcommaaccent" unicode="&#x156;" horiz-adv-x="601" 
d="M79 0q2 101 2.5 185t0.5 157t-0.5 157.5t-2.5 184.5h205q51 0 92.5 -11.5t71.5 -34.5t46 -58.5t16 -84.5q0 -54 -31.5 -99t-99.5 -69l75 -127q31 -54 64 -107t59 -93h-118q-19 34 -41.5 73t-46.5 79t-47.5 78.5t-43.5 71.5h-100v-140.5t2 -161.5h-103zM181 628
q0 -81 -0.5 -145.5t-0.5 -127.5h74q81 0 117 35t36 104q0 42 -10 68.5t-29.5 42t-48 21t-65.5 5.5q-22 0 -40.5 -1t-32.5 -2zM356 -21q12 -15 19 -35.5t7 -41.5q0 -29 -23.5 -54.5t-56.5 -43.5l-19 26q15 8 25 26.5t10 41.5q0 12 -6.5 28.5t-17.5 27.5z" />
    <glyph glyph-name="rcommaaccent" unicode="&#x157;" horiz-adv-x="362" 
d="M67 236q0 39 -0.5 68t-1 54t-1 47t-0.5 47l94 18q0 -17 -0.5 -32t-0.5 -29q29 26 65.5 47.5t79.5 21.5q11 0 23 -1.5t23 -6.5l-15 -76q-14 7 -30 10.5t-40 3.5q-25 0 -52 -9t-51 -29q-1 -29 -1 -60.5v-73.5q0 -39 0.5 -68.5t1 -56l1 -53t0.5 -58.5h-98q0 32 0.5 58.5
l1 53t1 56t0.5 68.5zM235 -21q11 -15 18 -35.5t7 -41.5q0 -29 -23.5 -54.5t-56.5 -43.5l-18 26q14 8 24.5 26.5t10.5 41.5q0 12 -6.5 28.5t-17.5 27.5z" />
    <glyph glyph-name="Rcaron" unicode="&#x158;" horiz-adv-x="601" 
d="M79 0q2 101 2.5 185t0.5 157t-0.5 157.5t-2.5 184.5h205q51 0 92.5 -11.5t71.5 -34.5t46 -58.5t16 -84.5q0 -54 -31.5 -99t-99.5 -69l75 -127q31 -54 64 -107t59 -93h-118q-19 34 -41.5 73t-46.5 79t-47.5 78.5t-43.5 71.5h-100v-140.5t2 -161.5h-103zM181 628
q0 -81 -0.5 -145.5t-0.5 -127.5h74q81 0 117 35t36 104q0 42 -10 68.5t-29.5 42t-48 21t-65.5 5.5q-22 0 -40.5 -1t-32.5 -2zM240 722q-15 15 -27.5 27t-27 24.5t-32 28.5t-41.5 40l30 30q20 -15 35 -26t28.5 -21t26.5 -19t30 -21h2q16 11 29 20t26.5 18.5t29 20.5t36.5 28
l29 -30q-24 -24 -41 -40t-31.5 -28.5t-27.5 -24.5t-28 -27h-46z" />
    <glyph glyph-name="rcaron" unicode="&#x159;" horiz-adv-x="362" 
d="M67 236q0 39 -0.5 68t-1 54t-1 47t-0.5 47l94 18q0 -17 -0.5 -32t-0.5 -29q29 26 65.5 47.5t79.5 21.5q11 0 23 -1.5t23 -6.5l-15 -76q-14 7 -30 10.5t-40 3.5q-25 0 -52 -9t-51 -29q-1 -29 -1 -60.5v-73.5q0 -39 0.5 -68.5t1 -56l1 -53t0.5 -58.5h-98q0 32 0.5 58.5
l1 53t1 56t0.5 68.5zM209 596q17 16 29.5 28t24.5 24t24.5 25.5t30.5 32.5l33 -25q-18 -23 -34 -41t-30 -35t-28.5 -34t-29.5 -36h-43q-15 19 -28 35t-27 32.5t-30 35t-37 43.5l33 25q31 -33 56 -57t54 -53h2z" />
    <glyph glyph-name="Sacute" unicode="&#x15a;" horiz-adv-x="554" 
d="M259 -11q-35 0 -66 6.5t-58 17t-49.5 24.5t-38.5 28l39 79q35 -50 82 -76.5t105 -26.5q68 0 105 31t37 82q0 28 -6.5 48.5t-23.5 38t-46 33.5t-74 34q-42 18 -76.5 35.5t-59 41t-38 54.5t-13.5 76q0 42 16.5 75.5t45 57t66 36t79.5 12.5q68 0 113.5 -11.5t80.5 -37.5
l-36 -79q-32 36 -68 54.5t-91 18.5q-54 0 -86 -25.5t-32 -70.5q0 -23 6 -42t21 -35.5t41 -31.5t67 -31q55 -22 94 -42.5t63.5 -44.5t36 -54t11.5 -71q0 -43 -15 -80.5t-45.5 -65t-77 -43t-109.5 -15.5zM199 766q40 38 76 72t63 60l53 -59q-36 -23 -75.5 -50.5t-83.5 -56.5z
" />
    <glyph glyph-name="sacute" unicode="&#x15b;" horiz-adv-x="413" 
d="M201 -11q-51 0 -92 12t-70 35l27 67q26 -31 58 -51.5t77 -20.5q25 0 43.5 6.5t30 17t17 23t5.5 23.5q0 18 -5.5 30t-18 22.5t-32.5 20.5t-50 23q-29 13 -53.5 25.5t-42 29t-27.5 38.5t-10 55q0 58 41 97.5t122 39.5q45 0 78.5 -11.5t62.5 -28.5l-34 -63q-25 29 -49 45.5
t-65 16.5q-42 0 -63.5 -17.5t-21.5 -49.5q0 -26 21 -46t72 -41q30 -12 57.5 -25t48.5 -29.5t33.5 -39.5t12.5 -55q0 -30 -11.5 -57.5t-33.5 -47.5t-54.5 -32t-73.5 -12zM174 538q16 54 28.5 91.5t22.5 74.5l76 -25q-22 -40 -43 -76t-44 -78z" />
    <glyph glyph-name="Scircumflex" unicode="&#x15c;" horiz-adv-x="554" 
d="M259 -11q-35 0 -66 6.5t-58 17t-49.5 24.5t-38.5 28l39 79q35 -50 82 -76.5t105 -26.5q68 0 105 31t37 82q0 28 -6.5 48.5t-23.5 38t-46 33.5t-74 34q-42 18 -76.5 35.5t-59 41t-38 54.5t-13.5 76q0 42 16.5 75.5t45 57t66 36t79.5 12.5q68 0 113.5 -11.5t80.5 -37.5
l-36 -79q-32 36 -68 54.5t-91 18.5q-54 0 -86 -25.5t-32 -70.5q0 -23 6 -42t21 -35.5t41 -31.5t67 -31q55 -22 94 -42.5t63.5 -44.5t36 -54t11.5 -71q0 -43 -15 -80.5t-45.5 -65t-77 -43t-109.5 -15.5zM308 872q15 -15 28 -26.5t27 -24.5t31.5 -29t41.5 -39l-29 -31
q-21 15 -36 26.5t-28.5 21l-27 19t-29.5 21.5h-2q-17 -12 -29.5 -21t-25.5 -18.5t-28.5 -21t-36.5 -27.5l-30 31q24 23 41.5 39t31.5 29t27 24.5t28 26.5h46z" />
    <glyph glyph-name="scircumflex" unicode="&#x15d;" horiz-adv-x="413" 
d="M201 -11q-51 0 -92 12t-70 35l27 67q26 -31 58 -51.5t77 -20.5q25 0 43.5 6.5t30 17t17 23t5.5 23.5q0 18 -5.5 30t-18 22.5t-32.5 20.5t-50 23q-29 13 -53.5 25.5t-42 29t-27.5 38.5t-10 55q0 58 41 97.5t122 39.5q45 0 78.5 -11.5t62.5 -28.5l-34 -63q-25 29 -49 45.5
t-65 16.5q-42 0 -63.5 -17.5t-21.5 -49.5q0 -26 21 -46t72 -41q30 -12 57.5 -25t48.5 -29.5t33.5 -39.5t12.5 -55q0 -30 -11.5 -57.5t-33.5 -47.5t-54.5 -32t-73.5 -12zM206 644q-17 -15 -29.5 -27.5l-24.5 -24.5t-24.5 -25.5t-30.5 -31.5l-33 24q18 22 34 40.5t30 36
t28.5 34t29.5 36.5h43q15 -20 28 -35.5t27 -32t30 -35.5t37 -44l-33 -24q-31 32 -56 56t-54 53h-2z" />
    <glyph glyph-name="Scedilla" unicode="&#x15e;" horiz-adv-x="558" 
d="M259 -11q-35 0 -66 6.5t-58 17t-49.5 24.5t-38.5 28l39 79q35 -50 82 -76.5t105 -26.5q68 0 107.5 31t39.5 82q0 28 -7.5 48.5t-25 38t-47.5 33.5t-75 34q-42 18 -76.5 35.5t-59 41t-38 54.5t-13.5 76q0 42 16 75.5t44 57t65 36t79 12.5q68 0 113 -15.5t84 -42.5l-34 -69
q-33 37 -71.5 54.5t-92.5 17.5t-86.5 -25.5t-32.5 -70.5q0 -23 6.5 -42t22 -35.5t42.5 -31.5t68 -31q55 -22 94 -42.5t63.5 -44t36 -53t11.5 -70.5q0 -81 -50 -137t-156 -67l-15 -34q5 2 12 2.5t13 0.5q38 0 55.5 -16t17.5 -42q0 -28 -26.5 -51t-85.5 -23q-28 0 -57 7
t-44 15l18 44q14 -17 38.5 -27.5t44.5 -10.5q23 0 38 11.5t15 31.5q0 13 -7 21.5t-21 8.5q-6 0 -13.5 -1.5t-12.5 -3.5l-34 9l25 56h-2z" />
    <glyph glyph-name="scedilla" unicode="&#x15f;" horiz-adv-x="413" 
d="M374 138q0 -56 -37.5 -97.5t-106.5 -49.5l-15 -34q5 2 12 2.5t13 0.5q38 0 55.5 -16t17.5 -42q0 -28 -26.5 -51t-85.5 -23q-28 0 -56.5 7t-44.5 15l18 44q14 -17 38.5 -27.5t44.5 -10.5q23 0 38 11.5t15 31.5q0 13 -7 21.5t-21 8.5q-6 0 -13.5 -1.5t-12.5 -3.5l-33 9
l24 56q-48 2 -86 13t-66 34l27 67q26 -31 58 -51.5t77 -20.5q25 0 43.5 6.5t30 17t17 23t5.5 23.5q0 18 -5.5 30t-18 22.5t-32.5 20.5t-50 23q-29 13 -53.5 25.5t-42 29t-27.5 38.5t-10 55q0 58 41 97.5t122 39.5q45 0 78.5 -11.5t62.5 -28.5l-34 -63q-25 29 -49 45.5
t-65 16.5q-42 0 -63.5 -17.5t-21.5 -49.5q0 -26 21 -46t72 -41q30 -12 57.5 -25t48.5 -29.5t33.5 -39.5t12.5 -55z" />
    <glyph glyph-name="Scaron" unicode="&#x160;" horiz-adv-x="558" 
d="M259 -11q-35 0 -66 6.5t-58 17t-49.5 24.5t-38.5 28l39 79q35 -50 82 -76.5t105 -26.5q68 0 105 31t37 82q0 28 -6.5 48.5t-23.5 38t-46 33.5t-74 34q-42 18 -76.5 35.5t-59 41t-38 54.5t-13.5 76q0 42 16.5 75.5t45 57t66 36t79.5 12.5q68 0 113.5 -11.5t80.5 -37.5
l-36 -79q-32 36 -68 54.5t-91 18.5q-54 0 -86 -25.5t-32 -70.5q0 -23 6 -42t21 -35.5t41 -31.5t67 -31q55 -22 94 -42.5t63.5 -44.5t36 -54t11.5 -71q0 -43 -15 -80.5t-45.5 -65t-77 -43t-109.5 -15.5zM262 722q-14 15 -27 27t-27.5 24.5t-32 28.5t-41.5 40l30 30
q20 -15 35 -26t28.5 -21t26.5 -19t30 -21h2q16 11 29 20t26.5 18.5t29 20.5t36.5 28l29 -30q-24 -24 -41 -40t-31.5 -28.5t-27.5 -24.5t-28 -27h-46z" />
    <glyph glyph-name="scaron" unicode="&#x161;" horiz-adv-x="413" 
d="M201 -11q-51 0 -92 12t-70 35l27 67q26 -31 58 -51.5t77 -20.5q25 0 43.5 6.5t30 17t17 23t5.5 23.5q0 18 -5.5 30t-18 22.5t-32.5 20.5t-50 23q-29 13 -53.5 25.5t-42 29t-27.5 38.5t-10 55q0 58 41 97.5t122 39.5q45 0 78.5 -11.5t62.5 -28.5l-34 -63q-25 29 -49 45.5
t-65 16.5q-42 0 -63.5 -17.5t-21.5 -49.5q0 -26 21 -46t72 -41q30 -12 57.5 -25t48.5 -29.5t33.5 -39.5t12.5 -55q0 -30 -11.5 -57.5t-33.5 -47.5t-54.5 -32t-73.5 -12zM209 596q17 16 29.5 28t24.5 24t24.5 25.5t30.5 32.5l33 -25q-18 -23 -34 -41t-30 -35t-28.5 -34
t-29.5 -36h-43q-15 19 -28 35t-27 32.5t-30 35t-37 43.5l33 25q31 -33 56 -57t54 -53h2z" />
    <glyph glyph-name="Tcommaaccent" unicode="&#x162;" horiz-adv-x="604" 
d="M581 684q0 -16 0.5 -30.5t0.5 -29.5l-230 3q0 -81 -0.5 -152t-0.5 -133q0 -73 0.5 -157.5t2.5 -184.5h-105q2 101 2.5 185t0.5 157v133t-1 152l-230 -3q0 15 0.5 29.5t0.5 30.5h559zM321 -21q12 -15 19 -35.5t7 -41.5q0 -29 -23.5 -54.5t-56.5 -43.5l-19 26q15 8 25 26.5
t10 41.5q0 12 -6.5 28.5t-17.5 27.5z" />
    <glyph glyph-name="tcommaaccent" unicode="&#x163;" horiz-adv-x="366" 
d="M326 470v-47h-142v-313q0 -35 14.5 -53t50.5 -18q29 0 48 7.5t39 15.5l12 -28q-15 -13 -49.5 -29t-90.5 -16q-54 0 -85 25.5t-31 79.5l2 329h-66v12q39 37 71 69t64 76h22l-1 -110h142zM235 -30q11 -16 18 -36t7 -41q0 -29 -23.5 -54.5t-56.5 -43.5l-18 26
q14 8 24.5 26.5t10.5 41.5q0 11 -6.5 28t-17.5 28z" />
    <glyph glyph-name="Tcaron" unicode="&#x164;" horiz-adv-x="604" 
d="M581 684q0 -16 0.5 -30.5t0.5 -29.5l-230 3q0 -81 -0.5 -152t-0.5 -133q0 -73 0.5 -157.5t2.5 -184.5h-105q2 101 2.5 185t0.5 157v133t-1 152l-230 -3q0 15 0.5 29.5t0.5 30.5h559zM279 722q-15 15 -28 27t-27 24.5t-31.5 28.5t-41.5 40l29 30q21 -15 36 -26t28.5 -21
t26.5 -19t30 -21h2q16 11 29 20t26 18.5t28.5 20.5t36.5 28l30 -30q-24 -24 -41.5 -40t-31.5 -28.5t-27 -24.5t-28 -27h-46z" />
    <glyph glyph-name="tcaron" unicode="&#x165;" horiz-adv-x="366" 
d="M326 470v-47h-142v-313q0 -35 14.5 -53t50.5 -18q29 0 48 7.5t39 15.5l12 -28q-15 -13 -49.5 -29t-90.5 -16q-54 0 -85 25.5t-31 79.5l2 329h-66v12q39 37 71 69t64 76h22l-1 -110h142zM232 516q4 29 7 49.5t6 40t6 40t8 49.5h75q-11 -27 -19 -49t-15.5 -43t-14.5 -42
t-16 -45h-37z" />
    <glyph glyph-name="Tbar" unicode="&#x166;" horiz-adv-x="604" 
d="M581 684q0 -16 0.5 -30.5t0.5 -29.5l-230 3q0 -56 -0.5 -106.5t-0.5 -97.5q39 0 78 0.5t92 0.5l-10 -52q-52 0 -87.5 0.5t-72.5 0.5v-31q0 -73 0.5 -157.5t2.5 -184.5h-105q2 101 2.5 185t0.5 157v31q-41 -1 -79 -1h-92l10 52q27 0 48 -0.5t39.5 -0.5h36h37.5
q0 48 -0.5 97.5t-0.5 106.5l-230 -3q0 15 0.5 29.5t0.5 30.5h559v0z" />
    <glyph glyph-name="tbar" unicode="&#x167;" horiz-adv-x="366" 
d="M326 470l-3 -47h-139v-95q20 0 41 0.5t40 0.5t34 0.5t24 0.5l-4 -47q-8 0 -23 0.5t-34 1t-39.5 0.5h-38.5v-175q0 -35 14.5 -53t50.5 -18q29 0 48 7.5t39 15.5l12 -28q-15 -13 -49.5 -29t-90.5 -16q-54 0 -85 25.5t-31 79.5l1 190q-21 0 -38 -0.5t-26 -0.5l6 47
q10 0 24.5 -0.5t33.5 -0.5l1 94h-66v12q39 37 71 69t64 76h22l-1 -110h142z" />
    <glyph glyph-name="Utilde" unicode="&#x168;" horiz-adv-x="684" 
d="M611 232q0 -117 -69.5 -180.5t-190.5 -63.5q-63 0 -114.5 14.5t-87.5 46t-56 82t-20 121.5v50.5v25.5t0.5 10.5t0.5 7.5v16v35v67t-0.5 63t-1 69.5t-1.5 87.5h105q0 -51 -0.5 -88.5t-1 -69.5t-0.5 -62.5v-66.5v-57t0.5 -35.5t0.5 -28v-35.5q0 -104 48 -149.5t139 -45.5
q94 0 139 45.5t45 132.5v147v71t-0.5 72t-1.5 78.5t-2 91.5h72q-1 -51 -1.5 -92.5t-1 -78.5t-0.5 -71.5v-70.5v-139zM345 753q-30 11 -42.5 16t-26.5 5q-16 0 -26.5 -9.5t-5.5 -36.5l-48 17q11 39 32.5 60t65.5 21q16 0 32 -4.5t48 -15.5q27 -10 42.5 -16.5t29.5 -6.5
q16 0 26.5 7.5t8.5 37.5l48 -17q-11 -46 -32.5 -64.5t-65.5 -18.5q-25 0 -42.5 7t-43.5 18z" />
    <glyph glyph-name="utilde" unicode="&#x169;" horiz-adv-x="537" 
d="M470 235q0 -77 0.5 -131.5t2.5 -103.5h-94q0 14 0.5 28.5t0.5 26.5q-14 -10 -26 -18.5t-26 -16.5q-26 -14 -54.5 -23t-60.5 -9q-81 0 -116 36.5t-35 120.5v19t0.5 24.5t0.5 25v21.5q0 39 -0.5 68.5t-1 56t-1 52.5t-0.5 58h98q0 -32 -0.5 -58t-1 -52.5t-1 -56t-0.5 -68.5
q0 -28 0.5 -49.5t0.5 -41.5q0 -57 20 -79.5t64 -22.5q39 0 75 14.5t61 44.5q0 16 0.5 30t1 29.5t0.5 33.5v41q0 39 -0.5 68.5t-1 56t-1 52.5t-0.5 58h98q0 -32 -0.5 -58t-1 -52.5t-1 -56t-0.5 -68.5zM333 572q-15 0 -32 7.5t-34 16.5t-33 16.5t-30 7.5q-8 0 -16.5 -1
t-15 -5.5t-9.5 -14.5t0 -28l-48 18q11 46 35.5 62t62.5 16q21 0 40 -7.5t36 -16.5t30.5 -16.5t22.5 -7.5q16 0 26 10t5 46l47 -17q-11 -46 -30 -66t-57 -20z" />
    <glyph glyph-name="Umacron" unicode="&#x16a;" horiz-adv-x="684" 
d="M611 232q0 -117 -69.5 -180.5t-190.5 -63.5q-63 0 -114.5 14.5t-87.5 46t-56 82t-20 121.5v50.5v25.5t0.5 10.5t0.5 7.5v16v35v67t-0.5 63t-1 69.5t-1.5 87.5h105q0 -51 -0.5 -88.5t-1 -69.5t-0.5 -62.5v-66.5v-57t0.5 -35.5t0.5 -28v-35.5q0 -104 48 -149.5t139 -45.5
q94 0 139 45.5t45 132.5v147v71t-0.5 72t-1.5 78.5t-2 91.5h72q-1 -51 -1.5 -92.5t-1 -78.5t-0.5 -71.5v-70.5v-139zM362 806h33.5t28.5 0.5t31 0.5h41l-7 -49q-24 0 -39 0.5t-27.5 0.5h-26.5h-36h-34.5t-28.5 -0.5t-31 -0.5h-41l7 49q24 0 39 -0.5t27.5 -0.5h26.5h37z" />
    <glyph glyph-name="umacron" unicode="&#x16b;" horiz-adv-x="537" 
d="M470 235q0 -77 0.5 -131.5t2.5 -103.5h-94q0 14 0.5 28.5t0.5 26.5q-14 -10 -26 -18.5t-26 -16.5q-26 -14 -54.5 -23t-60.5 -9q-81 0 -116 36.5t-35 120.5v19t0.5 24.5t0.5 25v21.5q0 39 -0.5 68.5t-1 56t-1 52.5t-0.5 58h98q0 -32 -0.5 -58t-1 -52.5t-1 -56t-0.5 -68.5
q0 -28 0.5 -49.5t0.5 -41.5q0 -57 20 -79.5t64 -22.5q39 0 75 14.5t61 44.5q0 16 0.5 30t1 29.5t0.5 33.5v41q0 39 -0.5 68.5t-1 56t-1 52.5t-0.5 58h98q0 -32 -0.5 -58t-1 -52.5t-1 -56t-0.5 -68.5zM267 642h33.5t29 0.5t31 0.5h40.5l-6 -49q-25 0 -39.5 0.5t-27 0.5h-26.5
h-37h-34.5t-28.5 -0.5t-30.5 -0.5h-40.5l6 49q24 0 39 -0.5t27.5 -0.5h26.5h37z" />
    <glyph glyph-name="Ubreve" unicode="&#x16c;" horiz-adv-x="684" 
d="M611 232q0 -117 -69.5 -180.5t-190.5 -63.5q-63 0 -114.5 14.5t-87.5 46t-56 82t-20 121.5v50.5v25.5t0.5 10.5t0.5 7.5v16v35v67t-0.5 63t-1 69.5t-1.5 87.5h105q0 -51 -0.5 -88.5t-1 -69.5t-0.5 -62.5v-66.5v-57t0.5 -35.5t0.5 -28v-35.5q0 -104 48 -149.5t139 -45.5
q94 0 139 45.5t45 132.5v147v71t-0.5 72t-1.5 78.5t-2 91.5h72q-1 -51 -1.5 -92.5t-1 -78.5t-0.5 -71.5v-70.5v-139zM354 780q44 0 64 20t28 62l45 -9q-8 -39 -22 -63t-33 -37.5t-40 -18.5t-42 -5t-42.5 5t-40 18.5t-33.5 37.5t-22 63l46 9q8 -42 28 -62t64 -20z" />
    <glyph glyph-name="ubreve" unicode="&#x16d;" horiz-adv-x="537" 
d="M470 235q0 -77 0.5 -131.5t2.5 -103.5h-94q0 14 0.5 28.5t0.5 26.5q-14 -10 -26 -18.5t-26 -16.5q-26 -14 -54.5 -23t-60.5 -9q-81 0 -116 36.5t-35 120.5v19t0.5 24.5t0.5 25v21.5q0 39 -0.5 68.5t-1 56t-1 52.5t-0.5 58h98q0 -32 -0.5 -58t-1 -52.5t-1 -56t-0.5 -68.5
q0 -28 0.5 -49.5t0.5 -41.5q0 -57 20 -79.5t64 -22.5q39 0 75 14.5t61 44.5q0 16 0.5 30t1 29.5t0.5 33.5v41q0 39 -0.5 68.5t-1 56t-1 52.5t-0.5 58h98q0 -32 -0.5 -58t-1 -52.5t-1 -56t-0.5 -68.5zM266 587q32 0 54.5 17.5t28.5 56.5l44 -9q-7 -34 -19.5 -55.5t-29 -34
t-36.5 -17t-42 -4.5t-42 4.5t-36.5 17t-29 34t-19.5 55.5l44 9q5 -39 28 -56.5t55 -17.5z" />
    <glyph glyph-name="Uring" unicode="&#x16e;" horiz-adv-x="684" 
d="M611 232q0 -117 -69.5 -180.5t-190.5 -63.5q-63 0 -114.5 14.5t-87.5 46t-56 82t-20 121.5v50.5v25.5t0.5 10.5t0.5 7.5v16v35v67t-0.5 63t-1 69.5t-1.5 87.5h105q0 -51 -0.5 -88.5t-1 -69.5t-0.5 -62.5v-66.5v-57t0.5 -35.5t0.5 -28v-35.5q0 -104 48 -149.5t139 -45.5
q94 0 139 45.5t45 132.5v147v71t-0.5 72t-1.5 78.5t-2 91.5h72q-1 -51 -1.5 -92.5t-1 -78.5t-0.5 -71.5v-70.5v-139zM361 839q-21 0 -33.5 -14.5t-12.5 -34.5t12.5 -34t33.5 -14q20 0 32 14t12 34q0 22 -12 35.5t-32 13.5zM361 871q32 0 56.5 -21.5t24.5 -59.5
q0 -37 -24.5 -58.5t-56.5 -21.5q-33 0 -57 21.5t-24 58.5q0 38 24 59.5t57 21.5z" />
    <glyph glyph-name="uring" unicode="&#x16f;" horiz-adv-x="537" 
d="M470 235q0 -77 0.5 -131.5t2.5 -103.5h-93v55q-14 -10 -26 -18.5t-26 -16.5q-26 -14 -54.5 -23t-60.5 -9q-81 0 -116 36.5t-35 120.5v19t0.5 24.5t0.5 25v21.5q0 39 -0.5 68.5t-1 56t-1 52.5t-0.5 58h98q0 -32 -0.5 -58t-1 -52.5t-1 -56t-0.5 -68.5q0 -28 0.5 -49.5
t0.5 -41.5q0 -57 20 -79.5t64 -22.5q39 0 75 14.5t61 44.5q0 16 0.5 30t1 29.5t0.5 33.5v41q0 39 -0.5 68.5t-1 56t-1 52.5t-0.5 58h98q0 -32 -0.5 -58t-1 -52.5t-1 -56t-0.5 -68.5zM265 700q32 0 56.5 -21.5t24.5 -59.5t-24.5 -59t-56.5 -21t-56.5 21t-24.5 59t24.5 59.5
t56.5 21.5zM265 668q-21 0 -33.5 -14.5t-12.5 -34.5t12.5 -34t33.5 -14q20 0 32 14t12 34q0 22 -12 35.5t-32 13.5z" />
    <glyph glyph-name="Uhungarumlaut" unicode="&#x170;" horiz-adv-x="684" 
d="M611 232q0 -117 -69.5 -180.5t-190.5 -63.5q-63 0 -114.5 14.5t-87.5 46t-56 82t-20 121.5v50.5v25.5t0.5 10.5t0.5 7.5v16v35v67t-0.5 63t-1 69.5t-1.5 87.5h105q0 -51 -0.5 -88.5t-1 -69.5t-0.5 -62.5v-66.5v-57t0.5 -35.5t0.5 -28v-35.5q0 -104 48 -149.5t139 -45.5
q94 0 139 45.5t45 132.5v147v71t-0.5 72t-1.5 78.5t-2 91.5h72q-1 -51 -1.5 -92.5t-1 -78.5t-0.5 -71.5v-70.5v-139zM201 748q40 38 76 72t62 60l47 -54q-32 -22 -73 -52.5t-85 -59.5zM366 748q41 38 76.5 72t62.5 60l47 -54q-34 -24 -74 -53.5t-84 -58.5z" />
    <glyph glyph-name="uhungarumlaut" unicode="&#x171;" horiz-adv-x="537" 
d="M470 235q0 -77 0.5 -131.5t2.5 -103.5h-94q0 14 0.5 28.5t0.5 26.5q-14 -10 -26 -18.5t-26 -16.5q-26 -14 -54.5 -23t-60.5 -9q-81 0 -116 36.5t-35 120.5v19t0.5 24.5t0.5 25v21.5q0 39 -0.5 68.5t-1 56t-1 52.5t-0.5 58h98q0 -32 -0.5 -58t-1 -52.5t-1 -56t-0.5 -68.5
q0 -28 0.5 -49.5t0.5 -41.5q0 -57 20 -79.5t64 -22.5q39 0 75 14.5t61 44.5q0 16 0.5 30t1 29.5t0.5 33.5v41q0 39 -0.5 68.5t-1 56t-1 52.5t-0.5 58h98q0 -32 -0.5 -58t-1 -52.5t-1 -56t-0.5 -68.5zM167 538q16 54 29.5 91.5t24.5 74.5l66 -25q-10 -19 -20 -36.5
t-20.5 -35.5t-21 -38t-22.5 -44zM295 538q16 54 30 91.5t25 74.5l66 -25q-10 -19 -20 -36.5t-20.5 -35.5t-21.5 -38t-22 -44z" />
    <glyph glyph-name="Uogonek" unicode="&#x172;" horiz-adv-x="684" 
d="M611 232q0 -117 -69.5 -180.5t-190.5 -63.5q-11 -16 -19.5 -36.5t-8.5 -48.5q0 -23 14 -34.5t31 -11.5t31.5 10t22.5 24l18 -36q-27 -27 -92 -27q-25 0 -42.5 7t-28.5 17.5t-16 23.5t-5 26q0 25 16 48t35 40q-54 4 -97 21.5t-73.5 49t-47 79t-16.5 112.5v50.5v25.5
t0.5 10.5t0.5 7.5v16v35v67t-0.5 63t-1 69.5t-1.5 87.5h103q0 -51 -0.5 -88.5t-1 -69.5t-0.5 -62.5v-66.5v-57t0.5 -35.5t0.5 -28v-35.5q0 -104 49 -152t140 -48q94 0 139 48t45 135v147v71t-0.5 72t-1.5 78.5t-2 91.5h72q-1 -51 -1.5 -92.5t-1 -78.5t-0.5 -71.5v-70.5v-139
v0z" />
    <glyph glyph-name="uogonek" unicode="&#x173;" horiz-adv-x="537" 
d="M470 235q0 -77 0.5 -131.5t2.5 -103.5h-53q-15 -17 -26.5 -36.5t-11.5 -52.5q0 -28 14 -41t31 -13t31.5 10t22.5 24l18 -36q-13 -13 -37.5 -20t-48.5 -7q-49 0 -73.5 23.5t-24.5 55.5q0 29 21.5 53.5t42.5 40.5q0 14 0.5 28t0.5 26q-14 -10 -26 -18.5t-26 -16.5
q-26 -14 -54.5 -23t-60.5 -9q-81 0 -116 36.5t-35 120.5v19t0.5 24.5t0.5 25v21.5q0 39 -0.5 68.5t-1 56t-1 52.5t-0.5 58h98q0 -32 -0.5 -58t-1 -52.5t-1 -56t-0.5 -68.5q0 -28 0.5 -49.5t0.5 -41.5q0 -57 20 -79.5t64 -22.5q39 0 75 14.5t61 44.5q0 16 0.5 30t1 29.5
t0.5 33.5v41q0 39 -0.5 68.5t-1 56t-1 52.5t-0.5 58h98q0 -32 -0.5 -58t-1 -52.5t-1 -56t-0.5 -68.5z" />
    <glyph glyph-name="Wcircumflex" unicode="&#x174;" horiz-adv-x="914" 
d="M446 473q0 -1 -7 -21.5t-17.5 -53.5t-24 -74.5t-28 -85.5t-28 -86t-24 -75t-17.5 -54t-7 -23h-62l-110 371q-22 78 -45 159.5t-46 153.5h111q20 -76 37 -139.5t35 -128.5q17 -60 33.5 -125t36.5 -137h2q0 2 10 33t24.5 76.5t31.5 98.5t31 98.5t24 76.5t10 32l-6.5 18
t-14 39t-14 39t-6.5 19h114q10 -39 19.5 -71.5t19 -62.5t18.5 -59.5t19 -61.5q17 -61 39 -132t44 -143h2q19 66 39.5 137t40.5 136q21 66 39.5 129t33.5 128h85q-10 -30 -21.5 -65t-23.5 -72.5t-25 -76t-25 -75.5q-17 -51 -35 -104t-35.5 -105t-34 -99.5t-29.5 -86.5h-60
q-23 74 -45 143t-41.5 130t-36 112t-28.5 88h-2zM482 872q15 -15 27.5 -26.5t27 -24.5t32 -29t41.5 -39l-29 -31q-21 15 -36 26.5t-28.5 21l-27 19t-29.5 21.5h-2q-17 -12 -29.5 -21t-25.5 -18.5t-28.5 -21t-36.5 -27.5l-30 31q24 23 41.5 39t31.5 29t27 24.5t28 26.5h46z
" />
    <glyph glyph-name="wcircumflex" unicode="&#x175;" horiz-adv-x="726" 
d="M361 328q-14 -36 -29 -77.5t-30 -84.5t-29.5 -85.5t-26.5 -80.5h-79q-21 62 -38.5 121t-34.5 117t-34.5 115.5t-38.5 116.5h101l104 -372h2q16 44 33 94.5t33 100t31 95.5t26 82h54q15 -51 28.5 -94.5t27.5 -86.5t29 -89t34 -102h2q19 59 34 108t28 93t24.5 85.5
t23.5 85.5h69q-19 -51 -36.5 -103t-36.5 -109t-40 -120.5t-46 -137.5h-80q-15 48 -28.5 89t-26 80t-24.5 77.5t-25 81.5h-1zM362 644q-17 -15 -29.5 -27.5l-24.5 -24.5t-24.5 -25.5t-30.5 -31.5l-32 24q18 22 34 40.5t30 36t28 34t29 36.5h43q15 -20 28.5 -35.5t27 -32
t29.5 -35.5t37 -44l-32 -24q-32 32 -57 56t-54 53h-2z" />
    <glyph glyph-name="Ycircumflex" unicode="&#x176;" horiz-adv-x="592" 
d="M240 0l3 286q-28 48 -55.5 94.5t-55.5 95t-57 100t-60 108.5h112q53 -103 100 -182.5t83 -147.5q31 50 56.5 94.5t47.5 85t42.5 77.5t40.5 73h81q-60 -95 -117.5 -192.5t-118.5 -199.5q0 -66 0.5 -135.5t2.5 -156.5h-105zM335 872q15 -15 27.5 -26.5t27 -24.5t32 -29
t41.5 -39l-30 -31q-20 15 -35 26.5t-28.5 21l-27 19t-29.5 21.5h-2q-17 -12 -29.5 -21t-26 -18.5t-29 -21t-36.5 -27.5l-29 31q24 23 41 39t31 29t27.5 24.5t28.5 26.5h46z" />
    <glyph glyph-name="ycircumflex" unicode="&#x177;" horiz-adv-x="489" 
d="M264 96q24 60 44.5 111.5t38 97t32.5 86.5t28 79h71q-13 -33 -33 -81.5t-43.5 -105.5t-50 -120l-53 -126t-51 -122.5t-45.5 -109.5h-77q13 26 28 57.5t28 58.5q15 32 29 62q-23 57 -48.5 120.5t-52 128t-51 126t-44.5 112.5h107q17 -49 34 -94t34 -89.5t35 -91t38 -99.5
h2zM255 644q-17 -15 -29.5 -27.5l-24.5 -24.5t-25 -25.5t-31 -31.5l-32 24q18 22 34 40.5t30 36t28.5 34t29.5 36.5h43q15 -20 28 -35.5t26.5 -32t29.5 -35.5t37 -44l-32 -24q-31 32 -56.5 56t-53.5 53h-2z" />
    <glyph glyph-name="Ydieresis" unicode="&#x178;" horiz-adv-x="592" 
d="M240 0l3 286q-28 48 -55.5 94.5t-55.5 95t-57 100t-60 108.5h112q53 -103 100 -182.5t83 -147.5q31 50 56.5 94.5t47.5 85t42.5 77.5t40.5 73h81q-60 -95 -117.5 -192.5t-118.5 -199.5q0 -66 0.5 -135.5t2.5 -156.5h-105zM170 787q0 19 14 33.5t34 14.5t34.5 -14.5
t14.5 -33.5q0 -20 -14.5 -34t-34.5 -14t-34 14t-14 34zM381 787q0 19 14 33.5t34 14.5q19 0 33.5 -14.5t14.5 -33.5q0 -20 -14.5 -34t-33.5 -14q-20 0 -34 14t-14 34z" />
    <glyph glyph-name="Zacute" unicode="&#x179;" horiz-adv-x="595" 
d="M435 627q-45 0 -101.5 -1t-110.5 -2t-99.5 -2t-69.5 -2l7 65q47 -1 104.5 -1h119.5h274l13 -25q-26 -40 -48.5 -74t-47.5 -70t-55 -79.5t-70 -103.5q-30 -45 -63.5 -93t-61 -88.5t-46 -67.5t-19.5 -28q45 1 105 1.5t118 1.5t107 1.5t73 1.5l-6 -64q-27 0 -56 1
q-25 1 -54.5 1.5t-56.5 0.5h-360l-8 30q9 12 28.5 40t46.5 66.5t59 84.5t65 94t65.5 95.5t61 89.5t51 75t35.5 52zM211 766q40 38 76 72t63 60l53 -59q-36 -23 -75.5 -50.5t-83.5 -56.5z" />
    <glyph glyph-name="zacute" unicode="&#x17a;" horiz-adv-x="444" 
d="M43 419l5 51h358l7 -21q-50 -73 -86 -126t-66 -98l-58 -87t-61 -93q90 1 153 3t111 4l-4 -52h-378l-4 25q37 49 76.5 106t76 112t68 103t51.5 80zM184 538q16 54 28.5 91.5t23.5 74.5l75 -25q-22 -40 -43 -76t-44 -78z" />
    <glyph glyph-name="Zdotaccent" unicode="&#x17b;" horiz-adv-x="595" 
d="M435 627q-45 0 -101.5 -1t-110.5 -2t-99.5 -2t-69.5 -2l7 65q47 -1 104.5 -1h119.5h274l13 -25q-26 -40 -48.5 -74t-47.5 -70t-55 -79.5t-70 -103.5q-30 -45 -63.5 -93t-61 -88.5t-46 -67.5t-19.5 -28q45 1 105 1.5t118 1.5t107 1.5t73 1.5l-6 -64q-27 0 -56 1
q-25 1 -54.5 1.5t-56.5 0.5h-360l-8 30q9 12 28.5 40t46.5 66.5t59 84.5t65 94t65.5 95.5t61 89.5t51 75t35.5 52zM242 788q0 23 16 40t39 17t39.5 -17t16.5 -40t-16.5 -39t-39.5 -16t-39 16t-16 39z" />
    <glyph glyph-name="zdotaccent" unicode="&#x17c;" horiz-adv-x="444" 
d="M43 419l5 51h358l7 -21q-50 -73 -86 -126t-66 -98l-58 -87t-61 -93q90 1 153 3t111 4l-4 -52h-378l-4 25q37 49 76.5 106t76 112t68 103t51.5 80zM170 626q0 23 16 39.5t39 16.5t40 -16.5t17 -39.5t-17 -39.5t-40 -16.5t-39 16.5t-16 39.5z" />
    <glyph glyph-name="Zcaron" unicode="&#x17d;" horiz-adv-x="595" 
d="M435 627q-45 0 -101.5 -1t-110.5 -2t-99.5 -2t-69.5 -2l7 65q47 -1 104.5 -1h119.5h274l13 -25q-26 -40 -48.5 -74t-47.5 -70t-55 -79.5t-70 -103.5q-30 -45 -63.5 -93t-61 -88.5t-46 -67.5t-19.5 -28q45 1 105 1.5t118 1.5t107 1.5t73 1.5l-6 -64q-27 0 -56 1
q-25 1 -54.5 1.5t-56.5 0.5h-360l-8 30q9 12 28.5 40t46.5 66.5t59 84.5t65 94t65.5 95.5t61 89.5t51 75t35.5 52zM299 791q17 16 29.5 28t24.5 24t25 25.5t30 32.5l33 -25q-18 -23 -34 -41t-30 -35t-28.5 -34t-29.5 -36h-43q-15 19 -28 35t-26.5 32.5t-29.5 35t-37 43.5
l32 25q31 -33 56 -57t54 -53h2z" />
    <glyph glyph-name="zcaron" unicode="&#x17e;" horiz-adv-x="444" 
d="M43 419l5 51h358l7 -21q-50 -73 -86 -126t-66 -98l-58 -87t-61 -93q90 1 153 3t111 4l-4 -52h-378l-4 25q37 49 76.5 106t76 112t68 103t51.5 80zM233 596q17 16 29.5 28t24.5 24t24.5 25.5t30.5 32.5l32 -25q-18 -23 -33.5 -41t-30 -35t-28.5 -34t-29 -36h-43
q-15 19 -28.5 35t-27 32.5t-29.5 35t-37 43.5l33 25q31 -33 56 -57t54 -53h2z" />
    <glyph glyph-name="florin" unicode="&#x192;" horiz-adv-x="381" 
d="M70 1q4 32 8 62.5t7 62t6.5 65t7.5 72.5q3 25 4.5 37t3 21t2 19t2.5 30h-71l2 27l75 21l8 64q12 106 62 160t130 54q46 0 69.5 -9t41.5 -22l-44 -54q-14 20 -30 32t-40 12q-23 0 -38.5 -10.5t-26 -28.5t-16.5 -43.5t-9 -55.5l-12 -100h115l-6 -47h-115l-15 -107
q-4 -39 -6.5 -63.5t-5 -44.5t-4.5 -41t-5 -53q-11 -106 -56.5 -161.5t-125.5 -55.5q-27 0 -54 7t-44 18l28 55q15 -19 36 -29.5t35 -10.5q22 0 35.5 5t22 18t13.5 35.5t10 58.5z" />
    <glyph glyph-name="Aringacute" unicode="&#x1fa;" horiz-adv-x="648" 
d="M504 0q-17 48 -34 95.5t-35 95.5q-32 0 -62.5 0.5t-59.5 0.5h-68.5t-75.5 -1q-19 -47 -36.5 -95t-34.5 -96h-77q69 168 140 334.5t134 330.5q10 4 21.5 10t21.5 11t16.5 8.5t7.5 3.5q28 -88 59 -174t58 -160q13 -36 29 -80t34 -91t37 -96t37 -97h-112zM307 538
q-26 -67 -56 -142t-61 -149q32 0 62.5 -0.5t60.5 -0.5h103q-10 27 -23 63t-27 75.5t-29 79.5t-28 74h-2zM318 858q29 0 48.5 -19t19.5 -51t-20 -51t-48 -19q-27 0 -47.5 19t-20.5 51t20.5 51t47.5 19zM318 748q16 0 26.5 11.5t10.5 28.5t-10.5 28.5t-26.5 11.5
q-17 0 -26.5 -11.5t-9.5 -28.5t9.5 -28.5t26.5 -11.5zM228 911q20 18 37.5 32.5t34 27t31.5 24.5t31 25l44 -59q-41 -23 -75 -42.5t-74 -41.5z" />
    <glyph glyph-name="aringacute" unicode="&#x1fb;" horiz-adv-x="486" 
d="M221 604q-15 0 -24 -10t-9 -25q0 -16 9 -25t24 -9q32 0 32 34q0 16 -8.5 25.5t-23.5 9.5zM221 628q23 0 41.5 -15.5t18.5 -43.5t-18.5 -43.5t-41.5 -15.5q-24 0 -42 15.5t-18 43.5t18 43.5t42 15.5zM188 664q8 25 13.5 42t10 31l9 28t9.5 32l59 -24q-11 -19 -19.5 -33.5
t-17 -28t-17 -27.5t-19.5 -32zM35 415q33 29 83.5 48t111.5 19q87 0 124.5 -29.5t37.5 -87.5v-25t-0.5 -38t-0.5 -38.5v-27.5q0 -45 0.5 -90.5t0.5 -75.5q0 -19 8.5 -26t20.5 -7q17 0 27.5 4.5t20.5 10.5l15 -21q-14 -20 -39 -31t-57 -11q-43 0 -61.5 18.5t-22.5 44.5
q-26 -26 -59.5 -44.5t-82.5 -18.5q-23 0 -45 7t-39 21t-28 35t-11 49q0 31 9.5 52.5t24 36t31.5 22.5t32 13q41 14 84.5 26.5t77.5 20.5v18.5v23.5v23v17q0 48 -21.5 66t-66.5 18q-42 0 -81 -20t-62 -52zM296 84q1 31 1.5 71t0.5 83q-14 -3 -31.5 -8t-34.5 -10.5t-32 -11
t-24 -9.5q-25 -11 -34.5 -30t-9.5 -49q0 -74 75 -74q29 0 50 11.5t39 26.5z" />
    <glyph glyph-name="AEacute" unicode="&#x1fc;" horiz-adv-x="857" 
d="M742 326l-212 2v-68v-60.5t0.5 -65t1.5 -81.5l280 4l-6 -57h-377q1 62 1.5 115.5t0.5 103.5q-27 0 -54.5 0.5t-50.5 0.5h-58t-60 -1q-31 -57 -60 -111.5t-57 -107.5h-77q65 114 115.5 205.5t94 171t84 153.5t86.5 154h416l-9 -60l-269 6q0 -44 -0.5 -75.5t-1 -58.5
t-0.5 -53.5v-58.5l222 2zM426 623q-40 -72 -89 -162t-100 -187q23 -1 44 -1.5t45 -0.5h29t31 0.5t27 0.5h18v69v50t-0.5 47t-0.5 69v115h-4zM511 766q40 38 76 72t63 60l53 -59q-36 -23 -75.5 -50.5t-83.5 -56.5z" />
    <glyph glyph-name="aeacute" unicode="&#x1fd;" horiz-adv-x="735" 
d="M693 302q-80 -14 -157 -27.5t-143 -27.5v-15q0 -49 12 -84.5t32.5 -58t48 -33t57.5 -10.5q49 0 77.5 18.5t50.5 42.5l26 -25q-11 -17 -28.5 -34t-40 -30t-49.5 -21t-58 -8q-113 0 -170 89h-3q-32 -39 -76 -64t-92 -25q-63 0 -102 27.5t-39 84.5q0 31 9.5 52.5t24 36
t31.5 22.5t32 13q23 8 59.5 17t102.5 23v74q0 48 -21.5 73.5t-66.5 25.5q-42 0 -81 -20t-62 -52l-32 49q33 29 83.5 48t111.5 19q57 0 86 -21t41 -47h3q31 34 72.5 51t87.5 17q45 0 77.5 -14.5t53.5 -39t31.5 -57.5t10.5 -69zM132 120q0 -38 19 -60.5t56 -22.5q29 0 53.5 17
t35.5 41q0 10 0.5 31.5t0.5 43.5v39v19q-50 -11 -81.5 -19t-39.5 -10q-25 -11 -34.5 -30t-9.5 -49zM518 443q-57 0 -86.5 -38.5t-36.5 -119.5l208 42q0 23 -5.5 44t-16 37t-26.5 25.5t-37 9.5zM316 538q16 54 28 91.5t23 74.5l76 -25q-22 -40 -43.5 -76t-43.5 -78z" />
    <glyph glyph-name="Oslashacute" unicode="&#x1fe;" horiz-adv-x="736" 
d="M643 702q-12 -22 -25.5 -45t-27.5 -48q48 -46 75 -111t27 -146q0 -84 -24.5 -151.5t-68 -114.5t-102 -72.5t-126.5 -25.5q-65 0 -119 21q-14 -26 -27.5 -50.5t-23.5 -44.5l-63 32l54 94q-67 44 -107 118.5t-40 172.5q0 84 25 152t68 115t101.5 72.5t126.5 25.5
q48 0 90.5 -12t78.5 -34l46 84zM155 344q0 -82 18 -144.5t54 -101.5q21 36 42 72.5t40.5 69.5t36 61t27.5 48l131 241q-53 53 -138 53q-56 0 -96 -21.5t-65.5 -61t-37.5 -94.5t-12 -122zM371 40q56 0 95.5 21.5t65 60.5t37.5 94t12 123q0 115 -35 191q-35 -62 -66 -118
t-50 -92l-150 -261q38 -19 91 -19zM282 766q40 38 76 72t62 60l54 -59q-36 -23 -75.5 -50.5t-83.5 -56.5z" />
    <glyph glyph-name="oslashacute" unicode="&#x1ff;" horiz-adv-x="558" 
d="M449 539l-42 -91q48 -29 81 -80.5t33 -131.5q0 -60 -20 -106.5t-54 -77.5t-77.5 -47t-90.5 -16q-20 0 -39.5 3.5t-38.5 8.5q-9 -22 -18.5 -43.5t-18.5 -44.5l-55 23l40 87q-48 28 -80 80t-32 131q0 61 20 107t54 77.5t77.5 47.5t90.5 16q38 0 76 -12q10 23 19.5 45.5
t19.5 46.5zM135 232q0 -48 11.5 -85t31.5 -63l78 163q36 82 81 180q-14 7 -28.5 11t-29.5 4q-40 0 -67.5 -17t-44.5 -46t-24.5 -67t-7.5 -80zM279 30q36 0 63 17t45 45.5t26.5 66t8.5 79.5q0 50 -11.5 88t-31.5 64q-20 -44 -38 -84t-35 -77q-18 -41 -39.5 -86.5t-44.5 -96.5
q27 -16 57 -16zM210 538q16 54 28 91.5t23 74.5l76 -25q-22 -40 -43 -76t-44 -78z" />
    <glyph glyph-name="Scommaaccent" unicode="&#x218;" horiz-adv-x="558" 
d="M259 -11q-35 0 -66 6.5t-58 17t-49.5 24.5t-38.5 28l39 79q35 -50 82 -76.5t105 -26.5q68 0 105 31t37 82q0 28 -6.5 48.5t-23.5 38t-46 33.5t-74 34q-42 18 -76.5 35.5t-59 41t-38 54.5t-13.5 76q0 42 16.5 75.5t45 57t66 36t79.5 12.5q68 0 113.5 -11.5t80.5 -37.5
l-36 -79q-32 36 -68 54.5t-91 18.5q-54 0 -86 -25.5t-32 -70.5q0 -23 6 -42t21 -35.5t41 -31.5t67 -31q55 -22 94 -42.5t63.5 -44.5t36 -54t11.5 -71q0 -43 -15 -80.5t-45.5 -65t-77 -43t-109.5 -15.5zM305 -30q11 -16 18 -36t7 -41q0 -29 -23.5 -54.5t-56.5 -43.5l-18 26
q14 8 24.5 26.5t10.5 41.5q0 11 -6.5 28t-17.5 28z" />
    <glyph glyph-name="scommaaccent" unicode="&#x219;" horiz-adv-x="413" 
d="M201 -11q-51 0 -92 12t-70 35l27 67q26 -31 58 -51.5t77 -20.5q25 0 43.5 6.5t30 17t17 23t5.5 23.5q0 18 -5.5 30t-18 22.5t-32.5 20.5t-50 23q-29 13 -53.5 25.5t-42 29t-27.5 38.5t-10 55q0 58 41 97.5t122 39.5q45 0 78.5 -11.5t62.5 -28.5l-34 -63q-25 29 -49 45.5
t-65 16.5q-42 0 -63.5 -17.5t-21.5 -49.5q0 -26 21 -46t72 -41q30 -12 57.5 -25t48.5 -29.5t33.5 -39.5t12.5 -55q0 -30 -11.5 -57.5t-33.5 -47.5t-54.5 -32t-73.5 -12zM225 -30q12 -16 19 -36t7 -41q0 -29 -23.5 -54.5t-56.5 -43.5l-18 26q14 8 24.5 26.5t10.5 41.5
q0 11 -6.5 28t-17.5 28z" />
    <glyph glyph-name="uni0237" unicode="&#x237;" horiz-adv-x="240" 
d="M75 -45q0 26 0.5 58.5t1 69t1 75.5t0.5 78t-0.5 69t-1 56t-1 49.5t-0.5 47.5l98 19q0 -58 -1.5 -119t-1.5 -122v-70t0.5 -57.5t0.5 -49v-43.5q0 -73 -18.5 -115t-46 -63t-59 -26.5t-56.5 -5.5q-29 0 -58.5 7t-46.5 15l22 63q12 -10 28 -17q14 -7 31.5 -12t38.5 -5
q42 0 55.5 26.5t13.5 71.5z" />
    <glyph glyph-name="circumflex" unicode="&#x2c6;" 
d="M184 644q-17 -15 -29.5 -27.5l-24.5 -24.5t-25 -25.5t-30 -31.5l-33 24q18 22 34 40.5t30 36t28.5 34t29.5 36.5h43q15 -20 28 -35.5t26.5 -32t29.5 -35.5t37 -44l-32 -24q-31 32 -56 56t-54 53h-2z" />
    <glyph glyph-name="caron" unicode="&#x2c7;" 
d="M187 596q17 16 29.5 28t24.5 24t24.5 25.5t30.5 32.5l32 -25q-18 -23 -33.5 -41t-30 -35t-28.5 -34t-29 -36h-43q-15 19 -28.5 35t-27 32.5t-29.5 35t-37 43.5l33 25q31 -33 56 -57t54 -53h2z" />
    <glyph glyph-name="breve" unicode="&#x2d8;" 
d="M184 587q32 0 54.5 17.5t28.5 56.5l44 -9q-7 -34 -19.5 -55.5t-29 -34t-36.5 -17t-42 -4.5t-42 4.5t-36.5 17t-29 34t-19.5 55.5l44 9q6 -39 28.5 -56.5t54.5 -17.5z" />
    <glyph glyph-name="dotaccent" unicode="&#x2d9;" 
d="M129 653q0 23 16 39.5t39 16.5t39.5 -16.5t16.5 -39.5t-16.5 -39t-39.5 -16t-39 16t-16 39z" />
    <glyph glyph-name="ring" unicode="&#x2da;" 
d="M183 668q-21 0 -33.5 -14.5t-12.5 -34.5t12.5 -34t33.5 -14q20 0 32 14t12 34q0 22 -12 35.5t-32 13.5zM183 700q32 0 56.5 -21.5t24.5 -59.5t-24.5 -59t-56.5 -21t-56.5 21t-24.5 59t24.5 59.5t56.5 21.5z" />
    <glyph glyph-name="ogonek" unicode="&#x2db;" 
d="M236 8q-16 -19 -30.5 -43.5t-14.5 -61.5q0 -23 14 -34.5t31 -11.5t32 10t23 24l17 -36q-25 -27 -92 -27q-24 0 -41.5 7t-29 17.5t-16.5 23.5t-5 26q0 16 8 32t19 30t24 25.5t24 18.5h37v0z" />
    <glyph glyph-name="tilde" unicode="&#x2dc;" 
d="M251 572q-15 0 -32 7.5t-34 16.5t-33 16.5t-30 7.5q-8 0 -16.5 -1t-14.5 -5.5t-9.5 -14.5t-0.5 -28l-48 18q11 46 36 62t63 16q20 0 39 -7.5t36 -16.5t30.5 -16.5t22.5 -7.5q17 0 26.5 10t4.5 46l48 -17q-11 -46 -30.5 -66t-57.5 -20z" />
    <glyph glyph-name="hungarumlaut" unicode="&#x2dd;" 
d="M70 538q16 54 29.5 91.5t24.5 74.5l66 -25q-9 -19 -19 -36.5t-20.5 -35.5t-21.5 -38t-22 -44zM199 538q16 54 29.5 91.5t24.5 74.5l66 -25q-10 -19 -20 -36.5t-20 -35.5t-21 -38t-22 -44z" />
    <glyph glyph-name="Wgrave" unicode="&#x1e80;" horiz-adv-x="914" 
d="M446 473q0 -1 -7 -21.5t-17.5 -53.5t-24 -74.5t-28 -85.5t-28 -86t-24 -75t-17.5 -54t-7 -23h-62l-110 371q-22 78 -45 159.5t-46 153.5h111q20 -76 37 -139.5t35 -128.5q17 -60 33.5 -125t36.5 -137h2q0 2 10 33t24.5 76.5t31.5 98.5t31 98.5t24 76.5t10 32l-6.5 18
t-14 39t-14 39t-6.5 19h114q10 -39 19.5 -71.5t19 -62.5t18.5 -59.5t19 -61.5q17 -61 39 -132t44 -143h2q19 66 39.5 137t40.5 136q21 66 39.5 129t33.5 128h85q-10 -30 -21.5 -65t-23.5 -72.5t-25 -76t-25 -75.5q-17 -51 -35 -104t-35.5 -105t-34 -99.5t-29.5 -86.5h-60
q-23 74 -45 143t-41.5 130t-36 112t-28.5 88h-2zM523 723q-44 29 -84 56.5t-76 50.5l54 59q27 -26 62.5 -60t76.5 -72z" />
    <glyph glyph-name="wgrave" unicode="&#x1e81;" horiz-adv-x="726" 
d="M361 328q-14 -36 -29 -77.5t-30 -84.5t-29.5 -85.5t-26.5 -80.5h-79q-21 62 -38.5 121t-34.5 117t-34.5 115.5t-38.5 116.5h101l104 -372h2q16 44 33 94.5t33 100t31 95.5t26 82h54q15 -51 28.5 -94.5t27.5 -86.5t29 -89t34 -102h2q19 59 34 108t28 93t24.5 85.5
t23.5 85.5h69q-19 -51 -36.5 -103t-36.5 -109t-40 -120.5t-46 -137.5h-80q-15 48 -28.5 89t-26 80t-24.5 77.5t-25 81.5h-1zM385 525q-23 42 -44 78t-43 76l76 25q10 -37 22.5 -74.5t28.5 -91.5z" />
    <glyph glyph-name="Wacute" unicode="&#x1e82;" horiz-adv-x="914" 
d="M446 473q0 -1 -7 -21.5t-17.5 -53.5t-24 -74.5t-28 -85.5t-28 -86t-24 -75t-17.5 -54t-7 -23h-62l-110 371q-22 78 -45 159.5t-46 153.5h111q20 -76 37 -139.5t35 -128.5q17 -60 33.5 -125t36.5 -137h2q0 2 10 33t24.5 76.5t31.5 98.5t31 98.5t24 76.5t10 32l-6.5 18
t-14 39t-14 39t-6.5 19h114q10 -39 19.5 -71.5t19 -62.5t18.5 -59.5t19 -61.5q17 -61 39 -132t44 -143h2q19 66 39.5 137t40.5 136q21 66 39.5 129t33.5 128h85q-10 -30 -21.5 -65t-23.5 -72.5t-25 -76t-25 -75.5q-17 -51 -35 -104t-35.5 -105t-34 -99.5t-29.5 -86.5h-60
q-23 74 -45 143t-41.5 130t-36 112t-28.5 88h-2zM373 766q40 38 76 72t63 60l53 -59q-36 -23 -75.5 -50.5t-83.5 -56.5z" />
    <glyph glyph-name="wacute" unicode="&#x1e83;" horiz-adv-x="726" 
d="M361 328q-14 -36 -29 -77.5t-30 -84.5t-29.5 -85.5t-26.5 -80.5h-79q-21 62 -38.5 121t-34.5 117t-34.5 115.5t-38.5 116.5h101l104 -372h2q16 44 33 94.5t33 100t31 95.5t26 82h54q15 -51 28.5 -94.5t27.5 -86.5t29 -89t34 -102h2q19 59 34 108t28 93t24.5 85.5
t23.5 85.5h69q-19 -51 -36.5 -103t-36.5 -109t-40 -120.5t-46 -137.5h-80q-15 48 -28.5 89t-26 80t-24.5 77.5t-25 81.5h-1zM284 538q16 54 28.5 91.5t23.5 74.5l75 -25q-21 -40 -42.5 -76t-43.5 -78z" />
    <glyph glyph-name="Wdieresis" unicode="&#x1e84;" horiz-adv-x="914" 
d="M446 473q0 -1 -7 -21.5t-17.5 -53.5t-24 -74.5t-28 -85.5t-28 -86t-24 -75t-17.5 -54t-7 -23h-62l-110 371q-22 78 -45 159.5t-46 153.5h111q20 -76 37 -139.5t35 -128.5q17 -60 33.5 -125t36.5 -137h2q0 2 10 33t24.5 76.5t31.5 98.5t31 98.5t24 76.5t10 32l-6.5 18
t-14 39t-14 39t-6.5 19h114q10 -39 19.5 -71.5t19 -62.5t18.5 -59.5t19 -61.5q17 -61 39 -132t44 -143h2q19 66 39.5 137t40.5 136q21 66 39.5 129t33.5 128h85q-10 -30 -21.5 -65t-23.5 -72.5t-25 -76t-25 -75.5q-17 -51 -35 -104t-35.5 -105t-34 -99.5t-29.5 -86.5h-60
q-23 74 -45 143t-41.5 130t-36 112t-28.5 88h-2zM287 787q0 19 14 33.5t34 14.5t34.5 -14.5t14.5 -33.5q0 -20 -14.5 -34t-34.5 -14t-34 14t-14 34zM498 787q0 19 14 33.5t34 14.5q19 0 33.5 -14.5t14.5 -33.5q0 -20 -14.5 -34t-33.5 -14q-20 0 -34 14t-14 34z" />
    <glyph glyph-name="wdieresis" unicode="&#x1e85;" horiz-adv-x="726" 
d="M361 328q-14 -36 -29 -77.5t-30 -84.5t-29.5 -85.5t-26.5 -80.5h-79q-21 62 -38.5 121t-34.5 117t-34.5 115.5t-38.5 116.5h101l104 -372h2q16 44 33 94.5t33 100t31 95.5t26 82h54q15 -51 28.5 -94.5t27.5 -86.5t29 -89t34 -102h2q19 59 34 108t28 93t24.5 85.5
t23.5 85.5h69q-19 -51 -36.5 -103t-36.5 -109t-40 -120.5t-46 -137.5h-80q-15 48 -28.5 89t-26 80t-24.5 77.5t-25 81.5h-1zM218 621q0 20 14 34.5t34 14.5t34.5 -14.5t14.5 -34.5t-14.5 -34t-34.5 -14t-34 14t-14 34zM410 621q0 20 14 34.5t34 14.5t34.5 -14.5t14.5 -34.5
t-14.5 -34t-34.5 -14t-34 14t-14 34z" />
    <glyph glyph-name="Ygrave" unicode="&#x1ef2;" horiz-adv-x="592" 
d="M240 0l3 286q-28 48 -55.5 94.5t-55.5 95t-57 100t-60 108.5h112q53 -103 100 -182.5t83 -147.5q31 50 56.5 94.5t47.5 85t42.5 77.5t40.5 73h81q-60 -95 -117.5 -192.5t-118.5 -199.5q0 -66 0.5 -135.5t2.5 -156.5h-105zM360 732q-44 29 -84 56.5t-75 50.5l53 59
q27 -26 62.5 -60t76.5 -72z" />
    <glyph glyph-name="ygrave" unicode="&#x1ef3;" horiz-adv-x="489" 
d="M264 96q24 60 44.5 111.5t38 97t32.5 86.5t28 79h71q-13 -33 -33 -81.5t-43.5 -105.5t-50 -120l-53 -126t-51 -122.5t-45.5 -109.5h-77q13 26 28 57.5t28 58.5q15 32 29 62q-23 57 -48.5 120.5t-52 128t-51 126t-44.5 112.5h107q17 -49 34 -94t34 -89.5t35 -91t38 -99.5
h2zM268 525q-23 42 -44 78t-43 76l76 25q10 -37 22.5 -74.5t28.5 -91.5z" />
    <glyph glyph-name="uni2009" unicode="&#x2009;" horiz-adv-x="115" 
 />
    <glyph glyph-name="endash" unicode="&#x2013;" horiz-adv-x="547" 
d="M74 299h400v-45h-400v45z" />
    <glyph glyph-name="emdash" unicode="&#x2014;" horiz-adv-x="735" 
d="M74 299h587v-45h-587v45z" />
    <glyph glyph-name="quoteleft" unicode="&#x2018;" horiz-adv-x="252" 
d="M104 442q-14 15 -22 37.5t-8 53.5q0 51 31.5 96t82.5 77l18 -32q-17 -12 -30 -24t-22 -25.5t-13.5 -30t-4.5 -39.5t10 -41.5t29 -36.5z" />
    <glyph glyph-name="quoteright" unicode="&#x2019;" horiz-adv-x="252" 
d="M148 706q30 -33 30 -91q0 -52 -31.5 -96.5t-82.5 -76.5l-18 31q17 12 30 23.5t22 25t13.5 30.5t4.5 40t-10 41.5t-29 36.5z" />
    <glyph glyph-name="quotesinglbase" unicode="&#x201a;" horiz-adv-x="252" 
d="M148 113q30 -32 30 -91q0 -51 -31.5 -96t-82.5 -77l-18 31q17 13 30 24.5t22 25t13.5 30.5t4.5 40q0 22 -10 40.5t-29 36.5z" />
    <glyph glyph-name="quotedblleft" unicode="&#x201c;" horiz-adv-x="390" 
d="M104 442q-14 15 -22 37.5t-8 53.5q0 51 31.5 96t82.5 77l18 -32q-17 -12 -30 -24t-22 -25.5t-13.5 -30t-4.5 -39.5t10 -41.5t29 -36.5zM242 442q-14 15 -22 37.5t-8 53.5q0 51 31.5 96t82.5 77l18 -32q-17 -12 -30 -24t-22 -25.5t-13.5 -30t-4.5 -39.5t10 -41.5t29 -36.5
z" />
    <glyph glyph-name="quotedblright" unicode="&#x201d;" horiz-adv-x="390" 
d="M148 706q30 -33 30 -91q0 -52 -31.5 -96.5t-82.5 -76.5l-18 31q17 12 30 23.5t22 25t13.5 30.5t4.5 40t-10 41.5t-29 36.5zM286 706q30 -33 30 -91q0 -52 -31.5 -96.5t-82.5 -76.5l-18 31q17 12 30 23.5t22 25t13.5 30.5t4.5 40t-10 41.5t-29 36.5z" />
    <glyph glyph-name="quotedblbase" unicode="&#x201e;" horiz-adv-x="390" 
d="M148 114q30 -32 30 -91q0 -51 -31.5 -96t-82.5 -77l-18 31q17 12 30 24t22 25.5t13.5 30.5t4.5 40q0 22 -10 40.5t-29 36.5zM286 114q30 -32 30 -91q0 -51 -31.5 -96t-82.5 -77l-18 31q17 12 30 24t22 25.5t13.5 30.5t4.5 40q0 22 -10 40.5t-29 36.5z" />
    <glyph glyph-name="dagger" unicode="&#x2020;" horiz-adv-x="504" 
d="M467 469q-43 0 -68.5 0.5t-44 1t-33.5 1t-37 0.5v-77.5v-104t0.5 -118t0.5 -118.5t0.5 -106t1.5 -81h-70q0 32 0.5 80.5t1 106t0.5 118.5t0.5 117.5t0.5 104.5v78h-37t-34.5 -0.5t-44 -1t-67.5 -1.5v62q43 -1 68.5 -1.5t43.5 -1t33 -0.5h38v39t-0.5 37t-1 47t-1.5 69h70
q-1 -44 -1.5 -70.5t-1 -45.5t-0.5 -35.5v-40.5h36.5t34.5 0.5t45 1t67 1.5v-62z" />
    <glyph glyph-name="daggerdbl" unicode="&#x2021;" horiz-adv-x="504" 
d="M220 472h-37t-34.5 -0.5t-44 -1t-67.5 -1.5v62q43 -1 68.5 -1.5t43.5 -1t33 -0.5h37q0 50 -0.5 99t-1.5 93h70q-1 -45 -1.5 -93.5t-0.5 -98.5h36t34.5 0.5t44.5 1t67 1.5v-62q-42 0 -68 0.5t-44 1t-33.5 1t-37.5 0.5v-349h36.5t34.5 0.5t45 1t67 1.5v-62q-42 0 -68 0.5
t-44 1t-33.5 1t-36.5 0.5q0 -54 0.5 -105t1.5 -96h-70q1 44 1.5 95.5t0.5 105.5h-36.5t-34 -0.5t-44 -1t-67.5 -1.5v62q43 -1 68.5 -1.5t43.5 -1t33 -0.5h38v349v0z" />
    <glyph glyph-name="bullet" unicode="&#x2022;" horiz-adv-x="302" 
d="M55 313q0 19 7.5 36.5t20.5 30.5t30.5 20.5t37.5 7.5q19 0 36.5 -7.5t31 -20.5t21 -30.5t7.5 -36.5q0 -20 -7.5 -37.5t-21 -30.5t-31 -20.5t-36.5 -7.5q-40 0 -68 28t-28 68z" />
    <glyph glyph-name="ellipsis" unicode="&#x2026;" horiz-adv-x="965" 
d="M110 51q0 23 17 40t40 17t40 -17t17 -40t-17 -40t-40 -17t-40 17t-17 40zM426 51q0 23 16.5 40t39.5 17t40 -17t17 -40t-17 -40t-40 -17t-39.5 17t-16.5 40zM742 51q0 23 16.5 40t39.5 17t40 -17t17 -40t-17 -40t-40 -17t-39.5 17t-16.5 40z" />
    <glyph glyph-name="perthousand" unicode="&#x2030;" horiz-adv-x="1223" 
d="M55 501q0 45 11 81t31 61.5t47.5 39.5t60.5 14t61 -13.5t48.5 -38.5t32 -59t11.5 -74q0 -94 -41.5 -145t-107.5 -51q-34 0 -62 13.5t-48.5 38.5t-32 58.5t-11.5 74.5zM128 508q0 -81 18 -122t63 -41q46 0 61 41.5t15 118.5q0 81 -16.5 122t-63.5 41q-44 0 -60.5 -41.5
t-16.5 -118.5zM693 689q-29 -41 -64 -91.5t-68.5 -100.5t-64 -95t-50.5 -75t-51.5 -75t-66 -95t-69 -100.5t-60.5 -92.5l-41 28q29 41 64.5 91t70 99.5t65 93.5t50.5 74q21 30 52 75.5t65 96.5t67.5 102t59.5 93zM799 179q0 -45 -11 -81t-31 -61.5t-47 -39.5t-60 -14
t-61.5 14t-48.5 38.5t-31.5 58.5t-11.5 75q0 94 41.5 145t107.5 51q34 0 62 -13.5t48 -38.5t31.5 -59t11.5 -75zM727 173q0 81 -18 122t-63 41q-46 0 -61.5 -41.5t-15.5 -118.5q0 -81 17 -122t64 -41q43 0 60 41.5t17 118.5zM1167 179q0 -45 -11 -81t-31 -61.5t-47 -39.5
t-60 -14t-61.5 14t-48.5 38.5t-31.5 58.5t-11.5 75q0 94 41.5 145t107.5 51q34 0 62 -13.5t48 -38.5t31.5 -59t11.5 -75zM1095 173q0 81 -18 122t-63 41q-46 0 -61.5 -41.5t-15.5 -118.5q0 -81 17 -122t64 -41q43 0 60 41.5t17 118.5z" />
    <glyph glyph-name="guilsinglleft" unicode="&#x2039;" horiz-adv-x="302" 
d="M44 274q23 19 45.5 36.5t46 37t48 41.5t52.5 50l17 -14q-30 -43 -57.5 -79.5t-57.5 -80.5v-5q30 -44 57.5 -80.5t57.5 -79.5l-17 -14q-28 28 -52.5 50.5t-48 41.5t-46 36.5t-45.5 36.5v23z" />
    <glyph glyph-name="guilsinglright" unicode="&#x203a;" horiz-adv-x="302" 
d="M258 251q-23 -19 -45.5 -36.5t-46 -36.5t-48.5 -41.5t-53 -50.5l-16 14q29 43 57 79.5t58 80.5v5q-30 44 -58 80.5t-57 79.5l16 14q28 -28 53 -50t48.5 -41.5t46 -37t45.5 -36.5v-23z" />
    <glyph glyph-name="fraction" unicode="&#x2044;" horiz-adv-x="184" 
d="M-157 -23q26 43 57 95.5l62 105t58.5 99.5t46.5 79q18 31 45.5 78t58 99t60.5 104.5t53 96.5l48 -27q-26 -43 -58 -95.5t-63.5 -104t-59 -98t-45.5 -77.5q-19 -32 -46 -79.5t-57 -100.5t-59.5 -106.5t-52.5 -96.5z" />
    <glyph glyph-name="Euro" unicode="&#x20ac;" horiz-adv-x="588" 
d="M362 230q-38 1 -75.5 1h-73.5q17 -90 53.5 -136t110.5 -46q45 0 82 19.5t60 57.5l41 -36q-12 -19 -29.5 -37t-41.5 -32.5t-55 -23t-71 -8.5q-54 0 -96.5 17.5t-74 49.5t-52 76.5t-30.5 98.5q-17 0 -37 -0.5t-50 -0.5v58h80q-1 11 -1 21.5v21.5q0 14 0.5 26.5t1.5 25.5
q-15 0 -34 -0.5t-47 -0.5v59q30 0 51.5 -0.5t38.5 -0.5q12 58 36.5 105.5t59 81t78.5 51.5t94 18q54 0 95.5 -10t69.5 -27l-42 -74q-21 29 -48.5 45t-81.5 16q-73 0 -112.5 -55.5t-50.5 -150.5h53t58.5 0.5t56.5 0.5h47l-9 -59q-21 0 -47.5 0.5t-55 0.5h-56.5h-52
q-1 -10 -1 -19.5v-19.5v-29t2 -28q38 0 81.5 0.5t82.5 0.5z" />
    <glyph glyph-name="trademark" unicode="&#x2122;" horiz-adv-x="680" 
d="M566 527v45t-1 53h-3q-11 -35 -19 -60.5t-16.5 -51t-18.5 -56t-24 -76.5h-39q-15 43 -24.5 72t-18 54.5t-16.5 52.5t-20 65h-4v-102q0 -32 1 -70.5t3 -82.5h-38q0 47 0.5 87.5t0.5 73.5v76.5t-1 76.5h90q9 -34 17 -60t15 -49.5t15 -47.5t17 -54q10 33 18 58t15.5 49
t15 48.5t15.5 55.5h84q-1 -16 -1.5 -36.5t-0.5 -41.5v-42v-37v-72.5t1 -84.5h-64q1 47 1 85v72zM290 651q-18 0 -46.5 0.5t-58.5 0.5v-125v-72.5t1 -84.5h-63q1 47 1 85v72v125q-32 0 -59.5 -0.5t-46.5 -0.5q0 8 0.5 16.5t0.5 16.5h270z" />
    <glyph glyph-name="onethird" unicode="&#x2153;" horiz-adv-x="828" 
d="M128 -23q26 43 57.5 95.5t62 105t58.5 99.5t46 79q18 31 45.5 78t58 99t60.5 104.5t53 96.5l48 -27q-26 -43 -58 -95.5t-63.5 -104t-59 -98t-45.5 -77.5q-19 -32 -46 -79.5t-57 -100.5t-59.5 -106.5t-52.5 -96.5zM125 624l-101 -11v39q22 4 47.5 10t49.5 12l46 11.5
t38 10.5l8 -9v-47.5t-0.5 -61t-0.5 -61.5v-49v-55v-60.5t0.5 -58.5t1.5 -49h-90q0 21 0.5 49t0.5 58.5v60.5v55v156zM796 132q0 -66 -46.5 -102t-130.5 -36q-41 0 -72.5 10t-56.5 27l29 50q14 -20 42 -34t55 -14q53 -1 72 22.5t19 73.5q0 40 -20 59t-64 19q-14 0 -25 -2.5
t-25 -6.5l-14 34q25 10 48 20t39.5 23.5t26.5 32t10 45.5q0 26 -15.5 41.5t-47.5 15.5q-26 0 -52.5 -14t-40.5 -34l-25 48q25 21 58.5 31t69.5 10q69 0 102 -28.5t33 -67.5q0 -21 -9.5 -38.5t-25 -31t-36.5 -23t-43 -15.5q73 -5 109 -37t36 -78z" />
    <glyph glyph-name="twothirds" unicode="&#x2154;" horiz-adv-x="828" 
d="M189 -23q26 43 57 95.5l62 105t58.5 99.5t46.5 79q18 31 45.5 78t58 99t60.5 104.5t53 96.5l48 -27q-26 -43 -58 -95.5t-63.5 -104t-59 -98t-45.5 -77.5q-19 -32 -46.5 -79.5t-57.5 -100.5t-59.5 -106.5t-52.5 -96.5zM814 132q0 -66 -46 -102t-130 -36q-42 0 -73.5 10
t-55.5 27l28 50q15 -20 42.5 -34t55.5 -14q53 -1 71.5 22.5t18.5 73.5q0 40 -20 59t-64 19q-14 0 -24.5 -2.5t-24.5 -6.5l-14 34q25 10 47.5 20t39 23.5t26.5 32t10 45.5q0 26 -15 41.5t-48 15.5q-26 0 -48.5 -13.5t-35.5 -33.5l-25 48q25 21 54.5 30.5t65.5 9.5
q69 0 101.5 -28.5t32.5 -67.5q0 -21 -9 -38.5t-25 -31t-36.5 -23t-42.5 -15.5q72 -5 108 -37t36 -78zM145 656q-28 0 -55.5 -13t-45.5 -37l-22 55q23 15 53 26.5t75 11.5q74 0 120 -29.5t46 -93.5q0 -84 -89 -173q-11 -11 -23.5 -23t-26 -24t-26 -22.5t-22.5 -17.5
q23 0 55 1t62.5 1.5t55.5 1.5t35 1q-2 -7 -5.5 -19t-6.5 -24q-4 -14 -8 -30h-287l-1 34q45 37 78.5 69t59.5 64q35 42 50 82t15 77q0 27 -5.5 43t-17 24.5t-27.5 11.5t-37 3z" />
    <glyph glyph-name="oneeighth" unicode="&#x215b;" horiz-adv-x="828" 
d="M128 -23q26 43 57.5 95.5t62 105t58.5 99.5t46 79q18 31 45.5 78t58 99t60.5 104.5t53 96.5l48 -27q-26 -43 -58 -95.5t-63.5 -104t-59 -98t-45.5 -77.5q-19 -32 -46 -79.5t-57 -100.5t-59.5 -106.5t-52.5 -96.5zM125 624l-101 -11v39q22 4 47.5 10t49.5 12l46 11.5
t38 10.5l8 -9v-47.5t-0.5 -61t-0.5 -61.5v-49v-55v-60.5t0.5 -58.5t1.5 -49h-90q0 21 0.5 49t0.5 58.5v60.5v55v156zM631 451q60 0 98.5 -27.5t38.5 -75.5q0 -35 -23 -60t-58 -42q41 -23 70 -50.5t29 -72.5q0 -25 -10 -48t-30 -41t-49.5 -29t-69.5 -11q-33 0 -61 7.5
t-48.5 21.5t-32.5 33t-12 43q0 21 8 38t20.5 30.5t29 24t33.5 18.5q-40 26 -57.5 55t-17.5 66q0 27 12 49.5t32 38t45.5 24t52.5 8.5zM712 93q0 18 -8.5 31t-24 23.5t-37.5 21t-49 23.5q-26 -15 -41.5 -36.5t-15.5 -50.5q0 -19 7.5 -33t20.5 -23.5t29.5 -14.5t33.5 -5
q40 0 62.5 16.5t22.5 47.5zM557 355q0 -17 6.5 -29.5t19.5 -23t31 -20t42 -21.5q23 15 37.5 39.5t14.5 53.5q0 32 -19.5 46.5t-58.5 14.5q-30 0 -51.5 -16t-21.5 -44z" />
    <glyph glyph-name="threeeighths" unicode="&#x215c;" horiz-adv-x="828" 
d="M171 -23q26 43 57.5 95.5t62.5 105t58.5 99.5t46.5 79q18 31 45 78t57.5 99t61 104.5t53.5 96.5l48 -27q-26 -43 -58 -95.5t-63.5 -104t-59.5 -98t-46 -77.5q-18 -32 -45.5 -79.5t-57.5 -100.5t-59.5 -106.5t-52.5 -96.5zM650 451q60 0 98.5 -27.5t38.5 -75.5
q0 -35 -23 -60t-58 -42q20 -12 38 -24t31.5 -26.5t21 -32.5t7.5 -40q0 -25 -10 -48t-29.5 -41t-49.5 -29t-70 -11q-33 0 -61 7.5t-48.5 21.5t-32.5 33t-12 43q0 21 8 38t20.5 30.5t29 24t33.5 18.5q-40 26 -57 55t-17 66q0 27 12 49.5t32 38t45.5 24t52.5 8.5zM730 93
q0 18 -8.5 31t-23.5 23.5t-37 21t-49 23.5q-27 -15 -42 -36.5t-15 -50.5q0 -19 7.5 -33t20 -23.5t29 -14.5t33.5 -5q40 0 62.5 16.5t22.5 47.5zM575 355q0 -17 6.5 -29.5t19.5 -23t31.5 -20t41.5 -21.5q23 15 38 39.5t15 53.5q0 32 -20 46.5t-58 14.5q-31 0 -52.5 -16
t-21.5 -44zM327 377q0 -66 -46.5 -102.5t-130.5 -36.5q-41 0 -73 10.5t-56 27.5l29 50q14 -20 41.5 -34t55.5 -14q53 -1 71.5 22.5t18.5 73.5q0 40 -19.5 59t-63.5 19q-15 0 -25.5 -2.5t-24.5 -6.5l-14 34q25 10 47.5 20t39 23.5t26.5 32t10 45.5q0 26 -15 41.5t-47 15.5
q-26 0 -53 -14t-40 -34l-25 48q25 21 58.5 31t69.5 10q69 0 101.5 -29t32.5 -67q0 -21 -9 -38.5t-25 -31t-36.5 -23.5t-42.5 -16q73 -5 109 -36.5t36 -77.5z" />
    <glyph glyph-name="fiveeighths" unicode="&#x215d;" horiz-adv-x="828" 
d="M169 -23q26 43 57.5 95.5t62.5 105t58.5 99.5t46.5 79q18 31 45.5 78t58 99t60.5 104.5t53 96.5l48 -27q-26 -43 -58 -95.5t-63.5 -104t-59.5 -98t-46 -77.5q-18 -32 -45.5 -79.5t-57.5 -100.5t-59.5 -106.5t-52.5 -96.5zM650 451q60 0 98.5 -27.5t38.5 -75.5
q0 -35 -23 -60t-58 -42q20 -12 38 -24t31.5 -26.5t21 -32.5t7.5 -40q0 -25 -10 -48t-29.5 -41t-49.5 -29t-70 -11q-33 0 -61 7.5t-48.5 21.5t-32.5 33t-12 43q0 21 8 38t20.5 30.5t29 24t33.5 18.5q-40 26 -57 55t-17 66q0 27 12 49.5t32 38t45.5 24t52.5 8.5zM730 93
q0 18 -8.5 31t-23.5 23.5t-37 21t-49 23.5q-27 -15 -42 -36.5t-15 -50.5q0 -19 7.5 -33t20 -23.5t29 -14.5t33.5 -5q40 0 62.5 16.5t22.5 47.5zM575 355q0 -17 6.5 -29.5t19.5 -23t31.5 -20t41.5 -21.5q23 15 38 39.5t15 53.5q0 32 -20 46.5t-58 14.5q-31 0 -52.5 -16
t-21.5 -44zM127 545q31 -7 66.5 -20t65.5 -33t49.5 -47.5t19.5 -63.5q0 -30 -11 -56t-32 -45.5t-52.5 -30.5t-71.5 -11q-37 0 -74 10.5t-60 27.5l26 63q9 -10 21.5 -20.5t27 -18.5t30 -13.5t29.5 -5.5q45 0 69 19.5t24 59.5q0 27 -17 47t-43.5 34.5t-59.5 25t-66 17.5
l34 203h224q-2 -11 -5.5 -33.5t-4.5 -38.5q-10 0 -32 1t-48 1.5l-52 1t-45 0.5z" />
    <glyph glyph-name="seveneighths" unicode="&#x215e;" horiz-adv-x="828" 
d="M160 -23q26 43 57.5 95.5t62.5 105t58.5 99.5t46.5 79q18 31 45 78t57.5 99t61 104.5t53.5 96.5l48 -27q-26 -43 -58 -95.5t-63.5 -104t-59.5 -98t-46 -77.5q-18 -32 -45.5 -79.5t-57.5 -100.5t-59.5 -106.5t-52.5 -96.5zM650 451q60 0 98.5 -27.5t38.5 -75.5
q0 -35 -23 -60t-58 -42q20 -12 38 -24t31.5 -26.5t21 -32.5t7.5 -40q0 -25 -10 -48t-29.5 -41t-49.5 -29t-70 -11q-33 0 -61 7.5t-48.5 21.5t-32.5 33t-12 43q0 21 8 38t20.5 30.5t29 24t33.5 18.5q-40 26 -57 55t-17 66q0 27 12 49.5t32 38t45.5 24t52.5 8.5zM730 93
q0 18 -8.5 31t-23.5 23.5t-37 21t-49 23.5q-27 -15 -42 -36.5t-15 -50.5q0 -19 7.5 -33t20 -23.5t29 -14.5t33.5 -5q40 0 62.5 16.5t22.5 47.5zM575 355q0 -17 6.5 -29.5t19.5 -23t31.5 -20t41.5 -21.5q23 15 38 39.5t15 53.5q0 32 -20 46.5t-58 14.5q-31 0 -52.5 -16
t-21.5 -44zM108 245q35 62 64.5 111t55.5 91.5t48 83t42 86.5q-20 0 -57 -0.5t-76 -1t-71 -0.5h-41q2 11 3.5 23t3.5 23q2 12 3 26h299l5 -16q-22 -47 -43 -91t-44.5 -93t-52.5 -107.5t-68 -134.5h-71z" />
    <glyph glyph-name="minus" unicode="&#x2212;" horiz-adv-x="584" 
d="M520 247h-456v48h456v-48z" />
    <glyph glyph-name="radical" unicode="&#x221a;" horiz-adv-x="766" 
 />
    <glyph glyph-name="notequal" unicode="&#x2260;" horiz-adv-x="584" 
d="M398 494l-38 -107h160v-48h-178l-49 -136h227v-48h-245l-45 -124l-45 17l39 107h-160v48h177l50 136h-227v48h244l45 124z" />
    <glyph glyph-name="lessequal" unicode="&#x2264;" horiz-adv-x="580" 
d="M524 165l-455 165v48l455 184v-54l-384 -154l384 -135v-54zM524 135v-48h-455v48h455z" />
    <glyph glyph-name="greaterequal" unicode="&#x2265;" horiz-adv-x="580" 
d="M55 219l385 135l-385 154v54l456 -184v-48l-456 -165v54zM511 135v-48h-456v48h456z" />
    <glyph glyph-name="Pcircle" unicode="&#x24c5;" horiz-adv-x="897" 
d="M54 229q0 82 31 154.5t84 126.5t125 85t154 31t154 -31t125.5 -85t84.5 -126.5t31 -154.5t-31 -154t-84.5 -126t-125.5 -85t-154 -31t-154 31t-125 85t-84 126t-31 154zM97 229q0 -74 27 -139t74.5 -114t111.5 -77t138 -28t138 28t111.5 77t75 114t27.5 139t-27.5 139.5
t-75 114t-111.5 77t-138 28.5t-138 -28.5t-111.5 -77t-74.5 -114t-27 -139.5zM314 -16q1 71 1.5 133t0.5 113v107.5t-2 125.5h161q68 0 111 -35t43 -103q0 -30 -10.5 -56t-32 -45t-55.5 -30t-81 -11h-54v-94t1 -105h-83zM440 223q106 0 106 102q0 29 -8 48t-22 30.5
t-32.5 16t-40.5 4.5q-15 0 -25 -1t-21 -2v-99q-1 -23 -1 -47.5v-51.5h44z" />
    <glyph glyph-name="DEL" horiz-adv-x="0" 
 />
    <glyph glyph-name="Oacute.pl" horiz-adv-x="737" 
d="M366 696q69 0 128.5 -25t103.5 -70t69 -108.5t25 -140.5q0 -84 -24.5 -151.5t-68 -114.5t-102 -72.5t-126.5 -25.5q-69 0 -128.5 25t-103.5 70t-69 108t-25 140q0 84 25 152t68 115t101.5 72.5t126.5 25.5zM371 40q56 0 95.5 21.5t65 60.5t37.5 94t12 123q0 144 -54 224
t-161 80q-56 0 -96 -21.5t-65.5 -61t-37.5 -94.5t-12 -122q0 -143 54.5 -223.5t161.5 -80.5zM324 731l45 150h80q-10 -18 -19 -35t-19 -34.5t-20 -36.5t-21 -43z" />
    <glyph glyph-name="space_uni0326" 
d="M201 -21q11 -15 18 -35.5t7 -41.5q0 -29 -23.5 -54.5t-56.5 -43.5l-18 26q14 8 24.5 26.5t10.5 41.5q0 12 -6.5 28.5t-17.5 27.5z" />
    <glyph glyph-name="acute.pl" 
d="M140 537q16 53 34.5 91.5t28.5 75.5h76q-20 -38 -45 -78.5t-48 -88.5h-46z" />
    <glyph glyph-name="Cacute.pl" horiz-adv-x="669" 
d="M382 696q51 0 88.5 -8t65.5 -20.5t48 -29t37 -32.5l-54 -62q-16 19 -33.5 37t-40 32t-51 22.5t-66.5 8.5q-45 0 -85 -17t-70 -52.5t-48 -90.5t-18 -132q0 -73 18 -129t50.5 -94t76.5 -57.5t96 -19.5q68 0 116 31t80 75l45 -37q-20 -26 -44.5 -50t-55.5 -42t-70.5 -29
t-90.5 -11q-75 0 -136.5 26t-105 72.5t-67 110.5t-23.5 141q0 84 26 150.5t71 112.5t107 70t134 24zM342 722q8 27 14 46.5t11.5 36.5t10 33t9.5 34h80q-9 -19 -18.5 -35.5t-19 -34t-19.5 -36.5t-22 -43z" />
    <glyph glyph-name="Nacute.pl" horiz-adv-x="722" 
d="M566 0q-38 49 -87 115.5t-103.5 141.5t-111.5 153t-112 151v-213q0 -74 0.5 -161t2.5 -187h-72q2 101 3 193t1 187q0 54 -0.5 97.5t-2 80t-3 67t-2.5 59.5h117q51 -74 96 -138.5t90 -125.5t91.5 -122.5t100.5 -130.5q1 52 1 98.5v88.5q0 74 -0.5 152t-3.5 178h71
q-2 -101 -2.5 -180.5t-0.5 -152.5v-162t1 -189h-74zM325 731l45 150h80q-10 -18 -19 -35t-19 -34.5t-20 -36.5t-21 -43z" />
    <glyph glyph-name="Sacute.pl" horiz-adv-x="558" 
d="M256 -11q-69 0 -124.5 23.5t-87.5 52.5l40 79q35 -50 81.5 -76.5t104.5 -26.5q69 0 105.5 31t36.5 82q0 28 -6.5 48.5t-23.5 38t-46 33.5t-74 34q-42 18 -76.5 35.5t-59 41t-38 54.5t-13.5 76q0 42 16.5 75.5t45 57t66 36t79.5 12.5q69 0 114.5 -11.5t80.5 -37.5l-37 -79
q-32 36 -68 54.5t-90 18.5t-86.5 -25.5t-32.5 -70.5q0 -23 6 -42t21 -35.5t41 -31.5t67 -31q55 -22 94 -42.5t63.5 -44.5t36 -54t11.5 -71q0 -43 -15 -80.5t-45.5 -65t-77 -43t-109.5 -15.5zM250 731q8 27 14 47t11.5 37t10 32.5t9.5 33.5h80q-9 -18 -18.5 -35t-19 -34.5
t-19.5 -36.5t-22 -43z" />
    <glyph glyph-name="cacute.pl" horiz-adv-x="470" 
d="M140 236q0 -48 12 -84.5t33 -61t48.5 -37t59.5 -12.5q26 0 45 5.5t34 14.5t27 21t24 26l27 -24q-25 -42 -69 -68.5t-111 -26.5q-38 0 -79 14t-74.5 43t-55 73.5t-21.5 104.5q0 63 22.5 111.5t58.5 81t80 49t88 16.5q52 0 89.5 -11.5t64.5 -37.5l-38 -63q-21 29 -46 49.5
t-66 20.5q-31 0 -59 -12t-49 -37t-33 -63.5t-12 -91.5zM213 537q17 54 35 92t29 75h75q-19 -38 -44.5 -78.5t-48.5 -88.5h-46z" />
    <glyph glyph-name="idotaccent" horiz-adv-x="240" 
d="M78 236q0 39 -0.5 69t-1 56t-1 49.5t-0.5 47.5l98 19q0 -58 -1.5 -119t-1.5 -122q0 -39 0.5 -68.5t1 -56l1 -53t0.5 -58.5h-98q0 32 0.5 58.5l1 53t1 56t0.5 68.5zM64 653q0 23 16.5 39.5t39.5 16.5t39.5 -16.5t16.5 -39.5t-16.5 -39t-39.5 -16t-39.5 16t-16.5 39z" />
    <glyph glyph-name="nacute.pl" horiz-adv-x="537" 
d="M67 236q0 39 -0.5 68t-1 54t-1 47t-0.5 47l94 18q0 -14 -0.5 -27.5t-0.5 -24.5q10 8 21.5 15.5t24.5 15.5q26 14 54 23.5t54 9.5q91 0 128 -42.5t37 -127.5q0 -14 -0.5 -36.5t-0.5 -39.5q0 -39 0.5 -68.5t0.5 -56t0.5 -53t0.5 -58.5h-98q0 32 0.5 58.5l1 53t1 56
t0.5 68.5q0 27 -0.5 46.5t-0.5 39.5q0 100 -105 100q-29 0 -60 -12.5t-56 -30.5q-1 -31 -1 -64.5v-78.5q0 -39 0.5 -68.5t1 -56l1 -53t0.5 -58.5h-98q0 32 0.5 58.5l1 53t1 56t0.5 68.5zM223 537q16 53 34 91.5t29 75.5h76q-20 -38 -45 -78.5t-48 -88.5h-46z" />
    <glyph glyph-name="oacute.pl" horiz-adv-x="558" 
d="M279 30q36 0 63 17t45 45.5t26.5 66t8.5 79.5q0 96 -40 150t-103 54q-40 0 -67.5 -17t-44.5 -46t-24.5 -67t-7.5 -80q0 -48 12 -85.5t32 -63.5t46 -39.5t54 -13.5zM279 482q42 0 85 -14.5t78 -44.5t57 -76.5t22 -110.5q0 -60 -20 -106.5t-54 -77.5t-77.5 -47t-90.5 -16
q-42 0 -85 14t-78 44t-57 76.5t-22 110.5q0 61 20 107t54 77.5t77.5 47.5t90.5 16zM232 537q16 53 34.5 91.5t28.5 75.5h76q-20 -38 -45 -78.5t-48 -88.5h-46z" />
    <glyph glyph-name="sacute.pl" horiz-adv-x="413" 
d="M201 -11q-51 0 -92 12t-70 35l27 67q26 -31 58 -51.5t77 -20.5q25 0 43.5 6.5t30 17t17 23t5.5 23.5q0 18 -5.5 30t-18 22.5t-32.5 20.5t-50 23q-29 13 -53.5 25.5t-42 29t-27.5 38.5t-10 55q0 58 41 97.5t122 39.5q45 0 78.5 -11.5t62.5 -28.5l-34 -63q-25 29 -49 45.5
t-65 16.5q-42 0 -63.5 -17.5t-21.5 -49.5q0 -26 21 -46t72 -41q30 -12 57.5 -25t48.5 -29.5t33.5 -39.5t12.5 -55q0 -30 -11.5 -57.5t-33.5 -47.5t-54.5 -32t-73.5 -12zM140 537q16 53 34.5 91.5t28.5 75.5h76q-20 -38 -45 -78.5t-48 -88.5h-46z" />
    <glyph glyph-name="dollar.old" horiz-adv-x="494" 
d="M229 -101q0 22 0.5 44.5t0.5 45.5q-64 1 -111 21.5t-78 48.5l36 70q31 -42 68 -66.5t86 -26.5q1 63 1 120.5v105.5q-38 16 -68.5 32t-52 36.5t-33 47t-11.5 63.5q0 71 44.5 118t118.5 53q0 16 -0.5 31t-0.5 31h50q-1 -15 -1 -30.5v-31.5q51 -3 87.5 -16t68.5 -34l-33 -66
q-27 29 -56.5 46t-67.5 21q-1 -60 -1 -116.5v-105.5q45 -18 79 -33.5t56.5 -34.5t34 -43.5t11.5 -61.5q0 -69 -44.5 -117.5t-135.5 -58.5l2 -93h-50zM384 130q0 23 -6.5 39.5t-20 29t-34 23t-47.5 22.5v-206q54 6 81 31t27 61zM132 469q0 -37 23 -61t77 -48v96.5t-1 107.5
q-48 -5 -73.5 -32.5t-25.5 -62.5z" />
    <glyph glyph-name="Euro.old" horiz-adv-x="574" 
d="M362 221q-39 1 -76.5 1h-72.5q15 -93 58.5 -136.5t101.5 -44.5q44 -1 83.5 18.5t67.5 70.5l36 -29q-14 -24 -31.5 -44.5t-41.5 -35.5t-56.5 -23.5t-76.5 -8.5q-50 0 -91 17.5t-72.5 48t-52 73.5t-29.5 94q-17 0 -37 -0.5t-49 -0.5v49h80q-1 8 -1 16.5v17.5q0 31 3 60
q-16 0 -35 -0.5t-47 -0.5v50h52.5t38.5 -1q26 108 96.5 168t170.5 60q64 0 101.5 -12.5t65.5 -29.5l-42 -65q-22 29 -54.5 47.5t-77.5 18.5q-36 0 -63 -13.5t-47 -38.5t-33 -59t-19 -76h53t58.5 0.5t56 0.5h46.5l-9 -50q-21 0 -47.5 0.5t-55 0.5h-56.5h-52q-1 -11 -1 -23
v-25t0.5 -24.5t1.5 -22.5q38 0 81.5 0.5t82.5 0.5z" />
    <glyph glyph-name="sterling.old" horiz-adv-x="497" 
d="M45 0l-5 6q22 39 37 66.5t23 52.5t11.5 51.5t3.5 62.5v55q0 6 -0.5 21.5t-0.5 48.5q0 77 18 129.5t49.5 85t74.5 47t94 14.5q42 0 74.5 -7t52.5 -15l-29 -73q-17 20 -45 37t-75 17q-57 0 -87.5 -41t-30.5 -123v-53q0 -7 -1 -14v-11l181 3l-10 -54l-172 2q-1 -29 -4 -64
t-10.5 -71t-21.5 -68.5t-38 -54.5q45 1 95.5 1.5t98 1t87 1t63.5 1.5l-6 -55h-427z" />
    <glyph glyph-name="yen.old" horiz-adv-x="564" 
d="M505 181l-182 3q0 -42 0.5 -86.5t2.5 -97.5h-97l2 184h-33t-33.5 -0.5t-44 -1t-64.5 -1.5v53q41 -1 66 -1.5t43 -1t32 -0.5h34l1 51q-7 9 -13 22h-29t-31.5 -0.5t-42 -1t-60.5 -1.5v52q28 -1 48.5 -1.5t36 -0.5h27h22.5q-19 31 -37 62t-38 64t-42.5 70t-49.5 81h101
q26 -47 48 -86t42 -73t38.5 -65t38.5 -61q24 41 44.5 75t40.5 67t40.5 67.5t44.5 75.5h80q-26 -41 -49 -74.5t-45 -66t-43.5 -65t-44.5 -71.5h26.5h30t38 0.5t51.5 1.5v-52q-32 1 -56.5 1.5t-45 0.5t-37.5 0.5t-35 0.5l-8 -16v-57h35.5t36.5 0.5t46 1t64 1.5v-53z" />
    <glyph glyph-name="zero.old" horiz-adv-x="585" 
d="M293 30q43 0 72.5 17t47 45.5t25 66t7.5 79.5q0 96 -38 150t-114 54q-47 0 -77 -17t-47 -46t-23 -67t-6 -80q0 -96 41.5 -149t111.5 -53zM293 482q42 0 86 -14.5t81 -44.5t60.5 -76.5t23.5 -110.5q0 -60 -21.5 -106.5t-57 -77.5t-80.5 -47t-92 -16q-42 0 -86.5 14
t-81.5 44t-60.5 76.5t-23.5 110.5q0 61 21.5 107t57 77.5t81 47.5t92.5 16z" />
    <glyph glyph-name="one.old" horiz-adv-x="283" 
d="M124 236q0 48 -0.5 96.5t-1.5 80.5q-27 -3 -51 -4.5t-53 -3.5v35l190 43l11 -11q0 -56 -1.5 -116.5t-1.5 -119.5v-68.5t0.5 -56t1.5 -53t2 -58.5h-99q1 32 1.5 58.5l1 53t0.5 56v68.5z" />
    <glyph glyph-name="two.old" horiz-adv-x="473" 
d="M195 442q-42 0 -73 -21t-51 -47l-32 53q35 29 77 42t94 13q91 0 134.5 -37t43.5 -103q0 -38 -20.5 -75t-52.5 -72t-68 -64.5t-67 -55.5q36 0 75 1t73.5 1.5t62.5 1.5t43 1q-4 -11 -8.5 -24t-9.5 -26q-5 -15 -11 -30h-359l-3 16q55 38 100.5 76.5t77.5 77.5q33 40 51 79.5
t18 80.5q0 59 -25 85.5t-70 26.5z" />
    <glyph glyph-name="three.old" horiz-adv-x="469" 
d="M431 18q0 -42 -13 -79t-42 -65.5t-76 -45t-115 -16.5q-48 0 -93.5 13t-82.5 40l36 52q24 -29 65 -46t86 -17q61 0 98.5 36t37.5 119q0 60 -33 90t-92 32q-13 0 -22.5 -1t-18 -2.5t-17 -4.5t-20.5 -6l-14 34q35 14 68 31t59 39.5t41.5 52t15.5 68.5q0 53 -28 76.5
t-69 23.5q-39 0 -70.5 -21.5t-52.5 -51.5l-36 51q34 27 76.5 44.5t97.5 17.5q48 0 81 -11t53.5 -29.5t29.5 -43t9 -51.5q0 -29 -14 -55t-36 -47.5t-49.5 -37.5t-54.5 -25q91 -5 143 -48.5t52 -115.5z" />
    <glyph glyph-name="four.old" horiz-adv-x="528" 
d="M279 -147q0 23 0.5 41l1 36t1 38.5t0.5 48.5q-50 0 -97 -0.5t-85 -0.5h-83v26q40 49 82 103.5t83 111t80 112.5t73 108q4 -2 9 -3t12 -2t16 -1q-1 -19 -1.5 -49t-1 -66.5t-0.5 -76t-0.5 -77t-0.5 -71.5v-58l136 2v-61q-17 0 -53.5 0.5t-82.5 1.5v-37.5t0.5 -32t1 -38
t1.5 -55.5h-92zM282 72v66v68.5t-0.5 63t-0.5 50.5q-23 -35 -54.5 -78.5t-60.5 -81.5q-33 -45 -69 -90z" />
    <glyph glyph-name="five.old" horiz-adv-x="404" 
d="M121 236q46 -11 88 -29.5t74 -45t51.5 -62t19.5 -81.5t-15 -85.5t-44.5 -69t-74 -46t-104.5 -16.5q-47 0 -89.5 10.5t-77.5 38.5l42 58q26 -30 55 -46t71 -16q31 0 59.5 6.5t49.5 22t33.5 41.5t12.5 65q0 36 -15.5 65t-44 51t-69 38.5t-89.5 28.5l55 306h267
q-4 -14 -8 -38t-6 -45q-15 0 -40 0.5t-54 1.5t-60.5 1.5t-60.5 0.5z" />
    <glyph glyph-name="six.old" horiz-adv-x="552" 
d="M505 661q-51 -17 -99 -41t-91.5 -56.5t-80.5 -74t-65 -93.5q24 18 52.5 28t60.5 10q46 0 86.5 -14t70 -41.5t46.5 -68t17 -92.5q0 -50 -18 -91.5t-48.5 -72.5t-72 -48t-88.5 -17q-49 0 -91.5 18t-74 51.5t-50 80t-18.5 103.5q0 91 42 167.5t108 135.5t147.5 99t160.5 57z
M274 394q-64 0 -99.5 -43.5t-35.5 -128.5q0 -91 36.5 -141.5t99.5 -50.5q37 0 62 14t40.5 39.5t22 60t6.5 76.5q0 95 -35 134.5t-97 39.5z" />
    <glyph glyph-name="seven.old" horiz-adv-x="442" 
d="M111 -173q27 62 53.5 125t55.5 131.5t60 145t67 165.5q-20 -1 -50 -1t-63.5 -0.5t-68.5 -1t-65 -1t-53 -0.5h-33q2 14 4.5 28.5t4.5 25.5l6 26h383l8 -22q-14 -37 -35 -90t-44.5 -113t-47.5 -122.5t-44.5 -119t-36.5 -103t-22 -74.5z" />
    <glyph glyph-name="eight.old" horiz-adv-x="512" 
d="M258 696q42 0 78.5 -11t63 -31.5t41.5 -50.5t15 -69q0 -56 -37.5 -96.5t-92.5 -69.5q30 -17 57 -35.5t47.5 -40.5t32 -49t11.5 -61q0 -36 -12.5 -70.5t-39 -61.5t-68 -44t-99.5 -17q-46 0 -85.5 12t-68.5 34t-45.5 53t-16.5 70q0 34 13 62t34 50t47.5 39t53.5 30
q-63 41 -89.5 83t-26.5 95q0 42 16 75t42 56.5t60 35.5t69 12zM221 319q-46 -26 -72 -66.5t-26 -86.5q0 -30 10 -55t27.5 -43t42 -28t53.5 -10q65 0 99 32t34 84q0 29 -11.5 52t-31.5 42.5t-47 36t-58 32.5zM289 388q42 24 64.5 62t22.5 83q0 57 -28.5 90t-88.5 33
q-27 0 -47.5 -8.5t-35 -23t-21.5 -32.5t-7 -37q0 -30 9.5 -53t25.5 -41t38 -32.5t47 -28.5z" />
    </font>
</defs>
</svg>
