<?xml version="1.0" standalone="no"?>
<!DOCTYPE svg PUBLIC "-//W3C//DTD SVG 1.1//EN" "http://www.w3.org/Graphics/SVG/1.1/DTD/svg11.dtd" >
<svg>
<metadata>
Created by FontForge 20120731 at Thu Dec 18 01:52:39 2014
 By Orthosie Webhosting
Copyright (c) 2009 by Paul Barnes. All rights reserved.
</metadata>
<defs>
<font id="NationalTrustTTBold" horiz-adv-x="368" >
  <font-face 
    font-family="NationalTrustTTBold"
    font-weight="700"
    font-stretch="normal"
    units-per-em="1000"
    panose-1="2 11 8 3 6 5 2 2 2 3"
    ascent="805"
    descent="-195"
    x-height="481"
    cap-height="684"
    bbox="-155 -215 1489 1034"
    underline-thickness="50"
    underline-position="-50"
    unicode-range="U+0020-FB04"
  />
<missing-glyph horiz-adv-x="230" 
 />
    <glyph glyph-name="f_f" unicode="ff" horiz-adv-x="631" 
d="M88 482v28q0 52 17 89.5t46.5 61.5t69 35t84.5 11q48 0 78.5 -10t53.5 -24q29 23 65.5 33.5t78.5 10.5q52 0 84 -11t57 -27l-49 -75q-16 24 -36.5 39t-49.5 15q-34 0 -51 -20t-17 -70v-87h119v-64h-119l-1 -149v-77t0.5 -67t1.5 -62.5t2 -61.5h-154q2 62 2.5 126t0.5 142
v44t-0.5 35.5l-1 33t-0.5 36.5h-131l-1 -149v-77t0.5 -67t1.5 -62.5t2 -61.5h-154q2 62 2.5 126t0.5 142v44t-0.5 35.5l-1 33t-0.5 36.5h-70v33zM238 481h128l3 1v31q0 54 18 95q-14 19 -30.5 30t-41.5 11q-34 0 -55.5 -20t-21.5 -71v-77z" />
    <glyph glyph-name="f_i" unicode="fi" horiz-adv-x="573" 
d="M370 247v37t-0.5 52t-0.5 50v31h-131l-1 -149v-77t0.5 -67t1.5 -62.5t2 -61.5h-154q2 62 2.5 126t0.5 142v44t-0.5 35.5l-1 33t-0.5 36.5h-70v33l70 32v28q0 52 23 91t59 65t81 38.5t90 12.5q51 0 92 -11t67 -27l-54 -86q-14 28 -43.5 46.5t-62.5 18.5q-53 0 -77.5 -31
t-24.5 -83v-63h157q4 0 23 0.5t40.5 1t39.5 1t21 0.5q0 -29 -0.5 -54.5t-0.5 -53.5t-0.5 -61.5t-0.5 -78.5q0 -39 0.5 -68.5t1 -56l1 -53t0.5 -58.5h-153q0 32 0.5 60.5l1 57t1 59.5t0.5 70z" />
    <glyph glyph-name="f_l" unicode="fl" horiz-adv-x="573" 
d="M370 417h-132l-1 -149v-77t0.5 -67t1.5 -62.5t2 -61.5h-154q2 62 2.5 126t0.5 142v44t-0.5 35.5l-1 33t-0.5 36.5h-70v33l70 32v31q0 53 18 91.5t48 63.5t70.5 37t85.5 12q29 0 51 -3.5t40 -10.5l118 16q0 -29 -0.5 -70t-0.5 -87t-0.5 -94.5t-0.5 -93.5v-90t0.5 -103.5
t1 -100.5t0.5 -80h-152q0 32 0.5 80t1 100.5t1 103.5t0.5 90v43zM238 481h131q0 40 -1 78.5t-1 70.5q-17 28 -53 28q-34 0 -55 -21.5t-21 -74.5v-81z" />
    <glyph glyph-name="f_f_i" unicode="ffi" horiz-adv-x="854" 
d="M88 482v28q0 52 17 89.5t46.5 61.5t69 35t84.5 11q50 0 85 -10.5t62 -30.5q36 26 81 38.5t90 12.5q51 0 92 -11t66 -27l-53 -86q-16 28 -45 46.5t-61 18.5q-54 0 -78 -31t-24 -83v-63h156q4 0 23.5 0.5t41 1t39.5 1t20 0.5v-54.5t-0.5 -53.5t-0.5 -61.5v-78.5v-68.5
t0.5 -56l1 -53t0.5 -58.5h-152q0 32 0.5 60.5l1 57t0.5 59.5v70v37t-0.5 52t-0.5 50v31h-130l-1 -149v-77t0.5 -67t1 -62.5t1.5 -61.5h-154q2 62 2.5 126t0.5 142v44v35.5t-0.5 33t-0.5 36.5h-132l-1 -149v-77t0.5 -67t1.5 -62.5t2 -61.5h-154q2 62 2.5 126t0.5 142v44
t-0.5 35.5l-1 33t-0.5 36.5h-70v33zM370 510q0 27 6 51t19 44q-17 18 -35 31t-45 13q-34 0 -55.5 -20t-21.5 -71v-77h129l3 1v28z" />
    <glyph glyph-name="f_f_l" unicode="ffl" horiz-adv-x="853" 
d="M88 482v28q0 52 17 89.5t46.5 61.5t69 35t84.5 11q49 0 80 -10t55 -25q29 23 67 34t81 11q29 0 51 -3.5t40 -10.5l120 16q0 -29 -0.5 -69.5t-0.5 -87t-0.5 -95t-0.5 -93.5v-90t0.5 -103.5t1 -100.5t0.5 -80h-152q1 32 1.5 80t1 100.5t0.5 103.5v90v43h-130l-1 -149v-77
t0.5 -67t1 -62.5t1.5 -61.5h-154q2 62 2.5 126t0.5 142v44v35.5t-0.5 33t-0.5 36.5h-132l-1 -149v-77t0.5 -67t1.5 -62.5t2 -61.5h-154q2 62 2.5 126t0.5 142v44t-0.5 35.5l-1 33t-0.5 36.5h-70v33zM649 481q0 38 -0.5 76t-1.5 70q-9 15 -22 23t-33 8q-35 0 -53.5 -21.5
t-18.5 -74.5v-81h129zM238 481h129l3 1v31q0 55 18 94q-14 19 -30.5 30.5t-42.5 11.5q-34 0 -55.5 -20t-21.5 -71v-77z" />
    <glyph glyph-name="f_b" unicode="fb" horiz-adv-x="891" 
d="M518 448q21 14 55 29.5t82 15.5q37 0 73.5 -12.5t66 -40.5t48 -74.5t18.5 -113.5q0 -69 -21.5 -119t-56.5 -82t-79.5 -47t-91.5 -15q-61 0 -96 17t-58 36h-4l-59 -42h-29q2 38 3 125.5t1 219.5v72h-132l-1 -149v-77t0.5 -67t1.5 -62.5t2 -61.5h-154q2 62 2.5 126t0.5 142
v44t-0.5 35.5l-1 33t-0.5 36.5h-70v33l70 32v31q0 53 17.5 91.5t47 63.5t69 37t84.5 12q28 0 50 -3.5t40 -8.5l122 14v-271zM517 96q13 -20 31.5 -34.5t51.5 -14.5q23 0 42.5 10.5t34 33t22.5 58.5t8 87q0 94 -27 136t-87 42q-23 0 -43 -4.5t-33 -11.5v-302zM238 481h132
l-2 142q-9 17 -22.5 26t-35.5 9q-34 0 -53 -21.5t-19 -74.5v-81z" />
    <glyph glyph-name="f_f_b" unicode="ffb" horiz-adv-x="1173" 
d="M799 448q20 14 55 29.5t82 15.5q37 0 74 -12.5t66.5 -40.5t48 -74.5t18.5 -113.5q0 -69 -21.5 -119t-56.5 -82t-80 -47t-92 -15q-61 0 -96.5 17t-56.5 36h-5l-60 -42h-28q2 38 2.5 125.5t0.5 219.5v72h-131l-1 -149v-77t0.5 -67t1.5 -62.5t2 -61.5h-154q2 62 2.5 126
t0.5 142v44t-0.5 35.5l-1 33t-0.5 36.5h-131l-1 -149v-77t0.5 -67t1.5 -62.5t2 -61.5h-154q2 62 2.5 126t0.5 142v44t-0.5 35.5l-1 33t-0.5 36.5h-70v33l70 32v28q0 52 17 89.5t46.5 61.5t69 35t84.5 11q48 0 78.5 -10t53.5 -24q29 23 65.5 33.5t78.5 10.5q28 0 50 -3.5
t40 -9.5l128 15v-271zM798 96q12 -20 30.5 -34.5t51.5 -14.5q23 0 42.5 10.5t34 33t23 58.5t8.5 87q0 94 -27 136t-87 42q-23 0 -43.5 -4.5t-32.5 -11.5v-302zM519 481h131l-1 151q-14 12 -28 19t-34 7q-34 0 -51 -20t-17 -70v-87zM238 481h128l3 1v31q0 54 18 95
q-14 19 -30.5 30t-41.5 11q-34 0 -55.5 -20t-21.5 -71v-77z" />
    <glyph glyph-name="f_f_h" unicode="ffh" horiz-adv-x="1163" 
d="M88 482v28q0 52 17 89.5t46.5 61.5t69 35t84.5 11q48 0 78.5 -10t53.5 -24q29 23 65.5 33.5t78.5 10.5q30 0 52.5 -4t40.5 -11l125 17v-288q11 9 23 17.5t25 16.5q22 11 52 19.5t56 8.5q84 0 120.5 -40t36.5 -125v-23.5t-0.5 -35t-0.5 -35.5v-26q0 -33 0.5 -59.5t1 -50.5
t1 -47.5t0.5 -50.5h-153q0 32 0.5 56t1 46t0.5 45v55v32t-0.5 36t-0.5 34v27q0 36 -17.5 56.5t-62.5 20.5q-20 0 -43 -8t-40 -22v-154v-67.5v-53.5t0.5 -49t0.5 -54h-151q0 32 0.5 60.5t0.5 57v59.5v70v170h-131l-1 -149v-77t0.5 -67t1.5 -62.5t2 -61.5h-154q2 62 2.5 126
t0.5 142v44t-0.5 35.5l-1 33t-0.5 36.5h-131l-1 -149v-77t0.5 -67t1.5 -62.5t2 -61.5h-154q2 62 2.5 126t0.5 142v44t-0.5 35.5l-1 33t-0.5 36.5h-70v33zM650 481q0 46 -0.5 84t-0.5 67q-14 13 -28 19.5t-34 6.5q-34 0 -51 -20t-17 -70v-87h131zM238 481h128l3 1v31
q0 54 18 95q-14 19 -30.5 30t-41.5 11q-34 0 -55.5 -20t-21.5 -71v-77z" />
    <glyph glyph-name="f_f_j" unicode="ffj" horiz-adv-x="855" 
d="M88 482v28q0 52 17 89.5t46.5 61.5t69 35t84.5 11q48 0 83.5 -10t61.5 -30q35 25 78.5 37.5t87.5 12.5q51 0 92.5 -11t67.5 -27l-50 -81q-15 24 -43.5 42t-60.5 18q-54 0 -78.5 -31t-24.5 -83v-63h201q5 0 17 0.5t25 1t24 1t13 0.5v-54.5t-0.5 -53.5t-0.5 -61.5v-78.5
v-65.5t0.5 -49.5t1 -46.5t0.5 -55.5q0 -57 -17.5 -98t-47 -68t-68.5 -40t-81 -13q-39 0 -71 7.5t-51 18.5l33 80q11 -16 36.5 -29t54.5 -13t45.5 17.5t16.5 49.5v71v80.5v83.5v81v170h-131l-1 -149v-77t0.5 -67t1.5 -62.5t2 -61.5h-154q2 62 2.5 126t0.5 142v44t-0.5 35.5
l-1 33t-0.5 36.5h-131l-1 -149v-77t0.5 -67t1.5 -62.5t2 -61.5h-154q2 62 2.5 126t0.5 142v44t-0.5 35.5l-1 33t-0.5 36.5h-70v33zM369 510q0 28 6 52t16 42q-14 20 -32 32.5t-44 12.5q-34 0 -55.5 -20t-21.5 -71v-77h128l3 1v28z" />
    <glyph glyph-name="f_f_k" unicode="ffk" horiz-adv-x="1127" 
d="M88 482v28q0 52 17 89.5t46.5 61.5t69 35t84.5 11q48 0 79.5 -10t55.5 -24q29 23 66.5 33.5t80.5 10.5q28 0 49.5 -3.5t38.5 -8.5l124 16q0 -29 -0.5 -70t-0.5 -87.5t-0.5 -95.5t-0.5 -94v-82.5t0.5 -102.5t1 -103.5t0.5 -85.5h-152q1 32 1.5 80t1 100.5t0.5 103.5v90v43
h-131l-1 -149v-77t0.5 -67t1.5 -62.5t2 -61.5h-154q2 62 2.5 126t0.5 142v44t-0.5 35.5l-1 33t-0.5 36.5h-131l-1 -149v-77t0.5 -67t1.5 -62.5t2 -61.5h-154q2 62 2.5 126t0.5 142v44t-0.5 35.5l-1 33t-0.5 36.5h-70v33zM949 0q-20 35 -36.5 64t-33 57t-35 56.5t-41.5 63.5
q28 31 53.5 60.5t49.5 58t47.5 58.5t48.5 63h93q-29 -30 -50.5 -53t-40 -43.5t-35.5 -40t-36 -42.5q22 -35 45.5 -73.5t48.5 -78t50 -78t50 -72.5h-178zM649 481q0 38 -0.5 75.5t-1.5 70.5q-9 15 -22.5 23t-33.5 8q-34 0 -53 -21.5t-19 -74.5v-81h130zM238 481h128l3 1v31
q0 55 18 94q-14 19 -30 30.5t-42 11.5q-34 0 -55.5 -20t-21.5 -71v-77z" />
    <glyph glyph-name="f_h" unicode="fh" horiz-adv-x="883" 
d="M88 482v31q0 53 17.5 91.5t47 63.5t69 37t84.5 12q30 0 52.5 -4t41.5 -10l119 16v-24v-53.5t-0.5 -67.5t-0.5 -67.5v-53v-22.5q21 17 49 34q21 11 50.5 19.5t56.5 8.5q85 0 121.5 -40t36.5 -125v-23.5t-0.5 -35t-0.5 -35.5v-26q0 -33 0.5 -59.5t1 -50.5t1 -47.5
t0.5 -50.5h-153q0 32 0.5 56t1 46t0.5 45v55v32t-0.5 36t-0.5 34v27q0 36 -17.5 56.5t-62.5 20.5q-20 0 -43 -8t-40 -22q-1 -31 -1 -69.5v-84.5v-67.5v-53.5t0.5 -49t1.5 -54h-152q0 32 0.5 60.5l1 57t0.5 59.5v70v170h-132l-1 -149v-77t0.5 -67t1.5 -62.5t2 -61.5h-154
q2 62 2.5 126t0.5 142v44t-0.5 35.5l-1 33t-0.5 36.5h-70v33zM370 481q0 9 -0.5 30t-1 43.5t-0.5 42v26.5q-10 17 -23 26t-35 9q-34 0 -53 -21.5t-19 -74.5v-81h132z" />
    <glyph glyph-name="f_j" unicode="fj" horiz-adv-x="575" 
d="M370 -69v71v80.5v83.5v81v37t-0.5 52t-0.5 50v31h-131l-1 -149v-77t0.5 -67t1.5 -62.5t2 -61.5h-154q2 62 2.5 126t0.5 142v44t-0.5 35.5l-1 33t-0.5 36.5h-70v33l70 32v28q0 52 22 91t57 65t79.5 38.5t89.5 12.5q51 0 92 -11t67 -27l-50 -81q-15 24 -41 42t-58 18
q-54 0 -81 -31t-27 -83v-63h203q5 0 16.5 0.5t24.5 1t23.5 1t13.5 0.5q0 -29 -0.5 -54.5t-0.5 -53.5t-0.5 -61.5t-0.5 -78.5q0 -39 0.5 -65.5t1 -49.5t1 -46.5t0.5 -55.5q0 -57 -17.5 -98t-47 -68t-68.5 -40t-82 -13q-39 0 -70.5 7.5t-51.5 18.5l33 80q10 -16 36.5 -29
t54.5 -13q29 0 46 17.5t17 49.5z" />
    <glyph glyph-name="f_k" unicode="fk" horiz-adv-x="846" 
d="M370 417h-132l-1 -149v-77t0.5 -67t1.5 -62.5t2 -61.5h-154q2 62 2.5 126t0.5 142v44t-0.5 35.5l-1 33t-0.5 36.5h-70v33l70 32v31q0 53 18 91.5t48 63.5t70.5 37t85.5 12q29 0 51 -3.5t40 -10.5l118 16q0 -29 -0.5 -70t-0.5 -87t-0.5 -94.5t-0.5 -93.5v-90t0.5 -103.5
t1 -100.5t0.5 -80h-152q0 32 0.5 80t1 100.5t1 103.5t0.5 90v43zM669 0q-20 35 -36.5 64t-33 57t-35 56.5t-41.5 63.5q28 31 53 60.5t49 58t47.5 58.5t48.5 63h94q-29 -30 -50.5 -53t-40 -43.5t-35.5 -40t-37 -42.5q22 -35 45.5 -73.5t48.5 -78t50 -78t50 -72.5h-177z
M238 481h131q0 40 -1 78.5t-1 70.5q-17 28 -53 28q-34 0 -55 -21.5t-21 -74.5v-81z" />
    <glyph glyph-name="g_g" unicode="gg" horiz-adv-x="1041" 
d="M38 327q0 35 15.5 65t43 52.5t66 35.5t85.5 13q36 0 65 -6t55 -17q16 -5 31 -6t32 -1q14 0 28 2.5t26 6.5q14 4 28 9l-7 -96q-19 7 -38.5 16.5t-41.5 16.5l-3 -3q16 -13 26 -37t10 -47q0 -36 -14.5 -66.5t-42 -52t-67 -33.5t-88.5 -12q-18 0 -34.5 0.5t-27.5 2.5
q-13 -7 -21.5 -15.5t-8.5 -21.5q0 -14 9.5 -19t29.5 -5h140q81 0 118 -35t37 -99q0 -44 -18.5 -76.5t-51 -54t-76.5 -32t-96 -10.5q-117 0 -174 28t-57 80q0 38 31.5 57t82.5 25v3q-36 8 -56.5 30t-20.5 54q0 21 7.5 37.5t20 29.5t28 22.5t32.5 14.5v3q-50 16 -76.5 53.5
t-26.5 87.5zM187 -23q-61 -9 -61 -54q0 -27 27.5 -45t94.5 -18q64 0 93.5 20t29.5 58q0 26 -15.5 32.5t-45.5 6.5h-123zM170 328q0 -60 20 -83t58 -23q39 0 59 24.5t20 81.5q0 60 -21 84.5t-58 24.5q-35 0 -56.5 -25t-21.5 -84zM533 327q0 35 15.5 65t43 52.5t66 35.5
t85.5 13q36 0 65 -6t55 -17q16 -5 31.5 -6t31.5 -1q14 0 31 2.5t33 6.5q18 4 38 9l-8 -96q-19 7 -48 16.5t-51 16.5l-2 -3q15 -13 25 -37t10 -47q0 -36 -14.5 -66.5t-42 -52t-67 -33.5t-88.5 -12q-17 0 -38.5 0.5t-31.5 2.5q-26 -13 -26 -37q0 -14 10.5 -19t29.5 -5h161
q81 0 119 -32.5t38 -95.5q0 -44 -19.5 -77.5t-54 -56t-81.5 -34t-103 -11.5q-117 0 -173.5 28t-56.5 80q0 38 27.5 57t77.5 25v3q-35 8 -55.5 33t-20.5 51q0 38 24.5 65.5t57.5 38.5v3q-50 16 -72 53.5t-22 87.5zM683 -23q-31 -5 -43.5 -18.5t-12.5 -35.5q0 -27 29 -45
t91 -18q72 0 104.5 20t32.5 58q0 26 -15.5 32.5t-45.5 6.5h-140zM665 328q0 -60 20 -83t58 -23q40 0 59.5 24.5t19.5 81.5q0 60 -20.5 84.5t-58.5 24.5q-35 0 -56.5 -25t-21.5 -84z" />
    <glyph glyph-name="g_g_y" unicode="ggy" horiz-adv-x="1499" 
d="M38 327q0 35 15.5 65t43 52.5t66 35.5t85.5 13q36 0 65 -6t55 -17q16 -5 31 -6t32 -1q14 0 28 2.5t26 6.5q14 4 28 9l-7 -96q-19 7 -38.5 16.5t-41.5 16.5l-3 -3q16 -13 26 -37t10 -47q0 -36 -14.5 -66.5t-42 -52t-67 -33.5t-88.5 -12q-18 0 -34.5 0.5t-27.5 2.5
q-13 -7 -21.5 -15.5t-8.5 -21.5q0 -14 9.5 -19t29.5 -5h140q81 0 118 -35t37 -99q0 -44 -18.5 -76.5t-51 -54t-76.5 -32t-96 -10.5q-117 0 -174 28t-57 80q0 38 31.5 57t82.5 25v3q-36 8 -56.5 30t-20.5 54q0 21 7.5 37.5t20 29.5t28 22.5t32.5 14.5v3q-50 16 -76.5 53.5
t-26.5 87.5zM187 -23q-61 -9 -61 -54q0 -27 27.5 -45t94.5 -18q64 0 93.5 20t29.5 58q0 26 -15.5 32.5t-45.5 6.5h-123zM170 328q0 -60 20 -83t58 -23q39 0 59 24.5t20 81.5q0 60 -21 84.5t-58 24.5q-35 0 -56.5 -25t-21.5 -84zM530 327q0 35 15.5 65t43 52.5t66.5 35.5
t86 13q35 0 63 -6t54 -17q17 -5 31.5 -6t31.5 -1q13 0 25.5 2.5t22.5 6.5q11 4 22 9v-96q-19 10 -38 18t-38 15l-2 -3q15 -13 25.5 -37t10.5 -47q0 -73 -55 -118.5t-154 -45.5q-18 0 -35 0.5t-28 2.5q-12 -7 -21 -15.5t-9 -21.5q0 -14 10 -19t29 -5h155q81 0 118.5 -35
t37.5 -99q0 -44 -20.5 -76.5t-55 -54t-81 -32t-97.5 -10.5q-117 0 -176 28t-59 80q0 38 32 57t82 25v3q-35 8 -55.5 30t-20.5 54q0 42 27 67.5t60 36.5v3q-49 16 -76 53.5t-27 87.5zM679 -23q-61 -9 -61 -56q0 -26 29.5 -43.5t96.5 -17.5q64 0 99 19.5t35 57.5
q0 26 -15.5 33t-45.5 7h-138zM662 328q0 -60 20.5 -83t58.5 -23q39 0 57.5 24.5t18.5 81.5q0 60 -20 84.5t-56 24.5q-35 0 -57 -25t-22 -84zM1281 164q22 56 38 97.5t29 77.5t24.5 69.5t24.5 72.5h92q-35 -83 -73 -173.5t-76 -179.5t-73.5 -172t-65.5 -151h-91
q13 26 27.5 53.5t27 52.5t22 44.5t13.5 29.5q-49 122 -98.5 244t-99.5 252h167q14 -45 27.5 -84t26.5 -76.5t26.5 -75.5t28.5 -81h3z" />
    <glyph glyph-name="g_y" unicode="gy" horiz-adv-x="1006" 
d="M38 327q0 35 15.5 65t43 52.5t66 35.5t85.5 13q36 0 64 -6t54 -17q16 -5 31 -6t31 -1q14 0 26.5 2.5t22.5 6.5q11 4 22 9v-96q-37 19 -77 33l-2 -3q16 -13 26.5 -37t10.5 -47q0 -73 -55 -118.5t-155 -45.5q-18 0 -34.5 0.5t-27.5 2.5q-13 -7 -21.5 -15.5t-8.5 -21.5
q0 -14 9.5 -19t29.5 -5h155q81 0 118 -35t37 -99q0 -44 -20.5 -76.5t-55 -54t-80.5 -32t-97 -10.5q-117 0 -176 28t-59 80q0 38 31.5 57t82.5 25v3q-36 8 -56.5 30t-20.5 54q0 21 7.5 37.5t20 29.5t28 22.5t32.5 14.5v3q-50 16 -76.5 53.5t-26.5 87.5zM187 -23
q-61 -9 -61 -56q0 -26 29.5 -43.5t96.5 -17.5q64 0 98.5 19.5t34.5 57.5q0 26 -15.5 33t-44.5 7h-138zM170 328q0 -60 20 -83t58 -23q39 0 58 24.5t19 81.5q0 60 -20 84.5t-57 24.5q-35 0 -56.5 -25t-21.5 -84zM788 164q22 56 38 97.5t29.5 77.5t25 69.5t24.5 72.5h91
q-35 -83 -73 -173.5t-75.5 -179.5t-73.5 -172t-66 -151h-91q14 26 28 53.5t26.5 52.5t22 44.5t13.5 29.5q-48 122 -97.5 244t-99.5 252h167q14 -45 27.5 -84t26.5 -76.5t26.5 -75.5t28.5 -81h2z" />
    <glyph glyph-name=".notdef" horiz-adv-x="230" 
 />
    <glyph glyph-name=".null" horiz-adv-x="0" 
 />
    <glyph glyph-name="nonmarkingreturn" horiz-adv-x="230" 
 />
    <glyph glyph-name="space" unicode=" " horiz-adv-x="230" 
 />
    <glyph glyph-name="space" unicode="&#xa0;" horiz-adv-x="230" 
 />
    <glyph glyph-name="exclam" unicode="!" horiz-adv-x="270" 
d="M91 196q-6 69 -10.5 123t-8.5 107t-8.5 113t-10.5 142l165 6q-5 -72 -9.5 -130.5t-9.5 -114.5t-9.5 -114.5t-9.5 -131.5h-89zM63 63q0 29 21 50t49 21q15 0 28 -6t22.5 -15.5t15.5 -22.5t6 -27q0 -29 -21.5 -49.5t-50.5 -20.5q-28 0 -49 20.5t-21 49.5z" />
    <glyph glyph-name="quotedbl" unicode="&#x22;" horiz-adv-x="370" 
d="M63 435q-3 28 -6.5 62t-6.5 68t-6 64.5t-5 51.5l119 6l-44 -252h-51zM236 435q-3 28 -6.5 62t-6.5 68t-6 64.5t-5 51.5l119 6l-44 -252h-51z" />
    <glyph glyph-name="numbersign" unicode="#" horiz-adv-x="674" 
d="M342 0q11 62 22.5 116t20.5 104q-17 0 -35 0.5t-36 0.5h-78l-37 -221h-75l43 222q-35 0 -72.5 -0.5t-79.5 -0.5v56q48 -2 86.5 -2.5t76.5 -0.5l12 68l13 67q-35 0 -72 -0.5t-79 -0.5v57q48 -2 86.5 -2.5t74.5 -0.5q2 10 8 41t12 67t12 68.5t8 45.5h75l-45 -222h148
q10 51 19.5 105.5t20.5 116.5h76l-45 -222q34 0 72 0.5t86 1.5v-59q-48 2 -89 2.5t-79 0.5q-1 -5 -3.5 -17t-5 -25t-5 -24.5t-2.5 -15.5l-11 -52q35 0 72.5 0.5t85.5 1.5v-59q-48 2 -88.5 2.5t-79.5 0.5q-2 -10 -7 -41t-11 -66t-11.5 -67.5t-7.5 -45.5h-76zM246 274h150
l12 68l13 66h-148q-1 -5 -3.5 -16.5t-5 -25t-4.5 -25t-3 -15.5z" />
    <glyph glyph-name="dollar" unicode="$" horiz-adv-x="497" 
d="M221 -108v49t1 49q-71 3 -126.5 23t-85.5 44l49 96q28 -45 70.5 -68.5t92.5 -30.5q0 15 0.5 48t1 68t0.5 65.5v41.5q-45 19 -80.5 39.5t-60.5 46t-38 56.5t-13 72q0 45 15 81.5t41 62.5t61 41.5t74 18.5q0 18 -0.5 36.5t-0.5 36.5h60v-14t-0.5 -23t-0.5 -22.5v-14.5
q53 -2 93.5 -16t74.5 -37l-45 -87q-25 32 -56 50t-69 24q-1 -56 -1.5 -109.5t0.5 -101.5q49 -22 87.5 -42.5t64 -45.5t39 -57t13.5 -76q0 -81 -51.5 -137t-148.5 -67v-21.5t0.5 -28t0.5 -28.5v-22h-62zM371 152q0 34 -21.5 56t-70.5 45q0 -11 0.5 -38t1 -58.5t1 -60.5
t0.5 -43q50 8 69.5 36.5t19.5 62.5zM137 539q0 -33 23 -56t65 -43v92t-1 98q-44 -5 -65.5 -29.5t-21.5 -61.5z" />
    <glyph glyph-name="percent" unicode="%" horiz-adv-x="874" 
d="M41 501q0 45 12.5 81t34.5 61.5t52 39.5t65 14t65.5 -13.5t53 -38.5t35.5 -59t13 -74q0 -47 -12.5 -83t-34 -61.5t-51.5 -38.5t-65 -13q-36 0 -67 13.5t-53.5 38.5t-35 58.5t-12.5 74.5zM141 508q0 -76 15 -114.5t53 -38.5t50.5 39t12.5 111q0 76 -13.5 114.5t-53.5 38.5
q-37 0 -50.5 -39t-13.5 -111zM708 681q-29 -42 -63.5 -92t-68 -100t-64 -95t-50.5 -75t-50.5 -73.5t-64 -92.5l-67 -98t-59.5 -91l-55 39q29 41 63 89t67 95.5t62.5 90t49.5 72.5q21 30 51.5 75.5t64.5 96.5l68 102t60 93zM833 179q0 -45 -12.5 -81t-34.5 -61.5t-52 -39.5
t-65 -14t-65.5 14t-53 38.5t-35.5 58.5t-13 75q0 46 12.5 82.5t34 62t51.5 38.5t65 13q36 0 66.5 -13.5t53 -38.5t35.5 -59t13 -75zM733 173q0 76 -15 114.5t-53 38.5t-50.5 -39t-12.5 -111q0 -76 13.5 -114.5t53.5 -38.5q37 0 50.5 39t13.5 111z" />
    <glyph glyph-name="ampersand" unicode="&#x26;" horiz-adv-x="716" 
d="M497 569q0 -30 -10 -53.5t-28 -43t-44 -37t-58 -34.5l44 -56q30 -38 57 -70t59 -70q16 30 26.5 60.5t17 57.5t9.5 48t3 33h87q-8 -48 -30.5 -112t-67.5 -139q31 -36 62 -73.5t69 -79.5h-191q-6 6 -14 15q-7 8 -16.5 18t-20.5 24q-36 -29 -82 -48t-112 -19
q-51 0 -93.5 11.5t-72.5 35.5t-47 60t-17 84q0 42 15.5 75t39.5 58.5t52 44t53 30.5q-20 33 -30.5 62t-10.5 62q0 41 15 75t41.5 58t61.5 37t76 13q33 0 62 -8.5t50 -25t33 -40t12 -53.5zM175 219q0 -74 37 -114.5t94 -40.5q30 0 56.5 12t46.5 29q-36 42 -77.5 92.5
t-75.5 95.5q-8 10 -19.5 24.5t-16.5 21.5q-19 -17 -32 -43.5t-13 -76.5zM402 560q0 35 -15.5 56.5t-47.5 21.5q-31 0 -48 -22.5t-17 -54.5q0 -14 2 -26.5t7.5 -26t15 -29t24.5 -34.5q39 23 59 50t20 65z" />
    <glyph glyph-name="quotesingle" unicode="'" horiz-adv-x="197" 
d="M62 435q-4 28 -7.5 62t-6.5 68t-6 64.5t-5 51.5l119 6q-9 -56 -20.5 -119.5t-23.5 -132.5h-50z" />
    <glyph glyph-name="parenleft" unicode="(" horiz-adv-x="348" 
d="M63 281q0 84 20.5 150.5t53.5 119t75.5 93t86.5 72.5l40 -34q-72 -62 -110.5 -162t-38.5 -239t38.5 -239.5t110.5 -162.5l-40 -34q-44 32 -86.5 72.5t-75.5 93.5t-53.5 119.5t-20.5 150.5z" />
    <glyph glyph-name="parenright" unicode=")" horiz-adv-x="348" 
d="M285 281q0 -84 -20.5 -150.5t-53.5 -119.5t-75.5 -93.5t-86.5 -72.5l-40 34q72 62 110.5 162.5t38.5 239.5t-38.5 239t-110.5 162l40 34q44 -32 86.5 -72.5t75.5 -93t53.5 -119t20.5 -150.5z" />
    <glyph glyph-name="asterisk" unicode="*" horiz-adv-x="385" 
d="M158 340q0 34 2 65.5t4 62.5q-26 -17 -51.5 -34t-53.5 -37l-33 57l117 57q-28 14 -58 27.5t-59 30.5l33 58q28 -20 54 -38.5t51 -35.5l-4 64t-2 67h66q-2 -36 -4 -68.5t-4 -64.5q26 17 53 36.5t55 39.5l32 -58l-117 -58q29 -14 57.5 -27t60.5 -30l-33 -57
q-29 19 -55.5 37.5t-52.5 35.5q2 -30 4 -62t4 -68h-66v0z" />
    <glyph glyph-name="plus" unicode="+" horiz-adv-x="584" 
d="M257 30v209h-193v65h193v209h71v-209h192v-65h-192v-209h-71z" />
    <glyph glyph-name="comma" unicode="," horiz-adv-x="264" 
d="M167 145q6 -6 13 -17t13.5 -24.5t10.5 -29t4 -31.5q0 -60 -37 -107t-108 -91l-24 41q32 24 44.5 50t12.5 61q0 32 -16 58t-30 43z" />
    <glyph glyph-name="hyphen" unicode="-" horiz-adv-x="363" 
d="M68 319h227v-106h-227v106z" />
    <glyph glyph-name="period" unicode="." horiz-adv-x="263" 
d="M55 69q0 31 22.5 54t54.5 23q15 0 28.5 -6.5t24 -17t17 -24.5t6.5 -29q0 -30 -23 -52.5t-53 -22.5q-32 0 -54.5 22.5t-22.5 52.5z" />
    <glyph glyph-name="slash" unicode="/" horiz-adv-x="322" 
d="M305 708q-13 -49 -28.5 -108l-31 -118t-28.5 -111.5t-22 -88.5q-9 -35 -24 -93.5t-31.5 -124t-32 -130.5t-25.5 -113l-88 18q13 49 29.5 113t33 128.5t30.5 122t23 92.5q9 36 23 89.5t29 113.5t29.5 120t24.5 108l89 -18v0z" />
    <glyph glyph-name="zero" unicode="0" horiz-adv-x="660" 
d="M333 52q74 0 101 70.5t27 216.5q0 155 -31 225t-102 70q-72 0 -100.5 -70.5t-28.5 -218.5q0 -155 32 -224t102 -69zM328 696q61 0 114.5 -25t93.5 -70t62.5 -108.5t22.5 -139.5q0 -88 -21.5 -155.5t-60 -114t-91.5 -70.5t-115 -24q-63 0 -116.5 24.5t-93 69.5t-62 108
t-22.5 139q0 87 22.5 155t61.5 115t91.5 71.5t113.5 24.5z" />
    <glyph glyph-name="one" unicode="1" horiz-adv-x="383" 
d="M155 346v59t-0.5 71t-1 67.5t-0.5 47.5q-29 -5 -63 -12t-60 -9v56l266 70l15 -14q-1 -28 -1.5 -73t-1 -93.5t-1 -94.5t-0.5 -75v-85.5t1 -94t1.5 -91t2.5 -75.5h-160q1 32 1.5 75.5t1 91t0.5 94v85.5z" />
    <glyph glyph-name="two" unicode="2" horiz-adv-x="545" 
d="M210 631q-47 0 -87 -21t-68 -63l-38 88q37 26 87 43.5t123 17.5q120 0 190.5 -52t70.5 -153q0 -32 -8 -61.5t-23.5 -58t-40 -58t-57.5 -61.5q-17 -16 -40 -35.5t-47.5 -38.5t-48 -35.5t-39.5 -27.5q36 0 86.5 1t99 2.5t88 3t54.5 1.5q-4 -10 -8.5 -30.5t-9.5 -40.5
q-5 -25 -11 -52h-446l-3 71q63 49 112.5 94.5t88.5 90.5q55 64 75 121.5t20 113.5q0 78 -31.5 109t-88.5 31z" />
    <glyph glyph-name="three" unicode="3" horiz-adv-x="535" 
d="M492 204q0 -50 -20 -90t-57.5 -68t-90 -42.5t-116.5 -14.5t-109.5 15.5t-84.5 42.5l48 81q22 -32 60 -54t77 -22q38 -1 63.5 9.5t41 30.5t22 48.5t6.5 64.5q0 123 -119 123q-19 0 -35.5 -3.5t-36.5 -11.5l-16 51q43 15 76.5 31t56.5 36t35 46.5t12 62.5q0 50 -24.5 72
t-70.5 22q-40 0 -77 -20.5t-58 -51.5l-40 75q40 30 95 44t111 14q106 0 155.5 -42.5t49.5 -106.5q0 -32 -14 -58.5t-37.5 -47t-53.5 -35t-62 -23.5q57 -4 97.5 -19t66 -38.5t37.5 -54t12 -66.5z" />
    <glyph glyph-name="four" unicode="4" horiz-adv-x="586" 
d="M297 0q0 24 0.5 44.5t1 41.5t1 43.5t0.5 50.5h-188q-47 0 -90 -1v35q43 57 89 117t91 120.5t87 120t78 114.5q14 -2 36.5 -4t51.5 -3q-1 -19 -1 -51.5t-0.5 -72t-0.5 -83t-0.5 -85t-0.5 -78v-60.5l123 2v-73q-20 0 -49.5 0.5t-73.5 0.5v-40.5t0.5 -38.5t0.5 -43.5v-56.5
h-156zM300 248v66.5v67t-0.5 61t-0.5 49.5q-25 -36 -56 -79t-59 -80q-33 -43 -65 -86z" />
    <glyph glyph-name="five" unicode="5" horiz-adv-x="497" 
d="M168 460q51 -8 102 -26t91.5 -47.5t66 -72.5t25.5 -101q0 -47 -16 -88t-48.5 -71t-80 -47.5t-110.5 -17.5q-66 0 -111.5 13t-80.5 36l41 86q26 -33 65 -51t85 -18q63 0 93.5 29.5t30.5 82.5q0 37 -17.5 65.5t-49 50.5t-75.5 37.5t-97 26.5l51 337h321q-4 -23 -8 -58.5
t-6 -61.5q-17 1 -48 1.5t-67.5 1.5t-73.5 1.5t-65 0.5z" />
    <glyph glyph-name="six" unicode="6" horiz-adv-x="573" 
d="M512 644q-56 -16 -106 -39.5t-90 -54t-68.5 -69t-43.5 -84.5q18 22 52 33.5t69 11.5q106 0 160.5 -59t54.5 -159q0 -52 -19.5 -95t-53.5 -74t-79 -48.5t-96 -17.5t-97 16t-80.5 48.5t-55 82t-20.5 117.5q0 93 37 168.5t100 132.5t145.5 94t173.5 53zM292 379
q-44 0 -71.5 -38.5t-27.5 -123.5q0 -88 26.5 -127t73.5 -39q94 0 94 168q0 45 -7 76t-20 49.5t-30 26.5t-38 8z" />
    <glyph glyph-name="seven" unicode="7" horiz-adv-x="483" 
d="M75 0q49 93 86 165t68.5 136.5t61.5 127.5t65 137q-20 -1 -50.5 -1t-64.5 -0.5t-69.5 -1t-66.5 -0.5h-54.5h-33.5q3 19 6 40t5 39q3 21 5 42h427l8 -28q-32 -79 -60.5 -147t-60 -141.5l-69 -161t-87.5 -206.5h-116z" />
    <glyph glyph-name="eight" unicode="8" horiz-adv-x="553" 
d="M282 696q100 0 156.5 -41t56.5 -113q0 -53 -33 -89t-85 -62q32 -17 58.5 -36t46 -41.5t30 -50.5t10.5 -62q0 -42 -14.5 -80.5t-45.5 -67.5t-79 -46.5t-114 -17.5q-56 0 -100 12.5t-74.5 35t-47 53t-16.5 65.5q0 31 11.5 56t30.5 44.5t44 35t51 27.5q-62 40 -87 83.5
t-25 102.5q0 44 17.5 79.5t48 60.5t72 38.5t88.5 13.5zM214 290q-70 -45 -70 -125q0 -56 35.5 -86t90.5 -30q59 0 93 24t34 68q0 27 -12.5 46t-36 35t-57.5 32t-77 36zM173 550q0 -22 9 -39.5t28 -33t48 -30.5t69 -32q26 20 44 48.5t18 70.5q0 22 -6 41t-19 33t-34.5 22
t-51.5 8q-46 0 -75.5 -21.5t-29.5 -66.5z" />
    <glyph glyph-name="nine" unicode="9" horiz-adv-x="573" 
d="M82 38q113 32 185.5 94t101.5 159q-18 -22 -52 -33t-69 -11q-52 0 -92 16t-67.5 44.5t-41.5 69t-14 89.5q0 52 19.5 95t53.5 74t79.5 47.5t96.5 16.5t96.5 -16t80.5 -49.5t55.5 -85t20.5 -123.5q0 -93 -34 -168t-93.5 -131.5t-139 -93t-170.5 -51.5zM282 308
q43 0 70.5 39t27.5 124q0 88 -26.5 127t-72.5 39q-49 0 -72 -39.5t-23 -124.5q0 -46 7 -77.5t20 -51t30.5 -28t38.5 -8.5z" />
    <glyph glyph-name="colon" unicode=":" horiz-adv-x="267" 
d="M57 69q0 31 22.5 54t53.5 23t54 -23t23 -54q0 -30 -23 -52.5t-54 -22.5t-53.5 22.5t-22.5 52.5zM57 403q0 15 6 29t16.5 24.5t24.5 17t29 6.5t29 -6.5t24.5 -17t17 -24.5t6.5 -29q0 -31 -23 -53.5t-54 -22.5t-53.5 22.5t-22.5 53.5z" />
    <glyph glyph-name="semicolon" unicode=";" horiz-adv-x="264" 
d="M55 403q0 15 6 29t16.5 24.5t24.5 17t30 6.5q15 0 28.5 -6.5t24 -17t17 -24.5t6.5 -29q0 -31 -23 -53.5t-53 -22.5q-32 0 -54.5 22.5t-22.5 53.5zM172 145q6 -6 13 -17t13.5 -24.5t10.5 -29t4 -31.5q0 -60 -37 -107t-108 -91l-25 41q32 24 44.5 50t12.5 61q0 32 -15.5 58
t-31.5 43z" />
    <glyph glyph-name="less" unicode="&#x3c;" horiz-adv-x="544" 
d="M486 63l-428 184v48l428 184v-70l-328 -138l328 -138v-70z" />
    <glyph glyph-name="equal" unicode="=" horiz-adv-x="584" 
d="M520 328h-456v65h456v-65zM520 150h-456v64h456v-64z" />
    <glyph glyph-name="greater" unicode="&#x3e;" horiz-adv-x="544" 
d="M52 479l428 -184v-48l-428 -184v70l328 138l-328 138v70z" />
    <glyph glyph-name="question" unicode="?" horiz-adv-x="395" 
d="M91 696q60 -8 109 -28t85 -49.5t57 -68.5t24 -85q0 -49 -15 -86t-41.5 -61.5t-61.5 -37t-75 -12.5q-12 0 -16 1q-4 0 -7 1v-22v-25.5t2 -31.5h-66q1 29 2 66.5t1 70.5v79q34 -3 69 -3q59 0 91.5 23.5t32.5 69.5t-47.5 68t-154.5 26zM52 63q0 29 21 50t49 21q15 0 28 -6
t22.5 -15.5t15.5 -22.5t6 -27q0 -29 -21.5 -49.5t-50.5 -20.5q-28 0 -49 20.5t-21 49.5z" />
    <glyph glyph-name="at" unicode="@" horiz-adv-x="880" 
d="M615 95q42 0 71 19.5t47.5 52.5t27 76t8.5 91q0 54 -14 101.5t-46 83.5t-83.5 57t-127.5 21q-91 0 -163.5 -27.5t-123.5 -79.5t-78.5 -127.5t-27.5 -170.5q0 -77 27.5 -131t72 -88.5t102 -50.5t117.5 -16q56 0 100.5 5.5t81.5 16t69.5 25.5t65.5 34l24 -51
q-30 -17 -61.5 -32.5t-71 -27t-90 -18.5t-118.5 -7q-69 0 -138 18t-124 58.5t-89 105.5t-34 159q0 109 34 194.5t94.5 143.5t145 88.5t185.5 30.5q85 0 148 -24t105 -66.5t62.5 -100t20.5 -123.5q0 -59 -15 -113.5t-45 -96t-76 -66t-109 -24.5q-34 0 -55 10t-33 22.5
t-17 24.5t-5 17h-4q-17 -27 -47.5 -48.5t-78.5 -21.5q-24 0 -47.5 8t-41.5 25t-29.5 45t-12.5 69q-2 59 17.5 113.5t55.5 96.5t85.5 67t108.5 25q16 0 31 -0.5t32.5 -2.5t37.5 -5.5t46 -9.5l-38 -177q-4 -18 -8 -38q-4 -17 -8 -39.5t-9 -45.5q-6 -30 2 -52.5t44 -22.5z
M519 420q-11 6 -22 8.5t-20 2.5q-36 0 -63.5 -22.5t-46 -58t-27.5 -80.5t-9 -90q0 -38 15 -56t38 -18q27 0 47 15.5t35 41.5z" />
    <glyph glyph-name="A" unicode="A" horiz-adv-x="660" 
d="M404 179q-24 0 -54.5 0.5t-61.5 0.5q-24 0 -55 0.5t-65 -0.5q-17 -44 -32.5 -88t-29.5 -92h-92q37 90 69.5 171t64 160.5t62.5 160t65 169.5q13 4 29 8.5t31.5 9.5t29 10t22.5 9q30 -94 59 -176t57 -159q28 -78 61 -169t69 -194h-166zM289 503q-19 -52 -45 -119.5
t-52 -136.5h18t25.5 -0.5t28 -0.5h25.5h18.5h26.5t26.5 0.5t18.5 0.5q-20 56 -42.5 124.5t-45.5 131.5h-2z" />
    <glyph glyph-name="B" unicode="B" horiz-adv-x="628" 
d="M65 0q2 101 2.5 185t0.5 157t-0.5 157.5t-2.5 184.5h271q102 0 162.5 -40t60.5 -123q0 -61 -39 -97.5t-107 -53.5v-4q93 -14 133.5 -60.5t40.5 -115.5q0 -84 -60.5 -137t-180.5 -53h-281zM222 331v-67v-58t0.5 -63t0.5 -81h81q67 0 96.5 32.5t29.5 97.5q0 70 -27 104.5
t-96 34.5h-85zM223 623v-73t-0.5 -53.5t-0.5 -48.5v-56h76q57 0 83.5 30.5t26.5 90.5q0 57 -25 83.5t-82 26.5h-78z" />
    <glyph glyph-name="C" unicode="C" horiz-adv-x="664" 
d="M388 696q52 0 90 -7t66.5 -19t49.5 -27.5t39 -32.5l-77 -91q-17 24 -33.5 44.5t-36 35.5t-44 23.5t-57.5 8.5q-43 0 -77.5 -20t-58.5 -56.5t-36.5 -88.5t-12.5 -115q0 -134 56.5 -203t151.5 -69q64 0 106.5 28t76.5 71l49 -42q-17 -23 -39.5 -49t-54.5 -47.5t-74.5 -36
t-99.5 -14.5q-74 0 -136.5 24.5t-108 69.5t-71 108.5t-25.5 141.5q0 83 27.5 150t76 114.5t113.5 73t140 25.5z" />
    <glyph glyph-name="D" unicode="D" horiz-adv-x="714" 
d="M65 0q2 101 2.5 185t0.5 157t-0.5 157.5t-2.5 184.5h240q185 0 280 -85.5t95 -247.5q0 -82 -25.5 -147t-73 -110.5t-115 -69.5t-151.5 -24h-250zM223 71q8 -1 26 -2.5t54 -1.5q50 -1 89 14t65.5 48.5t40.5 86.5t14 130q0 130 -53.5 200t-167.5 70q-11 0 -22.5 -0.5
t-21.5 -0.5h-23q-2 -73 -2.5 -139t-0.5 -132v-67.5v-59.5t0.5 -64.5t1.5 -81.5z" />
    <glyph glyph-name="E" unicode="E" horiz-adv-x="535" 
d="M422 321q-43 0 -82 1q-33 1 -67 1.5t-54 0.5v-65v-54.5v-59.5t1 -79q27 0 74 0.5t93 2.5q54 2 113 4l-7 -73h-429q2 101 2.5 185t0.5 157t-0.5 157.5t-2.5 184.5h425l-9 -76q-54 2 -102 4q-42 2 -85.5 3.5t-72.5 1.5q0 -44 -0.5 -72.5t-0.5 -52.5v-47v-56h50t71 1
q42 1 92 2z" />
    <glyph glyph-name="F" unicode="F" horiz-adv-x="523" 
d="M64 0q2 101 3.5 185t1.5 157t-0.5 157.5t-2.5 184.5h431l-8 -77q-56 2 -107 5q-22 1 -44.5 1.5t-44 1.5t-40 1.5t-31.5 0.5q0 -44 -0.5 -73.5t-1 -54.5t-0.5 -49v-56h52.5t73.5 1q43 0 93 1l-10 -74q-41 1 -80 2q-33 1 -69 1.5t-60 0.5v-74t0.5 -74.5t1 -79.5t1.5 -88
h-159z" />
    <glyph glyph-name="G" unicode="G" horiz-adv-x="701" 
d="M386 320h277q-1 -44 -1.5 -79t-1 -64.5t-0.5 -56v-54.5q-21 -14 -51 -27.5t-65.5 -24.5t-76 -18t-82.5 -7q-80 0 -145.5 24.5t-111.5 69.5t-71 107.5t-25 139.5q0 85 28 152.5t77.5 115t117 73t147.5 25.5q48 0 83.5 -6t63.5 -17t51 -26t46 -32l-76 -93q-18 26 -35.5 46
t-38 34t-45 21.5t-56.5 7.5q-93 0 -144 -74t-51 -207q0 -147 52.5 -222t144.5 -75q40 0 67.5 9.5t47.5 20.5v173q-14 0 -32 -0.5t-35.5 -1t-33 -1.5t-25.5 -1v68z" />
    <glyph glyph-name="H" unicode="H" horiz-adv-x="718" 
d="M65 0q2 101 2.5 185t0.5 157t-0.5 157.5t-2.5 184.5h159q-2 -80 -2.5 -159t-0.5 -140q36 0 66 -0.5t69 -0.5h30h40t40.5 0.5t30.5 0.5q0 61 -0.5 140t-2.5 159h159q-2 -102 -2.5 -185.5t-0.5 -156.5t0.5 -157.5t2.5 -184.5h-159q0 12 0.5 38t1 58t0.5 67.5t0.5 66.5
t0.5 54.5v32.5q-32 0 -65.5 1t-75.5 1h-61.5t-73.5 -1v-70t0.5 -79.5t1 -84t1.5 -84.5h-159z" />
    <glyph glyph-name="I" unicode="I" horiz-adv-x="289" 
d="M65 0q2 101 2.5 185t0.5 157t-0.5 157.5t-2.5 184.5h159q-2 -102 -2.5 -185.5t-0.5 -156.5t0.5 -157.5t2.5 -184.5h-159z" />
    <glyph glyph-name="J" unicode="J" horiz-adv-x="441" 
d="M226 131v40t0.5 52.5t0.5 59v59.5q0 73 -0.5 157.5t-2.5 184.5h158q-1 -51 -1.5 -90t-1 -72.5t-0.5 -65.5v-68v-41t0.5 -49.5t0.5 -50.5v-46q0 -64 -20 -104.5t-51.5 -64t-69.5 -32t-73 -8.5q-52 0 -90.5 11t-65.5 27l43 90q19 -21 45.5 -41.5t63.5 -20.5q62 0 64 73z
" />
    <glyph glyph-name="K" unicode="K" horiz-adv-x="643" 
d="M65 0q2 101 2.5 185t0.5 157t-0.5 157.5t-2.5 184.5h159q-2 -102 -2.5 -185.5t-0.5 -156.5t0.5 -157.5t2.5 -184.5h-159zM607 684q-38 -46 -69 -84.5t-59 -72t-53.5 -65t-50.5 -64.5q30 -48 58.5 -93t59 -92t65 -99t75.5 -114h-186q-31 52 -56.5 92.5t-49.5 78t-49 76
t-55 85.5v12q47 55 84 99.5t68 84t59 77t58 79.5h101z" />
    <glyph glyph-name="L" unicode="L" horiz-adv-x="522" 
d="M219 342v-68.5v-61.5t0.5 -66t1.5 -80q31 0 66 1t57 2q57 2 101 3.5t60 2.5l-6 -75h-433q2 101 2.5 185t0.5 157t-0.5 157.5t-4.5 184.5h158q-2 -95 -2.5 -176t-0.5 -166z" />
    <glyph glyph-name="M" unicode="M" horiz-adv-x="842" 
d="M609 580q-25 -68 -46.5 -128.5t-44 -124.5t-48.5 -137.5t-60 -166.5h-57q-31 84 -56.5 154.5t-49 136t-46 130t-48.5 136.5h-2v-25.5v-47t-0.5 -58t-0.5 -58v-47.5v-25q0 -69 0.5 -149t3.5 -170h-89q2 101 3 189.5t1 161.5q0 78 -0.5 166.5t-2.5 166.5h216
q16 -50 32.5 -98.5t34 -97.5t36 -101t38.5 -109q25 69 44.5 121.5t36 98.5t31.5 90t32 96h202q-2 -35 -2.5 -79t-1 -90.5t-0.5 -91.5v-81q0 -73 0.5 -157.5t2.5 -184.5h-158q2 101 2 185v157v56v55t-0.5 59t-0.5 68h-2z" />
    <glyph glyph-name="N" unicode="N" horiz-adv-x="708" 
d="M535 0q-41 54 -87.5 117t-96 129.5t-100.5 134t-99 129.5v-205v-70.5t0.5 -69t1 -76t1.5 -89.5h-90q3 101 4 193t1 187q0 64 -1 111t-3 82t-4 61.5t-4 49.5h165q43 -62 82 -115.5t79 -105.5t82 -105.5t92 -116.5q1 40 1 79v68v69t-0.5 66t-1 72.5t-1.5 88.5h87
q-2 -101 -2.5 -180.5t-0.5 -152.5v-162t1 -189h-106z" />
    <glyph glyph-name="O" unicode="O" horiz-adv-x="747" 
d="M376 53q45 0 77.5 20t53 57.5t30.5 90t10 118.5q0 140 -43.5 215.5t-131.5 75.5q-47 0 -80 -21t-53.5 -58.5t-30 -90.5t-9.5 -116q0 -144 46 -217.5t131 -73.5zM372 696q70 0 132 -24.5t109 -69.5t74.5 -108.5t27.5 -141.5q0 -86 -26.5 -153.5t-72 -114t-107.5 -71
t-133 -24.5t-134 24t-109.5 68.5t-73.5 108t-27 141.5q0 86 26.5 153.5t73 114.5t108 72t132.5 25z" />
    <glyph glyph-name="P" unicode="P" horiz-adv-x="587" 
d="M64 0q2 101 2.5 189.5t0.5 161.5q0 74 -0.5 153.5t-2.5 179.5h272q48 0 89 -13t70 -38t45.5 -62t16.5 -85q0 -43 -15.5 -80t-47.5 -64t-81.5 -42.5t-117.5 -15.5h-74v-134.5t2 -149.5h-159zM275 350q66 0 94 31t28 105q0 40 -8.5 65.5t-23.5 40.5t-37 20.5t-49 5.5h-28
t-29 -1q0 -56 -0.5 -100.5t-0.5 -86.5v-80h54z" />
    <glyph glyph-name="Q" unicode="Q" horiz-adv-x="788" 
d="M372 696q68 0 130 -23.5t109.5 -68t75.5 -108.5t28 -144q0 -100 -35 -174t-97 -122q15 -40 29.5 -56.5t41.5 -16.5q15 0 26 8.5t18.5 22t12 31t6.5 35.5l56 -9q-4 -33 -15.5 -65t-32 -56.5t-50.5 -40t-69 -15.5q-62 0 -97.5 26.5t-58.5 76.5q-17 -4 -37 -6t-39 -2
q-71 0 -133.5 24t-109 68.5t-73.5 107.5t-27 142q0 87 27.5 154.5t74 114.5t108.5 71.5t131 24.5zM199 344q0 -151 59 -222q-1 29 9 51.5t27 37.5t40 23t49 8q40 0 74.5 -17t62.5 -61q17 35 22 81t5 94q0 141 -43 215.5t-132 74.5q-48 0 -81 -21t-53.5 -59t-29.5 -90.5
t-9 -114.5zM377 53q15 0 26.5 1t24.5 6q-11 50 -29 78.5t-47 28.5q-24 0 -36.5 -15t-12.5 -38q0 -28 17.5 -44.5t56.5 -16.5z" />
    <glyph glyph-name="R" unicode="R" horiz-adv-x="638" 
d="M64 0q2 101 2.5 185t0.5 157t-0.5 157.5t-2.5 184.5h259q53 0 97 -11.5t75.5 -34.5t49 -58.5t17.5 -84.5q0 -54 -30.5 -101t-97.5 -71q4 -6 14 -21.5t20.5 -33.5t20.5 -35t15 -26q29 -51 61 -106t61 -101h-180q-12 22 -31.5 58t-41 77t-43.5 83t-40 75h-69v-136.5
t2 -156.5h-159zM222 617v-74.5t-0.5 -64t-0.5 -59.5v-60h57q66 0 94.5 30.5t28.5 99.5q0 70 -27.5 100.5t-93.5 30.5q-17 0 -33 -1t-25 -2z" />
    <glyph glyph-name="S" unicode="S" horiz-adv-x="570" 
d="M257 -11q-77 0 -128.5 21.5t-86.5 48.5l45 106q32 -49 76 -79.5t115 -30.5q56 0 85.5 25.5t29.5 65.5q0 21 -6.5 38t-22 32t-42.5 30t-67 32q-47 19 -82 38.5t-58.5 43.5t-35.5 55t-12 74q0 48 17.5 86.5t49 65t74.5 41t94 14.5q66 0 114.5 -15.5t86.5 -40.5l-46 -90
q-26 38 -65 58.5t-96 20.5q-48 0 -73 -22.5t-25 -60.5q0 -17 5 -31.5t18 -28t35.5 -27t57.5 -28.5q56 -24 96.5 -45.5t66 -46.5t37.5 -56t12 -72q0 -45 -16 -85.5t-49 -70.5t-83.5 -48t-120.5 -18z" />
    <glyph glyph-name="T" unicode="T" horiz-adv-x="634" 
d="M614 684v-14t0.5 -23.5t0.5 -23.5v-14q-45 1 -86 3q-35 2 -73 2.5t-61 1.5q0 -81 -0.5 -146.5t-0.5 -127.5q0 -73 0.5 -157.5t2.5 -184.5h-160q2 101 2.5 185t0.5 157v127.5t-1 146.5q-27 -1 -64.5 -1.5t-72.5 -2.5q-40 -2 -83 -3v14t0.5 23.5t0.5 23.5v14h594v0z" />
    <glyph glyph-name="U" unicode="U" horiz-adv-x="685" 
d="M624 227q0 -58 -19.5 -102.5t-54.5 -74.5t-85.5 -45.5t-111.5 -15.5q-64 0 -117.5 13.5t-92.5 44t-60.5 80t-21.5 120.5v51.5v27t0.5 13.5t0.5 10v17.5v36.5v66t-0.5 61t-1 67.5t-1.5 86.5h158q0 -51 -0.5 -87.5t-1 -67.5t-0.5 -60.5v-65.5v-60t0.5 -40.5t0.5 -33.5v-38
q0 -90 41 -129t127 -39q83 0 121 43t38 114v161v69.5t-0.5 68.5t-1.5 75t-3 90h89q-1 -51 -1.5 -91t-1 -75t-0.5 -68v-69v-154v0z" />
    <glyph glyph-name="V" unicode="V" horiz-adv-x="648" 
d="M361 172q7 19 20.5 55t27 74.5t26 73t18.5 51.5q27 76 49 142t37 116h92q-9 -25 -25 -66.5t-32.5 -85t-31.5 -82.5t-22 -58q-38 -98 -75 -192.5t-76 -199.5h-107q-17 51 -33 96.5t-31 87.5t-29 82l-28 80q-28 78 -57 159t-66 179h172q3 -13 14.5 -48t25.5 -77t27 -83.5
t21 -65.5q6 -18 17.5 -51.5t24 -70t24 -69t16.5 -47.5h1z" />
    <glyph glyph-name="W" unicode="W" horiz-adv-x="942" 
d="M468 446q-4 -15 -14 -46t-22 -71.5t-26 -86.5t-27.5 -91t-25 -84.5t-18.5 -66.5h-113l-109 378q-3 10 -9.5 34.5t-15 55t-18 64.5t-18 64.5t-15.5 54t-10 33.5h169q17 -72 31 -128t28 -110q13 -53 28.5 -111t35.5 -134h2q6 20 16 52.5t21 70t22.5 77.5t21.5 75.5t17.5 63
t10.5 41.5q-2 6 -6.5 20.5t-9.5 30t-9.5 30t-6.5 22.5h167q14 -66 29 -119t30 -107q15 -57 33 -119.5t39 -137.5h2q19 62 36 125t33 120q19 67 34 126.5t27 111.5h93q-3 -8 -9 -29.5t-14.5 -49.5t-18 -59.5t-18 -60t-16 -51t-10.5 -32.5q-4 -14 -14 -46t-22 -73t-26 -86.5
t-26 -86t-21.5 -70.5t-12.5 -40h-110q-43 141 -75 252t-58 194h-2z" />
    <glyph glyph-name="X" unicode="X" horiz-adv-x="638" 
d="M22 0l57 85.5t57.5 85.5t55 82t49.5 75q-48 81 -101.5 168t-112.5 188h180q40 -69 76.5 -130.5t74.5 -124.5q40 65 75 126t73 129h99l-208 -324q48 -80 103.5 -171.5t115.5 -188.5h-183q-45 76 -80.5 138t-70.5 120q-35 -54 -75.5 -121.5t-82.5 -136.5h-102z" />
    <glyph glyph-name="Y" unicode="Y" horiz-adv-x="612" 
d="M225 0l3 286q-28 54 -53 100t-50 91.5t-52 95.5t-60 111h175q24 -50 44 -90t39.5 -76t38.5 -70.5t40 -73.5q23 42 45.5 84.5t42.5 82.5t38 76.5t33 66.5h93q-8 -12 -25 -43t-38.5 -70.5t-45 -84t-45 -84.5t-38.5 -71t-25 -44q0 -65 0.5 -132.5t2.5 -154.5h-163z" />
    <glyph glyph-name="Z" unicode="Z" horiz-adv-x="601" 
d="M383 616q-46 0 -95 -1t-94 -2.5t-82.5 -3.5t-61.5 -4l6 80q48 -1 106 -1h129h274l13 -36q-26 -45 -49.5 -83.5t-47 -75.5t-48.5 -75t-53 -83q-23 -35 -46.5 -71.5t-45 -71.5t-39.5 -66t-30 -55q43 1 95.5 2t102.5 2t92 2t65 3l-6 -79q-27 0 -56 1q-25 1 -55.5 1.5
t-59.5 0.5h-366l-8 42q14 25 35.5 59t47.5 74.5t55 85t59 90.5q25 38 49 76t45.5 72.5t39 64t29.5 52.5z" />
    <glyph glyph-name="bracketleft" unicode="[" horiz-adv-x="365" 
d="M74 -129q0 51 0.5 110t1 117t0.5 110v88v88.5v110.5t-0.5 116.5t-1.5 108.5l273 1v-54q-38 2 -78 3t-79 -1q0 -48 -0.5 -99.5t-1 -101.5t-0.5 -94.5v-77.5v-78v-95t0.5 -101.5t1.5 -98.5q38 -2 78.5 -1t78.5 3v-55z" />
    <glyph glyph-name="backslash" unicode="\" horiz-adv-x="322" 
d="M101 726q10 -48 24.5 -108t29.5 -120t29 -113.5t23 -89.5q9 -35 23 -92.5t30.5 -122t33.5 -128.5t30 -113l-88 -18q-11 48 -26.5 113t-32 130.5t-31.5 124t-24 93.5q-9 36 -22 88.5t-28 111.5t-30.5 118t-28.5 108z" />
    <glyph glyph-name="bracketright" unicode="]" horiz-adv-x="365" 
d="M18 -130v55q38 -2 78.5 -3t79.5 1q1 47 1.5 98.5t0.5 101.5v95v78v77.5t-0.5 94.5t-1 101.5t-0.5 99.5q-40 2 -80 1t-78 -3v54l274 -1q-1 -50 -1.5 -108.5t-1 -116.5t-0.5 -110.5v-88.5v-88t0.5 -110t1 -117t1.5 -110z" />
    <glyph glyph-name="asciicircum" unicode="^" horiz-adv-x="541" 
d="M308 715q7 -13 20.5 -39t30 -58t35 -67t35.5 -67.5t31 -58.5t22 -40l-70 -33q-20 42 -36.5 77t-33 68l-33.5 67t-38 74h-1q-19 -38 -36.5 -72.5t-34.5 -69t-34.5 -70t-36.5 -74.5l-69 33q27 52 48 91t40.5 75.5t39.5 75t46 88.5h75v0z" />
    <glyph glyph-name="underscore" unicode="_" horiz-adv-x="382" 
d="M-9 -95h400v-61h-400v61z" />
    <glyph glyph-name="grave" unicode="`" 
d="M169 530q-19 40 -38.5 79t-39.5 85l98 21l46 -172z" />
    <glyph glyph-name="a" unicode="a" horiz-adv-x="514" 
d="M36 432q38 27 91 44t117 17q91 0 140.5 -32.5t49.5 -109.5v-26t-0.5 -33.5t-0.5 -33.5v-25q0 -42 0.5 -79.5t0.5 -68.5q0 -17 6 -24t22 -7q11 0 20.5 3.5t17.5 7.5l18 -30q-18 -18 -49.5 -32t-70.5 -14q-83 0 -103 61q-21 -21 -54.5 -41t-82.5 -20q-27 0 -50.5 8.5
t-41 24.5t-28 40t-10.5 54q0 34 11.5 56t28 35.5t34.5 20t30 10.5q44 14 81.5 23t71.5 19v89q0 35 -16 49.5t-55 14.5q-35 0 -72.5 -19.5t-60.5 -51.5zM283 87q1 32 1.5 66.5t0.5 77.5q-6 -1 -15 -3.5t-19.5 -5.5t-20.5 -6t-17 -5q-24 -10 -33.5 -28.5t-9.5 -53.5
q0 -38 15 -52t40 -14q20 0 33.5 7.5t24.5 16.5z" />
    <glyph glyph-name="b" unicode="b" horiz-adv-x="577" 
d="M204 448q20 14 55 29.5t82 15.5q37 0 74 -12.5t66 -40.5t47.5 -74.5t18.5 -113.5q0 -69 -21.5 -119t-56.5 -82t-79.5 -47t-91.5 -15q-61 0 -96 17t-58 36h-4l-59 -42h-29q2 38 3 125.5t1 219.5v125.5t-0.5 94.5t-1.5 73t-2 63l152 18v-271zM203 96q13 -20 31.5 -34.5
t50.5 -14.5q23 0 43 10.5t34.5 33t23 58.5t8.5 87q0 94 -27.5 136t-87.5 42q-23 0 -43 -4.5t-33 -11.5v-302z" />
    <glyph glyph-name="c" unicode="c" horiz-adv-x="486" 
d="M183 244q0 -90 36.5 -134t94.5 -44q45 0 71.5 17t46.5 43l39 -33q-27 -42 -74.5 -73t-120.5 -31q-51 0 -96 16t-78.5 47.5t-53 77t-19.5 104.5q0 61 22 109t59 81.5t85.5 51t102.5 17.5q57 0 96 -10.5t71 -34.5l-43 -80q-41 67 -108 67q-59 0 -95 -48t-36 -143z" />
    <glyph glyph-name="d" unicode="d" horiz-adv-x="577" 
d="M373 479v53v64.5t-0.5 61t-1.5 43.5l152 18v-495v-102.5t2 -121.5h-147q0 5 0.5 12t0.5 14v17h-4q-9 -9 -21.5 -18.5t-29 -17.5t-38.5 -13t-50 -5q-39 0 -76 15t-65.5 44.5t-46 74t-17.5 103.5q0 66 20 116t54.5 83.5t80.5 50.5t97 17q30 0 53 -4t37 -10zM374 391
q-12 20 -33 32t-48 12q-53 0 -80.5 -51t-27.5 -142q0 -93 29 -135t81 -42q27 0 48.5 11t30.5 24v291z" />
    <glyph glyph-name="e" unicode="e" horiz-adv-x="514" 
d="M479 97q-11 -17 -29 -36t-43 -35t-58 -26.5t-75 -10.5q-51 0 -96 15t-78 45.5t-52 76.5t-19 108q0 58 20 106t53.5 82t78 52.5t92.5 18.5q58 0 98.5 -17.5t66.5 -49t38 -76t12 -99.5h-307v-25q2 -42 11 -71.5t26 -49.5q17 -21 41 -30.5t53 -9.5q45 0 75.5 18.5t53.5 47.5
zM346 310q0 60 -15 94t-59 34q-36 0 -60 -36t-30 -98z" />
    <glyph glyph-name="f" unicode="f" horiz-adv-x="351" 
d="M88 482v31q0 53 16.5 91.5t45 63.5t67.5 37t84 12q51 0 83 -11t58 -27l-50 -75q-15 24 -36.5 39t-50.5 15q-34 0 -50.5 -20t-16.5 -70v-87h120v-64h-120l-1 -149v-77t0.5 -67t1.5 -62.5t2 -61.5h-154q2 62 2.5 126t0.5 142v44t-0.5 35.5l-1 33t-0.5 36.5h-70v33z" />
    <glyph glyph-name="g" unicode="g" horiz-adv-x="545" 
d="M38 327q0 35 15.5 65t43 52.5t66 35.5t85.5 13q36 0 65 -6t55 -17q16 -5 31 -6t32 -1q14 0 31 2.5t33 6.5q18 4 37 9l-8 -96q-18 7 -47 16.5t-51 16.5l-3 -3q16 -13 26 -37t10 -47q0 -36 -14.5 -66.5t-42 -52t-67 -33.5t-88.5 -12q-18 0 -34.5 0.5t-27.5 2.5
q-13 -7 -21.5 -15.5t-8.5 -21.5q0 -14 9.5 -19t29.5 -5h168q81 0 118 -32.5t37 -95.5q0 -44 -21 -77.5t-58 -56t-86 -34t-105 -11.5q-231 0 -231 106q0 38 31.5 58t82.5 26v3q-36 8 -56.5 30t-20.5 54q0 21 7.5 37.5t20 29.5t28 22.5t32.5 14.5v3q-50 16 -76.5 53.5
t-26.5 87.5zM187 -23q-61 -9 -61 -56q0 -13 6 -24t20 -19.5t37.5 -13t58.5 -4.5q72 0 111 20t39 58q0 26 -15.5 32.5t-44.5 6.5h-151zM170 328q0 -60 20 -83t58 -23q39 0 59 24.5t20 81.5q0 60 -21 84.5t-58 24.5q-35 0 -56.5 -25t-21.5 -84z" />
    <glyph glyph-name="h" unicode="h" horiz-adv-x="568" 
d="M55 247v151.5t-0.5 130t-1 102.5t-1.5 68l152 20v-23.5v-53t-0.5 -68t-0.5 -68v-53v-22.5q22 17 49 34q22 11 52 19.5t56 8.5q84 0 121 -40t37 -125v-23.5t-0.5 -35t-0.5 -35.5v-26v-59.5t0.5 -50.5t1 -47.5t0.5 -50.5h-153q0 32 0.5 56t1 46t1 45t0.5 55v32t-0.5 36
t-0.5 34v27q0 36 -17.5 56.5t-63.5 20.5q-20 0 -43 -8t-40 -22q-1 -31 -1 -69.5v-84.5v-67.5t0.5 -53.5t1 -49t0.5 -54h-152q0 32 0.5 60.5l1 57t0.5 59.5v70z" />
    <glyph glyph-name="i" unicode="i" horiz-adv-x="266" 
d="M61 247v69v55.5t-0.5 48t-1.5 46.5l152 20q0 -29 -0.5 -55t-1 -54.5t-1 -62t-0.5 -78.5q0 -39 0.5 -68.5t1 -56l1 -53t0.5 -58.5h-152q0 32 0.5 60.5l1 57t0.5 59.5v70zM53 639q0 32 22 54.5t57 22.5t58 -22.5t23 -54.5t-23 -54t-58 -22t-57 22t-22 54z" />
    <glyph glyph-name="j" unicode="j" horiz-adv-x="268" 
d="M60 -70v72t0.5 80.5t0.5 83.5v81v69v55.5t-0.5 48t-1.5 46.5l152 20q0 -29 -0.5 -55t-1 -54.5t-1 -62t-0.5 -78.5v-67t0.5 -52.5t0.5 -47.5v-51q0 -56 -15.5 -97.5t-43 -68.5t-64.5 -40t-80 -13q-40 0 -68.5 7.5t-47.5 18.5l33 80q10 -15 33 -28.5t52 -13.5t40.5 17.5
t11.5 49.5zM53 639q0 32 22 54.5t57 22.5t58 -22.5t23 -54.5t-23 -54t-58 -22t-57 22t-22 54z" />
    <glyph glyph-name="k" unicode="k" horiz-adv-x="535" 
d="M55 374v86t-0.5 92.5t-1 84.5t-1.5 62l153 20q0 -29 -0.5 -70t-0.5 -87t-0.5 -94.5t-0.5 -93.5v-83t0.5 -103t1 -103.5t1.5 -84.5h-153q0 32 0.5 80t1 100.5t0.5 103.5v90zM357 0q-20 35 -36.5 64t-33 57t-35 56.5t-40.5 63.5q28 31 53 60.5t48.5 58t47 58.5t48.5 63h94
q-29 -30 -50.5 -53t-40 -43.5t-35.5 -40t-37 -42.5q22 -35 45.5 -73.5t48.5 -78t50 -78t51 -72.5h-178z" />
    <glyph glyph-name="l" unicode="l" horiz-adv-x="261" 
d="M58 374q0 39 -0.5 85.5t-1.5 91.5t-1.5 84.5t-1.5 63.5l154 20q0 -29 -0.5 -70t-0.5 -87t-0.5 -94.5t-0.5 -93.5v-90t0.5 -103.5t1 -100.5t0.5 -80h-152q0 32 0.5 80t1 100.5t1 103.5t0.5 90z" />
    <glyph glyph-name="m" unicode="m" horiz-adv-x="850" 
d="M54 247q0 39 -0.5 68.5t-0.5 54t-0.5 47t-0.5 47.5l149 19v-10.5t-0.5 -16t-0.5 -16v-9.5q11 9 22.5 17t25.5 16q20 11 47.5 20t57.5 9q56 0 86.5 -17t44.5 -52h4q11 10 29.5 21.5t30.5 18.5q22 12 49 20.5t54 8.5q43 0 72 -10.5t46 -31t24 -51.5t7 -72v-25t-0.5 -38
t-0.5 -39v-28v-53t0.5 -47t1 -46.5t0.5 -51.5h-151v54.5t0.5 42.5t0.5 42v54v33.5t-0.5 39t-0.5 37v28.5q0 37 -13 57t-54 20q-22 0 -44 -9.5t-39 -23.5q1 -10 1.5 -21.5t0.5 -25.5v-25t-0.5 -38t-0.5 -39v-28v-59.5t0.5 -46l1 -43t0.5 -49.5h-152q0 32 0.5 54.5t0.5 42.5
t0.5 42t0.5 54v33.5t-0.5 39t-0.5 37v28.5q0 36 -13 56.5t-55 20.5q-20 0 -42 -8t-39 -22q-1 -31 -1 -72v-87v-66t0.5 -50.5l1 -47t0.5 -55.5h-152q0 32 0.5 60.5l1 57t0.5 59.5v70z" />
    <glyph glyph-name="n" unicode="n" horiz-adv-x="566" 
d="M54 247q0 39 -0.5 68.5t-0.5 54t-0.5 47t-0.5 47.5l149 19v-10.5t-0.5 -16t-0.5 -16v-9.5q11 9 24.5 17.5t26.5 16.5q24 12 53 20t55 8q84 0 120.5 -40t36.5 -125v-23.5t-0.5 -35t-0.5 -35.5v-26q0 -39 0.5 -67t1 -51.5t1 -44.5t0.5 -45h-153q0 32 0.5 56t1 46t0.5 45v55
v32t-0.5 36t-0.5 34v27q0 36 -17.5 56.5t-62.5 20.5q-20 0 -43 -8t-40 -22q-1 -31 -1 -69.5v-84.5v-67.5t0.5 -53.5t1 -49t0.5 -54h-152q0 32 0.5 60.5l1 57t0.5 59.5v70z" />
    <glyph glyph-name="o" unicode="o" horiz-adv-x="571" 
d="M286 47q28 0 47.5 14.5t32 40.5t18.5 62.5t6 80.5q0 100 -28 145t-76 45q-29 0 -49 -14.5t-32.5 -40.5t-18 -62.5t-5.5 -80.5q0 -100 29 -145t76 -45zM286 493q46 0 92 -14t83 -44.5t60 -78t23 -113.5q0 -61 -20 -108t-54.5 -79.5t-82 -49.5t-101.5 -17q-49 0 -95.5 15
t-82.5 46t-58 78t-22 111q0 61 21 108t57 79.5t82.5 49.5t97.5 17z" />
    <glyph glyph-name="p" unicode="p" horiz-adv-x="577" 
d="M202 10v-58.5t0.5 -48.5t1.5 -46t2 -52h-153q0 32 0.5 77.5t1 94.5t1 97.5t0.5 87.5q0 38 -0.5 83t-1 87.5t-1 77.5t-1.5 54l149 19v-45q29 21 64 38t83 17q39 0 74.5 -13t63.5 -42.5t44.5 -76t16.5 -113.5q0 -61 -19.5 -109t-52.5 -81.5t-77 -51t-94 -17.5
q-35 0 -59.5 6.5t-39.5 14.5h-3zM202 98q13 -20 33.5 -35.5t52.5 -15.5q50 0 77.5 44.5t27.5 144.5q0 94 -27 134.5t-82 40.5q-23 0 -46 -6.5t-36 -16.5v-290z" />
    <glyph glyph-name="q" unicode="q" horiz-adv-x="573" 
d="M439 455q3 2 10 8t15 13t14.5 13t8.5 8l35 -10q0 -10 -0.5 -26t-1 -44t-1 -71.5t-0.5 -107.5v-48t0.5 -71.5t0.5 -84.5t0.5 -87.5t0.5 -79.5t1 -62h-152q1 29 2 55.5t1.5 53t0.5 54v58.5h-3q-21 -15 -52.5 -26t-70.5 -11q-45 0 -85 14t-70 43.5t-47 75.5t-17 109
q0 64 20.5 113t55.5 82t81.5 50t98.5 17q36 0 79.5 -10.5t74.5 -27.5zM372 394q-13 17 -34 29t-48 12q-52 0 -79.5 -50t-27.5 -142q0 -94 30 -136t86 -42q23 0 44 8t29 18v303z" />
    <glyph glyph-name="r" unicode="r" horiz-adv-x="385" 
d="M54 247q0 39 -0.5 68.5t-0.5 54t-0.5 47t-0.5 47.5l149 19v-14.5t-0.5 -24t-0.5 -23v-13.5q29 33 62.5 57.5t76.5 24.5q12 0 24 -1.5t22 -6.5l-22 -119q-11 8 -28.5 13.5t-41.5 5.5q-55 0 -91 -24q-1 -30 -0.5 -73t0.5 -88q0 -59 0.5 -103.5t1.5 -93.5h-152
q0 32 0.5 60.5l1 57t0.5 59.5v70z" />
    <glyph glyph-name="s" unicode="s" horiz-adv-x="434" 
d="M206 -11q-56 0 -101.5 13t-77.5 36l42 86q25 -36 58 -56t84 -20q41 0 59 15t18 35q0 12 -4.5 21.5t-15.5 18t-30 17.5t-47 21q-69 26 -105.5 60t-36.5 99q0 73 48 115.5t139 42.5q48 0 85 -11t73 -31l-45 -79q-20 29 -49.5 46t-74.5 17q-70 0 -70 -49q0 -23 21 -37
t67 -31q39 -15 69 -30t50 -33.5t30.5 -42.5t10.5 -57t-12 -63.5t-36.5 -53t-61.5 -36t-87 -13.5z" />
    <glyph glyph-name="t" unicode="t" horiz-adv-x="401" 
d="M363 481v-64h-133v-295q0 -58 59 -58q23 0 42.5 5.5t35.5 11.5l18 -41q-23 -17 -63 -34t-96 -17q-78 0 -111 34t-33 91l2 303h-55v30q39 33 81.5 68.5t81.5 80.5h39l-1 -115h133z" />
    <glyph glyph-name="u" unicode="u" horiz-adv-x="566" 
d="M513 236q0 -78 0.5 -132.5t2.5 -103.5h-149v10.5t0.5 15.5t0.5 15.5v10.5l-26 -18t-27 -17q-25 -13 -53.5 -20.5t-57.5 -7.5q-80 0 -116 37t-36 122v126v58v48t-0.5 47t-1.5 54h151v-332q0 -38 15.5 -57.5t57.5 -19.5q23 0 48 9t42 27q1 31 1.5 67t0.5 83v67.5t-0.5 53.5
t-1 49t-1.5 53h152q0 -13 -0.5 -47t-1 -73t-0.5 -74.5v-50.5z" />
    <glyph glyph-name="v" unicode="v" horiz-adv-x="508" 
d="M293 162q21 57 37 100t28.5 79t23.5 69t23 71h89q-23 -54 -43 -103t-42.5 -104t-49 -120.5t-63.5 -153.5h-93q-27 68 -50.5 128t-45.5 117t-45 115t-48 121h167q12 -41 24.5 -78t26 -74.5t28 -78t31.5 -88.5h2z" />
    <glyph glyph-name="w" unicode="w" horiz-adv-x="748" 
d="M374 292q-26 -64 -53.5 -137t-55.5 -155h-99q-42 133 -77 251t-72 230h161q5 -23 15.5 -64.5t22.5 -87.5t23.5 -89.5t18.5 -69.5h1q33 85 57.5 160.5t51.5 150.5h77q14 -42 26 -78.5t24.5 -72.5t25.5 -75t30 -85h2q16 52 29 93.5t24 77.5t20.5 69.5t18.5 70.5h86
q-18 -54 -36 -108.5t-37 -113t-40 -122.5t-45 -137h-103q-15 45 -27.5 83.5t-24 73l-22.5 67.5t-22 68z" />
    <glyph glyph-name="x" unicode="x" horiz-adv-x="521" 
d="M326 0q-14 23 -26 43.5l-24 41t-24.5 41.5t-27.5 45q-27 -45 -53.5 -85.5t-51.5 -85.5h-98q48 71 88.5 128t69.5 104q-20 31 -38.5 60.5t-37 59.5t-39 61.5t-43.5 67.5h171q7 -10 20.5 -32.5l28.5 -47.5t28.5 -48.5t21.5 -35.5q29 46 53.5 84t46.5 80h97
q-22 -34 -41.5 -62t-37.5 -54.5t-36 -52.5t-37 -56q20 -32 38 -60.5t36.5 -58.5t40 -63.5t48.5 -73.5h-173v0z" />
    <glyph glyph-name="y" unicode="y" horiz-adv-x="514" 
d="M295 164q22 56 38.5 97.5t29.5 77.5t25 69.5t25 72.5h91q-35 -83 -73 -173.5t-76 -179.5t-74 -172t-66 -151h-90q14 26 28 53.5t26.5 52.5t21.5 44.5t14 29.5q-48 122 -101 244t-102 252h166q15 -45 28 -83t26.5 -74t28 -74.5t32.5 -85.5h2z" />
    <glyph glyph-name="z" unicode="z" horiz-adv-x="476" 
d="M267 422q-19 0 -51 -1t-65.5 -2t-64 -3t-46.5 -3l4 68h393l8 -31q-41 -63 -72 -113t-59 -94.5t-54.5 -88t-56.5 -94.5q41 0 74 1t61.5 2t53.5 2t49 3l-5 -68h-407l-5 35q70 107 134 208t109 179z" />
    <glyph glyph-name="braceleft" unicode="{" horiz-adv-x="375" 
d="M33 319q10 0 16 -0.5t10.5 -1t9 -0.5h10.5q61 0 61 63q0 22 -4.5 43t-9.5 41t-9.5 39.5t-4.5 39.5q0 47 15.5 78t42.5 50.5t62 29t74 14.5l18 2t17 2q9 1 17 2l4 -51q-10 -2 -27 -4.5t-30 -4.5q-18 -2 -32.5 -7.5t-25 -16t-16.5 -27t-6 -41.5q0 -30 3 -51t6 -39t6 -36.5
t3 -43.5q0 -18 -7.5 -35t-22 -31t-35 -24t-45.5 -13v-7q25 -3 45.5 -13t35 -24t22 -31t7.5 -35q0 -25 -3 -43.5t-6 -36.5t-6 -38.5t-3 -50.5q0 -50 22.5 -70t57.5 -23l57 -7l-4 -52q-12 2 -25 3t-33 3q-39 3 -73.5 12.5t-60 29t-40 51t-14.5 78.5q0 19 4.5 39t9.5 40t9.5 41
t4.5 43q0 63 -61 63q-13 0 -20.5 -0.5t-25.5 -1.5v53z" />
    <glyph glyph-name="bar" unicode="|" horiz-adv-x="248" 
d="M83 -133q1 50 1.5 109.5t1 118t0.5 111.5v89v88.5t-0.5 111t-1 117.5t-1.5 109h86q-1 -50 -1.5 -109.5t-0.5 -117.5v-110.5v-88.5v-89v-112t0.5 -118.5t1.5 -108.5h-86z" />
    <glyph glyph-name="braceright" unicode="}" horiz-adv-x="375" 
d="M346 266q-18 1 -25.5 1.5t-20.5 0.5q-61 0 -61 -63q0 -22 4.5 -43t9.5 -41t9.5 -40t4.5 -39q0 -47 -15 -78.5t-40.5 -51t-59.5 -29t-73 -12.5q-20 -2 -33 -3t-25 -3l-4 52l58 7q34 3 56.5 23t22.5 70q0 30 -3 50.5t-6 38.5t-6 36.5t-3 43.5q0 18 7.5 35t22 31t34.5 24
t46 13v7q-26 3 -46 13t-34.5 24t-22 31t-7.5 35q0 25 3 43.5t6 36.5t6 39t3 51q0 25 -6 41.5t-16.5 27t-25 16t-31.5 7.5q-14 2 -31 4.5t-27 4.5l4 51q8 -1 17 -2q8 -1 16.5 -2t18.5 -2q39 -5 74 -14.5t62 -29t42.5 -50.5t15.5 -78q0 -20 -4.5 -39.5t-9.5 -39.5t-9.5 -41
t-4.5 -43q0 -63 61 -63h10.5t9 0.5t10.5 1t16 0.5v-53v0z" />
    <glyph glyph-name="asciitilde" unicode="~" horiz-adv-x="495" 
d="M358 276q9 0 17 2t13.5 9t8.5 20t1 34l66 -17q-8 -72 -40.5 -107.5t-82.5 -35.5q-29 0 -57.5 12t-51.5 24q-20 11 -41.5 20.5t-43.5 9.5q-9 0 -19 -2.5t-17.5 -9.5t-12 -20.5t-2.5 -34.5l-65 18q7 72 44 107.5t85 35.5q29 0 53 -9t50 -23q22 -11 48 -22t47 -11z" />
    <glyph glyph-name="exclamdown" unicode="&#xa1;" horiz-adv-x="270" 
d="M178 484q6 -69 10.5 -125t8.5 -110.5t8.5 -114t11.5 -135.5l-165 -6q6 70 10.5 128t9 114.5t9 116t9.5 132.5h88zM207 616q0 -28 -21 -49t-50 -21t-50 21t-21 49q0 29 21 50t50 21t50 -21t21 -50z" />
    <glyph glyph-name="cent" unicode="&#xa2;" horiz-adv-x="489" 
d="M267 -110v49.5t1 49.5q-50 1 -94 18t-76 48t-50.5 76t-18.5 103q0 57 19 102t51.5 78t76 52.5t92.5 24.5v16t-0.5 25.5t-0.5 25.5v17h64l-2 -84q45 -2 77.5 -14t58.5 -32l-43 -79q-18 28 -40 45.5t-54 21.5v-370q38 4 62.5 22t42.5 41l39 -33q-22 -34 -57 -61.5
t-86 -37.5q0 -36 0.5 -61t1.5 -43h-64zM174 244q0 -73 26 -117.5t69 -58.5q1 48 1 92.5v89.5v87.5t-1 92.5q-44 -14 -69.5 -60.5t-25.5 -125.5z" />
    <glyph glyph-name="sterling" unicode="&#xa3;" horiz-adv-x="546" 
d="M29 0l-6 23q40 55 53.5 109t13.5 112q0 34 -0.5 53t-1 34.5t-1.5 32t-1 46.5q0 77 23.5 131t62 88.5t87.5 50.5t100 16t85 -8t60 -21l-32 -94q-19 26 -45 41t-70 15q-55 0 -82.5 -37t-27.5 -118v-56t-0.5 -22t-0.5 -9v-15h34.5t56.5 1q34 0 76 1l-10 -70h-65
q-26 0 -52.5 0.5t-40.5 0.5q-1 -29 -6 -60.5t-15.5 -63t-26 -61t-37.5 -54.5q45 1 94 2t94 2t83 2.5t62 2.5l-6 -75h-458z" />
    <glyph glyph-name="yen" unicode="&#xa5;" horiz-adv-x="592" 
d="M535 170q-33 0 -56.5 0.5t-42 1t-33.5 0.5h-31q0 -36 0.5 -80t1.5 -92h-158l1 173q-15 0 -30 -0.5t-33.5 -1t-42 -1t-55.5 -0.5v64q33 0 56.5 -0.5t42 -1t33.5 -1t30 -0.5l1 50q-4 8 -7 15t-8 17q-6 0 -25 -0.5t-41.5 -1l-45 -1t-36.5 -0.5v66q42 -1 69.5 -1.5t48.5 -0.5
q-18 37 -36 73l-36.5 73t-39.5 77t-45 87h161q24 -50 44 -91.5t39 -80t37 -75.5t39 -77q44 88 83.5 172t70.5 152h84q-7 -12 -19.5 -36t-28 -55t-32.5 -64.5t-32 -64t-27.5 -55t-18.5 -35.5q5 0 20 0.5t33 0.5t36 0.5t29 0.5v-66q-30 0 -52.5 0.5t-40 1t-32 0.5h-28.5
l-10 -30v-51h31t34 0.5t42.5 1t55.5 1.5v-64z" />
    <glyph glyph-name="brokenbar" unicode="&#xa6;" horiz-adv-x="252" 
d="M83 -133q1 21 1.5 47.5t1 53.5t0.5 51v39v38t-0.5 49l-1 52t-1.5 47h86q-1 -21 -1.5 -47.5t-0.5 -52v-48.5v-38v-39v-51t0.5 -53.5t1.5 -47.5h-86zM83 345q1 21 1.5 47l1 52t0.5 49.5v39.5v38.5t-0.5 50t-1 52.5t-1.5 47h86q-1 -21 -1.5 -47.5t-0.5 -52.5v-49.5v-38.5
v-39.5v-49.5t0.5 -52t1.5 -47h-86z" />
    <glyph glyph-name="section" unicode="&#xa7;" horiz-adv-x="466" 
d="M248 696q29 0 51 -3.5t40 -10t32.5 -16t28.5 -21.5l-55 -74q-20 32 -42.5 47t-53.5 15q-32 0 -51.5 -17t-19.5 -44q0 -33 32 -61t87 -70q40 -30 67.5 -52.5t45 -43.5t25 -44.5t7.5 -55.5q0 -49 -22 -88t-67 -65q25 -26 38 -51.5t13 -59.5q0 -37 -14.5 -69t-39 -56
t-58 -37.5t-70.5 -13.5q-53 0 -89 12.5t-70 36.5l56 72q20 -31 46 -44.5t58 -13.5q37 0 55 18.5t18 42.5q0 19 -10 35t-27 32t-39.5 33t-48.5 38q-39 30 -66.5 54t-44.5 47t-25 49t-8 61q0 44 21 80t62 62q-19 24 -28.5 49.5t-9.5 55.5q0 39 13.5 70.5t37.5 54t56 34.5
t69 12zM304 136q17 11 24.5 26t7.5 30q0 14 -4.5 27t-15 26t-28 28t-44.5 34q-27 20 -49 35.5t-39 31.5q-32 -22 -32 -54q0 -17 7 -30.5t20 -27t32.5 -29t43.5 -35.5z" />
    <glyph glyph-name="dieresis" unicode="&#xa8;" 
d="M29 621q0 23 17 41t41 18t42 -18t18 -41q0 -24 -18 -41.5t-42 -17.5t-41 17.5t-17 41.5zM221 621q0 23 17.5 41t41.5 18q23 0 41 -18t18 -41q0 -24 -18 -41.5t-41 -17.5q-24 0 -41.5 17.5t-17.5 41.5z" />
    <glyph glyph-name="copyright" unicode="&#xa9;" horiz-adv-x="857" 
d="M35 229q0 82 31 154.5t84 126.5t125 85t154 31t154 -31t125 -85t84 -126.5t31 -154.5t-31 -154t-84 -126t-125 -85t-154 -31t-154 31t-125 85t-84 126t-31 154zM87 229q0 -71 26.5 -134.5t72.5 -111t108.5 -75t134.5 -27.5q71 0 133.5 27.5t108.5 75t72.5 111t26.5 134.5
q0 72 -26.5 135.5t-72.5 111t-108.5 75t-133.5 27.5q-72 0 -134.5 -27.5t-108.5 -75t-72.5 -111t-26.5 -135.5zM443 486q70 0 110.5 -18t67.5 -42l-55 -76q-11 18 -22.5 32.5t-25 25.5t-31 17t-40.5 6q-63 0 -95 -51.5t-32 -142.5q0 -97 39.5 -143t103.5 -46q46 0 74 20
t51 51l39 -43q-12 -16 -28.5 -34t-39.5 -33t-54 -24.5t-72 -9.5q-53 0 -98 18t-77.5 50.5t-50.5 78t-18 101.5q0 60 19.5 108.5t53.5 83t80.5 53t100.5 18.5z" />
    <glyph glyph-name="ordfeminine" unicode="&#xaa;" horiz-adv-x="330" 
d="M30 661q23 16 54.5 25.5t69.5 9.5q56 0 84.5 -21.5t28.5 -70.5v-14t-0.5 -21t-0.5 -21v-13v-36t1 -34q0 -8 4 -14t14 -6q6 0 11.5 3t8.5 6l13 -24q-10 -11 -29 -20t-45 -9q-23 0 -40 9t-25 27q-11 -13 -30.5 -24.5t-48.5 -11.5q-32 0 -54.5 20t-22.5 56q0 20 7 33t17 21
t20.5 12t17.5 6q26 9 47.5 14t41.5 10v42q0 20 -8 29t-31 9q-20 0 -40 -10.5t-33 -28.5zM173 464q1 18 1 33v40q-10 -2 -21.5 -4.5t-19.5 -6.5q-11 -5 -16.5 -14t-5.5 -29q0 -18 9 -26.5t23 -8.5q10 0 17.5 4.5t12.5 11.5z" />
    <glyph glyph-name="guillemotleft" unicode="&#xab;" horiz-adv-x="494" 
d="M229 273q24 22 46 41t44.5 39t46 41.5t50.5 48.5l37 -28q-16 -20 -29 -37t-26 -34.5t-27 -36.5t-31 -42v-5q29 -38 56.5 -73t56.5 -77l-37 -34q-55 54 -100.5 95.5t-86.5 79.5v22zM34 273q25 22 47 41t44 39t45.5 41.5t50.5 48.5l37 -28q-15 -20 -28.5 -37t-26 -34.5
t-26.5 -36.5t-31 -42v-5l112 -150l-37 -34q-54 54 -99.5 95.5t-87.5 79.5v22z" />
    <glyph glyph-name="logicalnot" unicode="&#xac;" horiz-adv-x="766" 
 />
    <glyph glyph-name="registered" unicode="&#xae;" horiz-adv-x="580" 
d="M51 455q0 49 17.5 93t49 76.5t75.5 51.5t97 19t97 -19t75.5 -51.5t49 -76.5t17.5 -93t-17.5 -92.5t-49 -76t-75.5 -51.5t-97 -19t-97 19t-75.5 51.5t-49 76t-17.5 92.5zM96 455q0 -41 12.5 -77.5t37 -64.5t60.5 -44.5t84 -16.5q47 0 83.5 16.5t61 44.5t37.5 64.5t13 77.5
q0 40 -13 77t-37.5 65.5t-61 45.5t-83.5 17q-48 0 -84 -17t-60.5 -45.5t-37 -65.5t-12.5 -77zM193 337q0 37 0.5 68t0.5 59v57.5t-1 67.5h102q40 0 66 -16.5t26 -53.5q0 -19 -10.5 -37t-36.5 -26l27 -42l43 -77h-71l-56 107h-27q0 -26 0.5 -50t1.5 -57h-65zM257 562v-19.5
t-0.5 -27.5t-0.5 -27v-17h22q23 0 33.5 10t10.5 36q0 24 -10 35t-33 11q-7 0 -13.5 -0.5t-8.5 -0.5z" />
    <glyph glyph-name="macron" unicode="&#xaf;" 
d="M185 648h35t32.5 0.5t35 0.5h42.5l-6 -68q-24 0 -40.5 0.5t-31.5 0.5h-30.5h-38.5h-35.5t-33 -0.5t-34.5 -0.5h-42l6 68q24 0 40.5 -0.5t31.5 -0.5h30.5h38.5z" />
    <glyph glyph-name="degree" unicode="&#xb0;" horiz-adv-x="379" 
d="M190 650q-38 0 -57.5 -25.5t-19.5 -58.5t19.5 -58.5t57.5 -25.5q37 0 56.5 25.5t19.5 58.5t-19.5 58.5t-56.5 25.5zM190 697q26 0 49 -9t40.5 -26t28 -41t10.5 -55t-10.5 -55t-28 -41t-40.5 -26t-49 -9t-49.5 9t-41 26t-28 41t-10.5 55t10.5 55t28 41t41 26t49.5 9z" />
    <glyph glyph-name="plusminus" unicode="&#xb1;" horiz-adv-x="584" 
d="M520 87h-456v48h201v195h-201v48h201v218h54v-218h201v-48h-201v-195h201v-48z" />
    <glyph glyph-name="twosuperior" unicode="&#xb2;" horiz-adv-x="408" 
d="M175 648q-32 0 -56.5 -15t-44.5 -42l-29 67q26 17 61 27.5t86 10.5q83 0 130 -33t47 -99q0 -42 -18.5 -77t-62.5 -76q-11 -10 -25.5 -22t-29.5 -23.5t-29.5 -22t-25.5 -17.5q25 0 57.5 1t64 1.5t56.5 1.5t36 1q-2 -7 -5.5 -21t-6.5 -28q-4 -17 -7 -37h-316l-2 50
q81 63 132 115q37 42 49.5 77.5t12.5 71.5q0 51 -19 70t-55 19z" />
    <glyph glyph-name="threesuperior" unicode="&#xb3;" horiz-adv-x="408" 
d="M374 376q0 -33 -14 -59t-39.5 -44t-61.5 -27.5t-79 -9.5q-45 0 -79.5 10t-60.5 28l33 61q14 -22 41 -36t53 -15q50 -1 67 23t17 71q0 40 -19.5 56.5t-57.5 16.5q-12 0 -23 -2.5t-23 -7.5l-13 39q52 18 83 40.5t31 66.5q0 60 -62 60q-26 0 -48 -13t-36 -33l-28 57
q27 19 64.5 28t75.5 9q72 0 110.5 -28t38.5 -70q0 -21 -11 -38t-29 -30t-39.5 -22.5t-42.5 -14.5q78 -5 115 -37.5t37 -78.5z" />
    <glyph glyph-name="acute" unicode="&#xb4;" 
d="M102 543l46 172l98 -21q-20 -46 -40 -85t-38 -79z" />
    <glyph glyph-name="paragraph" unicode="&#xb6;" horiz-adv-x="685" 
d="M422 -132q1 50 1.5 104t1 105.5t0.5 98.5v83v75.5v90t-0.5 98t-1.5 98.5h-83q0 -49 -0.5 -99.5t-0.5 -97.5v-89.5v-75.5v-83.5v-99t0.5 -105.5t1.5 -103h-82q0 50 0.5 104t1 105.5t0.5 98.5v83v19h-14q-57 0 -100 15t-72 42t-43.5 64.5t-14.5 82.5q0 54 18 92.5t50.5 63
t78 35.5t100.5 11l328 1v-65q-13 0 -36.5 0.5t-51.5 0.5q0 -49 -0.5 -99.5t-1 -97.5t-0.5 -89.5v-75.5v-83.5t0.5 -99t1 -105.5t1.5 -103h-83z" />
    <glyph glyph-name="periodcentered" unicode="&#xb7;" horiz-adv-x="263" 
d="M55 334q0 31 22.5 54t54.5 23q15 0 28.5 -6.5t24 -17t17 -24.5t6.5 -29q0 -31 -23 -53t-53 -22q-32 0 -54.5 22t-22.5 53z" />
    <glyph glyph-name="cedilla" unicode="&#xb8;" 
d="M229 8l-23 -51q5 2 12 2.5t13 0.5q38 0 60 -21t22 -47q0 -33 -32 -56t-100 -23q-14 0 -29.5 2t-30 5t-27 7t-19.5 8l17 56q14 -17 38.5 -27.5t45.5 -10.5q22 0 34.5 13t12.5 33q0 13 -6.5 19t-17.5 6q-7 0 -14.5 -1.5t-12.5 -6.5l-36 9l39 83h54z" />
    <glyph glyph-name="onesuperior" unicode="&#xb9;" horiz-adv-x="408" 
d="M176 611q-6 -1 -20.5 -3t-30 -4t-29 -4t-18.5 -2v48q6 1 22.5 5t38.5 9t46 10.5t45.5 11t37 9t19.5 5.5l10 -11q-1 -18 -1.5 -47t-1 -60.5t-0.5 -61.5v-49v-55t0.5 -60.5t1.5 -58.5t2 -49h-123q0 21 0.5 49t0.5 58.5v60.5v55v144z" />
    <glyph glyph-name="ordmasculine" unicode="&#xba;" horiz-adv-x="354" 
d="M178 696q27 0 54.5 -9t49.5 -27t36 -45.5t14 -65.5q0 -34 -12 -61t-33 -46t-49 -29.5t-60 -10.5q-30 0 -58 9.5t-49.5 27.5t-35 45t-13.5 63q0 34 13 61.5t35 47t50 30t58 10.5zM178 443q32 0 43.5 28t11.5 80q0 59 -13 81.5t-42 22.5q-30 0 -43 -28.5t-13 -80.5
q0 -59 14 -81t42 -22z" />
    <glyph glyph-name="guillemotright" unicode="&#xbb;" horiz-adv-x="494" 
d="M265 251q-41 -38 -86.5 -79.5t-100.5 -95.5l-37 34q29 42 56.5 77t56.5 73v5q-17 23 -31 42t-27 36.5t-26 34.5t-29 37l37 28q27 -27 50.5 -48.5t46 -41.5t44.5 -39t46 -41v-22zM460 251q-42 -38 -87.5 -79.5t-99.5 -95.5l-37 34l112 150v5q-17 23 -31 42t-26.5 36.5
t-26 34.5t-28.5 37l37 28q27 -27 50.5 -48.5t45.5 -41.5t44 -39t47 -41v-22z" />
    <glyph glyph-name="onequarter" unicode="&#xbc;" horiz-adv-x="938" 
d="M696 0q0 9 0.5 23.5t0.5 30.5t0.5 31t0.5 26h-94q-17 0 -32 -0.5t-26 -0.5h-23v31q60 75 116.5 153.5t105.5 150.5l79 -5q-1 -19 -1.5 -55.5t-0.5 -78v-80.5v-63l69 2v-56q-14 1 -27 1h-42v-110h-126zM207 -22q25 43 56.5 95.5t62.5 105t59 99.5t46 79q18 31 45.5 78
t58 99t61 104.5t53.5 96.5l66 -39q-26 -43 -57.5 -95l-63 -104t-59.5 -98.5t-46 -77.5q-19 -32 -46.5 -79.5t-57.5 -100t-59.5 -106t-52.5 -96.5zM154 611q-6 -1 -20.5 -3t-30 -4t-29 -4t-18.5 -2v48q9 2 40 9t66.5 15.5t65.5 16t37 9.5l10 -11q-1 -18 -1.5 -47t-1 -60.5
t-0.5 -61.5v-49v-55t0.5 -60.5t1.5 -58.5t2 -49h-123q0 21 0.5 49t0.5 58.5v60.5v55v144zM698 163v76t-1 62q-17 -23 -34 -48t-31 -45q-17 -24 -32 -47z" />
    <glyph glyph-name="onehalf" unicode="&#xbd;" horiz-adv-x="938" 
d="M692 404q-32 0 -55 -15t-43 -42l-27 67q25 17 58.5 28t83.5 11q84 0 130.5 -33.5t46.5 -99.5q0 -42 -18.5 -77t-62.5 -76q-11 -10 -25.5 -22t-29 -23.5t-29 -22t-25.5 -17.5q24 0 56.5 1t64 1.5t57 1.5t36.5 1q-3 -7 -6.5 -21t-6.5 -28q-4 -17 -7 -36h-316l-1 50
q40 31 72.5 59t58.5 56q37 42 49.5 77t12.5 72q0 50 -19 69t-55 19zM190 -22q26 43 57.5 95.5t62.5 105t58.5 99.5t46.5 79q18 31 45.5 78t58 99t60.5 104.5t53 96.5l66 -39q-26 -43 -57.5 -95l-63 -104t-59.5 -98.5t-46 -77.5q-19 -32 -46 -79.5t-57 -100t-59.5 -106
t-52.5 -96.5zM154 611q-6 -1 -20.5 -3t-30 -4t-29 -4t-18.5 -2v48q9 2 40 9t66.5 15.5t65.5 16t37 9.5l10 -11q-1 -18 -1.5 -47t-1 -60.5t-0.5 -61.5v-49v-55t0.5 -60.5t1.5 -58.5t2 -49h-123q0 21 0.5 49t0.5 58.5v60.5v55v144z" />
    <glyph glyph-name="threequarters" unicode="&#xbe;" horiz-adv-x="938" 
d="M717 0v23.5t0.5 30.5t1 31t0.5 26h-94q-18 0 -33 -0.5t-26 -0.5h-23v31q60 75 116 153.5t106 150.5l79 -5q0 -19 -0.5 -55.5t-1 -78t-1 -80.5t-0.5 -63l70 2v-56q-7 0 -13 0.5t-14 0.5h-18h-25v-25t0.5 -23t0.5 -26.5v-35.5h-125zM367 376q0 -33 -14 -59t-39.5 -44
t-61 -27.5t-78.5 -9.5q-45 0 -79.5 10t-61.5 28l33 61q15 -22 41.5 -36t52.5 -15q50 -1 67.5 23t17.5 71q0 40 -19.5 56.5t-58.5 16.5q-11 0 -22 -2.5t-24 -7.5l-12 39q51 18 82 40.5t31 66.5q0 60 -61 60q-26 0 -48.5 -13t-36.5 -33l-27 57q27 19 64.5 28t75.5 9
q71 0 109.5 -28t38.5 -70q0 -21 -11 -38t-29 -30t-39.5 -22.5t-42.5 -14.5q78 -5 115 -37.5t37 -78.5zM247 -22q26 43 57.5 95.5t62.5 105t58.5 99.5t46.5 79q18 31 45.5 78t58 99t60.5 104.5t53 96.5l66 -39q-26 -43 -57.5 -95l-63 -104t-59.5 -98.5t-46 -77.5
q-19 -32 -46 -79.5t-57 -100t-59.5 -106t-52.5 -96.5zM719 163v76t-1 62q-17 -23 -34.5 -48l-31.5 -45q-17 -24 -33 -47z" />
    <glyph glyph-name="questiondown" unicode="&#xbf;" horiz-adv-x="395" 
d="M328 -8q-60 8 -109.5 27.5t-85 49.5t-56.5 69t-25 86q0 48 15 85t41.5 61.5t61.5 37t75 12.5q5 0 9.5 -0.5t7.5 -0.5q4 -1 7 -1v22q0 11 -0.5 25t-1.5 32h66q-2 -29 -3 -66t-1 -70q-1 -39 0 -79q-17 1 -34.5 1.5t-34.5 0.5q-58 0 -91.5 -23.5t-33.5 -70.5
q0 -45 48.5 -67.5t155.5 -25.5zM366 625q0 -29 -21 -50.5t-50 -21.5q-14 0 -27 6t-22.5 15.5t-15.5 22.5t-6 28q0 28 21.5 49t49.5 21q29 0 50 -21t21 -49z" />
    <glyph glyph-name="Agrave" unicode="&#xc0;" horiz-adv-x="660" 
d="M404 179q-24 0 -54.5 0.5t-61.5 0.5q-24 0 -55 0.5t-65 -0.5q-17 -44 -32.5 -88t-29.5 -92h-92q37 90 69.5 171t64 160.5t62.5 160t65 169.5q13 4 29 8.5t31.5 9.5t29 10t22.5 9q30 -94 59 -176t57 -159q28 -78 61 -169t69 -194h-166zM289 503q-19 -52 -45 -119.5
t-52 -136.5h18t25.5 -0.5t28 -0.5h25.5h18.5h26.5t26.5 0.5t18.5 0.5q-20 56 -42.5 124.5t-45.5 131.5h-2zM397 720q-44 23 -93 49t-95 49l59 79q31 -23 77 -55t92 -66z" />
    <glyph glyph-name="Aacute" unicode="&#xc1;" horiz-adv-x="660" 
d="M404 179q-24 0 -54.5 0.5t-61.5 0.5q-24 0 -55 0.5t-65 -0.5q-17 -44 -32.5 -88t-29.5 -92h-92q37 90 69.5 171t64 160.5t62.5 160t65 169.5q13 4 29 8.5t31.5 9.5t29 10t22.5 9q30 -94 59 -176t57 -159q28 -78 61 -169t69 -194h-166zM289 503q-19 -52 -45 -119.5
t-52 -136.5h18t25.5 -0.5t28 -0.5h25.5h18.5h26.5t26.5 0.5t18.5 0.5q-20 56 -42.5 124.5t-45.5 131.5h-2zM213 776q45 34 91.5 66t78.5 55l58 -79q-47 -23 -95.5 -49t-91.5 -49z" />
    <glyph glyph-name="Acircumflex" unicode="&#xc2;" horiz-adv-x="660" 
d="M404 179q-24 0 -54.5 0.5t-61.5 0.5q-24 0 -55 0.5t-65 -0.5q-17 -44 -32.5 -88t-29.5 -92h-92q37 90 69.5 171t64 160.5t62.5 160t65 169.5q13 4 29 8.5t31.5 9.5t29 10t22.5 9q30 -94 59 -176t57 -159q28 -78 61 -169t69 -194h-166zM289 503q-19 -52 -45 -119.5
t-52 -136.5h18t25.5 -0.5t28 -0.5h25.5h18.5h26.5t26.5 0.5t18.5 0.5q-20 56 -42.5 124.5t-45.5 131.5h-2zM361 873q15 -18 27 -31t25.5 -26.5t30 -30.5t39.5 -43l-31 -26q-19 12 -33.5 21.5t-27.5 18.5t-26.5 17.5t-31.5 19.5h-2q-15 -9 -27.5 -17t-25.5 -17t-28.5 -19
t-36.5 -24l-32 26q22 25 39 42.5t31 31.5l27 27t27 30h56z" />
    <glyph glyph-name="Atilde" unicode="&#xc3;" horiz-adv-x="660" 
d="M404 179q-24 0 -54.5 0.5t-61.5 0.5q-24 0 -55 0.5t-65 -0.5q-17 -44 -32.5 -88t-29.5 -92h-92q37 90 69.5 171t64 160.5t62.5 160t65 169.5q13 4 29 8.5t31.5 9.5t29 10t22.5 9q30 -94 59 -176t57 -159q28 -78 61 -169t69 -194h-166zM289 503q-19 -52 -45 -119.5
t-52 -136.5h18t25.5 -0.5t28 -0.5h25.5h18.5h26.5t26.5 0.5t18.5 0.5q-20 56 -42.5 124.5t-45.5 131.5h-2zM316 743q-21 8 -37 13t-29 5q-16 0 -26.5 -9t-5.5 -33l-59 17q5 44 33 71.5t73 27.5q32 0 74 -15q23 -8 40.5 -14.5t31.5 -6.5q16 0 26.5 7.5t6.5 34.5l59 -18
q-5 -52 -34 -75.5t-71 -23.5q-23 0 -41.5 5.5t-40.5 13.5z" />
    <glyph glyph-name="Adieresis" unicode="&#xc4;" horiz-adv-x="660" 
d="M404 179q-24 0 -54.5 0.5t-61.5 0.5q-24 0 -55 0.5t-65 -0.5q-17 -44 -32.5 -88t-29.5 -92h-92q37 90 69.5 171t64 160.5t62.5 160t65 169.5q13 4 29 8.5t31.5 9.5t29 10t22.5 9q30 -94 59 -176t57 -159q28 -78 61 -169t69 -194h-166zM289 503q-19 -52 -45 -119.5
t-52 -136.5h18t25.5 -0.5t28 -0.5h25.5h18.5h26.5t26.5 0.5t18.5 0.5q-20 56 -42.5 124.5t-45.5 131.5h-2zM177 781q0 23 17 41t42 18q23 0 41 -18t18 -41q0 -24 -18 -41.5t-41 -17.5q-25 0 -42 17.5t-17 41.5zM387 781q0 23 18 41t41 18t41.5 -18t18.5 -41
q0 -24 -18.5 -41.5t-41.5 -17.5t-41 17.5t-18 41.5z" />
    <glyph glyph-name="Aring" unicode="&#xc5;" horiz-adv-x="660" 
d="M404 179q-24 0 -54.5 0.5t-61.5 0.5q-24 0 -55 0.5t-65 -0.5q-17 -44 -32.5 -88t-29.5 -92h-92q37 90 69.5 171t64 160.5t62.5 160t65 169.5q13 4 29 8.5t31.5 9.5t29 10t22.5 9q30 -94 59 -176t57 -159q28 -78 61 -169t69 -194h-166zM289 503q-19 -52 -45 -119.5
t-52 -136.5h18t25.5 -0.5t28 -0.5h25.5h18.5h26.5t26.5 0.5t18.5 0.5q-20 56 -42.5 124.5t-45.5 131.5h-2zM327 890q35 0 60 -23t25 -65q0 -40 -25.5 -63t-59.5 -23q-35 0 -60.5 23t-25.5 63q0 42 25.5 65t60.5 23zM327 752q21 0 34 15t13 35q0 21 -13.5 36.5t-33.5 15.5
q-22 0 -35 -15.5t-13 -36.5q0 -20 13 -35t35 -15z" />
    <glyph glyph-name="AE" unicode="&#xc6;" horiz-adv-x="859" 
d="M746 321q-37 0 -70 1q-29 1 -59 1.5t-50 0.5v-65v-54.5t0.5 -59.5t1.5 -79q26 0 69.5 0.5t84.5 2.5q48 2 100 4l-6 -73h-404q1 60 1.5 112t0.5 101h-77h-26.5h-33.5h-37h-35l-114 -213h-92q63 115 112 208t91 173.5t80 153.5t79 149h451l-8 -76q-46 2 -90 4
q-38 2 -78 3.5t-68 1.5q0 -44 -0.5 -72.5t-1 -52.5t-0.5 -47v-56h45.5t63.5 1q37 1 80 2zM408 607l-72.5 -145t-94.5 -183h175v63v55t-0.5 55.5t-1 66.5t-0.5 88h-6z" />
    <glyph glyph-name="Ccedilla" unicode="&#xc7;" horiz-adv-x="664" 
d="M388 696q52 0 90 -7t66.5 -19t49.5 -27.5t39 -32.5l-77 -91q-17 24 -33.5 44.5t-36 35.5t-44 23.5t-57.5 8.5q-43 0 -77.5 -20t-58.5 -56.5t-36.5 -88.5t-12.5 -115q0 -134 56.5 -203t151.5 -69q64 0 106.5 28t76.5 71l49 -42q-17 -23 -39.5 -49t-54.5 -47.5t-74.5 -36
t-99.5 -14.5q-4 0 -7.5 0.5t-5.5 0.5l-15 -33q5 2 12 2.5t13 0.5q38 0 60 -21t22 -47q0 -33 -32 -56t-100 -23q-14 0 -29.5 2t-30 5t-27 7t-19.5 8l17 56q14 -17 38.5 -27.5t45.5 -10.5q22 0 34.5 13t12.5 33q0 13 -6.5 19t-17.5 6q-7 0 -14.5 -1.5t-12.5 -6.5l-36 9l32 69
q-61 10 -111.5 38.5t-87 72t-56.5 101.5t-20 127q0 83 27.5 150t76 114.5t113.5 73t140 25.5z" />
    <glyph glyph-name="Egrave" unicode="&#xc8;" horiz-adv-x="535" 
d="M355 720q-44 23 -92.5 49t-95.5 49l59 79q32 -23 78 -55t92 -66zM422 321q-43 0 -82 1q-33 1 -67 1.5t-54 0.5v-65v-54.5v-59.5t1 -79q27 0 74 0.5t93 2.5q54 2 113 4l-7 -73h-429q2 101 2.5 185t0.5 157t-0.5 157.5t-2.5 184.5h425l-9 -76q-54 2 -102 4q-42 2 -85.5 3.5
t-72.5 1.5q0 -44 -0.5 -72.5t-0.5 -52.5v-47v-56h50t71 1q42 1 92 2z" />
    <glyph glyph-name="Eacute" unicode="&#xc9;" horiz-adv-x="535" 
d="M178 776q46 34 92.5 66t78.5 55l58 -79q-47 -23 -95.5 -49t-91.5 -49zM422 321q-43 0 -82 1q-33 1 -67 1.5t-54 0.5v-65v-54.5v-59.5t1 -79q27 0 74 0.5t93 2.5q54 2 113 4l-7 -73h-429q2 101 2.5 185t0.5 157t-0.5 157.5t-2.5 184.5h425l-9 -76q-54 2 -102 4
q-42 2 -85.5 3.5t-72.5 1.5q0 -44 -0.5 -72.5t-0.5 -52.5v-47v-56h50t71 1q42 1 92 2z" />
    <glyph glyph-name="Ecircumflex" unicode="&#xca;" horiz-adv-x="535" 
d="M310 873q15 -18 27.5 -31t26 -26.5t29.5 -30.5t39 -43l-31 -26q-19 12 -33 21.5t-27.5 18.5t-27 17.5t-31.5 19.5h-1q-15 -9 -28 -17t-26 -17t-28.5 -19t-36.5 -24l-31 26q22 25 38.5 42.5t31 31.5t27 27t27.5 30h55zM422 321q-43 0 -82 1q-33 1 -67 1.5t-54 0.5v-65
v-54.5v-59.5t1 -79q27 0 74 0.5t93 2.5q54 2 113 4l-7 -73h-429q2 101 2.5 185t0.5 157t-0.5 157.5t-2.5 184.5h425l-9 -76q-54 2 -102 4q-42 2 -85.5 3.5t-72.5 1.5q0 -44 -0.5 -72.5t-0.5 -52.5v-47v-56h50t71 1q42 1 92 2z" />
    <glyph glyph-name="Edieresis" unicode="&#xcb;" horiz-adv-x="535" 
d="M422 321q-43 0 -82 1q-33 1 -67 1.5t-54 0.5v-65v-54.5v-59.5t1 -79q27 0 74 0.5t93 2.5q54 2 113 4l-7 -73h-429q2 101 2.5 185t0.5 157t-0.5 157.5t-2.5 184.5h425l-9 -76q-54 2 -102 4q-42 2 -85.5 3.5t-72.5 1.5q0 -44 -0.5 -72.5t-0.5 -52.5v-47v-56h50t71 1
q42 1 92 2zM117 781q0 23 17.5 41t41.5 18q23 0 41.5 -18t18.5 -41q0 -24 -18.5 -41.5t-41.5 -17.5q-24 0 -41.5 17.5t-17.5 41.5zM328 781q0 23 17.5 41t40.5 18q24 0 42 -18t18 -41q0 -24 -18 -41.5t-42 -17.5q-23 0 -40.5 17.5t-17.5 41.5z" />
    <glyph glyph-name="Igrave" unicode="&#xcc;" horiz-adv-x="289" 
d="M65 0q2 101 2.5 185t0.5 157t-0.5 157.5t-2.5 184.5h159q-2 -102 -2.5 -185.5t-0.5 -156.5t0.5 -157.5t2.5 -184.5h-159zM214 720q-44 23 -92.5 49t-94.5 49l59 79q31 -23 77 -55t92 -66z" />
    <glyph glyph-name="Iacute" unicode="&#xcd;" horiz-adv-x="289" 
d="M65 0q2 101 2.5 185t0.5 157t-0.5 157.5t-2.5 184.5h159q-2 -102 -2.5 -185.5t-0.5 -156.5t0.5 -157.5t2.5 -184.5h-159zM34 776q46 34 92.5 66t77.5 55l58 -79q-46 -23 -95 -49t-92 -49z" />
    <glyph glyph-name="Icircumflex" unicode="&#xce;" horiz-adv-x="289" 
d="M65 0q2 101 2.5 185t0.5 157t-0.5 157.5t-2.5 184.5h159q-2 -102 -2.5 -185.5t-0.5 -156.5t0.5 -157.5t2.5 -184.5h-159zM173 873q15 -18 27.5 -31t26 -26.5t29.5 -30.5t39 -43l-31 -26q-19 12 -33.5 21.5t-27.5 18.5t-26.5 17.5t-31.5 19.5h-1q-15 -9 -28 -17t-26 -17
t-28.5 -19t-36.5 -24l-31 26q22 25 38.5 42.5t30.5 31.5l27 27t28 30h55z" />
    <glyph glyph-name="Idieresis" unicode="&#xcf;" horiz-adv-x="289" 
d="M65 0q2 101 2.5 185t0.5 157t-0.5 157.5t-2.5 184.5h159q-2 -102 -2.5 -185.5t-0.5 -156.5t0.5 -157.5t2.5 -184.5h-159zM-20 781q0 23 17 41t42 18q23 0 41 -18t18 -41q0 -24 -18 -41.5t-41 -17.5q-25 0 -42 17.5t-17 41.5zM190 781q0 23 18 41t41 18q24 0 42 -18
t18 -41q0 -24 -18 -41.5t-42 -17.5q-23 0 -41 17.5t-18 41.5z" />
    <glyph glyph-name="Eth" unicode="&#xd0;" horiz-adv-x="732" 
d="M81 0q0 12 0.5 37t1 55.5t0.5 63.5t0.5 62.5t0.5 52.5v32q-26 -1 -48 -1.5t-32 -0.5v74q10 0 32 -0.5t48 -0.5q0 67 -0.5 143t-2.5 167h240q185 0 280 -85.5t95 -247.5q0 -82 -25.5 -147t-73.5 -110.5t-115.5 -69.5t-151.5 -24h-249zM238 71q8 -1 26.5 -2.5t54.5 -1.5
q50 -1 89 14t65.5 48.5t40.5 86.5t14 130q0 130 -54 200t-167 70q-11 0 -22 -0.5t-22 -0.5h-24q-1 -66 -2 -125t-1 -117q37 1 68.5 1h48.5v-73q-17 0 -48 0.5t-69 1.5v-52v-52t0.5 -58t1.5 -70z" />
    <glyph glyph-name="Ntilde" unicode="&#xd1;" horiz-adv-x="708" 
d="M355 743q-21 8 -37.5 13t-28.5 5q-16 0 -27 -9t-5 -33l-59 17q4 44 32.5 71.5t73.5 27.5q32 0 74 -15q23 -8 40.5 -14.5t31.5 -6.5q16 0 26.5 7.5t6.5 34.5l59 -18q-5 -52 -34 -75.5t-71 -23.5q-23 0 -41.5 5.5t-40.5 13.5zM535 0q-41 54 -87.5 117t-96 129.5t-100.5 134
t-99 129.5v-205v-70.5t0.5 -69t1 -76t1.5 -89.5h-90q3 101 4 193t1 187q0 64 -1 111t-3 82t-4 61.5t-4 49.5h165q43 -62 82 -115.5t79 -105.5t82 -105.5t92 -116.5q1 40 1 79v68v69t-0.5 66t-1 72.5t-1.5 88.5h87q-2 -101 -2.5 -180.5t-0.5 -152.5v-162t1 -189h-106z" />
    <glyph glyph-name="Ograve" unicode="&#xd2;" horiz-adv-x="747" 
d="M439 720q-44 23 -92.5 49t-95.5 49l59 79q31 -23 77.5 -55t91.5 -66zM376 53q45 0 77.5 20t53 57.5t30.5 90t10 118.5q0 140 -43.5 215.5t-131.5 75.5q-47 0 -80 -21t-53.5 -58.5t-30 -90.5t-9.5 -116q0 -144 46 -217.5t131 -73.5zM372 696q70 0 132 -24.5t109 -69.5
t74.5 -108.5t27.5 -141.5q0 -86 -26.5 -153.5t-72 -114t-107.5 -71t-133 -24.5t-134 24t-109.5 68.5t-73.5 108t-27 141.5q0 86 26.5 153.5t73 114.5t108 72t132.5 25z" />
    <glyph glyph-name="Oacute" unicode="&#xd3;" horiz-adv-x="747" 
d="M262 776q46 34 92.5 66t77.5 55l58 -79q-46 -23 -94.5 -49t-91.5 -49zM376 53q45 0 77.5 20t53 57.5t30.5 90t10 118.5q0 140 -43.5 215.5t-131.5 75.5q-47 0 -80 -21t-53.5 -58.5t-30 -90.5t-9.5 -116q0 -144 46 -217.5t131 -73.5zM372 696q70 0 132 -24.5t109 -69.5
t74.5 -108.5t27.5 -141.5q0 -86 -26.5 -153.5t-72 -114t-107.5 -71t-133 -24.5t-134 24t-109.5 68.5t-73.5 108t-27 141.5q0 86 26.5 153.5t73 114.5t108 72t132.5 25z" />
    <glyph glyph-name="Ocircumflex" unicode="&#xd4;" horiz-adv-x="747" 
d="M401 873q15 -18 27.5 -31t26 -26.5t29.5 -30.5t39 -43l-31 -26q-19 12 -33 21.5t-27.5 18.5t-27 17.5t-30.5 19.5h-2q-15 -9 -28 -17t-26 -17t-28.5 -19t-36.5 -24l-31 26q22 25 38.5 42.5t31 31.5t27 27t27.5 30h55zM376 53q45 0 77.5 20t53 57.5t30.5 90t10 118.5
q0 140 -43.5 215.5t-131.5 75.5q-47 0 -80 -21t-53.5 -58.5t-30 -90.5t-9.5 -116q0 -144 46 -217.5t131 -73.5zM372 696q70 0 132 -24.5t109 -69.5t74.5 -108.5t27.5 -141.5q0 -86 -26.5 -153.5t-72 -114t-107.5 -71t-133 -24.5t-134 24t-109.5 68.5t-73.5 108t-27 141.5
q0 86 26.5 153.5t73 114.5t108 72t132.5 25z" />
    <glyph glyph-name="Otilde" unicode="&#xd5;" horiz-adv-x="747" 
d="M359 743q-22 8 -38 13t-28 5q-17 0 -27.5 -9t-5.5 -33l-59 17q5 44 33 71.5t73 27.5q17 0 35 -3.5t40 -11.5t40 -14.5t32 -6.5q16 0 26 7.5t7 34.5l59 -18q-5 -52 -34 -75.5t-71 -23.5q-23 0 -42 5.5t-40 13.5zM376 53q45 0 77.5 20t53 57.5t30.5 90t10 118.5
q0 140 -43.5 215.5t-131.5 75.5q-47 0 -80 -21t-53.5 -58.5t-30 -90.5t-9.5 -116q0 -144 46 -217.5t131 -73.5zM372 696q70 0 132 -24.5t109 -69.5t74.5 -108.5t27.5 -141.5q0 -86 -26.5 -153.5t-72 -114t-107.5 -71t-133 -24.5t-134 24t-109.5 68.5t-73.5 108t-27 141.5
q0 86 26.5 153.5t73 114.5t108 72t132.5 25z" />
    <glyph glyph-name="Odieresis" unicode="&#xd6;" horiz-adv-x="747" 
d="M204 781q0 23 17.5 41t41.5 18q23 0 41.5 -18t18.5 -41q0 -24 -18.5 -41.5t-41.5 -17.5q-24 0 -41.5 17.5t-17.5 41.5zM415 781q0 23 18 41t41 18t41.5 -18t18.5 -41q0 -24 -18.5 -41.5t-41.5 -17.5t-41 17.5t-18 41.5zM376 53q45 0 77.5 20t53 57.5t30.5 90t10 118.5
q0 140 -43.5 215.5t-131.5 75.5q-47 0 -80 -21t-53.5 -58.5t-30 -90.5t-9.5 -116q0 -144 46 -217.5t131 -73.5zM372 696q70 0 132 -24.5t109 -69.5t74.5 -108.5t27.5 -141.5q0 -86 -26.5 -153.5t-72 -114t-107.5 -71t-133 -24.5t-134 24t-109.5 68.5t-73.5 108t-27 141.5
q0 86 26.5 153.5t73 114.5t108 72t132.5 25z" />
    <glyph glyph-name="multiply" unicode="&#xd7;" horiz-adv-x="584" 
d="M124 489l168 -168l168 168l50 -49l-169 -169l169 -167l-50 -50l-168 168l-168 -168l-49 50l167 167l-167 169z" />
    <glyph glyph-name="Oslash" unicode="&#xd8;" horiz-adv-x="746" 
d="M642 703q-11 -19 -23.5 -40t-25.5 -44q56 -45 89 -112.5t33 -154.5q0 -86 -26.5 -153.5t-72 -114t-107.5 -71t-133 -24.5q-33 0 -64 5t-60 14q-15 -26 -28 -50t-23 -44l-81 42l54 92q-66 44 -104 115.5t-38 167.5q0 86 26.5 153.5t73 114.5t108 72t132.5 25q81 0 151 -35
l44 81zM199 344q0 -123 38 -191q18 30 35.5 59.5t33.5 56t29 48.5t22 38q10 18 24 43.5t30.5 55.5t34.5 63l36 66q-41 47 -110 47q-47 0 -80 -21t-53.5 -58.5t-30 -90.5t-9.5 -116zM376 53q45 0 77.5 20t53 57.5t30.5 90t10 118.5q0 94 -21 157l-96 -176l-138 -241
q37 -26 84 -26z" />
    <glyph glyph-name="Ugrave" unicode="&#xd9;" horiz-adv-x="685" 
d="M417 720q-44 23 -92.5 49t-95.5 49l59 79q31 -23 77.5 -55t91.5 -66zM624 227q0 -58 -19.5 -102.5t-54.5 -74.5t-85.5 -45.5t-111.5 -15.5q-64 0 -117.5 13.5t-92.5 44t-60.5 80t-21.5 120.5v51.5v27t0.5 13.5t0.5 10v17.5v36.5v66t-0.5 61t-1 67.5t-1.5 86.5h158
q0 -51 -0.5 -87.5t-1 -67.5t-0.5 -60.5v-65.5v-60t0.5 -40.5t0.5 -33.5v-38q0 -90 41 -129t127 -39q83 0 121 43t38 114v161v69.5t-0.5 68.5t-1.5 75t-3 90h89q-1 -51 -1.5 -91t-1 -75t-0.5 -68v-69v-154z" />
    <glyph glyph-name="Uacute" unicode="&#xda;" horiz-adv-x="685" 
d="M258 776q45 34 91.5 66t78.5 55l58 -79q-47 -23 -95.5 -49t-91.5 -49zM624 227q0 -58 -19.5 -102.5t-54.5 -74.5t-85.5 -45.5t-111.5 -15.5q-64 0 -117.5 13.5t-92.5 44t-60.5 80t-21.5 120.5v51.5v27t0.5 13.5t0.5 10v17.5v36.5v66t-0.5 61t-1 67.5t-1.5 86.5h158
q0 -51 -0.5 -87.5t-1 -67.5t-0.5 -60.5v-65.5v-60t0.5 -40.5t0.5 -33.5v-38q0 -90 41 -129t127 -39q83 0 121 43t38 114v161v69.5t-0.5 68.5t-1.5 75t-3 90h89q-1 -51 -1.5 -91t-1 -75t-0.5 -68v-69v-154z" />
    <glyph glyph-name="Ucircumflex" unicode="&#xdb;" horiz-adv-x="685" 
d="M397 873q15 -18 27.5 -31t26 -26.5t30 -30.5t39.5 -43l-31 -26q-19 12 -33.5 21.5t-27.5 18.5t-26.5 17.5t-31.5 19.5h-2q-15 -9 -27.5 -17t-26 -17t-29 -19t-36.5 -24l-31 26q22 25 39 42.5t31 31.5l27 27t27 30h55zM624 227q0 -58 -19.5 -102.5t-54.5 -74.5
t-85.5 -45.5t-111.5 -15.5q-64 0 -117.5 13.5t-92.5 44t-60.5 80t-21.5 120.5v51.5v27t0.5 13.5t0.5 10v17.5v36.5v66t-0.5 61t-1 67.5t-1.5 86.5h158q0 -51 -0.5 -87.5t-1 -67.5t-0.5 -60.5v-65.5v-60t0.5 -40.5t0.5 -33.5v-38q0 -90 41 -129t127 -39q83 0 121 43t38 114
v161v69.5t-0.5 68.5t-1.5 75t-3 90h89q-1 -51 -1.5 -91t-1 -75t-0.5 -68v-69v-154z" />
    <glyph glyph-name="Udieresis" unicode="&#xdc;" horiz-adv-x="685" 
d="M624 227q0 -58 -19.5 -102.5t-54.5 -74.5t-85.5 -45.5t-111.5 -15.5q-64 0 -117.5 13.5t-92.5 44t-60.5 80t-21.5 120.5v51.5v27t0.5 13.5t0.5 10v17.5v36.5v66t-0.5 61t-1 67.5t-1.5 86.5h158q0 -51 -0.5 -87.5t-1 -67.5t-0.5 -60.5v-65.5v-60t0.5 -40.5t0.5 -33.5v-38
q0 -90 41 -129t127 -39q83 0 121 43t38 114v161v69.5t-0.5 68.5t-1.5 75t-3 90h89q-1 -51 -1.5 -91t-1 -75t-0.5 -68v-69v-154zM182 781q0 23 17.5 41t41.5 18q23 0 41.5 -18t18.5 -41q0 -24 -18.5 -41.5t-41.5 -17.5q-24 0 -41.5 17.5t-17.5 41.5zM393 781q0 23 17.5 41
t41.5 18q23 0 41.5 -18t18.5 -41q0 -24 -18.5 -41.5t-41.5 -17.5q-24 0 -41.5 17.5t-17.5 41.5z" />
    <glyph glyph-name="Yacute" unicode="&#xdd;" horiz-adv-x="612" 
d="M225 0l3 286q-28 54 -53 100t-50 91.5t-52 95.5t-60 111h175q24 -50 44 -90t39.5 -76t38.5 -70.5t40 -73.5q23 42 45.5 84.5t42.5 82.5t38 76.5t33 66.5h93q-8 -12 -25 -43t-38.5 -70.5t-45 -84t-45 -84.5t-38.5 -71t-25 -44q0 -65 0.5 -132.5t2.5 -154.5h-163zM197 776
q46 34 92.5 66t77.5 55l58 -79q-47 -23 -95.5 -49t-91.5 -49z" />
    <glyph glyph-name="Thorn" unicode="&#xde;" horiz-adv-x="570" 
d="M64 0q2 101 2.5 185t0.5 157t-0.5 157.5t-2.5 184.5h160q-1 -36 -1.5 -69.5t-0.5 -65.5h94q51 0 93 -12.5t72.5 -37.5t47 -62t16.5 -86q0 -43 -16 -79.5t-48.5 -63.5t-82.5 -42.5t-118 -15.5h-57v-41.5v-28t0.5 -31t0.5 -49.5h-160zM264 484h-19.5t-21.5 -1
q0 -21 -0.5 -56t-0.5 -74v-76t1 -62h41q66 0 93.5 31.5t27.5 104.5q0 40 -8.5 66t-24.5 41t-38.5 20.5t-49.5 5.5z" />
    <glyph glyph-name="germandbls" unicode="&#xdf;" horiz-adv-x="620" 
d="M539 583q0 -21 -9.5 -38.5t-24 -32.5t-31 -28t-30.5 -24q-25 -20 -36 -35t-11 -40q0 -23 19.5 -40.5t60.5 -43.5q30 -18 51 -34.5t34 -35t19 -41.5t6 -54q0 -24 -10 -50t-31.5 -47.5t-56.5 -35.5t-84 -14q-38 0 -76 7.5t-64 21.5l29 84q20 -23 49.5 -38.5t59.5 -15.5
q20 0 33 4.5t20.5 11.5t10 15t2.5 16q0 15 -7 26.5t-19 21.5t-27.5 19.5t-32.5 20.5q-29 19 -48.5 34t-31 30.5t-16.5 33t-5 41.5q0 21 8.5 41t21.5 38.5t29 35t32 31.5q26 25 38.5 49.5t12.5 61.5q0 39 -25 59t-63 20q-40 0 -69 -24.5t-29 -78.5q-1 -55 -1 -108v-179v-77
t0.5 -67t1.5 -62.5t2 -61.5h-154q2 62 2.5 126t0.5 142v44t-0.5 35.5l-1 33t-0.5 36.5h-70v33l70 32v31q0 53 22 91.5t57 63.5t79.5 37t89.5 12q33 0 68.5 -5.5t65.5 -20.5t49.5 -41t19.5 -67z" />
    <glyph glyph-name="agrave" unicode="&#xe0;" horiz-adv-x="514" 
d="M36 432q38 27 91 44t117 17q91 0 140.5 -32.5t49.5 -109.5v-26t-0.5 -33.5t-0.5 -33.5v-25q0 -42 0.5 -79.5t0.5 -68.5q0 -17 6 -24t22 -7q11 0 20.5 3.5t17.5 7.5l18 -30q-18 -18 -49.5 -32t-70.5 -14q-83 0 -103 61q-21 -21 -54.5 -41t-82.5 -20q-27 0 -50.5 8.5
t-41 24.5t-28 40t-10.5 54q0 34 11.5 56t28 35.5t34.5 20t30 10.5q44 14 81.5 23t71.5 19v89q0 35 -16 49.5t-55 14.5q-35 0 -72.5 -19.5t-60.5 -51.5zM283 87q1 32 1.5 66.5t0.5 77.5q-6 -1 -15 -3.5t-19.5 -5.5t-20.5 -6t-17 -5q-24 -10 -33.5 -28.5t-9.5 -53.5
q0 -38 15 -52t40 -14q20 0 33.5 7.5t24.5 16.5zM233 530q-19 40 -38.5 79t-39.5 85l97 21q9 -34 21 -77.5t25 -94.5z" />
    <glyph glyph-name="aacute" unicode="&#xe1;" horiz-adv-x="514" 
d="M36 432q38 27 91 44t117 17q91 0 140.5 -32.5t49.5 -109.5v-26t-0.5 -33.5t-0.5 -33.5v-25q0 -42 0.5 -79.5t0.5 -68.5q0 -17 6 -24t22 -7q11 0 20.5 3.5t17.5 7.5l18 -30q-18 -18 -49.5 -32t-70.5 -14q-83 0 -103 61q-21 -21 -54.5 -41t-82.5 -20q-27 0 -50.5 8.5
t-41 24.5t-28 40t-10.5 54q0 34 11.5 56t28 35.5t34.5 20t30 10.5q44 14 81.5 23t71.5 19v89q0 35 -16 49.5t-55 14.5q-35 0 -72.5 -19.5t-60.5 -51.5zM283 87q1 32 1.5 66.5t0.5 77.5q-6 -1 -15 -3.5t-19.5 -5.5t-20.5 -6t-17 -5q-24 -10 -33.5 -28.5t-9.5 -53.5
q0 -38 15 -52t40 -14q20 0 33.5 7.5t24.5 16.5zM197 543l46 172l97 -21q-19 -46 -39 -85t-38 -79z" />
    <glyph glyph-name="acircumflex" unicode="&#xe2;" horiz-adv-x="514" 
d="M36 432q38 27 91 44t117 17q91 0 140.5 -32.5t49.5 -109.5v-26t-0.5 -33.5t-0.5 -33.5v-25q0 -42 0.5 -79.5t0.5 -68.5q0 -17 6 -24t22 -7q11 0 20.5 3.5t17.5 7.5l18 -30q-18 -18 -49.5 -32t-70.5 -14q-83 0 -103 61q-21 -21 -54.5 -41t-82.5 -20q-27 0 -50.5 8.5
t-41 24.5t-28 40t-10.5 54q0 34 11.5 56t28 35.5t34.5 20t30 10.5q44 14 81.5 23t71.5 19v89q0 35 -16 49.5t-55 14.5q-35 0 -72.5 -19.5t-60.5 -51.5zM283 87q1 32 1.5 66.5t0.5 77.5q-6 -1 -15 -3.5t-19.5 -5.5t-20.5 -6t-17 -5q-24 -10 -33.5 -28.5t-9.5 -53.5
q0 -38 15 -52t40 -14q20 0 33.5 7.5t24.5 16.5zM230 632q-17 -14 -29.5 -24.5t-24.5 -21.5t-25 -23t-30 -28l-32 24q20 25 35 44t28.5 36t26 33t26.5 34h54q16 -19 28.5 -35.5l25 -33t27 -35.5t34.5 -43l-33 -24q-16 15 -29.5 27.5t-26 23.5t-25.5 22t-28 24h-2z" />
    <glyph glyph-name="atilde" unicode="&#xe3;" horiz-adv-x="514" 
d="M36 432q38 27 91 44t117 17q91 0 140.5 -32.5t49.5 -109.5v-26t-0.5 -33.5t-0.5 -33.5v-25q0 -42 0.5 -79.5t0.5 -68.5q0 -17 6 -24t22 -7q11 0 20.5 3.5t17.5 7.5l18 -30q-18 -18 -49.5 -32t-70.5 -14q-83 0 -103 61q-21 -21 -54.5 -41t-82.5 -20q-27 0 -50.5 8.5
t-41 24.5t-28 40t-10.5 54q0 34 11.5 56t28 35.5t34.5 20t30 10.5q44 14 81.5 23t71.5 19v89q0 35 -16 49.5t-55 14.5q-35 0 -72.5 -19.5t-60.5 -51.5zM283 87q1 32 1.5 66.5t0.5 77.5q-6 -1 -15 -3.5t-19.5 -5.5t-20.5 -6t-17 -5q-24 -10 -33.5 -28.5t-9.5 -53.5
q0 -38 15 -52t40 -14q20 0 33.5 7.5t24.5 16.5zM303 568q-19 0 -38.5 6t-35.5 13t-30.5 12.5t-27.5 5.5q-8 0 -16.5 -1.5t-15 -6.5t-9.5 -14.5t0 -25.5l-59 17q4 47 34 75.5t72 28.5q19 0 38 -5t34 -12q18 -8 33 -14.5t26 -6.5q8 0 15.5 1.5t13.5 6.5t8.5 15.5t-0.5 28.5
l59 -18q-5 -53 -33 -79.5t-68 -26.5z" />
    <glyph glyph-name="adieresis" unicode="&#xe4;" horiz-adv-x="514" 
d="M36 432q38 27 91 44t117 17q91 0 140.5 -32.5t49.5 -109.5v-26t-0.5 -33.5t-0.5 -33.5v-25q0 -42 0.5 -79.5t0.5 -68.5q0 -17 6 -24t22 -7q11 0 20.5 3.5t17.5 7.5l18 -30q-18 -18 -49.5 -32t-70.5 -14q-83 0 -103 61q-21 -21 -54.5 -41t-82.5 -20q-27 0 -50.5 8.5
t-41 24.5t-28 40t-10.5 54q0 34 11.5 56t28 35.5t34.5 20t30 10.5q44 14 81.5 23t71.5 19v89q0 35 -16 49.5t-55 14.5q-35 0 -72.5 -19.5t-60.5 -51.5zM283 87q1 32 1.5 66.5t0.5 77.5q-6 -1 -15 -3.5t-19.5 -5.5t-20.5 -6t-17 -5q-24 -10 -33.5 -28.5t-9.5 -53.5
q0 -38 15 -52t40 -14q20 0 33.5 7.5t24.5 16.5zM89 621q0 23 17.5 41t41.5 18q23 0 41.5 -18t18.5 -41q0 -24 -18.5 -41.5t-41.5 -17.5q-24 0 -41.5 17.5t-17.5 41.5zM282 621q0 23 17.5 41t40.5 18q24 0 42 -18t18 -41q0 -24 -18 -41.5t-42 -17.5q-23 0 -40.5 17.5
t-17.5 41.5z" />
    <glyph glyph-name="aring" unicode="&#xe5;" horiz-adv-x="514" 
d="M36 432q38 27 91 44t117 17q91 0 140.5 -32.5t49.5 -109.5v-26t-0.5 -33.5t-0.5 -33.5v-25q0 -42 0.5 -79.5t0.5 -68.5q0 -17 6 -24t22 -7q11 0 20.5 3.5t17.5 7.5l18 -30q-18 -18 -49.5 -32t-70.5 -14q-83 0 -103 61q-21 -21 -54.5 -41t-82.5 -20q-27 0 -50.5 8.5
t-41 24.5t-28 40t-10.5 54q0 34 11.5 56t28 35.5t34.5 20t30 10.5q44 14 81.5 23t71.5 19v89q0 35 -16 49.5t-55 14.5q-35 0 -72.5 -19.5t-60.5 -51.5zM283 87q1 32 1.5 66.5t0.5 77.5q-6 -1 -15 -3.5t-19.5 -5.5t-20.5 -6t-17 -5q-24 -10 -33.5 -28.5t-9.5 -53.5
q0 -38 15 -52t40 -14q20 0 33.5 7.5t24.5 16.5zM235 673q-20 0 -32.5 -14t-12.5 -34t12.5 -33.5t32.5 -13.5t31.5 13.5t11.5 33.5t-11.5 34t-31.5 14zM235 707q32 0 56.5 -22t24.5 -60t-24.5 -60t-56.5 -22q-34 0 -58 22t-24 60t24 60t58 22z" />
    <glyph glyph-name="ae" unicode="&#xe6;" horiz-adv-x="762" 
d="M727 297q-11 -2 -33.5 -5.5t-51 -8t-59.5 -9.5t-59 -9.5t-49 -8t-30 -5.5v-11q3 -85 39 -129.5t92 -44.5q45 0 72 18t49 47l39 -34q-11 -17 -27.5 -36t-40.5 -35t-56 -26.5t-74 -10.5q-62 0 -108.5 26t-73.5 73h-4q-27 -44 -71.5 -71.5t-109.5 -27.5q-68 0 -105.5 33
t-37.5 94q0 34 11.5 56t28 35.5t34.5 20t30 10.5q21 7 57.5 16t95.5 20v89q0 35 -16 52.5t-55 17.5q-35 0 -72.5 -19.5t-60.5 -51.5l-45 70q38 27 85.5 44t111.5 17q57 0 89 -17t48 -49h5q27 32 69.5 49t87.5 17q57 0 94.5 -17.5t60 -45t31.5 -62.5t9 -71zM167 130
q0 -38 16.5 -54.5t41.5 -16.5q20 0 36.5 11.5t21.5 25.5q0 12 0.5 29.5t1 36t0.5 36v28.5l-72 -15q-25 -8 -35.5 -26.5t-10.5 -54.5zM531 438q-38 0 -59 -32.5t-26 -105.5q7 1 28 5t44.5 8.5t44.5 8t29 4.5q0 51 -14.5 81.5t-46.5 30.5z" />
    <glyph glyph-name="ccedilla" unicode="&#xe7;" horiz-adv-x="486" 
d="M183 244q0 -90 36.5 -134t94.5 -44q45 0 71.5 17t46.5 43l39 -33q-27 -42 -74.5 -73t-120.5 -31h-7l-14 -32q5 2 11.5 2.5t13.5 0.5q37 0 59.5 -21t22.5 -47q0 -33 -32 -56t-100 -23q-29 0 -60 7t-47 15l18 56q14 -17 38.5 -27.5t44.5 -10.5q23 0 35 13t12 33
q0 25 -24 25q-6 0 -13.5 -1.5t-12.5 -6.5l-36 9l32 70q-41 8 -75 27.5t-59.5 50t-39.5 71t-14 90.5q0 61 22 109t59 81.5t85.5 51t102.5 17.5q57 0 96 -10.5t71 -34.5l-43 -80q-41 67 -108 67q-59 0 -95 -48t-36 -143z" />
    <glyph glyph-name="egrave" unicode="&#xe8;" horiz-adv-x="514" 
d="M479 97q-11 -17 -29 -36t-43 -35t-58 -26.5t-75 -10.5q-51 0 -96 15t-78 45.5t-52 76.5t-19 108q0 58 20 106t53.5 82t78 52.5t92.5 18.5q58 0 98.5 -17.5t66.5 -49t38 -76t12 -99.5h-307v-25q2 -42 11 -71.5t26 -49.5q17 -21 41 -30.5t53 -9.5q45 0 75.5 18.5t53.5 47.5
zM346 310q0 60 -15 94t-59 34q-36 0 -60 -36t-30 -98zM234 530q-19 40 -39 79t-40 85l98 21q9 -34 21 -77.5t25 -94.5z" />
    <glyph glyph-name="eacute" unicode="&#xe9;" horiz-adv-x="514" 
d="M198 543l46 172l97 -21q-19 -46 -39 -85t-38 -79zM479 97q-11 -17 -29 -36t-43 -35t-58 -26.5t-75 -10.5q-51 0 -96 15t-78 45.5t-52 76.5t-19 108q0 58 20 106t53.5 82t78 52.5t92.5 18.5q58 0 98.5 -17.5t66.5 -49t38 -76t12 -99.5h-307v-25q2 -42 11 -71.5t26 -49.5
q17 -21 41 -30.5t53 -9.5q45 0 75.5 18.5t53.5 47.5zM346 310q0 60 -15 94t-59 34q-36 0 -60 -36t-30 -98z" />
    <glyph glyph-name="ecircumflex" unicode="&#xea;" horiz-adv-x="514" 
d="M258 632q-17 -14 -30 -24.5t-25 -21.5t-24.5 -23t-29.5 -28l-32 24q19 25 34.5 44t28.5 36t25.5 33t27.5 34h54q15 -19 27.5 -35.5t25.5 -33t27 -35.5t34 -43l-32 -24q-16 15 -29.5 27.5t-26.5 23.5l-26 22t-28 24h-1zM479 97q-11 -17 -29 -36t-43 -35t-58 -26.5
t-75 -10.5q-51 0 -96 15t-78 45.5t-52 76.5t-19 108q0 58 20 106t53.5 82t78 52.5t92.5 18.5q58 0 98.5 -17.5t66.5 -49t38 -76t12 -99.5h-307v-25q2 -42 11 -71.5t26 -49.5q17 -21 41 -30.5t53 -9.5q45 0 75.5 18.5t53.5 47.5zM346 310q0 60 -15 94t-59 34q-36 0 -60 -36
t-30 -98z" />
    <glyph glyph-name="edieresis" unicode="&#xeb;" horiz-adv-x="514" 
d="M103 621q0 23 17.5 41t41.5 18q23 0 41.5 -18t18.5 -41q0 -24 -18.5 -41.5t-41.5 -17.5q-24 0 -41.5 17.5t-17.5 41.5zM295 621q0 23 18 41t41 18t41.5 -18t18.5 -41q0 -24 -18.5 -41.5t-41.5 -17.5t-41 17.5t-18 41.5zM479 97q-11 -17 -29 -36t-43 -35t-58 -26.5
t-75 -10.5q-51 0 -96 15t-78 45.5t-52 76.5t-19 108q0 58 20 106t53.5 82t78 52.5t92.5 18.5q58 0 98.5 -17.5t66.5 -49t38 -76t12 -99.5h-307v-25q2 -42 11 -71.5t26 -49.5q17 -21 41 -30.5t53 -9.5q45 0 75.5 18.5t53.5 47.5zM346 310q0 60 -15 94t-59 34q-36 0 -60 -36
t-30 -98z" />
    <glyph glyph-name="igrave" unicode="&#xec;" horiz-adv-x="266" 
d="M211 486q0 -29 -0.5 -55t-1 -54.5t-1 -62t-0.5 -78.5q0 -39 0.5 -68.5t1 -56l1 -53t0.5 -58.5h-152q0 32 0.5 60.5l1 57t0.5 59.5v70v69v55.5t-0.5 48t-1.5 46.5zM116 530q-19 40 -38.5 79t-39.5 85l97 21q9 -34 21 -77.5t25 -94.5z" />
    <glyph glyph-name="iacute" unicode="&#xed;" horiz-adv-x="266" 
d="M86 543l46 172l97 -21q-20 -46 -39.5 -85t-37.5 -79zM211 486q0 -29 -0.5 -55t-1 -54.5t-1 -62t-0.5 -78.5q0 -39 0.5 -68.5t1 -56l1 -53t0.5 -58.5h-152q0 32 0.5 60.5l1 57t0.5 59.5v70v69v55.5t-0.5 48t-1.5 46.5z" />
    <glyph glyph-name="icircumflex" unicode="&#xee;" horiz-adv-x="266" 
d="M133 632q-17 -14 -29.5 -24.5t-24.5 -21.5t-24.5 -23t-29.5 -28l-32 24q19 25 34.5 44t28.5 36t25.5 33t27.5 34h54q15 -19 27.5 -35.5l25 -33t27 -35.5t34.5 -43l-32 -24q-17 15 -30 27.5t-26 23.5l-26 22t-28 24h-2zM211 486q0 -29 -0.5 -55t-1 -54.5t-1 -62
t-0.5 -78.5q0 -39 0.5 -68.5t1 -56l1 -53t0.5 -58.5h-152q0 32 0.5 60.5l1 57t0.5 59.5v70v69v55.5t-0.5 48t-1.5 46.5z" />
    <glyph glyph-name="idieresis" unicode="&#xef;" horiz-adv-x="266" 
d="M-21 621q0 23 17.5 41t41.5 18q23 0 41.5 -18t18.5 -41q0 -24 -18.5 -41.5t-41.5 -17.5q-24 0 -41.5 17.5t-17.5 41.5zM171 621q0 23 18 41t41 18t41.5 -18t18.5 -41q0 -24 -18.5 -41.5t-41.5 -17.5t-41 17.5t-18 41.5zM211 486q0 -29 -0.5 -55t-1 -54.5t-1 -62
t-0.5 -78.5q0 -39 0.5 -68.5t1 -56l1 -53t0.5 -58.5h-152q0 32 0.5 60.5l1 57t0.5 59.5v70v69v55.5t-0.5 48t-1.5 46.5z" />
    <glyph glyph-name="eth" unicode="&#xf0;" horiz-adv-x="569" 
d="M112 533q15 9 43.5 24t68.5 38q-52 30 -121 51l14 51q51 -9 96.5 -23t87.5 -35q32 20 60 36.5t42 24.5l33 -56q-15 -9 -28 -16q-12 -7 -24.5 -13t-21.5 -11q81 -57 127 -141.5t46 -199.5q0 -71 -20.5 -122.5t-55.5 -85t-80.5 -49.5t-96.5 -16q-53 0 -98 16.5t-79 47
t-53 73t-19 95.5q0 49 17.5 89.5t48 70t72.5 45.5t92 16q35 0 61.5 -12t44.5 -34q-27 97 -91 158q-14 -8 -36 -21l-44 -26q-26 -15 -53 -32zM282 380q-21 0 -38.5 -8.5t-30.5 -28t-20 -50.5t-7 -77q0 -86 23 -125t72 -39q46 0 72.5 39t26.5 127q0 85 -27.5 123.5t-70.5 38.5
z" />
    <glyph glyph-name="ntilde" unicode="&#xf1;" horiz-adv-x="566" 
d="M54 247q0 39 -0.5 68.5t-0.5 54t-0.5 47t-0.5 47.5l149 19v-10.5t-0.5 -16t-0.5 -16v-9.5q11 9 24.5 17.5t26.5 16.5q24 12 53 20t55 8q84 0 120.5 -40t36.5 -125v-23.5t-0.5 -35t-0.5 -35.5v-26q0 -39 0.5 -67t1 -51.5t1 -44.5t0.5 -45h-153q0 32 0.5 56t1 46t0.5 45v55
v32t-0.5 36t-0.5 34v27q0 36 -17.5 56.5t-62.5 20.5q-20 0 -43 -8t-40 -22q-1 -31 -1 -69.5v-84.5v-67.5t0.5 -53.5t1 -49t0.5 -54h-152q0 32 0.5 60.5l1 57t0.5 59.5v70zM351 568q-18 0 -37.5 6t-35.5 13t-31 12.5t-27 5.5q-8 0 -16.5 -1.5t-15 -6.5t-10 -14.5t-0.5 -25.5
l-58 17q4 47 33.5 75.5t71.5 28.5q20 0 39 -5t34 -12q18 -8 33 -14.5t26 -6.5q8 0 15.5 1.5t13.5 6.5t8.5 15.5t-0.5 28.5l59 -18q-5 -53 -33 -79.5t-69 -26.5z" />
    <glyph glyph-name="ograve" unicode="&#xf2;" horiz-adv-x="571" 
d="M286 493q46 0 92 -14t83 -44.5t60 -78t23 -113.5q0 -61 -20 -108t-54.5 -79.5t-82 -49.5t-101.5 -17q-49 0 -95.5 15t-82.5 46t-58 78t-22 111q0 61 21 108t57 79.5t82.5 49.5t97.5 17zM286 47q28 0 47.5 14.5t32 40.5t18.5 62.5t6 80.5q0 100 -28 145t-76 45
q-29 0 -49 -14.5t-32.5 -40.5t-18 -62.5t-5.5 -80.5q0 -100 29 -145t76 -45zM272 530q-19 40 -38.5 79t-39.5 85l98 21l46 -172z" />
    <glyph glyph-name="oacute" unicode="&#xf3;" horiz-adv-x="571" 
d="M222 543l46 172l97 -21q-20 -46 -39.5 -85t-37.5 -79zM286 47q28 0 47.5 14.5t32 40.5t18.5 62.5t6 80.5q0 100 -28 145t-76 45q-29 0 -49 -14.5t-32.5 -40.5t-18 -62.5t-5.5 -80.5q0 -100 29 -145t76 -45zM286 493q46 0 92 -14t83 -44.5t60 -78t23 -113.5
q0 -61 -20 -108t-54.5 -79.5t-82 -49.5t-101.5 -17q-49 0 -95.5 15t-82.5 46t-58 78t-22 111q0 61 21 108t57 79.5t82.5 49.5t97.5 17z" />
    <glyph glyph-name="ocircumflex" unicode="&#xf4;" horiz-adv-x="571" 
d="M286 493q46 0 92 -14t83 -44.5t60 -78t23 -113.5q0 -61 -20 -108t-54.5 -79.5t-82 -49.5t-101.5 -17q-49 0 -95.5 15t-82.5 46t-58 78t-22 111q0 61 21 108t57 79.5t82.5 49.5t97.5 17zM286 47q28 0 47.5 14.5t32 40.5t18.5 62.5t6 80.5q0 100 -28 145t-76 45
q-29 0 -49 -14.5t-32.5 -40.5t-18 -62.5t-5.5 -80.5q0 -100 29 -145t76 -45zM284 632q-17 -14 -29.5 -24.5t-24.5 -21.5t-24.5 -23t-29.5 -28l-32 24l115 147h55q15 -19 27.5 -35.5l25 -33t27 -35.5t34.5 -43l-32 -24q-17 15 -30 27.5t-26 23.5l-26 22t-28 24h-2z" />
    <glyph glyph-name="otilde" unicode="&#xf5;" horiz-adv-x="571" 
d="M286 47q28 0 47.5 14.5t32 40.5t18.5 62.5t6 80.5q0 100 -28 145t-76 45q-29 0 -49 -14.5t-32.5 -40.5t-18 -62.5t-5.5 -80.5q0 -100 29 -145t76 -45zM286 493q46 0 92 -14t83 -44.5t60 -78t23 -113.5q0 -61 -20 -108t-54.5 -79.5t-82 -49.5t-101.5 -17q-49 0 -95.5 15
t-82.5 46t-58 78t-22 111q0 61 21 108t57 79.5t82.5 49.5t97.5 17zM351 568q-18 0 -37.5 6t-35.5 13t-31 12.5t-27 5.5q-8 0 -16.5 -1.5t-15 -6.5t-10 -14.5t-0.5 -25.5l-58 17q4 47 33.5 75.5t71.5 28.5q20 0 39 -5t34 -12q18 -8 33 -14.5t26 -6.5q8 0 15.5 1.5t13.5 6.5
t8.5 15.5t-0.5 28.5l59 -18q-5 -53 -33 -79.5t-69 -26.5z" />
    <glyph glyph-name="odieresis" unicode="&#xf6;" horiz-adv-x="571" 
d="M130 621q0 23 17 41t42 18q23 0 41 -18t18 -41q0 -24 -18 -41.5t-41 -17.5q-25 0 -42 17.5t-17 41.5zM322 621q0 23 18 41t41 18t41.5 -18t18.5 -41q0 -24 -18.5 -41.5t-41.5 -17.5t-41 17.5t-18 41.5zM286 47q28 0 47.5 14.5t32 40.5t18.5 62.5t6 80.5q0 100 -28 145
t-76 45q-29 0 -49 -14.5t-32.5 -40.5t-18 -62.5t-5.5 -80.5q0 -100 29 -145t76 -45zM286 493q46 0 92 -14t83 -44.5t60 -78t23 -113.5q0 -61 -20 -108t-54.5 -79.5t-82 -49.5t-101.5 -17q-49 0 -95.5 15t-82.5 46t-58 78t-22 111q0 61 21 108t57 79.5t82.5 49.5t97.5 17z
" />
    <glyph glyph-name="divide" unicode="&#xf7;" horiz-adv-x="584" 
d="M520 239h-456v65h456v-65zM225 108q0 27 19.5 47t46.5 20q26 0 46 -20t20 -47q0 -26 -20 -46t-46 -20q-27 0 -46.5 20t-19.5 46zM225 440q0 26 19.5 46t46.5 20q26 0 46 -20t20 -46t-20 -46t-46 -20q-27 0 -46.5 20t-19.5 46z" />
    <glyph glyph-name="oslash" unicode="&#xf8;" horiz-adv-x="571" 
d="M465 542l-39 -84q51 -29 84.5 -81.5t33.5 -133.5q0 -61 -20 -108t-54.5 -79.5t-82 -49.5t-101.5 -17q-19 0 -37 2.5t-36 6.5l-36 -89l-72 27l41 87q-52 29 -85 82t-33 134q0 61 21 108t57 79.5t82.5 49.5t97.5 17q36 0 71 -9l36 86zM181 237q0 -31 5.5 -56.5t14.5 -45.5
l51 112q17 40 37 84t41 92q-20 12 -44 12q-29 0 -49 -14.5t-32.5 -40.5t-18 -62.5t-5.5 -80.5zM286 47q28 0 47.5 14.5t32 40.5t18.5 62.5t6 80.5q0 29 -5 53t-13 43q-15 -31 -28.5 -60.5t-24.5 -55.5l-77 -166q19 -12 44 -12z" />
    <glyph glyph-name="ugrave" unicode="&#xf9;" horiz-adv-x="566" 
d="M513 236q0 -78 0.5 -132.5t2.5 -103.5h-149v10.5t0.5 15.5t0.5 15.5v10.5l-26 -18t-27 -17q-25 -13 -53.5 -20.5t-57.5 -7.5q-80 0 -116 37t-36 122v126v58v48t-0.5 47t-1.5 54h151v-332q0 -38 15.5 -57.5t57.5 -19.5q23 0 48 9t42 27q1 31 1.5 67t0.5 83v67.5t-0.5 53.5
t-1 49t-1.5 53h152q0 -13 -0.5 -47t-1 -73t-0.5 -74.5v-50.5zM263 530q-19 40 -38.5 79t-39.5 85l97 21q9 -34 21 -77.5t25 -94.5z" />
    <glyph glyph-name="uacute" unicode="&#xfa;" horiz-adv-x="566" 
d="M513 236q0 -78 0.5 -132.5t2.5 -103.5h-149v10.5t0.5 15.5t0.5 15.5v10.5l-26 -18t-27 -17q-25 -13 -53.5 -20.5t-57.5 -7.5q-80 0 -116 37t-36 122v126v58v48t-0.5 47t-1.5 54h151v-332q0 -38 15.5 -57.5t57.5 -19.5q23 0 48 9t42 27q1 31 1.5 67t0.5 83v67.5t-0.5 53.5
t-1 49t-1.5 53h152q0 -13 -0.5 -47t-1 -73t-0.5 -74.5v-50.5zM222 543l46 172l97 -21q-20 -46 -39.5 -85t-37.5 -79z" />
    <glyph glyph-name="ucircumflex" unicode="&#xfb;" horiz-adv-x="566" 
d="M513 236q0 -78 0.5 -132.5t2.5 -103.5h-149v10.5t0.5 15.5t0.5 15.5v10.5l-26 -18t-27 -17q-25 -13 -53.5 -20.5t-57.5 -7.5q-80 0 -116 37t-36 122v126v58v48t-0.5 47t-1.5 54h151v-332q0 -38 15.5 -57.5t57.5 -19.5q23 0 48 9t42 27q1 31 1.5 67t0.5 83v67.5t-0.5 53.5
t-1 49t-1.5 53h152q0 -13 -0.5 -47t-1 -73t-0.5 -74.5v-50.5zM282 632q-17 -14 -30 -24.5t-25 -21.5t-24.5 -23t-29.5 -28l-32 24q19 25 34.5 44t28.5 36t25.5 33t27.5 34h54q15 -19 27.5 -35.5t25.5 -33t27 -35.5t34 -43l-32 -24q-16 15 -29.5 27.5t-26.5 23.5l-26 22
t-28 24h-1z" />
    <glyph glyph-name="udieresis" unicode="&#xfc;" horiz-adv-x="566" 
d="M513 236q0 -78 0.5 -132.5t2.5 -103.5h-149v10.5t0.5 15.5t0.5 15.5v10.5l-26 -18t-27 -17q-25 -13 -53.5 -20.5t-57.5 -7.5q-80 0 -116 37t-36 122v126v58v48t-0.5 47t-1.5 54h151v-332q0 -38 15.5 -57.5t57.5 -19.5q23 0 48 9t42 27q1 31 1.5 67t0.5 83v67.5t-0.5 53.5
t-1 49t-1.5 53h152q0 -13 -0.5 -47t-1 -73t-0.5 -74.5v-50.5zM127 621q0 23 17.5 41t41.5 18q23 0 41.5 -18t18.5 -41q0 -24 -18.5 -41.5t-41.5 -17.5q-24 0 -41.5 17.5t-17.5 41.5zM319 621q0 23 18 41t41 18t41.5 -18t18.5 -41q0 -24 -18.5 -41.5t-41.5 -17.5t-41 17.5
t-18 41.5z" />
    <glyph glyph-name="yacute" unicode="&#xfd;" horiz-adv-x="514" 
d="M295 164q22 56 38.5 97.5t29.5 77.5t25 69.5t25 72.5h91q-35 -83 -73 -173.5t-76 -179.5t-74 -172t-66 -151h-90q14 26 28 53.5t26.5 52.5t21.5 44.5t14 29.5q-48 122 -101 244t-102 252h166q15 -45 28 -83t26.5 -74t28 -74.5t32.5 -85.5h2zM201 543l46 172l97 -21
q-20 -46 -39.5 -85t-37.5 -79z" />
    <glyph glyph-name="thorn" unicode="&#xfe;" horiz-adv-x="576" 
d="M55 249v141t-0.5 127t-1 106t-1.5 78l151 18v-271q21 14 56 29.5t81 15.5q37 0 74.5 -12.5t66.5 -40.5t47.5 -74.5t18.5 -113.5q0 -69 -21.5 -119t-56.5 -82t-79.5 -47t-91.5 -15q-27 0 -53.5 6.5t-43.5 14.5q0 -18 0.5 -46.5t1 -58t1 -57t0.5 -43.5h-152zM202 96
q13 -20 31.5 -34.5t51.5 -14.5q23 0 42.5 10.5t34 33t23 58.5t8.5 87q0 94 -27 136t-87 42q-24 0 -44 -4.5t-33 -11.5v-302z" />
    <glyph glyph-name="ydieresis" unicode="&#xff;" horiz-adv-x="514" 
d="M295 164q22 56 38.5 97.5t29.5 77.5t25 69.5t25 72.5h91q-35 -83 -73 -173.5t-76 -179.5t-74 -172t-66 -151h-90q14 26 28 53.5t26.5 52.5t21.5 44.5t14 29.5q-48 122 -101 244t-102 252h166q15 -45 28 -83t26.5 -74t28 -74.5t32.5 -85.5h2zM115 621q0 23 17.5 41
t41.5 18q23 0 41.5 -18t18.5 -41q0 -24 -18.5 -41.5t-41.5 -17.5q-24 0 -41.5 17.5t-17.5 41.5zM307 621q0 23 18 41t41 18t41.5 -18t18.5 -41q0 -24 -18.5 -41.5t-41.5 -17.5t-41 17.5t-18 41.5z" />
    <glyph glyph-name="Amacron" unicode="&#x100;" horiz-adv-x="660" 
d="M404 179q-24 0 -54.5 0.5t-61.5 0.5q-24 0 -55 0.5t-65 -0.5q-17 -44 -32.5 -88t-29.5 -92h-92q37 90 69.5 171t64 160.5t62.5 160t65 169.5q13 4 29 8.5t31.5 9.5t29 10t22.5 9q30 -94 59 -176t57 -159q28 -78 61 -169t69 -194h-166zM289 503q-19 -52 -45 -119.5
t-52 -136.5h18t25.5 -0.5t28 -0.5h25.5h18.5h26.5t26.5 0.5t18.5 0.5q-20 56 -42.5 124.5t-45.5 131.5h-2zM331 807q39 0 71.5 0.5t79.5 0.5l-6 -62q-25 0 -42.5 0.5t-33 0.5h-32h-39.5q-38 0 -70.5 -0.5t-80.5 -0.5l7 62q24 0 41.5 -0.5t33 -0.5h32h39.5z" />
    <glyph glyph-name="amacron" unicode="&#x101;" horiz-adv-x="514" 
d="M36 432q38 27 91 44t117 17q91 0 140.5 -32.5t49.5 -109.5v-26t-0.5 -33.5t-0.5 -33.5v-25q0 -42 0.5 -79.5t0.5 -68.5q0 -17 6 -24t22 -7q11 0 20.5 3.5t17.5 7.5l18 -30q-18 -18 -49.5 -32t-70.5 -14q-83 0 -103 61q-21 -21 -54.5 -41t-82.5 -20q-27 0 -50.5 8.5
t-41 24.5t-28 40t-10.5 54q0 34 11.5 56t28 35.5t34.5 20t30 10.5q44 14 81.5 23t71.5 19v89q0 35 -16 49.5t-55 14.5q-35 0 -72.5 -19.5t-60.5 -51.5zM283 87q1 32 1.5 66.5t0.5 77.5q-6 -1 -15 -3.5t-19.5 -5.5t-20.5 -6t-17 -5q-24 -10 -33.5 -28.5t-9.5 -53.5
q0 -38 15 -52t40 -14q20 0 33.5 7.5t24.5 16.5zM247 648h35t32.5 0.5t35 0.5h42.5l-7 -68q-24 0 -40.5 0.5t-31 0.5h-30.5h-38h-36t-32.5 -0.5t-35 -0.5h-42.5l7 68q24 0 40.5 -0.5t31.5 -0.5h30.5h38.5z" />
    <glyph glyph-name="Abreve" unicode="&#x102;" horiz-adv-x="660" 
d="M404 179q-24 0 -54.5 0.5t-61.5 0.5q-24 0 -55 0.5t-65 -0.5q-17 -44 -32.5 -88t-29.5 -92h-92q37 90 69.5 171t64 160.5t62.5 160t65 169.5q13 4 29 8.5t31.5 9.5t29 10t22.5 9q30 -94 59 -176t57 -159q28 -78 61 -169t69 -194h-166zM289 503q-19 -52 -45 -119.5
t-52 -136.5h18t25.5 -0.5t28 -0.5h25.5h18.5h26.5t26.5 0.5t18.5 0.5q-20 56 -42.5 124.5t-45.5 131.5h-2zM332 787q44 0 64 20t23 59l58 -7q-4 -43 -17.5 -69.5t-33.5 -41.5t-44.5 -20.5t-49.5 -5.5t-49.5 5.5t-44.5 20.5t-34 41.5t-17 69.5l59 7q2 -39 22 -59t64 -20z" />
    <glyph glyph-name="abreve" unicode="&#x103;" horiz-adv-x="514" 
d="M36 432q38 27 91 44t117 17q91 0 140.5 -32.5t49.5 -109.5v-26t-0.5 -33.5t-0.5 -33.5v-25q0 -42 0.5 -79.5t0.5 -68.5q0 -17 6 -24t22 -7q11 0 20.5 3.5t17.5 7.5l18 -30q-18 -18 -49.5 -32t-70.5 -14q-83 0 -103 61q-21 -21 -54.5 -41t-82.5 -20q-27 0 -50.5 8.5
t-41 24.5t-28 40t-10.5 54q0 34 11.5 56t28 35.5t34.5 20t30 10.5q44 14 81.5 23t71.5 19v89q0 35 -16 49.5t-55 14.5q-35 0 -72.5 -19.5t-60.5 -51.5zM283 87q1 32 1.5 66.5t0.5 77.5q-6 -1 -15 -3.5t-19.5 -5.5t-20.5 -6t-17 -5q-24 -10 -33.5 -28.5t-9.5 -53.5
q0 -38 15 -52t40 -14q20 0 33.5 7.5t24.5 16.5zM253 599q78 0 83 76l58 -5q-3 -41 -16 -67t-32.5 -40.5t-43.5 -20t-49 -5.5q-26 0 -49.5 5.5t-43 20t-32.5 40.5t-16 67l58 5q5 -76 83 -76z" />
    <glyph glyph-name="Aogonek" unicode="&#x104;" horiz-adv-x="660" 
d="M521 0q-15 -19 -28.5 -41t-13.5 -50q0 -20 12 -33t29 -13t30 8t21 20l21 -41q-13 -13 -38 -20.5t-57 -7.5q-54 0 -80.5 24t-26.5 55q0 17 7 32.5t18.5 28t25 23t25.5 17.5l-62 177q-24 0 -54.5 0.5t-61.5 0.5q-24 0 -55 0.5t-65 -0.5q-17 -44 -32.5 -88t-29.5 -92h-92
q37 90 69.5 171t64 160.5t62.5 160t65 169.5q13 4 29 8.5t31.5 9.5t29 10t22.5 9q30 -94 59 -176t57 -159q28 -78 61 -169t69 -194h-112zM289 503q-19 -52 -45 -119.5t-52 -136.5h18t25.5 -0.5t28 -0.5h25.5h18.5h26.5t26.5 0.5t18.5 0.5q-20 56 -42.5 124.5t-45.5 131.5h-2
z" />
    <glyph glyph-name="aogonek" unicode="&#x105;" horiz-adv-x="514" 
d="M36 432q38 27 91 44t117 17q91 0 140.5 -32.5t49.5 -109.5v-26t-0.5 -33.5t-0.5 -33.5v-25q0 -42 0.5 -79.5t0.5 -68.5q0 -17 6 -24t22 -7q11 0 20.5 3.5t17.5 7.5l18 -30q-14 -11 -30.5 -21t-31.5 -21q-19 -15 -33.5 -33t-14.5 -47q0 -20 10.5 -35t33.5 -15q17 0 30 8
t21 20l20 -41q-12 -13 -37 -20.5t-57 -7.5q-54 0 -82 24t-28 55q0 28 19 51.5t46 37.5q-72 5 -89 60q-21 -21 -54.5 -41t-82.5 -20q-27 0 -50.5 8.5t-41 24.5t-28 40t-10.5 54q0 34 11.5 56t28 35.5t34.5 20t30 10.5q44 14 81.5 23t71.5 19v89q0 35 -16 49.5t-55 14.5
q-35 0 -72.5 -19.5t-60.5 -51.5zM283 87q1 32 1.5 66.5t0.5 77.5q-6 -1 -15 -3.5t-19.5 -5.5t-20.5 -6t-17 -5q-24 -10 -33.5 -28.5t-9.5 -53.5q0 -38 15 -52t40 -14q20 0 33.5 7.5t24.5 16.5z" />
    <glyph glyph-name="Cacute" unicode="&#x106;" horiz-adv-x="664" 
d="M388 696q52 0 90 -7t66.5 -19t49.5 -27.5t39 -32.5l-77 -91q-17 24 -33.5 44.5t-36 35.5t-44 23.5t-57.5 8.5q-43 0 -77.5 -20t-58.5 -56.5t-36.5 -88.5t-12.5 -115q0 -134 56.5 -203t151.5 -69q64 0 106.5 28t76.5 71l49 -42q-17 -23 -39.5 -49t-54.5 -47.5t-74.5 -36
t-99.5 -14.5q-74 0 -136.5 24.5t-108 69.5t-71 108.5t-25.5 141.5q0 83 27.5 150t76 114.5t113.5 73t140 25.5zM256 776q45 34 92 66t78 55l58 -79q-47 -23 -95.5 -49t-91.5 -49z" />
    <glyph glyph-name="cacute" unicode="&#x107;" horiz-adv-x="486" 
d="M210 543l46 172l97 -21q-19 -46 -39 -85t-38 -79zM183 244q0 -90 36.5 -134t94.5 -44q45 0 71.5 17t46.5 43l39 -33q-27 -42 -74.5 -73t-120.5 -31q-51 0 -96 16t-78.5 47.5t-53 77t-19.5 104.5q0 61 22 109t59 81.5t85.5 51t102.5 17.5q57 0 96 -10.5t71 -34.5l-43 -80
q-41 67 -108 67q-59 0 -95 -48t-36 -143z" />
    <glyph glyph-name="Ccircumflex" unicode="&#x108;" horiz-adv-x="664" 
d="M397 873q15 -18 27.5 -31t26 -26.5t30 -30.5t39.5 -43l-31 -26q-19 12 -33.5 21.5t-27.5 18.5t-26.5 17.5t-31.5 19.5h-2q-15 -9 -27.5 -17t-26 -17t-29 -19t-36.5 -24l-31 26q22 25 39 42.5t31 31.5l27 27t27 30h55zM388 696q52 0 90 -7t66.5 -19t49.5 -27.5t39 -32.5
l-77 -91q-17 24 -33.5 44.5t-36 35.5t-44 23.5t-57.5 8.5q-43 0 -77.5 -20t-58.5 -56.5t-36.5 -88.5t-12.5 -115q0 -134 56.5 -203t151.5 -69q64 0 106.5 28t76.5 71l49 -42q-17 -23 -39.5 -49t-54.5 -47.5t-74.5 -36t-99.5 -14.5q-74 0 -136.5 24.5t-108 69.5t-71 108.5
t-25.5 141.5q0 83 27.5 150t76 114.5t113.5 73t140 25.5z" />
    <glyph glyph-name="ccircumflex" unicode="&#x109;" horiz-adv-x="486" 
d="M273 632q-17 -14 -29.5 -24.5t-24.5 -21.5t-24.5 -23t-29.5 -28l-33 24q20 25 35 44t28.5 36t26 33t26.5 34h55q15 -19 27.5 -35.5l25 -33t27 -35.5t34.5 -43l-32 -24q-17 15 -30 27.5t-26 23.5l-26 22t-28 24h-2zM183 244q0 -90 36.5 -134t94.5 -44q45 0 71.5 17
t46.5 43l39 -33q-27 -42 -74.5 -73t-120.5 -31q-51 0 -96 16t-78.5 47.5t-53 77t-19.5 104.5q0 61 22 109t59 81.5t85.5 51t102.5 17.5q57 0 96 -10.5t71 -34.5l-43 -80q-41 67 -108 67q-59 0 -95 -48t-36 -143z" />
    <glyph glyph-name="Cdotaccent" unicode="&#x10a;" horiz-adv-x="664" 
d="M388 696q52 0 90 -7t66.5 -19t49.5 -27.5t39 -32.5l-77 -91q-17 24 -33.5 44.5t-36 35.5t-44 23.5t-57.5 8.5q-43 0 -77.5 -20t-58.5 -56.5t-36.5 -88.5t-12.5 -115q0 -134 56.5 -203t151.5 -69q64 0 106.5 28t76.5 71l49 -42q-17 -23 -39.5 -49t-54.5 -47.5t-74.5 -36
t-99.5 -14.5q-74 0 -136.5 24.5t-108 69.5t-71 108.5t-25.5 141.5q0 83 27.5 150t76 114.5t113.5 73t140 25.5zM302 799q0 27 21.5 48.5t56.5 21.5t57.5 -21.5t22.5 -48.5q0 -28 -22.5 -49.5t-57.5 -21.5t-56.5 21.5t-21.5 49.5z" />
    <glyph glyph-name="cdotaccent" unicode="&#x10b;" horiz-adv-x="486" 
d="M183 244q0 -90 36.5 -134t94.5 -44q45 0 71.5 17t46.5 43l39 -33q-27 -42 -74.5 -73t-120.5 -31q-51 0 -96 16t-78.5 47.5t-53 77t-19.5 104.5q0 61 22 109t59 81.5t85.5 51t102.5 17.5q57 0 96 -10.5t71 -34.5l-43 -80q-41 67 -108 67q-59 0 -95 -48t-36 -143zM205 619
q0 30 20.5 50.5t52.5 20.5t53 -20.5t21 -50.5q0 -29 -21 -50t-53 -21t-52.5 21t-20.5 50z" />
    <glyph glyph-name="Ccaron" unicode="&#x10c;" horiz-adv-x="664" 
d="M388 696q52 0 90 -7t66.5 -19t49.5 -27.5t39 -32.5l-77 -91q-17 24 -33.5 44.5t-36 35.5t-44 23.5t-57.5 8.5q-43 0 -77.5 -20t-58.5 -56.5t-36.5 -88.5t-12.5 -115q0 -134 56.5 -203t151.5 -69q64 0 106.5 28t76.5 71l49 -42q-17 -23 -39.5 -49t-54.5 -47.5t-74.5 -36
t-99.5 -14.5q-74 0 -136.5 24.5t-108 69.5t-71 108.5t-25.5 141.5q0 83 27.5 150t76 114.5t113.5 73t140 25.5zM340 721q-15 17 -27 30t-25.5 26.5t-30 30.5t-39.5 43l31 28l119 -79h2q15 9 27.5 17t25.5 17t29 19.5t37 25.5l31 -28q-22 -25 -39 -42l-31 -31t-27 -27.5
t-27 -29.5h-56z" />
    <glyph glyph-name="ccaron" unicode="&#x10d;" horiz-adv-x="486" 
d="M278 608q16 13 29 24t25 22t24.5 23t29.5 29l33 -25q-20 -25 -35 -44t-28.5 -36t-26 -32.5t-26.5 -33.5h-55q-15 19 -27 35t-25 32.5t-27.5 35.5t-34.5 43l33 25q16 -16 29.5 -28.5t26 -23.5t25.5 -22t28 -24h2zM183 244q0 -90 36.5 -134t94.5 -44q45 0 71.5 17t46.5 43
l39 -33q-27 -42 -74.5 -73t-120.5 -31q-51 0 -96 16t-78.5 47.5t-53 77t-19.5 104.5q0 61 22 109t59 81.5t85.5 51t102.5 17.5q57 0 96 -10.5t71 -34.5l-43 -80q-41 67 -108 67q-59 0 -95 -48t-36 -143z" />
    <glyph glyph-name="Dcaron" unicode="&#x10e;" horiz-adv-x="714" 
d="M65 0q2 101 2.5 185t0.5 157t-0.5 157.5t-2.5 184.5h240q185 0 280 -85.5t95 -247.5q0 -82 -25.5 -147t-73 -110.5t-115 -69.5t-151.5 -24h-250zM223 71q8 -1 26 -2.5t54 -1.5q50 -1 89 14t65.5 48.5t40.5 86.5t14 130q0 130 -53.5 200t-167.5 70q-11 0 -22.5 -0.5
t-21.5 -0.5h-23q-2 -73 -2.5 -139t-0.5 -132v-67.5v-59.5t0.5 -64.5t1.5 -81.5zM270 721q-15 17 -27.5 30t-26 26.5t-30 30.5t-39.5 43l31 28l119 -79h2q15 9 27.5 17t26 17t29 19.5t36.5 25.5l31 -28q-22 -25 -39 -42l-31 -31t-27 -27.5t-27 -29.5h-55z" />
    <glyph glyph-name="dcaron" unicode="&#x10f;" horiz-adv-x="687" 
d="M566 512q4 29 7 52t6 44.5t6 44t7 51.5h109q-21 -53 -34.5 -98t-30.5 -94h-70zM373 479v53v64.5t-0.5 61t-1.5 43.5l152 18v-495v-102.5t2 -121.5h-147q0 5 0.5 12t0.5 14v17h-4q-9 -9 -21.5 -18.5t-29 -17.5t-38.5 -13t-50 -5q-39 0 -76 15t-65.5 44.5t-46 74
t-17.5 103.5q0 66 20 116t54.5 83.5t80.5 50.5t97 17q30 0 53 -4t37 -10zM374 391q-12 20 -33 32t-48 12q-53 0 -80.5 -51t-27.5 -142q0 -93 29 -135t81 -42q27 0 48.5 11t30.5 24v291z" />
    <glyph glyph-name="Dcroat" unicode="&#x110;" horiz-adv-x="723" 
d="M81 0q0 12 0.5 37t1 55.5t0.5 63.5t0.5 62.5t0.5 52.5v32q-26 -1 -48 -1.5t-32 -0.5v74q10 0 32 -0.5t48 -0.5q0 67 -0.5 143t-2.5 167h240q185 0 280 -85.5t95 -247.5q0 -82 -25.5 -147t-73.5 -110.5t-115.5 -69.5t-151.5 -24h-249zM238 71q8 -1 26.5 -2.5t54.5 -1.5
q50 -1 89 14t65.5 48.5t40.5 86.5t14 130q0 130 -54 200t-167 70q-11 0 -22 -0.5t-22 -0.5h-24q-1 -66 -2 -125t-1 -117q37 1 68.5 1h48.5v-73q-17 0 -48 0.5t-69 1.5v-52v-52t0.5 -58t1.5 -70z" />
    <glyph glyph-name="dcroat" unicode="&#x111;" horiz-adv-x="579" 
d="M373 558q-19 0 -42.5 -0.5t-45.5 -1t-37.5 -0.5h-18.5l6 71q3 0 17 -0.5t34 -0.5t43 -0.5t43 -0.5v15t-0.5 23t-0.5 22.5v15.5l152 18v-94q23 1 40.5 1.5t22.5 0.5l-5 -71q-4 0 -20 0.5t-38 0.5v-333v-102.5t2 -121.5h-147q0 5 0.5 12t0.5 14v17h-4q-9 -9 -21.5 -18.5
t-29 -17.5t-38.5 -13t-50 -5q-39 0 -76 15t-65.5 44.5t-46 74t-17.5 103.5q0 66 20 116t54.5 83.5t80.5 50.5t97 17q30 0 53 -4t37 -10v79zM374 391q-12 20 -33 32t-48 12q-53 0 -80.5 -51t-27.5 -142q0 -93 29 -135t81 -42q27 0 48.5 11t30.5 24v291z" />
    <glyph glyph-name="Emacron" unicode="&#x112;" horiz-adv-x="535" 
d="M422 321q-43 0 -82 1q-33 1 -67 1.5t-54 0.5v-65v-54.5v-59.5t1 -79q27 0 74 0.5t93 2.5q54 2 113 4l-7 -73h-429q2 101 2.5 185t0.5 157t-0.5 157.5t-2.5 184.5h425l-9 -76q-54 2 -102 4q-42 2 -85.5 3.5t-72.5 1.5q0 -44 -0.5 -72.5t-0.5 -52.5v-47v-56h50t71 1
q42 1 92 2zM282 812q39 0 71.5 0.5t79.5 0.5l-6 -61q-24 0 -41.5 0.5t-33.5 0.5h-32.5h-38.5q-39 0 -71.5 -0.5t-79.5 -0.5l6 61q24 0 41.5 -0.5t33.5 -0.5h32h39z" />
    <glyph glyph-name="emacron" unicode="&#x113;" horiz-adv-x="514" 
d="M479 97q-11 -17 -29 -36t-43 -35t-58 -26.5t-75 -10.5q-51 0 -96 15t-78 45.5t-52 76.5t-19 108q0 58 20 106t53.5 82t78 52.5t92.5 18.5q58 0 98.5 -17.5t66.5 -49t38 -76t12 -99.5h-307v-25q2 -42 11 -71.5t26 -49.5q17 -21 41 -30.5t53 -9.5q45 0 75.5 18.5t53.5 47.5
zM346 310q0 60 -15 94t-59 34q-36 0 -60 -36t-30 -98zM267 640h35t32.5 0.5t35 0.5h42.5l-6 -67q-25 0 -41.5 0.5t-31 0.5h-30h-38.5h-36t-32.5 -0.5t-34.5 -0.5h-42l6 67q24 0 40.5 -0.5t31.5 -0.5h30.5h38.5z" />
    <glyph glyph-name="Ebreve" unicode="&#x114;" horiz-adv-x="535" 
d="M422 321q-43 0 -82 1q-33 1 -67 1.5t-54 0.5v-65v-54.5v-59.5t1 -79q27 0 74 0.5t93 2.5q54 2 113 4l-7 -73h-429q2 101 2.5 185t0.5 157t-0.5 157.5t-2.5 184.5h425l-9 -76q-54 2 -102 4q-42 2 -85.5 3.5t-72.5 1.5q0 -44 -0.5 -72.5t-0.5 -52.5v-47v-56h50t71 1
q42 1 92 2zM280 787q44 0 63.5 20t22.5 59l58 -7q-3 -43 -16.5 -69.5t-33.5 -41.5t-44.5 -20.5t-49.5 -5.5t-49.5 5.5t-45 20.5t-34 41.5t-17.5 69.5l59 7q3 -39 23 -59t64 -20z" />
    <glyph glyph-name="ebreve" unicode="&#x115;" horiz-adv-x="514" 
d="M479 97q-11 -17 -29 -36t-43 -35t-58 -26.5t-75 -10.5q-51 0 -96 15t-78 45.5t-52 76.5t-19 108q0 58 20 106t53.5 82t78 52.5t92.5 18.5q58 0 98.5 -17.5t66.5 -49t38 -76t12 -99.5h-307v-25q2 -42 11 -71.5t26 -49.5q17 -21 41 -30.5t53 -9.5q45 0 75.5 18.5t53.5 47.5
zM346 310q0 60 -15 94t-59 34q-36 0 -60 -36t-30 -98zM262 599q78 0 83 76l58 -5q-3 -41 -16 -67t-32.5 -40.5t-43.5 -20t-49 -5.5q-26 0 -49.5 5.5t-42.5 20t-32 40.5t-17 67l58 5q5 -76 83 -76z" />
    <glyph glyph-name="Edotaccent" unicode="&#x116;" horiz-adv-x="535" 
d="M203 793q0 28 22 49.5t57 21.5t57.5 -21.5t22.5 -49.5t-22.5 -49.5t-57.5 -21.5t-57 21.5t-22 49.5zM422 321q-43 0 -82 1q-33 1 -67 1.5t-54 0.5v-65v-54.5v-59.5t1 -79q27 0 74 0.5t93 2.5q54 2 113 4l-7 -73h-429q2 101 2.5 185t0.5 157t-0.5 157.5t-2.5 184.5h425
l-9 -76q-54 2 -102 4q-42 2 -85.5 3.5t-72.5 1.5q0 -44 -0.5 -72.5t-0.5 -52.5v-47v-56h50t71 1q42 1 92 2z" />
    <glyph glyph-name="edotaccent" unicode="&#x117;" horiz-adv-x="514" 
d="M479 97q-11 -17 -29 -36t-43 -35t-58 -26.5t-75 -10.5q-51 0 -96 15t-78 45.5t-52 76.5t-19 108q0 58 20 106t53.5 82t78 52.5t92.5 18.5q58 0 98.5 -17.5t66.5 -49t38 -76t12 -99.5h-307v-25q2 -42 11 -71.5t26 -49.5q17 -21 41 -30.5t53 -9.5q45 0 75.5 18.5t53.5 47.5
zM346 310q0 60 -15 94t-59 34q-36 0 -60 -36t-30 -98zM189 625q0 29 20 50t52 21q33 0 54 -21t21 -50q0 -30 -21 -50.5t-54 -20.5q-32 0 -52 20.5t-20 50.5z" />
    <glyph glyph-name="Eogonek" unicode="&#x118;" horiz-adv-x="535" 
d="M422 321q-43 0 -82 1q-33 1 -67 1.5t-54 0.5v-65v-54.5v-59.5t1 -79q27 0 74 0.5t93 2.5q54 2 113 4l-7 -73h-174q-15 -19 -28 -41t-13 -50q0 -20 11 -33t28 -13t31 8t22 20l19 -41q-12 -13 -37 -20.5t-57 -7.5q-54 0 -80 24t-26 55q0 17 7 31.5t17.5 27t23.5 22.5t25 18
h-198q2 101 2.5 185t0.5 157t-0.5 157.5t-2.5 184.5h425l-9 -76q-54 2 -102 4q-42 2 -85.5 3.5t-72.5 1.5q0 -44 -0.5 -72.5t-0.5 -52.5v-47v-56h50t71 1q42 1 92 2z" />
    <glyph glyph-name="eogonek" unicode="&#x119;" horiz-adv-x="514" 
d="M181 251v-31q4 -83 40 -119t91 -36q45 0 75.5 18.5t53.5 47.5l38 -34q-10 -16 -25.5 -33t-37 -32t-49 -25.5t-61.5 -14.5q-13 -17 -24 -38t-11 -45q0 -20 11.5 -33t28.5 -13t30.5 8t21.5 20l20 -41q-13 -13 -37.5 -20.5t-56.5 -7.5q-54 0 -80.5 24t-26.5 55q0 29 18.5 52
t40.5 38q-45 4 -84 21.5t-67.5 47.5t-44.5 73.5t-16 100.5q0 58 20 106t53.5 82t78 52.5t92.5 18.5q58 0 98.5 -17.5t66.5 -49t38 -76t12 -99.5h-307zM272 438q-36 0 -60 -36t-30 -98l164 6q0 60 -15 94t-59 34z" />
    <glyph glyph-name="Ecaron" unicode="&#x11a;" horiz-adv-x="535" 
d="M422 321q-43 0 -82 1q-33 1 -67 1.5t-54 0.5v-65v-54.5v-59.5t1 -79q27 0 74 0.5t93 2.5q54 2 113 4l-7 -73h-429q2 101 2.5 185t0.5 157t-0.5 157.5t-2.5 184.5h425l-9 -76q-54 2 -102 4q-42 2 -85.5 3.5t-72.5 1.5q0 -44 -0.5 -72.5t-0.5 -52.5v-47v-56h50t71 1
q42 1 92 2zM253 721q-15 17 -27.5 30t-26 26.5t-29.5 30.5t-39 43l31 28l119 -79h1q15 9 28 17t26 17t28.5 19.5t36.5 25.5l31 -28q-22 -25 -38.5 -42t-30.5 -31t-27 -27.5t-28 -29.5h-55z" />
    <glyph glyph-name="ecaron" unicode="&#x11b;" horiz-adv-x="514" 
d="M264 608q16 13 29 24t25 22t25 23t30 29l32 -25q-20 -25 -35 -44t-28 -36t-25.5 -32.5t-27.5 -33.5h-54q-15 19 -27.5 35t-25.5 32.5t-27.5 35.5t-33.5 43l32 25q16 -16 29.5 -28.5t26 -23.5t25.5 -22t28 -24h2zM479 97q-11 -17 -29 -36t-43 -35t-58 -26.5t-75 -10.5
q-51 0 -96 15t-78 45.5t-52 76.5t-19 108q0 58 20 106t53.5 82t78 52.5t92.5 18.5q58 0 98.5 -17.5t66.5 -49t38 -76t12 -99.5h-307v-25q2 -42 11 -71.5t26 -49.5q17 -21 41 -30.5t53 -9.5q45 0 75.5 18.5t53.5 47.5zM346 310q0 60 -15 94t-59 34q-36 0 -60 -36t-30 -98z
" />
    <glyph glyph-name="Gcircumflex" unicode="&#x11c;" horiz-adv-x="701" 
d="M386 320h277q-1 -44 -1.5 -79t-1 -64.5t-0.5 -56v-54.5q-21 -14 -51 -27.5t-65.5 -24.5t-76 -18t-82.5 -7q-80 0 -145.5 24.5t-111.5 69.5t-71 107.5t-25 139.5q0 85 28 152.5t77.5 115t117 73t147.5 25.5q48 0 83.5 -6t63.5 -17t51 -26t46 -32l-76 -93q-18 26 -35.5 46
t-38 34t-45 21.5t-56.5 7.5q-93 0 -144 -74t-51 -207q0 -147 52.5 -222t144.5 -75q40 0 67.5 9.5t47.5 20.5v173q-14 0 -32 -0.5t-35.5 -1t-33 -1.5t-25.5 -1v68zM415 879q15 -18 27.5 -31t26 -26.5t29.5 -30.5t39 -43l-31 -27q-19 12 -33.5 21.5t-27.5 18.5t-26.5 18
t-31.5 20h-2q-15 -9 -27.5 -17t-25.5 -17t-28.5 -19.5t-36.5 -24.5l-31 27q22 25 38.5 42t30.5 31.5t27 27.5t28 30h55z" />
    <glyph glyph-name="gcircumflex" unicode="&#x11d;" horiz-adv-x="545" 
d="M38 327q0 35 15.5 65t43 52.5t66 35.5t85.5 13q36 0 65 -6t55 -17q16 -5 31 -6t32 -1q14 0 31 2.5t33 6.5q18 4 37 9l-8 -96q-18 7 -47 16.5t-51 16.5l-3 -3q16 -13 26 -37t10 -47q0 -36 -14.5 -66.5t-42 -52t-67 -33.5t-88.5 -12q-18 0 -34.5 0.5t-27.5 2.5
q-13 -7 -21.5 -15.5t-8.5 -21.5q0 -14 9.5 -19t29.5 -5h168q81 0 118 -32.5t37 -95.5q0 -44 -21 -77.5t-58 -56t-86 -34t-105 -11.5q-231 0 -231 106q0 38 31.5 58t82.5 26v3q-36 8 -56.5 30t-20.5 54q0 21 7.5 37.5t20 29.5t28 22.5t32.5 14.5v3q-50 16 -76.5 53.5
t-26.5 87.5zM170 328q0 -60 20 -83t58 -23q39 0 59 24.5t20 81.5q0 60 -21 84.5t-58 24.5q-35 0 -56.5 -25t-21.5 -84zM187 -23q-61 -9 -61 -56q0 -13 6 -24t20 -19.5t37.5 -13t58.5 -4.5q72 0 111 20t39 58q0 26 -15.5 32.5t-44.5 6.5h-151zM261 632q-17 -14 -29.5 -24.5
t-24.5 -21.5t-24.5 -23t-29.5 -28l-32 24l115 147h55q15 -19 27.5 -35.5l25 -33t27 -35.5t34.5 -43l-32 -24q-17 15 -30 27.5t-26 23.5l-26 22t-28 24h-2z" />
    <glyph glyph-name="Gbreve" unicode="&#x11e;" horiz-adv-x="701" 
d="M386 320h277q-1 -44 -1.5 -79t-1 -64.5t-0.5 -56v-54.5q-21 -14 -51 -27.5t-65.5 -24.5t-76 -18t-82.5 -7q-80 0 -145.5 24.5t-111.5 69.5t-71 107.5t-25 139.5q0 85 28 152.5t77.5 115t117 73t147.5 25.5q48 0 83.5 -6t63.5 -17t51 -26t46 -32l-76 -93q-18 26 -35.5 46
t-38 34t-45 21.5t-56.5 7.5q-93 0 -144 -74t-51 -207q0 -147 52.5 -222t144.5 -75q40 0 67.5 9.5t47.5 20.5v173q-14 0 -32 -0.5t-35.5 -1t-33 -1.5t-25.5 -1v68zM387 792q44 0 64 20.5t23 58.5l58 -6q-3 -43 -17 -69.5t-34 -41.5t-44.5 -20.5t-49.5 -5.5t-49.5 5.5
t-44.5 20.5t-34 41.5t-17 69.5l59 6q3 -38 22.5 -58.5t63.5 -20.5z" />
    <glyph glyph-name="gbreve" unicode="&#x11f;" horiz-adv-x="545" 
d="M38 327q0 35 15.5 65t43 52.5t66 35.5t85.5 13q36 0 65 -6t55 -17q16 -5 31 -6t32 -1q14 0 31 2.5t33 6.5q18 4 37 9l-8 -96q-18 7 -47 16.5t-51 16.5l-3 -3q16 -13 26 -37t10 -47q0 -36 -14.5 -66.5t-42 -52t-67 -33.5t-88.5 -12q-18 0 -34.5 0.5t-27.5 2.5
q-13 -7 -21.5 -15.5t-8.5 -21.5q0 -14 9.5 -19t29.5 -5h168q81 0 118 -32.5t37 -95.5q0 -44 -21 -77.5t-58 -56t-86 -34t-105 -11.5q-231 0 -231 106q0 38 31.5 58t82.5 26v3q-36 8 -56.5 30t-20.5 54q0 21 7.5 37.5t20 29.5t28 22.5t32.5 14.5v3q-50 16 -76.5 53.5
t-26.5 87.5zM187 -23q-61 -9 -61 -56q0 -13 6 -24t20 -19.5t37.5 -13t58.5 -4.5q72 0 111 20t39 58q0 26 -15.5 32.5t-44.5 6.5h-151zM170 328q0 -60 20 -83t58 -23q39 0 59 24.5t20 81.5q0 60 -21 84.5t-58 24.5q-35 0 -56.5 -25t-21.5 -84zM265 599q78 0 83 76l58 -5
q-3 -41 -16 -67t-32.5 -40.5t-43.5 -20t-49 -5.5q-26 0 -49.5 5.5t-43 20t-32.5 40.5t-16 67l58 5q5 -76 83 -76z" />
    <glyph glyph-name="Gdotaccent" unicode="&#x120;" horiz-adv-x="701" 
d="M386 320h277q-1 -44 -1.5 -79t-1 -64.5t-0.5 -56v-54.5q-21 -14 -51 -27.5t-65.5 -24.5t-76 -18t-82.5 -7q-80 0 -145.5 24.5t-111.5 69.5t-71 107.5t-25 139.5q0 85 28 152.5t77.5 115t117 73t147.5 25.5q48 0 83.5 -6t63.5 -17t51 -26t46 -32l-76 -93q-18 26 -35.5 46
t-38 34t-45 21.5t-56.5 7.5q-93 0 -144 -74t-51 -207q0 -147 52.5 -222t144.5 -75q40 0 67.5 9.5t47.5 20.5v173q-14 0 -32 -0.5t-35.5 -1t-33 -1.5t-25.5 -1v68zM311 799q0 27 21.5 48.5t56.5 21.5t57.5 -21.5t22.5 -48.5q0 -28 -22.5 -49.5t-57.5 -21.5t-56.5 21.5
t-21.5 49.5z" />
    <glyph glyph-name="gdotaccent" unicode="&#x121;" horiz-adv-x="545" 
d="M38 327q0 35 15.5 65t43 52.5t66 35.5t85.5 13q36 0 65 -6t55 -17q16 -5 31 -6t32 -1q14 0 31 2.5t33 6.5q18 4 37 9l-8 -96q-18 7 -47 16.5t-51 16.5l-3 -3q16 -13 26 -37t10 -47q0 -36 -14.5 -66.5t-42 -52t-67 -33.5t-88.5 -12q-18 0 -34.5 0.5t-27.5 2.5
q-13 -7 -21.5 -15.5t-8.5 -21.5q0 -14 9.5 -19t29.5 -5h168q81 0 118 -32.5t37 -95.5q0 -44 -21 -77.5t-58 -56t-86 -34t-105 -11.5q-231 0 -231 106q0 38 31.5 58t82.5 26v3q-36 8 -56.5 30t-20.5 54q0 21 7.5 37.5t20 29.5t28 22.5t32.5 14.5v3q-50 16 -76.5 53.5
t-26.5 87.5zM187 -23q-61 -9 -61 -56q0 -13 6 -24t20 -19.5t37.5 -13t58.5 -4.5q72 0 111 20t39 58q0 26 -15.5 32.5t-44.5 6.5h-151zM170 328q0 -60 20 -83t58 -23q39 0 59 24.5t20 81.5q0 60 -21 84.5t-58 24.5q-35 0 -56.5 -25t-21.5 -84zM173 610q0 30 20 50.5t53 20.5
q32 0 53 -20.5t21 -50.5t-21 -50.5t-53 -20.5t-52.5 20.5t-20.5 50.5z" />
    <glyph glyph-name="Gcommaaccent" unicode="&#x122;" horiz-adv-x="701" 
d="M386 320h277q-1 -44 -1.5 -79t-1 -64.5t-0.5 -56v-54.5q-21 -14 -51 -27.5t-65.5 -24.5t-76 -18t-82.5 -7q-80 0 -145.5 24.5t-111.5 69.5t-71 107.5t-25 139.5q0 85 28 152.5t77.5 115t117 73t147.5 25.5q48 0 83.5 -6t63.5 -17t51 -26t46 -32l-76 -93q-18 26 -35.5 46
t-38 34t-45 21.5t-56.5 7.5q-93 0 -144 -74t-51 -207q0 -147 52.5 -222t144.5 -75q40 0 67.5 9.5t47.5 20.5v173q-14 0 -32 -0.5t-35.5 -1t-33 -1.5t-25.5 -1v68zM415 -36q25 -30 25 -72q0 -20 -9.5 -37t-25.5 -30.5t-36 -23.5t-42 -16l-24 39q20 10 27.5 27.5t7.5 34.5
q0 14 -6 27.5t-16 24.5z" />
    <glyph glyph-name="gcommaaccent" unicode="&#x123;" horiz-adv-x="545" 
d="M197 525q-10 13 -14.5 29.5t-4.5 31.5q0 37 21.5 71t79.5 57l26 -37q-17 -14 -25 -32.5t-8 -35.5q0 -37 19 -58zM38 327q0 35 15.5 65t43 52.5t66 35.5t85.5 13q36 0 65 -6t55 -17q16 -5 31 -6t32 -1q14 0 31 2.5t33 6.5q18 4 37 9l-8 -96q-18 7 -47 16.5t-51 16.5l-3 -3
q16 -13 26 -37t10 -47q0 -36 -14.5 -66.5t-42 -52t-67 -33.5t-88.5 -12q-18 0 -34.5 0.5t-27.5 2.5q-13 -7 -21.5 -15.5t-8.5 -21.5q0 -14 9.5 -19t29.5 -5h168q81 0 118 -32.5t37 -95.5q0 -44 -21 -77.5t-58 -56t-86 -34t-105 -11.5q-231 0 -231 106q0 38 31.5 58t82.5 26
v3q-36 8 -56.5 30t-20.5 54q0 21 7.5 37.5t20 29.5t28 22.5t32.5 14.5v3q-50 16 -76.5 53.5t-26.5 87.5zM187 -23q-61 -9 -61 -56q0 -13 6 -24t20 -19.5t37.5 -13t58.5 -4.5q72 0 111 20t39 58q0 26 -15.5 32.5t-44.5 6.5h-151zM170 328q0 -60 20 -83t58 -23q39 0 59 24.5
t20 81.5q0 60 -21 84.5t-58 24.5q-35 0 -56.5 -25t-21.5 -84z" />
    <glyph glyph-name="Hcircumflex" unicode="&#x124;" horiz-adv-x="718" 
d="M65 0q2 101 2.5 185t0.5 157t-0.5 157.5t-2.5 184.5h159q-2 -80 -2.5 -159t-0.5 -140q36 0 66 -0.5t69 -0.5h30h40t40.5 0.5t30.5 0.5q0 61 -0.5 140t-2.5 159h159q-2 -102 -2.5 -185.5t-0.5 -156.5t0.5 -157.5t2.5 -184.5h-159q0 12 0.5 38t1 58t0.5 67.5t0.5 66.5
t0.5 54.5v32.5q-32 0 -65.5 1t-75.5 1h-61.5t-73.5 -1v-70t0.5 -79.5t1 -84t1.5 -84.5h-159zM388 873q15 -18 27.5 -31t26 -26.5t30 -30.5t39.5 -43l-32 -26q-19 12 -33 21.5t-27 18.5t-26.5 17.5t-31.5 19.5h-2q-15 -9 -28 -17t-26 -17t-28.5 -19t-36.5 -24l-31 26
q22 25 38.5 42.5t31 31.5t27 27t27.5 30h55z" />
    <glyph glyph-name="hcircumflex" unicode="&#x125;" horiz-adv-x="568" 
d="M55 247v151.5t-0.5 130t-1 102.5t-1.5 68l152 20v-23.5v-53t-0.5 -68t-0.5 -68v-53v-22.5q22 17 49 34q22 11 52 19.5t56 8.5q84 0 121 -40t37 -125v-23.5t-0.5 -35t-0.5 -35.5v-26v-59.5t0.5 -50.5t1 -47.5t0.5 -50.5h-153q0 32 0.5 56t1 46t1 45t0.5 55v32t-0.5 36
t-0.5 34v27q0 36 -17.5 56.5t-63.5 20.5q-20 0 -43 -8t-40 -22q-1 -31 -1 -69.5v-84.5v-67.5t0.5 -53.5t1 -49t0.5 -54h-152q0 32 0.5 60.5l1 57t0.5 59.5v70zM314 901q15 -18 27 -31t25.5 -26.5t30 -30.5t39.5 -43l-31 -27q-19 12 -33.5 21.5t-27.5 18.5t-26.5 18t-31.5 20
h-2q-15 -9 -27.5 -17t-25.5 -17t-28.5 -19.5t-36.5 -24.5l-32 27q22 25 39 42t31 31.5t27 27.5t28 30h55z" />
    <glyph glyph-name="Hbar" unicode="&#x126;" horiz-adv-x="760" 
d="M518 561q0 6 -0.5 23.5t-0.5 37.5t-0.5 38t-0.5 24h158q-1 -33 -1 -63v-59h80l-15 -63h-66v-157v-157.5t2 -184.5h-158v38t0.5 58t1 67.5t1 66.5t0.5 54.5v32.5q-32 0 -65.5 1t-75.5 1h-61.5t-73.5 -1v-70t0.5 -79.5t1 -84t1.5 -84.5h-159q2 101 2.5 185t0.5 157v29.5
v47.5t-0.5 48t-0.5 32h-83l16 63q19 0 35 -0.5t32 -0.5q0 6 -0.5 23.5t-1 37.5t-0.5 37.5v24.5h159q0 -9 -0.5 -26t-1 -35.5t-0.5 -35.5v-26h274zM378 384h30h40t40.5 0.5t30.5 0.5v115h-276v-115q36 0 65.5 -0.5t69.5 -0.5z" />
    <glyph glyph-name="hbar" unicode="&#x127;" horiz-adv-x="568" 
d="M55 247v164.5t-1 145.5q-26 0 -45 -0.5t-24 -0.5l9 71q5 0 21.5 -0.5t37.5 -0.5l-1 72l152 21v-94q21 0 48.5 0.5t53.5 0.5t45 0.5t22 0.5l-8 -71h-22t-44.5 0.5t-51.5 1t-43 0.5q0 -11 -0.5 -31.5t-0.5 -41.5v-37v-17q22 17 49 34q22 11 52 19.5t56 8.5q84 0 121 -40
t37 -125v-23.5t-0.5 -35t-0.5 -35.5v-26v-59.5t0.5 -50.5t1 -47.5t0.5 -50.5h-153q0 32 0.5 56t1 46t1 45t0.5 55v32t-0.5 36t-0.5 34v27q0 36 -17.5 56.5t-63.5 20.5q-20 0 -43 -8t-40 -22q-1 -31 -1 -69.5v-84.5v-67.5t0.5 -53.5t1 -49t0.5 -54h-152q0 32 0.5 60.5l1 57
t0.5 59.5v70z" />
    <glyph glyph-name="Itilde" unicode="&#x128;" horiz-adv-x="289" 
d="M65 0q2 101 2.5 185t0.5 157t-0.5 157.5t-2.5 184.5h159q-2 -102 -2.5 -185.5t-0.5 -156.5t0.5 -157.5t2.5 -184.5h-159zM127 743q-22 8 -38 13t-28 5q-16 0 -27 -9t-5 -33l-59 17q4 44 32 71.5t73 27.5q17 0 35 -3.5t40 -11.5t40 -14.5t32 -6.5q16 0 26 7.5t7 34.5
l59 -18q-5 -52 -34 -75.5t-71 -23.5q-23 0 -42 5.5t-40 13.5z" />
    <glyph glyph-name="itilde" unicode="&#x129;" horiz-adv-x="266" 
d="M211 486q0 -29 -0.5 -55t-1 -54.5t-1 -62t-0.5 -78.5q0 -39 0.5 -68.5t1 -56l1 -53t0.5 -58.5h-152q0 32 0.5 60.5l1 57t0.5 59.5v70v69v55.5t-0.5 48t-1.5 46.5zM201 568q-19 0 -38.5 6t-35.5 13t-30.5 12.5t-27.5 5.5q-8 0 -16.5 -1.5t-15 -6.5t-9.5 -14.5t0 -25.5
l-59 17q4 47 33.5 75.5t72.5 28.5q19 0 38 -5t34 -12q18 -8 33 -14.5t26 -6.5q8 0 15.5 1.5t13.5 6.5t8.5 15.5t-0.5 28.5l59 -18q-5 -53 -33 -79.5t-68 -26.5z" />
    <glyph glyph-name="Imacron" unicode="&#x12a;" horiz-adv-x="289" 
d="M65 0q2 101 2.5 185t0.5 157t-0.5 157.5t-2.5 184.5h159q-2 -102 -2.5 -185.5t-0.5 -156.5t0.5 -157.5t2.5 -184.5h-159zM145 807q39 0 71.5 0.5t79.5 0.5l-6 -62q-25 0 -42.5 0.5t-33 0.5h-32h-38.5q-39 0 -71.5 -0.5t-79.5 -0.5l6 62q24 0 41.5 -0.5t33.5 -0.5h32h39z
" />
    <glyph glyph-name="imacron" unicode="&#x12b;" horiz-adv-x="266" 
d="M211 486q0 -29 -0.5 -55t-1 -54.5t-1 -62t-0.5 -78.5q0 -39 0.5 -68.5t1 -56l1 -53t0.5 -58.5h-152q0 32 0.5 60.5l1 57t0.5 59.5v70v69v55.5t-0.5 48t-1.5 46.5zM135 648h35.5t33 0.5t35 0.5h42.5l-7 -68q-24 0 -40.5 0.5t-31.5 0.5h-30.5h-38.5h-35t-32.5 -0.5
t-35 -0.5h-42.5l6 68q25 0 41.5 -0.5t31 -0.5h30h38.5z" />
    <glyph glyph-name="Ibreve" unicode="&#x12c;" horiz-adv-x="289" 
d="M65 0q2 101 2.5 185t0.5 157t-0.5 157.5t-2.5 184.5h159q-2 -102 -2.5 -185.5t-0.5 -156.5t0.5 -157.5t2.5 -184.5h-159zM144 787q43 0 63 20t23 59l58 -7q-3 -43 -16.5 -69.5t-33.5 -41.5t-44.5 -20.5t-49.5 -5.5q-26 0 -50.5 5.5t-44.5 20.5t-34 41.5t-17 69.5l59 7
q3 -39 23 -59t64 -20z" />
    <glyph glyph-name="ibreve" unicode="&#x12d;" horiz-adv-x="266" 
d="M211 486q0 -29 -0.5 -55t-1 -54.5t-1 -62t-0.5 -78.5q0 -39 0.5 -68.5t1 -56l1 -53t0.5 -58.5h-152q0 32 0.5 60.5l1 57t0.5 59.5v70v69v55.5t-0.5 48t-1.5 46.5zM134 599q78 0 83 76l58 -5q-3 -41 -16 -67t-32.5 -40.5t-43.5 -20t-49 -5.5q-26 0 -49.5 5.5t-42.5 20
t-32 40.5t-16 67l58 5q3 -76 82 -76z" />
    <glyph glyph-name="Iogonek" unicode="&#x12e;" horiz-adv-x="289" 
d="M120 0q-16 -19 -29 -41t-13 -50q0 -20 11.5 -33t28.5 -13t30.5 8t21.5 20l20 -41q-13 -13 -37.5 -20.5t-56.5 -7.5q-54 0 -80.5 24t-26.5 55q0 17 7 32.5t18 28t24.5 23t26.5 17.5q2 100 2.5 183.5t0.5 156.5t-0.5 157.5t-2.5 184.5h159q-2 -102 -2.5 -185.5t-0.5 -156.5
t0.5 -157.5t2.5 -184.5h-104z" />
    <glyph glyph-name="iogonek" unicode="&#x12f;" horiz-adv-x="266" 
d="M211 486q0 -29 -0.5 -55t-1 -54.5t-1 -62t-0.5 -78.5q0 -39 0.5 -68.5t1 -56l1 -53t0.5 -58.5h-99q-14 -19 -27.5 -41t-13.5 -50q0 -20 11.5 -33t28.5 -13t30.5 8t21.5 20l20 -41q-12 -13 -37.5 -20.5t-57.5 -7.5q-54 0 -80 24t-26 55q0 17 7.5 32.5t18.5 28t25 23
t26 17.5q0 31 0.5 59t1 56.5t0.5 59.5v70v69v55.5t-0.5 48t-1.5 46.5zM53 639q0 32 22 54.5t57 22.5t58 -22.5t23 -54.5t-23 -54t-58 -22t-57 22t-22 54z" />
    <glyph glyph-name="Idotaccent" unicode="&#x130;" horiz-adv-x="289" 
d="M65 0q2 101 2.5 185t0.5 157t-0.5 157.5t-2.5 184.5h159q-2 -102 -2.5 -185.5t-0.5 -156.5t0.5 -157.5t2.5 -184.5h-159zM65 793q0 28 22 49.5t57 21.5t57.5 -21.5t22.5 -49.5t-22.5 -49.5t-57.5 -21.5t-57 21.5t-22 49.5z" />
    <glyph glyph-name="dotlessi" unicode="&#x131;" horiz-adv-x="266" 
d="M211 486q0 -29 -0.5 -55t-1 -54.5t-1 -62t-0.5 -78.5q0 -39 0.5 -68.5t1 -56l1 -53t0.5 -58.5h-152q0 32 0.5 60.5l1 57t0.5 59.5v70v69v55.5t-0.5 48t-1.5 46.5l152 20v0z" />
    <glyph glyph-name="IJ" unicode="&#x132;" horiz-adv-x="574" 
d="M65 0q2 101 2.5 185t0.5 157t-0.5 157.5t-2.5 184.5h159q-2 -102 -2.5 -185.5t-0.5 -156.5t0.5 -157.5t2.5 -184.5h-159zM350 -26q0 16 0.5 54t0.5 82.5v88.5v73v86.5v106t-0.5 112.5t-1.5 107h160q-2 -102 -2.5 -197.5t-0.5 -168.5v-49.5t0.5 -69.5t0.5 -72.5v-58.5
q0 -66 -18.5 -111t-49.5 -73.5t-72 -41t-85 -12.5q-42 0 -76.5 7t-54.5 19l33 91q21 -18 49.5 -34t54.5 -16q36 0 49 20t13 57z" />
    <glyph glyph-name="ij" unicode="&#x133;" horiz-adv-x="521" 
d="M211 486q0 -29 -0.5 -55t-1 -54.5t-1 -62t-0.5 -78.5q0 -39 0.5 -68.5t1 -56l1 -53t0.5 -58.5h-152q0 32 0.5 60.5l1 57t0.5 59.5v70v69v55.5t-0.5 48t-1.5 46.5zM53 639q0 32 22 54.5t57 22.5t58 -22.5t23 -54.5t-23 -54t-58 -22t-57 22t-22 54zM312 -69q0 32 0.5 71
t0.5 80.5t0.5 83.5t0.5 81v69t-0.5 55.5t-1 48t-0.5 46.5l151 20q0 -29 -0.5 -55t-0.5 -54.5t-0.5 -62t-0.5 -78.5v-67t0.5 -52t0.5 -47v-51q0 -57 -16 -98t-43.5 -68t-64.5 -40t-79 -13q-40 0 -69 7.5t-48 18.5l33 80q11 -16 34 -29t51 -13q29 0 40.5 17.5t11.5 49.5z
M306 639q0 32 22 54.5t57 22.5t57.5 -22.5t22.5 -54.5t-22.5 -54t-57.5 -22t-57 22t-22 54z" />
    <glyph glyph-name="Jcircumflex" unicode="&#x134;" horiz-adv-x="441" 
d="M329 873q15 -18 27.5 -31t26 -26.5t30 -30.5t39.5 -43l-32 -26q-19 12 -33 21.5t-27 18.5t-26.5 17.5t-31.5 19.5h-2q-15 -9 -28 -17t-26 -17t-28.5 -19t-36.5 -24l-31 26q22 25 39 42.5t31 31.5l27 27t27 30h55zM226 131v40t0.5 52.5t0.5 59v59.5q0 73 -0.5 157.5
t-2.5 184.5h158q-1 -51 -1.5 -90t-1 -72.5t-0.5 -65.5v-68v-41t0.5 -49.5t0.5 -50.5v-46q0 -64 -20 -104.5t-51.5 -64t-69.5 -32t-73 -8.5q-52 0 -90.5 11t-65.5 27l43 90q19 -21 45.5 -41.5t63.5 -20.5q62 0 64 73z" />
    <glyph glyph-name="jcircumflex" unicode="&#x135;" horiz-adv-x="268" 
d="M60 -69v71t0.5 80.5t0.5 83.5v81v69v55.5t-0.5 48t-1.5 46.5l152 20q0 -29 -0.5 -55t-1 -54.5t-1 -62t-0.5 -78.5v-67t0.5 -52t0.5 -47v-51q0 -57 -15.5 -98t-43 -68t-64.5 -40t-80 -13q-40 0 -68.5 7.5t-47.5 18.5l33 80q10 -16 33 -29t52 -13t40.5 17.5t11.5 49.5z
M130 632q-17 -14 -29.5 -24.5t-24.5 -21.5t-25 -23t-30 -28l-32 24q19 25 34.5 44t28.5 36t25.5 33t27.5 34h54q16 -19 28.5 -35.5l25 -33t26.5 -35.5t34 -43l-32 -24q-16 15 -29.5 27.5t-26 23.5t-25.5 22t-28 24h-2z" />
    <glyph glyph-name="Kcommaaccent" unicode="&#x136;" horiz-adv-x="643" 
d="M65 0q2 101 2.5 185t0.5 157t-0.5 157.5t-2.5 184.5h159q-2 -102 -2.5 -185.5t-0.5 -156.5t0.5 -157.5t2.5 -184.5h-159zM607 684q-38 -46 -69 -84.5t-59 -72t-53.5 -65t-50.5 -64.5q30 -48 58.5 -93t59 -92t65 -99t75.5 -114h-186q-31 52 -56.5 92.5t-49.5 78t-49 76
t-55 85.5v12q47 55 84 99.5t68 84t59 77t58 79.5h101zM390 -27q25 -30 25 -72q0 -20 -9.5 -37t-25.5 -30.5t-36 -23.5t-42 -16l-18 29q20 10 24.5 32.5t4.5 39.5q0 14 -6 27.5t-16 24.5z" />
    <glyph glyph-name="kcommaaccent" unicode="&#x137;" horiz-adv-x="535" 
d="M332 -23q25 -30 25 -72q0 -20 -9.5 -37t-25.5 -30.5t-36 -23.5t-42 -16l-24 39q20 10 27.5 27.5t7.5 34.5q0 14 -5.5 27.5t-16.5 24.5zM55 374v86t-0.5 92.5t-1 84.5t-1.5 62l153 20q0 -29 -0.5 -70t-0.5 -87t-0.5 -94.5t-0.5 -93.5v-83t0.5 -103t1 -103.5t1.5 -84.5
h-153q0 32 0.5 80t1 100.5t0.5 103.5v90zM357 0q-20 35 -36.5 64t-33 57t-35 56.5t-40.5 63.5q28 31 53 60.5t48.5 58t47 58.5t48.5 63h94q-29 -30 -50.5 -53t-40 -43.5t-35.5 -40t-37 -42.5q22 -35 45.5 -73.5t48.5 -78t50 -78t51 -72.5h-178z" />
    <glyph glyph-name="Lacute" unicode="&#x139;" horiz-adv-x="522" 
d="M175 776q46 34 92.5 66t77.5 55l58 -79q-47 -23 -95.5 -49t-91.5 -49zM219 342v-68.5v-61.5t0.5 -66t1.5 -80q31 0 66 1t57 2q57 2 101 3.5t60 2.5l-6 -75h-433q2 101 2.5 185t0.5 157t-0.5 157.5t-4.5 184.5h158q-2 -95 -2.5 -176t-0.5 -166z" />
    <glyph glyph-name="lacute" unicode="&#x13a;" horiz-adv-x="261" 
d="M19 781q46 34 92.5 66.5t78.5 55.5l57 -80q-46 -23 -94.5 -48.5t-91.5 -48.5zM58 374q0 39 -0.5 85.5t-1.5 91.5t-1.5 84.5t-1.5 63.5l154 20q0 -29 -0.5 -70t-0.5 -87t-0.5 -94.5t-0.5 -93.5v-90t0.5 -103.5t1 -100.5t0.5 -80h-152q0 32 0.5 80t1 100.5t1 103.5t0.5 90z
" />
    <glyph glyph-name="Lcommaaccent" unicode="&#x13b;" horiz-adv-x="522" 
d="M219 342v-68.5v-61.5t0.5 -66t1.5 -80q31 0 66 1t57 2q57 2 101 3.5t60 2.5l-6 -75h-433q2 101 2.5 185t0.5 157t-0.5 157.5t-4.5 184.5h158q-2 -95 -2.5 -176t-0.5 -166zM330 -27q25 -30 25 -72q0 -20 -9.5 -37t-25.5 -30.5t-36 -23.5t-42 -16l-18 29q20 10 24.5 32.5
t4.5 39.5q0 14 -6 27.5t-16 24.5z" />
    <glyph glyph-name="lcommaaccent" unicode="&#x13c;" horiz-adv-x="261" 
d="M58 374q0 39 -0.5 85.5t-1.5 91.5t-1.5 84.5t-1.5 63.5l154 20q0 -29 -0.5 -70t-0.5 -87t-0.5 -94.5t-0.5 -93.5v-90t0.5 -103.5t1 -100.5t0.5 -80h-152q0 32 0.5 80t1 100.5t1 103.5t0.5 90zM170 -27q25 -30 25 -72q0 -20 -9.5 -37t-25.5 -30.5t-36 -23.5t-42 -16
l-18 29q20 10 24.5 32.5t4.5 39.5q0 14 -6 27.5t-16 24.5z" />
    <glyph glyph-name="Lcaron" unicode="&#x13d;" horiz-adv-x="522" 
d="M321 246q4 29 7 51.5t6 44t6 44t8 51.5h108q-20 -54 -34 -98.5t-31 -92.5h-70zM219 342v-68.5v-61.5t0.5 -66t1.5 -80q31 0 66 1t57 2q57 2 101 3.5t60 2.5l-6 -75h-433q2 101 2.5 185t0.5 157t-0.5 157.5t-4.5 184.5h158q-2 -95 -2.5 -176t-0.5 -166z" />
    <glyph glyph-name="lcaron" unicode="&#x13e;" horiz-adv-x="373" 
d="M251 512q4 29 7 52t6 44.5t6 44t8 51.5h108q-20 -54 -34 -98.5t-31 -93.5h-70zM58 374q0 39 -0.5 85.5t-1.5 91.5t-1.5 84.5t-1.5 63.5l154 20q0 -29 -0.5 -70t-0.5 -87t-0.5 -94.5t-0.5 -93.5v-90t0.5 -103.5t1 -100.5t0.5 -80h-152q0 32 0.5 80t1 100.5t1 103.5t0.5 90
z" />
    <glyph glyph-name="Ldot" unicode="&#x13f;" horiz-adv-x="522" 
d="M219 342v-68.5v-61.5t0.5 -66t1.5 -80q31 0 66 1t57 2q57 2 101 3.5t60 2.5l-6 -75h-433q2 101 2.5 185t0.5 157t-0.5 157.5t-4.5 184.5h158q-2 -95 -2.5 -176t-0.5 -166zM269 382q0 31 22.5 54t53.5 23q15 0 28.5 -6.5t24 -17t17 -24.5t6.5 -29q0 -31 -23 -53.5
t-53 -22.5q-31 0 -53.5 22.5t-22.5 53.5z" />
    <glyph glyph-name="ldot" unicode="&#x140;" horiz-adv-x="374" 
d="M58 374q0 39 -0.5 85.5t-1.5 91.5t-1.5 84.5t-1.5 63.5l154 20q0 -29 -0.5 -70t-0.5 -87t-0.5 -94.5t-0.5 -93.5v-90t0.5 -103.5t1 -100.5t0.5 -80h-152q0 32 0.5 80t1 100.5t1 103.5t0.5 90zM241 362q0 31 22.5 54t52.5 23q32 0 55 -23t23 -54t-23 -53.5t-55 -22.5
q-30 0 -52.5 22.5t-22.5 53.5z" />
    <glyph glyph-name="Lslash" unicode="&#x141;" horiz-adv-x="532" 
d="M222 684q-2 -87 -2.5 -161.5t-0.5 -150.5l166 62l27 -72l-193 -70v-51v-51.5t0.5 -56.5t1.5 -67q31 0 66 1t57 2q57 2 101 3.5t60 2.5l-6 -75h-433l3 236l-52 -20l-28 73l80 29v24q0 73 -0.5 157.5t-4.5 184.5h158v0z" />
    <glyph glyph-name="lslash" unicode="&#x142;" horiz-adv-x="310" 
d="M80 374q0 39 -0.5 85.5t-1 92t-1 85.5t-1.5 64l153 20q0 -24 -0.5 -58t-0.5 -72t-0.5 -78.5t-0.5 -77.5q8 5 18 11l20 12q11 7 23 14l39 -66l-36 -20q-15 -8 -32.5 -17.5t-31.5 -17.5v-87.5t0.5 -97t1 -92.5t1.5 -74h-153l3 266l-61 -37l-38 66q14 9 38 22t61 33v24v0z
" />
    <glyph glyph-name="Nacute" unicode="&#x143;" horiz-adv-x="708" 
d="M255 772q46 34 92.5 66t77.5 55l58 -79q-47 -23 -95.5 -48.5t-91.5 -48.5zM535 0q-41 54 -87.5 117t-96 129.5t-100.5 134t-99 129.5v-205v-70.5t0.5 -69t1 -76t1.5 -89.5h-90q3 101 4 193t1 187q0 64 -1 111t-3 82t-4 61.5t-4 49.5h165q43 -62 82 -115.5t79 -105.5
t82 -105.5t92 -116.5q1 40 1 79v68v69t-0.5 66t-1 72.5t-1.5 88.5h87q-2 -101 -2.5 -180.5t-0.5 -152.5v-162t1 -189h-106z" />
    <glyph glyph-name="nacute" unicode="&#x144;" horiz-adv-x="566" 
d="M221 543l46 172l97 -21q-19 -46 -39 -85t-38 -79zM54 247q0 39 -0.5 68.5t-0.5 54t-0.5 47t-0.5 47.5l149 19v-10.5t-0.5 -16t-0.5 -16v-9.5q11 9 24.5 17.5t26.5 16.5q24 12 53 20t55 8q84 0 120.5 -40t36.5 -125v-23.5t-0.5 -35t-0.5 -35.5v-26q0 -39 0.5 -67t1 -51.5
t1 -44.5t0.5 -45h-153q0 32 0.5 56t1 46t0.5 45v55v32t-0.5 36t-0.5 34v27q0 36 -17.5 56.5t-62.5 20.5q-20 0 -43 -8t-40 -22q-1 -31 -1 -69.5v-84.5v-67.5t0.5 -53.5t1 -49t0.5 -54h-152q0 32 0.5 60.5l1 57t0.5 59.5v70z" />
    <glyph glyph-name="Ncommaaccent" unicode="&#x145;" horiz-adv-x="708" 
d="M535 0q-41 54 -87.5 117t-96 129.5t-100.5 134t-99 129.5v-205v-70.5t0.5 -69t1 -76t1.5 -89.5h-90q3 101 4 193t1 187q0 64 -1 111t-3 82t-4 61.5t-4 49.5h165q43 -62 82 -115.5t79 -105.5t82 -105.5t92 -116.5q1 40 1 79v68v69t-0.5 66t-1 72.5t-1.5 88.5h87
q-2 -101 -2.5 -180.5t-0.5 -152.5v-162t1 -189h-106zM400 -27q25 -30 25 -72q0 -20 -9.5 -37t-25.5 -30.5t-36 -23.5t-42 -16l-18 29q20 10 24.5 32.5t4.5 39.5q0 14 -6 27.5t-16 24.5z" />
    <glyph glyph-name="ncommaaccent" unicode="&#x146;" horiz-adv-x="566" 
d="M54 247q0 39 -0.5 68.5t-0.5 54t-0.5 47t-0.5 47.5l149 19v-10.5t-0.5 -16t-0.5 -16v-9.5q11 9 24.5 17.5t26.5 16.5q24 12 53 20t55 8q84 0 120.5 -40t36.5 -125v-23.5t-0.5 -35t-0.5 -35.5v-26q0 -39 0.5 -67t1 -51.5t1 -44.5t0.5 -45h-153q0 32 0.5 56t1 46t0.5 45v55
v32t-0.5 36t-0.5 34v27q0 36 -17.5 56.5t-62.5 20.5q-20 0 -43 -8t-40 -22q-1 -31 -1 -69.5v-84.5v-67.5t0.5 -53.5t1 -49t0.5 -54h-152q0 32 0.5 60.5l1 57t0.5 59.5v70zM325 -27q25 -30 25 -72q0 -20 -9.5 -37t-25.5 -30.5t-36 -23.5t-42 -16l-18 29q20 10 24.5 32.5
t4.5 39.5q0 14 -6 27.5t-16 24.5z" />
    <glyph glyph-name="Ncaron" unicode="&#x147;" horiz-adv-x="708" 
d="M535 0q-41 54 -87.5 117t-96 129.5t-100.5 134t-99 129.5v-205v-70.5t0.5 -69t1 -76t1.5 -89.5h-90q3 101 4 193t1 187q0 64 -1 111t-3 82t-4 61.5t-4 49.5h165q43 -62 82 -115.5t79 -105.5t82 -105.5t92 -116.5q1 40 1 79v68v69t-0.5 66t-1 72.5t-1.5 88.5h87
q-2 -101 -2.5 -180.5t-0.5 -152.5v-162t1 -189h-106zM329 721q-15 17 -27 30t-25.5 26.5t-30 30.5t-39.5 43l31 28l119 -79h2q15 9 27.5 17t25.5 17t28.5 19.5t36.5 25.5l32 -28q-22 -25 -39 -42l-31 -31t-27 -27.5t-27 -29.5h-56z" />
    <glyph glyph-name="ncaron" unicode="&#x148;" horiz-adv-x="566" 
d="M287 608q16 13 29 24t25 22t25 23t30 29l32 -25q-20 -25 -35 -44t-28 -36t-25.5 -32.5t-27.5 -33.5h-54q-15 19 -27.5 35t-25.5 32.5t-27.5 35.5t-33.5 43l32 25q16 -16 29.5 -28.5t26 -23.5t25.5 -22t28 -24h2zM54 247q0 39 -0.5 68.5t-0.5 54t-0.5 47t-0.5 47.5l149 19
v-10.5t-0.5 -16t-0.5 -16v-9.5q11 9 24.5 17.5t26.5 16.5q24 12 53 20t55 8q84 0 120.5 -40t36.5 -125v-23.5t-0.5 -35t-0.5 -35.5v-26q0 -39 0.5 -67t1 -51.5t1 -44.5t0.5 -45h-153q0 32 0.5 56t1 46t0.5 45v55v32t-0.5 36t-0.5 34v27q0 36 -17.5 56.5t-62.5 20.5
q-20 0 -43 -8t-40 -22q-1 -31 -1 -69.5v-84.5v-67.5t0.5 -53.5t1 -49t0.5 -54h-152q0 32 0.5 60.5l1 57t0.5 59.5v70z" />
    <glyph glyph-name="napostrophe" unicode="&#x149;" horiz-adv-x="566" 
d="M52 689q25 -30 25 -72q0 -20 -9.5 -37t-25.5 -30.5t-36 -23.5t-42 -16l-24 39q21 10 28 27.5t7 34.5q0 14 -5.5 27.5t-16.5 24.5zM54 247q0 39 -0.5 68.5t-0.5 54t-0.5 47t-0.5 47.5l149 19v-10.5t-0.5 -16t-0.5 -16v-9.5q11 9 24.5 17.5t26.5 16.5q24 12 53 20t55 8
q84 0 120.5 -40t36.5 -125v-23.5t-0.5 -35t-0.5 -35.5v-26q0 -39 0.5 -67t1 -51.5t1 -44.5t0.5 -45h-153q0 32 0.5 56t1 46t0.5 45v55v32t-0.5 36t-0.5 34v27q0 36 -17.5 56.5t-62.5 20.5q-20 0 -43 -8t-40 -22q-1 -31 -1 -69.5v-84.5v-67.5t0.5 -53.5t1 -49t0.5 -54h-152
q0 32 0.5 60.5l1 57t0.5 59.5v70z" />
    <glyph glyph-name="Eng" unicode="&#x14a;" horiz-adv-x="708" 
d="M537 -2q-41 54 -88 118t-97 130.5t-101 134t-99 129.5v-205v-70.5t0.5 -69t1 -76t1.5 -89.5h-90q3 101 4 193t1 187q0 64 -0.5 109t-2 79t-3.5 61t-5 55h164q43 -62 82 -115.5t79 -105.5t82 -105.5t92 -116.5q1 40 1 79v68v69t-0.5 66t-1 72.5t-1.5 88.5h87
q-1 -84 -1.5 -142t-1 -100.5t-0.5 -73.5v-60v-117t0.5 -84.5t0.5 -60.5v-44q0 -59 -15.5 -97t-40.5 -60.5t-58 -31t-67 -8.5q-42 0 -77 8.5t-62 24.5l43 89q19 -20 42 -38t60 -18q32 0 51 21.5t20 69.5v36z" />
    <glyph glyph-name="eng" unicode="&#x14b;" horiz-adv-x="566" 
d="M367 -69q1 78 0.5 143t-0.5 128v32t-0.5 36t-0.5 34v27q0 36 -17.5 56.5t-62.5 20.5q-20 0 -43 -8t-40 -22q-1 -31 -1 -69.5v-84.5v-67.5t0.5 -53.5t1 -49t0.5 -54h-152q0 32 0.5 60.5l1 57t0.5 59.5v70t-0.5 68.5t-0.5 54t-0.5 47t-0.5 47.5l149 19v-10.5t-0.5 -16
t-0.5 -16v-9.5q11 9 24.5 17.5t26.5 16.5q24 12 53 20t55 8q84 0 120.5 -40t36.5 -125v-23.5t-0.5 -37t-0.5 -42.5v-39q0 -33 0.5 -56t0.5 -41.5t0.5 -36t0.5 -39.5q-1 -58 -17 -98.5t-43.5 -66t-64 -37t-78.5 -11.5q-40 0 -68.5 7.5t-48.5 18.5l33 80q11 -16 34 -29t52 -13
t40 17.5t11 49.5z" />
    <glyph glyph-name="Omacron" unicode="&#x14c;" horiz-adv-x="747" 
d="M374 807q38 0 70.5 0.5t79.5 0.5l-6 -62q-24 0 -41.5 0.5t-33.5 0.5h-32.5h-38.5q-39 0 -71.5 -0.5t-79.5 -0.5l6 62q25 0 42.5 -0.5t33 -0.5h32h39.5zM376 53q45 0 77.5 20t53 57.5t30.5 90t10 118.5q0 140 -43.5 215.5t-131.5 75.5q-47 0 -80 -21t-53.5 -58.5
t-30 -90.5t-9.5 -116q0 -144 46 -217.5t131 -73.5zM372 696q70 0 132 -24.5t109 -69.5t74.5 -108.5t27.5 -141.5q0 -86 -26.5 -153.5t-72 -114t-107.5 -71t-133 -24.5t-134 24t-109.5 68.5t-73.5 108t-27 141.5q0 86 26.5 153.5t73 114.5t108 72t132.5 25z" />
    <glyph glyph-name="omacron" unicode="&#x14d;" horiz-adv-x="571" 
d="M286 648h35.5t33 0.5t34.5 0.5h42l-6 -68q-24 0 -40.5 0.5t-31.5 0.5h-30.5h-38.5h-35.5t-33 -0.5t-34.5 -0.5h-42l6 68q25 0 41.5 -0.5t31 -0.5h30h38.5zM286 47q28 0 47.5 14.5t32 40.5t18.5 62.5t6 80.5q0 100 -28 145t-76 45q-29 0 -49 -14.5t-32.5 -40.5t-18 -62.5
t-5.5 -80.5q0 -100 29 -145t76 -45zM286 493q46 0 92 -14t83 -44.5t60 -78t23 -113.5q0 -61 -20 -108t-54.5 -79.5t-82 -49.5t-101.5 -17q-49 0 -95.5 15t-82.5 46t-58 78t-22 111q0 61 21 108t57 79.5t82.5 49.5t97.5 17z" />
    <glyph glyph-name="Obreve" unicode="&#x14e;" horiz-adv-x="747" 
d="M371 792q44 0 64 20.5t22 58.5l58 -6q-3 -43 -16.5 -69.5t-33.5 -41.5t-44.5 -20.5t-49.5 -5.5t-49.5 5.5t-45 20.5t-34 41.5t-17.5 69.5l59 6q3 -38 23 -58.5t64 -20.5zM376 53q45 0 77.5 20t53 57.5t30.5 90t10 118.5q0 140 -43.5 215.5t-131.5 75.5q-47 0 -80 -21
t-53.5 -58.5t-30 -90.5t-9.5 -116q0 -144 46 -217.5t131 -73.5zM372 696q70 0 132 -24.5t109 -69.5t74.5 -108.5t27.5 -141.5q0 -86 -26.5 -153.5t-72 -114t-107.5 -71t-133 -24.5t-134 24t-109.5 68.5t-73.5 108t-27 141.5q0 86 26.5 153.5t73 114.5t108 72t132.5 25z" />
    <glyph glyph-name="obreve" unicode="&#x14f;" horiz-adv-x="571" 
d="M286 47q28 0 47.5 14.5t32 40.5t18.5 62.5t6 80.5q0 100 -28 145t-76 45q-29 0 -49 -14.5t-32.5 -40.5t-18 -62.5t-5.5 -80.5q0 -100 29 -145t76 -45zM286 493q46 0 92 -14t83 -44.5t60 -78t23 -113.5q0 -61 -20 -108t-54.5 -79.5t-82 -49.5t-101.5 -17q-49 0 -95.5 15
t-82.5 46t-58 78t-22 111q0 61 21 108t57 79.5t82.5 49.5t97.5 17zM285 599q78 0 83 76l58 -5q-3 -41 -16 -67t-32.5 -40.5t-43.5 -20t-49 -5.5q-26 0 -49.5 5.5t-42.5 20t-32 40.5t-17 67l58 5q5 -76 83 -76z" />
    <glyph glyph-name="Ohungarumlaut" unicode="&#x150;" horiz-adv-x="747" 
d="M213 764q38 35 75.5 70t67.5 65l64 -71q-41 -29 -80.5 -57.5t-81.5 -57.5zM390 764q37 33 75 69t68 66l63 -71q-41 -29 -80.5 -57.5t-81.5 -57.5zM376 53q45 0 77.5 20t53 57.5t30.5 90t10 118.5q0 140 -43.5 215.5t-131.5 75.5q-47 0 -80 -21t-53.5 -58.5t-30 -90.5
t-9.5 -116q0 -144 46 -217.5t131 -73.5zM372 696q70 0 132 -24.5t109 -69.5t74.5 -108.5t27.5 -141.5q0 -86 -26.5 -153.5t-72 -114t-107.5 -71t-133 -24.5t-134 24t-109.5 68.5t-73.5 108t-27 141.5q0 86 26.5 153.5t73 114.5t108 72t132.5 25z" />
    <glyph glyph-name="ohungarumlaut" unicode="&#x151;" horiz-adv-x="571" 
d="M143 543l47 172l99 -21q-19 -45 -38.5 -83t-37.5 -81zM293 543l47 172l100 -21q-19 -45 -38.5 -83t-38.5 -81zM286 47q28 0 47.5 14.5t32 40.5t18.5 62.5t6 80.5q0 100 -28 145t-76 45q-29 0 -49 -14.5t-32.5 -40.5t-18 -62.5t-5.5 -80.5q0 -100 29 -145t76 -45zM286 493
q46 0 92 -14t83 -44.5t60 -78t23 -113.5q0 -61 -20 -108t-54.5 -79.5t-82 -49.5t-101.5 -17q-49 0 -95.5 15t-82.5 46t-58 78t-22 111q0 61 21 108t57 79.5t82.5 49.5t97.5 17z" />
    <glyph glyph-name="OE" unicode="&#x152;" horiz-adv-x="919" 
d="M806 321q-43 0 -82 1q-33 1 -67 1.5t-54 0.5v-65v-54.5v-59.5t1 -79q27 0 73.5 0.5t92.5 2.5q54 2 113 4l-6 -73h-485q-72 0 -137 22.5t-114.5 65t-79 104t-29.5 139.5q0 86 30.5 151.5t81.5 110.5t117 68t137 23h474l-8 -76q-54 2 -102 4q-42 2 -85.5 3.5t-72.5 1.5
q0 -44 -0.5 -72.5t-0.5 -52.5v-47v-56h20h29.5t35 0.5t36.5 0.5q42 1 92 2zM449 65q1 79 1.5 147.5t0.5 129.5v128.5t-2 147.5h-52q-95 -1 -146.5 -73.5t-51.5 -200.5q0 -72 14.5 -124.5t40 -87t61.5 -51t78 -16.5h56z" />
    <glyph glyph-name="oe" unicode="&#x153;" horiz-adv-x="836" 
d="M801 97q-11 -17 -27 -36t-39 -35t-54.5 -26.5t-73.5 -10.5q-58 0 -99 18.5t-69 50.5h-4q-64 -69 -162 -69q-49 0 -93.5 15t-78 46t-53.5 78t-20 111q0 61 19 108t52.5 79.5t78 49.5t95.5 17q56 0 97.5 -18t71.5 -53h3q32 35 73 53t88 18q58 0 97 -17.5t63 -49t34 -76
t10 -99.5h-296v-24q2 -86 35.5 -124t89.5 -38q45 0 73 18.5t51 47.5zM279 47q55 0 75 52.5t20 145.5q0 100 -23.5 145t-71.5 45q-29 0 -48 -14.5t-30 -40.5t-15.5 -62.5t-4.5 -80.5q0 -100 25.5 -145t72.5 -45zM668 310q0 60 -12.5 94t-55.5 34q-38 0 -58.5 -36t-26.5 -98z
" />
    <glyph glyph-name="Racute" unicode="&#x154;" horiz-adv-x="638" 
d="M219 781q46 34 92.5 66.5t77.5 55.5l58 -80q-47 -23 -95.5 -48.5t-91.5 -48.5zM64 0q2 101 2.5 185t0.5 157t-0.5 157.5t-2.5 184.5h259q53 0 97 -11.5t75.5 -34.5t49 -58.5t17.5 -84.5q0 -54 -30.5 -101t-97.5 -71q4 -6 14 -21.5t20.5 -33.5t20.5 -35t15 -26
q29 -51 61 -106t61 -101h-180q-12 22 -31.5 58t-41 77t-43.5 83t-40 75h-69v-136.5t2 -156.5h-159zM222 617v-74.5t-0.5 -64t-0.5 -59.5v-60h57q66 0 94.5 30.5t28.5 99.5q0 70 -27.5 100.5t-93.5 30.5q-17 0 -33 -1t-25 -2z" />
    <glyph glyph-name="racute" unicode="&#x155;" horiz-adv-x="385" 
d="M155 543l46 172l97 -21q-20 -46 -39.5 -85t-37.5 -79zM54 247q0 39 -0.5 68.5t-0.5 54t-0.5 47t-0.5 47.5l149 19v-14.5t-0.5 -24t-0.5 -23v-13.5q29 33 62.5 57.5t76.5 24.5q12 0 24 -1.5t22 -6.5l-22 -119q-11 8 -28.5 13.5t-41.5 5.5q-55 0 -91 -24q-1 -30 -0.5 -73
t0.5 -88q0 -59 0.5 -103.5t1.5 -93.5h-152q0 32 0.5 60.5l1 57t0.5 59.5v70z" />
    <glyph glyph-name="Rcommaaccent" unicode="&#x156;" horiz-adv-x="638" 
d="M64 0q2 101 2.5 185t0.5 157t-0.5 157.5t-2.5 184.5h259q53 0 97 -11.5t75.5 -34.5t49 -58.5t17.5 -84.5q0 -54 -30.5 -101t-97.5 -71q4 -6 14 -21.5t20.5 -33.5t20.5 -35t15 -26q29 -51 61 -106t61 -101h-180q-12 22 -31.5 58t-41 77t-43.5 83t-40 75h-69v-136.5
t2 -156.5h-159zM222 617v-74.5t-0.5 -64t-0.5 -59.5v-60h57q66 0 94.5 30.5t28.5 99.5q0 70 -27.5 100.5t-93.5 30.5q-17 0 -33 -1t-25 -2zM390 -27q25 -30 25 -72q0 -20 -9.5 -37t-25.5 -30.5t-36 -23.5t-42 -16l-18 29q20 10 24.5 32.5t4.5 39.5q0 14 -6 27.5t-16 24.5z
" />
    <glyph glyph-name="rcommaaccent" unicode="&#x157;" horiz-adv-x="393" 
d="M54 247q0 39 -0.5 68.5t-0.5 54t-0.5 47t-0.5 47.5l149 19v-14.5t-0.5 -24t-0.5 -23v-13.5q29 33 62.5 57.5t76.5 24.5q12 0 24 -1.5t22 -6.5l-22 -119q-11 8 -28.5 13.5t-41.5 5.5q-55 0 -91 -24q-1 -30 -0.5 -73t0.5 -88q0 -59 0.5 -103.5t1.5 -93.5h-152
q0 32 0.5 60.5l1 57t0.5 59.5v70zM260 -27q25 -30 25 -72q0 -20 -9.5 -37t-25.5 -30.5t-36 -23.5t-42 -16l-18 29q20 10 24.5 32.5t4.5 39.5q0 14 -6 27.5t-16 24.5z" />
    <glyph glyph-name="Rcaron" unicode="&#x158;" horiz-adv-x="638" 
d="M64 0q2 101 2.5 185t0.5 157t-0.5 157.5t-2.5 184.5h259q53 0 97 -11.5t75.5 -34.5t49 -58.5t17.5 -84.5q0 -54 -30.5 -101t-97.5 -71q4 -6 14 -21.5t20.5 -33.5t20.5 -35t15 -26q29 -51 61 -106t61 -101h-180q-12 22 -31.5 58t-41 77t-43.5 83t-40 75h-69v-136.5
t2 -156.5h-159zM222 617v-74.5t-0.5 -64t-0.5 -59.5v-60h57q66 0 94.5 30.5t28.5 99.5q0 70 -27.5 100.5t-93.5 30.5q-17 0 -33 -1t-25 -2zM262 721q-15 17 -27.5 30t-26 26.5t-29.5 30.5t-39 43l31 28l119 -79h2q15 9 27.5 17t25.5 17t28.5 19.5t36.5 25.5l32 -28
q-22 -25 -39 -42l-31 -31t-27 -27.5t-28 -29.5h-55z" />
    <glyph glyph-name="rcaron" unicode="&#x159;" horiz-adv-x="393" 
d="M220 608q16 13 29 24t25 22t24.5 23t29.5 29l33 -25q-20 -25 -35 -44t-28.5 -36t-26 -32.5t-26.5 -33.5h-55q-15 19 -27 35t-25 32.5t-27.5 35.5t-34.5 43l33 25q16 -16 29.5 -28.5t26 -23.5t25.5 -22t28 -24h2zM54 247q0 39 -0.5 68.5t-0.5 54t-0.5 47t-0.5 47.5l149 19
v-14.5t-0.5 -24t-0.5 -23v-13.5q29 33 62.5 57.5t76.5 24.5q12 0 24 -1.5t22 -6.5l-22 -119q-11 8 -28.5 13.5t-41.5 5.5q-55 0 -91 -24q-1 -30 -0.5 -73t0.5 -88q0 -59 0.5 -103.5t1.5 -93.5h-152q0 32 0.5 60.5l1 57t0.5 59.5v70z" />
    <glyph glyph-name="Sacute" unicode="&#x15a;" horiz-adv-x="570" 
d="M258 -11q-77 0 -128.5 21.5t-86.5 48.5l45 106q32 -49 76 -79.5t115 -30.5q56 0 85.5 25.5t29.5 65.5q0 21 -6.5 38t-22 32t-42.5 30t-67 32q-47 19 -82 38.5t-58.5 43.5t-35.5 55t-12 74q0 48 17.5 86.5t49 65t74.5 41t94 14.5q66 0 114.5 -15.5t86.5 -40.5l-46 -90
q-26 38 -65 58.5t-96 20.5q-48 0 -73 -22.5t-25 -60.5q0 -17 5 -31.5t18 -28t35.5 -27t57.5 -28.5q56 -24 96.5 -45.5t66 -46.5t37.5 -56t12 -72q0 -45 -16 -85.5t-49 -70.5t-84 -48t-120 -18zM178 781q45 34 91.5 66.5t78.5 55.5l58 -80q-47 -23 -95.5 -48.5t-91.5 -48.5z
" />
    <glyph glyph-name="sacute" unicode="&#x15b;" horiz-adv-x="434" 
d="M180 543l46 172l98 -21q-20 -46 -40 -85t-37 -79zM206 -11q-56 0 -101.5 13t-77.5 36l42 86q25 -36 58 -56t84 -20q41 0 59 15t18 35q0 12 -4.5 21.5t-15.5 18t-30 17.5t-47 21q-69 26 -105.5 60t-36.5 99q0 73 48 115.5t139 42.5q48 0 85 -11t73 -31l-45 -79
q-20 29 -49.5 46t-74.5 17q-70 0 -70 -49q0 -23 21 -37t67 -31q39 -15 69 -30t50 -33.5t30.5 -42.5t10.5 -57t-12 -63.5t-36.5 -53t-61.5 -36t-87 -13.5z" />
    <glyph glyph-name="Scircumflex" unicode="&#x15c;" horiz-adv-x="570" 
d="M317 879q15 -18 27.5 -31t26 -26.5t30 -30.5t39.5 -43l-32 -27q-19 12 -33 21.5t-27 18.5t-26.5 18t-31.5 20h-2q-15 -9 -28 -17t-26 -17t-28.5 -19.5t-36.5 -24.5l-31 27q22 25 39 42t31 31.5t27 27.5t27 30h55zM258 -11q-77 0 -128.5 21.5t-86.5 48.5l45 106
q32 -49 76 -79.5t115 -30.5q56 0 85.5 25.5t29.5 65.5q0 21 -6.5 38t-22 32t-42.5 30t-67 32q-47 19 -82 38.5t-58.5 43.5t-35.5 55t-12 74q0 48 17.5 86.5t49 65t74.5 41t94 14.5q66 0 114.5 -15.5t86.5 -40.5l-46 -90q-26 38 -65 58.5t-96 20.5q-48 0 -73 -22.5t-25 -60.5
q0 -17 5 -31.5t18 -28t35.5 -27t57.5 -28.5q56 -24 96.5 -45.5t66 -46.5t37.5 -56t12 -72q0 -45 -16 -85.5t-49 -70.5t-84 -48t-120 -18z" />
    <glyph glyph-name="scircumflex" unicode="&#x15d;" horiz-adv-x="434" 
d="M214 632q-17 -14 -29.5 -24.5t-24.5 -21.5t-24.5 -23t-29.5 -28l-32 24q19 25 34.5 44t28.5 36t25.5 33t27.5 34h54q15 -19 27.5 -35.5l25 -33t27 -35.5t34.5 -43l-32 -24q-17 15 -30 27.5t-26 23.5l-26 22t-28 24h-2zM206 -11q-56 0 -101.5 13t-77.5 36l42 86
q25 -36 58 -56t84 -20q41 0 59 15t18 35q0 12 -4.5 21.5t-15.5 18t-30 17.5t-47 21q-69 26 -105.5 60t-36.5 99q0 73 48 115.5t139 42.5q48 0 85 -11t73 -31l-45 -79q-20 29 -49.5 46t-74.5 17q-70 0 -70 -49q0 -23 21 -37t67 -31q39 -15 69 -30t50 -33.5t30.5 -42.5
t10.5 -57t-12 -63.5t-36.5 -53t-61.5 -36t-87 -13.5z" />
    <glyph glyph-name="Scedilla" unicode="&#x15e;" horiz-adv-x="570" 
d="M257 -11q-77 0 -128.5 21.5t-86.5 48.5l45 106q32 -49 76 -79.5t115 -30.5q56 0 85.5 25.5t29.5 65.5q0 21 -6.5 38t-22 32t-42.5 30t-67 32q-47 19 -82 38.5t-58.5 43.5t-35.5 55t-12 74q0 48 17.5 86.5t49 65t74.5 41t94 14.5q66 0 114.5 -15.5t86.5 -40.5l-46 -90
q-26 38 -65 58.5t-96 20.5q-48 0 -73 -22.5t-25 -60.5q0 -17 5 -31.5t18 -28t35.5 -27t57.5 -28.5q56 -24 96.5 -45.5t66 -46.5t37.5 -56t12 -72q0 -40 -13 -77t-39 -66t-66 -49t-95 -26l-16 -36q5 2 12 2.5t13 0.5q38 0 60 -21t22 -47q0 -33 -32 -56t-100 -23
q-14 0 -29.5 2t-30 5t-27 7t-19.5 8l17 56q14 -17 38.5 -27.5t45.5 -10.5q22 0 34.5 13t12.5 33q0 25 -24 25q-6 0 -14 -1.5t-13 -6.5l-36 9l30 64v0z" />
    <glyph glyph-name="scedilla" unicode="&#x15f;" horiz-adv-x="434" 
d="M403 155q0 -31 -10 -59t-31 -50t-52.5 -36.5t-74.5 -18.5l-15 -34q5 2 11.5 2.5t13.5 0.5q37 0 59.5 -21t22.5 -47q0 -33 -32 -56t-100 -23q-29 0 -60 7t-47 15l18 56q14 -17 38.5 -27.5t45.5 -10.5q22 0 34 13t12 33q0 25 -23 25q-7 0 -14.5 -1.5t-12.5 -6.5l-36 9
l29 65q-46 3 -85 15.5t-67 32.5l42 86q25 -36 58 -56t84 -20q41 0 59 15t18 35q0 12 -4.5 21.5t-15.5 18t-30 17.5t-47 21q-69 26 -105.5 60t-36.5 99q0 73 48 115.5t139 42.5q48 0 85 -11t73 -31l-45 -79q-20 29 -49.5 46t-74.5 17q-70 0 -70 -49q0 -23 21 -37t67 -31
q39 -15 69 -30t50 -33.5t30.5 -42.5t10.5 -57z" />
    <glyph glyph-name="Scaron" unicode="&#x160;" horiz-adv-x="570" 
d="M260 716q-15 17 -27 29.5t-25.5 26t-30 30.5t-39.5 43l31 28q19 -13 33.5 -22.5t27.5 -18t26.5 -17.5t31.5 -20h2q15 9 27.5 17t25.5 16.5t28.5 19t36.5 25.5l32 -28q-22 -25 -39 -42l-31 -31l-27 -27t-27 -29h-56zM258 -11q-77 0 -128.5 21.5t-86.5 48.5l45 106
q32 -49 76 -79.5t115 -30.5q56 0 85.5 25.5t29.5 65.5q0 21 -6.5 38t-22 32t-42.5 30t-67 32q-47 19 -82 38.5t-58.5 43.5t-35.5 55t-12 74q0 48 17.5 86.5t49 65t74.5 41t94 14.5q66 0 114.5 -15.5t86.5 -40.5l-46 -90q-26 38 -65 58.5t-96 20.5q-48 0 -73 -22.5t-25 -60.5
q0 -17 5 -31.5t18 -28t35.5 -27t57.5 -28.5q56 -24 96.5 -45.5t66 -46.5t37.5 -56t12 -72q0 -45 -16 -85.5t-49 -70.5t-84 -48t-120 -18z" />
    <glyph glyph-name="scaron" unicode="&#x161;" horiz-adv-x="434" 
d="M217 608q16 13 29 24t25 22t25 23t30 29l32 -25q-20 -25 -35 -44t-28 -36t-25.5 -32.5t-27.5 -33.5h-54q-15 19 -27.5 35t-25.5 32.5t-27.5 35.5t-33.5 43l32 25q16 -16 29.5 -28.5t26 -23.5t25.5 -22t28 -24h2zM206 -11q-56 0 -101.5 13t-77.5 36l42 86q25 -36 58 -56
t84 -20q41 0 59 15t18 35q0 12 -4.5 21.5t-15.5 18t-30 17.5t-47 21q-69 26 -105.5 60t-36.5 99q0 73 48 115.5t139 42.5q48 0 85 -11t73 -31l-45 -79q-20 29 -49.5 46t-74.5 17q-70 0 -70 -49q0 -23 21 -37t67 -31q39 -15 69 -30t50 -33.5t30.5 -42.5t10.5 -57t-12 -63.5
t-36.5 -53t-61.5 -36t-87 -13.5z" />
    <glyph glyph-name="Tcommaaccent" unicode="&#x162;" horiz-adv-x="634" 
d="M614 684v-14t0.5 -23.5t0.5 -23.5v-14q-45 1 -86 3q-35 2 -73 2.5t-61 1.5q0 -81 -0.5 -146.5t-0.5 -127.5q0 -73 0.5 -157.5t2.5 -184.5h-160q2 101 2.5 185t0.5 157v127.5t-1 146.5q-27 -1 -64.5 -1.5t-72.5 -2.5q-40 -2 -83 -3v14t0.5 23.5t0.5 23.5v14h594zM360 -27
q25 -30 25 -72q0 -20 -9.5 -37t-25.5 -30.5t-36 -23.5t-42 -16l-18 29q20 10 24.5 32.5t4.5 39.5q0 14 -6 27.5t-16 24.5z" />
    <glyph glyph-name="tcommaaccent" unicode="&#x163;" horiz-adv-x="401" 
d="M363 481v-64h-133v-295q0 -58 59 -58q23 0 42.5 5.5t35.5 11.5l18 -41q-23 -17 -63 -34t-96 -17q-78 0 -111 34t-33 91l2 303h-55v30q39 33 81.5 68.5t81.5 80.5h39l-1 -115h133zM260 -27q25 -30 25 -72q0 -20 -9.5 -37t-25.5 -30.5t-36 -23.5t-42 -16l-18 29
q20 10 24.5 32.5t4.5 39.5q0 14 -6 27.5t-16 24.5z" />
    <glyph glyph-name="Tcaron" unicode="&#x164;" horiz-adv-x="634" 
d="M288 721q-15 17 -27.5 30t-26 26.5t-29.5 30.5t-39 43l31 28q19 -13 33 -22.5t27.5 -18t27 -17.5l31.5 -21h1q15 9 28 17t26 17t28.5 19.5t36.5 25.5l31 -28q-22 -25 -38.5 -42t-31 -31t-27 -27.5t-27.5 -29.5h-55zM614 684v-14t0.5 -23.5t0.5 -23.5v-14q-45 1 -86 3
q-35 2 -73 2.5t-61 1.5q0 -81 -0.5 -146.5t-0.5 -127.5q0 -73 0.5 -157.5t2.5 -184.5h-160q2 101 2.5 185t0.5 157v127.5t-1 146.5q-27 -1 -64.5 -1.5t-72.5 -2.5q-40 -2 -83 -3v14t0.5 23.5t0.5 23.5v14h594z" />
    <glyph glyph-name="tcaron" unicode="&#x165;" horiz-adv-x="426" 
d="M363 481v-64h-133v-295q0 -58 59 -58q23 0 42.5 5.5t35.5 11.5l18 -41q-23 -17 -63 -34t-96 -17q-78 0 -111 34t-33 91l2 303h-55v30q39 33 81.5 68.5t81.5 80.5h39l-1 -115h133zM268 531q4 29 7.5 51t6 41.5t5 38.5t4.5 42h108l-61 -173h-70z" />
    <glyph glyph-name="Tbar" unicode="&#x166;" horiz-adv-x="634" 
d="M614 684v-14t0.5 -23.5t0.5 -23.5v-14q-45 1 -86 3q-35 2 -73 2.5t-61 1.5q0 -59 -0.5 -108.5t-0.5 -95.5h32.5t34 0.5t42 0.5h57.5l-14 -63h-53t-40.5 0.5t-31.5 0.5h-27v-44q0 -132 3 -307h-160q2 88 2.5 163t0.5 142v45h-165l14 63q58 -1 91 -1h60q0 47 -0.5 95.5
t-0.5 108.5q-27 -1 -64.5 -1.5t-72.5 -2.5q-40 -2 -83 -3v14t0.5 23.5t0.5 23.5v14h594v0z" />
    <glyph glyph-name="tbar" unicode="&#x167;" horiz-adv-x="401" 
d="M363 481l-1 -64h-132v-85q45 0 78 1t41 1l-8 -71h-14t-26.5 0.5t-34 1t-36.5 0.5v-143q0 -58 59 -58q23 0 42.5 5.5t35.5 11.5l18 -41q-23 -17 -63 -34t-96 -17q-78 0 -111 34t-33 91l1 150q-23 0 -39 -0.5t-20 -0.5l8 71q5 0 18.5 -0.5t32.5 -0.5l1 84h-55v30
q39 33 81.5 68.5t81.5 80.5h39l-1 -115h133z" />
    <glyph glyph-name="Utilde" unicode="&#x168;" horiz-adv-x="685" 
d="M624 227q0 -58 -19.5 -102.5t-54.5 -74.5t-85.5 -45.5t-111.5 -15.5q-64 0 -117.5 13.5t-92.5 44t-60.5 80t-21.5 120.5v51.5v27t0.5 13.5t0.5 10v17.5v36.5v66t-0.5 61t-1 67.5t-1.5 86.5h158q0 -51 -0.5 -87.5t-1 -67.5t-0.5 -60.5v-65.5v-60t0.5 -40.5t0.5 -33.5v-38
q0 -90 41 -129t127 -39q83 0 121 43t38 114v161v69.5t-0.5 68.5t-1.5 75t-3 90h89q-1 -51 -1.5 -91t-1 -75t-0.5 -68v-69v-154zM359 743q-22 8 -38 13t-28 5q-17 0 -27.5 -9t-5.5 -33l-59 17q5 44 33 71.5t73 27.5q17 0 35 -3.5t40 -11.5t40 -14.5t32 -6.5q16 0 26 7.5
t7 34.5l59 -18q-5 -52 -34 -75.5t-71 -23.5q-23 0 -42 5.5t-40 13.5z" />
    <glyph glyph-name="utilde" unicode="&#x169;" horiz-adv-x="566" 
d="M513 236q0 -78 0.5 -132.5t2.5 -103.5h-149v10.5t0.5 15.5t0.5 15.5v10.5l-26 -18t-27 -17q-25 -13 -53.5 -20.5t-57.5 -7.5q-80 0 -116 37t-36 122v126v58v48t-0.5 47t-1.5 54h151v-332q0 -38 15.5 -57.5t57.5 -19.5q23 0 48 9t42 27q1 31 1.5 67t0.5 83v67.5t-0.5 53.5
t-1 49t-1.5 53h152q0 -13 -0.5 -47t-1 -73t-0.5 -74.5v-50.5zM360 568q-19 0 -38.5 6t-35.5 13t-30.5 12.5t-27.5 5.5q-8 0 -16.5 -1.5t-15 -6.5t-9.5 -14.5t0 -25.5l-59 17q4 47 34 75.5t72 28.5q19 0 38 -5t34 -12q18 -8 33 -14.5t26 -6.5q8 0 15.5 1.5t13.5 6.5t8.5 15.5
t-0.5 28.5l59 -18q-5 -53 -33 -79.5t-68 -26.5z" />
    <glyph glyph-name="Umacron" unicode="&#x16a;" horiz-adv-x="685" 
d="M624 227q0 -58 -19.5 -102.5t-54.5 -74.5t-85.5 -45.5t-111.5 -15.5q-64 0 -117.5 13.5t-92.5 44t-60.5 80t-21.5 120.5v51.5v27t0.5 13.5t0.5 10v17.5v36.5v66t-0.5 61t-1 67.5t-1.5 86.5h158q0 -51 -0.5 -87.5t-1 -67.5t-0.5 -60.5v-65.5v-60t0.5 -40.5t0.5 -33.5v-38
q0 -90 41 -129t127 -39q83 0 121 43t38 114v161v69.5t-0.5 68.5t-1.5 75t-3 90h89q-1 -51 -1.5 -91t-1 -75t-0.5 -68v-69v-154zM374 807q38 0 70.5 0.5t79.5 0.5l-6 -62q-24 0 -41.5 0.5t-33.5 0.5h-32.5h-38.5q-39 0 -71.5 -0.5t-79.5 -0.5l6 62q25 0 42.5 -0.5t33 -0.5h32
h39.5z" />
    <glyph glyph-name="umacron" unicode="&#x16b;" horiz-adv-x="566" 
d="M513 236q0 -78 0.5 -132.5t2.5 -103.5h-149v10.5t0.5 15.5t0.5 15.5v10.5l-26 -18t-27 -17q-25 -13 -53.5 -20.5t-57.5 -7.5q-80 0 -116 37t-36 122v126v58v48t-0.5 47t-1.5 54h151v-332q0 -38 15.5 -57.5t57.5 -19.5q23 0 48 9t42 27q1 31 1.5 67t0.5 83v67.5t-0.5 53.5
t-1 49t-1.5 53h152q0 -13 -0.5 -47t-1 -73t-0.5 -74.5v-50.5zM283 648h35.5t33 0.5t35 0.5h42.5l-7 -68q-24 0 -40.5 0.5t-31 0.5h-30.5h-38h-36t-32.5 -0.5t-35 -0.5h-42.5l7 68q24 0 40.5 -0.5t31 -0.5h30h38.5z" />
    <glyph glyph-name="Ubreve" unicode="&#x16c;" horiz-adv-x="685" 
d="M624 227q0 -58 -19.5 -102.5t-54.5 -74.5t-85.5 -45.5t-111.5 -15.5q-64 0 -117.5 13.5t-92.5 44t-60.5 80t-21.5 120.5v51.5v27t0.5 13.5t0.5 10v17.5v36.5v66t-0.5 61t-1 67.5t-1.5 86.5h158q0 -51 -0.5 -87.5t-1 -67.5t-0.5 -60.5v-65.5v-60t0.5 -40.5t0.5 -33.5v-38
q0 -90 41 -129t127 -39q83 0 121 43t38 114v161v69.5t-0.5 68.5t-1.5 75t-3 90h89q-1 -51 -1.5 -91t-1 -75t-0.5 -68v-69v-154zM364 792q44 0 64 20.5t23 58.5l58 -6q-3 -43 -17 -69.5t-34 -41.5t-44.5 -20.5t-49.5 -5.5t-49.5 5.5t-44.5 20.5t-34 41.5t-17 69.5l59 6
q3 -38 22.5 -58.5t63.5 -20.5z" />
    <glyph glyph-name="ubreve" unicode="&#x16d;" horiz-adv-x="566" 
d="M513 236q0 -78 0.5 -132.5t2.5 -103.5h-149v10.5t0.5 15.5t0.5 15.5v10.5l-26 -18t-27 -17q-25 -13 -53.5 -20.5t-57.5 -7.5q-80 0 -116 37t-36 122v126v58v48t-0.5 47t-1.5 54h151v-332q0 -38 15.5 -57.5t57.5 -19.5q23 0 48 9t42 27q1 31 1.5 67t0.5 83v67.5t-0.5 53.5
t-1 49t-1.5 53h152q0 -13 -0.5 -47t-1 -73t-0.5 -74.5v-50.5zM282 599q78 0 83 76l58 -5q-3 -41 -16 -67t-32 -40.5t-43 -20t-50 -5.5t-49.5 5.5t-42.5 20t-32 40.5t-16 67l58 5q3 -76 82 -76z" />
    <glyph glyph-name="Uring" unicode="&#x16e;" horiz-adv-x="685" 
d="M624 227q0 -58 -19.5 -102.5t-54.5 -74.5t-85.5 -45.5t-111.5 -15.5q-64 0 -117.5 13.5t-92.5 44t-60.5 80t-21.5 120.5v51.5v27t0.5 13.5t0.5 10v17.5v36.5v66t-0.5 61t-1 67.5t-1.5 86.5h158q0 -51 -0.5 -87.5t-1 -67.5t-0.5 -60.5v-65.5v-60t0.5 -40.5t0.5 -33.5v-38
q0 -90 41 -129t127 -39q83 0 121 43t38 114v161v69.5t-0.5 68.5t-1.5 75t-3 90h89q-1 -51 -1.5 -91t-1 -75t-0.5 -68v-69v-154zM378 880q35 0 60.5 -23t25.5 -64q0 -40 -26 -63t-60 -23q-35 0 -60 23t-25 63q0 41 25 64t60 23zM378 742q22 0 34.5 15.5t12.5 35.5
q0 21 -13 36.5t-34 15.5t-34.5 -15.5t-13.5 -36.5q0 -20 13.5 -35.5t34.5 -15.5z" />
    <glyph glyph-name="uring" unicode="&#x16f;" horiz-adv-x="566" 
d="M513 236q0 -78 0.5 -132.5t2.5 -103.5h-149v10.5t0.5 15.5t0.5 15.5v10.5l-26 -18t-27 -17q-25 -13 -53.5 -20.5t-57.5 -7.5q-80 0 -116 37t-36 122v126v58v48t-0.5 47t-1.5 54h151v-332q0 -38 15.5 -57.5t57.5 -19.5q23 0 48 9t42 27q1 31 1.5 67t0.5 83v67.5t-0.5 53.5
t-1 49t-1.5 53h152q0 -13 -0.5 -47t-1 -73t-0.5 -74.5v-50.5zM282 707q33 0 57.5 -22t24.5 -60t-24.5 -60t-57.5 -22t-57 22t-24 60t24 60t57 22zM282 675q-21 0 -33.5 -15t-12.5 -35q0 -21 12.5 -35.5t33.5 -14.5q22 0 34 14.5t12 35.5q0 20 -12 35t-34 15z" />
    <glyph glyph-name="Uhungarumlaut" unicode="&#x170;" horiz-adv-x="685" 
d="M198 764q38 35 75.5 70t66.5 65l64 -71q-40 -29 -80 -57.5t-82 -57.5zM374 764q37 33 75 69t68 66l64 -71q-42 -29 -81 -57.5t-81 -57.5zM624 227q0 -58 -19.5 -102.5t-54.5 -74.5t-85.5 -45.5t-111.5 -15.5q-64 0 -117.5 13.5t-92.5 44t-60.5 80t-21.5 120.5v51.5v27
t0.5 13.5t0.5 10v17.5v36.5v66t-0.5 61t-1 67.5t-1.5 86.5h158q0 -51 -0.5 -87.5t-1 -67.5t-0.5 -60.5v-65.5v-60t0.5 -40.5t0.5 -33.5v-38q0 -90 41 -129t127 -39q83 0 121 43t38 114v161v69.5t-0.5 68.5t-1.5 75t-3 90h89q-1 -51 -1.5 -91t-1 -75t-0.5 -68v-69v-154z" />
    <glyph glyph-name="uhungarumlaut" unicode="&#x171;" horiz-adv-x="566" 
d="M513 236q0 -78 0.5 -132.5t2.5 -103.5h-149v10.5t0.5 15.5t0.5 15.5v10.5l-26 -18t-27 -17q-25 -13 -53.5 -20.5t-57.5 -7.5q-80 0 -116 37t-36 122v126v58v48t-0.5 47t-1.5 54h151v-332q0 -38 15.5 -57.5t57.5 -19.5q23 0 48 9t42 27q1 31 1.5 67t0.5 83v67.5t-0.5 53.5
t-1 49t-1.5 53h152q0 -13 -0.5 -47t-1 -73t-0.5 -74.5v-50.5zM305 543l47 172l100 -21q-19 -45 -38.5 -83t-38.5 -81zM155 543l46 172l100 -21q-19 -45 -38.5 -83t-38.5 -81z" />
    <glyph glyph-name="Uogonek" unicode="&#x172;" horiz-adv-x="685" 
d="M624 227q0 -112 -68 -173t-183 -65q-13 -17 -23.5 -39.5t-10.5 -46.5q0 -20 12 -30t29 -10t30 8t21 20l21 -41q-13 -13 -38 -20.5t-57 -7.5q-49 0 -72.5 24t-23.5 55q0 24 17.5 48t37.5 41q-56 4 -103 19.5t-81 46.5t-52.5 78t-18.5 113v51.5v27t0.5 13.5t0.5 10v17.5
v36.5v66t-0.5 61t-1 67.5t-1.5 86.5h158q0 -51 -0.5 -87.5t-1 -67.5t-0.5 -60.5v-65.5v-60t0.5 -40.5t0.5 -33.5v-38q0 -90 41 -129t127 -39q83 0 121 43t38 114v161v69.5t-0.5 68.5t-1.5 75t-3 90h89q-1 -51 -1.5 -91t-1 -75t-0.5 -68v-69v-154v0z" />
    <glyph glyph-name="uogonek" unicode="&#x173;" horiz-adv-x="566" 
d="M513 236q0 -78 0.5 -132.5t2.5 -103.5h-97q-15 -18 -28.5 -39.5t-13.5 -48.5q0 -23 12 -36t29 -13t30 8t21 20l20 -41q-12 -13 -37.5 -20.5t-54.5 -7.5q-53 0 -81 23.5t-28 56.5q0 18 7.5 33t19.5 27.5t26 22.5t26 18v10t0.5 14.5t0.5 14.5v10l-26 -18t-27 -17
q-25 -13 -53.5 -20.5t-57.5 -7.5q-80 0 -116 37t-36 122v126v58v48t-0.5 47t-1.5 54h151v-332q0 -38 15.5 -57.5t57.5 -19.5q23 0 48 9t42 27q1 31 1.5 67t0.5 83v67.5t-0.5 53.5t-1 49t-1.5 53h152q0 -13 -0.5 -47t-1 -73t-0.5 -74.5v-50.5z" />
    <glyph glyph-name="Wcircumflex" unicode="&#x174;" horiz-adv-x="942" 
d="M500 879q15 -18 27.5 -31t26 -26.5t30 -30.5t39.5 -43l-31 -27q-19 12 -33.5 21.5t-27.5 18.5t-26.5 18t-31.5 20h-2q-15 -9 -27.5 -17t-26 -17t-29 -19.5t-36.5 -24.5l-31 27q22 25 39 42t31 31.5t27 27.5t27 30h55zM468 446q-4 -15 -14 -46t-22 -71.5t-26 -86.5
t-27.5 -91t-25 -84.5t-18.5 -66.5h-113l-109 378q-3 10 -9.5 34.5t-15 55t-18 64.5t-18 64.5t-15.5 54t-10 33.5h169q17 -72 31 -128t28 -110q13 -53 28.5 -111t35.5 -134h2q6 20 16 52.5t21 70t22.5 77.5t21.5 75.5t17.5 63t10.5 41.5q-2 6 -6.5 20.5t-9.5 30t-9.5 30
t-6.5 22.5h167q14 -66 29 -119t30 -107q15 -57 33 -119.5t39 -137.5h2q19 62 36 125t33 120q19 67 34 126.5t27 111.5h93q-3 -8 -9 -29.5t-14.5 -49.5t-18 -59.5t-18 -60t-16 -51t-10.5 -32.5q-4 -14 -14 -46t-22 -73t-26 -86.5t-26 -86t-21.5 -70.5t-12.5 -40h-110
q-43 141 -75 252t-58 194h-2z" />
    <glyph glyph-name="wcircumflex" unicode="&#x175;" horiz-adv-x="748" 
d="M395 632q-17 -14 -29.5 -24.5t-24.5 -21.5t-25 -23t-30 -28l-32 24q19 25 34.5 44t28.5 36t25.5 33t27.5 34h54q16 -19 28.5 -35.5l25 -33t26.5 -35.5t34 -43l-32 -24q-16 15 -29.5 27.5t-26 23.5t-25.5 22t-28 24h-2zM374 292q-26 -64 -53.5 -137t-55.5 -155h-99
q-42 133 -77 251t-72 230h161q5 -23 15.5 -64.5t22.5 -87.5t23.5 -89.5t18.5 -69.5h1q33 85 57.5 160.5t51.5 150.5h77q14 -42 26 -78.5t24.5 -72.5t25.5 -75t30 -85h2q16 52 29 93.5t24 77.5t20.5 69.5t18.5 70.5h86q-18 -54 -36 -108.5t-37 -113t-40 -122.5t-45 -137h-103
q-15 45 -27.5 83.5t-24 73l-22.5 67.5t-22 68z" />
    <glyph glyph-name="Ycircumflex" unicode="&#x176;" horiz-adv-x="612" 
d="M225 0l3 286q-28 54 -53 100t-50 91.5t-52 95.5t-60 111h175q24 -50 44 -90t39.5 -76t38.5 -70.5t40 -73.5q23 42 45.5 84.5t42.5 82.5t38 76.5t33 66.5h93q-8 -12 -25 -43t-38.5 -70.5t-45 -84t-45 -84.5t-38.5 -71t-25 -44q0 -65 0.5 -132.5t2.5 -154.5h-163zM375 879
q15 -18 27.5 -31t26 -26.5t30 -30.5t39.5 -43l-32 -27q-19 12 -33 21.5t-27 18.5t-26.5 18t-31.5 20h-2q-15 -9 -28 -17t-26 -17t-28.5 -19.5t-36.5 -24.5l-31 27q22 25 39 42t31 31.5t27 27.5t27 30h55z" />
    <glyph glyph-name="ycircumflex" unicode="&#x177;" horiz-adv-x="514" 
d="M295 164q22 56 38.5 97.5t29.5 77.5t25 69.5t25 72.5h91q-35 -83 -73 -173.5t-76 -179.5t-74 -172t-66 -151h-90q14 26 28 53.5t26.5 52.5t21.5 44.5t14 29.5q-48 122 -101 244t-102 252h166q15 -45 28 -83t26.5 -74t28 -74.5t32.5 -85.5h2zM282 632q-17 -14 -29.5 -24.5
t-24.5 -21.5t-24.5 -23t-29.5 -28l-32 24q19 25 34.5 44t28.5 36t25.5 33t27.5 34h54q15 -19 27.5 -35.5t25.5 -33t27 -35.5t34 -43l-32 -24q-16 15 -29.5 27.5t-26.5 23.5l-26 22t-28 24h-2z" />
    <glyph glyph-name="Ydieresis" unicode="&#x178;" horiz-adv-x="612" 
d="M225 0l3 286q-28 54 -53 100t-50 91.5t-52 95.5t-60 111h175q24 -50 44 -90t39.5 -76t38.5 -70.5t40 -73.5q23 42 45.5 84.5t42.5 82.5t38 76.5t33 66.5h93q-8 -12 -25 -43t-38.5 -70.5t-45 -84t-45 -84.5t-38.5 -71t-25 -44q0 -65 0.5 -132.5t2.5 -154.5h-163zM176 781
q0 23 17 41t42 18q23 0 41 -18t18 -41q0 -24 -18 -41.5t-41 -17.5q-25 0 -42 17.5t-17 41.5zM386 781q0 23 18 41t41 18q24 0 42 -18t18 -41q0 -24 -18 -41.5t-42 -17.5q-23 0 -41 17.5t-18 41.5z" />
    <glyph glyph-name="Zacute" unicode="&#x179;" horiz-adv-x="601" 
d="M217 781q46 34 92.5 66.5t77.5 55.5l58 -80q-46 -23 -94.5 -48.5t-91.5 -48.5zM383 616q-46 0 -95 -1t-94 -2.5t-82.5 -3.5t-61.5 -4l6 80q48 -1 106 -1h129h274l13 -36q-26 -45 -49.5 -83.5t-47 -75.5t-48.5 -75t-53 -83q-23 -35 -46.5 -71.5t-45 -71.5t-39.5 -66
t-30 -55q43 1 95.5 2t102.5 2t92 2t65 3l-6 -79q-27 0 -56 1q-25 1 -55.5 1.5t-59.5 0.5h-366l-8 42q14 25 35.5 59t47.5 74.5t55 85t59 90.5q25 38 49 76t45.5 72.5t39 64t29.5 52.5z" />
    <glyph glyph-name="zacute" unicode="&#x17a;" horiz-adv-x="476" 
d="M200 543l46 172l97 -21q-20 -46 -39.5 -85t-37.5 -79zM267 422q-19 0 -51 -1t-65.5 -2t-64 -3t-46.5 -3l4 68h393l8 -31q-41 -63 -72 -113t-59 -94.5t-54.5 -88t-56.5 -94.5q41 0 74 1t61.5 2t53.5 2t49 3l-5 -68h-407l-5 35q70 107 134 208t109 179z" />
    <glyph glyph-name="Zdotaccent" unicode="&#x17b;" horiz-adv-x="601" 
d="M383 616q-46 0 -95 -1t-94 -2.5t-82.5 -3.5t-61.5 -4l6 80q48 -1 106 -1h129h274l13 -36q-26 -45 -49.5 -83.5t-47 -75.5t-48.5 -75t-53 -83q-23 -35 -46.5 -71.5t-45 -71.5t-39.5 -66t-30 -55q43 1 95.5 2t102.5 2t92 2t65 3l-6 -79q-27 0 -56 1q-25 1 -55.5 1.5
t-59.5 0.5h-366l-8 42q14 25 35.5 59t47.5 74.5t55 85t59 90.5q25 38 49 76t45.5 72.5t39 64t29.5 52.5zM233 793q0 28 21.5 49.5t56.5 21.5t57.5 -21.5t22.5 -49.5t-22.5 -49.5t-57.5 -21.5t-56.5 21.5t-21.5 49.5z" />
    <glyph glyph-name="zdotaccent" unicode="&#x17c;" horiz-adv-x="476" 
d="M267 422q-19 0 -51 -1t-65.5 -2t-64 -3t-46.5 -3l4 68h393l8 -31q-41 -63 -72 -113t-59 -94.5t-54.5 -88t-56.5 -94.5q41 0 74 1t61.5 2t53.5 2t49 3l-5 -68h-407l-5 35q70 107 134 208t109 179zM176 628q0 30 20 50.5t52 20.5q33 0 54 -20.5t21 -50.5q0 -29 -21 -49.5
t-54 -20.5q-32 0 -52 20.5t-20 49.5z" />
    <glyph glyph-name="Zcaron" unicode="&#x17d;" horiz-adv-x="601" 
d="M383 616q-46 0 -95 -1t-94 -2.5t-82.5 -3.5t-61.5 -4l6 80q48 -1 106 -1h129h274l13 -36q-26 -45 -49.5 -83.5t-47 -75.5t-48.5 -75t-53 -83q-23 -35 -46.5 -71.5t-45 -71.5t-39.5 -66t-30 -55q43 1 95.5 2t102.5 2t92 2t65 3l-6 -79q-27 0 -56 1q-25 1 -55.5 1.5
t-59.5 0.5h-366l-8 42q14 25 35.5 59t47.5 74.5t55 85t59 90.5q25 38 49 76t45.5 72.5t39 64t29.5 52.5z" />
    <glyph glyph-name="zcaron" unicode="&#x17e;" horiz-adv-x="476" 
d="M241 608q16 13 29 24t25 22t25 23t30 29l32 -25q-20 -25 -35 -44t-28 -36t-25.5 -32.5t-27.5 -33.5h-54q-15 19 -27.5 35t-25.5 32.5t-27.5 35.5t-33.5 43l32 25q16 -16 29.5 -28.5t26 -23.5t25.5 -22t28 -24h2zM267 422q-19 0 -51 -1t-65.5 -2t-64 -3t-46.5 -3l4 68h393
l8 -31q-41 -63 -72 -113t-59 -94.5t-54.5 -88t-56.5 -94.5q41 0 74 1t61.5 2t53.5 2t49 3l-5 -68h-407l-5 35q70 107 134 208t109 179z" />
    <glyph glyph-name="florin" unicode="&#x192;" horiz-adv-x="407" 
d="M63 -7q8 62 15 129.5t15 145.5q3 25 4 35.5t1.5 17t1.5 14t3 27.5h-66l3 34l69 32l8 57q12 106 70.5 164.5t148.5 58.5q52 0 80 -9t53 -26l-57 -80q-11 23 -29 37t-44 14q-61 0 -71 -98l-14 -119h108l-6 -65h-109l-11 -94l-23 -212q-10 -106 -66 -159t-147 -53
q-38 0 -62 7.5t-48 18.5l38 80q13 -19 32 -30.5t36 -11.5q15 0 26 3t19 12.5t13 26t9 43.5z" />
    <glyph glyph-name="Aringacute" unicode="&#x1fa;" horiz-adv-x="660" 
d="M404 179q-24 0 -54.5 0.5t-61.5 0.5q-24 0 -55 0.5t-65 -0.5q-17 -44 -32.5 -88t-29.5 -92h-92q37 90 69.5 171t64 160.5t62.5 160t65 169.5q13 4 29 8.5t31.5 9.5t29 10t22.5 9q30 -94 59 -176t57 -159q28 -78 61 -169t69 -194h-166zM289 503q-19 -52 -45 -119.5
t-52 -136.5h18t25.5 -0.5t28 -0.5h25.5h18.5h26.5t26.5 0.5t18.5 0.5q-20 56 -42.5 124.5t-45.5 131.5h-2zM323 863q29 0 51.5 -20t22.5 -55t-22.5 -55t-51.5 -20q-30 0 -52 20t-22 55t22 55t52 20zM206 926q46 34 86.5 59.5t72.5 48.5l50 -79l-176 -83zM323 742
q20 0 31 13.5t11 32.5t-11 32.5t-31 13.5t-31 -13.5t-11 -32.5t11 -32.5t31 -13.5z" />
    <glyph glyph-name="aringacute" unicode="&#x1fb;" horiz-adv-x="514" 
d="M36 432q38 27 91 44t117 17q91 0 140.5 -32.5t49.5 -109.5v-26t-0.5 -33.5t-0.5 -33.5v-25q0 -42 0.5 -79.5t0.5 -68.5q0 -17 6 -24t22 -7q11 0 20.5 3.5t17.5 7.5l18 -30q-18 -18 -49.5 -32t-70.5 -14q-83 0 -103 61q-21 -21 -54.5 -41t-82.5 -20q-27 0 -50.5 8.5
t-41 24.5t-28 40t-10.5 54q0 34 11.5 56t28 35.5t34.5 20t30 10.5q44 14 81.5 23t71.5 19v89q0 35 -16 49.5t-55 14.5q-35 0 -72.5 -19.5t-60.5 -51.5zM283 87q1 32 1.5 66.5t0.5 77.5q-6 -1 -15 -3.5t-19.5 -5.5t-20.5 -6t-17 -5q-24 -10 -33.5 -28.5t-9.5 -53.5
q0 -38 15 -52t40 -14q20 0 33.5 7.5t24.5 16.5zM238 661q-20 0 -32 -13.5t-12 -33.5t12 -33.5t32 -13.5t32 13.5t12 33.5t-12 33.5t-32 13.5zM238 696q33 0 57.5 -22t24.5 -60t-24.5 -60t-57.5 -22t-57.5 22t-24.5 60t24.5 60t57.5 22zM176 734l46 172l97 -21
q-20 -46 -39.5 -84.5t-37.5 -79.5z" />
    <glyph glyph-name="AEacute" unicode="&#x1fc;" horiz-adv-x="859" 
d="M746 321q-37 0 -70 1q-29 1 -59 1.5t-50 0.5v-65v-54.5t0.5 -59.5t1.5 -79q26 0 69.5 0.5t84.5 2.5q48 2 100 4l-6 -73h-404q1 60 1.5 112t0.5 101h-77h-26.5h-33.5h-37h-35l-114 -213h-92q63 115 112 208t91 173.5t80 153.5t79 149h451l-8 -76q-46 2 -90 4
q-38 2 -78 3.5t-68 1.5q0 -44 -0.5 -72.5t-1 -52.5t-0.5 -47v-56h45.5t63.5 1q37 1 80 2zM408 607l-72.5 -145t-94.5 -183h175v63v55t-0.5 55.5t-1 66.5t-0.5 88h-6zM463 776q45 34 92 66t78 55l58 -79q-47 -23 -95.5 -49t-91.5 -49z" />
    <glyph glyph-name="aeacute" unicode="&#x1fd;" horiz-adv-x="762" 
d="M317 543l46 172l98 -21q-20 -46 -39.5 -85t-37.5 -79zM727 297q-11 -2 -33.5 -5.5t-51 -8t-59.5 -9.5t-59 -9.5t-49 -8t-30 -5.5v-11q3 -85 39 -129.5t92 -44.5q45 0 72 18t49 47l39 -34q-11 -17 -27.5 -36t-40.5 -35t-56 -26.5t-74 -10.5q-62 0 -108.5 26t-73.5 73h-4
q-27 -44 -71.5 -71.5t-109.5 -27.5q-68 0 -105.5 33t-37.5 94q0 34 11.5 56t28 35.5t34.5 20t30 10.5q21 7 57.5 16t95.5 20v89q0 35 -16 52.5t-55 17.5q-35 0 -72.5 -19.5t-60.5 -51.5l-45 70q38 27 85.5 44t111.5 17q57 0 89 -17t48 -49h5q27 32 69.5 49t87.5 17
q57 0 94.5 -17.5t60 -45t31.5 -62.5t9 -71zM167 130q0 -38 16.5 -54.5t41.5 -16.5q20 0 36.5 11.5t21.5 25.5q0 12 0.5 29.5t1 36t0.5 36v28.5l-72 -15q-25 -8 -35.5 -26.5t-10.5 -54.5zM531 438q-38 0 -59 -32.5t-26 -105.5q7 1 28 5t44.5 8.5t44.5 8t29 4.5
q0 51 -14.5 81.5t-46.5 30.5z" />
    <glyph glyph-name="Oslashacute" unicode="&#x1fe;" horiz-adv-x="746" 
d="M642 703q-11 -19 -23.5 -40t-25.5 -44q56 -45 89 -112.5t33 -154.5q0 -86 -26.5 -153.5t-72 -114t-107.5 -71t-133 -24.5q-33 0 -64 5t-60 14q-15 -26 -28 -50t-23 -44l-81 42l54 92q-66 44 -104 115.5t-38 167.5q0 86 26.5 153.5t73 114.5t108 72t132.5 25q81 0 151 -35
l44 81zM199 344q0 -123 38 -191q18 30 35.5 59.5t33.5 56t29 48.5t22 38q10 18 24 43.5t30.5 55.5t34.5 63l36 66q-41 47 -110 47q-47 0 -80 -21t-53.5 -58.5t-30 -90.5t-9.5 -116zM376 53q45 0 77.5 20t53 57.5t30.5 90t10 118.5q0 94 -21 157l-96 -176l-138 -241
q37 -26 84 -26zM262 781q46 34 92.5 66.5t77.5 55.5l58 -80q-46 -23 -94.5 -48.5t-91.5 -48.5z" />
    <glyph glyph-name="oslashacute" unicode="&#x1ff;" horiz-adv-x="571" 
d="M465 542l-39 -84q51 -29 84.5 -81.5t33.5 -133.5q0 -61 -20 -108t-54.5 -79.5t-82 -49.5t-101.5 -17q-19 0 -37 2.5t-36 6.5l-36 -89l-72 27l41 87q-52 29 -85 82t-33 134q0 61 21 108t57 79.5t82.5 49.5t97.5 17q36 0 71 -9l36 86zM181 237q0 -31 5.5 -56.5t14.5 -45.5
l51 112q17 40 37 84t41 92q-20 12 -44 12q-29 0 -49 -14.5t-32.5 -40.5t-18 -62.5t-5.5 -80.5zM286 47q28 0 47.5 14.5t32 40.5t18.5 62.5t6 80.5q0 29 -5 53t-13 43q-15 -31 -28.5 -60.5t-24.5 -55.5l-77 -166q19 -12 44 -12zM214 543l46 172l98 -21q-20 -46 -39.5 -85
t-37.5 -79z" />
    <glyph glyph-name="Scommaaccent" unicode="&#x218;" horiz-adv-x="570" 
d="M258 -11q-77 0 -128.5 21.5t-86.5 48.5l45 106q32 -49 76 -79.5t115 -30.5q56 0 85.5 25.5t29.5 65.5q0 21 -6.5 38t-22 32t-42.5 30t-67 32q-47 19 -82 38.5t-58.5 43.5t-35.5 55t-12 74q0 48 17.5 86.5t49 65t74.5 41t94 14.5q66 0 114.5 -15.5t86.5 -40.5l-46 -90
q-26 38 -65 58.5t-96 20.5q-48 0 -73 -22.5t-25 -60.5q0 -17 5 -31.5t18 -28t35.5 -27t57.5 -28.5q56 -24 96.5 -45.5t66 -46.5t37.5 -56t12 -72q0 -45 -16 -85.5t-49 -70.5t-84 -48t-120 -18zM330 -27q25 -30 25 -72q0 -20 -9.5 -37t-25.5 -30.5t-36 -23.5t-42 -16l-18 29
q20 10 24.5 32.5t4.5 39.5q0 14 -6 27.5t-16 24.5z" />
    <glyph glyph-name="scommaaccent" unicode="&#x219;" horiz-adv-x="434" 
d="M206 -11q-56 0 -101.5 13t-77.5 36l42 86q25 -36 58 -56t84 -20q41 0 59 15t18 35q0 12 -4.5 21.5t-15.5 18t-30 17.5t-47 21q-69 26 -105.5 60t-36.5 99q0 73 48 115.5t139 42.5q48 0 85 -11t73 -31l-45 -79q-20 29 -49.5 46t-74.5 17q-70 0 -70 -49q0 -23 21 -37
t67 -31q39 -15 69 -30t50 -33.5t30.5 -42.5t10.5 -57t-12 -63.5t-36.5 -53t-61.5 -36t-87 -13.5zM257 -27q25 -30 25 -72q0 -20 -9.5 -37t-25.5 -30.5t-36 -23.5t-42 -16l-18 29q20 10 24.5 32.5t4.5 39.5q0 14 -6 27.5t-16 24.5z" />
    <glyph glyph-name="uni0237" unicode="&#x237;" horiz-adv-x="268" 
d="M60 -69v71t0.5 80.5t0.5 83.5v81v69v55.5t-0.5 48t-1.5 46.5l152 20q0 -29 -0.5 -55t-1 -54.5t-1 -62t-0.5 -78.5v-67t0.5 -52t0.5 -47v-51q0 -57 -15.5 -98t-43 -68t-64.5 -40t-80 -13q-40 0 -68.5 7.5t-47.5 18.5l33 80q10 -16 33 -29t52 -13t40.5 17.5t11.5 49.5z" />
    <glyph glyph-name="circumflex" unicode="&#x2c6;" 
d="M183 632q-17 -14 -29.5 -24.5t-24.5 -21.5t-24.5 -23t-29.5 -28l-33 24q20 25 35 44t28.5 36t26 33t26.5 34h55q15 -19 27.5 -35.5l25 -33t27 -35.5t34.5 -43l-33 -24q-16 15 -29.5 27.5t-26 23.5t-25.5 22t-28 24h-2z" />
    <glyph glyph-name="caron" unicode="&#x2c7;" 
d="M186 608q16 13 29 24t25 22t24.5 23t29.5 29l33 -25q-20 -25 -35 -44t-28.5 -36t-26 -32.5t-26.5 -33.5h-55q-15 19 -27 35t-25 32.5t-27.5 35.5t-34.5 43l33 25q16 -16 29.5 -28.5t26 -23.5t25.5 -22t28 -24h2z" />
    <glyph glyph-name="breve" unicode="&#x2d8;" 
d="M184 599q78 0 83 76l58 -5q-3 -41 -16 -67t-32.5 -40.5t-43.5 -20t-49 -5.5q-26 0 -49.5 5.5t-43 20t-32.5 40.5t-16 67l58 5q5 -76 83 -76z" />
    <glyph glyph-name="dotaccent" unicode="&#x2d9;" 
d="M110 639q0 30 20.5 50.5t52.5 20.5t53.5 -20.5t21.5 -50.5q0 -29 -21.5 -49.5t-53.5 -20.5t-52.5 20.5t-20.5 49.5z" />
    <glyph glyph-name="ring" unicode="&#x2da;" 
d="M184 673q-20 0 -32 -14t-12 -34t12 -33.5t32 -13.5t31.5 13.5t11.5 33.5t-11.5 34t-31.5 14zM184 707q32 0 57 -22t25 -60t-25 -60t-57 -22q-33 0 -57.5 22t-24.5 60t24.5 60t57.5 22z" />
    <glyph glyph-name="ogonek" unicode="&#x2db;" 
d="M247 8q-16 -19 -32 -44t-16 -55q0 -20 11 -33t28 -13t31 8t22 20l19 -41q-13 -13 -37.5 -20.5t-56.5 -7.5q-54 0 -80.5 24t-26.5 55q0 19 9.5 36t23 30.5t29.5 24t28 16.5h48v0z" />
    <glyph glyph-name="tilde" unicode="&#x2dc;" 
d="M250 568q-19 0 -38 6t-35 13q-17 7 -31.5 12.5t-26.5 5.5q-8 0 -16.5 -1.5t-15 -6.5t-10 -14.5t-0.5 -25.5l-59 17q5 47 34.5 75.5t71.5 28.5q20 0 39 -5t34 -12q18 -8 33 -14.5t26 -6.5q8 0 15.5 1.5t13.5 6.5t8.5 15.5t-0.5 28.5l58 -18q-5 -53 -32.5 -79.5
t-68.5 -26.5z" />
    <glyph glyph-name="hungarumlaut" unicode="&#x2dd;" 
d="M49 543l47 172l99 -21q-19 -45 -38 -83t-38 -81zM200 543l47 172l99 -21q-19 -45 -38.5 -83t-37.5 -81z" />
    <glyph glyph-name="Wgrave" unicode="&#x1e80;" horiz-adv-x="942" 
d="M546 722q-44 23 -92.5 49t-95.5 49l59 79q31 -23 77 -55.5t92 -66.5zM468 446q-4 -15 -14 -46t-22 -71.5t-26 -86.5t-27.5 -91t-25 -84.5t-18.5 -66.5h-113l-109 378q-3 10 -9.5 34.5t-15 55t-18 64.5t-18 64.5t-15.5 54t-10 33.5h169q17 -72 31 -128t28 -110
q13 -53 28.5 -111t35.5 -134h2q6 20 16 52.5t21 70t22.5 77.5t21.5 75.5t17.5 63t10.5 41.5q-2 6 -6.5 20.5t-9.5 30t-9.5 30t-6.5 22.5h167q14 -66 29 -119t30 -107q15 -57 33 -119.5t39 -137.5h2q19 62 36 125t33 120q19 67 34 126.5t27 111.5h93q-3 -8 -9 -29.5
t-14.5 -49.5t-18 -59.5t-18 -60t-16 -51t-10.5 -32.5q-4 -14 -14 -46t-22 -73t-26 -86.5t-26 -86t-21.5 -70.5t-12.5 -40h-110q-43 141 -75 252t-58 194h-2z" />
    <glyph glyph-name="wgrave" unicode="&#x1e81;" horiz-adv-x="748" 
d="M374 292q-26 -64 -53.5 -137t-55.5 -155h-99q-42 133 -77 251t-72 230h161q5 -23 15.5 -64.5t22.5 -87.5t23.5 -89.5t18.5 -69.5h1q33 85 57.5 160.5t51.5 150.5h77q14 -42 26 -78.5t24.5 -72.5t25.5 -75t30 -85h2q16 52 29 93.5t24 77.5t20.5 69.5t18.5 70.5h86
q-18 -54 -36 -108.5t-37 -113t-40 -122.5t-45 -137h-103q-15 45 -27.5 83.5t-24 73l-22.5 67.5t-22 68zM382 530q-19 40 -38.5 79t-39.5 85l97 21q9 -34 21 -77.5t25 -94.5z" />
    <glyph glyph-name="Wacute" unicode="&#x1e82;" horiz-adv-x="942" 
d="M362 781q45 34 91.5 66.5t78.5 55.5l58 -80q-47 -23 -95.5 -48.5t-91.5 -48.5zM468 446q-4 -15 -14 -46t-22 -71.5t-26 -86.5t-27.5 -91t-25 -84.5t-18.5 -66.5h-113l-109 378q-3 10 -9.5 34.5t-15 55t-18 64.5t-18 64.5t-15.5 54t-10 33.5h169q17 -72 31 -128t28 -110
q13 -53 28.5 -111t35.5 -134h2q6 20 16 52.5t21 70t22.5 77.5t21.5 75.5t17.5 63t10.5 41.5q-2 6 -6.5 20.5t-9.5 30t-9.5 30t-6.5 22.5h167q14 -66 29 -119t30 -107q15 -57 33 -119.5t39 -137.5h2q19 62 36 125t33 120q19 67 34 126.5t27 111.5h93q-3 -8 -9 -29.5
t-14.5 -49.5t-18 -59.5t-18 -60t-16 -51t-10.5 -32.5q-4 -14 -14 -46t-22 -73t-26 -86.5t-26 -86t-21.5 -70.5t-12.5 -40h-110q-43 141 -75 252t-58 194h-2z" />
    <glyph glyph-name="wacute" unicode="&#x1e83;" horiz-adv-x="748" 
d="M320 543l46 172l98 -21q-20 -46 -40 -85t-38 -79zM374 292q-26 -64 -53.5 -137t-55.5 -155h-99q-42 133 -77 251t-72 230h161q5 -23 15.5 -64.5t22.5 -87.5t23.5 -89.5t18.5 -69.5h1q33 85 57.5 160.5t51.5 150.5h77q14 -42 26 -78.5t24.5 -72.5t25.5 -75t30 -85h2
q16 52 29 93.5t24 77.5t20.5 69.5t18.5 70.5h86q-18 -54 -36 -108.5t-37 -113t-40 -122.5t-45 -137h-103q-15 45 -27.5 83.5t-24 73l-22.5 67.5t-22 68z" />
    <glyph glyph-name="Wdieresis" unicode="&#x1e84;" horiz-adv-x="942" 
d="M300 787q0 23 17.5 40.5t41.5 17.5q23 0 41.5 -17.5t18.5 -40.5q0 -25 -18.5 -42t-41.5 -17q-24 0 -41.5 17t-17.5 42zM511 787q0 23 17.5 40.5t40.5 17.5q24 0 42 -17.5t18 -40.5q0 -25 -18 -42t-42 -17q-23 0 -40.5 17t-17.5 42zM468 446q-4 -15 -14 -46t-22 -71.5
t-26 -86.5t-27.5 -91t-25 -84.5t-18.5 -66.5h-113l-109 378q-3 10 -9.5 34.5t-15 55t-18 64.5t-18 64.5t-15.5 54t-10 33.5h169q17 -72 31 -128t28 -110q13 -53 28.5 -111t35.5 -134h2q6 20 16 52.5t21 70t22.5 77.5t21.5 75.5t17.5 63t10.5 41.5q-2 6 -6.5 20.5t-9.5 30
t-9.5 30t-6.5 22.5h167q14 -66 29 -119t30 -107q15 -57 33 -119.5t39 -137.5h2q19 62 36 125t33 120q19 67 34 126.5t27 111.5h93q-3 -8 -9 -29.5t-14.5 -49.5t-18 -59.5t-18 -60t-16 -51t-10.5 -32.5q-4 -14 -14 -46t-22 -73t-26 -86.5t-26 -86t-21.5 -70.5t-12.5 -40h-110
q-43 141 -75 252t-58 194h-2z" />
    <glyph glyph-name="wdieresis" unicode="&#x1e85;" horiz-adv-x="748" 
d="M240 621q0 23 17.5 41t41.5 18q23 0 41.5 -18t18.5 -41q0 -24 -18.5 -41.5t-41.5 -17.5q-24 0 -41.5 17.5t-17.5 41.5zM432 621q0 23 18 41t41 18q24 0 42 -18t18 -41q0 -24 -18 -41.5t-42 -17.5q-23 0 -41 17.5t-18 41.5zM374 292q-26 -64 -53.5 -137t-55.5 -155h-99
q-42 133 -77 251t-72 230h161q5 -23 15.5 -64.5t22.5 -87.5t23.5 -89.5t18.5 -69.5h1q33 85 57.5 160.5t51.5 150.5h77q14 -42 26 -78.5t24.5 -72.5t25.5 -75t30 -85h2q16 52 29 93.5t24 77.5t20.5 69.5t18.5 70.5h86q-18 -54 -36 -108.5t-37 -113t-40 -122.5t-45 -137h-103
q-15 45 -27.5 83.5t-24 73l-22.5 67.5t-22 68z" />
    <glyph glyph-name="Ygrave" unicode="&#x1ef2;" horiz-adv-x="612" 
d="M225 0l3 286q-28 54 -53 100t-50 91.5t-52 95.5t-60 111h175q24 -50 44 -90t39.5 -76t38.5 -70.5t40 -73.5q23 42 45.5 84.5t42.5 82.5t38 76.5t33 66.5h93q-8 -12 -25 -43t-38.5 -70.5t-45 -84t-45 -84.5t-38.5 -71t-25 -44q0 -65 0.5 -132.5t2.5 -154.5h-163zM408 725
q-43 23 -92 48.5t-95 48.5l59 80q31 -23 77 -55.5t92 -66.5z" />
    <glyph glyph-name="ygrave" unicode="&#x1ef3;" horiz-adv-x="514" 
d="M295 164q22 56 38.5 97.5t29.5 77.5t25 69.5t25 72.5h91q-35 -83 -73 -173.5t-76 -179.5t-74 -172t-66 -151h-90q14 26 28 53.5t26.5 52.5t21.5 44.5t14 29.5q-48 122 -101 244t-102 252h166q15 -45 28 -83t26.5 -74t28 -74.5t32.5 -85.5h2zM271 530q-18 40 -38 79
t-40 85l98 21l46 -172z" />
    <glyph glyph-name="uni2009" unicode="&#x2009;" horiz-adv-x="115" 
 />
    <glyph glyph-name="endash" unicode="&#x2013;" horiz-adv-x="525" 
d="M63 310h400v-62h-400v62z" />
    <glyph glyph-name="emdash" unicode="&#x2014;" horiz-adv-x="713" 
d="M63 310h587v-62h-587v62z" />
    <glyph glyph-name="quoteleft" unicode="&#x2018;" horiz-adv-x="242" 
d="M85 426q-13 14 -23 40t-10 57q0 56 34.5 101t100.5 83l26 -39q-33 -26 -49 -50t-16 -62q0 -29 12.5 -54t29.5 -46z" />
    <glyph glyph-name="quoteright" unicode="&#x2019;" horiz-adv-x="242" 
d="M157 705q13 -14 23 -40t10 -58q0 -56 -34.5 -101t-100.5 -83l-26 40q34 25 49.5 49t15.5 63q0 29 -12 54t-29 45z" />
    <glyph glyph-name="quotesinglbase" unicode="&#x201a;" horiz-adv-x="242" 
d="M157 117q13 -14 23 -40t10 -58q0 -56 -34.5 -101t-100.5 -83l-26 39q34 26 49.5 50.5t15.5 62.5q0 29 -12 53.5t-29 45.5z" />
    <glyph glyph-name="quotedblleft" unicode="&#x201c;" horiz-adv-x="413" 
d="M85 426q-13 14 -23 40t-10 57q0 56 34.5 101t100.5 83l26 -39q-33 -26 -49 -50t-16 -62q0 -29 12.5 -54t29.5 -46zM256 426q-13 14 -23 40t-10 57q0 56 34.5 101t100.5 83l26 -39q-33 -26 -49 -50t-16 -62q0 -29 12.5 -54t29.5 -46z" />
    <glyph glyph-name="quotedblright" unicode="&#x201d;" horiz-adv-x="413" 
d="M157 705q13 -14 23 -40t10 -58q0 -56 -34.5 -101t-100.5 -83l-26 40q34 25 49.5 49t15.5 63q0 29 -12 54t-29 45zM328 705q13 -14 23.5 -40t10.5 -58q0 -56 -35 -101t-101 -83l-25 40q33 25 48.5 49t15.5 63q0 29 -12 54t-29 45z" />
    <glyph glyph-name="quotedblbase" unicode="&#x201e;" horiz-adv-x="413" 
d="M157 116q13 -14 23 -40t10 -57q0 -56 -34.5 -101t-100.5 -83l-26 39q34 26 49.5 50t15.5 62q0 29 -12 54t-29 46zM328 116q13 -14 23.5 -40t10.5 -57q0 -56 -35 -101t-101 -83l-25 39q33 26 48.5 50t15.5 62q0 29 -12 54t-29 46z" />
    <glyph glyph-name="dagger" unicode="&#x2020;" horiz-adv-x="543" 
d="M506 447q-38 0 -64 0.5t-46 1t-37 1t-36 0.5v-80.5v-102t0.5 -112.5t0.5 -112t0.5 -100t1.5 -76h-109q0 30 0.5 76t1 99.5t0.5 111t0.5 112.5t0.5 102.5v81.5h-36.5t-36 -0.5t-45.5 -1t-65 -1.5v84q40 -1 66 -1.5t45.5 -1t35.5 -0.5h36v39t-0.5 37t-1 47t-1.5 69h109
q-1 -44 -1.5 -70.5t-1 -45.5t-0.5 -35.5v-40.5h36t37.5 0.5t46.5 1t63 1.5v-84z" />
    <glyph glyph-name="daggerdbl" unicode="&#x2021;" horiz-adv-x="543" 
d="M219 450h-36.5t-36 -0.5t-45.5 -1t-64 -1.5v84q40 -1 66 -1.5t45 -1t35 -0.5h36q0 10 -0.5 38t-0.5 59.5t-0.5 58.5t-0.5 36h109q0 -18 -0.5 -36t-0.5 -40t-0.5 -50.5t-0.5 -65.5h35.5t37 0.5t46.5 1t63 1.5v-84q-38 0 -64 0.5t-45.5 1t-36.5 1t-36 0.5q0 -15 -0.5 -53
t-0.5 -84v-92.5v-79.5h35.5t36.5 0.5t46.5 1t64.5 1.5v-84q-40 0 -66 0.5t-45.5 1t-35.5 1t-35 0.5q0 -24 0.5 -54.5t0.5 -58.5t0.5 -51t0.5 -32h-109q0 15 0.5 40t0.5 52.5t0.5 55t0.5 48.5h-36.5t-36.5 -0.5t-46 -1t-63 -1.5v84q39 -1 65 -1.5t45.5 -1t35.5 -0.5h36v309v0
z" />
    <glyph glyph-name="bullet" unicode="&#x2022;" horiz-adv-x="316" 
d="M52 318q0 22 8.5 41.5t23 33.5t33.5 22.5t41 8.5q45 0 75.5 -30.5t30.5 -75.5t-30.5 -75t-75.5 -30q-22 0 -41 8t-33.5 22.5t-23 33.5t-8.5 41z" />
    <glyph glyph-name="ellipsis" unicode="&#x2026;" horiz-adv-x="996" 
d="M88 69q0 31 22.5 54t54.5 23q15 0 28.5 -6.5t24 -17t17 -24.5t6.5 -29q0 -30 -23 -52.5t-53 -22.5q-32 0 -54.5 22.5t-22.5 52.5zM421 69q0 31 22.5 54t54.5 23q15 0 28.5 -6.5t24 -17t17 -24.5t6.5 -29q0 -30 -23 -52.5t-53 -22.5q-32 0 -54.5 22.5t-22.5 52.5zM754 69
q0 31 23 54t54 23q15 0 29 -6.5t24.5 -17t17 -24.5t6.5 -29t-6.5 -28.5t-17 -24t-24.5 -16.5t-29 -6q-31 0 -54 22.5t-23 52.5z" />
    <glyph glyph-name="perthousand" unicode="&#x2030;" horiz-adv-x="1259" 
d="M41 501q0 45 12.5 81t34.5 61.5t52 39.5t65 14t65.5 -13.5t53 -38.5t35.5 -59t13 -74q0 -47 -12.5 -83t-34 -61.5t-51.5 -38.5t-65 -13q-36 0 -67 13.5t-53.5 38.5t-35 58.5t-12.5 74.5zM141 508q0 -76 15 -114.5t53 -38.5t50.5 39t12.5 111q0 76 -13.5 114.5t-53.5 38.5
q-37 0 -50.5 -39t-13.5 -111zM708 681q-29 -42 -63.5 -92t-68 -100t-64 -95t-50.5 -75t-50.5 -73.5t-64 -92.5l-67 -98t-59.5 -91l-55 39q29 41 63 89t67 95.5t62.5 90t49.5 72.5q21 30 51.5 75.5t64.5 96.5l68 102t60 93zM833 179q0 -45 -12.5 -81t-34.5 -61.5t-52 -39.5
t-65 -14t-65.5 14t-53 38.5t-35.5 58.5t-13 75q0 46 12.5 82.5t34 62t51.5 38.5t65 13q36 0 66.5 -13.5t53 -38.5t35.5 -59t13 -75zM733 173q0 76 -15 114.5t-53 38.5t-50.5 -39t-12.5 -111q0 -76 13.5 -114.5t53.5 -38.5q37 0 50.5 39t13.5 111zM1217 179q0 -45 -12.5 -81
t-34.5 -61.5t-52 -39.5t-65 -14t-65 14t-52.5 38.5t-35.5 58.5t-13 75q0 46 12.5 82.5t34 62t51.5 38.5t65 13q36 0 66.5 -13.5t53 -38.5t35 -59t12.5 -75zM1118 173q0 76 -15.5 114.5t-52.5 38.5q-39 0 -51.5 -39t-12.5 -111q0 -76 14 -114.5t53 -38.5q37 0 51 39t14 111z
" />
    <glyph glyph-name="guilsinglleft" unicode="&#x2039;" horiz-adv-x="300" 
d="M34 273q25 22 47 41t44 39t45.5 41.5t50.5 48.5l37 -28q-15 -20 -28.5 -37t-26 -34.5t-26.5 -36.5t-31 -42v-5l112 -150l-37 -34q-54 54 -99.5 95.5t-87.5 79.5v22z" />
    <glyph glyph-name="guilsinglright" unicode="&#x203a;" horiz-adv-x="300" 
d="M265 251q-41 -38 -86.5 -79.5t-100.5 -95.5l-37 34l113 150v5q-17 23 -31 42t-27 36.5t-26 34.5t-29 37l37 28q27 -27 50.5 -48.5t46 -41.5t44.5 -39t46 -41v-22z" />
    <glyph glyph-name="fraction" unicode="&#x2044;" horiz-adv-x="212" 
d="M-155 -22q25 43 56.5 95.5t62.5 105t58.5 99.5t46.5 79q18 31 45.5 78t58 99t60.5 104.5t53 96.5l66 -39q-26 -43 -57.5 -95l-63 -104t-59.5 -98.5t-46 -77.5q-19 -32 -46 -79.5t-57 -100t-59.5 -106t-52.5 -96.5z" />
    <glyph glyph-name="Euro" unicode="&#x20ac;" horiz-adv-x="595" 
d="M363 226h-46.5t-66.5 1q15 -88 49.5 -123t88.5 -35q28 0 48.5 5.5t36.5 17t30 28.5t28 40l53 -40q-14 -23 -31.5 -46t-44 -42t-63.5 -31t-89 -12q-107 0 -174 64t-90 173h-75v69q13 -1 25 -1h41q-1 9 -1 18v18v23.5t1 22.5q-21 -1 -38 -1h-28v69q13 0 33 -0.5t43 -0.5
q14 60 41 107.5t64.5 79.5t82.5 49t95 17q35 0 62.5 -3t50 -8.5t41.5 -13t37 -17.5l-64 -98q-12 19 -23.5 33.5t-26 24t-32.5 14t-43 4.5q-54 0 -87 -46t-44 -143h52.5t54.5 0.5t46 0.5h28l-9 -69h-28t-44 0.5t-52 0.5h-52q-1 -3 -1 -15v-16v-27t2 -25q37 1 75 1.5t54 0.5z
" />
    <glyph glyph-name="trademark" unicode="&#x2122;" horiz-adv-x="736" 
d="M603 519v25v22.5t-0.5 24.5t-0.5 30h-2q-11 -34 -19.5 -61.5t-17 -56t-18 -61.5t-23.5 -77h-47q-15 42 -25 73.5t-19 60t-17.5 57.5t-20.5 65h-2v-117q0 -32 0.5 -70t1.5 -80h-50q1 49 1.5 91.5t0.5 77.5v80t-1 80h117q8 -28 15 -49.5t13.5 -42.5t14.5 -44t18 -54
q8 29 15 52.5t13 45t12.5 43.5t14.5 49h115q-1 -17 -1.5 -38t-0.5 -43.5v-44v-38.5v-76t1 -89h-89q1 49 1 89.5v75.5zM312 639q-7 0 -38.5 1.5t-67.5 1.5v-123v-76t1 -89h-84q2 49 2 89.5v75.5v123q-39 0 -69 -1.5t-38 -1.5v44h293z" />
    <glyph glyph-name="onethird" unicode="&#x2153;" horiz-adv-x="938" 
d="M877 132q0 -33 -14 -58.5t-39.5 -43.5t-61 -27.5t-78.5 -9.5q-86 0 -141 37l33 61q14 -21 41 -35.5t53 -15.5q50 0 67 24t17 70q0 41 -19 57.5t-58 16.5q-12 0 -22.5 -3t-24.5 -8l-12 39q51 18 82 40.5t31 66.5q0 60 -60 60q-26 0 -48.5 -12.5t-36.5 -32.5l-28 56
q27 19 64.5 28.5t75.5 9.5q72 0 110 -28t38 -71q0 -21 -11 -38t-28.5 -30t-39 -22.5t-42.5 -14.5q78 -5 115 -37t37 -79zM163 -22q25 43 56.5 95.5t62.5 105t59 99.5t46 79q18 31 45.5 78t58 99t60.5 104.5t53 96.5l67 -39q-26 -43 -57.5 -95t-63.5 -104t-60 -98.5
t-46 -77.5q-18 -32 -45.5 -79.5t-57.5 -100t-59.5 -106t-52.5 -96.5zM109 611q-6 -1 -20 -3t-29.5 -4t-29 -4t-18.5 -2v48q9 2 40 9t66.5 15.5t65.5 16t37 9.5l10 -11q-1 -18 -1.5 -47t-1 -60.5t-0.5 -61.5v-49v-55t0.5 -60.5t1.5 -58.5t2 -49h-123v367z" />
    <glyph glyph-name="twothirds" unicode="&#x2154;" horiz-adv-x="938" 
d="M236 -22q26 43 57.5 95.5t62.5 105t58.5 99.5t46.5 79q18 31 45.5 78t58 99t60.5 104.5t53 96.5l67 -39q-26 -43 -58 -95t-63.5 -104t-59 -98.5t-45.5 -77.5q-19 -32 -46 -79.5t-57 -100t-59.5 -106t-52.5 -96.5zM923 132q0 -33 -14 -58.5t-39.5 -43.5t-61 -27.5
t-78.5 -9.5q-86 0 -141 37l33 61q14 -21 41 -35.5t53 -15.5q50 0 67 24t17 70q0 41 -19 57.5t-58 16.5q-12 0 -22.5 -3t-24.5 -8l-12 39q51 18 82 40.5t31 66.5q0 60 -60 60q-26 0 -47 -12.5t-35 -32.5l-28 57q28 19 63.5 28t73.5 9q72 0 110 -28t38 -71q0 -21 -11 -38
t-28.5 -30t-39 -22.5t-42.5 -14.5q78 -5 115 -37t37 -79zM154 648q-32 0 -56.5 -15t-44.5 -41l-27 67q24 15 58.5 26t84.5 11q83 0 130 -31t47 -97q0 -42 -20 -79t-64 -78q-23 -20 -53.5 -45.5t-53.5 -39.5q24 0 56 1t62.5 1.5t55 1.5t34.5 1q-2 -7 -5 -21l-6 -28
q-4 -17 -8 -37h-308l-2 50q79 61 130 115q37 42 50.5 79t13.5 74q0 50 -19.5 67.5t-54.5 17.5z" />
    <glyph glyph-name="oneeighth" unicode="&#x215b;" horiz-adv-x="938" 
d="M715 452q67 0 106 -27t39 -73q0 -33 -21 -53t-56 -36q45 -22 71 -51t26 -74q0 -28 -10 -54t-31 -46.5t-54 -32.5t-79 -12q-76 0 -119.5 28.5t-43.5 73.5q0 20 7.5 35.5t20 27.5t28.5 21.5t33 17.5q-42 26 -58 55t-16 68q0 28 12 52t33 42t50 28t62 10zM175 -22
q25 43 56.5 95.5t62.5 105t59 99.5t46 79q18 31 45.5 78t58 99t60.5 104.5t53 96.5l67 -39q-26 -43 -57.5 -95t-63.5 -104t-60 -98.5t-46 -77.5q-18 -32 -45.5 -79.5t-57.5 -100t-59.5 -106t-52.5 -96.5zM138 611q-6 -1 -20.5 -3t-29.5 -4t-28.5 -4t-18.5 -2v48q6 1 22.5 5
t38.5 9t46 10.5t45 11t36.5 9t19.5 5.5l10 -11q0 -18 -0.5 -47t-1 -60.5t-0.5 -61.5v-49v-55t0.5 -60.5t1 -58.5t1.5 -49h-123q0 21 0.5 49t0.5 58.5v60.5v55v144zM780 91q0 17 -7 27.5t-21 19.5t-35.5 18t-50.5 22q-23 -14 -33.5 -29.5t-10.5 -41.5q0 -35 23 -52t56 -17
q79 0 79 53zM647 358q0 -13 5.5 -23t17.5 -19t31 -17.5t47 -19.5q17 12 27.5 28.5t10.5 42.5t-15.5 42t-57.5 16q-30 0 -48 -14t-18 -36z" />
    <glyph glyph-name="threeeighths" unicode="&#x215c;" horiz-adv-x="938" 
d="M197 -22q25 43 56.5 95.5t62.5 105t59 99.5t46 79q18 31 45.5 78t58 99t60.5 104.5t53 96.5l67 -39q-26 -43 -57.5 -95t-63.5 -104t-60 -98.5t-46 -77.5q-18 -32 -45.5 -79.5t-57.5 -100t-59.5 -106t-52.5 -96.5zM727 452q67 0 106 -27t39 -73q0 -33 -21 -53t-56 -36
q44 -22 70.5 -51t26.5 -74q0 -28 -10 -54t-31 -46.5t-54 -32.5t-79 -12q-76 0 -119.5 28.5t-43.5 73.5q0 20 7.5 35.5t19.5 27.5t28 21.5t34 17.5q-42 26 -58.5 55t-16.5 68q0 28 12 52t33.5 42t50.5 28t62 10zM792 91q0 17 -7 27.5t-21.5 19.5t-36 18t-50.5 22
q-23 -14 -33 -29.5t-10 -41.5q0 -35 23 -52t56 -17q79 0 79 53zM659 358q0 -13 5 -23t17 -19t31 -17.5t47 -19.5q17 12 28 28.5t11 42.5t-16 42t-57 16q-31 0 -48.5 -14t-17.5 -36zM341 376q0 -33 -14 -59t-39.5 -44t-61 -27.5t-78.5 -9.5q-45 0 -79.5 10t-61.5 28l33 61
q15 -22 41.5 -36t52.5 -15q50 -1 67.5 23t17.5 71q0 40 -19.5 56.5t-57.5 16.5q-12 0 -23 -2.5t-24 -7.5l-12 39q51 18 82 40.5t31 66.5q0 60 -61 60q-26 0 -48 -13t-36 -33l-28 57q27 19 64.5 28t75.5 9q72 0 110 -28t38 -70q0 -21 -11 -38t-28.5 -30t-39 -22.5
t-42.5 -14.5q78 -5 114.5 -37.5t36.5 -78.5z" />
    <glyph glyph-name="fiveeighths" unicode="&#x215d;" horiz-adv-x="938" 
d="M721 452q68 0 107 -27t39 -73q0 -33 -21.5 -53t-56.5 -36q44 -22 71 -51t27 -74q0 -28 -10 -54t-31.5 -46.5t-54.5 -32.5t-79 -12q-75 0 -119 28.5t-44 73.5q0 20 7.5 35.5t20 27.5t28.5 21.5t33 17.5q-42 26 -58 55t-16 68q0 28 12 52t33 42t50 28t62 10zM133 548
q35 -5 71.5 -17t66.5 -32t49 -48.5t19 -67.5q0 -30 -11.5 -56.5t-34 -47t-55 -32t-75.5 -11.5q-48 0 -84 10t-59 25l28 69q18 -22 46 -38.5t60 -16.5q44 0 64 17t20 49q0 24 -13.5 42t-37.5 31.5t-55.5 23.5t-67.5 17l34 222h231l-10 -89q-11 0 -33 1t-47.5 1.5t-51.5 1
t-45 0.5zM196 -22q25 43 56.5 95.5t62.5 105t59 99.5t46 79q18 31 45.5 78t58 99t61 104.5t53.5 96.5l66 -39q-26 -43 -57.5 -95t-63.5 -104t-60 -98.5t-46 -77.5q-18 -32 -45.5 -79.5t-57.5 -100t-59.5 -106t-52.5 -96.5zM787 91q0 17 -7 27.5t-21.5 19.5t-36 18t-50.5 22
q-23 -14 -33.5 -29.5t-10.5 -41.5q0 -35 23 -52t56 -17q38 0 59 12.5t21 40.5zM653 358q0 -13 5.5 -23t17.5 -19t31 -17.5t46 -19.5q17 12 28 28.5t11 42.5t-15.5 42t-57.5 16q-30 0 -48 -14t-18 -36z" />
    <glyph glyph-name="seveneighths" unicode="&#x215e;" horiz-adv-x="938" 
d="M195 -22q25 43 56.5 95.5t62.5 105t59 99.5t47 79q18 31 45 78t57.5 99t61 104.5t53.5 96.5l66 -39q-26 -43 -57.5 -95l-63 -104t-59.5 -98.5t-46 -77.5q-19 -32 -46.5 -79.5t-57.5 -100t-59.5 -106t-52.5 -96.5zM746 452q67 0 106 -27t39 -73q0 -33 -21 -53t-56 -36
q45 -22 71.5 -51t26.5 -74q0 -28 -10 -54t-31.5 -46.5t-54.5 -32.5t-79 -12q-75 0 -119 28.5t-44 73.5q0 20 7.5 35.5t19.5 27.5t28 21.5t34 17.5q-42 26 -58 55t-16 68q0 28 12 52t33 42t50 28t62 10zM811 91q0 17 -7 27.5t-21.5 19.5t-36 18t-50.5 22q-23 -14 -33 -29.5
t-10 -41.5q0 -35 23 -52t56 -17q79 0 79 53zM678 358q0 -13 5.5 -23t17.5 -19t31 -17.5t46 -19.5q17 12 28 28.5t11 42.5t-15.5 42t-57.5 16q-30 0 -48 -14t-18 -36zM132 244q36 63 63.5 110t50.5 87t43.5 77.5t42.5 80.5q-21 0 -57 -0.5t-72.5 -1t-67.5 -0.5h-41
q2 13 3.5 28.5t3.5 29.5l4 32h312l5 -18q-24 -53 -44 -96.5t-41.5 -90.5t-48.5 -103t-64 -135h-92z" />
    <glyph glyph-name="minus" unicode="&#x2212;" horiz-adv-x="584" 
d="M520 239h-456v65h456v-65z" />
    <glyph glyph-name="radical" unicode="&#x221a;" horiz-adv-x="766" 
 />
    <glyph glyph-name="notequal" unicode="&#x2260;" horiz-adv-x="584" 
d="M408 498l-37 -105h149v-65h-173l-42 -114h215v-64h-238l-47 -131l-60 22l38 109h-149v64h173l42 114h-215v65h238l47 127z" />
    <glyph glyph-name="lessequal" unicode="&#x2264;" horiz-adv-x="555" 
d="M498 165l-439 176v48l439 184v-71l-335 -137l335 -129v-71zM498 139v-64h-440v64h440z" />
    <glyph glyph-name="greaterequal" unicode="&#x2265;" horiz-adv-x="556" 
d="M58 236l335 129l-335 137v71l439 -184v-48l-439 -176v71zM498 139v-64h-440v64h440z" />
    <glyph glyph-name="Pcircle" unicode="&#x24c5;" horiz-adv-x="897" 
d="M54 229q0 82 31 154.5t84 126.5t125 85t154 31t154 -31t125.5 -85t84.5 -126.5t31 -154.5t-31 -154t-84.5 -126t-125.5 -85t-154 -31t-154 31t-125 85t-84 126t-31 154zM285 -15q2 70 2.5 132.5t0.5 113.5t-0.5 107t-2.5 125h204q34 0 63.5 -10t52 -29t35.5 -45.5
t13 -60.5q0 -29 -10.5 -55.5t-33 -46.5t-57 -32t-82.5 -12h-62q0 -45 0.5 -88.5t1.5 -98.5h-125zM444 224q38 0 60.5 21.5t22.5 72.5q0 55 -22.5 74t-57.5 19q-11 0 -18.5 -0.5t-19.5 -0.5v-94q-1 -21 -1 -43.5v-48.5h36zM112 229q0 -71 26.5 -134.5t72.5 -111t108.5 -75
t134.5 -27.5q71 0 133.5 27.5t108.5 75t72.5 111t26.5 134.5q0 72 -26.5 135.5t-72.5 111t-108.5 75t-133.5 27.5q-72 0 -134.5 -27.5t-108.5 -75t-72.5 -111t-26.5 -135.5z" />
    <glyph glyph-name="DEL" horiz-adv-x="0" 
 />
    <glyph glyph-name="Oacute.pl" horiz-adv-x="747" 
d="M295 726l56 160h111q-20 -36 -41 -74t-47 -86h-79zM376 53q45 0 77.5 20t53 57.5t30.5 90t10 118.5q0 140 -43.5 215.5t-131.5 75.5q-47 0 -80 -21t-53.5 -58.5t-30 -90.5t-9.5 -116q0 -144 46 -217.5t131 -73.5zM372 696q70 0 132 -24.5t109 -69.5t74.5 -108.5
t27.5 -141.5q0 -86 -26.5 -153.5t-72 -114t-107.5 -71t-133 -24.5t-134 24t-109.5 68.5t-73.5 108t-27 141.5q0 86 26.5 153.5t73 114.5t108 72t132.5 25z" />
    <glyph glyph-name="space_uni0326" 
d="M220 -27q25 -30 25 -72q0 -20 -9.5 -37t-25.5 -30.5t-36 -23.5t-42 -16l-18 29q20 10 24.5 32.5t4.5 39.5q0 14 -6 27.5t-16 24.5z" />
    <glyph glyph-name="acute.pl" 
d="M126 537q3 11 11.5 35.5t18 51.5t18 49.5t10.5 30.5h109q-20 -36 -41 -77t-47 -90h-79z" />
    <glyph glyph-name="Cacute.pl" horiz-adv-x="664" 
d="M388 696q52 0 90 -7t66.5 -19t49.5 -27.5t39 -32.5l-77 -91q-17 24 -33.5 44.5t-36 35.5t-44 23.5t-57.5 8.5q-43 0 -77.5 -20t-58.5 -56.5t-36.5 -88.5t-12.5 -115q0 -134 56.5 -203t151.5 -69q64 0 106.5 28t76.5 71l49 -42q-17 -23 -39.5 -49t-54.5 -47.5t-74.5 -36
t-99.5 -14.5q-74 0 -136.5 24.5t-108 69.5t-71 108.5t-25.5 141.5q0 83 27.5 150t76 114.5t113.5 73t140 25.5zM319 722l56 160h111q-20 -36 -41 -73.5t-47 -86.5h-79z" />
    <glyph glyph-name="Nacute.pl" horiz-adv-x="708" 
d="M328 726l57 160h110q-20 -36 -40.5 -74t-46.5 -86h-80zM535 0q-41 54 -87.5 117t-96 129.5t-100.5 134t-99 129.5v-205v-70.5t0.5 -69t1 -76t1.5 -89.5h-90q3 101 4 193t1 187q0 64 -1 111t-3 82t-4 61.5t-4 49.5h165q43 -62 82 -115.5t79 -105.5t82 -105.5t92 -116.5
q1 40 1 79v68v69t-0.5 66t-1 72.5t-1.5 88.5h87q-2 -101 -2.5 -180.5t-0.5 -152.5v-162t1 -189h-106z" />
    <glyph glyph-name="Sacute.pl" horiz-adv-x="570" 
d="M257 -11q-77 0 -128.5 21.5t-86.5 48.5l45 106q32 -49 76 -79.5t115 -30.5q56 0 85.5 25.5t29.5 65.5q0 21 -6.5 38t-22 32t-42.5 30t-67 32q-47 19 -82 38.5t-58.5 43.5t-35.5 55t-12 74q0 48 17.5 86.5t49 65t74.5 41t94 14.5q66 0 114.5 -15.5t86.5 -40.5l-46 -90
q-26 38 -65 58.5t-96 20.5q-48 0 -73 -22.5t-25 -60.5q0 -17 5 -31.5t18 -28t35.5 -27t57.5 -28.5q56 -24 96.5 -45.5t66 -46.5t37.5 -56t12 -72q0 -45 -16 -85.5t-49 -70.5t-83.5 -48t-120.5 -18zM216 726l56 160h111q-20 -36 -41 -74t-47 -86h-79z" />
    <glyph glyph-name="cacute.pl" horiz-adv-x="486" 
d="M183 244q0 -90 36.5 -134t94.5 -44q45 0 71.5 17t46.5 43l39 -33q-27 -42 -74.5 -73t-120.5 -31q-51 0 -96 16t-78.5 47.5t-53 77t-19.5 104.5q0 61 22 109t59 81.5t85.5 51t102.5 17.5q57 0 96 -10.5t71 -34.5l-43 -80q-41 67 -108 67q-59 0 -95 -48t-36 -143zM211 537
q3 11 11.5 35.5t18 51.5t18 49.5t10.5 30.5h108q-20 -36 -40.5 -77t-46.5 -90h-79z" />
    <glyph glyph-name="idotaccent" horiz-adv-x="266" 
d="M61 247v69v55.5t-0.5 48t-1.5 46.5l152 20q0 -29 -0.5 -55t-1 -54.5t-1 -62t-0.5 -78.5q0 -39 0.5 -68.5t1 -56l1 -53t0.5 -58.5h-152q0 32 0.5 60.5l1 57t0.5 59.5v70zM53 639q0 32 22 54.5t57 22.5t58 -22.5t23 -54.5t-23 -54t-58 -22t-57 22t-22 54z" />
    <glyph glyph-name="nacute.pl" horiz-adv-x="566" 
d="M214 537q3 11 12 35.5t18.5 51.5t17.5 49.5t10 30.5h109q-20 -36 -41 -77t-47 -90h-79zM54 247q0 39 -0.5 68.5t-0.5 54t-0.5 47t-0.5 47.5l149 19v-10.5t-0.5 -16t-0.5 -16v-9.5q11 9 24.5 17.5t26.5 16.5q24 12 53 20t55 8q84 0 120.5 -40t36.5 -125v-23.5t-0.5 -35
t-0.5 -35.5v-26q0 -39 0.5 -67t1 -51.5t1 -44.5t0.5 -45h-153q0 32 0.5 56t1 46t0.5 45v55v32t-0.5 36t-0.5 34v27q0 36 -17.5 56.5t-62.5 20.5q-20 0 -43 -8t-40 -22q-1 -31 -1 -69.5v-84.5v-67.5t0.5 -53.5t1 -49t0.5 -54h-152q0 32 0.5 60.5l1 57t0.5 59.5v70z" />
    <glyph glyph-name="oacute.pl" horiz-adv-x="571" 
d="M286 47q28 0 47.5 14.5t32 40.5t18.5 62.5t6 80.5q0 100 -28 145t-76 45q-29 0 -49 -14.5t-32.5 -40.5t-18 -62.5t-5.5 -80.5q0 -100 29 -145t76 -45zM286 493q46 0 92 -14t83 -44.5t60 -78t23 -113.5q0 -61 -20 -108t-54.5 -79.5t-82 -49.5t-101.5 -17q-49 0 -95.5 15
t-82.5 46t-58 78t-22 111q0 61 21 108t57 79.5t82.5 49.5t97.5 17zM218 537q3 11 11.5 35.5t18 51.5t18 49.5t10.5 30.5h109q-20 -36 -41 -77t-47 -90h-79z" />
    <glyph glyph-name="sacute.pl" horiz-adv-x="434" 
d="M206 -11q-56 0 -101.5 13t-77.5 36l42 86q25 -36 58 -56t84 -20q41 0 59 15t18 35q0 12 -4.5 21.5t-15.5 18t-30 17.5t-47 21q-69 26 -105.5 60t-36.5 99q0 73 48 115.5t139 42.5q48 0 85 -11t73 -31l-45 -79q-20 29 -49.5 46t-74.5 17q-70 0 -70 -49q0 -23 21 -37
t67 -31q39 -15 69 -30t50 -33.5t30.5 -42.5t10.5 -57t-12 -63.5t-36.5 -53t-61.5 -36t-87 -13.5zM165 537q3 11 11.5 35.5t18 51.5t18 49.5t10.5 30.5h108q-20 -36 -40.5 -77t-46.5 -90h-79z" />
    <glyph glyph-name="dollar.old" horiz-adv-x="512" 
d="M225 -101v17.5t0.5 28.5t0.5 28v18q-28 1 -55.5 6.5t-52.5 14t-45.5 19t-33.5 21.5l40 89q26 -38 63 -62.5t85 -28.5q1 51 1 100.5v91.5q-40 17 -71.5 35t-53 40t-32.5 50t-11 64q0 38 12.5 69.5t35.5 55t55 38t71 17.5q-1 23 -1 41v28h58q0 -3 -0.5 -13t-0.5 -21v-21.5
v-13.5q53 -3 91 -15.5t69 -31.5l-42 -75q-26 26 -53.5 42t-65.5 21v-38.5t-0.5 -55t-0.5 -53.5v-35q48 -20 82.5 -39t57.5 -40.5t34 -48.5t11 -64q0 -34 -11.5 -65t-34.5 -56.5t-58.5 -42.5t-83.5 -22l1 -93h-61zM366 132q0 31 -20 48.5t-63 37.5v-33t0.5 -49.5t0.5 -50
v-34.5q82 12 82 81zM155 476q0 -28 19 -45.5t61 -36.5q0 37 -0.5 76.5t-0.5 82.5q-35 -4 -57 -23.5t-22 -53.5z" />
    <glyph glyph-name="Euro.old" horiz-adv-x="565" 
d="M361 206h-48t-66 1q7 -44 21 -71.5t32 -44t39 -22.5t43 -6q37 0 69 19.5t52 67.5l56 -31q-13 -28 -29.5 -52t-40.5 -41t-58 -27t-81 -10q-53 0 -95.5 16.5t-74.5 45.5t-53.5 68.5t-31.5 86.5h-69v65q13 -1 24 -1h36q-1 9 -1 17v16v25t1 24q-18 -1 -33.5 -1h-26.5v66h30.5
t39.5 -1q13 57 38.5 99t60.5 69.5t79 41.5t94 14q37 0 64.5 -4.5t48.5 -12t37 -17.5t29 -20l-62 -83q-20 36 -48.5 57t-66.5 21q-57 0 -86 -42.5t-39 -122.5h51.5t52 0.5t44 0.5h27.5l-10 -66h-27.5t-42 0.5t-50 0.5h-50.5q0 -2 -0.5 -7.5t-0.5 -12v-12.5v-8v-9t0.5 -12.5
t0.5 -12.5v-8h39t37.5 0.5t31.5 0.5h22z" />
    <glyph glyph-name="sterling.old" horiz-adv-x="504" 
d="M27 0l-6 23q20 27 33 51.5t20.5 48.5t10.5 48.5t3 53.5v139q0 77 21.5 129.5t57.5 85t83 47t98 14.5t85 -8t60 -20l-32 -90q-19 26 -45 41t-70 15q-55 0 -81.5 -39t-26.5 -120v-62h34t55 1q33 1 74 2l-10 -67h-63q-26 0 -52 0.5t-40 0.5q-1 -29 -5.5 -60.5t-13.5 -62
t-23.5 -58t-33.5 -48.5q45 1 91.5 2t89 2t79 2.5t62.5 2.5l-6 -74h-449z" />
    <glyph glyph-name="yen.old" horiz-adv-x="569" 
d="M519 170q-33 0 -57 0.5t-43.5 1t-35 1t-31.5 0.5q0 -37 0.5 -81t2.5 -92h-141l1 173q-7 0 -27.5 -0.5t-45.5 -1t-49.5 -1t-40.5 -0.5v60q34 0 58.5 -0.5t42.5 -1t33 -1t30 -0.5l1 48q-1 1 -3 5.5t-4 10t-4 9.5t-3 5h-26.5h-31t-40 -0.5t-53.5 -1.5v63q42 -2 69.5 -2.5
t46.5 -0.5q-16 34 -30 63.5t-29.5 60.5t-32.5 66t-39 81h158q19 -44 35 -79t31 -66.5t29 -62t29 -64.5h6l124 272h84l-136 -271q5 0 20 0.5t34 1t37.5 1t30.5 0.5v-63q-31 0 -54 0.5t-41 1t-32.5 0.5h-29.5l-10 -29v-49h32t35 0.5t43.5 1t56.5 1.5v-60z" />
    <glyph glyph-name="zero.old" horiz-adv-x="582" 
d="M292 47q61 0 87 52.5t26 145.5q0 52 -8 88.5t-22.5 59t-35.5 32.5t-47 10q-64 0 -89 -53t-25 -145q0 -104 31 -147t83 -43zM292 493q46 0 93 -14t85.5 -44.5t63 -78t24.5 -113.5q0 -61 -21.5 -108t-57.5 -79.5t-84.5 -49.5t-102.5 -17q-49 0 -97 15t-86 46t-61.5 78
t-23.5 111q0 61 22 108t59 79.5t85.5 49.5t101.5 17z" />
    <glyph glyph-name="one.old" horiz-adv-x="362" 
d="M144 247v42.5t-0.5 34.5t-1 30.5t-0.5 30.5q-29 -4 -56.5 -6.5t-53.5 -4.5v55l248 66l14 -14q-1 -55 -1.5 -115t-0.5 -119v-70t0.5 -59.5l1 -57t1.5 -60.5h-154q1 32 1.5 60.5l1 57t0.5 59.5v70z" />
    <glyph glyph-name="two.old" horiz-adv-x="478" 
d="M178 434q-38 0 -67.5 -23.5t-49.5 -54.5l-43 78q32 23 78.5 41t113.5 18q93 0 150.5 -34.5t57.5 -106.5q0 -44 -19.5 -78t-61.5 -74q-14 -14 -32.5 -28.5t-37.5 -27.5t-37 -25t-31 -21q31 0 69.5 1t75 1.5t66 1.5t42.5 1q-3 -9 -7.5 -26t-8.5 -34q-4 -20 -9 -43h-390
l-8 40q45 34 89 68t73 66q42 42 57 79t15 79q0 57 -23.5 79.5t-61.5 22.5z" />
    <glyph glyph-name="three.old" horiz-adv-x="487" 
d="M461 18q0 -94 -68.5 -150t-201.5 -56q-115 0 -196 55l45 79q23 -32 59.5 -52t75.5 -21q66 -2 98 32t32 109q0 57 -28.5 85t-82.5 28q-19 0 -34.5 -4t-35.5 -11l-18 54q43 15 76 31t55 36.5t33.5 46.5t11.5 59q0 51 -25 72.5t-67 21.5q-39 0 -72 -19.5t-54 -50.5l-40 73
q38 27 90 41.5t108 14.5q102 0 149.5 -40.5t47.5 -103.5q0 -31 -15 -57t-38 -46.5t-52 -35.5t-57 -23q107 -7 155.5 -51.5t48.5 -116.5z" />
    <glyph glyph-name="four.old" horiz-adv-x="558" 
d="M266 -147v41.5t0.5 37.5t1 39.5t0.5 48.5q-50 0 -96.5 0.5t-83.5 0.5h-82v35q88 113 174.5 224.5t158.5 211.5q13 -2 32.5 -4t48.5 -4q-1 -19 -1 -49t-0.5 -65.5t-1 -74.5t-1 -76.5t-0.5 -71.5v-58l123 2v-73q-20 0 -49 0.5t-74 0.5v-38.5t0.5 -34t1 -39t0.5 -54.5h-152z
M268 88v115.5t-1 93.5q-26 -32 -54.5 -69t-52.5 -69q-28 -37 -56 -73z" />
    <glyph glyph-name="five.old" horiz-adv-x="441" 
d="M146 249q51 -8 97.5 -24t82 -43t56.5 -67t21 -96q0 -46 -17.5 -86.5t-50.5 -70.5t-81.5 -47t-110.5 -17q-67 0 -109 12.5t-76 35.5l40 82q26 -33 62 -51.5t82 -18.5q62 0 97.5 26.5t35.5 86.5q0 69 -53.5 107.5t-159.5 60.5l51 341h306q-2 -11 -4 -25.5t-4 -30l-4 -31
t-3 -28.5q-17 1 -45.5 2t-62 2t-68.5 1.5t-63 0.5z" />
    <glyph glyph-name="six.old" horiz-adv-x="560" 
d="M520 644q-53 -14 -103.5 -36.5t-93 -53t-75.5 -69t-50 -85.5q18 17 48.5 28t64.5 11q49 0 89 -15t68.5 -43.5t43.5 -68.5t15 -89q0 -52 -19 -95t-52.5 -74t-78 -48t-95.5 -17t-97 16.5t-80.5 49.5t-55 82t-20.5 114q0 93 41.5 168.5t109.5 132.5t154.5 93.5t176.5 50.5z
M280 379q-44 0 -71.5 -37.5t-27.5 -122.5q0 -88 27.5 -129t73.5 -41q96 0 96 168q0 46 -7.5 77t-21 50t-31 27t-38.5 8z" />
    <glyph glyph-name="seven.old" horiz-adv-x="465" 
d="M70 -173q43 83 77.5 150.5t65.5 130t61 125.5t65 137q-20 0 -50 -0.5t-63.5 -1t-68.5 -1t-65 -0.5h-53h-33q2 19 5 39t5 37q3 19 5 38h422l8 -27q-31 -75 -63 -148t-64.5 -149t-66.5 -157.5t-70 -172.5h-117z" />
    <glyph glyph-name="eight.old" horiz-adv-x="535" 
d="M263 696q48 0 87 -10.5t67 -30.5t43 -48.5t15 -64.5q0 -53 -31 -88.5t-86 -59.5q32 -17 59 -36.5t47 -42.5t31 -51.5t11 -62.5q0 -42 -14 -80.5t-44 -67.5t-77 -46.5t-113 -17.5q-54 0 -97 12.5t-72 35t-44.5 53t-15.5 65.5q0 31 11.5 56t31 45.5t44 35.5t51.5 27
q-63 40 -91 84t-28 104q0 42 16 77t44.5 59.5t68 38.5t86.5 14zM298 251q-14 9 -38.5 20t-51.5 22q-36 -22 -51.5 -54t-15.5 -74q0 -56 33.5 -87t84.5 -31q59 0 93.5 25t34.5 69q0 38 -24.5 63t-64.5 47zM230 457q13 -10 32 -19.5t48 -20.5q27 20 45 49t18 70
q0 44 -23.5 73.5t-84.5 29.5q-48 0 -74.5 -23.5t-26.5 -61.5q0 -33 18 -55t48 -42z" />
    <glyph glyph-name="nine.old" horiz-adv-x="556" 
d="M58 -149q52 14 100 34.5t88 48.5t69.5 64.5t45.5 83.5q-19 -17 -50.5 -28t-66.5 -11q-49 0 -89 15t-68 43.5t-43 68t-15 89.5q0 52 19.5 95t52.5 74t77.5 48t95.5 17t96.5 -16.5t80 -49.5t54.5 -82t20 -114q0 -93 -37 -166.5t-99.5 -127.5t-145.5 -88.5t-176 -49.5z
M276 103q43 0 70.5 36.5t27.5 123.5q0 88 -27 129t-74 41q-95 0 -95 -168q0 -45 8 -76t21.5 -50t31 -27.5t37.5 -8.5z" />
    <glyph glyph-name="percent.old" horiz-adv-x="823" 
d="M40 460q0 43 12 76.5t33 56.5t49.5 35.5t61.5 12.5q34 0 63 -12t50.5 -34.5t34 -54t12.5 -70.5q0 -44 -12 -78.5t-33 -58t-49.5 -35.5t-61.5 -12q-35 0 -64 12.5t-50.5 35.5t-33.5 55t-12 71zM139 466q0 -76 15 -108t46 -32q32 0 44 33t12 105q0 76 -14 107t-46 31
q-30 0 -43.5 -32t-13.5 -104zM664 626q-29 -42 -59 -86t-58.5 -86t-54.5 -80.5t-47 -68.5q-20 -30 -49 -71.5t-61 -87.5t-64 -93t-58 -89l-54 39q29 41 61 87t63.5 90.5t59 84.5t47.5 70q21 30 47.5 69.5t56 82.5t59 87.5t55.5 86.5zM784 165q0 -43 -12 -76.5t-33 -57
t-49.5 -36t-62.5 -12.5t-63 12.5t-50.5 35t-33.5 54t-12 70.5q0 44 12 78t33 57.5t49.5 36t61.5 12.5q34 0 63.5 -12.5t51 -35.5t33.5 -55t12 -71zM684 158q0 76 -15 108.5t-45 32.5q-32 0 -44 -33t-12 -105q0 -76 13.5 -107t45.5 -31q30 0 43.5 31.5t13.5 103.5z" />
    <glyph glyph-name="perthousand.old" horiz-adv-x="1190" 
d="M40 460q0 43 12 76.5t33 56.5t49.5 35.5t61.5 12.5q34 0 63 -12t50.5 -34.5t34 -54t12.5 -70.5q0 -44 -12 -78.5t-33 -58t-49.5 -35.5t-61.5 -12q-35 0 -64 12.5t-50.5 35.5t-33.5 55t-12 71zM139 466q0 -76 15 -108t46 -32q32 0 44 33t12 105q0 76 -14 107t-46 31
q-30 0 -43.5 -32t-13.5 -104zM664 626q-29 -42 -59 -86t-58.5 -86t-54.5 -80.5t-47 -68.5q-20 -30 -49 -71.5t-61 -87.5t-64 -93t-58 -89l-54 39q29 41 61 87t63.5 90.5t59 84.5t47.5 70q21 30 47.5 69.5t56 82.5t59 87.5t55.5 86.5zM784 165q0 -43 -12 -76.5t-33 -57
t-49.5 -36t-62.5 -12.5t-63 12.5t-50.5 35t-33.5 54t-12 70.5q0 44 12 78t33 57.5t49.5 36t61.5 12.5q34 0 63.5 -12.5t51 -35.5t33.5 -55t12 -71zM684 158q0 76 -15 108.5t-45 32.5q-32 0 -44 -33t-12 -105q0 -76 13.5 -107t45.5 -31q30 0 43.5 31.5t13.5 103.5zM1150 165
q0 -43 -12 -76.5t-33 -57t-49.5 -36t-61.5 -12.5q-34 0 -63.5 12.5t-51 35t-33.5 54t-12 70.5q0 44 12 78t33 57.5t49.5 36t61.5 12.5q34 0 63.5 -12.5t51 -35.5t33.5 -55t12 -71zM1051 158q0 76 -15.5 108.5t-45.5 32.5q-32 0 -44 -33t-12 -105q0 -76 13.5 -107t46.5 -31
q29 0 43 31.5t14 103.5z" />
    </font>
</defs>
</svg>
