<?xml version="1.0" standalone="no"?>
<!DOCTYPE svg PUBLIC "-//W3C//DTD SVG 1.1//EN" "http://www.w3.org/Graphics/SVG/1.1/DTD/svg11.dtd" >
<svg>
<metadata>
Created by FontForge 20120731 at Thu Dec 18 01:56:39 2014
 By Orthosie Webhosting
Copyright (c) 2009 by Paul Barnes. All rights reserved.
</metadata>
<defs>
<font id="NationalTrustTTItalic" horiz-adv-x="368" >
  <font-face 
    font-family="NationalTrustTTItalic"
    font-weight="400"
    font-style="italic"
    font-stretch="normal"
    units-per-em="1000"
    panose-1="2 11 5 3 6 5 2 9 2 3"
    ascent="805"
    descent="-195"
    x-height="470"
    cap-height="684"
    bbox="-206 -283 1066 1015"
    underline-thickness="50"
    underline-position="-50"
    slope="-12"
    unicode-range="U+0020-FB04"
  />
<missing-glyph horiz-adv-x="230" 
 />
    <glyph glyph-name="f_f" unicode="ff" horiz-adv-x="560" 
d="M312 -43q20 121 35.5 235t34.5 231h-162q-10 -66 -17.5 -116.5t-14 -92t-12.5 -77t-12 -72.5q-9 -53 -22 -100.5t-35 -83.5t-55 -57.5t-82 -21.5q-23 0 -43 4.5t-37 12.5l20 53q29 -25 68 -25q23 0 37 7t23 20t13.5 31.5t8.5 42.5q20 121 35.5 239.5t34.5 235.5h-76l3 13
l80 29l7 43q9 53 29.5 91t49 62t64 35t75.5 11q18 0 30 -1t21 -3t16.5 -5t15.5 -7l-21 -57q-15 13 -29 21.5t-47 8.5q-26 0 -45.5 -10t-32.5 -27t-21 -39.5t-12 -48.5l-10 -69h162q2 10 4 19t4 19q9 53 29 92.5t48.5 65.5t64.5 38.5t76 12.5q35 0 55 -4.5t37 -12.5l-22 -57
q-15 14 -33.5 22t-51.5 8q-26 0 -45 -11t-32.5 -30t-21.5 -43t-12 -50l-10 -69h119l-10 -47h-116q-10 -66 -17.5 -115t-14 -89t-12.5 -74t-12 -70q-9 -53 -23.5 -101t-38 -84t-58 -57.5t-83.5 -21.5q-23 0 -48 4.5t-42 12.5l21 53q15 -13 36.5 -19t40.5 -6q46 0 64.5 26.5
t26.5 74.5z" />
    <glyph glyph-name="f_i" unicode="fi" horiz-adv-x="482" 
d="M354 256q7 31 11.5 54.5t8.5 43t7 36t6 33.5h-167q-10 -66 -17.5 -116.5t-14 -92t-12.5 -77t-12 -72.5q-9 -53 -22 -100.5t-35 -83.5t-55 -57.5t-82 -21.5q-23 0 -43 4.5t-37 12.5l20 53q29 -25 68 -25q23 0 37 7t23 20t13.5 31.5t8.5 42.5q20 121 35.5 239.5t34.5 235.5
h-76l3 13l80 29l7 43q9 53 32.5 92.5t55.5 65.5t70.5 38.5t78.5 12.5q47 0 73 -7t46 -19l-30 -57q-15 13 -38 26t-57 13q-67 0 -98.5 -36.5t-42.5 -120.5l-7 -46h166q34 0 56 2.5t40 4.5q-12 -58 -26 -119l-28 -122q-8 -39 -14 -68.5t-11.5 -56t-10.5 -53t-11 -58.5h-90
q7 32 13.5 61.5t13 60t14 63t15.5 71.5z" />
    <glyph glyph-name="f_l" unicode="fl" horiz-adv-x="506" 
d="M390 423h-170q-10 -66 -17.5 -116.5t-14 -92t-12.5 -77t-12 -72.5q-9 -53 -22 -100.5t-35 -83.5t-55 -57.5t-82 -21.5q-23 0 -43 4.5t-37 12.5l20 53q29 -25 68 -25q23 0 37 7t23 20t13.5 31.5t8.5 42.5q20 121 35.5 239.5t34.5 235.5h-76l3 13l80 29l7 43
q19 106 78.5 157.5t139.5 51.5q33 0 52 -4t34 -10l91 14l-73 -342q-9 -39 -19.5 -90t-21.5 -103.5t-20.5 -101t-16.5 -80.5h-90l82 375zM227 470h172l34 172q-11 14 -32.5 22.5t-52.5 8.5q-26 0 -45.5 -11t-32.5 -30t-21 -43t-12 -50z" />
    <glyph glyph-name="f_f_i" unicode="ffi" horiz-adv-x="733" 
d="M60 -52q20 121 35.5 239.5t34.5 235.5h-76l3 13l80 29l7 43q9 53 29.5 91t49 62t64 35t75.5 11q18 0 30 -1t21 -3t16.5 -5t15.5 -7l-21 -57q-15 13 -29 21.5t-47 8.5q-26 0 -45.5 -10t-32.5 -27t-21 -39.5t-12 -48.5l-10 -69h160q2 10 4 19t4 19q9 53 32 92.5t55 65.5
t70.5 38.5t78.5 12.5q48 0 73.5 -7t46.5 -19l-31 -57q-15 13 -38 26t-56 13q-34 0 -58 -9t-40.5 -28t-27 -48.5t-16.5 -71.5l-7 -46h166q34 0 56 2.5t41 4.5q-13 -58 -27 -119l-28 -122q-8 -39 -14 -68.5t-11.5 -56t-10.5 -53t-11 -58.5h-90q7 32 13.5 61.5t13.5 60t14 63
t15 71.5q7 31 11.5 54.5t8.5 43t7 36t7 33.5h-168q-10 -66 -17.5 -115t-14 -89t-12.5 -74t-12 -70q-9 -53 -22 -101t-35 -84t-55 -57.5t-82 -21.5q-23 0 -43 4.5t-37 12.5l20 53q29 -25 68 -25q23 0 37 7t23 20t13.5 31.5t8.5 42.5q20 121 35.5 235t34.5 231h-160
q-10 -66 -17.5 -116.5t-14 -92t-12.5 -77t-12 -72.5q-9 -53 -22 -100.5t-35 -83.5t-55 -57.5t-82 -21.5q-23 0 -43 4.5t-37 12.5l20 53q29 -25 68 -25q23 0 37 7t23 20t13.5 31.5t8.5 42.5z" />
    <glyph glyph-name="f_f_l" unicode="ffl" horiz-adv-x="758" 
d="M397 508q9 53 29 92.5t48.5 65.5t64.5 38.5t76 12.5q32 0 51 -4t34 -10l91 14l-73 -342q-8 -39 -19 -90t-21.5 -103.5t-20.5 -101t-17 -80.5h-90l91 423h-169q-10 -66 -17.5 -115t-14 -89t-12.5 -74t-12 -70q-9 -53 -23.5 -101t-38 -84t-58 -57.5t-83.5 -21.5
q-23 0 -48 4.5t-42 12.5l21 53q15 -13 36.5 -19t40.5 -6q46 0 64.5 26.5t26.5 74.5q20 121 35.5 235t34.5 231h-162q-10 -66 -17.5 -116.5t-14 -92t-12.5 -77t-12 -72.5q-9 -53 -22 -100.5t-35 -83.5t-55 -57.5t-82 -21.5q-23 0 -43 4.5t-37 12.5l20 53q29 -25 68 -25
q23 0 37 7t23 20t13.5 31.5t8.5 42.5q20 121 35.5 239.5t34.5 235.5h-76l3 13l80 29l7 43q9 53 29.5 91t49 62t64 35t75.5 11q18 0 30 -1t21 -3t16.5 -5t15.5 -7l-21 -57q-15 13 -29 21.5t-47 8.5q-26 0 -45.5 -10t-32.5 -27t-21 -39.5t-12 -48.5l-10 -69h162q2 10 4 19
t4 19zM479 470h172l34 172q-11 14 -32.5 22.5t-52.5 8.5q-26 0 -45 -11t-32.5 -30t-21.5 -43t-12 -50z" />
    <glyph glyph-name="f_b" unicode="fb" horiz-adv-x="804" 
d="M60 -52q20 121 35.5 239.5t34.5 235.5h-76l3 13l80 29l7 43q19 106 78.5 157.5t139.5 51.5q30 0 51 -4t36 -10l90 13l-55 -273q29 17 67 28t72 11q39 0 67.5 -13t48 -36.5t29 -56t9.5 -70.5q0 -60 -18 -117.5t-53.5 -101.5t-88.5 -71t-122 -27q-39 0 -74 15t-49 32h-5
q-17 -11 -28.5 -19.5t-23.5 -16.5h-19l78 345q4 22 8 41t8 37h-170q-10 -66 -17.5 -116.5t-14 -92t-12.5 -77t-12 -72.5q-9 -53 -22 -100.5t-35 -83.5t-55 -57.5t-82 -21.5q-23 0 -43 4.5t-37 12.5l20 53q29 -25 68 -25q23 0 37 7t23 20t13.5 31.5t8.5 42.5zM408 87
q16 -24 36.5 -41t55.5 -17q51 0 87 21.5t59 59t33.5 88t10.5 108.5q0 25 -6 48t-18.5 40t-31 27t-42.5 10q-42 0 -68 -6.5t-49 -20.5zM399 470q12 56 20 96.5t14 75.5q-14 13 -33.5 22t-51.5 9q-26 0 -45.5 -11t-32.5 -30t-21 -43t-12 -50l-10 -69h172z" />
    <glyph glyph-name="f_f_b" unicode="ffb" horiz-adv-x="1056" 
d="M60 -52q20 121 35.5 239.5t34.5 235.5h-76l3 13l80 29l7 43q9 53 29.5 91t49 62t64 35t75.5 11q18 0 30 -1t21 -3t16.5 -5t15.5 -7l-21 -57q-15 13 -29 21.5t-47 8.5q-26 0 -45.5 -10t-32.5 -27t-21 -39.5t-12 -48.5l-10 -69h162q2 10 4 19t4 19q9 53 29 92.5t48.5 65.5
t64.5 38.5t76 12.5q32 0 50.5 -4t33.5 -10l92 13l-55 -273q29 17 67 28t72 11q39 0 67.5 -13t48 -36.5t29 -56t9.5 -70.5q0 -60 -18 -117.5t-53.5 -101.5t-88.5 -71t-122 -27q-39 0 -74 15t-49 32h-5q-17 -11 -28.5 -19.5t-23.5 -16.5h-19l78 345q4 22 8 41t8 37h-170
q-10 -66 -17.5 -115t-14 -89t-12.5 -74t-12 -70q-9 -53 -23.5 -101t-38 -84t-58 -57.5t-83.5 -21.5q-23 0 -48 4.5t-42 12.5l21 53q15 -13 36.5 -19t40.5 -6q46 0 64.5 26.5t26.5 74.5q20 121 35.5 235t34.5 231h-162q-10 -66 -17.5 -116.5t-14 -92t-12.5 -77t-12 -72.5
q-9 -53 -22 -100.5t-35 -83.5t-55 -57.5t-82 -21.5q-23 0 -43 4.5t-37 12.5l20 53q29 -25 68 -25q23 0 37 7t23 20t13.5 31.5t8.5 42.5zM660 87q16 -24 36.5 -41t55.5 -17q51 0 87 21.5t59 59t33.5 88t10.5 108.5q0 25 -6 48t-18.5 40t-31 27t-42.5 10q-42 0 -68 -6.5
t-49 -20.5zM651 470q12 57 20.5 99.5t14.5 77.5l-1 -4q-15 14 -33.5 22t-51.5 8q-26 0 -45 -11t-32.5 -30t-21.5 -43t-12 -50l-10 -69h172z" />
    <glyph glyph-name="f_f_h" unicode="ffh" horiz-adv-x="1057" 
d="M60 -52q20 121 35.5 239.5t34.5 235.5h-76l3 13l80 29l7 43q9 53 29.5 91t49 62t64 35t75.5 11q18 0 30 -1t21 -3t16.5 -5t15.5 -7l-21 -57q-15 13 -29 21.5t-47 8.5q-26 0 -45.5 -10t-32.5 -27t-21 -39.5t-12 -48.5l-10 -69h162q2 10 4 19t4 19q9 53 29 92.5t48.5 65.5
t64.5 38.5t76 12.5q35 0 55 -4.5t37 -12.5l-1 -1l87 17q-1 -6 -6 -29.5t-12 -55t-15 -67t-14.5 -66.5t-11.5 -53t-5 -27h2q13 10 27.5 19t25.5 15q29 14 52 22t57 8q63 0 93 -32t28 -81q-1 -15 -1.5 -26t-5.5 -31l-22 -99q-8 -39 -13.5 -65t-9.5 -48t-8.5 -45t-10.5 -55h-93
l53 236q7 31 15 64.5t8 67.5q-1 27 -16 41t-50 14q-29 0 -68 -12t-74 -41l-34 -155q-8 -39 -13 -65t-9.5 -48.5t-8.5 -46t-11 -55.5h-92q7 32 13 58.5l12 53t13 56t15 68.5l38 187h-169q-10 -66 -17.5 -115t-14 -89t-12.5 -74t-12 -70q-9 -53 -23.5 -101t-38 -84t-58 -57.5
t-83.5 -21.5q-23 0 -48 4.5t-42 12.5l21 53q15 -13 36.5 -19t40.5 -6q46 0 64.5 26.5t26.5 74.5q20 121 35.5 235t34.5 231h-162q-10 -66 -17.5 -116.5t-14 -92t-12.5 -77t-12 -72.5q-9 -53 -22 -100.5t-35 -83.5t-55 -57.5t-82 -21.5q-23 0 -43 4.5t-37 12.5l20 53
q29 -25 68 -25q23 0 37 7t23 20t13.5 31.5t8.5 42.5zM687 648l-2 -5q-15 14 -33.5 22t-51.5 8q-26 0 -45 -11t-32.5 -30t-21.5 -43t-12 -50l-10 -69h172z" />
    <glyph glyph-name="f_f_j" unicode="ffj" horiz-adv-x="734" 
d="M60 -52q20 121 35.5 239.5t34.5 235.5h-76l3 13l80 29l7 43q9 53 29.5 91t49 62t64 35t75.5 11q18 0 30 -1t21 -3t16.5 -5t15.5 -7l-21 -57q-15 13 -29 21.5t-47 8.5q-26 0 -45.5 -10t-32.5 -27t-21 -39.5t-12 -48.5l-10 -69h161q2 10 4 19t4 19q9 53 32 92.5t55 65.5
t70.5 38.5t78.5 12.5q48 0 73.5 -7t46.5 -19l-31 -57q-15 13 -38 26t-56 13q-34 0 -58 -9t-41 -28t-27 -48.5t-16 -71.5l-7 -46h166q34 0 56 2.5t41 4.5q-13 -58 -27.5 -119t-27.5 -122l-32 -161q-9 -53 -27.5 -101t-47.5 -84t-68 -57.5t-88 -21.5q-11 0 -26 1.5t-30.5 5
t-30.5 8.5t-27 11l4 6q-41 -32 -100 -32q-23 0 -48 4.5t-42 12.5l21 53q15 -13 36.5 -19t40.5 -6q40 0 61 22t29 70q20 121 35.5 239.5t34.5 235.5h-161q-10 -66 -17.5 -116.5t-14 -92t-12.5 -77t-12 -72.5q-9 -53 -22 -100.5t-35 -83.5t-55 -57.5t-82 -21.5q-23 0 -43 4.5
t-37 12.5l20 53q29 -25 68 -25q23 0 37 7t23 20t13.5 31.5t8.5 42.5zM415 65q-9 -52 -23 -97t-36 -79q11 -14 29.5 -23.5t36.5 -9.5q53 0 80 25t41 75q8 31 16.5 67.5t16.5 75.5t16 78.5t16 78.5q7 31 11.5 54.5t8.5 43t7 36t6 33.5h-170q-10 -66 -17.5 -116.5t-14 -92
t-12.5 -77t-12 -72.5z" />
    <glyph glyph-name="f_f_k" unicode="ffk" horiz-adv-x="955" 
d="M640 423h-169q-10 -66 -17.5 -115t-14 -89t-12.5 -74t-12 -70q-9 -53 -22.5 -101t-36.5 -84t-57 -57.5t-83 -21.5q-23 0 -49.5 4.5t-43.5 12.5l21 53q15 -13 38.5 -19t41.5 -6q23 0 38 7t24.5 20t15 31.5t9.5 42.5q20 121 36 235t35 231h-162q-10 -66 -17.5 -116.5
t-14 -92t-12.5 -77t-12 -72.5q-9 -53 -22 -100.5t-35 -83.5t-55 -57.5t-82 -21.5q-23 0 -43 4.5t-37 12.5l20 53q29 -25 68 -25q23 0 37 7t23 20t13.5 31.5t8.5 42.5q20 121 35.5 239.5t34.5 235.5h-76l3 13l80 29l7 43q9 53 29.5 91t49 62t64 35t75.5 11q18 0 30 -1t21 -3
t16.5 -5t15.5 -7l-21 -57q-15 13 -29 21.5t-47 8.5q-26 0 -45.5 -10t-32.5 -27t-21 -39.5t-12 -48.5l-10 -69h162q2 10 4 19t4 19q9 53 29 92.5t48.5 65.5t64 38.5t75.5 12.5q32 0 50.5 -6t33.5 -13l94 19q-6 -29 -16 -74.5t-21 -94.5t-21.5 -95.5t-16.5 -77.5
q-8 -39 -19 -90t-21.5 -103.5t-20.5 -101t-17 -80.5h-90zM831 0q-20 42 -34.5 70.5t-28 54.5t-29.5 53.5t-39 67.5q28 30 51.5 53t48 47.5t53 53.5t66.5 70h73q-38 -36 -67.5 -63.5t-54 -50t-45.5 -42t-43 -40.5q22 -39 37.5 -69t31.5 -59t34.5 -63.5t45.5 -82.5h-100z
M478 470h172l34 171q-11 14 -32.5 23t-52.5 9q-26 0 -45 -11t-32.5 -30t-21 -43t-11.5 -50z" />
    <glyph glyph-name="f_h" unicode="fh" horiz-adv-x="805" 
d="M389 423h-169q-10 -66 -17.5 -116.5t-14 -92t-12.5 -77t-12 -72.5q-9 -53 -22 -100.5t-35 -83.5t-55 -57.5t-82 -21.5q-23 0 -43 4.5t-37 12.5l20 53q29 -25 68 -25q23 0 37 7t23 20t13.5 31.5t8.5 42.5q20 121 35.5 239.5t34.5 235.5h-76l3 13l80 29l7 43
q19 106 78.5 157.5t139.5 51.5q35 0 57 -5t38 -13l84 17q-2 -6 -7 -29.5t-12 -55t-14.5 -67t-14 -66.5t-11.5 -53t-5 -27h2q13 10 27.5 19t25.5 15q28 14 51.5 22t57.5 8q63 0 93 -32t28 -81q-1 -15 -1.5 -26t-5.5 -31l-22 -99q-8 -39 -13.5 -65t-9.5 -48t-8.5 -45
t-10.5 -55h-93q7 32 13 58.5l12 53t12.5 56t14.5 68.5q8 31 15.5 64.5t7.5 67.5q0 27 -15 41t-50 14q-29 0 -68 -12t-74 -41l-34 -155q-8 -39 -13 -65t-9.5 -48.5t-8.5 -46t-11 -55.5h-92l53 236zM227 470h172l35 172q-15 13 -34.5 22t-51.5 9q-26 0 -45.5 -11t-32.5 -30
t-21 -43t-12 -50z" />
    <glyph glyph-name="f_j" unicode="fj" horiz-adv-x="482" 
d="M403 75q-9 -53 -27.5 -101t-47.5 -84t-68 -57.5t-88 -21.5q-21 0 -51.5 5.5t-54.5 16.5q-39 -31 -96 -31q-23 0 -43 4.5t-37 12.5l20 53q29 -25 68 -25q23 0 37 7t23 20t13.5 31.5t8.5 42.5q20 121 35.5 239.5t34.5 235.5h-76l3 13l80 29l7 43q9 53 32.5 92.5t55.5 65.5
t70.5 38.5t78.5 12.5q47 0 73 -7t46 -19l-30 -57q-15 13 -38 26t-57 13q-67 0 -98.5 -36.5t-42.5 -120.5l-7 -46h166q34 0 56 2.5t40 4.5q-12 -58 -26.5 -119t-27.5 -122zM164 65q-9 -52 -21.5 -98.5t-33.5 -82.5q11 -12 28 -20t34 -8q53 0 80 25t41 75q8 31 16.5 67.5
t16.5 75.5t16 78.5t16 78.5q6 31 11 54.5t8.5 43t7 36t6.5 33.5h-170q-10 -66 -17.5 -116.5t-14 -92t-12.5 -77t-12 -72.5z" />
    <glyph glyph-name="f_k" unicode="fk" horiz-adv-x="704" 
d="M389 423h-169q-10 -66 -17.5 -116.5t-14 -92t-12.5 -77t-12 -72.5q-9 -53 -22 -100.5t-35 -83.5t-55 -57.5t-82 -21.5q-23 0 -43 4.5t-37 12.5l20 53q29 -25 68 -25q23 0 37 7t23 20t13.5 31.5t8.5 42.5q20 121 36 239.5t35 235.5h-76l3 13l80 29l7 43q19 107 78 158
t139 51q33 0 51.5 -6t33.5 -13l94 19q-6 -29 -16.5 -74.5t-21 -94.5t-21 -95.5t-16.5 -77.5q-9 -39 -19.5 -90t-21.5 -103.5t-20.5 -101t-16.5 -80.5h-90zM580 0q-20 42 -34.5 70.5t-28 54.5t-29.5 53.5t-39 67.5q28 30 51.5 53t48 47.5t53 53.5t66.5 70h73
q-38 -36 -67.5 -63.5t-54 -50t-45.5 -42t-43 -40.5q22 -39 37.5 -69t31.5 -59t34.5 -63.5t45.5 -82.5h-100zM227 470h171l35 171q-11 14 -32.5 23t-52.5 9q-26 0 -45.5 -11t-32.5 -30t-21 -43t-12 -50z" />
    <glyph glyph-name=".notdef" horiz-adv-x="230" 
 />
    <glyph glyph-name=".null" horiz-adv-x="0" 
 />
    <glyph glyph-name="nonmarkingreturn" horiz-adv-x="230" 
 />
    <glyph glyph-name="space" unicode=" " horiz-adv-x="230" 
 />
    <glyph glyph-name="space" unicode="&#xa0;" horiz-adv-x="230" 
 />
    <glyph glyph-name="exclam" unicode="!" horiz-adv-x="234" 
d="M81 185q15 120 32.5 240t40.5 256l89 6q-16 -72 -29 -134.5t-25.5 -122.5t-24.5 -119.5t-27 -125.5h-56zM28 51q0 23 16.5 40t39.5 17t40 -17t17 -40t-17 -40t-40 -17t-39.5 17t-16.5 40z" />
    <glyph glyph-name="quotedbl" unicode="&#x22;" horiz-adv-x="285" 
d="M83 441q3 25 7 55.5t8.5 63t8.5 64t7 57.5l78 6q-15 -58 -30 -122t-31 -124h-48zM222 441q3 25 7 55.5t8.5 63t8.5 64t7 57.5l78 6q-15 -58 -30 -122t-31 -124h-48z" />
    <glyph glyph-name="numbersign" unicode="#" horiz-adv-x="584" 
d="M410 261q53 1 89 2t74 2l-9 -42l-164 2l-60 -225h-53q23 80 39 134t27 92h-150q-10 -37 -18 -67.5t-15 -57t-13.5 -51.5t-12.5 -50h-52q6 24 13 47.5t14.5 50t16.5 58t20 70.5h-67.5t-79.5 -1l9 41q34 -2 68.5 -2.5t80.5 -1.5l22 80l21 79q-52 -1 -88 -1.5t-74 -0.5l9 42
q31 -2 72.5 -2.5t90.5 -1.5l61 227h53l-66 -227h151l58 227h52q-6 -24 -13 -48t-14.5 -50.5t-16.5 -58t-20 -70.5h32h32t37 0.5t46 0.5l-9 -40l-149 3q-5 -18 -10 -37.5t-12 -42.5zM259 422q-13 -42 -19 -63.5t-9 -32.5l-18 -65h150l24 83l21 78h-149z" />
    <glyph glyph-name="dollar" unicode="$" horiz-adv-x="504" 
d="M167 -101l17 93q-46 5 -90 21t-72 42l34 82q26 -47 62.5 -69t74.5 -28q15 77 28.5 152t23.5 128l-10 8q-26 20 -48.5 38.5t-39 40t-26 48t-9.5 63.5q0 46 17.5 78.5t46 54t64 32.5t71.5 13l12 70h50l-14 -72q84 -9 135 -43l-28 -82q-23 34 -52 50t-66 20l-46 -248
q42 -35 71.5 -58.5t47.5 -45t26.5 -46.5t8.5 -62q0 -36 -13 -70t-41 -60.5t-70.5 -42.5t-100.5 -17q-5 -24 -8.5 -47t-6.5 -43h-49zM384 158q0 18 -6.5 33.5t-19 30.5t-31.5 31.5t-44 36.5l-44 -253q76 2 110.5 36t34.5 85zM186 542q0 -18 5.5 -33t15 -29t24 -27.5
t32.5 -29.5q8 48 19 105.5t20 111.5q-24 0 -45 -6t-36.5 -18t-25 -30.5t-9.5 -43.5z" />
    <glyph glyph-name="percent" unicode="%" horiz-adv-x="724" 
d="M684 689q-35 -41 -76.5 -91.5t-82.5 -100.5t-78 -95t-62 -75q-24 -30 -62 -75t-80 -95t-83.5 -100.5t-73.5 -92.5l-36 28q35 41 77 91t84 99.5t79 93.5t61 74q25 30 62 75.5t78 96.5l82 102t74 93zM230 697q63 0 95.5 -39.5t32.5 -102.5q0 -41 -12.5 -83.5t-36.5 -77
t-58 -56.5t-77 -22q-63 0 -95.5 40t-32.5 103q0 41 12.5 83t36.5 76.5t58 56.5t77 22zM230 668q-34 0 -57 -26q-14 -17 -25.5 -41t-19.5 -51.5t-12.5 -56t-4.5 -54.5q0 -47 13.5 -70.5t48.5 -23.5q14 0 30.5 7.5t27.5 19.5q14 16 25.5 40.5t19.5 52t12.5 56t4.5 54.5
q0 47 -14 70t-49 23zM569 365q63 0 95 -39.5t32 -102.5q0 -41 -12.5 -83.5t-36.5 -77.5t-58 -57t-77 -22q-63 0 -95 40.5t-32 103.5q0 41 12.5 83t36.5 76.5t58 56.5t77 22zM569 336q-36 0 -57 -26q-14 -17 -25.5 -41t-19.5 -51.5t-12.5 -56t-4.5 -54.5q0 -47 13.5 -70.5
t48.5 -23.5q14 0 30.5 7.5t26.5 19.5q14 16 25.5 40.5t19.5 52t12.5 56t4.5 54.5q0 47 -13.5 70t-48.5 23z" />
    <glyph glyph-name="ampersand" unicode="&#x26;" horiz-adv-x="613" 
d="M499 582q0 -57 -43 -96.5t-130 -78.5l41 -79q23 -42 46.5 -84t43.5 -83q20 28 34.5 60.5t24.5 65.5t15.5 66t7.5 62h69q-6 -34 -16.5 -72.5t-26.5 -78t-37.5 -78t-49.5 -71.5q14 -32 23 -62t9 -56q0 -33 -13.5 -62t-38 -52.5t-57.5 -40t-72 -23.5l-11 37q54 14 87 44.5
t33 80.5q0 11 -6.5 29.5t-17.5 41.5q-39 -29 -86.5 -45.5t-105.5 -16.5q-42 0 -77.5 11.5t-61.5 34.5t-40.5 57t-14.5 79t20.5 82t51 66.5t65 51.5t63.5 36q-15 30 -24 58t-10 59q-1 36 10.5 67t33.5 54.5t54 36.5t71 13q36 0 61.5 -10t42 -26t24.5 -36.5t8 -41.5zM120 190
q0 -72 32.5 -109t89.5 -37q45 0 83 13.5t69 36.5q-23 45 -51.5 96t-52.5 100q-11 22 -22 41.5t-21 37.5q-22 -12 -44.5 -27.5t-41 -37t-30 -50t-11.5 -64.5zM429 579q0 33 -16 51.5t-47 18.5q-15 0 -31 -4t-28.5 -14.5t-21 -28.5t-8.5 -46q0 -25 8 -52t22 -59q34 16 57 30
t37.5 29t21 33t6.5 42z" />
    <glyph glyph-name="quotesingle" unicode="'" horiz-adv-x="146" 
d="M83 441q3 25 7 55.5t8.5 63t8.5 64t7 57.5l78 6q-15 -58 -30 -122t-31 -124h-48z" />
    <glyph glyph-name="parenleft" unicode="(" horiz-adv-x="334" 
d="M64 180q0 92 28.5 175t73 152t99.5 121.5t109 85.5l24 -33q-54 -38 -100 -89.5t-80 -115t-53.5 -139t-19.5 -162.5q0 -53 7 -94.5t20 -76.5t32.5 -66t44.5 -63l-28 -30q-33 33 -61.5 69t-49.5 77t-33.5 88t-12.5 101z" />
    <glyph glyph-name="parenright" unicode=")" horiz-adv-x="325" 
d="M260 379q0 -92 -28 -174.5t-72.5 -151.5t-99.5 -122t-109 -86l-25 34q54 38 100.5 89t80 115t53 139.5t19.5 162.5q0 52 -6.5 93.5t-20 76.5t-33 66t-44.5 63l29 30q32 -33 60.5 -69t49.5 -77t33.5 -88t12.5 -101z" />
    <glyph glyph-name="asterisk" unicode="*" horiz-adv-x="364" 
d="M166 358q4 21 8 37.5t7.5 31.5t7 29.5t7.5 31.5q-17 -7 -31 -12.5l-28 -11t-29.5 -11.5t-35.5 -13l-17 46l38.5 10.5t31 8.5t28.5 8.5t31 9.5q-14 12 -26 21t-24 18.5t-25 20.5t-30 25l32 37q16 -16 28.5 -28t23.5 -22.5t21.5 -20.5t23.5 -22q3 18 5 33t4.5 30t5 31.5
t6.5 38.5l48 -9q-6 -23 -10 -39.5t-8 -31t-7 -29t-7 -32.5q17 6 30.5 11.5t27.5 11t30 12t38 15.5l16 -46q-21 -7 -37.5 -12t-31 -9t-29 -8.5t-32.5 -9.5q13 -12 24.5 -21t23.5 -18l26 -19.5t32 -24.5l-32 -37q-17 15 -29 26.5t-23.5 22t-22.5 21t-24 22.5q-3 -18 -5 -32
t-4 -29t-4.5 -32t-5.5 -39l-47 9v0z" />
    <glyph glyph-name="plus" unicode="+" horiz-adv-x="584" 
d="M261 30v217h-200v48h200v218h55v-218h200v-48h-200v-217h-55z" />
    <glyph glyph-name="comma" unicode="," horiz-adv-x="186" 
d="M105 112q11 -15 13.5 -36t2.5 -42q0 -31 -13 -62t-35 -58.5t-51 -49t-60 -34.5l-17 29q46 22 71.5 55t25.5 89q0 23 -9 38.5t-23 32.5z" />
    <glyph glyph-name="hyphen" unicode="-" horiz-adv-x="319" 
d="M66 290h216l-15 -84h-216z" />
    <glyph glyph-name="period" unicode="." horiz-adv-x="233" 
d="M41 51q0 23 17 40t40 17t40 -17t17 -40t-17 -40t-40 -17t-40 17t-17 40z" />
    <glyph glyph-name="slash" unicode="/" horiz-adv-x="344" 
d="M381 704q-23 -49 -50.5 -108t-54.5 -117t-51 -110t-39 -87q-10 -23 -25.5 -57t-33 -74t-36.5 -84t-37.5 -87t-35.5 -83t-30 -72l-58 23q23 49 51.5 112.5l57 127t53.5 119.5t40 91q16 36 40 89t50.5 112t52.5 119t46 108z" />
    <glyph glyph-name="zero" unicode="0" horiz-adv-x="609" 
d="M271 32q26 0 52.5 11t46.5 31q33 31 56.5 80t39 105t22.5 113.5t7 104.5q0 85 -28.5 129.5t-92.5 44.5q-34 0 -59 -13.5t-45 -33.5q-33 -31 -56 -79.5t-37 -103t-20.5 -110.5t-6.5 -103q0 -85 28.5 -130.5t92.5 -45.5zM374 696q49 0 88.5 -16.5t68 -47t43.5 -75.5
t15 -102q0 -49 -8.5 -102.5t-25.5 -105.5t-42.5 -98.5t-61 -82t-80.5 -56.5t-100 -21q-98 0 -156.5 62.5t-58.5 177.5q0 49 8.5 103t25.5 106t42.5 98.5t61 82t80.5 56.5t100 21z" />
    <glyph glyph-name="one" unicode="1" horiz-adv-x="298" 
d="M185 625q-12 -2 -28 -5t-33 -5.5t-33.5 -4.5t-30.5 -3l5 35l215 53l9 -11q-5 -28 -13.5 -73t-17.5 -94.5t-17.5 -95.5t-13.5 -75q-7 -39 -15 -85.5t-16 -94t-15 -91t-12 -75.5h-95q7 32 15 75.5t17 91t17 94t15 85.5z" />
    <glyph glyph-name="two" unicode="2" horiz-adv-x="516" 
d="M276 644q-42 0 -84.5 -16t-74.5 -46l-21 65q38 22 82 35.5t107 13.5q55 0 95.5 -13t66.5 -36.5t38.5 -56.5t12.5 -73q0 -66 -48 -141t-130 -148q-19 -17 -41.5 -35.5t-45.5 -37.5t-46 -37.5t-43 -34.5q36 0 84.5 1t94.5 1.5t83.5 1.5t52.5 1q-5 -10 -13 -25t-15 -29
q-9 -17 -17 -34h-414l4 38q88 61 149.5 115t113.5 106q66 66 97.5 132.5t31.5 123.5q0 28 -5 51.5t-18.5 40.5t-36.5 27t-60 10z" />
    <glyph glyph-name="three" unicode="3" horiz-adv-x="462" 
d="M416 220q0 -51 -18 -93.5t-52.5 -73t-85 -47.5t-114.5 -17q-60 0 -105.5 14.5t-77.5 41.5l37 56q27 -31 66.5 -49t84.5 -18q36 0 67 11t54 33.5t36 56t13 78.5q0 69 -28 99.5t-94 30.5q-22 0 -40.5 -4.5t-41.5 -13.5l-13 37q37 14 79 28t77 34.5t58.5 51t23.5 76.5
q0 56 -24 77t-72 21q-40 0 -70 -11.5t-56 -42.5l-31 50q31 20 70 35t95 15t90.5 -12t53.5 -31.5t25.5 -43t6.5 -47.5q0 -32 -14.5 -61.5t-39.5 -53.5t-58.5 -41.5t-71.5 -27.5q42 0 74 -13.5t53.5 -36t32 -51t10.5 -57.5z" />
    <glyph glyph-name="four" unicode="4" horiz-adv-x="538" 
d="M248 0q8 47 16 88t19 97h-193q-49 0 -95 -1l5 23q53 57 108 121t108.5 128t104 125.5t93.5 112.5q9 -2 18 -3q8 -1 16.5 -2t16.5 -1q-4 -19 -11 -53.5t-15.5 -77t-17.5 -89.5t-17 -91.5t-15.5 -82.5t-11.5 -62l137 2l-6 -52q-17 0 -54 0.5t-82 1.5q-4 -22 -7 -40.5
t-6 -39t-7 -45.5t-9 -59h-95zM349 545h-2q-35 -41 -79.5 -95.5t-85.5 -103.5q-48 -58 -97 -117l203 2z" />
    <glyph glyph-name="five" unicode="5" horiz-adv-x="433" 
d="M154 461q57 -11 102 -33t75.5 -51.5t47 -66.5t16.5 -78q0 -47 -16 -91t-48 -77.5t-79.5 -54t-111.5 -20.5q-23 0 -43 1.5t-38.5 6t-37 12t-39.5 20.5l42 67q21 -30 54.5 -41.5t65.5 -11.5q33 0 61.5 8t49 26.5t32.5 49.5t12 77q0 33 -12 62t-38.5 52.5t-69 40.5
t-102.5 26l90 299h271q-6 -15 -15 -40.5t-15 -46.5q-15 0 -39.5 0.5t-54 1.5t-61 1.5t-59.5 0.5z" />
    <glyph glyph-name="six" unicode="6" horiz-adv-x="523" 
d="M499 663q-57 -17 -108.5 -44t-94 -63t-75.5 -80t-54 -93h3q29 28 72.5 43.5t80.5 15.5q55 0 90 -15t55 -39t28 -54.5t8 -61.5q0 -67 -23.5 -119.5t-61.5 -89t-85 -55.5t-94 -19q-50 0 -87.5 17t-63.5 46.5t-39 69t-13 85.5q0 92 40 174.5t104 147.5t145 110t163 62z
M302 394q-43 0 -75 -18.5t-53.5 -49t-32 -70.5t-10.5 -83q0 -37 9.5 -63.5t25 -43t36 -24t42.5 -7.5q38 0 68.5 17.5t52 50t33 78.5t11.5 103q0 45 -26 77.5t-81 32.5z" />
    <glyph glyph-name="seven" unicode="7" horiz-adv-x="465" 
d="M95 0q56 86 97 157t78 139.5t75.5 141.5t89.5 162q-21 0 -52 -0.5t-66.5 -1t-72.5 -1t-69.5 -1t-56.5 -0.5h-34q5 14 10.5 29t10.5 28l10 30h400l4 -22q-37 -66 -71 -136t-73.5 -149.5t-87.5 -172t-114 -203.5h-78z" />
    <glyph glyph-name="eight" unicode="8" horiz-adv-x="528" 
d="M39 149q0 42 17.5 73t45.5 54t61.5 38.5t65.5 26.5q-20 16 -38 35.5t-32 41t-22.5 45t-8.5 47.5q0 45 17 79.5t46 58t67 36t80 12.5q85 0 133 -39t48 -118q0 -27 -13 -54t-35 -50t-49.5 -42t-57.5 -31q21 -17 42 -37.5t38 -43t28 -46t11 -46.5q0 -43 -15.5 -79.5
t-46 -63.5t-75 -42t-102.5 -15q-46 0 -84 10.5t-65 31t-41.5 50.5t-14.5 68zM392 147q1 21 -9 43t-28 43.5t-42 42.5t-51 41q-30 -13 -55.5 -27t-43.5 -32.5t-28.5 -43t-10.5 -58.5q0 -61 31 -92.5t89 -31.5q65 0 105.5 31t42.5 84zM213 542q0 -27 10 -48.5t26 -39.5
t37 -33.5t42 -30.5q60 23 87.5 61t27.5 82q0 57 -25.5 87t-82.5 30q-58 0 -90 -31.5t-32 -76.5z" />
    <glyph glyph-name="nine" unicode="9" horiz-adv-x="525" 
d="M63 27q57 16 104.5 43t86 62.5t69.5 77t57 88.5h-4q-14 -14 -31.5 -23.5t-36.5 -15.5t-37 -8.5t-33 -2.5q-55 0 -90 17.5t-55 45t-27.5 60.5t-7.5 65q0 66 23.5 116t61.5 83t85 49.5t94 16.5q49 0 87 -17t64 -46.5t39 -69t13 -85.5q0 -92 -39.5 -174.5t-103.5 -147.5
t-145 -110t-163 -62zM260 296q43 0 75 18.5t53.5 49t32 70.5t10.5 83q0 37 -9.5 63.5t-25 43t-36 24t-42.5 7.5q-77 0 -121 -62.5t-44 -177.5q0 -23 6.5 -44t19.5 -38t33.5 -27t47.5 -10z" />
    <glyph glyph-name="colon" unicode=":" horiz-adv-x="242" 
d="M41 51q0 23 17 40t40 17t40 -17t17 -40t-17 -40t-40 -17t-40 17t-17 40zM106 424q0 23 16.5 40t39.5 17t40 -17t17 -40t-17 -39.5t-40 -16.5t-39.5 16.5t-16.5 39.5z" />
    <glyph glyph-name="semicolon" unicode=";" horiz-adv-x="252" 
d="M131 424q0 23 16.5 40t39.5 17t40 -17t17 -40t-17 -39.5t-40 -16.5t-39.5 16.5t-16.5 39.5zM160 112q11 -15 14 -36t3 -42q0 -31 -13.5 -62t-35.5 -58.5t-51 -49t-60 -34.5l-17 29q47 22 72.5 55t25.5 89q0 23 -9.5 38.5t-23.5 32.5z" />
    <glyph glyph-name="less" unicode="&#x3c;" horiz-adv-x="584" 
d="M493 63l-428 184v48l428 184v-51l-366 -157l366 -156v-52z" />
    <glyph glyph-name="equal" unicode="=" horiz-adv-x="584" 
d="M520 339h-456v48h456v-48zM520 155h-456v48h456v-48z" />
    <glyph glyph-name="greater" unicode="&#x3e;" horiz-adv-x="584" 
d="M93 479l428 -184v-48l-428 -184v52l366 156l-366 157v51z" />
    <glyph glyph-name="question" unicode="?" horiz-adv-x="340" 
d="M158 696q44 -8 82.5 -22.5t67 -36.5t44.5 -53t16 -73t-10 -70t-30.5 -49t-52 -37.5t-74.5 -35.5q-19 -8 -36.5 -16t-31.5 -18t-22.5 -21.5t-8.5 -27.5q0 -20 13 -33t32 -13q43 0 66 19l17 -30q-11 -10 -36 -19.5t-48 -9.5q-27 0 -46.5 8t-31.5 21.5t-17.5 31t-5.5 36.5
q0 32 13.5 55t33 40t42.5 29t42 21q33 15 57.5 26t41 23t24.5 27.5t8 41.5q0 33 -10 54.5t-31.5 34.5t-54.5 19t-78 9zM37 51q0 23 16.5 40t39.5 17t40 -17t17 -40t-17 -40t-40 -17t-39.5 17t-16.5 40z" />
    <glyph glyph-name="at" unicode="@" horiz-adv-x="848" 
d="M595 84q49 0 84.5 25.5t58 66t33 89.5t10.5 97q0 53 -11 98t-39.5 77.5t-77.5 50.5t-125 18q-96 0 -177 -30.5t-139.5 -86t-91.5 -133.5t-33 -173q0 -84 27.5 -139t73 -88t103 -46.5t117.5 -13.5q56 0 99.5 5.5t79.5 15.5t67.5 25t64.5 34l21 -40q-30 -17 -60 -32.5
t-67.5 -27t-87 -18.5t-117.5 -7q-69 0 -136.5 16.5t-120.5 55.5t-86 102.5t-33 157.5q0 109 39.5 195.5t107.5 146.5t158 92t191 32q85 0 143.5 -20t94.5 -57t52 -90.5t16 -119.5q0 -59 -16.5 -117.5t-48 -105t-78 -75.5t-105.5 -29q-36 0 -58.5 10t-35 22.5t-17 24.5
t-4.5 17h-5q-9 -10 -21 -21.5t-27.5 -21t-36 -16t-46.5 -6.5q-21 0 -41.5 7.5t-36 24t-25.5 44t-11 68.5q-3 59 16.5 113.5t55.5 96t85.5 66t108.5 24.5q16 0 28 -0.5t25 -2.5t30 -5.5t43 -9.5l-38 -177q-5 -23 -10 -48q-5 -21 -9.5 -45.5t-9.5 -47.5q-6 -31 3.5 -49.5
t45.5 -18.5zM528 436q-11 6 -24.5 9t-21.5 3q-44 0 -77.5 -24t-56.5 -61.5t-35 -83.5t-12 -91t17.5 -69t42.5 -24q36 0 62.5 19.5t44.5 48.5z" />
    <glyph glyph-name="A" unicode="A" horiz-adv-x="583" 
d="M415 0q-7 48 -13.5 96.5t-12.5 98.5q-33 0 -63 0.5t-57 0.5h-58.5t-60.5 -1q-25 -45 -51.5 -92.5t-58.5 -102.5h-72q55 99 104 183.5t95 163.5t90.5 155t90.5 157q11 5 22 11.5t21 12.5q11 7 23 15q26 -171 51 -341.5t54 -356.5h-104zM340 539q-44 -76 -81.5 -145.5
t-79.5 -144.5q26 -1 50 -1h49q23 0 49.5 0.5t55.5 0.5q-11 88 -22.5 159.5t-20.5 130.5z" />
    <glyph glyph-name="B" unicode="B" horiz-adv-x="565" 
d="M37 0l61 342q13 73 27.5 157.5t31.5 184.5h178q55 0 92.5 -10.5t59.5 -30.5t31.5 -49t9.5 -66q0 -33 -11.5 -58.5t-32.5 -45t-49 -33t-61 -21.5v-4q45 -5 74.5 -19.5t46.5 -35t24 -46t7 -52.5q0 -46 -18 -85t-51.5 -67.5t-82 -44.5t-109.5 -16h-228zM194 337l-50 -284
h109q88 0 133 38t45 125q0 25 -4 47.5t-17 38.5t-38 25.5t-67 9.5h-111zM247 631q-8 -44 -13.5 -74t-10.5 -55.5t-9.5 -50.5t-10.5 -57h96q77 0 109.5 29t32.5 103q0 52 -28.5 78.5t-90.5 26.5h-75z" />
    <glyph glyph-name="C" unicode="C" horiz-adv-x="618" 
d="M329 51q37 0 66 6t52.5 19.5t44 35.5t41.5 54l40 -35q-37 -68 -103.5 -105t-154.5 -37q-60 0 -109.5 20.5t-85 58t-55 91t-19.5 119.5q0 93 28 169.5t76.5 132t113 86t137.5 30.5q40 0 70 -3.5t54.5 -11t44.5 -18.5t41 -25l-43 -70q-17 21 -34 35.5t-37 22.5t-44.5 11.5
t-55.5 3.5q-68 0 -116 -34.5t-78.5 -88.5t-44.5 -120t-14 -129q0 -57 16 -98t42 -68t59 -39.5t68 -12.5z" />
    <glyph glyph-name="D" unicode="D" horiz-adv-x="649" 
d="M37 0l61 342q13 73 27.5 157.5t31.5 184.5h159q84 0 142.5 -22.5t96 -60.5t54.5 -89t17 -109q0 -89 -24 -161.5t-72.5 -124.5t-122 -82.5t-171.5 -34.5h-199zM248 53q67 0 118.5 24.5t86 70.5t52.5 113t18 152q0 51 -9 91.5t-32 68.5t-64.5 43t-105.5 15h-65
q-16 -87 -30 -154.5t-26 -132.5q-6 -38 -11.5 -70.5t-10.5 -66t-11 -70.5t-14 -84h104z" />
    <glyph glyph-name="E" unicode="E" horiz-adv-x="507" 
d="M191 328l-47 -275l300 4l-16 -57h-391l61 342q13 73 27.5 157.5t31.5 184.5h368l-18 -59l-262 6q-8 -44 -14 -75.5t-11 -58.5t-9.5 -53.5t-9.5 -58.5l241 2l-22 -62z" />
    <glyph glyph-name="F" unicode="F" horiz-adv-x="470" 
d="M193 337q-14 -76 -28 -159.5t-30 -177.5h-98l61 342q13 73 27.5 157.5t31.5 184.5h378l-19 -59l-270 6q-8 -44 -13.5 -74t-10.5 -55.5t-9.5 -50.5t-10.5 -57l232 3l-21 -63z" />
    <glyph glyph-name="G" unicode="G" horiz-adv-x="638" 
d="M327 -12q-72 0 -125 20.5t-87.5 58t-51.5 91t-17 119.5q0 93 28.5 170t77 132.5t113 86t137.5 30.5q39 0 70.5 -3.5t57.5 -10.5t47.5 -18t41.5 -26l-42 -70q-28 44 -73.5 58.5t-105.5 14.5q-68 0 -116.5 -34.5t-79 -88.5t-44.5 -120.5t-14 -129.5q0 -111 44 -168.5
t141 -57.5q18 0 38.5 3.5t39.5 8.5t34 12t23 13q6 34 14.5 80.5t14.5 88.5q-13 0 -33.5 -0.5t-42.5 -0.5h-40.5h-27.5l9 60h239q-5 -32 -12 -73.5t-14 -79.5q-8 -45 -16 -91q-19 -15 -45 -28.5t-56 -24t-62.5 -16.5t-64.5 -6z" />
    <glyph glyph-name="H" unicode="H" horiz-adv-x="662" 
d="M442 0l58 326q-45 0 -84.5 1t-74.5 1q-36 0 -71 -0.5t-80 -1.5q-14 -72 -27.5 -150.5t-30.5 -175.5h-95l62 350q13 72 27 153t31 181h96l-54 -302q45 -1 80 -2t72 -1q35 0 74.5 0.5t83.5 0.5q11 66 24.5 139.5t28.5 164.5h96l-62 -347q-13 -74 -27.5 -155.5t-31.5 -181.5
h-95z" />
    <glyph glyph-name="I" unicode="I" horiz-adv-x="244" 
d="M28 0l62 350q13 72 27 153t31 181h96l-62 -347q-13 -74 -27.5 -155.5t-31.5 -181.5h-95z" />
    <glyph glyph-name="J" unicode="J" horiz-adv-x="270" 
d="M46 -4q5 25 12 66t14.5 83.5t13.5 79t9 53.5q6 36 15 85t19 104t20 111t18 106h96q-20 -102 -37 -198t-29 -169q-3 -13 -9 -49.5t-13.5 -78.5t-14.5 -82t-11 -59q-13 -73 -40.5 -116t-60.5 -66t-67 -30t-58 -7q-47 0 -80.5 11t-48.5 24l39 70q17 -15 44 -32t55 -17
q24 0 42.5 4t32 16t23 34t16.5 57z" />
    <glyph glyph-name="K" unicode="K" horiz-adv-x="537" 
d="M37 0l62 350q13 72 27 153t31 181h96l-62 -347l-59 -337h-95zM611 684q-44 -46 -83.5 -87.5t-77 -80t-74.5 -75.5l-74 -74q42 -80 95.5 -171t113.5 -196h-109q-47 86 -94.5 166.5t-104.5 170.5l1 4q59 58 101.5 102t78.5 83t70 76t78 82h79z" />
    <glyph glyph-name="L" unicode="L" horiz-adv-x="461" 
d="M191 340q-6 -38 -12 -71.5t-11.5 -67t-12 -70t-13.5 -78.5q90 1 169 2.5t127 3.5l-17 -59h-384q18 101 33.5 185t27.5 157q14 73 28.5 157.5t31.5 184.5h95q-8 -44 -14.5 -82.5t-14 -79t-15.5 -84.5t-18 -98z" />
    <glyph glyph-name="M" unicode="M" horiz-adv-x="789" 
d="M561 0l62 342q11 60 24 134t26 152h-6q-29 -56 -54 -104.5t-48.5 -93.5t-46.5 -89.5t-49 -93t-55.5 -103.5t-65.5 -121h-28q-17 90 -29 166.5t-23 147.5t-22 141.5t-25 149.5h-6l-51 -277q-13 -73 -28.5 -162t-32.5 -189h-66q18 101 34.5 189.5t28.5 161.5
q14 78 29 166.5t28 166.5h143q8 -39 19.5 -103t23.5 -135t24 -139.5t20 -117.5q42 78 73 140.5t58.5 119l55 113t61.5 122.5h145q-7 -35 -15 -79t-16.5 -90.5t-16 -91.5l-13.5 -81q-14 -73 -28.5 -157.5t-31.5 -184.5h-98z" />
    <glyph glyph-name="N" unicode="N" horiz-adv-x="656" 
d="M434 0q-31 72 -63.5 159t-63.5 171t-57 158t-44 121q-3 -18 -5.5 -37t-7 -47t-11.5 -69.5t-18 -104.5q-8 -47 -15.5 -89l-15 -84t-15 -85.5t-15.5 -92.5h-66q18 101 34.5 189.5t28.5 161.5q7 39 14 82.5t13 87t10 85t3 78.5h130q32 -81 58 -150.5t51 -135.5t50 -132.5
t55 -141.5q5 26 10 57t10.5 61.5t10 59t8.5 49.5q14 74 27.5 153.5t30.5 179.5h66l-60 -333q-13 -73 -28.5 -162t-32.5 -189h-92z" />
    <glyph glyph-name="O" unicode="O" horiz-adv-x="677" 
d="M395 696q54 0 101 -19t81 -55t53.5 -88t19.5 -118q0 -93 -27.5 -171.5t-74.5 -135.5t-110.5 -89t-136.5 -32q-55 0 -101.5 19t-80.5 55t-53.5 88t-19.5 118q0 93 27 171.5t74.5 135.5t111 89t136.5 32zM304 42q61 0 107.5 36t78 92t47 124t15.5 131q0 102 -40 159
t-121 57q-62 0 -108 -36t-77 -91.5t-46.5 -123.5t-15.5 -131q0 -103 39.5 -160t120.5 -57z" />
    <glyph glyph-name="P" unicode="P" horiz-adv-x="556" 
d="M37 0q18 101 34 189.5t28 161.5q14 74 27.5 153.5t30.5 179.5h202q48 0 84 -13t59.5 -36t35 -54.5t11.5 -68.5q0 -54 -17.5 -98.5t-54.5 -76.5t-93 -49.5t-132 -17.5h-72q-10 -61 -22 -128.5t-24 -141.5h-97zM190 320h76q96 0 142 48.5t46 139.5q0 31 -6.5 54t-22 38.5
t-42.5 23.5t-67 8q-26 0 -39.5 -0.5t-31.5 -3.5l-50 -277z" />
    <glyph glyph-name="Q" unicode="Q" horiz-adv-x="657" 
d="M385 696q55 0 101.5 -19t80.5 -55t53.5 -88t19.5 -118q0 -84 -23 -156.5t-62.5 -128t-93.5 -91.5t-117 -46l-80 -48v-5q50 -1 100 -13.5t96.5 -30.5t88.5 -39.5t76.5 -39.5t60.5 -30t40 -12q25 0 41.5 11.5t26.5 29t14.5 37.5t5.5 38l54 -17q-5 -27 -17.5 -55t-34 -51
t-53.5 -37.5t-77 -14.5q-32 0 -70.5 13.5t-79.5 33.5t-82.5 43t-81 43t-74.5 33.5t-62 13.5q-26 0 -50.5 -7.5t-43.5 -16.5q-22 -11 -42 -24l-27 55q45 11 74 23.5t52 23.5q11 6 27 17t33 22q-48 6 -88.5 27t-70 56.5t-46.5 84.5t-17 110q0 93 27 171.5t74 135.5t110.5 89
t136.5 32zM295 42q61 0 107.5 36t78 92t47 124t15.5 131q0 102 -40 159t-121 57q-62 0 -108 -36t-77.5 -91.5t-47 -123.5t-15.5 -131q0 -103 40 -160t121 -57z" />
    <glyph glyph-name="R" unicode="R" horiz-adv-x="542" 
d="M28 0l61 342q13 73 27.5 157.5t31.5 184.5h183q97 0 149 -35.5t52 -121.5q0 -31 -10 -61.5t-30 -57.5t-50 -47.5t-71 -32.5q13 -33 31 -76t37 -88t38 -88t34 -76h-110q-13 35 -29 74.5t-33.5 79.5t-34 79t-31.5 73h-95l-53 -306h-97zM237 638q-14 -81 -26.5 -151.5
t-23.5 -133.5h79q90 0 130.5 44.5t40.5 129.5q0 56 -27.5 86.5t-102.5 30.5q-23 0 -38.5 -2t-31.5 -4z" />
    <glyph glyph-name="S" unicode="S" horiz-adv-x="500" 
d="M218 -11q-27 0 -55 4.5t-54.5 13.5t-50 21t-40.5 27l34 91q16 -29 37 -49t44 -32.5t47 -18t47 -5.5q40 0 67 8.5t42.5 24t22 37t6.5 47.5q0 22 -6.5 40t-21.5 36.5t-40 41t-62 53.5q-26 21 -48 42t-38 43.5t-25.5 47.5t-9.5 55q0 50 18 84t47 55t65 30.5t73 9.5
q60 0 98 -12.5t67 -32.5l-31 -87q-23 34 -55 55.5t-86 21.5q-51 0 -82 -20t-31 -65q0 -22 5 -38.5t16.5 -33t30 -34t44.5 -41.5q41 -36 71.5 -62t50.5 -50t30 -50.5t10 -64.5q0 -37 -12.5 -72t-41 -62t-73.5 -43t-110 -16z" />
    <glyph glyph-name="T" unicode="T" horiz-adv-x="542" 
d="M605 624q-12 1 -33.5 1.5t-46 0.5h-49.5h-46h-45l-52 -284q-13 -73 -27.5 -157.5t-31.5 -184.5h-97q18 101 33 185t27 157q11 62 23.5 132.5t26.5 151.5h-45h-47.5h-53.5t-50 -0.5t-36 -1.5l12 61q26 -1 69.5 -1.5t86.5 -0.5h78h44h42.5h75t83.5 0.5t69 1.5z" />
    <glyph glyph-name="U" unicode="U" horiz-adv-x="676" 
d="M594 224q-20 -118 -91 -177t-188 -59q-57 0 -103 11.5t-79 35.5t-51 61.5t-17 90.5q0 54 11 103t21 107q6 36 11.5 67t11 63t12 69.5t14.5 87.5h98l-52 -287q-8 -47 -19 -101.5t-11 -105.5q-1 -77 39 -113.5t115 -36.5q95 0 146 43.5t67 132.5q4 26 7.5 45.5t6.5 36.5
t6.5 34t7.5 38q6 36 12 71t12.5 72.5t13 79t14.5 91.5h67l-47 -266q-6 -36 -12.5 -71t-11.5 -62q-6 -33 -11 -61z" />
    <glyph glyph-name="V" unicode="V" horiz-adv-x="569" 
d="M270 144q38 66 73.5 129t71.5 127.5t74 134t81 149.5h70q-55 -99 -105 -188t-97 -172.5t-92 -163t-90 -160.5h-55q-26 170 -48.5 337t-47.5 347h100q8 -73 17 -147.5t18 -145t16.5 -134t13.5 -113.5z" />
    <glyph glyph-name="W" unicode="W" horiz-adv-x="880" 
d="M577 154q39 74 72.5 134t66.5 120t67.5 125.5t75.5 150.5h67q-56 -110 -104 -198.5t-93 -168t-88.5 -156t-90.5 -161.5h-51l-39 447q-32 -59 -62.5 -114.5t-61 -110t-61 -109.5t-62.5 -113h-44q-8 104 -13.5 188t-11.5 162t-13.5 158t-17.5 176h96q6 -79 11 -148
t9.5 -133.5t8.5 -125.5t8 -123q31 58 56.5 106t50 92.5t49 90.5t53.5 101q-2 33 -4.5 69t-5.5 71h95q6 -82 11 -153t9 -135.5t8 -124t9 -117.5z" />
    <glyph glyph-name="X" unicode="X" horiz-adv-x="562" 
d="M-18 0q70 87 144 173.5t134 157.5q-34 72 -74 165t-85 188h101q21 -44 37.5 -81.5t31 -71t28 -64t28.5 -61.5q55 68 105 135.5t109 142.5h83q-77 -93 -146 -178.5t-128 -154.5q33 -73 74 -165.5t86 -185.5h-103l-124 276q-47 -57 -102 -128t-115 -148h-84z" />
    <glyph glyph-name="Y" unicode="Y" horiz-adv-x="513" 
d="M149 0q15 88 28 158t24 135q-18 57 -32 101.5t-28 88t-29.5 91t-35.5 110.5h102q16 -56 29.5 -99.5t25.5 -81.5t24 -74t25 -78q28 43 54.5 83.5t52 81t51 82t52.5 86.5h78q-40 -57 -74.5 -106.5t-67.5 -96t-65.5 -92.5t-68.5 -98q-11 -65 -23.5 -135t-26.5 -156h-95z" />
    <glyph glyph-name="Z" unicode="Z" horiz-adv-x="523" 
d="M443 627q-45 0 -96 -0.5t-98 -1.5t-87 -1.5t-64 -1.5l18 65q23 -1 42.5 -1.5t39.5 -1t42.5 -0.5h52.5h284l8 -25q-63 -77 -121.5 -152t-115.5 -149.5t-113.5 -149.5t-115.5 -151q45 1 96.5 1.5t100.5 1.5t90 1.5t65 1.5l-18 -65q-28 0 -56 1q-24 0 -53 0.5t-56 0.5h-299
l-2 31q12 13 44.5 53.5t76 96.5t93.5 121t96.5 127t85 114.5t60.5 83.5z" />
    <glyph glyph-name="bracketleft" unicode="[" horiz-adv-x="332" 
d="M18 -129q9 51 20 110t21 117t19.5 110t15.5 88t15.5 88.5t19.5 110.5t20 116.5t18 108.5l257 1l-7 -43q-19 1 -41 1.5t-45 1t-45.5 0.5t-42.5 -1l-69 -384q-6 -33 -14 -79.5t-17 -98.5t-18 -105.5t-16 -100.5q19 -1 41.5 -1t46 0.5t45.5 1t41 1.5l-7 -44z" />
    <glyph glyph-name="backslash" unicode="\" horiz-adv-x="286" 
d="M91 726q9 -51 20 -111t22 -119t21.5 -112t18.5 -92q7 -38 18 -94t24.5 -119t27 -126.5t25.5 -116.5l-63 -9q-8 51 -20 115.5t-25 129t-24 122.5t-18 96q-8 37 -18.5 88.5t-23 108.5t-25 116t-23.5 112z" />
    <glyph glyph-name="bracketright" unicode="]" horiz-adv-x="351" 
d="M323 720q-9 -50 -20 -109t-21 -117t-19.5 -110t-15.5 -89q-6 -36 -15.5 -88t-19 -110t-19.5 -117t-18 -109l-258 -1l8 44q38 -2 85.5 -3t87.5 1l69 383q6 33 14 80t17 99t18 105.5t16 100.5q-19 1 -41.5 1t-45.5 -0.5t-45.5 -1t-41.5 -1.5l7 43z" />
    <glyph glyph-name="asciicircum" unicode="^" horiz-adv-x="484" 
d="M281 715q26 -51 47 -90.5t41.5 -77t43.5 -78.5t53 -94l-43 -23q-23 45 -42.5 83.5t-38.5 74.5t-39 72.5t-43 78.5h-1q-20 -39 -40 -75t-40 -73t-40.5 -76.5t-42.5 -84.5l-41 25q29 54 51.5 94.5t43 78t41.5 76.5t47 89h43v0z" />
    <glyph glyph-name="underscore" unicode="_" horiz-adv-x="388" 
d="M-37 -106h398v-45h-398v45z" />
    <glyph glyph-name="grave" unicode="`" 
d="M190 530q-10 38 -17 79.5t-18 83.5l69 12q2 -24 3 -44t2 -39t2.5 -39.5t4.5 -47.5z" />
    <glyph glyph-name="a" unicode="a" horiz-adv-x="518" 
d="M391 400q-8 20 -27.5 31.5t-43.5 11.5q-51 0 -88 -28t-61.5 -70t-36.5 -92.5t-12 -95.5q0 -56 27.5 -84.5t65.5 -28.5q37 0 66 16.5t46 36.5zM496 477q-9 -35 -18 -75q-8 -34 -17 -76.5t-17 -87.5q-5 -29 -11.5 -61t-13 -63.5t-12.5 -60.5t-10 -53h-83l10 55h-5
q-11 -11 -26 -23t-33.5 -21.5t-39 -15.5t-42.5 -6q-32 0 -58 11t-45 31t-30 48t-12 63q-2 59 17.5 119.5t56.5 109.5t90.5 80t118.5 31q26 0 56 -10.5t45 -28.5h3l58 39z" />
    <glyph glyph-name="b" unicode="b" horiz-adv-x="527" 
d="M203 443q29 17 68.5 28t73.5 11q39 0 68 -13t48.5 -36.5t29 -56t9.5 -70.5q0 -60 -18 -117.5t-54 -101.5t-89 -71t-122 -27q-39 0 -74 15t-49 32h-5q-17 -11 -28.5 -19.5t-23.5 -16.5h-19l78 345q15 72 25.5 124.5t19 93t14.5 72.5t12 63l94 18zM129 87q16 -24 37 -41
t56 -17q51 0 87 21.5t59 59t33.5 88t10.5 108.5q0 25 -6 48t-18.5 40t-31 27t-42.5 10q-42 0 -69 -6.5t-50 -20.5z" />
    <glyph glyph-name="c" unicode="c" horiz-adv-x="401" 
d="M212 50q52 0 86.5 20t63.5 46l23 -28q-15 -18 -34.5 -36t-43.5 -32t-52.5 -22.5t-61.5 -8.5q-82 0 -123.5 49t-41.5 137q0 62 20.5 118t56.5 98t85 66.5t107 24.5q38 0 65.5 -7t47.5 -18l-31 -68q-20 26 -40.5 39.5t-49.5 13.5q-41 0 -73 -22t-54 -58.5t-34 -83
t-12 -94.5q0 -26 4 -50t15 -42.5t29.5 -30t47.5 -11.5z" />
    <glyph glyph-name="d" unicode="d" horiz-adv-x="509" 
d="M447 699l94 17l-103 -478q-2 -14 -6 -32q-3 -15 -6.5 -35.5t-8.5 -43.5q-3 -15 -5.5 -24.5t-4.5 -21t-5.5 -29.5t-9.5 -52h-85l11 55h-4q-12 -12 -25 -24t-28.5 -21.5t-35.5 -15t-46 -5.5q-32 0 -59 10t-47 30.5t-31.5 50.5t-12.5 71q-2 59 16.5 118t54.5 106.5t88 77
t117 29.5q66 0 94 -17zM385 400q-8 15 -29 29t-52 14q-47 0 -82 -26t-58 -66t-34.5 -88.5t-11.5 -93.5q0 -39 8.5 -63t22 -38t30 -19t33.5 -5q42 0 69.5 20.5t41.5 48.5z" />
    <glyph glyph-name="e" unicode="e" horiz-adv-x="414" 
d="M251 252q-9 -3 -25.5 -8t-35 -10t-38 -10.5t-34.5 -8.5q-1 -10 -1.5 -19t-0.5 -18q0 -66 27 -96.5t71 -30.5q42 0 82 18.5t66 47.5l23 -27q-17 -18 -37 -36.5t-44.5 -32.5t-55 -23t-68.5 -9q-72 0 -111.5 46t-40.5 134q0 59 20 115.5t54.5 100.5t82 70.5t101.5 26.5
q63 0 92.5 -26.5t29.5 -74.5q0 -42 -42.5 -73t-114.5 -56zM274 442q-26 0 -49 -15.5t-42 -41t-33.5 -58.5t-23.5 -67q13 3 30.5 8t34 10t30.5 9.5t21 7.5q38 17 62 34.5t24 45.5q0 27 -11 47t-43 20z" />
    <glyph glyph-name="f" unicode="f" horiz-adv-x="307" 
d="M60 -52q20 121 35.5 239.5t34.5 235.5h-76l3 13l80 29l7 43q19 106 78.5 157.5t139.5 51.5q36 0 55.5 -4.5t36.5 -12.5l-21 -57q-15 14 -33.5 22t-51.5 8q-26 0 -45.5 -11t-32.5 -30t-21 -43t-12 -50l-10 -69h119l-10 -47h-116q-10 -66 -17.5 -116.5t-14 -92t-12.5 -77
t-12 -72.5q-9 -53 -22 -100.5t-35 -83.5t-55 -57.5t-82 -21.5q-23 0 -43 4.5t-37 12.5l20 53q29 -25 68 -25q23 0 37 7t23 20t13.5 31.5t8.5 42.5z" />
    <glyph glyph-name="g" unicode="g" horiz-adv-x="491" 
d="M491 486q-9 -40 -18 -82q-8 -36 -17.5 -80t-17.5 -86q-7 -39 -15 -77q-7 -32 -14.5 -68.5t-13.5 -64.5q-12 -53 -31 -95t-49.5 -71t-74 -45t-105.5 -16q-21 0 -43.5 2.5t-42 6.5t-35 8.5t-23.5 8.5l20 63q7 -7 20 -14.5t29.5 -14t35.5 -11t38 -4.5q64 0 104 23t51 75
l23 100h-5q-42 -55 -132 -55q-32 0 -58 11t-45 31t-30 48t-12 63q-2 59 16 119.5t53.5 109.5t87.5 80t117 31q13 0 29 -2.5t31.5 -8t28.5 -12.5t21 -16h4l40 43h33zM386 400q-8 20 -31 31.5t-47 11.5q-51 0 -86.5 -28t-58 -70t-33 -92.5t-10.5 -95.5q0 -56 27 -84.5
t66 -28.5q36 0 64 16.5t45 36.5z" />
    <glyph glyph-name="h" unicode="h" horiz-adv-x="525" 
d="M71 236q5 26 13.5 66.5t18.5 87t19.5 95.5t18.5 91.5t15 74.5t9 46l97 19q-1 -6 -6 -29t-12 -54.5t-14.5 -66.5t-14.5 -66t-11.5 -53t-5.5 -27h3q12 10 24 18t23 14q29 14 54 22t60 8q62 0 92 -32t28 -81q-1 -15 -1.5 -26t-4.5 -31l-22 -99q-9 -39 -14 -65t-9.5 -48
t-8.5 -45t-11 -55h-93q7 32 13.5 58.5t12.5 53t12.5 56t14.5 68.5q7 31 15 64.5t8 67.5q-1 27 -16 41t-50 14q-29 0 -67.5 -12t-74.5 -41l-33 -155q-8 -39 -13.5 -65t-9.5 -48.5t-8.5 -46t-11.5 -55.5h-92q7 32 13.5 58.5t12.5 53t12.5 56t14.5 68.5z" />
    <glyph glyph-name="i" unicode="i" horiz-adv-x="224" 
d="M75 256q8 39 13.5 66t9.5 49t8 42.5t9 44.5l95 19q-13 -58 -27 -119l-28 -122q-8 -39 -14 -68.5t-11 -56l-10 -53t-11 -58.5h-91zM138 652q0 22 15 37.5t37 15.5q21 0 36.5 -15.5t15.5 -37.5q0 -21 -15.5 -36t-36.5 -15q-22 0 -37 15t-15 36z" />
    <glyph glyph-name="j" unicode="j" horiz-adv-x="235" 
d="M149 652q0 22 15 37.5t37 15.5q21 0 36.5 -15.5t15.5 -37.5q0 -21 -15.5 -36t-36.5 -15q-22 0 -37 15t-15 36zM17 -53q9 31 17.5 69t17 78.5t17 81.5t17.5 80q8 39 13.5 66t9.5 49t8 42.5t9 44.5l95 19q-13 -58 -27 -119t-27 -122q-9 -39 -13 -58.5t-7 -34t-6 -30.5
l-9 -48q-9 -53 -28 -100.5t-47.5 -83t-67.5 -56.5t-88 -21q-23 0 -48 4.5t-42 12.5l21 62q15 -13 32 -23.5t36 -10.5q53 0 78.5 23.5t38.5 74.5z" />
    <glyph glyph-name="k" unicode="k" horiz-adv-x="428" 
d="M100 375q8 39 17.5 85t18.5 90.5t17 83.5t14 63l96 19q-6 -29 -16 -74.5t-21 -94.5t-21.5 -95t-16.5 -77q-8 -39 -19 -90t-21.5 -103.5t-20.5 -101t-17 -80.5h-92zM304 0q-20 42 -34.5 70.5t-28 54.5t-29.5 53.5t-39 67.5q28 30 51.5 53t48 47.5t53 53.5t66.5 70h73
q-38 -36 -67.5 -63.5t-54 -50t-45.5 -42t-43 -40.5q22 -39 37.5 -69t31.5 -59t34.5 -63.5t45.5 -82.5h-100z" />
    <glyph glyph-name="l" unicode="l" horiz-adv-x="230" 
d="M100 375q8 39 17.5 85t18.5 90.5t17 83.5t14 63l96 19q-6 -29 -16 -74.5t-21 -94.5t-21.5 -95t-16.5 -77q-8 -39 -19 -90t-21.5 -103.5t-20.5 -101t-17 -80.5h-92l82 375v0z" />
    <glyph glyph-name="m" unicode="m" horiz-adv-x="803" 
d="M473 369q-1 -15 -1.5 -26t-5.5 -31l-22 -99q-8 -39 -13 -65t-9.5 -48t-8.5 -45t-11 -55h-93l53 236q7 31 15 64.5t8 67.5q-1 27 -11.5 41t-45.5 14q-29 0 -67.5 -13t-74.5 -40l-33 -155q-8 -39 -13.5 -65t-9.5 -48.5t-8.5 -46t-11.5 -55.5h-92q7 32 13.5 58.5t12.5 53
t12.5 56t14.5 68.5q16 77 25 126t16 90l88 18q-4 -17 -6 -29t-4 -23h3q15 10 27.5 17.5t24.5 12.5q28 14 55 24t62 10q48 0 73 -19.5t33 -51.5h2q17 11 39 23.5t34 18.5q26 12 49 20.5t57 8.5q62 0 87.5 -32t23.5 -81q-1 -15 -1.5 -26t-5.5 -31l-22 -99q-8 -39 -13 -65
t-9.5 -48t-8.5 -45t-11 -55h-93q7 32 13 58.5l12 53t13 56t15 68.5q7 31 15 64.5t8 67.5q-1 27 -11.5 41t-45.5 14q-29 0 -67.5 -13t-74.5 -40v-1z" />
    <glyph glyph-name="n" unicode="n" horiz-adv-x="525" 
d="M71 236q16 77 25 126t16 90l88 18q-4 -17 -6 -29t-4 -23h3q15 10 32 20t29 16q28 13 50.5 20.5t57.5 7.5q62 0 92 -32t28 -81q-1 -15 -1.5 -26t-4.5 -31l-22 -99q-9 -39 -14 -65t-9.5 -48t-8.5 -45t-11 -55h-93q7 32 13.5 58.5t12.5 53t12.5 56t14.5 68.5q7 31 15 64.5
t8 67.5q-1 27 -16 41t-50 14q-29 0 -67.5 -13t-74.5 -40l-33 -155q-8 -39 -13.5 -65t-9.5 -48.5t-8.5 -46t-11.5 -55.5h-92q7 32 13.5 58.5t12.5 53t12.5 56t14.5 68.5z" />
    <glyph glyph-name="o" unicode="o" horiz-adv-x="507" 
d="M224 30q45 0 76 25t50 64.5t27.5 87.5t8.5 95q0 73 -30.5 106t-72.5 34q-45 0 -76 -25t-50 -65t-27.5 -88.5t-8.5 -94.5q0 -73 30 -106t73 -33zM291 482q80 0 131 -47t53 -142q0 -59 -18.5 -114t-52 -97t-81.5 -67.5t-107 -25.5q-80 0 -131 47t-53 142q0 59 18 114t52 97
t82 67.5t107 25.5z" />
    <glyph glyph-name="p" unicode="p" horiz-adv-x="522" 
d="M193 414q30 35 70.5 51.5t75.5 16.5q155 0 155 -185q0 -60 -19.5 -116t-56 -98.5t-89 -68t-118.5 -25.5q-27 0 -55.5 7.5t-46.5 20.5l-45 -211h-92q7 31 18 79.5t22.5 100.5t22 101.5l17.5 82.5q8 37 18 86.5t19 94.5q11 52 21 106l94 13zM186 374q-8 -35 -13.5 -60.5
t-12 -55.5t-14.5 -69.5t-21 -102.5q7 -12 17.5 -22.5t23 -18t25.5 -12t25 -4.5q51 0 87 20t59 56t34 85t11 107q0 66 -27 100t-76 34q-29 0 -60 -12t-58 -45z" />
    <glyph glyph-name="q" unicode="q" horiz-adv-x="481" 
d="M375 400q-8 20 -26 31.5t-43 11.5q-51 0 -88 -28t-61 -70t-36 -92.5t-12 -95.5q0 -56 27 -84.5t65 -28.5q37 0 66 16.5t46 36.5zM429 238q-5 -19 -12.5 -53t-16 -75t-17 -86t-16 -87t-13.5 -77t-8 -55h-85l49 250h-5q-11 -11 -26 -23t-33 -21.5t-39 -15.5t-43 -6
q-32 0 -58 11t-45 31t-30 48t-12 63q-2 59 17.5 119.5t56.5 109.5t90.5 80t118.5 31q27 0 56.5 -10.5t44.5 -28.5h4l58 39l17 -5z" />
    <glyph glyph-name="r" unicode="r" horiz-adv-x="317" 
d="M188 385q31 44 62 70.5t74 26.5q21 0 42 -8l-31 -79q-9 6 -19.5 10t-29.5 4q-25 0 -53 -20t-51 -52l-28 -129l-44 -208h-92q7 32 13.5 58.5t12.5 53t12.5 56t14.5 68.5q16 77 26.5 126.5t16.5 89.5l89 18q-3 -20 -8.5 -44t-9.5 -41h3z" />
    <glyph glyph-name="s" unicode="s" horiz-adv-x="353" 
d="M135 -11q-48 0 -86 12.5t-67 36.5l32 63q25 -33 58 -49t68 -16q51 0 75.5 22.5t24.5 49.5q0 18 -5.5 30.5t-16.5 24.5t-28 25t-39 31q-18 14 -34 27t-27.5 27.5t-18.5 33t-7 44.5q0 27 10.5 51t30.5 41.5t49.5 28t67.5 10.5q35 0 67 -7t50 -21l-31 -65q-13 23 -35.5 36
t-58.5 13q-33 0 -55 -12.5t-22 -45.5q0 -27 17 -46t46 -41q26 -20 47 -36.5t35.5 -33t22.5 -35.5t7 -44q-1 -31 -13 -59t-35 -49.5t-55.5 -34t-73.5 -12.5z" />
    <glyph glyph-name="t" unicode="t" horiz-adv-x="307" 
d="M326 470l-16 -47h-116l-36 -157q-7 -29 -12 -56q-5 -23 -10 -48t-8 -42q-7 -35 2 -57t46 -22q28 0 56.5 5t45.5 15l4 -27q-12 -14 -53 -29.5t-97 -15.5q-27 0 -47 10.5t-32 28t-15.5 41t2.5 50.5l35 156l30 148h-65l2 12q24 18 44.5 35t39 34t37.5 35.5t40 40.5h22
l-24 -110h125z" />
    <glyph glyph-name="u" unicode="u" horiz-adv-x="506" 
d="M439 234q-8 -39 -14.5 -69t-11.5 -57t-9 -53t-8 -55h-91q5 20 7.5 33.5t6.5 27.5h-3q-15 -17 -35 -31t-43.5 -23.5t-49 -14.5t-49.5 -5q-62 0 -87 31t-23 80q0 8 0.5 16t3 24t8 43.5t15.5 74.5q8 39 13.5 65t10 48.5t9 45.5t10.5 55h93q-7 -32 -13 -58.5l-12 -53t-13 -56
t-15 -68.5q-7 -32 -14 -67t-7 -69q1 -27 14.5 -42t48.5 -15q15 0 32.5 3.5t37 12t39 23t37.5 36.5l30 138q8 39 13.5 65.5t10 49.5l9 46t10.5 55h92q-7 -32 -13 -58.5l-12 -53t-13 -56t-15 -68.5z" />
    <glyph glyph-name="v" unicode="v" horiz-adv-x="391" 
d="M446 470q-39 -68 -69.5 -121.5t-60 -106t-61 -110t-72.5 -132.5h-65q-15 77 -27.5 138t-23 115t-20 106t-19.5 111h90q8 -54 15.5 -101t15 -91.5t15 -88.5t16.5 -92q29 52 55.5 99t51.5 91.5t48.5 89.5t47.5 93h63z" />
    <glyph glyph-name="w" unicode="w" horiz-adv-x="634" 
d="M671 470q-33 -66 -60 -119.5t-54 -106t-57.5 -110.5t-69.5 -134h-64q-6 60 -11.5 104.5t-10 82t-8.5 73.5t-8 80h-2q-19 -41 -35 -74.5t-33.5 -71t-39 -83.5t-51.5 -111h-63q-7 65 -13.5 118.5t-12.5 106.5t-12.5 111.5t-14.5 133.5h88q4 -53 8 -98.5t8.5 -88.5t8.5 -87
t9 -94h3q27 59 46.5 102t36.5 82.5t35 82t42 101.5l1 -1v1h60l39 -371h3l177 371h55z" />
    <glyph glyph-name="x" unicode="x" horiz-adv-x="385" 
d="M256 0q-24 51 -44 96t-38 85q-19 -24 -35.5 -45l-33 -42t-33.5 -43.5t-36 -50.5h-64q30 36 54 65t45.5 55t42 51.5t41.5 52.5l-2 4q-15 32 -27.5 59t-25 54.5t-27 58.5t-33.5 70h92q23 -47 43 -91.5t41 -92.5q22 27 40.5 49t35 43t32.5 43t35 49h63q-28 -34 -50.5 -61.5
t-44 -53t-43 -52.5t-48.5 -59q29 -65 60.5 -129t54.5 -115h-95z" />
    <glyph glyph-name="y" unicode="y" horiz-adv-x="419" 
d="M-92 -144q30 13 57 27t53.5 30t53 35t53.5 44q-10 78 -18 140.5t-17 118t-19 108t-24 111.5h90q20 -98 36.5 -199.5t27.5 -204.5q70 88 111.5 189t61.5 215h72q-27 -105 -66 -200t-99 -179t-145 -155.5t-205 -130.5l-23 51v0z" />
    <glyph glyph-name="z" unicode="z" horiz-adv-x="420" 
d="M80 419l16 51h348l3 -21q-65 -73 -111 -126t-84 -98t-73.5 -87t-79.5 -93q45 1 82 2t67.5 1.5t56.5 1.5t50 2l-15 -52h-358l1 25q47 49 95.5 106t93.5 112t83.5 103t65.5 80z" />
    <glyph glyph-name="braceleft" unicode="{" horiz-adv-x="356" 
d="M50 314q19 -1 30.5 -1.5t25.5 -0.5q30 0 54 19.5t24 57.5q0 22 -0.5 39.5t-1 32t-1 28.5t-0.5 30q0 48 13.5 82.5t38.5 58t60 36.5t79 19l58 6l-4 -40l-64 -8q-28 -4 -46 -14.5t-28.5 -27t-15 -38t-4.5 -46.5q0 -12 -1.5 -22t-3 -22.5t-2.5 -29.5t-1 -42
q0 -57 -33.5 -92.5t-85.5 -42.5l-1 -7q41 -10 58.5 -31t17.5 -58q0 -26 -9 -52t-19.5 -53.5t-19.5 -56.5t-9 -59q0 -11 2 -22t8 -20.5t16.5 -16t27.5 -7.5l63 -7l-10 -39q-12 1 -29 1.5t-36 2.5q-27 4 -49 12.5t-37 23.5t-23.5 38.5t-8.5 56.5q0 25 10.5 51.5t22.5 54.5
t22.5 57t10.5 59q0 16 -5.5 25.5t-14 15t-18.5 7t-20 1.5q-13 0 -22.5 -0.5t-27.5 -1.5z" />
    <glyph glyph-name="bar" unicode="|" horiz-adv-x="236" 
d="M92 -133q1 50 1.5 109.5t1 118t0.5 111.5v89v88.5t-0.5 111t-1 117.5t-1.5 109h70q-1 -50 -1.5 -109.5t-1 -117.5t-0.5 -110.5v-88.5v-89t0.5 -112t1 -118.5t1.5 -108.5h-70z" />
    <glyph glyph-name="braceright" unicode="}" horiz-adv-x="351" 
d="M316 274q-20 1 -31.5 1.5t-25.5 0.5q-30 0 -54 -19.5t-24 -57.5q0 -23 0.5 -40t1 -31.5t1 -28.5t0.5 -30q0 -48 -13.5 -82.5t-38.5 -58t-60 -36.5t-78 -19l-58 -6l3 40l65 8q55 8 74.5 41t19.5 84q0 12 1 22.5t2.5 23t2.5 29.5t1 42q0 57 33.5 92t85.5 43l1 7
q-41 10 -58.5 31t-17.5 58q0 25 9 51.5t19.5 54t19.5 56.5t9 59q0 22 -10 42.5t-44 23.5l-63 7l10 39q12 -2 29 -2t37 -2q27 -4 48.5 -12.5t36.5 -23.5t23.5 -38.5t8.5 -56.5q0 -25 -10.5 -51.5t-22.5 -54.5t-22.5 -57.5t-10.5 -59.5q0 -16 5.5 -25.5t14 -14.5t18.5 -6.5
t20 -1.5q14 0 23 0.5t27 0.5z" />
    <glyph glyph-name="asciitilde" unicode="~" horiz-adv-x="498" 
d="M373 242q24 0 35 16t7 59l51 -17q-11 -57 -44 -86t-78 -29q-25 0 -52.5 12t-50.5 26q-20 11 -45 24t-46 13q-13 0 -24 -4.5t-19 -14t-11.5 -25t-1.5 -36.5l-48 18q11 57 49 88t83 31q25 0 48 -9.5t44 -22.5q12 -6 26 -13.5t28 -14t27 -11t22 -4.5z" />
    <glyph glyph-name="exclamdown" unicode="&#xa1;" horiz-adv-x="252" 
d="M199 497q-16 -121 -33.5 -240.5t-39.5 -255.5l-89 -7q16 72 29 135t25.5 123t24.5 119.5t27 125.5h56zM252 631q0 -23 -16.5 -40t-39.5 -17t-40 17t-17 40t17 39.5t40 16.5t39.5 -16.5t16.5 -39.5z" />
    <glyph glyph-name="cent" unicode="&#xa2;" horiz-adv-x="420" 
d="M153 -110l23 101q-71 8 -109.5 55.5t-38.5 128.5q0 60 18.5 114t52 95.5t80 67t101.5 29.5l15 83h50l-19 -83q27 -3 47 -9.5t37 -14.5l-31 -68q-15 19 -30 31.5t-33 17.5l-40 -188q-10 -44 -20.5 -94t-21.5 -106q22 1 40 7t33 15t28 20.5t27 23.5l23 -28
q-29 -35 -67.5 -64t-95.5 -34l-20 -100h-49zM116 184q0 -22 4 -43t13 -38.5t23 -30.5t34 -19q11 55 21.5 104.5t20.5 92.5q10 48 19.5 93t19.5 97q-36 -5 -65 -28.5t-49 -59t-30.5 -79.5t-10.5 -89z" />
    <glyph glyph-name="sterling" unicode="&#xa3;" horiz-adv-x="506" 
d="M15 0l-6 6q29 39 47.5 73.5t30.5 68.5t19 67.5t13 69.5q4 24 5.5 34t2 13l0.5 3l0.5 5.5t3 21t7.5 48.5q12 77 35.5 131t57 88.5t76.5 50.5t93 16q42 0 74 -7.5t50 -15.5l-42 -81q-7 10 -15 20t-19.5 17.5t-28 12t-40.5 4.5q-56 0 -87.5 -37t-44.5 -119q-7 -39 -10.5 -59
t-5 -30t-3 -16.5t-3.5 -18.5l192 3l-20 -63l-182 2q-5 -29 -11 -61.5t-16 -66t-26.5 -66t-41.5 -61.5q45 1 92.5 1.5t91.5 1.5t81 1.5t60 1.5l-14 -59h-416z" />
    <glyph glyph-name="yen" unicode="&#xa5;" horiz-adv-x="556" 
d="M185 0l36 197l-165 -3l8 49q58 -2 96.5 -2.5t68.5 -0.5l10 53q-1 5 -2 14t-3 14l-154 -2l7 49l133 -1q-12 42 -23.5 76.5t-24 70t-26 76t-29.5 94.5h90q16 -56 28.5 -99t23.5 -81.5t23 -77t26 -86.5q61 95 112 177.5t103 166.5h66q-33 -47 -60.5 -88t-53 -79t-49.5 -74.5
t-50 -75.5q29 0 62 1t74 3l-8 -52h-160l-16 -28q-4 -17 -5.5 -25.5l-4.5 -25.5q33 0 74 0.5t97 2.5l-9 -49q-57 0 -98.5 0.5t-73.5 1.5l-34 -196h-89z" />
    <glyph glyph-name="brokenbar" unicode="&#xa6;" horiz-adv-x="236" 
d="M92 -133q1 22 1.5 49t1 53.5t0.5 50v40.5v38t-0.5 47l-1 50t-1.5 48h70q-1 -23 -1.5 -48.5t-1 -50t-0.5 -46.5v-38v-40.5t0.5 -50t1 -53.5t1.5 -49h-70zM92 345q1 23 1.5 49t1 51t0.5 47.5v39.5v39t-0.5 49l-1 52t-1.5 49h70q-1 -23 -1.5 -49l-1 -52t-0.5 -49v-39v-39.5
t0.5 -48t1 -51.5t1.5 -48h-70z" />
    <glyph glyph-name="section" unicode="&#xa7;" horiz-adv-x="421" 
d="M310 696q27 0 46.5 -2.5t35.5 -8.5t29.5 -15t27.5 -21l-41 -56q-22 30 -48 40.5t-60 10.5q-46 0 -71.5 -23.5t-25.5 -60.5q0 -13 2 -27.5t10 -31.5t24 -39t44 -50q29 -29 51 -51.5t36.5 -43t21.5 -42.5t7 -49q0 -47 -23.5 -83.5t-67.5 -60.5q17 -21 25 -44.5t8 -59.5
q0 -41 -16.5 -73t-44.5 -54.5t-63.5 -34t-72.5 -11.5q-54 0 -95 17.5t-67 46.5l44 59q20 -37 51.5 -54t66.5 -17q22 0 44.5 5.5t40 17t28.5 29.5t11 43q0 22 -7 38t-21.5 33t-37.5 38t-55 53q-29 29 -50.5 52.5t-35.5 45.5t-21.5 44.5t-7.5 49.5q0 51 27.5 88.5t78.5 60.5
q-10 20 -13 38.5t-3 39.5q0 33 14 62.5t39 52t59.5 35.5t75.5 13zM195 193q26 -26 46.5 -45t37.5 -35q26 14 36.5 33t10.5 45q0 17 -6 32.5t-17 32t-28 35.5t-39 42q-51 49 -76 85q-31 -12 -42.5 -30.5t-11.5 -46.5q0 -35 22 -68t67 -80z" />
    <glyph glyph-name="dieresis" unicode="&#xa8;" horiz-adv-x="362" 
d="M110 621q0 20 14 34.5t34 14.5t34.5 -14.5t14.5 -34.5t-14.5 -34t-34.5 -14t-34 14t-14 34zM284 621q0 20 14 34.5t34 14.5t34.5 -14.5t14.5 -34.5t-14.5 -34t-34.5 -14t-34 14t-14 34z" />
    <glyph glyph-name="copyright" unicode="&#xa9;" horiz-adv-x="862" 
d="M37 229q0 82 31 154.5t84 126.5t125 85t154 31t154 -31t125 -85t84 -126.5t31 -154.5t-31 -154t-84 -126t-125 -85t-154 -31t-154 31t-125 85t-84 126t-31 154zM79 229q0 -74 27.5 -139t75 -114t111.5 -77t138 -28q73 0 137.5 28t112 77t75 114t27.5 139t-27.5 139.5
t-75 114t-112 77t-137.5 28.5q-74 0 -138 -28.5t-111.5 -77t-75 -114t-27.5 -139.5zM442 477q35 0 61.5 -5.5t47 -14.5t35 -20t26.5 -22l-39 -53q-11 13 -23.5 25.5t-28 22.5t-36 16t-47.5 6q-32 0 -59.5 -11t-48 -34.5t-32 -61t-11.5 -91.5q0 -104 44.5 -157.5t119.5 -53.5
q48 0 83 22.5t58 52.5l31 -31q-14 -18 -31 -35t-39.5 -30t-50.5 -20.5t-64 -7.5q-53 0 -97.5 19t-76.5 52.5t-50 79t-18 99.5q0 59 19.5 106t53 79.5t78.5 50t95 17.5z" />
    <glyph glyph-name="ordfeminine" unicode="&#xaa;" horiz-adv-x="287" 
d="M261 643q-4 11 -15 18t-25 7q-30 0 -51.5 -16t-35 -40t-19.5 -53t-6 -56q0 -33 14 -48t37 -15t39.5 9.5t26.5 21.5zM304 551q-8 -34 -15 -69.5t-12 -71.5h-59l6 33h-2q-14 -14 -34.5 -26.5t-54.5 -12.5q-37 0 -59 24.5t-22 65.5q-2 35 9.5 71t33 65t52.5 47.5t70 18.5
q23 0 38.5 -6.5t24.5 -17.5h2l34 23l17 -5z" />
    <glyph glyph-name="guillemotleft" unicode="&#xab;" horiz-adv-x="448" 
d="M32 274q27 19 52.5 38t52 39t54 42t59.5 46l14 -14q-38 -43 -69.5 -80t-70.5 -80l-1 -5q21 -44 41 -80.5t40 -79.5l-19 -14q-46 48 -82.5 87.5t-74.5 77.5zM216 274q54 40 105 80t113 85l14 -14q-20 -24 -37 -43.5t-33.5 -38.5t-33.5 -37.5t-36 -40.5l-1 -5
q21 -44 41 -80.5t40 -79.5l-19 -14q-46 50 -82.5 88.5t-74.5 76.5z" />
    <glyph glyph-name="registered" unicode="&#xae;" horiz-adv-x="519" 
d="M55 464q0 48 17 90t47.5 73.5t73.5 50t94 18.5t94 -18.5t73.5 -50t47.5 -73.5t17 -90t-17 -90.5t-47.5 -74t-73.5 -49.5t-94 -18t-94 18t-73.5 49.5t-47.5 74t-17 90.5zM92 464q0 -41 12.5 -78t37.5 -65t61 -44.5t84 -16.5q47 0 83.5 16.5t61 44.5t37.5 65t13 78
q0 40 -13 76.5t-37.5 65t-61 45.5t-83.5 17q-48 0 -84 -17t-61 -45.5t-37.5 -65t-12.5 -76.5zM205 349q1 36 1 65.5v55.5v56t-1 65h83q37 0 59.5 -16.5t22.5 -51.5q0 -18 -11 -34.5t-34 -24.5l26 -44q9 -17 21 -36.5t22 -34.5h-48q-6 9 -13 22.5t-15.5 28t-16.5 28.5t-15 26
h-39v-48.5t1 -56.5h-43zM247 474h28q53 0 53 49q0 27 -14 37t-39 10q-7 0 -15 -0.5t-13 -0.5v-95z" />
    <glyph glyph-name="macron" unicode="&#xaf;" 
d="M189 642h32t25.5 0.5t28 0.5h39.5l-15 -49q-24 0 -37.5 0.5t-24.5 0.5h-23.5h-35.5h-32t-25.5 -0.5t-28 -0.5h-39.5l15 49q24 0 37.5 -0.5t24.5 -0.5h23.5h35.5z" />
    <glyph glyph-name="degree" unicode="&#xb0;" 
d="M230 662q-40 0 -61 -27.5t-21 -63.5t21 -63t61 -27t61 27t21 63t-21 63.5t-61 27.5zM230 696q25 0 47 -8.5t38.5 -24.5t26 -39.5t9.5 -52.5t-9.5 -52t-26 -38.5t-38.5 -24t-47 -8.5t-47 8.5t-38.5 24t-26 38.5t-9.5 52t9.5 52.5t26 39.5t38.5 24.5t47 8.5z" />
    <glyph glyph-name="plusminus" unicode="&#xb1;" horiz-adv-x="584" 
d="M520 87h-456v48h201v195h-201v48h201v218h54v-218h201v-48h-201v-195h201v-48z" />
    <glyph glyph-name="twosuperior" unicode="&#xb2;" 
d="M186 653q-29 0 -59 -11t-52 -37l-12 55q26 17 56 26.5t75 9.5q75 0 110 -29.5t35 -88.5q0 -45 -29 -89t-81 -89q-13 -11 -28 -23.5t-31 -25.5t-30.5 -24.5t-26.5 -18.5q24 0 54 1t59 1.5t52.5 1.5t33.5 1q-3 -7 -7.5 -18t-8.5 -22q-5 -13 -10 -27h-277l6 34
q51 36 91 69.5t72 65.5q43 42 62 78t19 87q0 37 -15.5 55t-57.5 18z" />
    <glyph glyph-name="threesuperior" unicode="&#xb3;" 
d="M321 385q0 -33 -14.5 -60t-40.5 -45.5t-61 -29t-77 -10.5q-41 0 -71 10.5t-51 27.5l36 50q11 -20 36.5 -34t53.5 -14q106 0 106 103q0 28 -17 49.5t-61 21.5q-14 0 -25.5 -2.5t-25.5 -7.5l-9 34q27 10 54.5 19.5t50 22.5t37 31t14.5 46q0 26 -13.5 43t-45.5 17
q-26 0 -57.5 -14t-48.5 -34l-16 48q29 20 62.5 30t69.5 10q65 0 94.5 -26.5t29.5 -64.5q0 -27 -12.5 -46t-32 -32t-43.5 -21t-48 -14q36 -2 60 -12.5t39 -25.5t21 -33.5t6 -36.5z" />
    <glyph glyph-name="acute" unicode="&#xb4;" 
d="M155 545q19 42 35.5 78.5t36.5 81.5l65 -33q-17 -24 -29 -42l-23 -34.5t-21.5 -33t-23.5 -37.5z" />
    <glyph glyph-name="paragraph" unicode="&#xb6;" horiz-adv-x="569" 
d="M326 -132l79 391q6 33 15 78.5t18.5 97t19.5 105t19 101.5h-88q-10 -49 -21 -102.5t-21 -104.5t-19 -96.5t-15 -78.5q-8 -36 -17 -83.5t-19 -99t-19.5 -105.5t-18.5 -103h-61q10 50 21 104t21.5 105.5t20 98.5t17.5 83l7 41h-15q-32 0 -63.5 8t-56.5 26t-40.5 47
t-15.5 70q0 53 19.5 96t53.5 73.5t80.5 47t101.5 16.5h304l-8 -44q-14 0 -37.5 0.5t-51.5 0.5l-76 -382q-7 -36 -16.5 -83.5t-19 -99t-19.5 -105.5t-19 -103h-60z" />
    <glyph glyph-name="periodcentered" unicode="&#xb7;" horiz-adv-x="228" 
d="M69 327q0 23 16.5 40t39.5 17t40 -17t17 -40t-17 -40t-40 -17t-39.5 17t-16.5 40z" />
    <glyph glyph-name="cedilla" unicode="&#xb8;" 
d="M223 8l-34 -51q5 2 12 2.5t13 0.5q33 0 47.5 -15t14.5 -42q0 -13 -7.5 -26.5t-22.5 -24t-37.5 -17.5t-51.5 -7q-28 0 -51 7t-36 15l27 44q10 -17 27.5 -27.5t38.5 -10.5q29 0 41 12.5t12 32.5q0 13 -8 20.5t-22 7.5q-6 0 -13.5 -3t-11.5 -7l-26 14l50 75h38z" />
    <glyph glyph-name="onesuperior" unicode="&#xb9;" 
d="M230 627l-99 -12l6 37q48 9 97.5 21.5t84.5 22.5l7 -9l-45 -219l-11 -55t-11.5 -60.5t-10.5 -58.5t-8 -49h-82q4 21 10 49t12 58.5t11.5 60.5t10.5 55z" />
    <glyph glyph-name="ordmasculine" unicode="&#xba;" horiz-adv-x="308" 
d="M189 433q22 0 39.5 13.5t30 35t19 48.5t6.5 54q0 44 -14.5 62.5t-39.5 18.5q-22 0 -40 -13.5t-30.5 -35t-19 -48.5t-6.5 -54q0 -44 15 -62.5t40 -18.5zM236 695q48 0 78 -30t31 -85q0 -35 -12 -67t-34 -56t-51.5 -38.5t-65.5 -14.5q-47 0 -77 29.5t-31 85.5q0 35 12 67
t33.5 56t51.5 38.5t65 14.5z" />
    <glyph glyph-name="guillemotright" unicode="&#xbb;" horiz-adv-x="443" 
d="M407 251q-27 -19 -52.5 -38t-52 -39t-54 -42t-59.5 -46l-14 14q19 21 36 40.5t33.5 39t33.5 39t37 41.5l1 5q-21 44 -41 80.5t-40 79.5l19 14q46 -48 82.5 -87.5t74.5 -77.5zM223 251q-54 -41 -105 -80.5t-113 -84.5l-14 14q20 24 37 43.5t33.5 38.5t33 37.5t36.5 40.5
l1 5q-21 44 -41 80.5t-40 79.5l19 14q46 -49 82.5 -88t74.5 -77z" />
    <glyph glyph-name="onequarter" unicode="&#xbc;" horiz-adv-x="920" 
d="M723 119q-46 0 -78.5 -0.5t-53.5 -0.5h-42l3 18q33 34 68.5 73.5t70.5 80.5t68.5 80.5t62.5 74.5q3 -1 11.5 -2t23.5 -2q-3 -19 -10 -56.5t-14.5 -80t-15 -82.5t-11.5 -64l84 1l-8 -43q-11 0 -33 0.5t-50 1.5l-20 -117h-78zM201 -22q30 43 65.5 95.5t71 104.5t67 99
t52.5 79q21 31 52.5 78t66.5 99t69.5 104.5t61.5 96.5l47 -31q-30 -43 -66.5 -95.5t-72.5 -104t-67.5 -98t-51.5 -77.5q-22 -32 -53 -79t-65.5 -99t-68.5 -105t-61 -96zM230 627l-99 -12l6 37q48 9 97.5 21.5t84.5 22.5l7 -9l-45 -219l-11 -55t-11.5 -60.5t-10.5 -58.5
t-8 -49h-82q4 21 10 49t12 58.5t11.5 60.5t10.5 55zM759 326q-20 -25 -44.5 -54t-44.5 -55q-25 -30 -48 -61l108 1z" />
    <glyph glyph-name="onehalf" unicode="&#xbd;" horiz-adv-x="920" 
d="M185 627l-99 -12l6 37q48 9 97.5 21.5t84.5 22.5l7 -9l-45 -219l-11 -55t-11.5 -60.5t-10.5 -58.5t-8 -49h-82q4 21 10 49t12 58.5t11.5 60.5t10.5 55zM730 411q-29 0 -59 -11t-52 -37l-13 55q26 17 56.5 26.5t75.5 9.5q75 0 109.5 -29.5t34.5 -88.5q0 -45 -28.5 -89
t-80.5 -89q-13 -11 -28 -23.5t-31 -25.5t-30.5 -24.5t-26.5 -18.5q23 0 53.5 1t59.5 1.5t52.5 1.5t33.5 1q-4 -7 -8 -18l-8 -22q-4 -13 -10 -27h-277l5 34q51 36 91.5 69.5t72.5 65.5q42 42 61.5 78t19.5 87q0 37 -15.5 55t-57.5 18zM147 -22q30 43 65.5 95.5t70.5 104.5
t67 99t53 79q21 31 52.5 78t66.5 99t69.5 104.5t61.5 96.5l47 -31q-30 -43 -66.5 -95.5t-72.5 -104t-67.5 -98t-51.5 -77.5q-22 -32 -53 -79t-65.5 -99t-68.5 -105t-61 -96z" />
    <glyph glyph-name="threequarters" unicode="&#xbe;" horiz-adv-x="920" 
d="M366 385q0 -33 -14.5 -60t-40.5 -45.5t-61 -29t-77 -10.5q-41 0 -71 10.5t-50 27.5l35 50q11 -20 36.5 -34t53.5 -14q106 0 106 103q0 28 -17 49.5t-61 21.5q-14 0 -25.5 -2.5t-25.5 -7.5l-9 34q27 10 54.5 19.5t50 22.5t37 31t14.5 46q0 26 -13.5 43t-45.5 17
q-26 0 -57.5 -14t-48.5 -34l-15 48q28 20 61.5 30t69.5 10q65 0 94.5 -26.5t29.5 -64.5q0 -27 -12.5 -46t-32 -32t-43.5 -21t-48 -14q36 -2 60 -12.5t39 -25.5t21 -33.5t6 -36.5zM210 -22q30 43 65.5 95.5t70.5 104.5t66.5 99t53.5 79q21 31 52.5 78t66.5 99t69.5 104.5
t61.5 96.5l47 -31q-30 -43 -66.5 -95.5t-72.5 -104t-68 -98t-52 -77.5q-22 -32 -53 -79t-65.5 -99t-68 -105t-60.5 -96zM695 119q-46 0 -79 -0.5t-54 -0.5h-41l2 18q33 34 68.5 73.5t71 80.5t68.5 80.5t62 74.5q4 -1 12.5 -2t23.5 -2q-3 -19 -10 -56.5t-15 -80t-15.5 -82.5
t-11.5 -64l84 1l-7 -43q-12 0 -33.5 0.5t-50.5 1.5q-2 -15 -4 -27t-4 -24.5t-4.5 -28t-6.5 -37.5h-78zM702 157q3 21 7.5 45t8 47t7 43t5.5 34q-20 -25 -44.5 -54t-44.5 -55q-25 -30 -48 -61z" />
    <glyph glyph-name="questiondown" unicode="&#xbf;" horiz-adv-x="348" 
d="M228 -6q-44 8 -82.5 22.5t-67 36.5t-44.5 53t-16 73t10 70t30.5 49t52 37.5t74.5 35.5q19 8 37 16t31.5 18t22 21.5t8.5 27.5q0 20 -13 33t-32 13q-41 0 -66 -19l-17 30q11 10 36.5 19.5t47.5 9.5q28 0 47.5 -8t31.5 -21.5t17 -31t5 -36.5q0 -32 -13.5 -55t-33 -40
t-42 -29t-41.5 -21q-33 -15 -58 -26t-41.5 -23t-24.5 -28t-8 -41q0 -33 10 -54.5t31.5 -34.5t54.5 -19t78 -9zM350 639q0 -23 -17 -40t-40 -17t-40 17t-17 40t17 40t40 17t40 -17t17 -40z" />
    <glyph glyph-name="Agrave" unicode="&#xc0;" horiz-adv-x="583" 
d="M415 0q-7 48 -13.5 96.5t-12.5 98.5q-33 0 -63 0.5t-57 0.5h-58.5t-60.5 -1q-25 -45 -51.5 -92.5t-58.5 -102.5h-72q55 99 104 183.5t95 163.5t90.5 155t90.5 157q11 5 22 11.5t21 12.5q11 7 23 15q26 -171 51 -341.5t54 -356.5h-104zM340 539q-44 -76 -81.5 -145.5
t-79.5 -144.5q26 -1 50 -1h49q23 0 49.5 0.5t55.5 0.5q-11 88 -22.5 159.5t-20.5 130.5zM438 732q-38 29 -76 56.5t-69 50.5l57 59q21 -26 51.5 -58.5t67.5 -73.5z" />
    <glyph glyph-name="Aacute" unicode="&#xc1;" horiz-adv-x="583" 
d="M415 0q-7 48 -13.5 96.5t-12.5 98.5q-33 0 -63 0.5t-57 0.5h-58.5t-60.5 -1q-25 -45 -51.5 -92.5t-58.5 -102.5h-72q55 99 104 183.5t95 163.5t90.5 155t90.5 157q11 5 22 11.5t21 12.5q11 7 23 15q26 -171 51 -341.5t54 -356.5h-104zM340 539q-44 -76 -81.5 -145.5
t-79.5 -144.5q26 -1 50 -1h49q23 0 49.5 0.5t55.5 0.5q-11 88 -22.5 159.5t-20.5 130.5zM276 764q48 38 91.5 71.5t75.5 59.5l41 -59q-41 -23 -88 -50t-97 -56z" />
    <glyph glyph-name="Acircumflex" unicode="&#xc2;" horiz-adv-x="583" 
d="M415 0q-7 48 -13.5 96.5t-12.5 98.5q-33 0 -63 0.5t-57 0.5h-58.5t-60.5 -1q-25 -45 -51.5 -92.5t-58.5 -102.5h-72q55 99 104 183.5t95 163.5t90.5 155t90.5 157q11 5 22 11.5t21 12.5q11 7 23 15q26 -171 51 -341.5t54 -356.5h-104zM340 539q-44 -76 -81.5 -145.5
t-79.5 -144.5q26 -1 50 -1h49q23 0 49.5 0.5t55.5 0.5q-11 88 -22.5 159.5t-20.5 130.5zM427 873q14 -15 25.5 -28.5t23.5 -27t25.5 -29t30.5 -35.5l-35 -31l-102 94h-2q-19 -11 -33.5 -21t-29 -20.5t-32 -23t-42.5 -28.5l-26 30q29 24 50 40t38.5 29t33.5 24.5t34 26.5h41z
" />
    <glyph glyph-name="Atilde" unicode="&#xc3;" horiz-adv-x="583" 
d="M415 0q-7 48 -13.5 96.5t-12.5 98.5q-33 0 -63 0.5t-57 0.5h-58.5t-60.5 -1q-25 -45 -51.5 -92.5t-58.5 -102.5h-72q55 99 104 183.5t95 163.5t90.5 155t90.5 157q11 5 22 11.5t21 12.5q11 7 23 15q26 -171 51 -341.5t54 -356.5h-104zM340 539q-44 -76 -81.5 -145.5
t-79.5 -144.5q26 -1 50 -1h49q23 0 49.5 0.5t55.5 0.5q-11 88 -22.5 159.5t-20.5 130.5zM367 752q-21 10 -35.5 13t-25.5 3q-16 0 -29 -9.5t-14 -36.5l-44 18q13 43 35.5 62t61.5 19q17 0 35 -4t41 -17q21 -11 38 -18t31 -7q16 0 26 9t10 38l44 -17q-5 -38 -24.5 -61
t-63.5 -23q-17 0 -40 9.5t-46 21.5z" />
    <glyph glyph-name="Adieresis" unicode="&#xc4;" horiz-adv-x="583" 
d="M415 0q-7 48 -13.5 96.5t-12.5 98.5q-33 0 -63 0.5t-57 0.5h-58.5t-60.5 -1q-25 -45 -51.5 -92.5t-58.5 -102.5h-72q55 99 104 183.5t95 163.5t90.5 155t90.5 157q11 5 22 11.5t21 12.5q11 7 23 15q26 -171 51 -341.5t54 -356.5h-104zM340 539q-44 -76 -81.5 -145.5
t-79.5 -144.5q26 -1 50 -1h49q23 0 49.5 0.5t55.5 0.5q-11 88 -22.5 159.5t-20.5 130.5zM236 787q0 19 14.5 33.5t33.5 14.5q20 0 34.5 -14.5t14.5 -33.5q0 -20 -14.5 -34t-34.5 -14q-19 0 -33.5 14t-14.5 34zM429 787q0 19 14 33.5t34 14.5q19 0 33.5 -14.5t14.5 -33.5
q0 -20 -14.5 -34t-33.5 -14q-20 0 -34 14t-14 34z" />
    <glyph glyph-name="Aring" unicode="&#xc5;" horiz-adv-x="583" 
d="M415 0q-7 48 -13.5 96.5t-12.5 98.5q-33 0 -63 0.5t-57 0.5h-58.5t-60.5 -1q-25 -45 -51.5 -92.5t-58.5 -102.5h-72q55 99 104 183.5t95 163.5t90.5 155t90.5 157q11 5 22 11.5t21 12.5q11 7 23 15q26 -171 51 -341.5t54 -356.5h-104zM340 539q-44 -76 -81.5 -145.5
t-79.5 -144.5q26 -1 50 -1h49q23 0 49.5 0.5t55.5 0.5q-11 88 -22.5 159.5t-20.5 130.5zM403 848q-21 0 -33.5 -14.5t-12.5 -34.5t12.5 -33.5t33.5 -13.5q20 0 32 13.5t12 33.5q0 22 -12 35.5t-32 13.5zM403 880q32 0 56.5 -21.5t24.5 -59.5q0 -37 -24.5 -58.5t-56.5 -21.5
t-56.5 21.5t-24.5 58.5q0 38 24.5 59.5t56.5 21.5z" />
    <glyph glyph-name="AE" unicode="&#xc6;" horiz-adv-x="802" 
d="M505 328q-6 -38 -11.5 -68t-11 -60.5t-11.5 -65t-14 -81.5l283 4l-17 -57h-372l38 215q-23 0 -45.5 0.5t-42.5 0.5h-60t-63 -1l-142 -215h-77q128 190 246.5 365t214.5 319h419l-18 -59l-263 6q-8 -44 -13.5 -75.5t-10.5 -58.5t-9.5 -53.5t-10.5 -58.5l223 2l-21 -62z
M454 623q-46 -69 -108 -160t-132 -194h96q20 0 42.5 0.5t46.5 0.5l13 72l49 281h-7z" />
    <glyph glyph-name="Ccedilla" unicode="&#xc7;" horiz-adv-x="618" 
d="M329 51q37 0 66 6t52.5 19.5t44 35.5t41.5 54l40 -35q-31 -57 -83.5 -92.5t-121.5 -45.5l-24 -36q5 2 12.5 2.5t13.5 0.5q32 0 46.5 -15t14.5 -42q0 -13 -7.5 -26.5t-22.5 -24t-37 -17.5t-51 -7t-51.5 7t-36.5 15l27 44q11 -17 28.5 -27.5t37.5 -10.5q30 0 42 12.5
t12 32.5q0 28 -31 28q-6 0 -13.5 -3t-11.5 -7l-25 14l37 57q-4 0 -7 -0.5t-6 -0.5q-60 0 -109.5 20.5t-85 58t-55 91t-19.5 119.5q0 93 28 169.5t76.5 132t113 86t137.5 30.5q40 0 70 -3.5t54.5 -11t44.5 -18.5t41 -25l-43 -70q-17 21 -34 35.5t-37 22.5t-44.5 11.5
t-55.5 3.5q-68 0 -116 -34.5t-78.5 -88.5t-44.5 -120t-14 -129q0 -57 16 -98t42 -68t59 -39.5t68 -12.5z" />
    <glyph glyph-name="Egrave" unicode="&#xc8;" horiz-adv-x="507" 
d="M191 328l-47 -275l300 4l-16 -57h-391l61 342q13 73 27.5 157.5t31.5 184.5h368l-18 -59l-262 6q-8 -44 -14 -75.5t-11 -58.5t-9.5 -53.5t-9.5 -58.5l241 2l-22 -62zM402 732q-38 29 -76 56.5t-69 50.5l57 59q21 -26 52 -58.5t67 -73.5z" />
    <glyph glyph-name="Eacute" unicode="&#xc9;" horiz-adv-x="507" 
d="M191 328l-47 -275l300 4l-16 -57h-391l61 342q13 73 27.5 157.5t31.5 184.5h368l-18 -59l-262 6q-8 -44 -14 -75.5t-11 -58.5t-9.5 -53.5t-9.5 -58.5l241 2l-22 -62zM278 764q48 38 91.5 71.5t75.5 59.5l41 -59q-42 -23 -88.5 -50t-96.5 -56z" />
    <glyph glyph-name="Ecircumflex" unicode="&#xca;" horiz-adv-x="507" 
d="M191 328l-47 -275l300 4l-16 -57h-391l61 342q13 73 27.5 157.5t31.5 184.5h368l-18 -59l-262 6q-8 -44 -14 -75.5t-11 -58.5t-9.5 -53.5t-9.5 -58.5l241 2l-22 -62zM400 873q14 -15 25.5 -28.5t23.5 -27t25.5 -29t30.5 -35.5l-35 -31l-102 94h-2q-19 -11 -33 -21
t-29 -20.5t-32.5 -23t-42.5 -28.5l-26 30q29 24 50.5 40t38.5 29t33 24.5t35 26.5h40z" />
    <glyph glyph-name="Edieresis" unicode="&#xcb;" horiz-adv-x="507" 
d="M191 328l-47 -275l300 4l-16 -57h-391l61 342q13 73 27.5 157.5t31.5 184.5h368l-18 -59l-262 6q-8 -44 -14 -75.5t-11 -58.5t-9.5 -53.5t-9.5 -58.5l241 2l-22 -62zM411 787q0 19 14 33.5t34 14.5t34.5 -14.5t14.5 -33.5q0 -20 -14.5 -34t-34.5 -14t-34 14t-14 34z
M219 787q0 19 14 33.5t34 14.5t34.5 -14.5t14.5 -33.5q0 -20 -14.5 -34t-34.5 -14t-34 14t-14 34z" />
    <glyph glyph-name="Igrave" unicode="&#xcc;" horiz-adv-x="244" 
d="M28 0l62 350q13 72 27 153t31 181h96l-62 -347q-13 -74 -27.5 -155.5t-31.5 -181.5h-95zM229 732q-38 29 -76 56.5t-69 50.5l57 59q21 -26 52 -58.5t67 -73.5z" />
    <glyph glyph-name="Iacute" unicode="&#xcd;" horiz-adv-x="244" 
d="M28 0l62 350q13 72 27 153t31 181h96l-62 -347q-13 -74 -27.5 -155.5t-31.5 -181.5h-95zM123 764q49 38 92 71.5t76 59.5l40 -59q-41 -23 -87.5 -50t-97.5 -56z" />
    <glyph glyph-name="Icircumflex" unicode="&#xce;" horiz-adv-x="244" 
d="M28 0l62 350q13 72 27 153t31 181h96l-62 -347q-13 -74 -27.5 -155.5t-31.5 -181.5h-95zM236 873q14 -15 25.5 -28.5t23.5 -27t25.5 -29t30.5 -35.5l-35 -31l-102 94h-2q-19 -11 -33 -21t-29 -20.5t-32.5 -23t-42.5 -28.5l-25 30q29 24 50 40t38 29t33 24.5t35 26.5h40z
" />
    <glyph glyph-name="Idieresis" unicode="&#xcf;" horiz-adv-x="244" 
d="M28 0l62 350q13 72 27 153t31 181h96l-62 -347q-13 -74 -27.5 -155.5t-31.5 -181.5h-95zM64 787q0 19 14 33.5t34 14.5t34.5 -14.5t14.5 -33.5q0 -20 -14.5 -34t-34.5 -14t-34 14t-14 34zM257 787q0 19 14 33.5t34 14.5q19 0 33.5 -14.5t14.5 -33.5q0 -20 -14.5 -34
t-33.5 -14q-20 0 -34 14t-14 34z" />
    <glyph glyph-name="Eth" unicode="&#xd0;" horiz-adv-x="649" 
d="M29 370l73 -2q12 69 26 146.5t29 169.5h159q84 0 142.5 -22.5t96 -60.5t54.5 -89t17 -109q0 -89 -24 -161.5t-72.5 -124.5t-122 -82.5t-171.5 -34.5h-199l57 316l-77 -1zM248 53q67 0 118.5 24.5t86 70.5t52.5 113t18 152q0 51 -9 91.5t-32 68.5t-64.5 43t-105.5 15h-65
q-14 -80 -27.5 -142t-24.5 -122l133 3l-12 -55l-129 1q-6 -32 -10.5 -61t-9.5 -59.5t-10.5 -65t-12.5 -77.5h104z" />
    <glyph glyph-name="Ntilde" unicode="&#xd1;" horiz-adv-x="656" 
d="M434 0q-31 72 -63.5 159t-63.5 171t-57 158t-44 121q-3 -18 -5.5 -37t-7 -47t-11.5 -69.5t-18 -104.5q-8 -47 -15.5 -89l-15 -84t-15 -85.5t-15.5 -92.5h-66q18 101 34.5 189.5t28.5 161.5q7 39 14 82.5t13 87t10 85t3 78.5h130q32 -81 58 -150.5t51 -135.5t50 -132.5
t55 -141.5q5 26 10 57t10.5 61.5t10 59t8.5 49.5q14 74 27.5 153.5t30.5 179.5h66l-60 -333q-13 -73 -28.5 -162t-32.5 -189h-92zM393 752q-22 10 -36 13t-25 3q-16 0 -29 -9.5t-14 -36.5l-44 18q12 43 35 62t62 19q16 0 34 -4t42 -17q20 -11 37 -18t32 -7q16 0 26 9t10 38
l44 -17q-6 -38 -25 -61t-64 -23q-16 0 -39 9.5t-46 21.5z" />
    <glyph glyph-name="Ograve" unicode="&#xd2;" horiz-adv-x="677" 
d="M395 696q54 0 101 -19t81 -55t53.5 -88t19.5 -118q0 -93 -27.5 -171.5t-74.5 -135.5t-110.5 -89t-136.5 -32q-55 0 -101.5 19t-80.5 55t-53.5 88t-19.5 118q0 93 27 171.5t74.5 135.5t111 89t136.5 32zM304 42q61 0 107.5 36t78 92t47 124t15.5 131q0 102 -40 159
t-121 57q-62 0 -108 -36t-77 -91.5t-46.5 -123.5t-15.5 -131q0 -103 39.5 -160t120.5 -57zM497 732q-38 29 -76 56.5t-70 50.5l57 59q22 -26 52.5 -58.5t67.5 -73.5z" />
    <glyph glyph-name="Oacute" unicode="&#xd3;" horiz-adv-x="677" 
d="M395 696q54 0 101 -19t81 -55t53.5 -88t19.5 -118q0 -93 -27.5 -171.5t-74.5 -135.5t-110.5 -89t-136.5 -32q-55 0 -101.5 19t-80.5 55t-53.5 88t-19.5 118q0 93 27 171.5t74.5 135.5t111 89t136.5 32zM304 42q61 0 107.5 36t78 92t47 124t15.5 131q0 102 -40 159
t-121 57q-62 0 -108 -36t-77 -91.5t-46.5 -123.5t-15.5 -131q0 -103 39.5 -160t120.5 -57zM336 764q48 38 91.5 71.5t75.5 59.5l41 -59q-42 -23 -88.5 -50t-96.5 -56z" />
    <glyph glyph-name="Ocircumflex" unicode="&#xd4;" horiz-adv-x="677" 
d="M395 696q54 0 101 -19t81 -55t53.5 -88t19.5 -118q0 -93 -27.5 -171.5t-74.5 -135.5t-110.5 -89t-136.5 -32q-55 0 -101.5 19t-80.5 55t-53.5 88t-19.5 118q0 93 27 171.5t74.5 135.5t111 89t136.5 32zM304 42q61 0 107.5 36t78 92t47 124t15.5 131q0 102 -40 159
t-121 57q-62 0 -108 -36t-77 -91.5t-46.5 -123.5t-15.5 -131q0 -103 39.5 -160t120.5 -57zM458 873q14 -15 25.5 -28.5t23.5 -27t25.5 -29t30.5 -35.5l-35 -31l-102 94h-2q-19 -11 -33 -21t-29 -20.5t-32.5 -23t-42.5 -28.5l-26 30q29 24 50.5 40t38.5 29t33 24.5t35 26.5
h40z" />
    <glyph glyph-name="Otilde" unicode="&#xd5;" horiz-adv-x="677" 
d="M395 696q54 0 101 -19t81 -55t53.5 -88t19.5 -118q0 -93 -27.5 -171.5t-74.5 -135.5t-110.5 -89t-136.5 -32q-55 0 -101.5 19t-80.5 55t-53.5 88t-19.5 118q0 93 27 171.5t74.5 135.5t111 89t136.5 32zM304 42q61 0 107.5 36t78 92t47 124t15.5 131q0 102 -40 159
t-121 57q-62 0 -108 -36t-77 -91.5t-46.5 -123.5t-15.5 -131q0 -103 39.5 -160t120.5 -57zM399 752q-21 10 -35 13t-25 3q-17 0 -30 -9.5t-14 -36.5l-44 18q13 43 35.5 62t62.5 19q16 0 34 -4t41 -17q21 -11 38 -18t31 -7q16 0 26 9t10 38l44 -17q-5 -38 -24 -61t-64 -23
q-16 0 -39 9.5t-47 21.5z" />
    <glyph glyph-name="Odieresis" unicode="&#xd6;" horiz-adv-x="677" 
d="M395 696q54 0 101 -19t81 -55t53.5 -88t19.5 -118q0 -93 -27.5 -171.5t-74.5 -135.5t-110.5 -89t-136.5 -32q-55 0 -101.5 19t-80.5 55t-53.5 88t-19.5 118q0 93 27 171.5t74.5 135.5t111 89t136.5 32zM304 42q61 0 107.5 36t78 92t47 124t15.5 131q0 102 -40 159
t-121 57q-62 0 -108 -36t-77 -91.5t-46.5 -123.5t-15.5 -131q0 -103 39.5 -160t120.5 -57zM295 787q0 19 14 33.5t34 14.5t34.5 -14.5t14.5 -33.5q0 -20 -14.5 -34t-34.5 -14t-34 14t-14 34zM488 787q0 19 14 33.5t33 14.5q20 0 34.5 -14.5t14.5 -33.5q0 -20 -14.5 -34
t-34.5 -14q-19 0 -33 14t-14 34z" />
    <glyph glyph-name="multiply" unicode="&#xd7;" horiz-adv-x="584" 
d="M114 488l178 -179l178 179l38 -38l-179 -179l179 -177l-38 -38l-178 178l-178 -178l-38 38l178 177l-178 179z" />
    <glyph glyph-name="Oslash" unicode="&#xd8;" horiz-adv-x="677" 
d="M576 724l-34 -73q49 -35 78.5 -94.5t29.5 -140.5q0 -93 -27.5 -171.5t-74.5 -135.5t-110.5 -89t-136.5 -32q-17 0 -33 2t-32 5q-9 -20 -17.5 -40.5t-17.5 -40.5l-64 23q9 20 18.5 40.5t20.5 40.5q-60 32 -95 95.5t-35 154.5q0 93 27 171.5t74.5 135.5t111 89t136.5 32
q23 0 44.5 -4t42.5 -11l28 65zM144 259q0 -63 15 -109.5t45 -73.5q31 63 58.5 120t47.5 102q12 26 29 64t37 82t41 91t41 92q-27 14 -67 14q-62 0 -108 -36t-77 -91.5t-46.5 -123.5t-15.5 -131zM305 42q61 0 107.5 36t77.5 92t46.5 124t15.5 131q0 102 -41 160
q-20 -43 -41 -86.5t-39.5 -83.5t-34.5 -74.5t-26 -58.5q-21 -47 -50.5 -108t-60.5 -127q23 -5 45 -5h1z" />
    <glyph glyph-name="Ugrave" unicode="&#xd9;" horiz-adv-x="676" 
d="M594 224q-20 -118 -91 -177t-188 -59q-57 0 -103 11.5t-79 35.5t-51 61.5t-17 90.5q0 54 11 103t21 107q6 36 11.5 67t11 63t12 69.5t14.5 87.5h98l-52 -287q-8 -47 -19 -101.5t-11 -105.5q-1 -77 39 -113.5t115 -36.5q95 0 146 43.5t67 132.5q4 26 7.5 45.5t6.5 36.5
t6.5 34t7.5 38q6 36 12 71t12.5 72.5t13 79t14.5 91.5h67l-47 -266q-6 -36 -12.5 -71t-11.5 -62q-6 -33 -11 -61zM464 732q-38 29 -76 56.5t-70 50.5l57 59q22 -26 52.5 -58.5t67.5 -73.5z" />
    <glyph glyph-name="Uacute" unicode="&#xda;" horiz-adv-x="676" 
d="M594 224q-20 -118 -91 -177t-188 -59q-57 0 -103 11.5t-79 35.5t-51 61.5t-17 90.5q0 54 11 103t21 107q6 36 11.5 67t11 63t12 69.5t14.5 87.5h98l-52 -287q-8 -47 -19 -101.5t-11 -105.5q-1 -77 39 -113.5t115 -36.5q95 0 146 43.5t67 132.5q4 26 7.5 45.5t6.5 36.5
t6.5 34t7.5 38q6 36 12 71t12.5 72.5t13 79t14.5 91.5h67l-47 -266q-6 -36 -12.5 -71t-11.5 -62q-6 -33 -11 -61zM367 764q48 38 91.5 71.5t76.5 59.5l40 -59q-41 -23 -88 -50t-97 -56z" />
    <glyph glyph-name="Ucircumflex" unicode="&#xdb;" horiz-adv-x="676" 
d="M594 224q-20 -118 -91 -177t-188 -59q-57 0 -103 11.5t-79 35.5t-51 61.5t-17 90.5q0 54 11 103t21 107q6 36 11.5 67t11 63t12 69.5t14.5 87.5h98l-52 -287q-8 -47 -19 -101.5t-11 -105.5q-1 -77 39 -113.5t115 -36.5q95 0 146 43.5t67 132.5q4 26 7.5 45.5t6.5 36.5
t6.5 34t7.5 38q6 36 12 71t12.5 72.5t13 79t14.5 91.5h67l-47 -266q-6 -36 -12.5 -71t-11.5 -62q-6 -33 -11 -61zM480 873q14 -15 25.5 -28.5t23.5 -27t25.5 -29t30.5 -35.5l-35 -31l-102 94h-2q-19 -11 -33 -21t-29 -20.5t-32.5 -23t-42.5 -28.5l-26 30q29 24 50.5 40
t38.5 29t33 24.5t35 26.5h40z" />
    <glyph glyph-name="Udieresis" unicode="&#xdc;" horiz-adv-x="676" 
d="M594 224q-20 -118 -91 -177t-188 -59q-57 0 -103 11.5t-79 35.5t-51 61.5t-17 90.5q0 54 11 103t21 107q6 36 11.5 67t11 63t12 69.5t14.5 87.5h98l-52 -287q-8 -47 -19 -101.5t-11 -105.5q-1 -77 39 -113.5t115 -36.5q95 0 146 43.5t67 132.5q4 26 7.5 45.5t6.5 36.5
t6.5 34t7.5 38q6 36 12 71t12.5 72.5t13 79t14.5 91.5h67l-47 -266q-6 -36 -12.5 -71t-11.5 -62q-6 -33 -11 -61zM290 787q0 19 14 33.5t34 14.5q19 0 33.5 -14.5t14.5 -33.5q0 -20 -14.5 -34t-33.5 -14q-20 0 -34 14t-14 34zM482 787q0 19 14 33.5t34 14.5t34.5 -14.5
t14.5 -33.5q0 -20 -14.5 -34t-34.5 -14t-34 14t-14 34z" />
    <glyph glyph-name="Yacute" unicode="&#xdd;" horiz-adv-x="513" 
d="M149 0q15 88 28 158t24 135q-18 57 -32 101.5t-28 88t-29.5 91t-35.5 110.5h102q16 -56 29.5 -99.5t25.5 -81.5t24 -74t25 -78q28 43 54.5 83.5t52 81t51 82t52.5 86.5h78q-40 -57 -74.5 -106.5t-67.5 -96t-65.5 -92.5t-68.5 -98q-11 -65 -23.5 -135t-26.5 -156h-95z
M237 764q49 38 92.5 71.5t75.5 59.5l40 -59q-41 -23 -87.5 -50t-97.5 -56z" />
    <glyph glyph-name="Thorn" unicode="&#xde;" horiz-adv-x="496" 
d="M37 0l60 341q15 85 30.5 170t30.5 173h96l-24 -129h69q48 0 85 -13t62 -35.5t37.5 -53.5t12.5 -68q0 -108 -71.5 -168.5t-206.5 -60.5h-58q-3 -15 -5.5 -29.5t-6 -32t-7.5 -40.5t-9 -54h-95zM213 209q53 0 89 10t58 31t31.5 53.5t9.5 77.5q0 62 -32 91t-113 29h-15
t-20 -1q-7 -40 -13 -74.5t-12 -68.5t-12.5 -69.5t-14.5 -78.5h44z" />
    <glyph glyph-name="germandbls" unicode="&#xdf;" horiz-adv-x="552" 
d="M526 583q0 -18 -8.5 -36t-21.5 -35t-28.5 -32.5t-28.5 -27.5q-31 -29 -43.5 -46t-12.5 -35q0 -27 11 -44t36 -44q23 -26 41.5 -44t31.5 -35t20 -35t6 -43q-2 -63 -46 -100t-127 -37q-48 0 -81.5 12.5t-62.5 36.5l32 63q49 -65 117 -65q51 0 75.5 18t24.5 44q0 18 -5 30
t-15.5 23.5t-25.5 25t-34 33.5q-32 32 -50 63t-18 69q0 16 8 33t21 34t29 34.5t32 35.5q21 24 31 46.5t10 57.5q0 53 -19 71.5t-62 18.5q-26 0 -47.5 -11t-38 -30t-26.5 -43t-14 -50q-16 -110 -27 -184t-19.5 -126t-14.5 -89.5t-12 -74.5q-9 -53 -22 -100.5t-35 -83.5
t-55 -57.5t-82 -21.5q-23 0 -43 4.5t-37 12.5l20 53q29 -25 68 -25q23 0 37 7t23 20t13.5 31.5t8.5 42.5q20 121 37.5 239.5t35.5 235.5h-75l3 13l80 29q2 11 3.5 21.5t3.5 21.5q9 53 30 92.5t50 65.5t65 38.5t76 12.5q28 0 56 -5.5t50.5 -20.5t36.5 -41t14 -67z" />
    <glyph glyph-name="agrave" unicode="&#xe0;" horiz-adv-x="518" 
d="M482 477q-8 -35 -17 -75q-8 -34 -17 -76.5t-17 -87.5l-47 -238h-84l10 55h-5q-11 -11 -26 -23t-33 -21.5t-39 -15.5t-43 -6q-32 0 -58 11t-45 31t-30 48t-12 63q-2 59 17.5 119.5t56.5 109.5t90.5 80t118.5 31q27 0 56.5 -10.5t44.5 -28.5h4l58 39zM377 400
q-8 20 -27 31.5t-44 11.5q-51 0 -88 -28t-61 -70t-36 -92.5t-12 -95.5q0 -56 27 -84.5t65 -28.5q37 0 66 16.5t46 36.5zM291 530q-10 38 -17 79.5t-17 83.5l68 12q2 -24 3 -44t2 -39t2.5 -39.5t4.5 -47.5z" />
    <glyph glyph-name="aacute" unicode="&#xe1;" horiz-adv-x="518" 
d="M482 477q-8 -35 -17 -75q-8 -34 -17 -76.5t-17 -87.5l-47 -238h-84l10 55h-5q-11 -11 -26 -23t-33 -21.5t-39 -15.5t-43 -6q-32 0 -58 11t-45 31t-30 48t-12 63q-2 59 17.5 119.5t56.5 109.5t90.5 80t118.5 31q27 0 56.5 -10.5t44.5 -28.5h4l58 39zM377 400
q-8 20 -27 31.5t-44 11.5q-51 0 -88 -28t-61 -70t-36 -92.5t-12 -95.5q0 -56 27 -84.5t65 -28.5q37 0 66 16.5t46 36.5zM274 545q19 42 35.5 78.5t36.5 81.5l64 -33q-16 -24 -28.5 -42t-23 -34.5l-21 -33t-23.5 -37.5z" />
    <glyph glyph-name="acircumflex" unicode="&#xe2;" horiz-adv-x="518" 
d="M482 477q-8 -35 -17 -75q-8 -34 -17 -76.5t-17 -87.5l-47 -238h-84l10 55h-5q-11 -11 -26 -23t-33 -21.5t-39 -15.5t-43 -6q-32 0 -58 11t-45 31t-30 48t-12 63q-2 59 17.5 119.5t56.5 109.5t90.5 80t118.5 31q27 0 56.5 -10.5t44.5 -28.5h4l58 39zM377 400
q-8 20 -27 31.5t-44 11.5q-51 0 -88 -28t-61 -70t-36 -92.5t-12 -95.5q0 -56 27 -84.5t65 -28.5q37 0 66 16.5t46 36.5zM365 706q10 -18 18 -34t16 -33t17.5 -36.5t21.5 -43.5l-33 -23q-12 17 -21.5 30.5t-18 26t-17 25.5t-18.5 28h-2q-26 -26 -53.5 -51t-64.5 -60l-28 24
q22 25 39 43t32 34t31 32l38 38h43z" />
    <glyph glyph-name="atilde" unicode="&#xe3;" horiz-adv-x="518" 
d="M482 477q-8 -35 -17 -75q-8 -34 -17 -76.5t-17 -87.5l-47 -238h-84l10 55h-5q-11 -11 -26 -23t-33 -21.5t-39 -15.5t-43 -6q-32 0 -58 11t-45 31t-30 48t-12 63q-2 59 17.5 119.5t56.5 109.5t90.5 80t118.5 31q27 0 56.5 -10.5t44.5 -28.5h4l58 39zM377 400
q-8 20 -27 31.5t-44 11.5q-51 0 -88 -28t-61 -70t-36 -92.5t-12 -95.5q0 -56 27 -84.5t65 -28.5q37 0 66 16.5t46 36.5zM386 572q-17 0 -35.5 10.5t-40.5 21.5q-16 8 -28 13.5t-26 5.5q-8 0 -16.5 -2.5t-14.5 -9t-8.5 -17.5t2.5 -27l-51 16q5 42 31 63t63 21q23 0 39 -6
t32 -14q17 -9 31.5 -18t28.5 -9q38 0 28 55l48 -17q-11 -47 -29.5 -66.5t-53.5 -19.5z" />
    <glyph glyph-name="adieresis" unicode="&#xe4;" horiz-adv-x="518" 
d="M482 477q-8 -35 -17 -75q-8 -34 -17 -76.5t-17 -87.5l-47 -238h-84l10 55h-5q-11 -11 -26 -23t-33 -21.5t-39 -15.5t-43 -6q-32 0 -58 11t-45 31t-30 48t-12 63q-2 59 17.5 119.5t56.5 109.5t90.5 80t118.5 31q27 0 56.5 -10.5t44.5 -28.5h4l58 39zM377 400
q-8 20 -27 31.5t-44 11.5q-51 0 -88 -28t-61 -70t-36 -92.5t-12 -95.5q0 -56 27 -84.5t65 -28.5q37 0 66 16.5t46 36.5zM115 621q0 20 14 34.5t34 14.5t34.5 -14.5t14.5 -34.5t-14.5 -34t-34.5 -14t-34 14t-14 34zM289 621q0 20 14 34.5t34 14.5q19 0 33.5 -14.5t14.5 -34.5
t-14.5 -34t-33.5 -14q-20 0 -34 14t-14 34z" />
    <glyph glyph-name="aring" unicode="&#xe5;" horiz-adv-x="504" 
d="M482 477q-8 -35 -17 -75q-8 -34 -17 -76.5t-17 -87.5l-47 -238h-84l10 55h-5q-11 -11 -26 -23t-33 -21.5t-39 -15.5t-43 -6q-32 0 -58 11t-45 31t-30 48t-12 63q-2 59 17.5 119.5t56.5 109.5t90.5 80t118.5 31q27 0 56.5 -10.5t44.5 -28.5h4l58 39zM377 400
q-8 20 -27 31.5t-44 11.5q-51 0 -88 -28t-61 -70t-36 -92.5t-12 -95.5q0 -56 27 -84.5t65 -28.5q37 0 66 16.5t46 36.5zM341 700q32 0 56.5 -21.5t24.5 -59.5t-24.5 -59t-56.5 -21t-56.5 21t-24.5 59t24.5 59.5t56.5 21.5zM341 668q-20 0 -33 -14.5t-13 -34.5t13 -34t33 -14
t32 14t12 34q0 22 -12 35.5t-32 13.5z" />
    <glyph glyph-name="ae" unicode="&#xe6;" horiz-adv-x="696" 
d="M540 252q-9 -3 -25.5 -8t-35 -10t-38 -10.5t-34.5 -8.5q-1 -10 -1.5 -19t-0.5 -18q0 -66 27 -96.5t71 -30.5q42 0 77 18.5t61 47.5l23 -27q-13 -16 -30.5 -33.5t-41.5 -32.5t-54.5 -25t-68.5 -10q-54 0 -90.5 26.5t-51.5 77.5h-1q-34 -46 -74.5 -75t-97.5 -29
q-64 0 -95 42t-31 111q0 58 21 118.5t59 109.5t92 80.5t119 31.5q43 0 70.5 -10t52.5 -34h4q29 21 61 32.5t68 11.5q63 0 89 -26.5t26 -74.5q0 -42 -39 -73t-111 -56zM191 44q35 0 68 30t58 73q-1 6 -1 11.5v10.5q0 61 21 118t58 102q-12 22 -32 38t-48 16q-48 0 -85 -28
t-62 -70t-38 -92.5t-13 -95.5q0 -113 74 -113zM563 442q-26 0 -49 -15.5t-42 -41t-33.5 -58.5t-23.5 -67q13 3 30.5 8t34 10t30.5 9.5t21 7.5q38 17 58 34.5t20 45.5q0 27 -10 47t-36 20z" />
    <glyph glyph-name="ccedilla" unicode="&#xe7;" horiz-adv-x="401" 
d="M212 50q52 0 86.5 20t63.5 46l23 -28q-22 -27 -52 -51t-70 -37l-28 -43q5 2 12 2.5t13 0.5q33 0 47.5 -15t14.5 -42q0 -13 -7.5 -26.5t-22.5 -24t-37.5 -17.5t-51.5 -7q-28 0 -51 7t-36 15l27 44q10 -17 27.5 -27.5t38.5 -10.5q29 0 41 12.5t12 32.5q0 13 -8 20.5
t-22 7.5q-6 0 -13.5 -3t-11.5 -7l-26 14l38 58q-6 -1 -13 -1.5t-13 -0.5q-82 0 -123.5 49t-41.5 137q0 62 20.5 118t56.5 98t85 66.5t107 24.5q38 0 65.5 -7t47.5 -18l-31 -68q-20 26 -40.5 39.5t-49.5 13.5q-41 0 -73 -22t-54 -58.5t-34 -83t-12 -94.5q0 -26 4 -50
t15 -42.5t29.5 -30t47.5 -11.5z" />
    <glyph glyph-name="egrave" unicode="&#xe8;" horiz-adv-x="414" 
d="M251 252q-9 -3 -25.5 -8t-35 -10t-38 -10.5t-34.5 -8.5q-1 -10 -1.5 -19t-0.5 -18q0 -66 27 -96.5t71 -30.5q42 0 82 18.5t66 47.5l23 -27q-17 -18 -37 -36.5t-44.5 -32.5t-55 -23t-68.5 -9q-72 0 -111.5 46t-40.5 134q0 59 20 115.5t54.5 100.5t82 70.5t101.5 26.5
q63 0 92.5 -26.5t29.5 -74.5q0 -42 -42.5 -73t-114.5 -56zM274 442q-26 0 -49 -15.5t-42 -41t-33.5 -58.5t-23.5 -67q13 3 30.5 8t34 10t30.5 9.5t21 7.5q38 17 62 34.5t24 45.5q0 27 -11 47t-43 20zM268 530q-10 38 -17 79.5t-17 83.5l68 12q2 -24 3 -44t2 -39t2.5 -39.5
t4.5 -47.5z" />
    <glyph glyph-name="eacute" unicode="&#xe9;" horiz-adv-x="414" 
d="M251 252q-9 -3 -25.5 -8t-35 -10t-38 -10.5t-34.5 -8.5q-1 -10 -1.5 -19t-0.5 -18q0 -66 27 -96.5t71 -30.5q42 0 82 18.5t66 47.5l23 -27q-17 -18 -37 -36.5t-44.5 -32.5t-55 -23t-68.5 -9q-72 0 -111.5 46t-40.5 134q0 59 20 115.5t54.5 100.5t82 70.5t101.5 26.5
q63 0 92.5 -26.5t29.5 -74.5q0 -42 -42.5 -73t-114.5 -56zM274 442q-26 0 -49 -15.5t-42 -41t-33.5 -58.5t-23.5 -67q13 3 30.5 8t34 10t30.5 9.5t21 7.5q38 17 62 34.5t24 45.5q0 27 -11 47t-43 20zM242 545q19 42 35.5 78.5t36.5 81.5l64 -33q-16 -24 -28.5 -42t-23 -34.5
l-21 -33t-23.5 -37.5z" />
    <glyph glyph-name="ecircumflex" unicode="&#xea;" horiz-adv-x="414" 
d="M251 252q-9 -3 -25.5 -8t-35 -10t-38 -10.5t-34.5 -8.5q-1 -10 -1.5 -19t-0.5 -18q0 -66 27 -96.5t71 -30.5q42 0 82 18.5t66 47.5l23 -27q-17 -18 -37 -36.5t-44.5 -32.5t-55 -23t-68.5 -9q-72 0 -111.5 46t-40.5 134q0 59 20 115.5t54.5 100.5t82 70.5t101.5 26.5
q63 0 92.5 -26.5t29.5 -74.5q0 -42 -42.5 -73t-114.5 -56zM274 442q-26 0 -49 -15.5t-42 -41t-33.5 -58.5t-23.5 -67q13 3 30.5 8t34 10t30.5 9.5t21 7.5q38 17 62 34.5t24 45.5q0 27 -11 47t-43 20zM370 706q10 -18 18 -34t16 -33t17.5 -36.5t21.5 -43.5l-34 -23
q-12 17 -21.5 30.5t-18 26t-16.5 25.5t-18 28h-2q-26 -26 -53.5 -51t-65.5 -60l-27 24q22 25 39 43t32 34t31 32l38 38h43z" />
    <glyph glyph-name="edieresis" unicode="&#xeb;" horiz-adv-x="414" 
d="M251 252q-9 -3 -25.5 -8t-35 -10t-38 -10.5t-34.5 -8.5q-1 -10 -1.5 -19t-0.5 -18q0 -66 27 -96.5t71 -30.5q42 0 82 18.5t66 47.5l23 -27q-17 -18 -37 -36.5t-44.5 -32.5t-55 -23t-68.5 -9q-72 0 -111.5 46t-40.5 134q0 59 20 115.5t54.5 100.5t82 70.5t101.5 26.5
q63 0 92.5 -26.5t29.5 -74.5q0 -42 -42.5 -73t-114.5 -56zM274 442q-26 0 -49 -15.5t-42 -41t-33.5 -58.5t-23.5 -67q13 3 30.5 8t34 10t30.5 9.5t21 7.5q38 17 62 34.5t24 45.5q0 27 -11 47t-43 20zM175 621q0 20 14 34.5t34 14.5q19 0 33.5 -14.5t14.5 -34.5t-14.5 -34
t-33.5 -14q-20 0 -34 14t-14 34zM349 621q0 20 14 34.5t34 14.5q19 0 33.5 -14.5t14.5 -34.5t-14.5 -34t-33.5 -14q-20 0 -34 14t-14 34z" />
    <glyph glyph-name="igrave" unicode="&#xec;" horiz-adv-x="224" 
d="M75 256q8 39 13.5 66t9.5 49t8 42.5t9 44.5l95 19q-13 -58 -27 -119l-28 -122q-8 -39 -14 -68.5t-11 -56l-10 -53t-11 -58.5h-91zM143 530q-10 38 -17 79.5t-17 83.5l68 12q2 -24 3 -44t2 -39t2.5 -39.5t4.5 -47.5z" />
    <glyph glyph-name="iacute" unicode="&#xed;" horiz-adv-x="224" 
d="M75 256q8 39 13.5 66t9.5 49t8 42.5t9 44.5l95 19q-13 -58 -27 -119l-28 -122q-8 -39 -14 -68.5t-11 -56l-10 -53t-11 -58.5h-91zM154 545q18 42 35 78.5t36 81.5l65 -33q-16 -24 -28.5 -42t-23.5 -34.5t-21.5 -33t-23.5 -37.5z" />
    <glyph glyph-name="icircumflex" unicode="&#xee;" horiz-adv-x="224" 
d="M75 256q8 39 13.5 66t9.5 49t8 42.5t9 44.5l95 19q-13 -58 -27 -119l-28 -122q-8 -39 -14 -68.5t-11 -56l-10 -53t-11 -58.5h-91zM226 706q10 -18 18 -34t16 -33t17.5 -36.5t21.5 -43.5l-33 -23q-12 17 -21.5 30.5t-18 26t-17 25.5t-18.5 28h-1q-26 -26 -53.5 -51
t-65.5 -60l-28 24q22 25 39 43t32 34t31 32l38 38h43z" />
    <glyph glyph-name="idieresis" unicode="&#xef;" horiz-adv-x="224" 
d="M75 256q8 39 13.5 66t9.5 49t8 42.5t9 44.5l95 19q-13 -58 -27 -119l-28 -122q-8 -39 -14 -68.5t-11 -56l-10 -53t-11 -58.5h-91zM225 621q0 20 14 34.5t34 14.5t34.5 -14.5t14.5 -34.5t-14.5 -34t-34.5 -14t-34 14t-14 34zM52 621q0 20 14 34.5t33 14.5q20 0 34.5 -14.5
t14.5 -34.5t-14.5 -34t-34.5 -14q-19 0 -33 14t-14 34z" />
    <glyph glyph-name="eth" unicode="&#xf0;" horiz-adv-x="453" 
d="M132 696q89 -24 158 -84q22 13 50.5 28.5t58.5 34.5l25 -42l-99 -56q48 -55 74 -126.5t26 -156.5q0 -67 -18 -122.5t-50.5 -96t-77.5 -63t-100 -22.5q-71 0 -115 42.5t-46 128.5q0 53 18.5 102t51 87t77.5 61t98 23q25 0 42 -7.5t34 -23.5q-6 37 -23 74t-43 69l-109 -64
l-26 44l52 30t49 27q-56 53 -126 72zM187 37q37 0 66.5 22.5t50 57.5t31 78.5t10.5 85.5q0 30 -6.5 50.5t-18.5 33t-28 18t-35 5.5q-38 0 -67.5 -21t-50 -55t-31 -75.5t-10.5 -83.5q0 -33 6.5 -55.5t18.5 -36t28.5 -19t35.5 -5.5z" />
    <glyph glyph-name="ntilde" unicode="&#xf1;" horiz-adv-x="525" 
d="M71 236q16 77 25 126t16 90l88 18q-4 -17 -6 -29t-4 -23h3q15 10 32 20t29 16q28 13 50.5 20.5t57.5 7.5q62 0 92 -32t28 -81q-1 -15 -1.5 -26t-4.5 -31l-22 -99q-9 -39 -14 -65t-9.5 -48t-8.5 -45t-11 -55h-93q7 32 13.5 58.5t12.5 53t12.5 56t14.5 68.5q7 31 15 64.5
t8 67.5q-1 27 -16 41t-50 14q-29 0 -67.5 -13t-74.5 -40l-33 -155q-8 -39 -13.5 -65t-9.5 -48.5t-8.5 -46t-11.5 -55.5h-92q7 32 13.5 58.5t12.5 53t12.5 56t14.5 68.5zM405 572q-17 0 -36 10.5t-41 21.5q-16 8 -28 13.5t-26 5.5q-8 0 -16.5 -2.5t-14.5 -9t-8.5 -17.5
t2.5 -27l-50 16q5 42 31 63t63 21q23 0 38.5 -6t31.5 -14q17 -9 31.5 -18t28.5 -9q21 0 27.5 13t1.5 42l48 -17q-11 -47 -29.5 -66.5t-53.5 -19.5z" />
    <glyph glyph-name="ograve" unicode="&#xf2;" horiz-adv-x="507" 
d="M224 30q45 0 76 25t50 64.5t27.5 87.5t8.5 95q0 73 -30.5 106t-72.5 34q-45 0 -76 -25t-50 -65t-27.5 -88.5t-8.5 -94.5q0 -73 30 -106t73 -33zM291 482q80 0 131 -47t53 -142q0 -59 -18.5 -114t-52 -97t-81.5 -67.5t-107 -25.5q-80 0 -131 47t-53 142q0 59 18 114t52 97
t82 67.5t107 25.5zM293 530q-9 38 -16 79.5t-18 83.5l69 12q2 -24 3 -44t2 -39t2.5 -39.5t3.5 -47.5z" />
    <glyph glyph-name="oacute" unicode="&#xf3;" horiz-adv-x="507" 
d="M224 30q45 0 76 25t50 64.5t27.5 87.5t8.5 95q0 73 -30.5 106t-72.5 34q-45 0 -76 -25t-50 -65t-27.5 -88.5t-8.5 -94.5q0 -73 30 -106t73 -33zM291 482q80 0 131 -47t53 -142q0 -59 -18.5 -114t-52 -97t-81.5 -67.5t-107 -25.5q-80 0 -131 47t-53 142q0 59 18 114t52 97
t82 67.5t107 25.5zM277 545q19 42 35.5 78.5t36.5 81.5l64 -33q-16 -24 -28.5 -42t-23 -34.5t-21.5 -33t-24 -37.5z" />
    <glyph glyph-name="ocircumflex" unicode="&#xf4;" horiz-adv-x="507" 
d="M224 30q45 0 76 25t50 64.5t27.5 87.5t8.5 95q0 73 -30.5 106t-72.5 34q-45 0 -76 -25t-50 -65t-27.5 -88.5t-8.5 -94.5q0 -73 30 -106t73 -33zM291 482q80 0 131 -47t53 -142q0 -59 -18.5 -114t-52 -97t-81.5 -67.5t-107 -25.5q-80 0 -131 47t-53 142q0 59 18 114t52 97
t82 67.5t107 25.5zM368 706q10 -18 18 -34t16 -33t17.5 -36.5t21.5 -43.5l-33 -23q-12 17 -22 30.5t-18.5 26t-16.5 25.5t-18 28h-2q-26 -26 -53.5 -51t-64.5 -60l-28 24q22 25 39 43t32 34t31 32l38 38h43z" />
    <glyph glyph-name="otilde" unicode="&#xf5;" horiz-adv-x="507" 
d="M224 30q45 0 76 25t50 64.5t27.5 87.5t8.5 95q0 73 -30.5 106t-72.5 34q-45 0 -76 -25t-50 -65t-27.5 -88.5t-8.5 -94.5q0 -73 30 -106t73 -33zM291 482q80 0 131 -47t53 -142q0 -59 -18.5 -114t-52 -97t-81.5 -67.5t-107 -25.5q-80 0 -131 47t-53 142q0 59 18 114t52 97
t82 67.5t107 25.5zM398 572q-17 0 -35.5 10.5t-40.5 21.5q-16 8 -28 13.5t-26 5.5q-8 0 -16.5 -2.5t-14.5 -9t-8.5 -17.5t2.5 -27l-51 16q5 42 31 63t63 21q23 0 39 -6t32 -14q17 -9 31.5 -18t28.5 -9q38 0 28 55l48 -17q-11 -47 -29.5 -66.5t-53.5 -19.5z" />
    <glyph glyph-name="odieresis" unicode="&#xf6;" horiz-adv-x="507" 
d="M224 30q45 0 76 25t50 64.5t27.5 87.5t8.5 95q0 73 -30.5 106t-72.5 34q-45 0 -76 -25t-50 -65t-27.5 -88.5t-8.5 -94.5q0 -73 30 -106t73 -33zM291 482q80 0 131 -47t53 -142q0 -59 -18.5 -114t-52 -97t-81.5 -67.5t-107 -25.5q-80 0 -131 47t-53 142q0 59 18 114t52 97
t82 67.5t107 25.5zM201 621q0 20 14 34.5t33 14.5q20 0 34.5 -14.5t14.5 -34.5t-14.5 -34t-34.5 -14q-19 0 -33 14t-14 34zM374 621q0 20 14.5 34.5t33.5 14.5q20 0 34.5 -14.5t14.5 -34.5t-14.5 -34t-34.5 -14q-19 0 -33.5 14t-14.5 34z" />
    <glyph glyph-name="divide" unicode="&#xf7;" horiz-adv-x="584" 
d="M516 247h-455v48h455v-48zM235 92q0 21 15 36.5t35 15.5q21 0 36.5 -15.5t15.5 -36.5t-15.5 -36t-36.5 -15q-20 0 -35 15t-15 36zM235 448q0 21 15 36.5t35 15.5q21 0 36.5 -15.5t15.5 -36.5t-15.5 -36t-36.5 -15q-20 0 -35 15t-15 36z" />
    <glyph glyph-name="oslash" unicode="&#xf8;" horiz-adv-x="507" 
d="M63 -63l43 82q-34 23 -53.5 62.5t-20.5 96.5q0 59 18 114t52 97t82 67.5t107 25.5q14 0 27.5 -2t26.5 -4l44 86l51 -23q-12 -22 -23.5 -43t-21.5 -41q36 -23 57 -63t23 -99q0 -59 -18.5 -114t-52 -97t-81.5 -67.5t-107 -25.5q-17 0 -32 2.5t-29 5.5q-10 -20 -20.5 -40.5
t-21.5 -42.5zM224 30q45 0 76 25t50 64.5t27.5 87.5t8.5 95q0 59 -22 94l-85 -167q-23 -42 -48.5 -89.5t-52.5 -99.5q20 -10 46 -10zM121 169q0 -56 18 -89q26 48 50 91.5t45 83.5l90 177q-10 5 -20 7t-21 3q-45 0 -76 -25t-50 -65t-27.5 -88.5t-8.5 -94.5z" />
    <glyph glyph-name="ugrave" unicode="&#xf9;" horiz-adv-x="506" 
d="M439 234q-8 -39 -14.5 -69t-11.5 -57t-9 -53t-8 -55h-91q5 20 7.5 33.5t6.5 27.5h-3q-15 -17 -35 -31t-43.5 -23.5t-49 -14.5t-49.5 -5q-62 0 -87 31t-23 80q0 8 0.5 16t3 24t8 43.5t15.5 74.5q8 39 13.5 65t10 48.5t9 45.5t10.5 55h93q-7 -32 -13 -58.5l-12 -53t-13 -56
t-15 -68.5q-7 -32 -14 -67t-7 -69q1 -27 14.5 -42t48.5 -15q15 0 32.5 3.5t37 12t39 23t37.5 36.5l30 138q8 39 13.5 65.5t10 49.5l9 46t10.5 55h92q-7 -32 -13 -58.5l-12 -53t-13 -56t-15 -68.5zM291 530q-10 38 -17 79.5t-17 83.5l68 12q2 -24 3 -44t2 -39t2.5 -39.5
t4.5 -47.5z" />
    <glyph glyph-name="uacute" unicode="&#xfa;" horiz-adv-x="506" 
d="M439 234q-8 -39 -14.5 -69t-11.5 -57t-9 -53t-8 -55h-91q5 20 7.5 33.5t6.5 27.5h-3q-15 -17 -35 -31t-43.5 -23.5t-49 -14.5t-49.5 -5q-62 0 -87 31t-23 80q0 8 0.5 16t3 24t8 43.5t15.5 74.5q8 39 13.5 65t10 48.5t9 45.5t10.5 55h93q-7 -32 -13 -58.5l-12 -53t-13 -56
t-15 -68.5q-7 -32 -14 -67t-7 -69q1 -27 14.5 -42t48.5 -15q15 0 32.5 3.5t37 12t39 23t37.5 36.5l30 138q8 39 13.5 65.5t10 49.5l9 46t10.5 55h92q-7 -32 -13 -58.5l-12 -53t-13 -56t-15 -68.5zM265 545q19 42 35.5 78.5t36.5 81.5l64 -33q-16 -24 -28.5 -42t-23 -34.5
l-21 -33t-23.5 -37.5z" />
    <glyph glyph-name="ucircumflex" unicode="&#xfb;" horiz-adv-x="506" 
d="M439 234q-8 -39 -14.5 -69t-11.5 -57t-9 -53t-8 -55h-91q5 20 7.5 33.5t6.5 27.5h-3q-15 -17 -35 -31t-43.5 -23.5t-49 -14.5t-49.5 -5q-62 0 -87 31t-23 80q0 8 0.5 16t3 24t8 43.5t15.5 74.5q8 39 13.5 65t10 48.5t9 45.5t10.5 55h93q-7 -32 -13 -58.5l-12 -53t-13 -56
t-15 -68.5q-7 -32 -14 -67t-7 -69q1 -27 14.5 -42t48.5 -15q15 0 32.5 3.5t37 12t39 23t37.5 36.5l30 138q8 39 13.5 65.5t10 49.5l9 46t10.5 55h92q-7 -32 -13 -58.5l-12 -53t-13 -56t-15 -68.5zM365 706q10 -18 18 -34t16 -33t17.5 -36.5t21.5 -43.5l-33 -23
q-12 17 -21.5 30.5t-18 26t-17 25.5t-18.5 28h-2q-26 -26 -53.5 -51t-64.5 -60l-28 24q22 25 39 43t32 34t31 32l38 38h43z" />
    <glyph glyph-name="udieresis" unicode="&#xfc;" horiz-adv-x="506" 
d="M439 234q-8 -39 -14.5 -69t-11.5 -57t-9 -53t-8 -55h-91q5 20 7.5 33.5t6.5 27.5h-3q-15 -17 -35 -31t-43.5 -23.5t-49 -14.5t-49.5 -5q-62 0 -87 31t-23 80q0 8 0.5 16t3 24t8 43.5t15.5 74.5q8 39 13.5 65t10 48.5t9 45.5t10.5 55h93q-7 -32 -13 -58.5l-12 -53t-13 -56
t-15 -68.5q-7 -32 -14 -67t-7 -69q1 -27 14.5 -42t48.5 -15q15 0 32.5 3.5t37 12t39 23t37.5 36.5l30 138q8 39 13.5 65.5t10 49.5l9 46t10.5 55h92q-7 -32 -13 -58.5l-12 -53t-13 -56t-15 -68.5zM179 621q0 20 14 34.5t34 14.5t34.5 -14.5t14.5 -34.5t-14.5 -34t-34.5 -14
t-34 14t-14 34zM353 621q0 20 14 34.5t34 14.5t34.5 -14.5t14.5 -34.5t-14.5 -34t-34.5 -14t-34 14t-14 34z" />
    <glyph glyph-name="yacute" unicode="&#xfd;" horiz-adv-x="419" 
d="M-92 -144q30 13 57 27t53.5 30t53 35t53.5 44q-10 78 -18 140.5t-17 118t-19 108t-24 111.5h90q20 -98 36.5 -199.5t27.5 -204.5q70 88 111.5 189t61.5 215h72q-27 -105 -66 -200t-99 -179t-145 -155.5t-205 -130.5zM237 545q19 42 35.5 78.5t36.5 81.5l65 -33
q-17 -24 -29 -42l-23 -34.5t-21.5 -33t-23.5 -37.5z" />
    <glyph glyph-name="thorn" unicode="&#xfe;" horiz-adv-x="527" 
d="M206 443q29 17 67 28t72 11q39 0 68 -13t48.5 -36.5t29 -56t9.5 -70.5q0 -60 -18 -117.5t-54 -101.5t-89 -71t-122 -27q-30 0 -58.5 9.5t-47.5 21.5l-44 -215h-92l121 540q15 72 26 125.5t19 94.5t14 74t12 64l94 13zM130 87q16 -24 36.5 -41t55.5 -17q51 0 87 21.5
t59 59t33.5 88t10.5 108.5q0 25 -6 48t-18.5 40t-31 27t-42.5 10q-42 0 -68 -6.5t-49 -20.5z" />
    <glyph glyph-name="ydieresis" unicode="&#xff;" horiz-adv-x="419" 
d="M-92 -144q30 13 57 27t53.5 30t53 35t53.5 44q-10 78 -18 140.5t-17 118t-19 108t-24 111.5h90q20 -98 36.5 -199.5t27.5 -204.5q70 88 111.5 189t61.5 215h72q-27 -105 -66 -200t-99 -179t-145 -155.5t-205 -130.5zM133 621q0 20 14 34.5t34 14.5t34.5 -14.5t14.5 -34.5
t-14.5 -34t-34.5 -14t-34 14t-14 34zM307 621q0 20 14 34.5t34 14.5t34.5 -14.5t14.5 -34.5t-14.5 -34t-34.5 -14t-34 14t-14 34z" />
    <glyph glyph-name="Amacron" unicode="&#x100;" horiz-adv-x="583" 
d="M415 0q-7 48 -13.5 96.5t-12.5 98.5q-33 0 -63 0.5t-57 0.5h-58.5t-60.5 -1q-25 -45 -51.5 -92.5t-58.5 -102.5h-72q55 99 104 183.5t95 163.5t90.5 155t90.5 157q11 5 22 11.5t21 12.5q11 7 23 15q26 -171 51 -341.5t54 -356.5h-104zM340 539q-44 -76 -81.5 -145.5
t-79.5 -144.5q26 -1 50 -1h49q23 0 49.5 0.5t55.5 0.5q-11 88 -22.5 159.5t-20.5 130.5zM402 808h34t29.5 0.5t31 0.5h40.5l-14 -53q-24 0 -39 0.5t-27.5 0.5h-26.5h-36h-34.5t-29 -0.5t-31 -0.5h-40.5l14 53q24 0 39 -0.5t27 -0.5h26h37z" />
    <glyph glyph-name="amacron" unicode="&#x101;" horiz-adv-x="518" 
d="M482 477q-8 -35 -17 -75q-8 -34 -17 -76.5t-17 -87.5l-47 -238h-84l10 55h-5q-11 -11 -26 -23t-33 -21.5t-39 -15.5t-43 -6q-32 0 -58 11t-45 31t-30 48t-12 63q-2 59 17.5 119.5t56.5 109.5t90.5 80t118.5 31q27 0 56.5 -10.5t44.5 -28.5h4l58 39zM377 400
q-8 20 -27 31.5t-44 11.5q-51 0 -88 -28t-61 -70t-36 -92.5t-12 -95.5q0 -56 27 -84.5t65 -28.5q37 0 66 16.5t46 36.5zM330 642h32.5t26 0.5t27.5 0.5h39l-14 -49q-25 0 -38.5 0.5t-24 0.5h-23h-35.5h-32t-25.5 -0.5t-28 -0.5h-39.5l15 49q24 0 37.5 -0.5t24.5 -0.5h23h35z
" />
    <glyph glyph-name="Abreve" unicode="&#x102;" horiz-adv-x="583" 
d="M415 0q-7 48 -13.5 96.5t-12.5 98.5q-33 0 -63 0.5t-57 0.5h-58.5t-60.5 -1q-25 -45 -51.5 -92.5t-58.5 -102.5h-72q55 99 104 183.5t95 163.5t90.5 155t90.5 157q11 5 22 11.5t21 12.5q11 7 23 15q26 -171 51 -341.5t54 -356.5h-104zM340 539q-44 -76 -81.5 -145.5
t-79.5 -144.5q26 -1 50 -1h49q23 0 49.5 0.5t55.5 0.5q-11 88 -22.5 159.5t-20.5 130.5zM391 781q35 0 58.5 18t45.5 62l44 -9q-12 -39 -28.5 -63t-36.5 -38t-44.5 -19t-52.5 -5q-21 0 -42.5 7.5t-38.5 23t-27 39t-9 55.5l48 9q5 -44 22 -62t61 -18z" />
    <glyph glyph-name="abreve" unicode="&#x103;" horiz-adv-x="518" 
d="M482 477q-8 -35 -17 -75q-8 -34 -17 -76.5t-17 -87.5l-47 -238h-84l10 55h-5q-11 -11 -26 -23t-33 -21.5t-39 -15.5t-43 -6q-32 0 -58 11t-45 31t-30 48t-12 63q-2 59 17.5 119.5t56.5 109.5t90.5 80t118.5 31q27 0 56.5 -10.5t44.5 -28.5h4l58 39zM377 400
q-8 20 -27 31.5t-44 11.5q-51 0 -88 -28t-61 -70t-36 -92.5t-12 -95.5q0 -56 27 -84.5t65 -28.5q37 0 66 16.5t46 36.5zM323 587q22 0 37 3.5t25 12t16 22.5t10 36l43 -5q-8 -38 -23 -60.5t-34.5 -35t-42 -16.5t-45.5 -4q-26 0 -47.5 8t-35 23t-17.5 37t5 50l45 3
q-5 -24 -0.5 -38.5t14 -22.5t23 -10.5t27.5 -2.5z" />
    <glyph glyph-name="Aogonek" unicode="&#x104;" horiz-adv-x="583" 
d="M443 0q-10 -10 -21 -21.5t-20.5 -25t-15.5 -28.5t-6 -32q0 -16 11.5 -26t28.5 -10t33.5 10t27.5 24l10 -36q-32 -27 -97 -27q-25 0 -40 6t-23.5 15.5t-11.5 20.5t-3 21q0 19 11 37t26 33.5t31.5 27.5t28.5 19l-24 187q-33 0 -63 0.5t-57 0.5h-58.5t-60.5 -1
q-25 -45 -51.5 -92.5t-58.5 -102.5h-72q55 99 104 183.5t95 163.5t90.5 155t90.5 157q11 5 22 11.5t21 12.5q11 7 23 15q26 -171 51 -341.5t54 -356.5h-76zM340 539q-44 -76 -81.5 -145.5t-79.5 -144.5q26 -1 50 -1h49q23 0 49.5 0.5t55.5 0.5q-11 88 -22.5 159.5
t-20.5 130.5z" />
    <glyph glyph-name="aogonek" unicode="&#x105;" horiz-adv-x="518" 
d="M429 238q-30 -113 -45 -238h-40q-20 -19 -38.5 -44.5t-18.5 -56.5q0 -16 11.5 -26t28.5 -10t33.5 10t27.5 23l10 -36q-15 -12 -40 -19.5t-57 -7.5q-24 0 -39.5 6t-24 15.5t-11.5 21t-3 21.5q0 15 7 30t18.5 28.5t25 24.5t26.5 20h-1l11 55h-5q-11 -11 -26 -23t-33 -21.5
t-39 -15.5t-43 -6q-32 0 -58 11t-45 31t-30 48t-12 63q-2 59 17.5 119.5t56.5 109.5t90.5 80t118.5 31q27 0 56.5 -10.5t44.5 -28.5h4l58 39l17 -5zM375 400q-8 20 -26 31.5t-43 11.5q-51 0 -88 -28t-61 -70t-36 -92.5t-12 -95.5q0 -56 27 -84.5t65 -28.5q37 0 66 16.5
t46 36.5z" />
    <glyph glyph-name="Cacute" unicode="&#x106;" horiz-adv-x="618" 
d="M329 51q37 0 66 6t52.5 19.5t44 35.5t41.5 54l40 -35q-37 -68 -103.5 -105t-154.5 -37q-60 0 -109.5 20.5t-85 58t-55 91t-19.5 119.5q0 93 28 169.5t76.5 132t113 86t137.5 30.5q40 0 70 -3.5t54.5 -11t44.5 -18.5t41 -25l-43 -70q-17 21 -34 35.5t-37 22.5t-44.5 11.5
t-55.5 3.5q-68 0 -116 -34.5t-78.5 -88.5t-44.5 -120t-14 -129q0 -57 16 -98t42 -68t59 -39.5t68 -12.5zM322 764q48 38 91.5 71.5t75.5 59.5l41 -59q-41 -23 -88 -50t-97 -56z" />
    <glyph glyph-name="cacute" unicode="&#x107;" horiz-adv-x="401" 
d="M212 50q52 0 86.5 20t63.5 46l23 -28q-15 -18 -34.5 -36t-43.5 -32t-52.5 -22.5t-61.5 -8.5q-82 0 -123.5 49t-41.5 137q0 62 20.5 118t56.5 98t85 66.5t107 24.5q38 0 65.5 -7t47.5 -18l-31 -68q-20 26 -40.5 39.5t-49.5 13.5q-41 0 -73 -22t-54 -58.5t-34 -83
t-12 -94.5q0 -26 4 -50t15 -42.5t29.5 -30t47.5 -11.5zM243 545q19 42 35.5 78.5t36.5 81.5l64 -33q-16 -24 -28.5 -42t-23.5 -34.5t-21.5 -33t-23.5 -37.5z" />
    <glyph glyph-name="Ccircumflex" unicode="&#x108;" horiz-adv-x="618" 
d="M329 51q37 0 66 6t52.5 19.5t44 35.5t41.5 54l40 -35q-37 -68 -103.5 -105t-154.5 -37q-60 0 -109.5 20.5t-85 58t-55 91t-19.5 119.5q0 93 28 169.5t76.5 132t113 86t137.5 30.5q40 0 70 -3.5t54.5 -11t44.5 -18.5t41 -25l-43 -70q-17 21 -34 35.5t-37 22.5t-44.5 11.5
t-55.5 3.5q-68 0 -116 -34.5t-78.5 -88.5t-44.5 -120t-14 -129q0 -57 16 -98t42 -68t59 -39.5t68 -12.5zM466 873q14 -15 25.5 -28.5t23.5 -27t25.5 -29t30.5 -35.5l-35 -31l-102 94h-2q-19 -11 -33 -21t-29 -20.5t-32.5 -23t-42.5 -28.5l-25 30q29 24 50 40t38 29t33 24.5
t35 26.5h40z" />
    <glyph glyph-name="ccircumflex" unicode="&#x109;" horiz-adv-x="401" 
d="M212 50q52 0 86.5 20t63.5 46l23 -28q-15 -18 -34.5 -36t-43.5 -32t-52.5 -22.5t-61.5 -8.5q-82 0 -123.5 49t-41.5 137q0 62 20.5 118t56.5 98t85 66.5t107 24.5q38 0 65.5 -7t47.5 -18l-31 -68q-20 26 -40.5 39.5t-49.5 13.5q-41 0 -73 -22t-54 -58.5t-34 -83
t-12 -94.5q0 -26 4 -50t15 -42.5t29.5 -30t47.5 -11.5zM362 706l17 -34l16.5 -33t17.5 -36.5t21 -43.5l-33 -23q-12 17 -21.5 30.5t-18 26t-17 25.5t-17.5 28h-2q-26 -26 -53.5 -51t-65.5 -60l-28 24q22 25 39 43t32 34t31 32l38 38h44z" />
    <glyph glyph-name="Cdotaccent" unicode="&#x10a;" horiz-adv-x="618" 
d="M329 51q37 0 66 6t52.5 19.5t44 35.5t41.5 54l40 -35q-37 -68 -103.5 -105t-154.5 -37q-60 0 -109.5 20.5t-85 58t-55 91t-19.5 119.5q0 93 28 169.5t76.5 132t113 86t137.5 30.5q40 0 70 -3.5t54.5 -11t44.5 -18.5t41 -25l-43 -70q-17 21 -34 35.5t-37 22.5t-44.5 11.5
t-55.5 3.5q-68 0 -116 -34.5t-78.5 -88.5t-44.5 -120t-14 -129q0 -57 16 -98t42 -68t59 -39.5t68 -12.5zM365 788q0 23 16 40t39 17t40 -17t17 -40t-17 -39t-40 -16t-39 16t-16 39z" />
    <glyph glyph-name="cdotaccent" unicode="&#x10b;" horiz-adv-x="401" 
d="M212 50q52 0 86.5 20t63.5 46l23 -28q-15 -18 -34.5 -36t-43.5 -32t-52.5 -22.5t-61.5 -8.5q-82 0 -123.5 49t-41.5 137q0 62 20.5 118t56.5 98t85 66.5t107 24.5q38 0 65.5 -7t47.5 -18l-31 -68q-20 26 -40.5 39.5t-49.5 13.5q-41 0 -73 -22t-54 -58.5t-34 -83
t-12 -94.5q0 -26 4 -50t15 -42.5t29.5 -30t47.5 -11.5zM265 626q0 23 16 39.5t39 16.5t39.5 -16.5t16.5 -39.5t-16.5 -39.5t-39.5 -16.5t-39 16.5t-16 39.5z" />
    <glyph glyph-name="Ccaron" unicode="&#x10c;" horiz-adv-x="618" 
d="M329 51q37 0 66 6t52.5 19.5t44 35.5t41.5 54l40 -35q-37 -68 -103.5 -105t-154.5 -37q-60 0 -109.5 20.5t-85 58t-55 91t-19.5 119.5q0 93 28 169.5t76.5 132t113 86t137.5 30.5q40 0 70 -3.5t54.5 -11t44.5 -18.5t41 -25l-43 -70q-17 21 -34 35.5t-37 22.5t-44.5 11.5
t-55.5 3.5q-68 0 -116 -34.5t-78.5 -88.5t-44.5 -120t-14 -129q0 -57 16 -98t42 -68t59 -39.5t68 -12.5zM374 722q-14 16 -25 29t-23 26.5t-25.5 29t-30.5 35.5l35 31l102 -94h1q19 12 33.5 21.5t29 20t32 22.5t43.5 29l25 -30q-29 -24 -50 -40t-38 -28.5t-33 -24.5t-35 -27
h-41z" />
    <glyph glyph-name="ccaron" unicode="&#x10d;" horiz-adv-x="401" 
d="M212 50q52 0 86.5 20t63.5 46l23 -28q-15 -18 -34.5 -36t-43.5 -32t-52.5 -22.5t-61.5 -8.5q-82 0 -123.5 49t-41.5 137q0 62 20.5 118t56.5 98t85 66.5t107 24.5q38 0 65.5 -7t47.5 -18l-31 -68q-20 26 -40.5 39.5t-49.5 13.5q-41 0 -73 -22t-54 -58.5t-34 -83
t-12 -94.5q0 -26 4 -50t15 -42.5t29.5 -30t47.5 -11.5zM279 535q-10 18 -18 33.5t-16.5 32.5t-17.5 36.5t-21 43.5l33 23q12 -17 21.5 -30.5t18 -26t17 -25.5t18.5 -28h2q26 26 53.5 51t64.5 61l28 -25q-23 -25 -39.5 -43t-31.5 -33.5t-31 -32t-38 -37.5h-43z" />
    <glyph glyph-name="Dcaron" unicode="&#x10e;" horiz-adv-x="649" 
d="M37 0l61 342q13 73 27.5 157.5t31.5 184.5h159q84 0 142.5 -22.5t96 -60.5t54.5 -89t17 -109q0 -89 -24 -161.5t-72.5 -124.5t-122 -82.5t-171.5 -34.5h-199zM248 53q67 0 118.5 24.5t86 70.5t52.5 113t18 152q0 51 -9 91.5t-32 68.5t-64.5 43t-105.5 15h-65
q-16 -87 -30 -154.5t-26 -132.5q-6 -38 -11.5 -70.5t-10.5 -66t-11 -70.5t-14 -84h104zM322 722q-14 16 -25.5 29t-23.5 26.5t-25.5 29t-30.5 35.5l35 31l102 -94h2q19 12 33.5 21.5t29 20t32 22.5t42.5 29l26 -30q-29 -24 -50 -40t-38.5 -28.5t-33.5 -24.5t-35 -27h-40z
" />
    <glyph glyph-name="dcaron" unicode="&#x10f;" horiz-adv-x="560" 
d="M447 699l94 17l-103 -478q-2 -14 -6 -32q-3 -15 -6.5 -35.5t-8.5 -43.5q-3 -15 -5.5 -24.5t-4.5 -21t-5.5 -29.5t-9.5 -52h-85l11 55h-4q-12 -12 -25 -24t-28.5 -21.5t-35.5 -15t-46 -5.5q-32 0 -59 10t-47 30.5t-31.5 50.5t-12.5 71q-2 59 16.5 118t54.5 106.5t88 77
t117 29.5q66 0 94 -17zM385 400q-8 15 -29 29t-52 14q-47 0 -82 -26t-58 -66t-34.5 -88.5t-11.5 -93.5q0 -39 8.5 -63t22 -38t30 -19t33.5 -5q42 0 69.5 20.5t41.5 48.5zM539 516q10 29 18 49.5t15 40t14.5 40t17.5 49.5h76q-16 -27 -29 -49t-25 -43l-24 -42t-26 -45h-37z
" />
    <glyph glyph-name="Dcroat" unicode="&#x110;" horiz-adv-x="649" 
d="M29 370l73 -2q12 69 26 146.5t29 169.5h159q84 0 142.5 -22.5t96 -60.5t54.5 -89t17 -109q0 -89 -24 -161.5t-72.5 -124.5t-122 -82.5t-171.5 -34.5h-199l57 316l-77 -1zM248 53q67 0 118.5 24.5t86 70.5t52.5 113t18 152q0 51 -9 91.5t-32 68.5t-64.5 43t-105.5 15h-65
q-14 -80 -27.5 -142t-24.5 -122l133 3l-12 -55l-129 1q-6 -32 -10.5 -61t-9.5 -59.5t-10.5 -65t-12.5 -77.5h104z" />
    <glyph glyph-name="dcroat" unicode="&#x111;" horiz-adv-x="509" 
d="M420 561q-23 -1 -51 -1h-48l11 47q21 0 47.5 -1t49.5 -2l21 99l91 13l-24 -112l80 3l-10 -47q-25 0 -44 0.5t-36 0.5l-69 -323q-2 -14 -6 -32q-3 -15 -6.5 -35.5t-8.5 -43.5q-3 -15 -5.5 -24.5t-4.5 -21t-5.5 -29.5t-9.5 -52h-85l11 55h-4q-12 -12 -25 -24t-28.5 -21.5
t-35.5 -15t-46 -5.5q-32 0 -59 10t-47 30.5t-31.5 50.5t-12.5 71q-2 59 16.5 118t54.5 106.5t88 77t117 29.5q66 0 94 -17zM385 400q-8 15 -29 29t-52 14q-47 0 -82 -26t-58 -66t-34.5 -88.5t-11.5 -93.5q0 -39 8.5 -63t22 -38t30 -19t33.5 -5q42 0 69.5 20.5t41.5 48.5z
" />
    <glyph glyph-name="Emacron" unicode="&#x112;" horiz-adv-x="507" 
d="M191 328l-47 -275l300 4l-16 -57h-391l61 342q13 73 27.5 157.5t31.5 184.5h368l-18 -59l-262 6q-8 -44 -14 -75.5t-11 -58.5t-9.5 -53.5t-9.5 -58.5l241 2l-22 -62zM357 808h33.5t29.5 0.5t31.5 0.5h40.5l-15 -53q-24 0 -38.5 0.5t-27 0.5h-26.5h-36h-34.5t-29 -0.5
t-31.5 -0.5h-41l15 53q24 0 39 -0.5t27 -0.5h26h37z" />
    <glyph glyph-name="emacron" unicode="&#x113;" horiz-adv-x="414" 
d="M251 252q-9 -3 -25.5 -8t-35 -10t-38 -10.5t-34.5 -8.5q-1 -10 -1.5 -19t-0.5 -18q0 -66 27 -96.5t71 -30.5q42 0 82 18.5t66 47.5l23 -27q-17 -18 -37 -36.5t-44.5 -32.5t-55 -23t-68.5 -9q-72 0 -111.5 46t-40.5 134q0 59 20 115.5t54.5 100.5t82 70.5t101.5 26.5
q63 0 92.5 -26.5t29.5 -74.5q0 -42 -42.5 -73t-114.5 -56zM274 442q-26 0 -49 -15.5t-42 -41t-33.5 -58.5t-23.5 -67q13 3 30.5 8t34 10t30.5 9.5t21 7.5q38 17 62 34.5t24 45.5q0 27 -11 47t-43 20zM306 642h32.5t26 0.5t27.5 0.5h39l-14 -49q-25 0 -38.5 0.5t-24 0.5h-23
h-35.5h-32t-25.5 -0.5t-28 -0.5h-39.5l15 49q24 0 37.5 -0.5t24.5 -0.5h23h35z" />
    <glyph glyph-name="Ebreve" unicode="&#x114;" horiz-adv-x="507" 
d="M191 328l-47 -275l300 4l-16 -57h-391l61 342q13 73 27.5 157.5t31.5 184.5h368l-18 -59l-262 6q-8 -44 -14 -75.5t-11 -58.5t-9.5 -53.5t-9.5 -58.5l241 2l-22 -62zM346 781q35 0 58 18t46 62l44 -9q-12 -39 -28.5 -63t-36.5 -38t-44.5 -19t-52.5 -5q-21 0 -42.5 7.5
t-38.5 23t-27 39t-9 55.5l48 9q5 -44 22 -62t61 -18z" />
    <glyph glyph-name="ebreve" unicode="&#x115;" horiz-adv-x="414" 
d="M251 252q-9 -3 -25.5 -8t-35 -10t-38 -10.5t-34.5 -8.5q-1 -10 -1.5 -19t-0.5 -18q0 -66 27 -96.5t71 -30.5q42 0 82 18.5t66 47.5l23 -27q-17 -18 -37 -36.5t-44.5 -32.5t-55 -23t-68.5 -9q-72 0 -111.5 46t-40.5 134q0 59 20 115.5t54.5 100.5t82 70.5t101.5 26.5
q63 0 92.5 -26.5t29.5 -74.5q0 -42 -42.5 -73t-114.5 -56zM274 442q-26 0 -49 -15.5t-42 -41t-33.5 -58.5t-23.5 -67q13 3 30.5 8t34 10t30.5 9.5t21 7.5q38 17 62 34.5t24 45.5q0 27 -11 47t-43 20zM300 587q22 0 37 3.5t25 12t16 22.5t10 36l43 -5q-8 -38 -23 -60.5
t-34.5 -35t-42 -16.5t-45.5 -4q-26 0 -47.5 8t-35 23t-17.5 37t5 50l45 3q-5 -24 -0.5 -38.5t14 -22.5t23 -10.5t27.5 -2.5z" />
    <glyph glyph-name="Edotaccent" unicode="&#x116;" horiz-adv-x="507" 
d="M191 328l-47 -275l300 4l-16 -57h-391l61 342q13 73 27.5 157.5t31.5 184.5h368l-18 -59l-262 6q-8 -44 -14 -75.5t-11 -58.5t-9.5 -53.5t-9.5 -58.5l241 2l-22 -62zM290 788q0 23 16 40t39 17t39.5 -17t16.5 -40t-16.5 -39t-39.5 -16t-39 16t-16 39z" />
    <glyph glyph-name="edotaccent" unicode="&#x117;" horiz-adv-x="414" 
d="M251 252q-9 -3 -25.5 -8t-35 -10t-38 -10.5t-34.5 -8.5q-1 -10 -1.5 -19t-0.5 -18q0 -66 27 -96.5t71 -30.5q42 0 82 18.5t66 47.5l23 -27q-17 -18 -37 -36.5t-44.5 -32.5t-55 -23t-68.5 -9q-72 0 -111.5 46t-40.5 134q0 59 20 115.5t54.5 100.5t82 70.5t101.5 26.5
q63 0 92.5 -26.5t29.5 -74.5q0 -42 -42.5 -73t-114.5 -56zM274 442q-26 0 -49 -15.5t-42 -41t-33.5 -58.5t-23.5 -67q13 3 30.5 8t34 10t30.5 9.5t21 7.5q38 17 62 34.5t24 45.5q0 27 -11 47t-43 20zM255 635q0 23 16 39.5t39 16.5t39.5 -16.5t16.5 -39.5t-16.5 -39
t-39.5 -16t-39 16t-16 39z" />
    <glyph glyph-name="Eogonek" unicode="&#x118;" horiz-adv-x="507" 
d="M191 328l-47 -275l300 4l-16 -57h-126q-10 -10 -21 -21.5t-20.5 -25t-15.5 -28.5t-6 -32q0 -16 11.5 -26t28.5 -10t33.5 10t27.5 24l11 -36q-33 -27 -98 -27q-24 0 -39.5 6t-24 15.5t-11.5 20.5t-3 21q0 17 8.5 33t21 30t27 26t27.5 20h-222l61 342q13 73 27.5 157.5
t31.5 184.5h368l-18 -59l-262 6q-8 -44 -14 -75.5t-11 -58.5t-9.5 -53.5t-9.5 -58.5l241 2l-22 -62z" />
    <glyph glyph-name="eogonek" unicode="&#x119;" horiz-adv-x="414" 
d="M251 252q-9 -3 -25.5 -8t-35 -10t-38 -10.5t-34.5 -8.5q-1 -10 -1.5 -19t-0.5 -18q0 -66 27 -96.5t71 -30.5q42 0 82 18.5t66 47.5l23 -27q-26 -26 -55 -50.5t-71 -38.5l-21.5 -21.5t-21 -25t-15.5 -29t-6 -32.5q0 -16 11.5 -26t28.5 -10t33.5 10t27.5 24l10 -36
q-32 -27 -97 -27q-24 0 -39.5 6t-24 15.5t-11.5 20.5t-3 21q0 15 6.5 28.5t16.5 26.5t22.5 24t24.5 20q-5 0 -10 -0.5t-11 -0.5q-72 0 -111.5 46t-40.5 134q0 59 20 115.5t54.5 100.5t82 70.5t101.5 26.5q63 0 92.5 -26.5t29.5 -74.5q0 -42 -42.5 -73t-114.5 -56zM274 442
q-26 0 -49 -15.5t-42 -41t-33.5 -58.5t-23.5 -67q13 3 30.5 8t34 10t30.5 9.5t21 7.5q38 17 62 34.5t24 45.5q0 27 -11 47t-43 20z" />
    <glyph glyph-name="Ecaron" unicode="&#x11a;" horiz-adv-x="507" 
d="M191 328l-47 -275l300 4l-16 -57h-391l61 342q13 73 27.5 157.5t31.5 184.5h368l-18 -59l-262 6q-8 -44 -14 -75.5t-11 -58.5t-9.5 -53.5t-9.5 -58.5l241 2l-22 -62zM336 722q-14 16 -25.5 29t-23.5 26.5t-25.5 29t-30.5 35.5l35 31l102 -94h2q19 12 33 21.5t29 20
t32.5 22.5t42.5 29l26 -30q-29 -24 -50.5 -40t-38.5 -28.5t-33 -24.5t-35 -27h-40z" />
    <glyph glyph-name="ecaron" unicode="&#x11b;" horiz-adv-x="414" 
d="M251 252q-9 -3 -25.5 -8t-35 -10t-38 -10.5t-34.5 -8.5q-1 -10 -1.5 -19t-0.5 -18q0 -66 27 -96.5t71 -30.5q42 0 82 18.5t66 47.5l23 -27q-17 -18 -37 -36.5t-44.5 -32.5t-55 -23t-68.5 -9q-72 0 -111.5 46t-40.5 134q0 59 20 115.5t54.5 100.5t82 70.5t101.5 26.5
q63 0 92.5 -26.5t29.5 -74.5q0 -42 -42.5 -73t-114.5 -56zM274 442q-26 0 -49 -15.5t-42 -41t-33.5 -58.5t-23.5 -67q13 3 30.5 8t34 10t30.5 9.5t21 7.5q38 17 62 34.5t24 45.5q0 27 -11 47t-43 20zM250 535q-10 18 -18 33.5t-16 32.5t-17 36.5t-21 43.5l33 23
q12 -17 21.5 -30.5t18 -26t16.5 -25.5t18 -28h2q26 26 53.5 51t65.5 61l27 -25q-22 -25 -38.5 -43t-32 -33.5t-31.5 -32t-38 -37.5h-43z" />
    <glyph glyph-name="Gcircumflex" unicode="&#x11c;" horiz-adv-x="638" 
d="M327 -12q-72 0 -125 20.5t-87.5 58t-51.5 91t-17 119.5q0 93 28.5 170t77 132.5t113 86t137.5 30.5q39 0 70.5 -3.5t57.5 -10.5t47.5 -18t41.5 -26l-42 -70q-28 44 -73.5 58.5t-105.5 14.5q-68 0 -116.5 -34.5t-79 -88.5t-44.5 -120.5t-14 -129.5q0 -111 44 -168.5
t141 -57.5q18 0 38.5 3.5t39.5 8.5t34 12t23 13q6 34 14.5 80.5t14.5 88.5q-13 0 -33.5 -0.5t-42.5 -0.5h-40.5h-27.5l9 60h239q-5 -32 -12 -73.5t-14 -79.5q-8 -45 -16 -91q-19 -15 -45 -28.5t-56 -24t-62.5 -16.5t-64.5 -6zM452 873q14 -15 25.5 -28.5t23.5 -27t25.5 -29
t30.5 -35.5l-35 -31l-102 94h-2q-19 -11 -33.5 -21t-29 -20.5t-32 -23t-42.5 -28.5l-26 30q29 24 50 40t38.5 29t33.5 24.5t34 26.5h41z" />
    <glyph glyph-name="gcircumflex" unicode="&#x11d;" horiz-adv-x="491" 
d="M491 486q-9 -40 -18 -82q-8 -36 -17.5 -80t-17.5 -86q-7 -39 -15 -77q-7 -32 -14.5 -68.5t-13.5 -64.5q-12 -53 -31 -95t-49.5 -71t-74 -45t-105.5 -16q-21 0 -43.5 2.5t-42 6.5t-35 8.5t-23.5 8.5l20 63q7 -7 20 -14.5t29.5 -14t35.5 -11t38 -4.5q64 0 104 23t51 75
l23 100h-5q-42 -55 -132 -55q-32 0 -58 11t-45 31t-30 48t-12 63q-2 59 16 119.5t53.5 109.5t87.5 80t117 31q13 0 29 -2.5t31.5 -8t28.5 -12.5t21 -16h4l40 43h33zM386 400q-8 20 -31 31.5t-47 11.5q-51 0 -86.5 -28t-58 -70t-33 -92.5t-10.5 -95.5q0 -56 27 -84.5
t66 -28.5q36 0 64 16.5t45 36.5zM365 706q10 -18 18 -34t16 -33t17.5 -36.5t21.5 -43.5l-33 -23q-12 17 -21.5 30.5t-18 26t-17 25.5t-18.5 28h-2q-26 -26 -53.5 -51t-64.5 -60l-28 24q22 25 39 43t32 34t31 32l38 38h43z" />
    <glyph glyph-name="Gbreve" unicode="&#x11e;" horiz-adv-x="638" 
d="M327 -12q-72 0 -125 20.5t-87.5 58t-51.5 91t-17 119.5q0 93 28.5 170t77 132.5t113 86t137.5 30.5q39 0 70.5 -3.5t57.5 -10.5t47.5 -18t41.5 -26l-42 -70q-28 44 -73.5 58.5t-105.5 14.5q-68 0 -116.5 -34.5t-79 -88.5t-44.5 -120.5t-14 -129.5q0 -111 44 -168.5
t141 -57.5q18 0 38.5 3.5t39.5 8.5t34 12t23 13q6 34 14.5 80.5t14.5 88.5q-13 0 -33.5 -0.5t-42.5 -0.5h-40.5h-27.5l9 60h239q-5 -32 -12 -73.5t-14 -79.5q-8 -45 -16 -91q-19 -15 -45 -28.5t-56 -24t-62.5 -16.5t-64.5 -6zM407 781q35 0 58 18t46 62l44 -9
q-12 -39 -28.5 -63t-37 -38t-44.5 -19t-52 -5q-21 0 -42.5 7.5t-38.5 23t-27.5 39t-8.5 55.5l48 9q4 -44 21.5 -62t61.5 -18z" />
    <glyph glyph-name="gbreve" unicode="&#x11f;" horiz-adv-x="491" 
d="M491 486q-9 -40 -18 -82q-8 -36 -17.5 -80t-17.5 -86q-7 -39 -15 -77q-7 -32 -14.5 -68.5t-13.5 -64.5q-12 -53 -31 -95t-49.5 -71t-74 -45t-105.5 -16q-21 0 -43.5 2.5t-42 6.5t-35 8.5t-23.5 8.5l20 63q7 -7 20 -14.5t29.5 -14t35.5 -11t38 -4.5q64 0 104 23t51 75
l23 100h-5q-42 -55 -132 -55q-32 0 -58 11t-45 31t-30 48t-12 63q-2 59 16 119.5t53.5 109.5t87.5 80t117 31q13 0 29 -2.5t31.5 -8t28.5 -12.5t21 -16h4l40 43h33zM386 400q-8 20 -31 31.5t-47 11.5q-51 0 -86.5 -28t-58 -70t-33 -92.5t-10.5 -95.5q0 -56 27 -84.5
t66 -28.5q36 0 64 16.5t45 36.5zM323 587q22 0 37 3.5t25 12t16 22.5t10 36l43 -5q-8 -38 -23 -60.5t-34.5 -35t-42 -16.5t-45.5 -4q-26 0 -47.5 8t-35 23t-17.5 37t5 50l45 3q-5 -24 -0.5 -38.5t14 -22.5t23 -10.5t27.5 -2.5z" />
    <glyph glyph-name="Gdotaccent" unicode="&#x120;" horiz-adv-x="638" 
d="M327 -12q-72 0 -125 20.5t-87.5 58t-51.5 91t-17 119.5q0 93 28.5 170t77 132.5t113 86t137.5 30.5q39 0 70.5 -3.5t57.5 -10.5t47.5 -18t41.5 -26l-42 -70q-28 44 -73.5 58.5t-105.5 14.5q-68 0 -116.5 -34.5t-79 -88.5t-44.5 -120.5t-14 -129.5q0 -111 44 -168.5
t141 -57.5q18 0 38.5 3.5t39.5 8.5t34 12t23 13q6 34 14.5 80.5t14.5 88.5q-13 0 -33.5 -0.5t-42.5 -0.5h-40.5h-27.5l9 60h239q-5 -32 -12 -73.5t-14 -79.5q-8 -45 -16 -91q-19 -15 -45 -28.5t-56 -24t-62.5 -16.5t-64.5 -6zM360 788q0 23 16 40t39 17t39.5 -17t16.5 -40
t-16.5 -39t-39.5 -16t-39 16t-16 39z" />
    <glyph glyph-name="gdotaccent" unicode="&#x121;" horiz-adv-x="491" 
d="M491 486q-9 -40 -18 -82q-8 -36 -17.5 -80t-17.5 -86q-7 -39 -15 -77q-7 -32 -14.5 -68.5t-13.5 -64.5q-12 -53 -31 -95t-49.5 -71t-74 -45t-105.5 -16q-21 0 -43.5 2.5t-42 6.5t-35 8.5t-23.5 8.5l20 63q7 -7 20 -14.5t29.5 -14t35.5 -11t38 -4.5q64 0 104 23t51 75
l23 100h-5q-42 -55 -132 -55q-32 0 -58 11t-45 31t-30 48t-12 63q-2 59 16 119.5t53.5 109.5t87.5 80t117 31q13 0 29 -2.5t31.5 -8t28.5 -12.5t21 -16h4l40 43h33zM386 400q-8 20 -31 31.5t-47 11.5q-51 0 -86.5 -28t-58 -70t-33 -92.5t-10.5 -95.5q0 -56 27 -84.5
t66 -28.5q36 0 64 16.5t45 36.5zM278 653q0 23 16 39.5t39 16.5t39.5 -16.5t16.5 -39.5t-16.5 -39t-39.5 -16t-39 16t-16 39z" />
    <glyph glyph-name="Gcommaaccent" unicode="&#x122;" horiz-adv-x="638" 
d="M327 -12q-72 0 -125 20.5t-87.5 58t-51.5 91t-17 119.5q0 93 28.5 170t77 132.5t113 86t137.5 30.5q39 0 70.5 -3.5t57.5 -10.5t47.5 -18t41.5 -26l-42 -70q-28 44 -73.5 58.5t-105.5 14.5q-68 0 -116.5 -34.5t-79 -88.5t-44.5 -120.5t-14 -129.5q0 -111 44 -168.5
t141 -57.5q18 0 38.5 3.5t39.5 8.5t34 12t23 13q6 34 14.5 80.5t14.5 88.5q-13 0 -33.5 -0.5t-42.5 -0.5h-40.5h-27.5l9 60h239q-5 -32 -12 -73.5t-14 -79.5q-8 -45 -16 -91q-19 -15 -45 -28.5t-56 -24t-62.5 -16.5t-64.5 -6zM332 -40q3 -6 8 -17.5t5 -32.5
q0 -48 -26.5 -77.5t-73.5 -46.5l-13 25q17 8 32.5 31t15.5 48q0 11 -3 23t-12 23z" />
    <glyph glyph-name="gcommaaccent" unicode="&#x123;" horiz-adv-x="491" 
d="M491 486q-9 -40 -18 -82q-8 -36 -17.5 -80t-17.5 -86q-7 -39 -15 -77q-7 -32 -14.5 -68.5t-13.5 -64.5q-12 -53 -31 -95t-49.5 -71t-74 -45t-105.5 -16q-21 0 -43.5 2.5t-42 6.5t-35 8.5t-23.5 8.5l20 63q7 -7 20 -14.5t29.5 -14t35.5 -11t38 -4.5q64 0 104 23t51 75
l23 100h-5q-42 -55 -132 -55q-32 0 -58 11t-45 31t-30 48t-12 63q-2 59 16 119.5t53.5 109.5t87.5 80t117 31q13 0 29 -2.5t31.5 -8t28.5 -12.5t21 -16h4l40 43h33zM386 400q-8 20 -31 31.5t-47 11.5q-51 0 -86.5 -28t-58 -70t-33 -92.5t-10.5 -95.5q0 -56 27 -84.5
t66 -28.5q36 0 64 16.5t45 36.5zM292 536q-6 12 -9 26t-3 35q0 15 7.5 31.5t20.5 31.5t30 28t36 22l12 -26q-8 -4 -16.5 -12.5t-15.5 -19.5t-11 -23.5t-4 -24.5q0 -11 2.5 -23.5t7.5 -20.5z" />
    <glyph glyph-name="Hcircumflex" unicode="&#x124;" horiz-adv-x="662" 
d="M442 0l58 326q-45 0 -84.5 1t-74.5 1q-36 0 -71 -0.5t-80 -1.5q-14 -72 -27.5 -150.5t-30.5 -175.5h-95l62 350q13 72 27 153t31 181h96l-54 -302q45 -1 80 -2t72 -1q35 0 74.5 0.5t83.5 0.5q11 66 24.5 139.5t28.5 164.5h96l-62 -347q-13 -74 -27.5 -155.5t-31.5 -181.5
h-95zM457 873q14 -15 25.5 -28.5t23.5 -27t25.5 -29t30.5 -35.5l-35 -31l-102 94h-2q-19 -11 -33 -21t-29 -20.5t-32.5 -23t-42.5 -28.5l-26 30q29 24 50.5 40t38.5 29t33 24.5t35 26.5h40z" />
    <glyph glyph-name="hcircumflex" unicode="&#x125;" horiz-adv-x="525" 
d="M71 236q5 26 13.5 66.5t18.5 87t19.5 95.5t18.5 91.5t15 74.5t9 46l97 19q-1 -6 -6 -29t-12 -54.5t-14.5 -66.5t-14.5 -66t-11.5 -53t-5.5 -27h3q12 10 24 18t23 14q29 14 54 22t60 8q62 0 92 -32t28 -81q-1 -15 -1.5 -26t-4.5 -31l-22 -99q-9 -39 -14 -65t-9.5 -48
t-8.5 -45t-11 -55h-93q7 32 13.5 58.5t12.5 53t12.5 56t14.5 68.5q7 31 15 64.5t8 67.5q-1 27 -16 41t-50 14q-29 0 -67.5 -12t-74.5 -41l-33 -155q-8 -39 -13.5 -65t-9.5 -48.5t-8.5 -46t-11.5 -55.5h-92q7 32 13.5 58.5t12.5 53t12.5 56t14.5 68.5zM296 873
q14 -15 25.5 -28.5t23.5 -27t25.5 -29t30.5 -35.5l-35 -31l-102 94h-2q-19 -11 -33 -21t-29 -20.5t-32.5 -23t-42.5 -28.5l-26 30q29 24 50.5 40t38.5 29t33 24.5t35 26.5h40z" />
    <glyph glyph-name="Hbar" unicode="&#x126;" horiz-adv-x="662" 
d="M391 560q18 0 59.5 0.5t90.5 0.5l21 123h96l-22 -122q29 1 54 1h40l-11 -52h-39t-53 1l-31 -175q-13 -74 -27.5 -155.5t-31.5 -181.5h-95l58 326q-45 0 -84.5 1t-74.5 1q-36 0 -71 -0.5t-80 -1.5q-14 -72 -27.5 -150.5t-30.5 -175.5h-95l62 350l29 161h-91l10 52
q14 -1 37 -1t52 -1l21 123h96l-22 -123q50 -1 94 -1h66zM533 512h-311l-23 -130q45 -1 80 -2t72 -1q35 0 74.5 0.5t83.5 0.5z" />
    <glyph glyph-name="hbar" unicode="&#x127;" horiz-adv-x="525" 
d="M138 560h-80l11 47q17 0 37.5 -0.5t40.5 -1.5l18 92l96 19l-26 -112q30 0 52 1t47 2l-10 -47q-31 0 -53 0.5t-46 0.5q-6 -26 -11.5 -50t-10 -43.5t-7.5 -33t-3 -16.5h3q13 10 27 19t25 15q27 14 53 22t61 8q62 0 92 -32t28 -81q-1 -15 -1.5 -26t-4.5 -31l-22 -99
q-9 -39 -14 -65t-9.5 -48t-8.5 -45t-11 -55h-93q7 32 13.5 58.5t12.5 53t12.5 56t14.5 68.5q7 31 15 64.5t8 67.5q-1 27 -16 41t-50 14q-29 0 -67.5 -12t-74.5 -41l-33 -155q-8 -39 -13.5 -65t-9.5 -48.5t-8.5 -46t-11.5 -55.5h-92q7 32 13.5 58.5t12.5 53t12.5 56
t14.5 68.5z" />
    <glyph glyph-name="Itilde" unicode="&#x128;" horiz-adv-x="244" 
d="M28 0l62 350q13 72 27 153t31 181h96l-62 -347q-13 -74 -27.5 -155.5t-31.5 -181.5h-95zM196 752q-22 10 -36 13t-25 3q-16 0 -29 -9.5t-14 -36.5l-44 18q12 43 35 62t62 19q17 0 35 -4t41 -17q20 -11 37 -18t32 -7q16 0 26 9t10 38l44 -17q-6 -38 -25 -61t-63 -23
q-17 0 -40 9.5t-46 21.5z" />
    <glyph glyph-name="itilde" unicode="&#x129;" horiz-adv-x="224" 
d="M75 256q8 39 13.5 66t9.5 49t8 42.5t9 44.5l95 19q-13 -58 -27 -119l-28 -122q-8 -39 -14 -68.5t-11 -56l-10 -53t-11 -58.5h-91zM257 572q-17 0 -36 10.5t-41 21.5q-16 8 -28 13.5t-26 5.5q-8 0 -16.5 -2.5t-14.5 -9t-8.5 -17.5t2.5 -27l-50 16q5 42 31 63t62 21
q24 0 39.5 -6t31.5 -14q17 -9 31.5 -18t28.5 -9q21 0 27.5 13t1.5 42l47 -17q-10 -47 -28.5 -66.5t-53.5 -19.5z" />
    <glyph glyph-name="Imacron" unicode="&#x12a;" horiz-adv-x="244" 
d="M28 0l62 350q13 72 27 153t31 181h96l-62 -347q-13 -74 -27.5 -155.5t-31.5 -181.5h-95zM212 808h33.5t29 0.5t31.5 0.5h41l-15 -53q-24 0 -38.5 0.5t-27 0.5h-26.5h-37h-33.5t-29 -0.5t-31.5 -0.5h-41l15 53q24 0 38.5 -0.5t27 -0.5h26.5h37z" />
    <glyph glyph-name="imacron" unicode="&#x12b;" horiz-adv-x="224" 
d="M75 256q8 39 13.5 66t9.5 49t8 42.5t9 44.5l95 19q-13 -58 -27 -119l-28 -122q-8 -39 -14 -68.5t-11 -56l-10 -53t-11 -58.5h-91zM190 642h32.5t26 0.5t28 0.5h39.5l-15 -49q-24 0 -37.5 0.5t-24.5 0.5h-23.5h-35.5h-32t-25.5 -0.5t-28 -0.5h-39.5l15 49q24 0 37.5 -0.5
t24.5 -0.5h23h35z" />
    <glyph glyph-name="Ibreve" unicode="&#x12c;" horiz-adv-x="244" 
d="M28 0l62 350q13 72 27 153t31 181h96l-62 -347q-13 -74 -27.5 -155.5t-31.5 -181.5h-95zM201 781q35 0 58.5 18t45.5 62l45 -9q-12 -39 -28.5 -63t-37 -38t-44.5 -19t-52 -5q-21 0 -42.5 7.5t-38.5 23t-27.5 39t-8.5 55.5l48 9q4 -44 21.5 -62t60.5 -18z" />
    <glyph glyph-name="ibreve" unicode="&#x12d;" horiz-adv-x="224" 
d="M75 256q8 39 13.5 66t9.5 49t8 42.5t9 44.5l95 19q-13 -58 -27 -119l-28 -122q-8 -39 -14 -68.5t-11 -56l-10 -53t-11 -58.5h-91zM184 587q22 0 37 3.5t25 12t16 22.5t10 36l43 -5q-8 -38 -23 -60.5t-34.5 -35t-42 -16.5t-45.5 -4q-26 0 -47.5 8t-35 23t-17.5 37t5 50
l45 3q-5 -24 -0.5 -38.5t14 -22.5t23 -10.5t27.5 -2.5z" />
    <glyph glyph-name="Iogonek" unicode="&#x12e;" horiz-adv-x="244" 
d="M67 0q-10 -10 -21 -21.5t-20 -25t-15 -28.5t-6 -32q0 -16 11 -26t28 -10t34 10t28 24l10 -36q-32 -27 -98 -27q-24 0 -39.5 6t-24 15.5t-11.5 20.5t-3 21q0 17 9 33.5t22.5 31t28.5 26.5t28 20l62 348q13 72 27 153t31 181h96l-62 -347q-13 -74 -27.5 -155.5
t-31.5 -181.5h-56z" />
    <glyph glyph-name="iogonek" unicode="&#x12f;" horiz-adv-x="224" 
d="M75 256q8 39 13.5 66t9.5 49t8 42.5t9 44.5l95 19q-13 -58 -27 -119l-28 -122q-8 -39 -14 -68.5t-11 -56l-10 -53t-11 -58.5h-50q-10 -10 -21 -21.5t-20.5 -25t-15.5 -28.5t-6 -32q0 -16 11.5 -26t28.5 -10t34 10t28 24l10 -36q-33 -27 -98 -27q-24 0 -39.5 6t-24 15.5
t-11.5 20.5t-3 21q0 17 9 33.5t22 30.5t28 26t27 20zM138 652q0 22 15 37.5t37 15.5q21 0 36.5 -15.5t15.5 -37.5q0 -21 -15.5 -36t-36.5 -15q-22 0 -37 15t-15 36z" />
    <glyph glyph-name="Idotaccent" unicode="&#x130;" horiz-adv-x="244" 
d="M28 0l62 350q13 72 27 153t31 181h96l-62 -347q-13 -74 -27.5 -155.5t-31.5 -181.5h-95zM154 788q0 23 16 40t39 17t39.5 -17t16.5 -40t-16.5 -39t-39.5 -16t-39 16t-16 39z" />
    <glyph glyph-name="dotlessi" unicode="&#x131;" horiz-adv-x="224" 
d="M75 256q8 39 13.5 66t9.5 49t8 42.5t9 44.5l95 19q-13 -58 -27 -119l-28 -122q-8 -39 -14 -68.5t-11 -56l-10 -53t-11 -58.5h-91l57 256v0z" />
    <glyph glyph-name="IJ" unicode="&#x132;" horiz-adv-x="486" 
d="M260 -4q5 25 12.5 66t15 83.5t14 79t9.5 53.5q6 36 15 85t18.5 104t18.5 111t17 106h101q-20 -102 -37 -195t-29 -165q-2 -9 -5.5 -29t-8 -46.5t-10 -56t-10 -57.5t-9 -51t-6.5 -36q-13 -73 -41 -116t-61 -66t-67 -30t-58 -7q-47 0 -80.5 11t-48.5 24l39 70
q17 -15 45 -29.5t56 -14.5q24 0 41.5 3.5t30.5 14.5t22 32t16 56zM28 0l62 350q13 72 27 153t31 181h96l-62 -347q-13 -74 -27.5 -155.5t-31.5 -181.5h-95z" />
    <glyph glyph-name="ij" unicode="&#x133;" horiz-adv-x="420" 
d="M59 256q8 39 13.5 66t10 49t8 42.5t8.5 44.5l95 19q-12 -58 -26.5 -119t-27.5 -122q-8 -39 -14.5 -68.5t-11.5 -56l-10 -53t-11 -58.5h-90q7 32 13.5 61.5t13 60t14 63t15.5 71.5zM122 652q0 22 15 37.5t37 15.5q21 0 36.5 -15.5t15.5 -37.5q0 -21 -15.5 -36t-36.5 -15
q-22 0 -37 15t-15 36zM334 652q0 22 15 37.5t36 15.5q22 0 37.5 -15.5t15.5 -37.5q0 -21 -15.5 -36t-37.5 -15q-21 0 -36 15t-15 36zM202 -53q8 31 16.5 69t17.5 78.5t17.5 81.5t16.5 80q9 39 14.5 66t9.5 49t8 42.5t9 44.5l95 19q-13 -58 -27 -119l-28 -122l-12 -58.5
t-7 -34t-6.5 -30.5t-9.5 -48q-9 -53 -27.5 -100.5t-47 -83t-67.5 -56.5t-88 -21q-23 0 -48 4.5t-42 12.5l21 62q15 -13 32 -23.5t36 -10.5q53 0 78.5 23.5t38.5 74.5z" />
    <glyph glyph-name="Jcircumflex" unicode="&#x134;" horiz-adv-x="270" 
d="M46 -4q5 25 12 66t14.5 83.5t13.5 79t9 53.5q6 36 15 85t19 104t20 111t18 106h96q-20 -102 -37 -198t-29 -169q-3 -13 -9 -49.5t-13.5 -78.5t-14.5 -82t-11 -59q-13 -73 -40.5 -116t-60.5 -66t-67 -30t-58 -7q-47 0 -80.5 11t-48.5 24l39 70q17 -15 44 -32t55 -17
q24 0 42.5 4t32 16t23 34t16.5 57zM259 873q14 -15 25.5 -28.5t23.5 -27t25.5 -29t30.5 -35.5l-35 -31l-102 94h-2q-19 -11 -33 -21t-29 -20.5t-32.5 -23t-42.5 -28.5l-25 30q29 24 50 40t38 29t33 24.5t35 26.5h40z" />
    <glyph glyph-name="jcircumflex" unicode="&#x135;" horiz-adv-x="235" 
d="M4 -53q8 31 16.5 69t17.5 78.5t17.5 81.5t16.5 80t13.5 66t9.5 49t8 42.5t9 44.5l95 19q-13 -58 -27 -119t-27 -122q-8 -39 -12.5 -58.5t-7.5 -34t-6 -30.5l-9 -48q-9 -53 -28 -100.5t-47.5 -83t-67.5 -56.5t-88 -21q-23 0 -47.5 4.5t-41.5 12.5l20 62q15 -13 32 -23.5
t36 -10.5q53 0 78.5 23.5t39.5 74.5zM227 706q10 -18 18 -34t16 -33t17.5 -36.5t21.5 -43.5l-33 -23q-12 17 -21.5 30.5t-18 26t-17 25.5t-18.5 28h-2q-26 -26 -53.5 -51t-64.5 -60l-28 24q22 25 39 43t32 34t31 32l38 38h43z" />
    <glyph glyph-name="Kcommaaccent" unicode="&#x136;" horiz-adv-x="537" 
d="M37 0l62 350q13 72 27 153t31 181h96l-62 -347l-59 -337h-95zM611 684q-44 -46 -83.5 -87.5t-77 -80t-74.5 -75.5l-74 -74q42 -80 95.5 -171t113.5 -196h-109q-47 86 -94.5 166.5t-104.5 170.5l1 4q59 58 101.5 102t78.5 83t70 76t78 82h79zM296 -21q3 -6 8 -17.5
t5 -33.5q0 -48 -26.5 -77.5t-73.5 -46.5l-13 26q8 4 16.5 12t15.5 18.5t11.5 23t4.5 24.5t-3 23.5t-12 22.5z" />
    <glyph glyph-name="kcommaaccent" unicode="&#x137;" horiz-adv-x="428" 
d="M100 375q8 39 17.5 85t18.5 90.5t17 83.5t14 63l96 19q-6 -29 -16 -74.5t-21 -94.5t-21.5 -95t-16.5 -77q-8 -39 -19 -90t-21.5 -103.5t-20.5 -101t-17 -80.5h-92zM304 0q-20 42 -34.5 70.5t-28 54.5t-29.5 53.5t-39 67.5q28 30 51.5 53t48 47.5t53 53.5t66.5 70h73
q-38 -36 -67.5 -63.5t-54 -50t-45.5 -42t-43 -40.5q22 -39 37.5 -69t31.5 -59t34.5 -63.5t45.5 -82.5h-100zM241 -21q3 -6 8 -17.5t5 -33.5q0 -48 -26.5 -77.5t-73.5 -46.5l-13 26q8 4 16.5 12t15.5 18.5t11.5 23t4.5 24.5t-3 23.5t-12 22.5z" />
    <glyph glyph-name="Lacute" unicode="&#x139;" horiz-adv-x="461" 
d="M191 340q-6 -38 -12 -71.5t-11.5 -67t-12 -70t-13.5 -78.5q90 1 169 2.5t127 3.5l-17 -59h-384q18 101 33.5 185t27.5 157q14 73 28.5 157.5t31.5 184.5h95q-8 -44 -14.5 -82.5t-14 -79t-15.5 -84.5t-18 -98zM225 764q49 38 92.5 71.5t75.5 59.5l40 -59
q-41 -23 -87.5 -50t-97.5 -56z" />
    <glyph glyph-name="lacute" unicode="&#x13a;" horiz-adv-x="230" 
d="M100 375q8 39 17.5 85t18.5 90.5t17 83.5t14 63l96 19q-6 -29 -16 -74.5t-21 -94.5t-21.5 -95t-16.5 -77q-8 -39 -19 -90t-21.5 -103.5t-20.5 -101t-17 -80.5h-92zM110 764q49 38 92.5 71.5t75.5 59.5l40 -59q-41 -23 -87.5 -50t-97.5 -56z" />
    <glyph glyph-name="Lcommaaccent" unicode="&#x13b;" horiz-adv-x="461" 
d="M191 340q-6 -38 -12 -71.5t-11.5 -67t-12 -70t-13.5 -78.5q90 1 169 2.5t127 3.5l-17 -59h-384q18 101 33.5 185t27.5 157q14 73 28.5 157.5t31.5 184.5h95q-8 -44 -14.5 -82.5t-14 -79t-15.5 -84.5t-18 -98zM283 -21q3 -6 8 -17.5t5 -33.5q0 -48 -26 -77.5t-74 -46.5
l-13 26q8 4 16.5 12t15.5 18.5t11.5 23t4.5 24.5t-3 23.5t-12 22.5z" />
    <glyph glyph-name="lcommaaccent" unicode="&#x13c;" horiz-adv-x="227" 
d="M100 375q8 39 17.5 85t18.5 90.5t17 83.5t14 63l96 19q-6 -29 -16 -74.5t-21 -94.5t-21.5 -95t-16.5 -77q-8 -39 -19 -90t-21.5 -103.5t-20.5 -101t-17 -80.5h-92zM86 -21q3 -6 8 -17.5t5 -33.5q0 -48 -26 -77.5t-74 -46.5l-13 26q8 4 16.5 12t15.5 18.5t11.5 23
t4.5 24.5t-3 23.5t-12 22.5z" />
    <glyph glyph-name="Lcaron" unicode="&#x13d;" horiz-adv-x="461" 
d="M191 340q-6 -38 -12 -71.5t-11.5 -67t-12 -70t-13.5 -78.5q90 1 169 2.5t127 3.5l-17 -59h-384q18 101 33.5 185t27.5 157q14 73 28.5 157.5t31.5 184.5h95q-8 -44 -14.5 -82.5t-14 -79t-15.5 -84.5t-18 -98zM254 252q10 29 18 49.5t15 40t14.5 40t17.5 49.5h76
q-16 -27 -29 -49t-25 -43l-24 -42t-26 -45h-37z" />
    <glyph glyph-name="lcaron" unicode="&#x13e;" horiz-adv-x="277" 
d="M100 375q8 39 17.5 85t18.5 90.5t17 83.5t14 63l96 19q-6 -29 -16 -74.5t-21 -94.5t-21.5 -95t-16.5 -77q-8 -39 -19 -90t-21.5 -103.5t-20.5 -101t-17 -80.5h-92zM256 515q10 29 17.5 49.5t14.5 40t14.5 40t18.5 49.5h76q-16 -27 -29.5 -49t-25.5 -43l-24 -42t-25 -45
h-37z" />
    <glyph glyph-name="Ldot" unicode="&#x13f;" horiz-adv-x="461" 
d="M191 340q-6 -38 -12 -71.5t-11.5 -67t-12 -70t-13.5 -78.5q90 1 169 2.5t127 3.5l-17 -59h-384q18 101 33.5 185t27.5 157q14 73 28.5 157.5t31.5 184.5h95q-8 -44 -14.5 -82.5t-14 -79t-15.5 -84.5t-18 -98zM255 374q0 23 16.5 40t39.5 17t40 -17t17 -40t-17 -39.5
t-40 -16.5t-39.5 16.5t-16.5 39.5z" />
    <glyph glyph-name="ldot" unicode="&#x140;" horiz-adv-x="327" 
d="M100 375q8 39 17.5 85t18.5 90.5t17 83.5t14 63l96 19q-6 -29 -16 -74.5t-21 -94.5t-21.5 -95t-16.5 -77q-8 -39 -19 -90t-21.5 -103.5t-20.5 -101t-17 -80.5h-92zM223 327q0 23 16.5 40t39.5 17t40 -17t17 -40t-17 -40t-40 -17t-39.5 17t-16.5 40z" />
    <glyph glyph-name="Lslash" unicode="&#x141;" horiz-adv-x="461" 
d="M253 684l-60 -330q19 7 46 16.5t55.5 20t53.5 19.5t39 15l17 -51l-221 -80l-41 -241q90 1 169 2.5t127 3.5l-17 -59h-384q12 74 24 137.5t23 121.5l-61 -22l-17 52l89 30l63 365h95z" />
    <glyph glyph-name="lslash" unicode="&#x142;" horiz-adv-x="251" 
d="M293 394l-102 -58l-69 -336h-92l61 278l-59 -35l-27 48l101 58l6 26q8 39 17.5 85.5t19 92.5t17.5 86t13 64l97 18q-6 -26 -15 -65.5t-18.5 -84t-19.5 -88.5t-17 -78l60 35z" />
    <glyph glyph-name="Nacute" unicode="&#x143;" horiz-adv-x="656" 
d="M434 0q-31 72 -63.5 159t-63.5 171t-57 158t-44 121q-3 -18 -5.5 -37t-7 -47t-11.5 -69.5t-18 -104.5q-8 -47 -15.5 -89l-15 -84t-15 -85.5t-15.5 -92.5h-66q18 101 34.5 189.5t28.5 161.5q7 39 14 82.5t13 87t10 85t3 78.5h130q32 -81 58 -150.5t51 -135.5t50 -132.5
t55 -141.5q5 26 10 57t10.5 61.5t10 59t8.5 49.5q14 74 27.5 153.5t30.5 179.5h66l-60 -333q-13 -73 -28.5 -162t-32.5 -189h-92zM329 764q49 38 92.5 71.5t75.5 59.5l40 -59q-41 -23 -87.5 -50t-97.5 -56z" />
    <glyph glyph-name="nacute" unicode="&#x144;" horiz-adv-x="525" 
d="M71 236q16 77 25 126t16 90l88 18q-4 -17 -6 -29t-4 -23h3q15 10 32 20t29 16q28 13 50.5 20.5t57.5 7.5q62 0 92 -32t28 -81q-1 -15 -1.5 -26t-4.5 -31l-22 -99q-9 -39 -14 -65t-9.5 -48t-8.5 -45t-11 -55h-93q7 32 13.5 58.5t12.5 53t12.5 56t14.5 68.5q7 31 15 64.5
t8 67.5q-1 27 -16 41t-50 14q-29 0 -67.5 -13t-74.5 -40l-33 -155q-8 -39 -13.5 -65t-9.5 -48.5t-8.5 -46t-11.5 -55.5h-92q7 32 13.5 58.5t12.5 53t12.5 56t14.5 68.5zM274 545q19 42 35.5 78.5t36.5 81.5l64 -33q-16 -24 -28.5 -42t-23 -34.5l-21 -33t-23.5 -37.5z" />
    <glyph glyph-name="Ncommaaccent" unicode="&#x145;" horiz-adv-x="656" 
d="M434 0q-31 72 -63.5 159t-63.5 171t-57 158t-44 121q-3 -18 -5.5 -37t-7 -47t-11.5 -69.5t-18 -104.5q-8 -47 -15.5 -89l-15 -84t-15 -85.5t-15.5 -92.5h-66q18 101 34.5 189.5t28.5 161.5q7 39 14 82.5t13 87t10 85t3 78.5h130q32 -81 58 -150.5t51 -135.5t50 -132.5
t55 -141.5q5 26 10 57t10.5 61.5t10 59t8.5 49.5q14 74 27.5 153.5t30.5 179.5h66l-60 -333q-13 -73 -28.5 -162t-32.5 -189h-92zM314 -21q2 -6 7.5 -17.5t5.5 -33.5q0 -48 -26.5 -77.5t-74.5 -46.5l-13 26q17 8 32.5 31t15.5 47q0 12 -2.5 23.5t-11.5 22.5z" />
    <glyph glyph-name="ncommaaccent" unicode="&#x146;" horiz-adv-x="525" 
d="M71 236q16 77 25 126t16 90l88 18q-4 -17 -6 -29t-4 -23h3q15 10 32 20t29 16q28 13 50.5 20.5t57.5 7.5q62 0 92 -32t28 -81q-1 -15 -1.5 -26t-4.5 -31l-22 -99q-9 -39 -14 -65t-9.5 -48t-8.5 -45t-11 -55h-93q7 32 13.5 58.5t12.5 53t12.5 56t14.5 68.5q7 31 15 64.5
t8 67.5q-1 27 -16 41t-50 14q-29 0 -67.5 -13t-74.5 -40l-33 -155q-8 -39 -13.5 -65t-9.5 -48.5t-8.5 -46t-11.5 -55.5h-92q7 32 13.5 58.5t12.5 53t12.5 56t14.5 68.5zM241 -21q3 -6 8 -17.5t5 -33.5q0 -48 -26.5 -77.5t-73.5 -46.5l-13 26q8 4 16.5 12t15.5 18.5t11.5 23
t4.5 24.5t-3 23.5t-12 22.5z" />
    <glyph glyph-name="Ncaron" unicode="&#x147;" horiz-adv-x="656" 
d="M434 0q-31 72 -63.5 159t-63.5 171t-57 158t-44 121q-3 -18 -5.5 -37t-7 -47t-11.5 -69.5t-18 -104.5q-8 -47 -15.5 -89l-15 -84t-15 -85.5t-15.5 -92.5h-66q18 101 34.5 189.5t28.5 161.5q7 39 14 82.5t13 87t10 85t3 78.5h130q32 -81 58 -150.5t51 -135.5t50 -132.5
t55 -141.5q5 26 10 57t10.5 61.5t10 59t8.5 49.5q14 74 27.5 153.5t30.5 179.5h66l-60 -333q-13 -73 -28.5 -162t-32.5 -189h-92zM387 722q-14 16 -25.5 29t-23.5 26.5t-25.5 29t-30.5 35.5l35 31l103 -94h1q19 12 33.5 21.5t29 20t32 22.5t42.5 29l26 -30q-29 -24 -50 -40
t-38.5 -28.5t-33.5 -24.5t-34 -27h-41z" />
    <glyph glyph-name="ncaron" unicode="&#x148;" horiz-adv-x="525" 
d="M71 236q16 77 25 126t16 90l88 18q-4 -17 -6 -29t-4 -23h3q15 10 32 20t29 16q28 13 50.5 20.5t57.5 7.5q62 0 92 -32t28 -81q-1 -15 -1.5 -26t-4.5 -31l-22 -99q-9 -39 -14 -65t-9.5 -48t-8.5 -45t-11 -55h-93q7 32 13.5 58.5t12.5 53t12.5 56t14.5 68.5q7 31 15 64.5
t8 67.5q-1 27 -16 41t-50 14q-29 0 -67.5 -13t-74.5 -40l-33 -155q-8 -39 -13.5 -65t-9.5 -48.5t-8.5 -46t-11.5 -55.5h-92q7 32 13.5 58.5t12.5 53t12.5 56t14.5 68.5zM288 535q-10 18 -18 33.5t-16.5 32.5t-17.5 36.5t-21 43.5l33 23q12 -17 22 -30.5t18.5 -26t16.5 -25.5
t18 -28h2q26 26 53.5 51t64.5 61l28 -25q-23 -25 -39.5 -43t-31.5 -33.5t-31 -32t-38 -37.5h-43z" />
    <glyph glyph-name="napostrophe" unicode="&#x149;" horiz-adv-x="525" 
d="M71 236q16 77 25 126t16 90l88 18q-4 -17 -6 -29t-4 -23h3q15 10 32 20t29 16q28 13 50.5 20.5t57.5 7.5q62 0 92 -32t28 -81q-1 -15 -1.5 -26t-4.5 -31l-22 -99q-9 -39 -14 -65t-9.5 -48t-8.5 -45t-11 -55h-93q7 32 13.5 58.5t12.5 53t12.5 56t14.5 68.5q7 31 15 64.5
t8 67.5q-1 27 -16 41t-50 14q-29 0 -67.5 -13t-74.5 -40l-33 -155q-8 -39 -13.5 -65t-9.5 -48.5t-8.5 -46t-11.5 -55.5h-92q7 32 13.5 58.5t12.5 53t12.5 56t14.5 68.5zM128 650q3 -6 8 -17.5t5 -32.5q0 -48 -26.5 -77.5t-74.5 -46.5l-12 25q17 8 32 31t15 48q0 11 -2.5 23
t-11.5 23z" />
    <glyph glyph-name="Eng" unicode="&#x14a;" horiz-adv-x="643" 
d="M434 -4q0 3 1 4h-1q-31 72 -63.5 159t-63.5 171t-57 158t-44 121q-3 -18 -5.5 -37t-7 -47t-11.5 -69.5t-18 -104.5q-8 -47 -15.5 -89l-15 -84t-15 -85.5t-15.5 -92.5h-66q18 101 34.5 189.5t28.5 161.5q7 39 14 82.5t13 87t10 85t3 78.5h130q32 -81 58 -150.5t51 -135.5
t50 -132.5t55 -141.5q5 26 10 57t10.5 61.5t10 59t8.5 49.5q14 74 27.5 153.5t30.5 179.5h66l-60 -333l-18 -104l-31 -173l-4 -30l-1 -1q-13 -71 -36 -117t-53 -73t-65.5 -37.5t-73.5 -10.5q-47 0 -80.5 11t-48.5 24l38 70q17 -14 45.5 -29t56.5 -15q48 0 76 29.5t42 100.5z
" />
    <glyph glyph-name="eng" unicode="&#x14b;" horiz-adv-x="525" 
d="M301 -53q10 36 19 70t17.5 67.5t17 68.5t16.5 74q7 32 15 69.5t8 71.5q-1 27 -16 41t-50 14q-29 0 -67.5 -13t-74.5 -40l-33 -155q-8 -39 -13.5 -65t-9.5 -48.5t-8.5 -46t-11.5 -55.5h-92q7 32 13.5 58.5t12.5 53t12.5 56t14.5 68.5q16 77 25 126t16 90l88 18
q-4 -17 -6 -29t-4 -23h3q15 10 32 20t29 16q28 13 50.5 20.5t57.5 7.5q62 0 92 -32t28 -81q-1 -15 -1.5 -26t-4.5 -31q-11 -50 -18 -82t-11.5 -51.5t-7.5 -31t-5.5 -22.5t-5.5 -24t-8 -36q-12 -53 -31 -100t-46.5 -83t-65.5 -57t-87 -21q-23 0 -48 4.5t-42 12.5l21 62
q15 -13 32 -23.5t36 -10.5q52 0 75 24t37 74z" />
    <glyph glyph-name="Omacron" unicode="&#x14c;" horiz-adv-x="677" 
d="M395 696q54 0 101 -19t81 -55t53.5 -88t19.5 -118q0 -93 -27.5 -171.5t-74.5 -135.5t-110.5 -89t-136.5 -32q-55 0 -101.5 19t-80.5 55t-53.5 88t-19.5 118q0 93 27 171.5t74.5 135.5t111 89t136.5 32zM304 42q61 0 107.5 36t78 92t47 124t15.5 131q0 102 -40 159
t-121 57q-62 0 -108 -36t-77 -91.5t-46.5 -123.5t-15.5 -131q0 -103 39.5 -160t120.5 -57zM424 808h34t29.5 0.5t31 0.5h40.5l-14 -53q-24 0 -39 0.5t-27 0.5h-26h-37h-34.5t-29 -0.5t-31 -0.5h-40.5l14 53q24 0 39 -0.5t27 -0.5h26h37z" />
    <glyph glyph-name="omacron" unicode="&#x14d;" horiz-adv-x="507" 
d="M224 30q45 0 76 25t50 64.5t27.5 87.5t8.5 95q0 73 -30.5 106t-72.5 34q-45 0 -76 -25t-50 -65t-27.5 -88.5t-8.5 -94.5q0 -73 30 -106t73 -33zM291 482q80 0 131 -47t53 -142q0 -59 -18.5 -114t-52 -97t-81.5 -67.5t-107 -25.5q-80 0 -131 47t-53 142q0 59 18 114t52 97
t82 67.5t107 25.5zM305 642h32t25.5 0.5t28 0.5h39.5l-15 -49q-24 0 -37.5 0.5t-24.5 0.5h-23.5h-35.5h-32t-25.5 -0.5t-28 -0.5h-39.5l15 49q24 0 37.5 -0.5t24.5 -0.5h23.5h35.5z" />
    <glyph glyph-name="Obreve" unicode="&#x14e;" horiz-adv-x="677" 
d="M395 696q54 0 101 -19t81 -55t53.5 -88t19.5 -118q0 -93 -27.5 -171.5t-74.5 -135.5t-110.5 -89t-136.5 -32q-55 0 -101.5 19t-80.5 55t-53.5 88t-19.5 118q0 93 27 171.5t74.5 135.5t111 89t136.5 32zM304 42q61 0 107.5 36t78 92t47 124t15.5 131q0 102 -40 159
t-121 57q-62 0 -108 -36t-77 -91.5t-46.5 -123.5t-15.5 -131q0 -103 39.5 -160t120.5 -57zM442 781q35 0 58 18t46 62l44 -9q-12 -39 -28.5 -63t-37 -38t-44.5 -19t-52 -5q-21 0 -42.5 7.5t-38.5 23t-27.5 39t-8.5 55.5l48 9q4 -44 21.5 -62t61.5 -18z" />
    <glyph glyph-name="obreve" unicode="&#x14f;" horiz-adv-x="507" 
d="M224 30q45 0 76 25t50 64.5t27.5 87.5t8.5 95q0 73 -30.5 106t-72.5 34q-45 0 -76 -25t-50 -65t-27.5 -88.5t-8.5 -94.5q0 -73 30 -106t73 -33zM291 482q80 0 131 -47t53 -142q0 -59 -18.5 -114t-52 -97t-81.5 -67.5t-107 -25.5q-80 0 -131 47t-53 142q0 59 18 114t52 97
t82 67.5t107 25.5zM298 587q22 0 37 3.5t25 12t16 22.5t10 36l43 -5q-8 -38 -23 -60.5t-34.5 -35t-42 -16.5t-45.5 -4q-26 0 -47.5 8t-35 23t-17.5 37t6 50l44 3q-5 -24 -0.5 -38.5t14 -22.5t23 -10.5t27.5 -2.5z" />
    <glyph glyph-name="Ohungarumlaut" unicode="&#x150;" horiz-adv-x="677" 
d="M395 696q54 0 101 -19t81 -55t53.5 -88t19.5 -118q0 -93 -27.5 -171.5t-74.5 -135.5t-110.5 -89t-136.5 -32q-55 0 -101.5 19t-80.5 55t-53.5 88t-19.5 118q0 93 27 171.5t74.5 135.5t111 89t136.5 32zM304 42q61 0 107.5 36t78 92t47 124t15.5 131q0 102 -40 159
t-121 57q-62 0 -108 -36t-77 -91.5t-46.5 -123.5t-15.5 -131q0 -103 39.5 -160t120.5 -57zM254 748q48 38 91 72t75 60l41 -59q-41 -23 -86.5 -50.5t-95.5 -56.5zM419 748q48 38 91.5 72t75.5 60l41 -59q-42 -23 -87 -50.5t-96 -56.5z" />
    <glyph glyph-name="ohungarumlaut" unicode="&#x151;" horiz-adv-x="507" 
d="M224 30q45 0 76 25t50 64.5t27.5 87.5t8.5 95q0 73 -30.5 106t-72.5 34q-45 0 -76 -25t-50 -65t-27.5 -88.5t-8.5 -94.5q0 -73 30 -106t73 -33zM291 482q80 0 131 -47t53 -142q0 -59 -18.5 -114t-52 -97t-81.5 -67.5t-107 -25.5q-80 0 -131 47t-53 142q0 59 18 114t52 97
t82 67.5t107 25.5zM200 538l82 166l62 -25q-14 -19 -27 -36.5t-26 -35.5t-27 -38t-30 -44zM328 538l83 166l62 -25q-14 -19 -27 -36.5t-26 -35.5t-27.5 -38t-30.5 -44z" />
    <glyph glyph-name="OE" unicode="&#x152;" horiz-adv-x="839" 
d="M542 328q-7 -38 -12.5 -68t-10.5 -60.5t-11 -65t-14 -81.5l282 4l-16 -57h-450q-54 0 -102 17t-84 51t-57 84t-21 116q0 93 27.5 169.5t77.5 131t119 85t152 30.5h454l-19 -59l-262 6q-8 -44 -13.5 -75.5t-10.5 -58.5t-9.5 -53.5t-10.5 -58.5l223 2l-21 -62zM397 54
l52 288l50 287h-80q-72 0 -124 -34t-85.5 -87.5t-49.5 -119.5t-16 -129q0 -102 49 -153.5t129 -51.5h75z" />
    <glyph glyph-name="oe" unicode="&#x153;" horiz-adv-x="738" 
d="M575 252q-9 -3 -24.5 -8t-34 -10t-37.5 -10.5t-34 -8.5q-1 -10 -1.5 -19t-0.5 -18q0 -66 25.5 -96.5t69.5 -30.5q42 0 81.5 18.5t65.5 47.5l23 -27q-17 -18 -37 -36.5t-44 -32.5t-54.5 -23t-68.5 -9q-48 0 -80.5 22t-49.5 61q-32 -36 -75 -59.5t-97 -23.5q-79 0 -126 47
t-48 142q0 59 17 114t49 97t78 67.5t105 25.5q56 0 96.5 -25t60.5 -71q34 42 78 69t98 27q63 0 92.5 -26.5t29.5 -74.5q0 -42 -42.5 -73t-114.5 -56zM210 30q45 0 74.5 25t47 64.5t24.5 87.5t7 95q0 73 -25.5 106t-67.5 34q-45 0 -75 -25t-47.5 -65t-24.5 -88.5t-7 -94.5
q0 -73 26 -106t68 -33zM598 442q-26 0 -48.5 -15.5t-41 -41t-32 -58.5t-22.5 -67q13 3 29.5 8t32.5 10t29.5 9.5t20.5 7.5q38 17 61.5 34.5t23.5 45.5q0 27 -10.5 47t-42.5 20z" />
    <glyph glyph-name="Racute" unicode="&#x154;" horiz-adv-x="542" 
d="M28 0l61 342q13 73 27.5 157.5t31.5 184.5h183q97 0 149 -35.5t52 -121.5q0 -31 -10 -61.5t-30 -57.5t-50 -47.5t-71 -32.5q13 -33 31 -76t37 -88t38 -88t34 -76h-110q-13 35 -29 74.5t-33.5 79.5t-34 79t-31.5 73h-95l-53 -306h-97zM237 638q-14 -81 -26.5 -151.5
t-23.5 -133.5h79q90 0 130.5 44.5t40.5 129.5q0 56 -27.5 86.5t-102.5 30.5q-23 0 -38.5 -2t-31.5 -4zM277 764q48 38 91.5 71.5t75.5 59.5l41 -59q-41 -23 -88 -50t-97 -56z" />
    <glyph glyph-name="racute" unicode="&#x155;" horiz-adv-x="317" 
d="M188 385q31 44 62 70.5t74 26.5q21 0 42 -8l-31 -79q-9 6 -19.5 10t-29.5 4q-25 0 -53 -20t-51 -52l-28 -129l-44 -208h-92q7 32 13.5 58.5t12.5 53t12.5 56t14.5 68.5q16 77 26.5 126.5t16.5 89.5l89 18q-3 -20 -8.5 -44t-9.5 -41h3zM216 545q19 42 35.5 78.5t36.5 81.5
l64 -33q-16 -24 -28.5 -42t-23 -34.5l-21 -33t-23.5 -37.5z" />
    <glyph glyph-name="Rcommaaccent" unicode="&#x156;" horiz-adv-x="542" 
d="M28 0l61 342q13 73 27.5 157.5t31.5 184.5h183q97 0 149 -35.5t52 -121.5q0 -31 -10 -61.5t-30 -57.5t-50 -47.5t-71 -32.5q13 -33 31 -76t37 -88t38 -88t34 -76h-110q-13 35 -29 74.5t-33.5 79.5t-34 79t-31.5 73h-95l-53 -306h-97zM237 638q-14 -81 -26.5 -151.5
t-23.5 -133.5h79q90 0 130.5 44.5t40.5 129.5q0 56 -27.5 86.5t-102.5 30.5q-23 0 -38.5 -2t-31.5 -4zM326 -21q2 -6 7.5 -17.5t5.5 -33.5q0 -48 -26.5 -77.5t-74.5 -46.5l-13 26q8 4 16.5 12t15.5 18.5t11.5 23t4.5 24.5t-3 23.5t-11 22.5z" />
    <glyph glyph-name="rcommaaccent" unicode="&#x157;" horiz-adv-x="317" 
d="M188 385q31 44 62 70.5t74 26.5q21 0 42 -8l-31 -79q-9 6 -19.5 10t-29.5 4q-25 0 -53 -20t-51 -52l-28 -129l-44 -208h-92q7 32 13.5 58.5t12.5 53t12.5 56t14.5 68.5q16 77 26.5 126.5t16.5 89.5l89 18q-3 -20 -8.5 -44t-9.5 -41h3zM192 -21q3 -6 8 -17.5t5 -33.5
q0 -48 -26.5 -77.5t-73.5 -46.5l-13 26q8 4 16.5 12t15.5 18.5t11.5 23t4.5 24.5t-3 23.5t-12 22.5z" />
    <glyph glyph-name="Rcaron" unicode="&#x158;" horiz-adv-x="542" 
d="M28 0l61 342q13 73 27.5 157.5t31.5 184.5h183q97 0 149 -35.5t52 -121.5q0 -31 -10 -61.5t-30 -57.5t-50 -47.5t-71 -32.5q13 -33 31 -76t37 -88t38 -88t34 -76h-110q-13 35 -29 74.5t-33.5 79.5t-34 79t-31.5 73h-95l-53 -306h-97zM237 638q-14 -81 -26.5 -151.5
t-23.5 -133.5h79q90 0 130.5 44.5t40.5 129.5q0 56 -27.5 86.5t-102.5 30.5q-23 0 -38.5 -2t-31.5 -4zM326 722q-14 16 -25.5 29t-23.5 26.5t-25.5 29t-30.5 35.5l35 31l102 -94h2q19 12 33 21.5t29 20t32.5 22.5t42.5 29l26 -30q-29 -24 -50.5 -40t-38.5 -28.5t-33 -24.5
t-35 -27h-40z" />
    <glyph glyph-name="rcaron" unicode="&#x159;" horiz-adv-x="317" 
d="M188 385q31 44 62 70.5t74 26.5q21 0 42 -8l-31 -79q-9 6 -19.5 10t-29.5 4q-25 0 -53 -20t-51 -52l-28 -129l-44 -208h-92q7 32 13.5 58.5t12.5 53t12.5 56t14.5 68.5q16 77 26.5 126.5t16.5 89.5l89 18q-3 -20 -8.5 -44t-9.5 -41h3zM218 535q-10 18 -18 33.5t-16 32.5
t-17.5 36.5t-21.5 43.5l33 23q12 -17 22 -30.5t18.5 -26t16.5 -25.5t18 -28h2q26 26 53.5 51t65.5 61l27 -25q-23 -25 -39.5 -43t-31.5 -33.5t-31 -32t-38 -37.5h-43z" />
    <glyph glyph-name="Sacute" unicode="&#x15a;" horiz-adv-x="500" 
d="M227 -11q-27 0 -55 4.5t-54.5 13.5t-50 21t-39.5 27l34 91q32 -58 80 -81.5t94 -23.5q40 0 67 8.5t42.5 24t22 37t6.5 47.5q0 22 -6.5 40t-21.5 36.5t-40 41t-62 53.5q-26 21 -48 42t-38 43.5t-25.5 47.5t-9.5 55q0 50 18 84t47 55t65.5 30.5t73.5 9.5q60 0 97.5 -12.5
t66.5 -32.5l-31 -87q-23 34 -55 55.5t-86 21.5q-51 0 -82 -20t-31 -65q0 -22 5 -38.5t16.5 -33t30 -34t45.5 -41.5q40 -36 70.5 -62t51 -50t30.5 -50.5t10 -64.5q0 -37 -13 -72t-41.5 -62t-73.5 -43t-110 -16zM247 764q49 38 92.5 71.5t75.5 59.5l40 -59q-41 -23 -87.5 -50
t-97.5 -56z" />
    <glyph glyph-name="sacute" unicode="&#x15b;" horiz-adv-x="353" 
d="M135 -11q-48 0 -86 12.5t-67 36.5l32 63q25 -33 58 -49t68 -16q51 0 75.5 22.5t24.5 49.5q0 18 -5.5 30.5t-16.5 24.5t-28 25t-39 31q-18 14 -34 27t-27.5 27.5t-18.5 33t-7 44.5q0 27 10.5 51t30.5 41.5t49.5 28t67.5 10.5q35 0 67 -7t50 -21l-31 -65q-13 23 -35.5 36
t-58.5 13q-33 0 -55 -12.5t-22 -45.5q0 -27 17 -46t46 -41q26 -20 47 -36.5t35.5 -33t22.5 -35.5t7 -44q-1 -31 -13 -59t-35 -49.5t-55.5 -34t-73.5 -12.5zM193 545q19 42 35.5 78.5t36.5 81.5l64 -33q-16 -24 -28.5 -42t-23 -34.5l-21 -33t-23.5 -37.5z" />
    <glyph glyph-name="Scircumflex" unicode="&#x15c;" horiz-adv-x="500" 
d="M227 -11q-27 0 -55 4.5t-54.5 13.5t-50 21t-39.5 27l34 91q32 -58 80 -81.5t94 -23.5q40 0 67 8.5t42.5 24t22 37t6.5 47.5q0 22 -6.5 40t-21.5 36.5t-40 41t-62 53.5q-26 21 -48 42t-38 43.5t-25.5 47.5t-9.5 55q0 50 18 84t47 55t65.5 30.5t73.5 9.5q60 0 97.5 -12.5
t66.5 -32.5l-31 -87q-23 34 -55 55.5t-86 21.5q-51 0 -82 -20t-31 -65q0 -22 5 -38.5t16.5 -33t30 -34t45.5 -41.5q40 -36 70.5 -62t51 -50t30.5 -50.5t10 -64.5q0 -37 -13 -72t-41.5 -62t-73.5 -43t-110 -16zM379 873q14 -15 25.5 -28.5t23.5 -27t25.5 -29t30.5 -35.5
l-35 -31l-102 94h-2q-19 -11 -33.5 -21t-29 -20.5t-32 -23t-42.5 -28.5l-26 30q29 24 50 40t38.5 29t33.5 24.5t35 26.5h40z" />
    <glyph glyph-name="scircumflex" unicode="&#x15d;" horiz-adv-x="353" 
d="M135 -11q-48 0 -86 12.5t-67 36.5l32 63q25 -33 58 -49t68 -16q51 0 75.5 22.5t24.5 49.5q0 18 -5.5 30.5t-16.5 24.5t-28 25t-39 31q-18 14 -34 27t-27.5 27.5t-18.5 33t-7 44.5q0 27 10.5 51t30.5 41.5t49.5 28t67.5 10.5q35 0 67 -7t50 -21l-31 -65q-13 23 -35.5 36
t-58.5 13q-33 0 -55 -12.5t-22 -45.5q0 -27 17 -46t46 -41q26 -20 47 -36.5t35.5 -33t22.5 -35.5t7 -44q-1 -31 -13 -59t-35 -49.5t-55.5 -34t-73.5 -12.5zM293 706q10 -18 18 -34t16 -33t17.5 -36.5t21.5 -43.5l-33 -23q-12 17 -21.5 30.5t-18 26t-17 25.5t-17.5 28h-2
q-26 -26 -53.5 -51t-65.5 -60l-28 24q22 25 39 43t32 34t31 32l38 38h43z" />
    <glyph glyph-name="Scedilla" unicode="&#x15e;" horiz-adv-x="519" 
d="M462 185q0 -35 -10.5 -68t-34.5 -59.5t-62.5 -44.5t-93.5 -22l-22 -34q6 2 13 2.5t13 0.5q32 0 47 -15t15 -42q0 -13 -8 -26.5t-23 -24t-37 -17.5t-51 -7t-51.5 7t-35.5 15l26 44q11 -17 28.5 -27.5t37.5 -10.5q30 0 42 12.5t12 32.5q0 28 -31 28q-6 0 -13.5 -3t-10.5 -7
l-26 14l37 56q-26 0 -54 5t-54 13.5t-48.5 20.5t-38.5 27l34 91q32 -58 80 -81.5t94 -23.5q40 0 67.5 8.5t44.5 24t24 37t7 47.5q0 22 -7 40.5t-23.5 37t-43 40.5t-65.5 52q-26 20 -47.5 37.5t-37.5 38t-24.5 46t-8.5 62.5q0 45 18 79.5t47.5 58t66 35t73.5 11.5
q60 0 97.5 -12.5t66.5 -32.5l-28 -91q-14 20 -28 35.5t-31 25.5t-37.5 15t-47.5 5q-51 0 -83.5 -20.5t-32.5 -65.5q0 -22 5.5 -38t17.5 -31.5t31.5 -32.5t46.5 -40q43 -36 73.5 -62t49 -50.5t27 -51t8.5 -64.5z" />
    <glyph glyph-name="scedilla" unicode="&#x15f;" horiz-adv-x="353" 
d="M312 144q-1 -30 -12 -56.5t-31.5 -47.5t-50.5 -34.5t-67 -15.5l-21 -33q5 2 12 2.5t13 0.5q33 0 47.5 -15t14.5 -42q0 -13 -7.5 -26.5t-22.5 -24t-37.5 -17.5t-51.5 -7q-28 0 -50.5 7t-36.5 15l27 44q11 -17 28 -27.5t38 -10.5q30 0 41.5 12.5t11.5 32.5q0 13 -8 20.5
t-22 7.5q-6 0 -13.5 -3t-11.5 -7l-26 14l37 57q-41 3 -73 15t-58 33l32 63q25 -33 58 -49t68 -16q51 0 75.5 22.5t24.5 49.5q0 18 -5.5 30.5t-16.5 24.5t-28 25t-39 31q-18 14 -34 27t-27.5 27.5t-18.5 33t-7 44.5q0 27 10.5 51t30.5 41.5t49.5 28t67.5 10.5q35 0 67 -7
t50 -21l-31 -65q-13 23 -35.5 36t-58.5 13q-33 0 -55 -12.5t-22 -45.5q0 -27 17 -46t46 -41q26 -20 47 -36.5t35.5 -33t22.5 -35.5t7 -44z" />
    <glyph glyph-name="Scaron" unicode="&#x160;" horiz-adv-x="519" 
d="M227 -11q-27 0 -55 4.5t-54.5 13.5t-50 21t-39.5 27l34 91q32 -58 80 -81.5t94 -23.5q40 0 67 8.5t42.5 24t22 37t6.5 47.5q0 22 -6.5 40t-21.5 36.5t-40 41t-62 53.5q-26 21 -48 42t-38 43.5t-25.5 47.5t-9.5 55q0 50 18 84t47 55t65.5 30.5t73.5 9.5q60 0 97.5 -12.5
t66.5 -32.5l-31 -87q-23 34 -55 55.5t-86 21.5q-51 0 -82 -20t-31 -65q0 -22 5 -38.5t16.5 -33t30 -34t45.5 -41.5q40 -36 70.5 -62t51 -50t30.5 -50.5t10 -64.5q0 -37 -13 -72t-41.5 -62t-73.5 -43t-110 -16zM296 722q-14 16 -25.5 29t-23.5 26.5t-25.5 29t-30.5 35.5
l35 31l102 -94h2q19 12 33.5 21.5t29 20t32 22.5t42.5 29l26 -30q-29 -24 -50 -40t-38.5 -28.5t-33.5 -24.5t-34 -27h-41z" />
    <glyph glyph-name="scaron" unicode="&#x161;" horiz-adv-x="353" 
d="M135 -11q-48 0 -86 12.5t-67 36.5l32 63q25 -33 58 -49t68 -16q51 0 75.5 22.5t24.5 49.5q0 18 -5.5 30.5t-16.5 24.5t-28 25t-39 31q-18 14 -34 27t-27.5 27.5t-18.5 33t-7 44.5q0 27 10.5 51t30.5 41.5t49.5 28t67.5 10.5q35 0 67 -7t50 -21l-31 -65q-13 23 -35.5 36
t-58.5 13q-33 0 -55 -12.5t-22 -45.5q0 -27 17 -46t46 -41q26 -20 47 -36.5t35.5 -33t22.5 -35.5t7 -44q-1 -31 -13 -59t-35 -49.5t-55.5 -34t-73.5 -12.5zM193 535q-10 18 -18 33.5t-16 32.5t-17 36.5t-21 43.5l33 23q12 -17 21.5 -30.5t18 -26t16.5 -25.5t18 -28h2
q26 26 53.5 51t65.5 61l27 -25q-23 -25 -39.5 -43t-31.5 -33.5t-31 -32t-38 -37.5h-43z" />
    <glyph glyph-name="Tcommaaccent" unicode="&#x162;" horiz-adv-x="542" 
d="M605 624q-12 1 -33.5 1.5t-46 0.5h-49.5h-46h-45l-52 -284q-13 -73 -27.5 -157.5t-31.5 -184.5h-97q18 101 33 185t27 157q11 62 23.5 132.5t26.5 151.5h-45h-47.5h-53.5t-50 -0.5t-36 -1.5l12 61q26 -1 69.5 -1.5t86.5 -0.5h78h44h42.5h75t83.5 0.5t69 1.5zM251 -21
q3 -6 8 -17.5t5 -33.5q0 -48 -26.5 -77.5t-73.5 -46.5l-13 26q8 4 16.5 12t15.5 18.5t11.5 23t4.5 24.5t-3 23.5t-12 22.5z" />
    <glyph glyph-name="tcommaaccent" unicode="&#x163;" horiz-adv-x="307" 
d="M326 470l-16 -47h-116l-36 -157q-7 -29 -12 -56q-5 -23 -10 -48t-8 -42q-7 -35 2 -57t46 -22q28 0 56.5 5t45.5 15l4 -27q-12 -14 -53 -29.5t-97 -15.5q-27 0 -47 10.5t-32 28t-15.5 41t2.5 50.5l35 156l30 148h-65l2 12q24 18 44.5 35t39 34t37.5 35.5t40 40.5h22
l-24 -110h125zM181 -30q3 -7 8 -18t5 -33q0 -48 -26.5 -77.5t-73.5 -46.5l-13 26q8 4 16.5 12t15.5 18.5t11.5 23t4.5 24.5q0 11 -3 23t-12 23z" />
    <glyph glyph-name="Tcaron" unicode="&#x164;" horiz-adv-x="542" 
d="M605 624q-12 1 -33.5 1.5t-46 0.5h-49.5h-46h-45l-52 -284q-13 -73 -27.5 -157.5t-31.5 -184.5h-97q18 101 33 185t27 157q11 62 23.5 132.5t26.5 151.5h-45h-47.5h-53.5t-50 -0.5t-36 -1.5l12 61q26 -1 69.5 -1.5t86.5 -0.5h78h44h42.5h75t83.5 0.5t69 1.5zM326 722
q-14 16 -25.5 29t-23.5 26.5t-25.5 29t-30.5 35.5l35 31l102 -94h2q19 12 33 21.5t29 20t32.5 22.5t42.5 29l26 -30q-29 -24 -50.5 -40t-38.5 -28.5t-33 -24.5t-35 -27h-40z" />
    <glyph glyph-name="tcaron" unicode="&#x165;" horiz-adv-x="307" 
d="M326 470l-16 -47h-116l-36 -157q-7 -29 -12 -56q-5 -23 -10 -48t-8 -42q-7 -35 2 -57t46 -22q28 0 56.5 5t45.5 15l4 -27q-12 -14 -53 -29.5t-97 -15.5q-27 0 -47 10.5t-32 28t-15.5 41t2.5 50.5l35 156l30 148h-65l2 12q24 18 44.5 35t39 34t37.5 35.5t40 40.5h22
l-24 -110h125zM252 537q10 29 18 50t15 40t14.5 39.5t17.5 49.5h76q-16 -27 -29 -49t-25 -43l-24 -42t-26 -45h-37z" />
    <glyph glyph-name="Tbar" unicode="&#x166;" horiz-adv-x="542" 
d="M605 624q-12 1 -33.5 1.5t-46 0.5h-49.5h-46h-45l-38 -206q41 1 88.5 2t83.5 1l-10 -52l-170 2l-6 -31q-13 -73 -27.5 -157.5t-31.5 -184.5h-97q18 101 33 185t27 157l6 31q-20 0 -42.5 -0.5l-45 -1t-43.5 -0.5h-39l10 52q37 -1 82 -2t86 -1l36 206h-45h-47.5h-53.5
t-50 -0.5t-36 -1.5l12 61q26 -1 69.5 -1.5t86.5 -0.5h78h44h42.5h75t83.5 0.5t69 1.5z" />
    <glyph glyph-name="tbar" unicode="&#x167;" horiz-adv-x="307" 
d="M326 470l-16 -47h-116l-22 -95q22 0 39 0.5t32 1t29 1t29 0.5l-10 -47q-20 0 -35 0.5t-29 0.5h-29h-35l-5 -19q-7 -29 -12 -56q-5 -23 -10 -48t-8 -42q-7 -35 2 -57t46 -22q28 0 56.5 5t45.5 15l4 -27q-12 -14 -53 -29.5t-97 -15.5q-27 0 -47 10.5t-32 28t-15.5 41
t2.5 50.5l35 156l1 9h-51l11 47h23.5t26.5 -1l19 93h-65l2 12q24 18 44.5 35t39 34t37.5 35.5t40 40.5h22l-24 -110h125z" />
    <glyph glyph-name="Utilde" unicode="&#x168;" horiz-adv-x="676" 
d="M594 224q-20 -118 -91 -177t-188 -59q-57 0 -103 11.5t-79 35.5t-51 61.5t-17 90.5q0 54 11 103t21 107q6 36 11.5 67t11 63t12 69.5t14.5 87.5h98l-52 -287q-8 -47 -19 -101.5t-11 -105.5q-1 -77 39 -113.5t115 -36.5q95 0 146 43.5t67 132.5q4 26 7.5 45.5t6.5 36.5
t6.5 34t7.5 38q6 36 12 71t12.5 72.5t13 79t14.5 91.5h67l-47 -266q-6 -36 -12.5 -71t-11.5 -62q-6 -33 -11 -61zM431 752q-22 10 -36 13t-25 3q-16 0 -29 -9.5t-14 -36.5l-45 18q13 43 36 62t62 19q16 0 34 -4t41 -17q21 -11 38 -18t31 -7q17 0 26.5 9t9.5 38l44 -17
q-5 -38 -24 -61t-64 -23q-16 0 -39 9.5t-46 21.5z" />
    <glyph glyph-name="utilde" unicode="&#x169;" horiz-adv-x="506" 
d="M439 234q-8 -39 -14.5 -69t-11.5 -57t-9 -53t-8 -55h-91q5 20 7.5 33.5t6.5 27.5h-3q-15 -17 -35 -31t-43.5 -23.5t-49 -14.5t-49.5 -5q-62 0 -87 31t-23 80q0 8 0.5 16t3 24t8 43.5t15.5 74.5q8 39 13.5 65t10 48.5t9 45.5t10.5 55h93q-7 -32 -13 -58.5l-12 -53t-13 -56
t-15 -68.5q-7 -32 -14 -67t-7 -69q1 -27 14.5 -42t48.5 -15q15 0 32.5 3.5t37 12t39 23t37.5 36.5l30 138q8 39 13.5 65.5t10 49.5l9 46t10.5 55h92q-7 -32 -13 -58.5l-12 -53t-13 -56t-15 -68.5zM377 572q-17 0 -36 10.5t-40 21.5q-16 8 -28 13.5t-26 5.5q-8 0 -17 -2.5
t-15 -9t-8 -17.5t3 -27l-51 16q5 42 31 63t63 21q23 0 39 -6t32 -14q17 -9 31.5 -18t28.5 -9q38 0 28 55l48 -17q-11 -47 -29.5 -66.5t-53.5 -19.5z" />
    <glyph glyph-name="Umacron" unicode="&#x16a;" horiz-adv-x="676" 
d="M594 224q-20 -118 -91 -177t-188 -59q-57 0 -103 11.5t-79 35.5t-51 61.5t-17 90.5q0 54 11 103t21 107q6 36 11.5 67t11 63t12 69.5t14.5 87.5h98l-52 -287q-8 -47 -19 -101.5t-11 -105.5q-1 -77 39 -113.5t115 -36.5q95 0 146 43.5t67 132.5q4 26 7.5 45.5t6.5 36.5
t6.5 34t7.5 38q6 36 12 71t12.5 72.5t13 79t14.5 91.5h67l-47 -266q-6 -36 -12.5 -71t-11.5 -62q-6 -33 -11 -61zM437 808h34t29.5 0.5t31 0.5h40.5l-14 -53q-24 0 -39 0.5t-27.5 0.5h-26.5h-36h-34.5t-29 -0.5t-31.5 -0.5h-41l15 53q24 0 39 -0.5t27 -0.5h26h37z" />
    <glyph glyph-name="umacron" unicode="&#x16b;" horiz-adv-x="506" 
d="M439 234q-8 -39 -14.5 -69t-11.5 -57t-9 -53t-8 -55h-91q5 20 7.5 33.5t6.5 27.5h-3q-15 -17 -35 -31t-43.5 -23.5t-49 -14.5t-49.5 -5q-62 0 -87 31t-23 80q0 8 0.5 16t3 24t8 43.5t15.5 74.5q8 39 13.5 65t10 48.5t9 45.5t10.5 55h93q-7 -32 -13 -58.5l-12 -53t-13 -56
t-15 -68.5q-7 -32 -14 -67t-7 -69q1 -27 14.5 -42t48.5 -15q15 0 32.5 3.5t37 12t39 23t37.5 36.5l30 138q8 39 13.5 65.5t10 49.5l9 46t10.5 55h92q-7 -32 -13 -58.5l-12 -53t-13 -56t-15 -68.5zM331 642h32.5t26 0.5t27.5 0.5h39l-14 -49q-25 0 -38.5 0.5t-24 0.5h-23
h-35.5h-32t-26 -0.5t-28 -0.5h-39l15 49q24 0 37.5 -0.5t24 -0.5h23h35.5z" />
    <glyph glyph-name="Ubreve" unicode="&#x16c;" horiz-adv-x="676" 
d="M594 224q-20 -118 -91 -177t-188 -59q-57 0 -103 11.5t-79 35.5t-51 61.5t-17 90.5q0 54 11 103t21 107q6 36 11.5 67t11 63t12 69.5t14.5 87.5h98l-52 -287q-8 -47 -19 -101.5t-11 -105.5q-1 -77 39 -113.5t115 -36.5q95 0 146 43.5t67 132.5q4 26 7.5 45.5t6.5 36.5
t6.5 34t7.5 38q6 36 12 71t12.5 72.5t13 79t14.5 91.5h67l-47 -266q-6 -36 -12.5 -71t-11.5 -62q-6 -33 -11 -61zM445 781q35 0 58.5 18t45.5 62l44 -9q-12 -39 -28.5 -63t-36.5 -38t-44.5 -19t-52.5 -5q-21 0 -42.5 7.5t-38 23t-27 39t-8.5 55.5l47 9q5 -44 22 -62t61 -18z
" />
    <glyph glyph-name="ubreve" unicode="&#x16d;" horiz-adv-x="506" 
d="M439 234q-8 -39 -14.5 -69t-11.5 -57t-9 -53t-8 -55h-91q5 20 7.5 33.5t6.5 27.5h-3q-15 -17 -35 -31t-43.5 -23.5t-49 -14.5t-49.5 -5q-62 0 -87 31t-23 80q0 8 0.5 16t3 24t8 43.5t15.5 74.5q8 39 13.5 65t10 48.5t9 45.5t10.5 55h93q-7 -32 -13 -58.5l-12 -53t-13 -56
t-15 -68.5q-7 -32 -14 -67t-7 -69q1 -27 14.5 -42t48.5 -15q15 0 32.5 3.5t37 12t39 23t37.5 36.5l30 138q8 39 13.5 65.5t10 49.5l9 46t10.5 55h92q-7 -32 -13 -58.5l-12 -53t-13 -56t-15 -68.5zM314 587q22 0 37 3.5t25 12t16 22.5t10 36l42 -5q-8 -38 -23 -60.5t-34 -35
t-41.5 -16.5t-45.5 -4q-26 0 -47.5 8t-35.5 23t-18 37t6 50l44 3q-5 -24 -0.5 -38.5t14.5 -22.5t23.5 -10.5t27.5 -2.5z" />
    <glyph glyph-name="Uring" unicode="&#x16e;" horiz-adv-x="676" 
d="M594 224q-20 -118 -91 -177t-188 -59q-57 0 -103 11.5t-79 35.5t-51 61.5t-17 90.5q0 54 11 103t21 107q6 36 11.5 67t11 63t12 69.5t14.5 87.5h98l-52 -287q-8 -47 -19 -101.5t-11 -105.5q-1 -77 39 -113.5t115 -36.5q95 0 146 43.5t67 132.5q4 26 7.5 45.5t6.5 36.5
t6.5 34t7.5 38q6 36 12 71t12.5 72.5t13 79t14.5 91.5h67l-47 -266q-6 -36 -12.5 -71t-11.5 -62q-6 -33 -11 -61zM425 848q-21 0 -33.5 -14.5t-12.5 -34.5t12.5 -33.5t33.5 -13.5q20 0 32 13.5t12 33.5q0 22 -12 35.5t-32 13.5zM425 880q32 0 56.5 -21.5t24.5 -59.5
q0 -37 -24.5 -58.5t-56.5 -21.5t-56.5 21.5t-24.5 58.5q0 38 24.5 59.5t56.5 21.5z" />
    <glyph glyph-name="uring" unicode="&#x16f;" horiz-adv-x="491" 
d="M439 234q-8 -39 -14.5 -69t-11.5 -57t-9 -53t-8 -55h-91q5 20 7.5 33.5t6.5 27.5h-3q-15 -17 -35 -31t-43.5 -23.5t-49 -14.5t-49.5 -5q-62 0 -87 31t-23 80q0 8 0.5 16t3 24t8 43.5t15.5 74.5q8 39 13.5 65t10 48.5t9 45.5t10.5 55h93q-7 -32 -13 -58.5l-12 -53t-13 -56
t-15 -68.5q-7 -32 -14 -67t-7 -69q1 -27 14.5 -42t48.5 -15q15 0 32.5 3.5t37 12t39 23t37.5 36.5l30 138q8 39 13.5 65.5t10 49.5l9 46t10.5 55h92q-7 -32 -13 -58.5l-12 -53t-13 -56t-15 -68.5zM314 668q-21 0 -33.5 -14.5t-12.5 -34.5t12.5 -34t33.5 -14q20 0 32 14
t12 34q0 22 -12 35.5t-32 13.5zM314 700q32 0 56.5 -21.5t24.5 -59.5t-24.5 -59t-56.5 -21q-33 0 -57 21t-24 59t24 59.5t57 21.5z" />
    <glyph glyph-name="Uhungarumlaut" unicode="&#x170;" horiz-adv-x="676" 
d="M594 224q-20 -118 -91 -177t-188 -59q-57 0 -103 11.5t-79 35.5t-51 61.5t-17 90.5q0 54 11 103t21 107q6 36 11.5 67t11 63t12 69.5t14.5 87.5h98l-52 -287q-8 -47 -19 -101.5t-11 -105.5q-1 -77 39 -113.5t115 -36.5q95 0 146 43.5t67 132.5q4 26 7.5 45.5t6.5 36.5
t6.5 34t7.5 38q6 36 12 71t12.5 72.5t13 79t14.5 91.5h67l-47 -266q-6 -36 -12.5 -71t-11.5 -62q-6 -33 -11 -61zM276 748q48 38 91 72t76 60l40 -59q-41 -23 -86.5 -50.5t-95.5 -56.5zM441 748q48 38 91.5 72t75.5 60l41 -59q-42 -23 -87 -50.5t-96 -56.5z" />
    <glyph glyph-name="uhungarumlaut" unicode="&#x171;" horiz-adv-x="491" 
d="M439 234q-8 -39 -14.5 -69t-11.5 -57t-9 -53t-8 -55h-91q5 20 7.5 33.5t6.5 27.5h-3q-15 -17 -35 -31t-43.5 -23.5t-49 -14.5t-49.5 -5q-62 0 -87 31t-23 80q0 8 0.5 16t3 24t8 43.5t15.5 74.5q8 39 13.5 65t10 48.5t9 45.5t10.5 55h93q-7 -32 -13 -58.5l-12 -53t-13 -56
t-15 -68.5q-7 -32 -14 -67t-7 -69q1 -27 14.5 -42t48.5 -15q15 0 32.5 3.5t37 12t39 23t37.5 36.5l30 138q8 39 13.5 65.5t10 49.5l9 46t10.5 55h92q-7 -32 -13 -58.5l-12 -53t-13 -56t-15 -68.5zM199 538l83 166l61 -25q-14 -19 -27 -36.5t-26 -35.5t-27 -38t-30 -44z
M328 538l82 166l62 -25q-14 -19 -27 -36.5t-26 -35.5t-27 -38t-30 -44z" />
    <glyph glyph-name="Uogonek" unicode="&#x172;" horiz-adv-x="676" 
d="M594 224q-20 -115 -88.5 -174t-181.5 -62q-19 -18 -35 -42t-16 -53q0 -16 11.5 -26t28.5 -10t33.5 10t27.5 24l11 -36q-33 -27 -98 -27q-24 0 -39.5 6t-24 15.5t-11.5 20.5t-3 21q0 15 6.5 28.5t16.5 26t22.5 23.5t24.5 20q-49 3 -89 16.5t-68 37.5t-43 60t-14 84
q0 54 11 103t21 107q6 36 11.5 67t11 63t12 69.5t14.5 87.5h98l-52 -287q-8 -47 -19 -101.5t-11 -105.5q-1 -77 39 -113.5t115 -36.5q95 0 146 43.5t67 132.5q4 26 7.5 45.5t6.5 36.5t6.5 34t7.5 38q6 36 12 71t12.5 72.5t13 79t14.5 91.5h67l-47 -266q-6 -36 -12.5 -71
t-11.5 -62q-6 -33 -11 -61z" />
    <glyph glyph-name="uogonek" unicode="&#x173;" horiz-adv-x="506" 
d="M439 234q-8 -39 -14.5 -69t-11.5 -57t-9 -53t-8 -55h-54q-10 -10 -21 -21.5t-20 -25t-15 -28.5t-6 -32q0 -16 11 -26t28 -10t34 10t28 24l10 -36q-32 -27 -98 -27q-24 0 -39.5 6t-24 15.5t-11.5 20.5t-3 21q0 18 9.5 34.5t23.5 31.5t30 27t28 20q5 19 7 31.5t6 25.5h-3
q-15 -17 -35 -31t-43.5 -23.5t-49 -14.5t-49.5 -5q-62 0 -87 31t-23 80q0 8 0.5 16t3 24t8 43.5t15.5 74.5q8 39 13.5 65t10 48.5t9 45.5t10.5 55h93q-7 -32 -13 -58.5l-12 -53t-13 -56t-15 -68.5q-7 -32 -14 -67t-7 -69q1 -27 14.5 -42t48.5 -15q15 0 32.5 3.5t37 12t39 23
t37.5 36.5l30 138q8 39 13.5 65.5t10 49.5l9 46t10.5 55h92q-7 -32 -13 -58.5l-12 -53t-13 -56t-15 -68.5z" />
    <glyph glyph-name="Wcircumflex" unicode="&#x174;" horiz-adv-x="880" 
d="M577 154q39 74 72.5 134t66.5 120t67.5 125.5t75.5 150.5h67q-56 -110 -104 -198.5t-93 -168t-88.5 -156t-90.5 -161.5h-51l-39 447q-32 -59 -62.5 -114.5t-61 -110t-61 -109.5t-62.5 -113h-44q-8 104 -13.5 188t-11.5 162t-13.5 158t-17.5 176h96q6 -79 11 -148
t9.5 -133.5t8.5 -125.5t8 -123q31 58 56.5 106t50 92.5t49 90.5t53.5 101q-2 33 -4.5 69t-5.5 71h95q6 -82 11 -153t9 -135.5t8 -124t9 -117.5zM574 873q14 -15 25.5 -28.5t23.5 -27t25.5 -29t30.5 -35.5l-35 -31l-102 94h-2q-19 -11 -33.5 -21t-29 -20.5t-32 -23
t-42.5 -28.5l-26 30q29 24 50 40t38.5 29t33.5 24.5t35 26.5h40z" />
    <glyph glyph-name="wcircumflex" unicode="&#x175;" horiz-adv-x="634" 
d="M673 470q-33 -66 -60 -119.5t-54.5 -106t-58 -110.5t-69.5 -134h-63q-6 60 -11.5 104.5t-10 82t-9 73.5t-8.5 80h-1q-19 -41 -35 -74.5t-34 -71t-39.5 -83.5t-50.5 -111h-63q-8 65 -14 118.5t-12 106.5t-13 111.5t-15 133.5h89q4 -53 8 -98.5t8.5 -88.5t8.5 -87t9 -94h3
q26 59 45.5 102t37 82.5t35.5 82t42 101.5l1 -1v1h60l39 -371h3l177 371h55zM430 706l17 -34l16.5 -33t17.5 -36.5t21 -43.5l-33 -23q-12 17 -21.5 30.5t-18 26t-17 25.5t-17.5 28h-2q-26 -26 -53.5 -51t-65.5 -60l-27 24q22 25 38.5 43t31.5 34t31 32l38 38h44z" />
    <glyph glyph-name="Ycircumflex" unicode="&#x176;" horiz-adv-x="513" 
d="M149 0q15 88 28 158t24 135q-18 57 -32 101.5t-28 88t-29.5 91t-35.5 110.5h102q16 -56 29.5 -99.5t25.5 -81.5t24 -74t25 -78q28 43 54.5 83.5t52 81t51 82t52.5 86.5h78q-40 -57 -74.5 -106.5t-67.5 -96t-65.5 -92.5t-68.5 -98q-11 -65 -23.5 -135t-26.5 -156h-95z
M387 873q14 -15 25.5 -28.5t23.5 -27t25.5 -29t30.5 -35.5l-35 -31l-102 94h-2q-19 -11 -33 -21t-29 -20.5t-32.5 -23t-42.5 -28.5l-26 30q29 24 50.5 40t38.5 29t33 24.5t35 26.5h40z" />
    <glyph glyph-name="ycircumflex" unicode="&#x177;" horiz-adv-x="419" 
d="M-92 -144q30 13 57 27t53.5 30t53 35t53.5 44q-10 78 -18 140.5t-17 118t-19 108t-24 111.5h90q20 -98 36.5 -199.5t27.5 -204.5q70 88 111.5 189t61.5 215h72q-27 -105 -66 -200t-99 -179t-145 -155.5t-205 -130.5zM328 706q10 -18 18 -34t16 -33t17.5 -36.5t21.5 -43.5
l-33 -23q-12 17 -21.5 30.5t-18 26t-17 25.5t-18.5 28h-1q-26 -26 -53.5 -51t-65.5 -60l-28 24q22 25 39 43t32 34t31 32l38 38h43z" />
    <glyph glyph-name="Ydieresis" unicode="&#x178;" horiz-adv-x="513" 
d="M149 0q15 88 28 158t24 135q-18 57 -32 101.5t-28 88t-29.5 91t-35.5 110.5h102q16 -56 29.5 -99.5t25.5 -81.5t24 -74t25 -78q28 43 54.5 83.5t52 81t51 82t52.5 86.5h78q-40 -57 -74.5 -106.5t-67.5 -96t-65.5 -92.5t-68.5 -98q-11 -65 -23.5 -135t-26.5 -156h-95z
M206 787q0 19 14 33.5t34 14.5t34.5 -14.5t14.5 -33.5q0 -20 -14.5 -34t-34.5 -14t-34 14t-14 34zM398 787q0 19 14 33.5t34 14.5t34.5 -14.5t14.5 -33.5q0 -20 -14.5 -34t-34.5 -14t-34 14t-14 34z" />
    <glyph glyph-name="Zacute" unicode="&#x179;" horiz-adv-x="523" 
d="M443 627q-45 0 -96 -0.5t-98 -1.5t-87 -1.5t-64 -1.5l18 65q23 -1 42.5 -1.5t39.5 -1t42.5 -0.5h52.5h284l8 -25q-63 -77 -121.5 -152t-115.5 -149.5t-113.5 -149.5t-115.5 -151q45 1 96.5 1.5t100.5 1.5t90 1.5t65 1.5l-18 -65q-28 0 -56 1q-24 0 -53 0.5t-56 0.5h-299
l-2 31q12 13 44.5 53.5t76 96.5t93.5 121t96.5 127t85 114.5t60.5 83.5zM274 764q49 38 92 71.5t76 59.5l40 -59q-41 -23 -88 -50t-97 -56z" />
    <glyph glyph-name="zacute" unicode="&#x17a;" horiz-adv-x="420" 
d="M80 419l16 51h348l3 -21q-65 -73 -111 -126t-84 -98t-73.5 -87t-79.5 -93q45 1 82 2t67.5 1.5t56.5 1.5t50 2l-15 -52h-358l1 25q47 49 95.5 106t93.5 112t83.5 103t65.5 80zM229 545q19 42 35.5 78.5t36.5 81.5l64 -33q-16 -24 -28.5 -42t-23 -34.5l-21 -33t-23.5 -37.5
z" />
    <glyph glyph-name="Zdotaccent" unicode="&#x17b;" horiz-adv-x="523" 
d="M443 627q-45 0 -96 -0.5t-98 -1.5t-87 -1.5t-64 -1.5l18 65q23 -1 42.5 -1.5t39.5 -1t42.5 -0.5h52.5h284l8 -25q-63 -77 -121.5 -152t-115.5 -149.5t-113.5 -149.5t-115.5 -151q45 1 96.5 1.5t100.5 1.5t90 1.5t65 1.5l-18 -65q-28 0 -56 1q-24 0 -53 0.5t-56 0.5h-299
l-2 31q12 13 44.5 53.5t76 96.5t93.5 121t96.5 127t85 114.5t60.5 83.5zM277 788q0 23 16 40t39 17t39.5 -17t16.5 -40t-16.5 -39t-39.5 -16t-39 16t-16 39z" />
    <glyph glyph-name="zdotaccent" unicode="&#x17c;" horiz-adv-x="420" 
d="M80 419l16 51h348l3 -21q-65 -73 -111 -126t-84 -98t-73.5 -87t-79.5 -93q45 1 82 2t67.5 1.5t56.5 1.5t50 2l-15 -52h-358l1 25q47 49 95.5 106t93.5 112t83.5 103t65.5 80zM217 626q0 23 16 39.5t39 16.5t39.5 -16.5t16.5 -39.5t-16.5 -39.5t-39.5 -16.5t-39 16.5
t-16 39.5z" />
    <glyph glyph-name="Zcaron" unicode="&#x17d;" horiz-adv-x="523" 
d="M443 627q-45 0 -96 -0.5t-98 -1.5t-87 -1.5t-64 -1.5l18 65q23 -1 42.5 -1.5t39.5 -1t42.5 -0.5h52.5h284l8 -25q-63 -77 -121.5 -152t-115.5 -149.5t-113.5 -149.5t-115.5 -151q45 1 96.5 1.5t100.5 1.5t90 1.5t65 1.5l-18 -65q-28 0 -56 1q-24 0 -53 0.5t-56 0.5h-299
l-2 31q12 13 44.5 53.5t76 96.5t93.5 121t96.5 127t85 114.5t60.5 83.5zM323 731l-105 120l35 31l102 -94h2q19 12 33.5 21.5t29 20t32 22.5t42.5 29l26 -30q-29 -24 -50 -40t-38.5 -28.5t-33.5 -24.5t-35 -27h-40z" />
    <glyph glyph-name="zcaron" unicode="&#x17e;" horiz-adv-x="420" 
d="M80 419l16 51h348l3 -21q-65 -73 -111 -126t-84 -98t-73.5 -87t-79.5 -93q45 1 82 2t67.5 1.5t56.5 1.5t50 2l-15 -52h-358l1 25q47 49 95.5 106t93.5 112t83.5 103t65.5 80zM256 535q-10 18 -18 33.5t-16.5 32.5t-17.5 36.5t-21 43.5l33 23q12 -17 21.5 -30.5t18 -26
t17 -25.5t18.5 -28h2q26 26 53.5 51t64.5 61l28 -25q-23 -25 -39.5 -43t-31.5 -33.5t-31 -32t-38 -37.5h-43z" />
    <glyph glyph-name="florin" unicode="&#x192;" horiz-adv-x="304" 
d="M48 1q7 32 13.5 62.5t13 62t13 65t14.5 72.5q5 25 7.5 37t4.5 21t4 19t5 30h-71l5 27l76 21l14 64q42 214 189 214q23 0 38.5 -2.5t26.5 -6.5t18.5 -9t14.5 -11l-41 -54q-12 20 -26 31t-39 11q-23 0 -36.5 -10.5t-21.5 -28.5t-13.5 -43.5t-11.5 -55.5l-21 -100h115
l-10 -47h-115q-17 -79 -26.5 -125t-16 -76.5t-11 -53t-10.5 -54.5q-20 -106 -68 -161.5t-127 -55.5q-27 0 -53.5 7t-43.5 18l34 55q14 -19 34 -29.5t34 -10.5q21 0 34.5 5t22.5 18t16 35.5t15 58.5z" />
    <glyph glyph-name="Aringacute" unicode="&#x1fa;" horiz-adv-x="583" 
d="M383 864q28 0 47.5 -19t19.5 -50q0 -32 -20 -50.5t-47 -18.5t-47 18.5t-20 50.5q0 31 20 50t47 19zM383 751q19 0 29.5 12t10.5 32q0 19 -11 31t-29 12q-19 0 -30 -12t-11 -31q0 -20 11 -32t30 -12zM304 905q39 31 75 57.5t67 52.5l33 -54q-42 -23 -80 -42.5t-78 -41.5z
M415 0q-7 48 -13.5 96.5t-12.5 98.5q-33 0 -63 0.5t-57 0.5h-58.5t-60.5 -1q-25 -45 -51.5 -92.5t-58.5 -102.5h-72q55 99 104 183.5t95 163.5t90.5 155t90.5 157q11 5 22 11.5t21 12.5q11 7 23 15q26 -171 51 -341.5t54 -356.5h-104zM340 539q-44 -76 -81.5 -145.5
t-79.5 -144.5q26 -1 50 -1h49q23 0 49.5 0.5t55.5 0.5q-11 88 -22.5 159.5t-20.5 130.5z" />
    <glyph glyph-name="aringacute" unicode="&#x1fb;" horiz-adv-x="504" 
d="M482 477q-8 -35 -17 -75q-8 -34 -17 -76.5t-17 -87.5l-47 -238h-84l10 55h-5q-11 -11 -26 -23t-33 -21.5t-39 -15.5t-43 -6q-32 0 -58 11t-45 31t-30 48t-12 63q-2 59 17.5 119.5t56.5 109.5t90.5 80t118.5 31q27 0 56.5 -10.5t44.5 -28.5h4l58 39zM377 400
q-8 20 -27 31.5t-44 11.5q-51 0 -88 -28t-61 -70t-36 -92.5t-12 -95.5q0 -56 27 -84.5t65 -28.5q37 0 66 16.5t46 36.5zM294 629q24 0 42 -15.5t18 -44.5q0 -27 -18 -42.5t-42 -15.5t-41.5 15.5t-17.5 42.5q0 29 17.5 44.5t41.5 15.5zM289 654q16 39 26 69t25 64l59 -24
q-12 -19 -22 -33.5t-19.5 -28t-19.5 -27.5t-21 -32zM294 604q-14 0 -23 -10.5t-9 -24.5t9 -23.5t23 -9.5t23 9.5t9 23.5q0 15 -9 25t-23 10z" />
    <glyph glyph-name="AEacute" unicode="&#x1fc;" horiz-adv-x="802" 
d="M505 328q-6 -38 -11.5 -68t-11 -60.5t-11.5 -65t-14 -81.5l283 4l-17 -57h-372l38 215q-23 0 -45.5 0.5t-42.5 0.5h-60t-63 -1l-142 -215h-77q128 190 246.5 365t214.5 319h419l-18 -59l-263 6q-8 -44 -13.5 -75.5t-10.5 -58.5t-9.5 -53.5t-10.5 -58.5l223 2l-21 -62z
M454 623q-46 -69 -108 -160t-132 -194h96q20 0 42.5 0.5t46.5 0.5l13 72l49 281h-7zM570 764q49 38 92.5 71.5t75.5 59.5l40 -59q-41 -23 -87.5 -50t-97.5 -56z" />
    <glyph glyph-name="aeacute" unicode="&#x1fd;" horiz-adv-x="696" 
d="M540 252q-9 -3 -25.5 -8t-35 -10t-38 -10.5t-34.5 -8.5q-1 -10 -1.5 -19t-0.5 -18q0 -66 27 -96.5t71 -30.5q42 0 77 18.5t61 47.5l23 -27q-13 -16 -30.5 -33.5t-41.5 -32.5t-54.5 -25t-68.5 -10q-54 0 -90.5 26.5t-51.5 77.5h-1q-34 -46 -74.5 -75t-97.5 -29
q-64 0 -95 42t-31 111q0 58 21 118.5t59 109.5t92 80.5t119 31.5q43 0 70.5 -10t52.5 -34h4q29 21 61 32.5t68 11.5q63 0 89 -26.5t26 -74.5q0 -42 -39 -73t-111 -56zM191 44q35 0 68 30t58 73q-1 6 -1 11.5v10.5q0 61 21 118t58 102q-12 22 -32 38t-48 16q-48 0 -85 -28
t-62 -70t-38 -92.5t-13 -95.5q0 -113 74 -113zM563 442q-26 0 -49 -15.5t-42 -41t-33.5 -58.5t-23.5 -67q13 3 30.5 8t34 10t30.5 9.5t21 7.5q38 17 58 34.5t20 45.5q0 27 -10 47t-36 20zM328 545q18 42 35 78.5t36 81.5l65 -33q-17 -24 -29 -42l-23 -34.5t-21.5 -33
t-23.5 -37.5z" />
    <glyph glyph-name="Oslashacute" unicode="&#x1fe;" horiz-adv-x="677" 
d="M576 724l-34 -73q49 -35 78.5 -94.5t29.5 -140.5q0 -93 -27.5 -171.5t-74.5 -135.5t-110.5 -89t-136.5 -32q-17 0 -33 2t-32 5q-9 -20 -17.5 -40.5t-17.5 -40.5l-64 23q9 20 18.5 40.5t20.5 40.5q-60 32 -95 95.5t-35 154.5q0 93 27 171.5t74.5 135.5t111 89t136.5 32
q23 0 44.5 -4t42.5 -11l28 65zM144 259q0 -63 15 -109.5t45 -73.5q31 63 58.5 120t47.5 102q12 26 29 64t37 82t41 91t41 92q-27 14 -67 14q-62 0 -108 -36t-77 -91.5t-46.5 -123.5t-15.5 -131zM305 42q61 0 107.5 36t77.5 92t46.5 124t15.5 131q0 102 -41 160
q-20 -43 -41 -86.5t-39.5 -83.5t-34.5 -74.5t-26 -58.5q-21 -47 -50.5 -108t-60.5 -127q23 -5 45 -5h1zM299 764q48 38 91.5 71.5t75.5 59.5l41 -59q-41 -23 -88 -50t-97 -56z" />
    <glyph glyph-name="oslashacute" unicode="&#x1ff;" horiz-adv-x="507" 
d="M63 -63l43 82q-34 23 -53.5 62.5t-20.5 96.5q0 59 18 114t52 97t82 67.5t107 25.5q14 0 27.5 -2t26.5 -4l44 86l51 -23q-12 -22 -23.5 -43t-21.5 -41q36 -23 57 -63t23 -99q0 -59 -18.5 -114t-52 -97t-81.5 -67.5t-107 -25.5q-17 0 -32 2.5t-29 5.5q-10 -20 -20.5 -40.5
t-21.5 -42.5zM224 30q45 0 76 25t50 64.5t27.5 87.5t8.5 95q0 59 -22 94l-85 -167q-23 -42 -48.5 -89.5t-52.5 -99.5q20 -10 46 -10zM121 169q0 -56 18 -89q26 48 50 91.5t45 83.5l90 177q-10 5 -20 7t-21 3q-45 0 -76 -25t-50 -65t-27.5 -88.5t-8.5 -94.5zM231 545
q19 42 35.5 78.5t36.5 81.5l64 -33q-16 -24 -28.5 -42t-23 -34.5t-21.5 -33t-24 -37.5z" />
    <glyph glyph-name="Scommaaccent" unicode="&#x218;" horiz-adv-x="519" 
d="M227 -11q-27 0 -55 4.5t-54.5 13.5t-50 21t-39.5 27l34 91q32 -58 80 -81.5t94 -23.5q40 0 67 8.5t42.5 24t22 37t6.5 47.5q0 22 -6.5 40t-21.5 36.5t-40 41t-62 53.5q-26 21 -48 42t-38 43.5t-25.5 47.5t-9.5 55q0 50 18 84t47 55t65.5 30.5t73.5 9.5q60 0 97.5 -12.5
t66.5 -32.5l-31 -87q-23 34 -55 55.5t-86 21.5q-51 0 -82 -20t-31 -65q0 -22 5 -38.5t16.5 -33t30 -34t45.5 -41.5q40 -36 70.5 -62t51 -50t30.5 -50.5t10 -64.5q0 -37 -13 -72t-41.5 -62t-73.5 -43t-110 -16zM305 -30q3 -7 8 -18t5 -33q0 -48 -26 -77.5t-74 -46.5l-13 26
q8 4 16.5 12t15.5 18.5t11.5 23t4.5 24.5q0 11 -3 23t-12 23z" />
    <glyph glyph-name="scommaaccent" unicode="&#x219;" horiz-adv-x="353" 
d="M135 -11q-48 0 -86 12.5t-67 36.5l32 63q25 -33 58 -49t68 -16q51 0 75.5 22.5t24.5 49.5q0 18 -5.5 30.5t-16.5 24.5t-28 25t-39 31q-18 14 -34 27t-27.5 27.5t-18.5 33t-7 44.5q0 27 10.5 51t30.5 41.5t49.5 28t67.5 10.5q35 0 67 -7t50 -21l-31 -65q-13 23 -35.5 36
t-58.5 13q-33 0 -55 -12.5t-22 -45.5q0 -27 17 -46t46 -41q26 -20 47 -36.5t35.5 -33t22.5 -35.5t7 -44q-1 -31 -13 -59t-35 -49.5t-55.5 -34t-73.5 -12.5zM161 -30q3 -7 8 -18t5 -33q0 -48 -26.5 -77.5t-73.5 -46.5l-13 26q8 4 16.5 12t15.5 18.5t11.5 23t4.5 24.5
q0 11 -3 23t-12 23z" />
    <glyph glyph-name="uni0237" unicode="&#x237;" horiz-adv-x="202" 
d="M4 -53q8 31 16.5 69t17.5 78.5t17.5 81.5t16.5 80t13.5 66t9.5 49t8 42.5t9 44.5l95 19q-13 -58 -27 -119t-27 -122q-8 -39 -12.5 -58.5t-7.5 -34t-6 -30.5l-9 -48q-9 -53 -28 -100.5t-47.5 -83t-67.5 -56.5t-88 -21q-23 0 -47.5 4.5t-41.5 12.5l20 62q15 -13 32 -23.5
t36 -10.5q53 0 78.5 23.5t39.5 74.5z" />
    <glyph glyph-name="circumflex" unicode="&#x2c6;" 
d="M227 706q10 -18 18 -34t16 -33t17.5 -36.5t21.5 -43.5l-33 -23q-12 17 -21.5 30.5t-18 26t-17 25.5t-18.5 28h-2q-26 -26 -53.5 -51t-64.5 -60l-28 24q22 25 39 43t32 34t31 32l38 38h43z" />
    <glyph glyph-name="caron" unicode="&#x2c7;" 
d="M117 535q-10 18 -18 33.5t-16.5 32.5t-17.5 36.5t-21 43.5l33 23q12 -17 21.5 -30.5t18 -26t17 -25.5t18.5 -28h2q26 26 53.5 51t64.5 61l28 -25q-23 -25 -39.5 -43t-31.5 -33.5t-31 -32t-38 -37.5h-43z" />
    <glyph glyph-name="breve" unicode="&#x2d8;" 
d="M183 587q22 0 37 3.5t25 12t16 22.5t10 36l43 -5q-8 -38 -23 -60.5t-34.5 -35t-42 -16.5t-45.5 -4q-26 0 -47.5 8t-35 23t-17.5 37t6 50l44 3q-5 -24 -0.5 -38.5t14 -22.5t23 -10.5t27.5 -2.5z" />
    <glyph glyph-name="dotaccent" unicode="&#x2d9;" 
d="M129 653q0 23 16 39.5t39 16.5t39.5 -16.5t16.5 -39.5t-16.5 -39t-39.5 -16t-39 16t-16 39z" />
    <glyph glyph-name="ring" unicode="&#x2da;" 
d="M183 668q-21 0 -33.5 -14.5t-12.5 -34.5t12.5 -34t33.5 -14q20 0 32 14t12 34q0 22 -12 35.5t-32 13.5zM183 700q32 0 56.5 -21.5t24.5 -59.5t-24.5 -59t-56.5 -21t-56.5 21t-24.5 59t24.5 59.5t56.5 21.5z" />
    <glyph glyph-name="ogonek" unicode="&#x2db;" 
d="M255 8q-10 -9 -22.5 -21.5t-23.5 -27t-18.5 -31t-7.5 -35.5q0 -16 11.5 -26t28.5 -10t33.5 10t27.5 24l10 -36q-32 -27 -97 -27q-24 0 -39.5 6t-24 15.5t-11.5 20.5t-3 21q0 19 11 37t26.5 33.5t32 27.5t28.5 19h38v0z" />
    <glyph glyph-name="tilde" unicode="&#x2dc;" 
d="M259 572q-17 0 -36 10.5t-41 21.5q-16 8 -28 13.5t-26 5.5q-8 0 -16.5 -2.5t-14.5 -9t-8.5 -17.5t2.5 -27l-51 16q5 42 31.5 63t62.5 21q24 0 39.5 -6t31.5 -14q17 -9 31.5 -18t28.5 -9q21 0 27 13t1 42l48 -17q-10 -47 -28.5 -66.5t-53.5 -19.5z" />
    <glyph glyph-name="hungarumlaut" unicode="&#x2dd;" 
d="M62 538l82 166l62 -25q-14 -19 -27 -36.5t-26 -35.5t-27 -38t-30 -44zM190 538l83 166l62 -25q-14 -19 -27 -36.5t-26 -35.5t-27.5 -38t-30.5 -44z" />
    <glyph glyph-name="Wgrave" unicode="&#x1e80;" horiz-adv-x="880" 
d="M577 154q39 74 72.5 134t66.5 120t67.5 125.5t75.5 150.5h67q-56 -110 -104 -198.5t-93 -168t-88.5 -156t-90.5 -161.5h-51l-39 447q-32 -59 -62.5 -114.5t-61 -110t-61 -109.5t-62.5 -113h-44q-8 104 -13.5 188t-11.5 162t-13.5 158t-17.5 176h96q6 -79 11 -148
t9.5 -133.5t8.5 -125.5t8 -123q31 58 56.5 106t50 92.5t49 90.5t53.5 101q-2 33 -4.5 69t-5.5 71h95q6 -82 11 -153t9 -135.5t8 -124t9 -117.5zM576 732q-38 29 -76 56.5t-69 50.5l57 59q21 -26 51.5 -58.5t67.5 -73.5z" />
    <glyph glyph-name="wgrave" unicode="&#x1e81;" horiz-adv-x="634" 
d="M673 470q-33 -66 -60 -119.5t-54.5 -106t-58 -110.5t-69.5 -134h-63q-6 60 -11.5 104.5t-10 82t-9 73.5t-8.5 80h-1q-19 -41 -35 -74.5t-34 -71t-39.5 -83.5t-50.5 -111h-63q-8 65 -14 118.5t-12 106.5t-13 111.5t-15 133.5h89q4 -53 8 -98.5t8.5 -88.5t8.5 -87t9 -94h3
q26 59 45.5 102t37 82.5t35.5 82t42 101.5l1 -1v1h60l39 -371h3l177 371h55zM364 530q-10 38 -16.5 79.5t-17.5 83.5l68 12q2 -24 3.5 -44t2.5 -39t2.5 -39.5t3.5 -47.5z" />
    <glyph glyph-name="Wacute" unicode="&#x1e82;" horiz-adv-x="880" 
d="M577 154q39 74 72.5 134t66.5 120t67.5 125.5t75.5 150.5h67q-56 -110 -104 -198.5t-93 -168t-88.5 -156t-90.5 -161.5h-51l-39 447q-32 -59 -62.5 -114.5t-61 -110t-61 -109.5t-62.5 -113h-44q-8 104 -13.5 188t-11.5 162t-13.5 158t-17.5 176h96q6 -79 11 -148
t9.5 -133.5t8.5 -125.5t8 -123q31 58 56.5 106t50 92.5t49 90.5t53.5 101q-2 33 -4.5 69t-5.5 71h95q6 -82 11 -153t9 -135.5t8 -124t9 -117.5zM415 764q48 38 91.5 71.5t75.5 59.5l41 -59q-41 -23 -88 -50t-97 -56z" />
    <glyph glyph-name="wacute" unicode="&#x1e83;" horiz-adv-x="634" 
d="M673 470q-33 -66 -60 -119.5t-54.5 -106t-58 -110.5t-69.5 -134h-63q-6 60 -11.5 104.5t-10 82t-9 73.5t-8.5 80h-1q-19 -41 -35 -74.5t-34 -71t-39.5 -83.5t-50.5 -111h-63q-8 65 -14 118.5t-12 106.5t-13 111.5t-15 133.5h89q4 -53 8 -98.5t8.5 -88.5t8.5 -87t9 -94h3
q26 59 45.5 102t37 82.5t35.5 82t42 101.5l1 -1v1h60l39 -371h3l177 371h55zM320 545q19 42 35.5 78.5t36.5 81.5l64 -33q-16 -24 -28.5 -42t-23 -34.5l-21 -33t-23.5 -37.5z" />
    <glyph glyph-name="Wdieresis" unicode="&#x1e84;" horiz-adv-x="880" 
d="M577 154q39 74 72.5 134t66.5 120t67.5 125.5t75.5 150.5h67q-56 -110 -104 -198.5t-93 -168t-88.5 -156t-90.5 -161.5h-51l-39 447q-32 -59 -62.5 -114.5t-61 -110t-61 -109.5t-62.5 -113h-44q-8 104 -13.5 188t-11.5 162t-13.5 158t-17.5 176h96q6 -79 11 -148
t9.5 -133.5t8.5 -125.5t8 -123q31 58 56.5 106t50 92.5t49 90.5t53.5 101q-2 33 -4.5 69t-5.5 71h95q6 -82 11 -153t9 -135.5t8 -124t9 -117.5zM374 787q0 19 14.5 33.5t33.5 14.5q20 0 34.5 -14.5t14.5 -33.5q0 -20 -14.5 -34t-34.5 -14q-19 0 -33.5 14t-14.5 34zM567 787
q0 19 14 33.5t34 14.5q19 0 33.5 -14.5t14.5 -33.5q0 -20 -14.5 -34t-33.5 -14q-20 0 -34 14t-14 34z" />
    <glyph glyph-name="wdieresis" unicode="&#x1e85;" horiz-adv-x="634" 
d="M673 470q-33 -66 -60 -119.5t-54.5 -106t-58 -110.5t-69.5 -134h-63q-6 60 -11.5 104.5t-10 82t-9 73.5t-8.5 80h-1q-19 -41 -35 -74.5t-34 -71t-39.5 -83.5t-50.5 -111h-63q-8 65 -14 118.5t-12 106.5t-13 111.5t-15 133.5h89q4 -53 8 -98.5t8.5 -88.5t8.5 -87t9 -94h3
q26 59 45.5 102t37 82.5t35.5 82t42 101.5l1 -1v1h60l39 -371h3l177 371h55zM253 621q0 20 14 34.5t34 14.5t34.5 -14.5t14.5 -34.5t-14.5 -34t-34.5 -14t-34 14t-14 34zM427 621q0 20 14 34.5t34 14.5q19 0 33.5 -14.5t14.5 -34.5t-14.5 -34t-33.5 -14q-20 0 -34 14t-14 34
z" />
    <glyph glyph-name="Ygrave" unicode="&#x1ef2;" horiz-adv-x="513" 
d="M149 0q15 88 28 158t24 135q-18 57 -32 101.5t-28 88t-29.5 91t-35.5 110.5h102q16 -56 29.5 -99.5t25.5 -81.5t24 -74t25 -78q28 43 54.5 83.5t52 81t51 82t52.5 86.5h78q-40 -57 -74.5 -106.5t-67.5 -96t-65.5 -92.5t-68.5 -98q-11 -65 -23.5 -135t-26.5 -156h-95z
M380 732q-38 29 -76 56.5t-69 50.5l57 59q21 -26 51.5 -58.5t67.5 -73.5z" />
    <glyph glyph-name="ygrave" unicode="&#x1ef3;" horiz-adv-x="419" 
d="M-92 -144q30 13 57 27t53.5 30t53 35t53.5 44q-10 78 -18 140.5t-17 118t-19 108t-24 111.5h90q20 -98 36.5 -199.5t27.5 -204.5q70 88 111.5 189t61.5 215h72q-27 -105 -66 -200t-99 -179t-145 -155.5t-205 -130.5zM254 530q-10 38 -16.5 79.5t-17.5 83.5l68 12
q2 -24 3 -44t2 -39t2.5 -39.5t4.5 -47.5z" />
    <glyph glyph-name="uni2009" unicode="&#x2009;" horiz-adv-x="115" 
 />
    <glyph glyph-name="endash" unicode="&#x2013;" horiz-adv-x="487" 
d="M59 281h400l-8 -45h-400z" />
    <glyph glyph-name="emdash" unicode="&#x2014;" horiz-adv-x="674" 
d="M59 281h588l-9 -45h-587z" />
    <glyph glyph-name="quoteleft" unicode="&#x2018;" horiz-adv-x="169" 
d="M93 443q-11 16 -15 32t-4 36q0 39 11 69t30.5 52.5t46 40.5t56.5 33l16 -30q-47 -24 -69.5 -53.5t-22.5 -79.5q0 -21 7 -35t20 -31z" />
    <glyph glyph-name="quoteright" unicode="&#x2019;" horiz-adv-x="192" 
d="M191 706q11 -16 15.5 -32t4.5 -36q0 -39 -11.5 -69t-31 -52.5t-46 -40.5t-56.5 -33l-15 30q46 24 69 53.5t23 79.5q0 21 -7.5 35t-20.5 31z" />
    <glyph glyph-name="quotesinglbase" unicode="&#x201a;" horiz-adv-x="169" 
d="M86 113q11 -15 15 -31t4 -36q0 -40 -11.5 -69.5t-31 -52.5t-46 -40.5t-56.5 -32.5l-15 29q46 25 69 54.5t23 79.5q0 20 -7 34.5t-21 30.5z" />
    <glyph glyph-name="quotedblleft" unicode="&#x201c;" horiz-adv-x="307" 
d="M93 443q-10 11 -14.5 29.5t-4.5 38.5q0 39 11 69t30.5 52.5t46 40.5t56.5 33l16 -30q-47 -24 -69.5 -53.5t-22.5 -79.5q0 -21 7 -35t20 -31zM231 443q-10 12 -14.5 30t-4.5 38q0 39 11 69t30.5 52.5t46 40.5t56.5 33l16 -30q-47 -24 -69.5 -53.5t-22.5 -79.5q0 -21 7 -35
t20 -31z" />
    <glyph glyph-name="quotedblright" unicode="&#x201d;" horiz-adv-x="330" 
d="M329 706q10 -11 15 -29.5t5 -38.5q0 -39 -11.5 -69t-31 -52.5t-46 -40.5t-56.5 -33l-15 30q46 24 69 53.5t23 79.5q0 21 -7.5 35t-20.5 31zM191 706q20 -25 20 -68q0 -39 -11.5 -69t-31 -52.5t-46 -40.5t-56.5 -33l-15 30q46 24 69 53.5t23 79.5q0 21 -7.5 35t-20.5 31z
" />
    <glyph glyph-name="quotedblbase" unicode="&#x201e;" horiz-adv-x="307" 
d="M224 113q19 -24 19 -67q0 -40 -11.5 -69.5t-31 -52.5t-46 -40.5t-56.5 -32.5l-15 29q46 25 69 54.5t23 79.5q0 20 -7 34.5t-21 30.5zM86 113q19 -24 19 -67q0 -40 -11.5 -69.5t-31 -52.5t-46 -40.5t-56.5 -32.5l-15 29q46 25 69 54.5t23 79.5q0 20 -7 34.5t-21 30.5z" />
    <glyph glyph-name="dagger" unicode="&#x2020;" horiz-adv-x="400" 
d="M439 473q-43 0 -66 0.5t-38 1t-27.5 1t-33.5 0.5l-15.5 -77.5t-20.5 -105t-23 -119t-23 -119.5t-20 -107t-14 -81h-70q7 32 17 81t21.5 106.5t23.5 119t23.5 119t21 105.5t15.5 78h-34t-28.5 -0.5t-38 -1t-63.5 -1.5l12 55q42 -1 64.5 -1.5t37 -1t26.5 -0.5h35
q4 22 7.5 39.5t7 38t8 48t12.5 69.5h70q-9 -44 -14.5 -71t-10 -46.5t-8 -36.5t-8.5 -41h33.5t28 0.5t39 1t65.5 1.5z" />
    <glyph glyph-name="daggerdbl" unicode="&#x2021;" horiz-adv-x="400" 
d="M-27 114q43 0 66 -0.5t38 -1t27.5 -1t33.5 -0.5q12 63 20.5 107.5t16 83t15.5 78.5t19 96h-34t-28 -0.5t-37.5 -1t-63.5 -1.5l12 55q42 -1 64 -1.5t36.5 -1t26.5 -0.5h33q12 60 21.5 111t14.5 84h72q-9 -44 -14.5 -71t-10 -46.5t-8 -36.5t-8.5 -41h33.5t28 0.5t39 1
t65.5 1.5l-12 -55q-43 0 -66 0.5t-38 1t-27.5 1t-33.5 0.5l-71 -365h34t28 0.5t37.5 1t63.5 1.5l-12 -55q-42 1 -64 1.5t-36.5 1t-27 0.5h-33.5q-11 -60 -20 -111t-15 -84h-72q9 43 14.5 70.5t10 47t8 36.5t8.5 41h-33.5t-28 -0.5t-39 -1t-65.5 -1.5z" />
    <glyph glyph-name="bullet" unicode="&#x2022;" horiz-adv-x="311" 
d="M64 313q0 19 7.5 36.5t21 30.5t30.5 20.5t37 7.5t37.5 -7.5t30.5 -20.5t20.5 -30.5t7.5 -36.5q0 -40 -28 -68t-68 -28q-20 0 -37 7.5t-30.5 20.5t-21 30.5t-7.5 37.5z" />
    <glyph glyph-name="ellipsis" unicode="&#x2026;" horiz-adv-x="803" 
d="M41 51q0 23 17 40t40 17t40 -17t17 -40t-17 -40t-40 -17t-40 17t-17 40zM327 51q0 23 16.5 40t39.5 17t40 -17t17 -40t-17 -40t-40 -17t-39.5 17t-16.5 40zM612 51q0 23 16.5 40t39.5 17t40 -17t17 -40t-17 -40t-40 -17t-39.5 17t-16.5 40z" />
    <glyph glyph-name="perthousand" unicode="&#x2030;" horiz-adv-x="1083" 
d="M684 689q-35 -41 -76.5 -91.5t-82.5 -100.5t-78 -95t-62 -75q-24 -30 -62 -75t-80 -95t-83.5 -100.5t-73.5 -92.5l-36 28q35 41 77 91t84 99.5t79 93.5t61 74q25 30 62 75.5t78 96.5l82 102t74 93zM230 697q63 0 95.5 -39.5t32.5 -102.5q0 -41 -12.5 -83.5t-36.5 -77
t-58 -56.5t-77 -22q-63 0 -95.5 40t-32.5 103q0 41 12.5 83t36.5 76.5t58 56.5t77 22zM230 668q-34 0 -57 -26q-14 -17 -25.5 -41t-19.5 -51.5t-12.5 -56t-4.5 -54.5q0 -47 13.5 -70.5t48.5 -23.5q14 0 30.5 7.5t27.5 19.5q14 16 25.5 40.5t19.5 52t12.5 56t4.5 54.5
q0 47 -14 70t-49 23zM569 365q63 0 95 -39.5t32 -102.5q0 -41 -12.5 -83.5t-36.5 -77.5t-58 -57t-77 -22q-63 0 -95 40.5t-32 103.5q0 41 12.5 83t36.5 76.5t58 56.5t77 22zM569 336q-36 0 -57 -26q-14 -17 -25.5 -41t-19.5 -51.5t-12.5 -56t-4.5 -54.5q0 -47 13.5 -70.5
t48.5 -23.5q14 0 30.5 7.5t26.5 19.5q14 16 25.5 40.5t19.5 52t12.5 56t4.5 54.5q0 47 -13.5 70t-48.5 23zM927 365q63 0 95.5 -39.5t32.5 -102.5q0 -41 -12.5 -83.5t-36.5 -77.5t-58 -57t-77 -22q-63 0 -95.5 40.5t-32.5 103.5q0 41 12.5 83t36.5 76.5t58 56.5t77 22z
M927 336q-34 0 -57 -26q-14 -17 -25 -41t-19 -51.5t-12.5 -56t-4.5 -54.5q0 -47 13 -70.5t48 -23.5q15 0 31 7.5t27 19.5q14 16 25.5 40.5t19.5 52t12.5 56t4.5 54.5q0 47 -14 70t-49 23z" />
    <glyph glyph-name="guilsinglleft" unicode="&#x2039;" horiz-adv-x="264" 
d="M32 274q27 19 52.5 38t52 39t54 42t59.5 46l14 -14q-38 -43 -69.5 -80t-70.5 -80l-1 -5q21 -44 41 -80.5t40 -79.5l-19 -14q-46 48 -82.5 87.5t-74.5 77.5z" />
    <glyph glyph-name="guilsinglright" unicode="&#x203a;" horiz-adv-x="259" 
d="M223 251q-27 -19 -52.5 -38t-52 -39t-54 -42t-59.5 -46l-14 14q19 21 36 40.5t33.5 39t33.5 39t37 41.5l1 5q-21 44 -41 80.5t-40 79.5l19 14q46 -48 82.5 -87.5t74.5 -77.5z" />
    <glyph glyph-name="fraction" unicode="&#x2044;" horiz-adv-x="184" 
d="M-176 -22q30 43 65.5 95.5t70.5 104.5t67 99t53 79q21 31 52.5 78t66.5 99t69.5 104.5t61.5 96.5l47 -31q-30 -43 -66.5 -95.5t-72.5 -104t-67.5 -98t-51.5 -77.5q-22 -32 -53 -79t-65.5 -99t-68.5 -105t-61 -96z" />
    <glyph glyph-name="Euro" unicode="&#x20ac;" horiz-adv-x="525" 
d="M92 287q2 24 6 48t11 47h-73l10 59q14 0 36 -0.5t45 -0.5q20 53 50 99.5t69.5 81.5t88 55t105.5 20q28 0 46.5 -2t33 -5.5t26 -9t25.5 -11.5l-40 -72q-26 34 -51 42t-53 8q-39 0 -71.5 -16.5t-58 -45t-45 -66t-33.5 -78.5h53.5t58.5 0.5t55.5 0.5h44.5l-20 -59
q-20 0 -46 0.5t-53.5 0.5h-56h-52.5q-6 -24 -10 -48.5t-6 -47.5q37 0 81.5 0.5t80.5 0.5l-20 -58q-35 1 -73 1h-73v-17q0 -79 33 -122.5t99 -43.5q41 0 83.5 17t78.5 67l40 -41q-38 -47 -90 -74.5t-121 -27.5q-97 0 -156 61t-61 180h-80l10 58z" />
    <glyph glyph-name="trademark" unicode="&#x2122;" horiz-adv-x="658" 
d="M575 527v45t-1 53h-3q-11 -35 -19 -60.5t-16.5 -51t-18.5 -56t-24 -76.5h-39q-15 43 -24.5 72t-17.5 54.5t-16.5 52.5t-20.5 65h-3v-18t-0.5 -33t-0.5 -33.5v-17.5q0 -32 1 -70.5t3 -82.5h-38q1 47 1.5 87.5t0.5 73.5v76.5t-1 76.5h89q9 -34 17 -60t15 -49.5t14 -47.5
t16 -54h2q10 33 18 58t15.5 49t15 48.5t15.5 55.5h84q0 -16 -0.5 -36.5t-0.5 -41.5v-42v-37v-157h-64q1 47 1 85v72zM299 651q-18 0 -46 0.5t-59 0.5v-125v-72.5t1 -84.5h-63q1 47 1 85v72v125q-32 0 -59.5 -0.5t-45.5 -0.5q0 8 0.5 16.5t0.5 16.5h269z" />
    <glyph glyph-name="onethird" unicode="&#x2153;" horiz-adv-x="920" 
d="M167 -22q30 43 65.5 95.5t71 104.5t67 99t52.5 79q21 31 52.5 78t66.5 99t69.5 104.5t61.5 96.5l47 -31q-30 -43 -66.5 -95.5t-72.5 -104t-67.5 -98t-51.5 -77.5q-22 -32 -53 -79t-65.5 -99t-68.5 -105t-61 -96zM205 627l-99 -12l6 37q48 9 97.5 21.5t84.5 22.5l7 -9
l-45 -219q-5 -25 -10.5 -55t-11.5 -60.5t-11 -58.5t-8 -49h-82q4 21 10 49t12 58.5t12 60.5l11 55zM879 140q0 -33 -14.5 -60t-40.5 -46t-61.5 -29.5t-77.5 -10.5q-41 0 -70.5 10.5t-50.5 27.5l36 50q11 -20 36 -34t53 -14q55 0 81 26.5t26 76.5q0 28 -17 49.5t-61 21.5
q-15 0 -26.5 -2.5t-25.5 -6.5l-8 34q27 10 54.5 19t50 22t36.5 31t14 46q0 26 -13 43t-46 17q-26 0 -57 -14t-48 -34l-16 48q29 21 62.5 31t69.5 10q64 0 94 -27t30 -64q0 -28 -12.5 -47t-32 -32t-44 -21t-47.5 -14q36 -2 60 -12t38.5 -25t21 -33.5t6.5 -36.5z" />
    <glyph glyph-name="twothirds" unicode="&#x2154;" horiz-adv-x="920" 
d="M217 -22q30 43 65.5 95.5t70.5 104.5t67 99t53 79q21 31 52.5 78t66.5 99t69.5 104.5t61.5 96.5l47 -31q-30 -43 -66.5 -95.5t-72.5 -104t-67.5 -98t-51.5 -77.5q-22 -32 -53 -79t-65.5 -99t-68.5 -105t-61 -96zM220 650q-29 0 -59 -10.5t-52 -36.5l-12 54q26 17 56 27
t75 10q75 0 110 -30t35 -89q0 -45 -29 -89t-81 -89q-13 -11 -28 -23.5t-31 -25.5t-30.5 -24.5t-26.5 -18.5q24 0 54 1t59 1.5t52.5 1.5t33.5 1q-3 -7 -7.5 -18t-8.5 -22q-5 -13 -10 -27h-277l6 34q51 37 91 70t73 65q42 42 61 78t19 87q0 38 -15.5 55.5t-57.5 17.5zM882 140
q0 -33 -14.5 -60t-40.5 -46t-61 -29.5t-77 -10.5q-41 0 -71 10.5t-50 27.5l36 50q11 -20 36 -34t53 -14q54 0 80 26.5t26 76.5q0 28 -17 49.5t-61 21.5q-14 0 -25.5 -2.5t-25.5 -6.5l-9 34q27 10 54.5 19t50 22t37 31t14.5 46q0 26 -13.5 43t-45.5 17q-26 0 -57.5 -14
t-48.5 -34l-15 48q28 21 61.5 31t69.5 10q65 0 94.5 -27t29.5 -64q0 -28 -12.5 -47t-32 -32t-43.5 -21t-48 -14q36 -2 60 -12t39 -25t21 -33.5t6 -36.5z" />
    <glyph glyph-name="oneeighth" unicode="&#x215b;" horiz-adv-x="920" 
d="M578 326q0 30 13.5 53.5t35.5 39.5t48.5 24.5t53.5 8.5q60 0 94 -23t34 -70q0 -20 -9 -38t-22.5 -33t-30.5 -27t-32 -20q32 -21 55.5 -48t23.5 -69q0 -25 -10.5 -48.5t-31 -41.5t-51 -29t-70.5 -11q-66 0 -106.5 30.5t-40.5 79.5q0 23 9.5 41t24.5 32t33.5 24t36.5 17
q-26 20 -42 46.5t-16 61.5zM174 -22q30 43 65.5 95.5t70.5 104.5t67 99t53 79q21 31 52.5 78t66.5 99t69.5 104.5t61.5 96.5l47 -31q-30 -43 -66.5 -95.5t-72.5 -104t-68 -98t-52 -77.5q-22 -32 -53 -79t-65 -99t-68 -105t-61 -96zM212 627l-100 -12l7 37q47 9 97 21.5
t85 22.5l6 -9l-45 -219q-5 -25 -10.5 -55t-11 -60.5t-10.5 -58.5t-8 -49h-82q4 21 10 49t12 58.5t11.5 60.5t10.5 55zM597 109q0 -40 25 -60t60 -20q52 0 71 21.5t19 52.5q0 17 -8.5 29.5t-23 24t-34 22t-42.5 22.5q-29 -12 -48 -35t-19 -57zM803 352q0 35 -18.5 49.5
t-56.5 14.5t-58 -19.5t-20 -45.5q0 -32 22.5 -52t58.5 -40q35 17 53.5 44t18.5 49z" />
    <glyph glyph-name="threeeighths" unicode="&#x215c;" horiz-adv-x="920" 
d="M583 326q0 30 13.5 53.5t35.5 39.5t48.5 24.5t53.5 8.5q60 0 94.5 -23t34.5 -70q0 -20 -9 -38t-23 -33t-30.5 -27t-32.5 -20q32 -21 55.5 -48t23.5 -69q0 -25 -10.5 -48.5t-31 -41.5t-51 -29t-70.5 -11q-65 0 -106 30.5t-41 79.5q0 23 9.5 41t24.5 32t33.5 24t36.5 17
q-26 20 -42 46.5t-16 61.5zM345 385q0 -33 -14.5 -60t-40.5 -45.5t-61 -29t-77 -10.5q-41 0 -71 10.5t-51 27.5l36 50q11 -20 36.5 -34t52.5 -14q107 0 107 103q0 28 -17 49.5t-61 21.5q-14 0 -25.5 -2.5t-26.5 -7.5l-8 34q27 10 54.5 19.5t50 22.5t37 31t14.5 46
q0 26 -13.5 43t-45.5 17q-26 0 -57.5 -14t-48.5 -34l-16 48q29 20 62.5 30t69.5 10q64 0 94 -26.5t30 -64.5q0 -27 -12.5 -46t-32 -32t-43.5 -21t-48 -14q36 -2 60 -12.5t39 -25.5t21 -33.5t6 -36.5zM179 -22q30 43 65.5 95.5t71 104.5t67 99t52.5 79q21 31 52.5 78t66.5 99
t69.5 104.5t61.5 96.5l47 -31q-30 -43 -66.5 -95.5t-72.5 -104t-67.5 -98t-51.5 -77.5q-22 -32 -53 -79t-65.5 -99t-68.5 -105t-61 -96zM603 109q0 -40 24.5 -60t59.5 -20q52 0 71 21.5t19 52.5q0 17 -8.5 29.5t-22.5 24t-34 22t-42 22.5q-29 -12 -48 -35t-19 -57zM809 352
q0 35 -18.5 49.5t-57.5 14.5q-37 0 -57.5 -19.5t-20.5 -45.5q0 -32 22.5 -52t59.5 -40q35 17 53.5 44t18.5 49z" />
    <glyph glyph-name="fiveeighths" unicode="&#x215d;" horiz-adv-x="920" 
d="M591 326q0 30 13.5 53.5t35.5 39.5t48.5 24.5t53.5 8.5q60 0 94 -23t34 -70q0 -20 -9 -38t-22.5 -33t-30.5 -27t-32 -20q32 -21 55.5 -48t23.5 -69q0 -25 -10.5 -48.5t-31 -41.5t-51 -29t-70.5 -11q-66 0 -106.5 30.5t-40.5 79.5q0 23 9.5 41t24.5 32t33.5 24t36.5 17
q-26 20 -42 46.5t-16 61.5zM139 543q80 -20 128 -56t48 -98q0 -30 -11.5 -57.5t-33.5 -48t-54 -33t-72 -12.5q-18 0 -38 2t-39 6t-35.5 10t-27.5 15l36 64q7 -11 19 -20.5t26 -17t29.5 -12t29.5 -4.5q45 0 73 19t28 68q0 25 -15 43.5t-39 32.5t-54.5 23.5t-61.5 16.5l48 203
h233l-23 -68q-10 0 -32 1t-48 1.5l-52 1t-45 0.5zM196 -22q30 43 65.5 95.5t70.5 104.5t67 99t53 79q21 31 52.5 78t66.5 99t69.5 104.5t61.5 96.5l47 -31q-30 -43 -66.5 -95.5t-72.5 -104t-68 -98t-52 -77.5q-22 -32 -53 -79t-65 -99t-68 -105t-61 -96zM610 109
q0 -40 25 -60t60 -20q52 0 71 21.5t19 52.5q0 17 -8.5 29.5t-23 24t-34 22t-42.5 22.5q-29 -12 -48 -35t-19 -57zM816 352q0 35 -18.5 49.5t-56.5 14.5t-58.5 -19.5t-20.5 -45.5q0 -32 23 -52t59 -40q35 17 53.5 44t18.5 49z" />
    <glyph glyph-name="seveneighths" unicode="&#x215e;" horiz-adv-x="920" 
d="M598 326q0 30 13.5 53.5t35.5 39.5t48.5 24.5t53.5 8.5q60 0 94.5 -23t34.5 -70q0 -20 -9 -38t-23 -33t-31 -27t-32 -20q32 -21 55.5 -48t23.5 -69q0 -25 -10.5 -48.5t-31 -41.5t-51 -29t-70.5 -11q-65 0 -106 30.5t-41 79.5q0 23 9.5 41t24.5 32t33.5 24t36.5 17
q-26 20 -42 46.5t-16 61.5zM167 -22q30 43 65.5 95.5t70.5 104.5t66.5 99t52.5 79q21 31 52.5 78t66.5 99t70 104.5t62 96.5l46 -31q-30 -43 -66.5 -95.5t-72.5 -104t-67.5 -98t-51.5 -77.5q-22 -32 -53 -79t-65.5 -99t-68.5 -105t-61 -96zM79 245q46 62 83 112.5t68.5 95
t59.5 86.5t57 88q-20 0 -57.5 -0.5t-76.5 -1t-71 -1t-42 -0.5q4 11 7.5 22t7.5 20q4 11 8 21h299l3 -16q-30 -47 -57.5 -91t-58 -93t-68.5 -107.5t-90 -134.5h-72zM617 109q0 -40 25 -60t60 -20q52 0 71 21.5t19 52.5q0 17 -8.5 29.5t-23 24t-34 22t-42.5 22.5
q-29 -12 -48 -35t-19 -57zM823 352q0 35 -18.5 49.5t-56.5 14.5t-58 -19.5t-20 -45.5q0 -32 22.5 -52t59.5 -40q35 17 53 44t18 49z" />
    <glyph glyph-name="minus" unicode="&#x2212;" horiz-adv-x="584" 
d="M516 247h-455v48h455v-48z" />
    <glyph glyph-name="notequal" unicode="&#x2260;" horiz-adv-x="492" 
d="M374 494l-39 -107h160v-48h-178l-49 -136h227v-48h-245l-45 -124l-45 17l39 107h-159v48h176l50 136h-226v48h243l45 124z" />
    <glyph glyph-name="lessequal" unicode="&#x2264;" horiz-adv-x="584" 
d="M524 165l-455 165v48l455 184v-54l-384 -154l384 -135v-54zM524 135v-48h-455v48h455z" />
    <glyph glyph-name="greaterequal" unicode="&#x2265;" horiz-adv-x="584" 
d="M55 219l385 135l-385 154v54l456 -184v-48l-456 -165v54zM511 135v-48h-456v48h456z" />
    <glyph glyph-name="Pcircle" unicode="&#x24c5;" horiz-adv-x="889" 
d="M46 229q0 82 31 154.5t84 126.5t125 85t154 31t154 -31t125 -85t84 -126.5t31 -154.5t-31 -154t-84 -126t-125 -85t-154 -31t-154 31t-125 85t-84 126t-31 154zM88 229q0 -74 27.5 -139t75 -114t111.5 -77t138 -28t138 28t111.5 77t75 114t27.5 139t-27.5 139.5t-75 114
t-111.5 77t-138 28.5t-138 -28.5t-111.5 -77t-75 -114t-27.5 -139.5zM305 -16q1 71 1.5 133t0.5 113v107.5t-2 125.5h161q69 0 112 -35t43 -103q0 -30 -10.5 -56t-32 -45t-55.5 -30t-81 -11h-55v-94t2 -105h-84zM431 223q106 0 106 102q0 29 -8 48t-21.5 30.5t-32.5 16
t-41 4.5q-14 0 -24 -1t-22 -2v-99q-1 -23 -1 -47.5v-51.5h44z" />
    <glyph glyph-name="Oacute.pl" horiz-adv-x="677" 
d="M395 696q54 0 101 -19t81 -55t53.5 -88t19.5 -118q0 -93 -27.5 -171.5t-74.5 -135.5t-110.5 -89t-136.5 -32q-55 0 -101.5 19t-80.5 55t-53.5 88t-19.5 118q0 93 27 171.5t74.5 135.5t111 89t136.5 32zM304 42q61 0 107.5 36t78 92t47 124t15.5 131q0 102 -40 159
t-121 57q-62 0 -108 -36t-77 -91.5t-46.5 -123.5t-15.5 -131q0 -103 39.5 -160t120.5 -57zM367 741q13 26 23.5 47.5t18.5 40t16 36t17 35.5l70 -25q-14 -19 -25 -35.5t-23 -33.5t-25 -36t-29 -42z" />
    <glyph glyph-name="space_uni0326" 
d="M214 -21q3 -6 8 -17.5t5 -33.5q0 -48 -26 -77.5t-74 -46.5l-13 26q8 4 16.5 12t15.5 18.5t11.5 23t4.5 24.5t-3 23.5t-12 22.5z" />
    <glyph glyph-name="acute.pl" 
d="M129 537q28 53 47.5 91.5t36.5 75.5h76q-28 -38 -54.5 -78.5t-59.5 -88.5h-46z" />
    <glyph glyph-name="Cacute.pl" horiz-adv-x="618" 
d="M329 51q37 0 66 6t52.5 19.5t44 35.5t41.5 54l40 -35q-37 -68 -103.5 -105t-154.5 -37q-60 0 -109.5 20.5t-85 58t-55 91t-19.5 119.5q0 93 28 169.5t76.5 132t113 86t137.5 30.5q40 0 70 -3.5t54.5 -11t44.5 -18.5t41 -25l-43 -70q-17 21 -34 35.5t-37 22.5t-44.5 11.5
t-55.5 3.5q-68 0 -116 -34.5t-78.5 -88.5t-44.5 -120t-14 -129q0 -57 16 -98t42 -68t59 -39.5t68 -12.5zM348 731q13 27 23 48t18.5 40t16 36.5t16.5 35.5l71 -25q-14 -19 -25.5 -35.5t-23 -33.5t-24.5 -36t-29 -42z" />
    <glyph glyph-name="Nacute.pl" horiz-adv-x="656" 
d="M434 0q-31 72 -63.5 159t-63.5 171t-57 158t-44 121q-3 -18 -5.5 -37t-7 -47t-11.5 -69.5t-18 -104.5q-8 -47 -15.5 -89l-15 -84t-15 -85.5t-15.5 -92.5h-66q18 101 34.5 189.5t28.5 161.5q7 39 14 82.5t13 87t10 85t3 78.5h130q32 -81 58 -150.5t51 -135.5t50 -132.5
t55 -141.5q5 26 10 57t10.5 61.5t10 59t8.5 49.5q14 74 27.5 153.5t30.5 179.5h66l-60 -333q-13 -73 -28.5 -162t-32.5 -189h-92zM370 741q13 26 23 47.5t18.5 40t16 36t16.5 35.5l71 -25q-14 -19 -25.5 -35.5t-23 -33.5t-24.5 -36t-29 -42z" />
    <glyph glyph-name="Sacute.pl" horiz-adv-x="519" 
d="M227 -11q-27 0 -55 4.5t-54.5 13.5t-50 21t-39.5 27l34 91q32 -58 80 -81.5t94 -23.5q40 0 67 8.5t42.5 24t22 37t6.5 47.5q0 22 -6.5 40t-21.5 36.5t-40 41t-62 53.5q-26 21 -48 42t-38 43.5t-25.5 47.5t-9.5 55q0 50 18 84t47 55t65.5 30.5t73.5 9.5q60 0 97.5 -12.5
t66.5 -32.5l-31 -87q-23 34 -55 55.5t-86 21.5q-51 0 -82 -20t-31 -65q0 -22 5 -38.5t16.5 -33t30 -34t45.5 -41.5q40 -36 70.5 -62t51 -50t30.5 -50.5t10 -64.5q0 -37 -13 -72t-41.5 -62t-73.5 -43t-110 -16zM288 731q13 27 23.5 48t18.5 40t15.5 36.5t16.5 35.5l71 -25
q-14 -19 -25.5 -35.5t-23 -33.5t-24.5 -36t-29 -42z" />
    <glyph glyph-name="cacute.pl" horiz-adv-x="401" 
d="M212 50q52 0 86.5 20t63.5 46l23 -28q-15 -18 -34.5 -36t-43.5 -32t-52.5 -22.5t-61.5 -8.5q-82 0 -123.5 49t-41.5 137q0 62 20.5 118t56.5 98t85 66.5t107 24.5q38 0 65.5 -7t47.5 -18l-31 -68q-20 26 -40.5 39.5t-49.5 13.5q-41 0 -73 -22t-54 -58.5t-34 -83
t-12 -94.5q0 -26 4 -50t15 -42.5t29.5 -30t47.5 -11.5zM259 537q27 54 46.5 92t37.5 75h76q-28 -38 -54.5 -78.5t-59.5 -88.5h-46z" />
    <glyph glyph-name="idotaccent" horiz-adv-x="224" 
d="M75 256q8 39 13.5 66t9.5 49t8 42.5t9 44.5l95 19q-13 -58 -27 -119l-28 -122q-8 -39 -14 -68.5t-11 -56l-10 -53t-11 -58.5h-91zM138 653q0 23 16 39.5t39 16.5t39.5 -16.5t16.5 -39.5t-16.5 -39t-39.5 -16t-39 16t-16 39z" />
    <glyph glyph-name="nacute.pl" horiz-adv-x="525" 
d="M71 236q16 77 25 126t16 90l88 18q-4 -17 -6 -29t-4 -23h3q15 10 32 20t29 16q28 13 50.5 20.5t57.5 7.5q62 0 92 -32t28 -81q-1 -15 -1.5 -26t-4.5 -31l-22 -99q-9 -39 -14 -65t-9.5 -48t-8.5 -45t-11 -55h-93q7 32 13.5 58.5t12.5 53t12.5 56t14.5 68.5q7 31 15 64.5
t8 67.5q-1 27 -16 41t-50 14q-29 0 -67.5 -13t-74.5 -40l-33 -155q-8 -39 -13.5 -65t-9.5 -48.5t-8.5 -46t-11.5 -55.5h-92q7 32 13.5 58.5t12.5 53t12.5 56t14.5 68.5zM262 537q28 53 47.5 91.5t37.5 75.5h75q-28 -38 -54.5 -78.5t-59.5 -88.5h-46z" />
    <glyph glyph-name="oacute.pl" horiz-adv-x="507" 
d="M224 30q45 0 76 25t50 64.5t27.5 87.5t8.5 95q0 73 -30.5 106t-72.5 34q-45 0 -76 -25t-50 -65t-27.5 -88.5t-8.5 -94.5q0 -73 30 -106t73 -33zM291 482q80 0 131 -47t53 -142q0 -59 -18.5 -114t-52 -97t-81.5 -67.5t-107 -25.5q-80 0 -131 47t-53 142q0 59 18 114t52 97
t82 67.5t107 25.5zM247 537q27 54 46.5 92t37.5 75h76q-28 -38 -54.5 -78.5t-59.5 -88.5h-46z" />
    <glyph glyph-name="sacute.pl" horiz-adv-x="353" 
d="M135 -11q-48 0 -86 12.5t-67 36.5l32 63q25 -33 58 -49t68 -16q51 0 75.5 22.5t24.5 49.5q0 18 -5.5 30.5t-16.5 24.5t-28 25t-39 31q-18 14 -34 27t-27.5 27.5t-18.5 33t-7 44.5q0 27 10.5 51t30.5 41.5t49.5 28t67.5 10.5q35 0 67 -7t50 -21l-31 -65q-13 23 -35.5 36
t-58.5 13q-33 0 -55 -12.5t-22 -45.5q0 -27 17 -46t46 -41q26 -20 47 -36.5t35.5 -33t22.5 -35.5t7 -44q-1 -31 -13 -59t-35 -49.5t-55.5 -34t-73.5 -12.5zM181 537q28 53 47.5 91.5t37.5 75.5h75q-27 -38 -54 -78.5t-60 -88.5h-46z" />
    <glyph glyph-name="dollar.old" horiz-adv-x="489" 
d="M154 -101l19 95q-41 4 -85 19t-70 38l40 73q23 -42 56 -62t67 -25q14 69 24.5 126.5t18.5 105.5l-9 7q-23 18 -44 35t-37 36t-25 43t-9 57q0 42 16.5 72t43 50t59 30t64.5 12l11 63h53l-13 -65q38 -4 72.5 -14.5t57.5 -25.5l-34 -72q-20 29 -46 44t-60 19l-42 -218
q38 -32 66.5 -53t47 -40.5t27.5 -41.5t9 -55t-13 -62t-39 -50.5t-65.5 -34.5t-91.5 -14q-4 -22 -9.5 -47.5t-7.5 -44.5h-52zM356 132q0 16 -5.5 28.5t-17 24.5t-28.5 25.5t-39 31.5q-8 -48 -17 -98t-19 -110q69 2 97.5 27t28.5 71zM172 468q0 -32 18 -53.5t50 -49.5
q8 42 17.5 94.5t17.5 101.5q-42 0 -72.5 -24t-30.5 -69z" />
    <glyph glyph-name="Euro.old" horiz-adv-x="525" 
d="M92 270q2 24 6 47.5t11 46.5h-76l8 50q15 0 37 -0.5t45 -0.5q41 107 117.5 166t190.5 59q28 0 49 -3.5t37 -9t28 -11.5t23 -11l-37 -64q-26 34 -54.5 44t-56.5 10q-78 0 -128 -48.5t-78 -131.5h54.5t59 0.5t56.5 0.5h45l-18 -50q-20 0 -46 0.5t-54.5 0.5h-57h-52.5
q-7 -24 -10.5 -48t-6.5 -47h165l-20 -48q-35 1 -74.5 1h-74.5v-17q0 -79 36 -122.5t94 -43.5q41 0 87 18.5t81 67.5l36 -35q-37 -47 -90 -74.5t-122 -27.5q-98 0 -154.5 56.5t-58.5 176.5h-85l10 48h78z" />
    <glyph glyph-name="sterling.old" horiz-adv-x="506" 
d="M15 0l-6 6q29 39 47.5 73.5t30.5 68.5t19 67.5t13 69.5q5 33 10.5 72.5t16.5 74.5q12 42 29.5 79.5t44 66t64 45.5t90.5 17q42 0 74 -8t51 -16l-31 -63q-6 8 -13.5 16t-19 15t-27.5 11t-39 4q-41 0 -66.5 -19t-41.5 -52t-24 -77t-15 -94l191 3l-16 -54l-182 2
q-5 -29 -11 -61.5t-16 -66t-26.5 -66t-41.5 -61.5q45 1 92.5 1.5t91.5 1.5t81 1.5t60 1.5l-14 -59h-416z" />
    <glyph glyph-name="yen.old" horiz-adv-x="556" 
d="M185 0l33 183l-158 -3l11 49q57 -2 91 -2.5t64 -0.5l10 53q0 5 -1.5 14t-3.5 14l-145 -2l8 49l123 -1q-13 34 -24.5 64t-23 62.5t-24.5 68.5t-28 82h90q16 -54 28 -92t23 -70t22 -64.5t25 -76.5q30 47 54.5 84.5t47 71.5t45 68.5t48.5 75.5h66q-33 -47 -57.5 -81
t-45.5 -64l-42 -60t-47 -69q28 0 58 1t70 3l-10 -52h-151l-16 -28q-4 -17 -5.5 -25.5t-3.5 -25.5q33 0 69.5 0.5t91.5 2.5l-9 -49q-56 0 -93 0.5t-70 1.5l-31 -182h-89z" />
    <glyph glyph-name="zero.old" horiz-adv-x="525" 
d="M233 30q45 0 77.5 24t53.5 62.5t31 85.5t10 94q0 74 -31.5 109.5t-80.5 36.5q-45 0 -77.5 -24t-53.5 -62.5t-31 -86t-10 -93.5q0 -74 31 -110t81 -36zM300 482q40 0 74.5 -13t61 -37.5t41.5 -61t16 -83.5q0 -59 -19.5 -113t-55 -95t-85 -65.5t-108.5 -24.5q-39 0 -74 13
t-61 38t-41.5 61.5t-16.5 83.5q0 59 20 112.5t55.5 94.5t84.5 65.5t108 24.5z" />
    <glyph glyph-name="one.old" horiz-adv-x="287" 
d="M116 236q11 48 20.5 96.5t15.5 80.5q-28 -3 -52 -4.5t-54 -3.5l7 35l193 43l9 -11q-12 -56 -26.5 -116.5t-27.5 -119.5q-8 -39 -14 -68.5t-11.5 -56t-10 -53t-10.5 -58.5h-92q8 32 14 58.5l12 53t12.5 56t14.5 68.5z" />
    <glyph glyph-name="two.old" horiz-adv-x="425" 
d="M210 442q-42 0 -77.5 -19t-61.5 -45l-21 53q36 21 76 36t92 15q91 0 130.5 -35.5t39.5 -95.5q0 -43 -25.5 -82t-63 -74t-80.5 -65t-79 -55q36 0 71 1t65.5 1.5t55.5 1.5t40 1q-6 -11 -13.5 -24t-15.5 -26q-9 -15 -17 -30h-340v16q63 37 119.5 79t99 84.5t68 84.5t25.5 81
q0 59 -21.5 78t-66.5 19z" />
    <glyph glyph-name="three.old" horiz-adv-x="416" 
d="M364 16q0 -41 -15.5 -81.5t-48 -72.5t-82 -51.5t-117.5 -19.5q-47 0 -95 13t-80 40l53 52q17 -29 49.5 -46t77.5 -17q30 0 59.5 11t52.5 32.5t37 54t14 75.5q0 62 -31.5 92.5t-90.5 32.5q-13 0 -21.5 -1t-16 -2.5t-16 -4.5t-20.5 -6l-13 34q48 21 89 39.5t71 40.5t47 50
t17 67q0 54 -22.5 74t-63.5 20q-32 0 -62.5 -10t-62.5 -39l-32 46q40 22 74.5 32.5t82.5 10.5q96 0 136 -34t40 -96q0 -30 -15.5 -59t-41.5 -53.5t-60 -43.5t-70 -29q39 -3 72 -15.5t56 -32.5t36 -46t13 -57z" />
    <glyph glyph-name="four.old" horiz-adv-x="525" 
d="M207 -193q11 47 22.5 100t25.5 110q-50 0 -96.5 -0.5t-84.5 -1.5q-44 -1 -83 -1l5 28q51 49 104.5 103.5t106 111t103.5 112.5t96 108q3 -2 8 -3t11.5 -2t15.5 -1q-5 -19 -12 -49t-15 -66.5t-17 -76t-17 -77t-15.5 -71.5t-12.5 -58l137 2l-13 -61q-17 0 -54 0.5t-83 1.5
q-8 -44 -18 -92t-23 -117h-91zM266 72q7 31 14 65.5t14 67.5t13 62t10 50q-37 -38 -78.5 -81.5t-76.5 -80.5q-41 -43 -81 -85z" />
    <glyph glyph-name="five.old" horiz-adv-x="376" 
d="M115 236q43 -11 80.5 -30t64.5 -45t42.5 -59t15.5 -73q0 -48 -14.5 -91t-46 -75.5t-81.5 -52t-120 -19.5q-46 0 -84 10.5t-73 31.5l38 55q20 -25 50 -40t72 -15q81 0 126.5 41t45.5 126q0 57 -50.5 101t-144.5 68l95 301h264q-8 -14 -17 -38t-16 -45q-15 0 -37.5 0.5
t-49 1.5t-56 1.5t-57.5 0.5z" />
    <glyph glyph-name="six.old" horiz-adv-x="529" 
d="M512 663q-57 -17 -111 -44t-100 -63t-82 -80t-57 -93h4q28 28 65.5 41t73.5 13q55 0 89.5 -15.5t53.5 -40t26 -56t7 -62.5q0 -67 -22.5 -118.5t-58.5 -86t-81.5 -52t-92.5 -17.5q-50 0 -86.5 17t-60.5 46.5t-35.5 69t-11.5 85.5q0 62 19.5 119t53.5 108t80 95t98 78.5
t108 58t111 35.5zM288 394q-43 0 -73.5 -18.5t-50 -49t-29 -70.5t-9.5 -83q0 -74 30 -107.5t74 -33.5q77 0 116.5 64t39.5 179q0 22 -5 43.5t-16.5 38.5t-30 27t-46.5 10z" />
    <glyph glyph-name="seven.old" horiz-adv-x="422" 
d="M0 -173q40 62 79 125t80 131.5t87 145t101 165.5q-30 -1 -77.5 -1.5t-95.5 -1t-88 -1t-55 -0.5q5 14 9.5 28.5t7.5 25.5q4 13 7 26h374l3 -22q-22 -37 -53.5 -90t-66.5 -113t-71 -122.5t-68 -119t-57 -103t-38 -74.5z" />
    <glyph glyph-name="eight.old" horiz-adv-x="520" 
d="M29 153q0 42 17 72.5t44 52.5t60 37t64 26q-20 16 -38 35.5t-32 41t-22.5 45t-8.5 47.5q0 45 17 79.5t46.5 58t69 36t83.5 12.5q48 0 81.5 -11t54.5 -31t31 -47t10 -60q0 -27 -14.5 -54t-37 -51.5t-50.5 -45t-55 -33.5q20 -17 41.5 -38.5t39 -44.5t29 -47.5t11.5 -47.5
q0 -43 -15 -79t-45 -62t-74.5 -40.5t-102.5 -14.5q-94 0 -149 43.5t-55 120.5zM384 155q0 21 -11 41.5t-29.5 41t-43.5 40t-53 39.5q-30 -13 -55.5 -27t-43.5 -32.5t-28.5 -43t-10.5 -58.5q0 -61 33 -93t91 -32q41 0 69.5 9.5t46.5 26t26 39.5t9 49zM199 546q0 -27 10 -49
t26 -40.5t37 -34.5t42 -31q57 25 86.5 63.5t29.5 82.5q0 58 -24.5 86t-81.5 28q-58 0 -91.5 -30t-33.5 -75z" />
    <glyph glyph-name="nine.old" horiz-adv-x="526" 
d="M14 -174q57 16 111 40.5t100 57.5t82 73.5t57 90.5h-3q-55 -52 -125 -52q-51 0 -87 15t-59.5 39.5t-34 55t-10.5 62.5q0 67 22.5 118.5t58.5 86t81.5 52t92.5 17.5q49 0 85.5 -17t60.5 -46.5t36 -69t12 -85.5q0 -61 -19.5 -117t-53.5 -105.5t-80 -90.5t-98 -73.5
t-108 -55.5t-111 -34zM238 77q43 0 73.5 18.5t50 49t29 70.5t9.5 83q0 74 -30 108t-74 34q-77 0 -116.5 -64.5t-39.5 -179.5q0 -23 5 -44t16.5 -38t30.5 -27t46 -10z" />
    <glyph glyph-name="percent.old" horiz-adv-x="724" 
d="M684 689q-35 -41 -76.5 -91.5t-82.5 -100.5t-78 -95t-62 -75q-24 -30 -62 -75t-80 -95t-83.5 -100.5t-73.5 -92.5l-36 28q35 41 77 91t84 99.5t79 93.5t61 74q25 30 62 75.5t78 96.5l82 102t74 93zM230 697q63 0 95.5 -39.5t32.5 -102.5q0 -41 -12.5 -83.5t-36.5 -77
t-58 -56.5t-77 -22q-63 0 -95.5 40t-32.5 103q0 41 12.5 83t36.5 76.5t58 56.5t77 22zM230 668q-34 0 -57 -26q-14 -17 -25.5 -41t-19.5 -51.5t-12.5 -56t-4.5 -54.5q0 -47 13.5 -70.5t48.5 -23.5q14 0 30.5 7.5t27.5 19.5q14 16 25.5 40.5t19.5 52t12.5 56t4.5 54.5
q0 47 -14 70t-49 23zM569 365q63 0 95 -39.5t32 -102.5q0 -41 -12.5 -83.5t-36.5 -77.5t-58 -57t-77 -22q-63 0 -95 40.5t-32 103.5q0 41 12.5 83t36.5 76.5t58 56.5t77 22zM569 336q-36 0 -57 -26q-14 -17 -25.5 -41t-19.5 -51.5t-12.5 -56t-4.5 -54.5q0 -47 13.5 -70.5
t48.5 -23.5q14 0 30.5 7.5t26.5 19.5q14 16 25.5 40.5t19.5 52t12.5 56t4.5 54.5q0 47 -13.5 70t-48.5 23z" />
    <glyph glyph-name="perthousand.old" horiz-adv-x="1083" 
d="M684 689q-35 -41 -76.5 -91.5t-82.5 -100.5t-78 -95t-62 -75q-24 -30 -62 -75t-80 -95t-83.5 -100.5t-73.5 -92.5l-36 28q35 41 77 91t84 99.5t79 93.5t61 74q25 30 62 75.5t78 96.5l82 102t74 93zM230 697q63 0 95.5 -39.5t32.5 -102.5q0 -41 -12.5 -83.5t-36.5 -77
t-58 -56.5t-77 -22q-63 0 -95.5 40t-32.5 103q0 41 12.5 83t36.5 76.5t58 56.5t77 22zM230 668q-34 0 -57 -26q-14 -17 -25.5 -41t-19.5 -51.5t-12.5 -56t-4.5 -54.5q0 -47 13.5 -70.5t48.5 -23.5q14 0 30.5 7.5t27.5 19.5q14 16 25.5 40.5t19.5 52t12.5 56t4.5 54.5
q0 47 -14 70t-49 23zM569 365q63 0 95 -39.5t32 -102.5q0 -41 -12.5 -83.5t-36.5 -77.5t-58 -57t-77 -22q-63 0 -95 40.5t-32 103.5q0 41 12.5 83t36.5 76.5t58 56.5t77 22zM569 336q-36 0 -57 -26q-14 -17 -25.5 -41t-19.5 -51.5t-12.5 -56t-4.5 -54.5q0 -47 13.5 -70.5
t48.5 -23.5q14 0 30.5 7.5t26.5 19.5q14 16 25.5 40.5t19.5 52t12.5 56t4.5 54.5q0 47 -13.5 70t-48.5 23zM927 365q63 0 95.5 -39.5t32.5 -102.5q0 -41 -12.5 -83.5t-36.5 -77.5t-58 -57t-77 -22q-63 0 -95.5 40.5t-32.5 103.5q0 41 12.5 83t36.5 76.5t58 56.5t77 22z
M927 336q-34 0 -57 -26q-14 -17 -25 -41t-19 -51.5t-12.5 -56t-4.5 -54.5q0 -47 13 -70.5t48 -23.5q15 0 31 7.5t27 19.5q14 16 25.5 40.5t19.5 52t12.5 56t4.5 54.5q0 47 -14 70t-49 23z" />
    <glyph glyph-name="plus.old" horiz-adv-x="547" 
d="M237 12v199h-182v48h182v199h55v-199h182v-48h-182v-199h-55z" />
    <glyph glyph-name="minus.old" horiz-adv-x="547" 
d="M60 211v48h418v-48h-418z" />
    <glyph glyph-name="multiply.old" horiz-adv-x="547" 
d="M273 268l164 163l34 -33l-165 -164l165 -164l-34 -33l-164 164l-164 -164l-33 34l163 163l-163 163l33 34z" />
    <glyph glyph-name="divide.old" horiz-adv-x="547" 
d="M224 64q0 21 15 36.5t36 15.5t36.5 -15.5t15.5 -36.5q0 -20 -15.5 -35t-36.5 -15t-36 15t-15 35zM224 402q0 21 15 36.5t36 15.5t36.5 -15.5t15.5 -36.5t-15.5 -36t-36.5 -15t-36 15t-15 36zM60 211v48h418v-48h-418z" />
    <glyph glyph-name="equal.old" horiz-adv-x="547" 
d="M483 303h-419v48h419v-48zM483 119h-419v48h419v-48z" />
    <glyph glyph-name="less.old" horiz-adv-x="547" 
d="M477 36l-409 175v48l409 174v-51l-347 -147l347 -148v-51z" />
    <glyph glyph-name="greater.old" horiz-adv-x="547" 
d="M68 87l348 148l-348 147v51l409 -174v-48l-409 -175v51z" />
    <glyph glyph-name="numbersign.old" horiz-adv-x="584" 
d="M324 0q11 58 21 108t19 96h-31.5t-30.5 1q-20 0 -38 0.5t-37 0.5q-8 -47 -17 -96t-20 -110h-50q11 58 21 108.5t19 97.5q-37 0 -77 -0.5t-85 -0.5v40q51 -2 90 -2.5t79 -0.5l14 73l13 71h-162v40q51 -2 90 -2.5t79 -0.5q9 48 18.5 97.5t19.5 107.5h51l-42 -205h137
q9 48 18.5 97.5t19.5 107.5h53l-42 -205q35 0 74.5 0.5t90.5 1.5v-42q-48 2 -90 2h-83q-2 -12 -4.5 -24t-5.5 -28t-7.5 -38t-10.5 -53q36 0 76 0.5t91 1.5v-42q-48 2 -90 2h-83l-36 -204h-52zM233 242h138l14 73l13 70h-36t-35 1h-66q-5 -23 -9 -44.5t-8 -41.5z" />
    <glyph glyph-name="dollar.tab" horiz-adv-x="552" 
d="M190 -101l18 93q-46 5 -90 21t-72 42l34 82q26 -47 62.5 -69t74.5 -28l52 280l-10 8q-26 20 -47.5 37.5t-37.5 38t-24.5 46t-8.5 62.5q0 43 17 76.5t44 57t62 36t71 14.5l12 70h50l-14 -72q43 -5 72.5 -15.5t54.5 -27.5l-29 -82q-23 34 -47.5 50t-61.5 20l-44 -240
q42 -35 71 -59t47 -46t26 -47t8 -62t-12 -71.5t-38.5 -61.5t-69.5 -44.5t-105 -18.5q-5 -24 -8.5 -47t-6.5 -43h-50zM397 158q0 18 -4.5 33.5t-15 30.5t-28 31.5t-42.5 36.5l-44 -253q38 1 63.5 10.5t41.5 25.5t22.5 37.5t6.5 47.5zM222 546q0 -18 3.5 -32.5t12 -27.5
t21 -26t30.5 -29q8 48 18 101.5t19 107.5q-46 -2 -75 -27t-29 -67z" />
    </font>
</defs>
</svg>
